%TF.GenerationSoftware,KiCad,Pcbnew,7.0.4*%
%TF.CreationDate,2023-05-29T10:37:39-04:00*%
%TF.ProjectId,keyboard,6b657962-6f61-4726-942e-6b696361645f,rev?*%
%TF.SameCoordinates,Original*%
%TF.FileFunction,Legend,Top*%
%TF.FilePolarity,Positive*%
%FSLAX46Y46*%
G04 Gerber Fmt 4.6, Leading zero omitted, Abs format (unit mm)*
G04 Created by KiCad (PCBNEW 7.0.4) date 2023-05-29 10:37:39*
%MOMM*%
%LPD*%
G01*
G04 APERTURE LIST*
%ADD10C,0.300000*%
%ADD11C,0.150000*%
%ADD12C,0.250000*%
%ADD13C,3.048000*%
%ADD14C,3.987800*%
%ADD15C,1.750000*%
%ADD16R,1.200000X1.200000*%
%ADD17C,1.200000*%
%ADD18C,5.000000*%
%ADD19C,1.550000*%
%ADD20R,1.550000X1.550000*%
%ADD21O,1.800000X1.800000*%
%ADD22O,1.500000X1.500000*%
%ADD23O,1.700000X1.700000*%
%ADD24R,1.700000X1.700000*%
G04 APERTURE END LIST*
D10*
X155764332Y-159432078D02*
X155764332Y-160503507D01*
X155764332Y-160503507D02*
X155692903Y-160717792D01*
X155692903Y-160717792D02*
X155550046Y-160860650D01*
X155550046Y-160860650D02*
X155335760Y-160932078D01*
X155335760Y-160932078D02*
X155192903Y-160932078D01*
X157192903Y-160932078D02*
X156478617Y-160932078D01*
X156478617Y-160932078D02*
X156478617Y-159432078D01*
X158550046Y-160789221D02*
X158478618Y-160860650D01*
X158478618Y-160860650D02*
X158264332Y-160932078D01*
X158264332Y-160932078D02*
X158121475Y-160932078D01*
X158121475Y-160932078D02*
X157907189Y-160860650D01*
X157907189Y-160860650D02*
X157764332Y-160717792D01*
X157764332Y-160717792D02*
X157692903Y-160574935D01*
X157692903Y-160574935D02*
X157621475Y-160289221D01*
X157621475Y-160289221D02*
X157621475Y-160074935D01*
X157621475Y-160074935D02*
X157692903Y-159789221D01*
X157692903Y-159789221D02*
X157764332Y-159646364D01*
X157764332Y-159646364D02*
X157907189Y-159503507D01*
X157907189Y-159503507D02*
X158121475Y-159432078D01*
X158121475Y-159432078D02*
X158264332Y-159432078D01*
X158264332Y-159432078D02*
X158478618Y-159503507D01*
X158478618Y-159503507D02*
X158550046Y-159574935D01*
X159621475Y-159432078D02*
X159621475Y-160503507D01*
X159621475Y-160503507D02*
X159550046Y-160717792D01*
X159550046Y-160717792D02*
X159407189Y-160860650D01*
X159407189Y-160860650D02*
X159192903Y-160932078D01*
X159192903Y-160932078D02*
X159050046Y-160932078D01*
X161050046Y-160932078D02*
X160335760Y-160932078D01*
X160335760Y-160932078D02*
X160335760Y-159432078D01*
X162407189Y-160789221D02*
X162335761Y-160860650D01*
X162335761Y-160860650D02*
X162121475Y-160932078D01*
X162121475Y-160932078D02*
X161978618Y-160932078D01*
X161978618Y-160932078D02*
X161764332Y-160860650D01*
X161764332Y-160860650D02*
X161621475Y-160717792D01*
X161621475Y-160717792D02*
X161550046Y-160574935D01*
X161550046Y-160574935D02*
X161478618Y-160289221D01*
X161478618Y-160289221D02*
X161478618Y-160074935D01*
X161478618Y-160074935D02*
X161550046Y-159789221D01*
X161550046Y-159789221D02*
X161621475Y-159646364D01*
X161621475Y-159646364D02*
X161764332Y-159503507D01*
X161764332Y-159503507D02*
X161978618Y-159432078D01*
X161978618Y-159432078D02*
X162121475Y-159432078D01*
X162121475Y-159432078D02*
X162335761Y-159503507D01*
X162335761Y-159503507D02*
X162407189Y-159574935D01*
X163478618Y-159432078D02*
X163478618Y-160503507D01*
X163478618Y-160503507D02*
X163407189Y-160717792D01*
X163407189Y-160717792D02*
X163264332Y-160860650D01*
X163264332Y-160860650D02*
X163050046Y-160932078D01*
X163050046Y-160932078D02*
X162907189Y-160932078D01*
X164907189Y-160932078D02*
X164192903Y-160932078D01*
X164192903Y-160932078D02*
X164192903Y-159432078D01*
X166264332Y-160789221D02*
X166192904Y-160860650D01*
X166192904Y-160860650D02*
X165978618Y-160932078D01*
X165978618Y-160932078D02*
X165835761Y-160932078D01*
X165835761Y-160932078D02*
X165621475Y-160860650D01*
X165621475Y-160860650D02*
X165478618Y-160717792D01*
X165478618Y-160717792D02*
X165407189Y-160574935D01*
X165407189Y-160574935D02*
X165335761Y-160289221D01*
X165335761Y-160289221D02*
X165335761Y-160074935D01*
X165335761Y-160074935D02*
X165407189Y-159789221D01*
X165407189Y-159789221D02*
X165478618Y-159646364D01*
X165478618Y-159646364D02*
X165621475Y-159503507D01*
X165621475Y-159503507D02*
X165835761Y-159432078D01*
X165835761Y-159432078D02*
X165978618Y-159432078D01*
X165978618Y-159432078D02*
X166192904Y-159503507D01*
X166192904Y-159503507D02*
X166264332Y-159574935D01*
X167335761Y-159432078D02*
X167335761Y-160503507D01*
X167335761Y-160503507D02*
X167264332Y-160717792D01*
X167264332Y-160717792D02*
X167121475Y-160860650D01*
X167121475Y-160860650D02*
X166907189Y-160932078D01*
X166907189Y-160932078D02*
X166764332Y-160932078D01*
X168764332Y-160932078D02*
X168050046Y-160932078D01*
X168050046Y-160932078D02*
X168050046Y-159432078D01*
X170121475Y-160789221D02*
X170050047Y-160860650D01*
X170050047Y-160860650D02*
X169835761Y-160932078D01*
X169835761Y-160932078D02*
X169692904Y-160932078D01*
X169692904Y-160932078D02*
X169478618Y-160860650D01*
X169478618Y-160860650D02*
X169335761Y-160717792D01*
X169335761Y-160717792D02*
X169264332Y-160574935D01*
X169264332Y-160574935D02*
X169192904Y-160289221D01*
X169192904Y-160289221D02*
X169192904Y-160074935D01*
X169192904Y-160074935D02*
X169264332Y-159789221D01*
X169264332Y-159789221D02*
X169335761Y-159646364D01*
X169335761Y-159646364D02*
X169478618Y-159503507D01*
X169478618Y-159503507D02*
X169692904Y-159432078D01*
X169692904Y-159432078D02*
X169835761Y-159432078D01*
X169835761Y-159432078D02*
X170050047Y-159503507D01*
X170050047Y-159503507D02*
X170121475Y-159574935D01*
X194943796Y-165694578D02*
X194229510Y-165694578D01*
X194229510Y-165694578D02*
X194229510Y-164194578D01*
X196086654Y-165694578D02*
X196086654Y-164908864D01*
X196086654Y-164908864D02*
X196015225Y-164766007D01*
X196015225Y-164766007D02*
X195872368Y-164694578D01*
X195872368Y-164694578D02*
X195586654Y-164694578D01*
X195586654Y-164694578D02*
X195443796Y-164766007D01*
X196086654Y-165623150D02*
X195943796Y-165694578D01*
X195943796Y-165694578D02*
X195586654Y-165694578D01*
X195586654Y-165694578D02*
X195443796Y-165623150D01*
X195443796Y-165623150D02*
X195372368Y-165480292D01*
X195372368Y-165480292D02*
X195372368Y-165337435D01*
X195372368Y-165337435D02*
X195443796Y-165194578D01*
X195443796Y-165194578D02*
X195586654Y-165123150D01*
X195586654Y-165123150D02*
X195943796Y-165123150D01*
X195943796Y-165123150D02*
X196086654Y-165051721D01*
X196586654Y-164694578D02*
X197158082Y-164694578D01*
X196800939Y-164194578D02*
X196800939Y-165480292D01*
X196800939Y-165480292D02*
X196872368Y-165623150D01*
X196872368Y-165623150D02*
X197015225Y-165694578D01*
X197015225Y-165694578D02*
X197158082Y-165694578D01*
X198229511Y-165623150D02*
X198086654Y-165694578D01*
X198086654Y-165694578D02*
X197800940Y-165694578D01*
X197800940Y-165694578D02*
X197658082Y-165623150D01*
X197658082Y-165623150D02*
X197586654Y-165480292D01*
X197586654Y-165480292D02*
X197586654Y-164908864D01*
X197586654Y-164908864D02*
X197658082Y-164766007D01*
X197658082Y-164766007D02*
X197800940Y-164694578D01*
X197800940Y-164694578D02*
X198086654Y-164694578D01*
X198086654Y-164694578D02*
X198229511Y-164766007D01*
X198229511Y-164766007D02*
X198300940Y-164908864D01*
X198300940Y-164908864D02*
X198300940Y-165051721D01*
X198300940Y-165051721D02*
X197586654Y-165194578D01*
X200086653Y-165694578D02*
X200086653Y-164194578D01*
X200086653Y-164194578D02*
X200943796Y-165694578D01*
X200943796Y-165694578D02*
X200943796Y-164194578D01*
X201658082Y-165694578D02*
X201658082Y-164694578D01*
X201658082Y-164194578D02*
X201586654Y-164266007D01*
X201586654Y-164266007D02*
X201658082Y-164337435D01*
X201658082Y-164337435D02*
X201729511Y-164266007D01*
X201729511Y-164266007D02*
X201658082Y-164194578D01*
X201658082Y-164194578D02*
X201658082Y-164337435D01*
X203015226Y-164694578D02*
X203015226Y-165908864D01*
X203015226Y-165908864D02*
X202943797Y-166051721D01*
X202943797Y-166051721D02*
X202872368Y-166123150D01*
X202872368Y-166123150D02*
X202729511Y-166194578D01*
X202729511Y-166194578D02*
X202515226Y-166194578D01*
X202515226Y-166194578D02*
X202372368Y-166123150D01*
X203015226Y-165623150D02*
X202872368Y-165694578D01*
X202872368Y-165694578D02*
X202586654Y-165694578D01*
X202586654Y-165694578D02*
X202443797Y-165623150D01*
X202443797Y-165623150D02*
X202372368Y-165551721D01*
X202372368Y-165551721D02*
X202300940Y-165408864D01*
X202300940Y-165408864D02*
X202300940Y-164980292D01*
X202300940Y-164980292D02*
X202372368Y-164837435D01*
X202372368Y-164837435D02*
X202443797Y-164766007D01*
X202443797Y-164766007D02*
X202586654Y-164694578D01*
X202586654Y-164694578D02*
X202872368Y-164694578D01*
X202872368Y-164694578D02*
X203015226Y-164766007D01*
X203729511Y-165694578D02*
X203729511Y-164194578D01*
X204372369Y-165694578D02*
X204372369Y-164908864D01*
X204372369Y-164908864D02*
X204300940Y-164766007D01*
X204300940Y-164766007D02*
X204158083Y-164694578D01*
X204158083Y-164694578D02*
X203943797Y-164694578D01*
X203943797Y-164694578D02*
X203800940Y-164766007D01*
X203800940Y-164766007D02*
X203729511Y-164837435D01*
X204872369Y-164694578D02*
X205443797Y-164694578D01*
X205086654Y-164194578D02*
X205086654Y-165480292D01*
X205086654Y-165480292D02*
X205158083Y-165623150D01*
X205158083Y-165623150D02*
X205300940Y-165694578D01*
X205300940Y-165694578D02*
X205443797Y-165694578D01*
X207086654Y-164908864D02*
X207586654Y-164908864D01*
X207800940Y-165694578D02*
X207086654Y-165694578D01*
X207086654Y-165694578D02*
X207086654Y-164194578D01*
X207086654Y-164194578D02*
X207800940Y-164194578D01*
X208443797Y-164694578D02*
X208443797Y-165694578D01*
X208443797Y-164837435D02*
X208515226Y-164766007D01*
X208515226Y-164766007D02*
X208658083Y-164694578D01*
X208658083Y-164694578D02*
X208872369Y-164694578D01*
X208872369Y-164694578D02*
X209015226Y-164766007D01*
X209015226Y-164766007D02*
X209086655Y-164908864D01*
X209086655Y-164908864D02*
X209086655Y-165694578D01*
X210443798Y-164694578D02*
X210443798Y-165908864D01*
X210443798Y-165908864D02*
X210372369Y-166051721D01*
X210372369Y-166051721D02*
X210300940Y-166123150D01*
X210300940Y-166123150D02*
X210158083Y-166194578D01*
X210158083Y-166194578D02*
X209943798Y-166194578D01*
X209943798Y-166194578D02*
X209800940Y-166123150D01*
X210443798Y-165623150D02*
X210300940Y-165694578D01*
X210300940Y-165694578D02*
X210015226Y-165694578D01*
X210015226Y-165694578D02*
X209872369Y-165623150D01*
X209872369Y-165623150D02*
X209800940Y-165551721D01*
X209800940Y-165551721D02*
X209729512Y-165408864D01*
X209729512Y-165408864D02*
X209729512Y-164980292D01*
X209729512Y-164980292D02*
X209800940Y-164837435D01*
X209800940Y-164837435D02*
X209872369Y-164766007D01*
X209872369Y-164766007D02*
X210015226Y-164694578D01*
X210015226Y-164694578D02*
X210300940Y-164694578D01*
X210300940Y-164694578D02*
X210443798Y-164766007D01*
X211158083Y-165694578D02*
X211158083Y-164694578D01*
X211158083Y-164194578D02*
X211086655Y-164266007D01*
X211086655Y-164266007D02*
X211158083Y-164337435D01*
X211158083Y-164337435D02*
X211229512Y-164266007D01*
X211229512Y-164266007D02*
X211158083Y-164194578D01*
X211158083Y-164194578D02*
X211158083Y-164337435D01*
X211872369Y-164694578D02*
X211872369Y-165694578D01*
X211872369Y-164837435D02*
X211943798Y-164766007D01*
X211943798Y-164766007D02*
X212086655Y-164694578D01*
X212086655Y-164694578D02*
X212300941Y-164694578D01*
X212300941Y-164694578D02*
X212443798Y-164766007D01*
X212443798Y-164766007D02*
X212515227Y-164908864D01*
X212515227Y-164908864D02*
X212515227Y-165694578D01*
X213800941Y-165623150D02*
X213658084Y-165694578D01*
X213658084Y-165694578D02*
X213372370Y-165694578D01*
X213372370Y-165694578D02*
X213229512Y-165623150D01*
X213229512Y-165623150D02*
X213158084Y-165480292D01*
X213158084Y-165480292D02*
X213158084Y-164908864D01*
X213158084Y-164908864D02*
X213229512Y-164766007D01*
X213229512Y-164766007D02*
X213372370Y-164694578D01*
X213372370Y-164694578D02*
X213658084Y-164694578D01*
X213658084Y-164694578D02*
X213800941Y-164766007D01*
X213800941Y-164766007D02*
X213872370Y-164908864D01*
X213872370Y-164908864D02*
X213872370Y-165051721D01*
X213872370Y-165051721D02*
X213158084Y-165194578D01*
X215086655Y-165623150D02*
X214943798Y-165694578D01*
X214943798Y-165694578D02*
X214658084Y-165694578D01*
X214658084Y-165694578D02*
X214515226Y-165623150D01*
X214515226Y-165623150D02*
X214443798Y-165480292D01*
X214443798Y-165480292D02*
X214443798Y-164908864D01*
X214443798Y-164908864D02*
X214515226Y-164766007D01*
X214515226Y-164766007D02*
X214658084Y-164694578D01*
X214658084Y-164694578D02*
X214943798Y-164694578D01*
X214943798Y-164694578D02*
X215086655Y-164766007D01*
X215086655Y-164766007D02*
X215158084Y-164908864D01*
X215158084Y-164908864D02*
X215158084Y-165051721D01*
X215158084Y-165051721D02*
X214443798Y-165194578D01*
X215800940Y-165694578D02*
X215800940Y-164694578D01*
X215800940Y-164980292D02*
X215872369Y-164837435D01*
X215872369Y-164837435D02*
X215943798Y-164766007D01*
X215943798Y-164766007D02*
X216086655Y-164694578D01*
X216086655Y-164694578D02*
X216229512Y-164694578D01*
X216729511Y-165694578D02*
X216729511Y-164694578D01*
X216729511Y-164194578D02*
X216658083Y-164266007D01*
X216658083Y-164266007D02*
X216729511Y-164337435D01*
X216729511Y-164337435D02*
X216800940Y-164266007D01*
X216800940Y-164266007D02*
X216729511Y-164194578D01*
X216729511Y-164194578D02*
X216729511Y-164337435D01*
X217443797Y-164694578D02*
X217443797Y-165694578D01*
X217443797Y-164837435D02*
X217515226Y-164766007D01*
X217515226Y-164766007D02*
X217658083Y-164694578D01*
X217658083Y-164694578D02*
X217872369Y-164694578D01*
X217872369Y-164694578D02*
X218015226Y-164766007D01*
X218015226Y-164766007D02*
X218086655Y-164908864D01*
X218086655Y-164908864D02*
X218086655Y-165694578D01*
X219443798Y-164694578D02*
X219443798Y-165908864D01*
X219443798Y-165908864D02*
X219372369Y-166051721D01*
X219372369Y-166051721D02*
X219300940Y-166123150D01*
X219300940Y-166123150D02*
X219158083Y-166194578D01*
X219158083Y-166194578D02*
X218943798Y-166194578D01*
X218943798Y-166194578D02*
X218800940Y-166123150D01*
X219443798Y-165623150D02*
X219300940Y-165694578D01*
X219300940Y-165694578D02*
X219015226Y-165694578D01*
X219015226Y-165694578D02*
X218872369Y-165623150D01*
X218872369Y-165623150D02*
X218800940Y-165551721D01*
X218800940Y-165551721D02*
X218729512Y-165408864D01*
X218729512Y-165408864D02*
X218729512Y-164980292D01*
X218729512Y-164980292D02*
X218800940Y-164837435D01*
X218800940Y-164837435D02*
X218872369Y-164766007D01*
X218872369Y-164766007D02*
X219015226Y-164694578D01*
X219015226Y-164694578D02*
X219300940Y-164694578D01*
X219300940Y-164694578D02*
X219443798Y-164766007D01*
X221300940Y-165694578D02*
X221300940Y-164194578D01*
X221300940Y-164766007D02*
X221443798Y-164694578D01*
X221443798Y-164694578D02*
X221729512Y-164694578D01*
X221729512Y-164694578D02*
X221872369Y-164766007D01*
X221872369Y-164766007D02*
X221943798Y-164837435D01*
X221943798Y-164837435D02*
X222015226Y-164980292D01*
X222015226Y-164980292D02*
X222015226Y-165408864D01*
X222015226Y-165408864D02*
X221943798Y-165551721D01*
X221943798Y-165551721D02*
X221872369Y-165623150D01*
X221872369Y-165623150D02*
X221729512Y-165694578D01*
X221729512Y-165694578D02*
X221443798Y-165694578D01*
X221443798Y-165694578D02*
X221300940Y-165623150D01*
X222515226Y-164694578D02*
X222872369Y-165694578D01*
X223229512Y-164694578D02*
X222872369Y-165694578D01*
X222872369Y-165694578D02*
X222729512Y-166051721D01*
X222729512Y-166051721D02*
X222658083Y-166123150D01*
X222658083Y-166123150D02*
X222515226Y-166194578D01*
X225800940Y-165551721D02*
X225729512Y-165623150D01*
X225729512Y-165623150D02*
X225515226Y-165694578D01*
X225515226Y-165694578D02*
X225372369Y-165694578D01*
X225372369Y-165694578D02*
X225158083Y-165623150D01*
X225158083Y-165623150D02*
X225015226Y-165480292D01*
X225015226Y-165480292D02*
X224943797Y-165337435D01*
X224943797Y-165337435D02*
X224872369Y-165051721D01*
X224872369Y-165051721D02*
X224872369Y-164837435D01*
X224872369Y-164837435D02*
X224943797Y-164551721D01*
X224943797Y-164551721D02*
X225015226Y-164408864D01*
X225015226Y-164408864D02*
X225158083Y-164266007D01*
X225158083Y-164266007D02*
X225372369Y-164194578D01*
X225372369Y-164194578D02*
X225515226Y-164194578D01*
X225515226Y-164194578D02*
X225729512Y-164266007D01*
X225729512Y-164266007D02*
X225800940Y-164337435D01*
X226658083Y-165694578D02*
X226515226Y-165623150D01*
X226515226Y-165623150D02*
X226443797Y-165551721D01*
X226443797Y-165551721D02*
X226372369Y-165408864D01*
X226372369Y-165408864D02*
X226372369Y-164980292D01*
X226372369Y-164980292D02*
X226443797Y-164837435D01*
X226443797Y-164837435D02*
X226515226Y-164766007D01*
X226515226Y-164766007D02*
X226658083Y-164694578D01*
X226658083Y-164694578D02*
X226872369Y-164694578D01*
X226872369Y-164694578D02*
X227015226Y-164766007D01*
X227015226Y-164766007D02*
X227086655Y-164837435D01*
X227086655Y-164837435D02*
X227158083Y-164980292D01*
X227158083Y-164980292D02*
X227158083Y-165408864D01*
X227158083Y-165408864D02*
X227086655Y-165551721D01*
X227086655Y-165551721D02*
X227015226Y-165623150D01*
X227015226Y-165623150D02*
X226872369Y-165694578D01*
X226872369Y-165694578D02*
X226658083Y-165694578D01*
X228015226Y-165694578D02*
X227872369Y-165623150D01*
X227872369Y-165623150D02*
X227800940Y-165480292D01*
X227800940Y-165480292D02*
X227800940Y-164194578D01*
X229158083Y-165623150D02*
X229015226Y-165694578D01*
X229015226Y-165694578D02*
X228729512Y-165694578D01*
X228729512Y-165694578D02*
X228586654Y-165623150D01*
X228586654Y-165623150D02*
X228515226Y-165480292D01*
X228515226Y-165480292D02*
X228515226Y-164908864D01*
X228515226Y-164908864D02*
X228586654Y-164766007D01*
X228586654Y-164766007D02*
X228729512Y-164694578D01*
X228729512Y-164694578D02*
X229015226Y-164694578D01*
X229015226Y-164694578D02*
X229158083Y-164766007D01*
X229158083Y-164766007D02*
X229229512Y-164908864D01*
X229229512Y-164908864D02*
X229229512Y-165051721D01*
X229229512Y-165051721D02*
X228515226Y-165194578D01*
X231015225Y-165694578D02*
X231015225Y-164194578D01*
X231872368Y-165694578D02*
X231229511Y-164837435D01*
X231872368Y-164194578D02*
X231015225Y-165051721D01*
X233158083Y-165694578D02*
X233158083Y-164908864D01*
X233158083Y-164908864D02*
X233086654Y-164766007D01*
X233086654Y-164766007D02*
X232943797Y-164694578D01*
X232943797Y-164694578D02*
X232658083Y-164694578D01*
X232658083Y-164694578D02*
X232515225Y-164766007D01*
X233158083Y-165623150D02*
X233015225Y-165694578D01*
X233015225Y-165694578D02*
X232658083Y-165694578D01*
X232658083Y-165694578D02*
X232515225Y-165623150D01*
X232515225Y-165623150D02*
X232443797Y-165480292D01*
X232443797Y-165480292D02*
X232443797Y-165337435D01*
X232443797Y-165337435D02*
X232515225Y-165194578D01*
X232515225Y-165194578D02*
X232658083Y-165123150D01*
X232658083Y-165123150D02*
X233015225Y-165123150D01*
X233015225Y-165123150D02*
X233158083Y-165051721D01*
X234515226Y-164694578D02*
X234515226Y-165694578D01*
X233872368Y-164694578D02*
X233872368Y-165480292D01*
X233872368Y-165480292D02*
X233943797Y-165623150D01*
X233943797Y-165623150D02*
X234086654Y-165694578D01*
X234086654Y-165694578D02*
X234300940Y-165694578D01*
X234300940Y-165694578D02*
X234443797Y-165623150D01*
X234443797Y-165623150D02*
X234515226Y-165551721D01*
X235872369Y-165694578D02*
X235872369Y-164194578D01*
X235872369Y-165623150D02*
X235729511Y-165694578D01*
X235729511Y-165694578D02*
X235443797Y-165694578D01*
X235443797Y-165694578D02*
X235300940Y-165623150D01*
X235300940Y-165623150D02*
X235229511Y-165551721D01*
X235229511Y-165551721D02*
X235158083Y-165408864D01*
X235158083Y-165408864D02*
X235158083Y-164980292D01*
X235158083Y-164980292D02*
X235229511Y-164837435D01*
X235229511Y-164837435D02*
X235300940Y-164766007D01*
X235300940Y-164766007D02*
X235443797Y-164694578D01*
X235443797Y-164694578D02*
X235729511Y-164694578D01*
X235729511Y-164694578D02*
X235872369Y-164766007D01*
X237158083Y-165623150D02*
X237015226Y-165694578D01*
X237015226Y-165694578D02*
X236729512Y-165694578D01*
X236729512Y-165694578D02*
X236586654Y-165623150D01*
X236586654Y-165623150D02*
X236515226Y-165480292D01*
X236515226Y-165480292D02*
X236515226Y-164908864D01*
X236515226Y-164908864D02*
X236586654Y-164766007D01*
X236586654Y-164766007D02*
X236729512Y-164694578D01*
X236729512Y-164694578D02*
X237015226Y-164694578D01*
X237015226Y-164694578D02*
X237158083Y-164766007D01*
X237158083Y-164766007D02*
X237229512Y-164908864D01*
X237229512Y-164908864D02*
X237229512Y-165051721D01*
X237229512Y-165051721D02*
X236515226Y-165194578D01*
X237872368Y-165694578D02*
X237872368Y-164694578D01*
X237872368Y-164980292D02*
X237943797Y-164837435D01*
X237943797Y-164837435D02*
X238015226Y-164766007D01*
X238015226Y-164766007D02*
X238158083Y-164694578D01*
X238158083Y-164694578D02*
X238300940Y-164694578D01*
X238800939Y-165123150D02*
X239943797Y-165123150D01*
X240658082Y-165694578D02*
X240658082Y-164194578D01*
X240658082Y-164194578D02*
X241158082Y-165266007D01*
X241158082Y-165266007D02*
X241658082Y-164194578D01*
X241658082Y-164194578D02*
X241658082Y-165694578D01*
X243015226Y-165623150D02*
X242872368Y-165694578D01*
X242872368Y-165694578D02*
X242586654Y-165694578D01*
X242586654Y-165694578D02*
X242443797Y-165623150D01*
X242443797Y-165623150D02*
X242372368Y-165551721D01*
X242372368Y-165551721D02*
X242300940Y-165408864D01*
X242300940Y-165408864D02*
X242300940Y-164980292D01*
X242300940Y-164980292D02*
X242372368Y-164837435D01*
X242372368Y-164837435D02*
X242443797Y-164766007D01*
X242443797Y-164766007D02*
X242586654Y-164694578D01*
X242586654Y-164694578D02*
X242872368Y-164694578D01*
X242872368Y-164694578D02*
X243015226Y-164766007D01*
X243658082Y-165694578D02*
X243658082Y-164194578D01*
X243658082Y-164194578D02*
X244158082Y-165266007D01*
X244158082Y-165266007D02*
X244658082Y-164194578D01*
X244658082Y-164194578D02*
X244658082Y-165694578D01*
X246015226Y-164694578D02*
X246015226Y-165694578D01*
X245372368Y-164694578D02*
X245372368Y-165480292D01*
X245372368Y-165480292D02*
X245443797Y-165623150D01*
X245443797Y-165623150D02*
X245586654Y-165694578D01*
X245586654Y-165694578D02*
X245800940Y-165694578D01*
X245800940Y-165694578D02*
X245943797Y-165623150D01*
X245943797Y-165623150D02*
X246015226Y-165551721D01*
X246729511Y-165694578D02*
X246729511Y-164694578D01*
X246729511Y-164980292D02*
X246800940Y-164837435D01*
X246800940Y-164837435D02*
X246872369Y-164766007D01*
X246872369Y-164766007D02*
X247015226Y-164694578D01*
X247015226Y-164694578D02*
X247158083Y-164694578D01*
X247658082Y-165694578D02*
X247658082Y-164694578D01*
X247658082Y-164980292D02*
X247729511Y-164837435D01*
X247729511Y-164837435D02*
X247800940Y-164766007D01*
X247800940Y-164766007D02*
X247943797Y-164694578D01*
X247943797Y-164694578D02*
X248086654Y-164694578D01*
X248586653Y-165694578D02*
X248586653Y-164694578D01*
X248586653Y-164194578D02*
X248515225Y-164266007D01*
X248515225Y-164266007D02*
X248586653Y-164337435D01*
X248586653Y-164337435D02*
X248658082Y-164266007D01*
X248658082Y-164266007D02*
X248586653Y-164194578D01*
X248586653Y-164194578D02*
X248586653Y-164337435D01*
X249943797Y-165623150D02*
X249800939Y-165694578D01*
X249800939Y-165694578D02*
X249515225Y-165694578D01*
X249515225Y-165694578D02*
X249372368Y-165623150D01*
X249372368Y-165623150D02*
X249300939Y-165551721D01*
X249300939Y-165551721D02*
X249229511Y-165408864D01*
X249229511Y-165408864D02*
X249229511Y-164980292D01*
X249229511Y-164980292D02*
X249300939Y-164837435D01*
X249300939Y-164837435D02*
X249372368Y-164766007D01*
X249372368Y-164766007D02*
X249515225Y-164694578D01*
X249515225Y-164694578D02*
X249800939Y-164694578D01*
X249800939Y-164694578D02*
X249943797Y-164766007D01*
X250586653Y-165694578D02*
X250586653Y-164194578D01*
X251229511Y-165694578D02*
X251229511Y-164908864D01*
X251229511Y-164908864D02*
X251158082Y-164766007D01*
X251158082Y-164766007D02*
X251015225Y-164694578D01*
X251015225Y-164694578D02*
X250800939Y-164694578D01*
X250800939Y-164694578D02*
X250658082Y-164766007D01*
X250658082Y-164766007D02*
X250586653Y-164837435D01*
D11*
%TO.C,D43*%
X231436069Y-75581970D02*
X230436069Y-75581970D01*
X230436069Y-75581970D02*
X230436069Y-75343875D01*
X230436069Y-75343875D02*
X230483688Y-75201018D01*
X230483688Y-75201018D02*
X230578926Y-75105780D01*
X230578926Y-75105780D02*
X230674164Y-75058161D01*
X230674164Y-75058161D02*
X230864640Y-75010542D01*
X230864640Y-75010542D02*
X231007497Y-75010542D01*
X231007497Y-75010542D02*
X231197973Y-75058161D01*
X231197973Y-75058161D02*
X231293211Y-75105780D01*
X231293211Y-75105780D02*
X231388450Y-75201018D01*
X231388450Y-75201018D02*
X231436069Y-75343875D01*
X231436069Y-75343875D02*
X231436069Y-75581970D01*
X230769402Y-74153399D02*
X231436069Y-74153399D01*
X230388450Y-74391494D02*
X231102735Y-74629589D01*
X231102735Y-74629589D02*
X231102735Y-74010542D01*
X230436069Y-73724827D02*
X230436069Y-73105780D01*
X230436069Y-73105780D02*
X230817021Y-73439113D01*
X230817021Y-73439113D02*
X230817021Y-73296256D01*
X230817021Y-73296256D02*
X230864640Y-73201018D01*
X230864640Y-73201018D02*
X230912259Y-73153399D01*
X230912259Y-73153399D02*
X231007497Y-73105780D01*
X231007497Y-73105780D02*
X231245592Y-73105780D01*
X231245592Y-73105780D02*
X231340830Y-73153399D01*
X231340830Y-73153399D02*
X231388450Y-73201018D01*
X231388450Y-73201018D02*
X231436069Y-73296256D01*
X231436069Y-73296256D02*
X231436069Y-73581970D01*
X231436069Y-73581970D02*
X231388450Y-73677208D01*
X231388450Y-73677208D02*
X231340830Y-73724827D01*
%TO.C,D60*%
X319542319Y-75581970D02*
X318542319Y-75581970D01*
X318542319Y-75581970D02*
X318542319Y-75343875D01*
X318542319Y-75343875D02*
X318589938Y-75201018D01*
X318589938Y-75201018D02*
X318685176Y-75105780D01*
X318685176Y-75105780D02*
X318780414Y-75058161D01*
X318780414Y-75058161D02*
X318970890Y-75010542D01*
X318970890Y-75010542D02*
X319113747Y-75010542D01*
X319113747Y-75010542D02*
X319304223Y-75058161D01*
X319304223Y-75058161D02*
X319399461Y-75105780D01*
X319399461Y-75105780D02*
X319494700Y-75201018D01*
X319494700Y-75201018D02*
X319542319Y-75343875D01*
X319542319Y-75343875D02*
X319542319Y-75581970D01*
X318542319Y-74153399D02*
X318542319Y-74343875D01*
X318542319Y-74343875D02*
X318589938Y-74439113D01*
X318589938Y-74439113D02*
X318637557Y-74486732D01*
X318637557Y-74486732D02*
X318780414Y-74581970D01*
X318780414Y-74581970D02*
X318970890Y-74629589D01*
X318970890Y-74629589D02*
X319351842Y-74629589D01*
X319351842Y-74629589D02*
X319447080Y-74581970D01*
X319447080Y-74581970D02*
X319494700Y-74534351D01*
X319494700Y-74534351D02*
X319542319Y-74439113D01*
X319542319Y-74439113D02*
X319542319Y-74248637D01*
X319542319Y-74248637D02*
X319494700Y-74153399D01*
X319494700Y-74153399D02*
X319447080Y-74105780D01*
X319447080Y-74105780D02*
X319351842Y-74058161D01*
X319351842Y-74058161D02*
X319113747Y-74058161D01*
X319113747Y-74058161D02*
X319018509Y-74105780D01*
X319018509Y-74105780D02*
X318970890Y-74153399D01*
X318970890Y-74153399D02*
X318923271Y-74248637D01*
X318923271Y-74248637D02*
X318923271Y-74439113D01*
X318923271Y-74439113D02*
X318970890Y-74534351D01*
X318970890Y-74534351D02*
X319018509Y-74581970D01*
X319018509Y-74581970D02*
X319113747Y-74629589D01*
X318542319Y-73439113D02*
X318542319Y-73343875D01*
X318542319Y-73343875D02*
X318589938Y-73248637D01*
X318589938Y-73248637D02*
X318637557Y-73201018D01*
X318637557Y-73201018D02*
X318732795Y-73153399D01*
X318732795Y-73153399D02*
X318923271Y-73105780D01*
X318923271Y-73105780D02*
X319161366Y-73105780D01*
X319161366Y-73105780D02*
X319351842Y-73153399D01*
X319351842Y-73153399D02*
X319447080Y-73201018D01*
X319447080Y-73201018D02*
X319494700Y-73248637D01*
X319494700Y-73248637D02*
X319542319Y-73343875D01*
X319542319Y-73343875D02*
X319542319Y-73439113D01*
X319542319Y-73439113D02*
X319494700Y-73534351D01*
X319494700Y-73534351D02*
X319447080Y-73581970D01*
X319447080Y-73581970D02*
X319351842Y-73629589D01*
X319351842Y-73629589D02*
X319161366Y-73677208D01*
X319161366Y-73677208D02*
X318923271Y-73677208D01*
X318923271Y-73677208D02*
X318732795Y-73629589D01*
X318732795Y-73629589D02*
X318637557Y-73581970D01*
X318637557Y-73581970D02*
X318589938Y-73534351D01*
X318589938Y-73534351D02*
X318542319Y-73439113D01*
%TO.C,D52*%
X261598569Y-75581970D02*
X260598569Y-75581970D01*
X260598569Y-75581970D02*
X260598569Y-75343875D01*
X260598569Y-75343875D02*
X260646188Y-75201018D01*
X260646188Y-75201018D02*
X260741426Y-75105780D01*
X260741426Y-75105780D02*
X260836664Y-75058161D01*
X260836664Y-75058161D02*
X261027140Y-75010542D01*
X261027140Y-75010542D02*
X261169997Y-75010542D01*
X261169997Y-75010542D02*
X261360473Y-75058161D01*
X261360473Y-75058161D02*
X261455711Y-75105780D01*
X261455711Y-75105780D02*
X261550950Y-75201018D01*
X261550950Y-75201018D02*
X261598569Y-75343875D01*
X261598569Y-75343875D02*
X261598569Y-75581970D01*
X260598569Y-74105780D02*
X260598569Y-74581970D01*
X260598569Y-74581970D02*
X261074759Y-74629589D01*
X261074759Y-74629589D02*
X261027140Y-74581970D01*
X261027140Y-74581970D02*
X260979521Y-74486732D01*
X260979521Y-74486732D02*
X260979521Y-74248637D01*
X260979521Y-74248637D02*
X261027140Y-74153399D01*
X261027140Y-74153399D02*
X261074759Y-74105780D01*
X261074759Y-74105780D02*
X261169997Y-74058161D01*
X261169997Y-74058161D02*
X261408092Y-74058161D01*
X261408092Y-74058161D02*
X261503330Y-74105780D01*
X261503330Y-74105780D02*
X261550950Y-74153399D01*
X261550950Y-74153399D02*
X261598569Y-74248637D01*
X261598569Y-74248637D02*
X261598569Y-74486732D01*
X261598569Y-74486732D02*
X261550950Y-74581970D01*
X261550950Y-74581970D02*
X261503330Y-74629589D01*
X260693807Y-73677208D02*
X260646188Y-73629589D01*
X260646188Y-73629589D02*
X260598569Y-73534351D01*
X260598569Y-73534351D02*
X260598569Y-73296256D01*
X260598569Y-73296256D02*
X260646188Y-73201018D01*
X260646188Y-73201018D02*
X260693807Y-73153399D01*
X260693807Y-73153399D02*
X260789045Y-73105780D01*
X260789045Y-73105780D02*
X260884283Y-73105780D01*
X260884283Y-73105780D02*
X261027140Y-73153399D01*
X261027140Y-73153399D02*
X261598569Y-73724827D01*
X261598569Y-73724827D02*
X261598569Y-73105780D01*
%TO.C,D46*%
X240961069Y-75581970D02*
X239961069Y-75581970D01*
X239961069Y-75581970D02*
X239961069Y-75343875D01*
X239961069Y-75343875D02*
X240008688Y-75201018D01*
X240008688Y-75201018D02*
X240103926Y-75105780D01*
X240103926Y-75105780D02*
X240199164Y-75058161D01*
X240199164Y-75058161D02*
X240389640Y-75010542D01*
X240389640Y-75010542D02*
X240532497Y-75010542D01*
X240532497Y-75010542D02*
X240722973Y-75058161D01*
X240722973Y-75058161D02*
X240818211Y-75105780D01*
X240818211Y-75105780D02*
X240913450Y-75201018D01*
X240913450Y-75201018D02*
X240961069Y-75343875D01*
X240961069Y-75343875D02*
X240961069Y-75581970D01*
X240294402Y-74153399D02*
X240961069Y-74153399D01*
X239913450Y-74391494D02*
X240627735Y-74629589D01*
X240627735Y-74629589D02*
X240627735Y-74010542D01*
X239961069Y-73201018D02*
X239961069Y-73391494D01*
X239961069Y-73391494D02*
X240008688Y-73486732D01*
X240008688Y-73486732D02*
X240056307Y-73534351D01*
X240056307Y-73534351D02*
X240199164Y-73629589D01*
X240199164Y-73629589D02*
X240389640Y-73677208D01*
X240389640Y-73677208D02*
X240770592Y-73677208D01*
X240770592Y-73677208D02*
X240865830Y-73629589D01*
X240865830Y-73629589D02*
X240913450Y-73581970D01*
X240913450Y-73581970D02*
X240961069Y-73486732D01*
X240961069Y-73486732D02*
X240961069Y-73296256D01*
X240961069Y-73296256D02*
X240913450Y-73201018D01*
X240913450Y-73201018D02*
X240865830Y-73153399D01*
X240865830Y-73153399D02*
X240770592Y-73105780D01*
X240770592Y-73105780D02*
X240532497Y-73105780D01*
X240532497Y-73105780D02*
X240437259Y-73153399D01*
X240437259Y-73153399D02*
X240389640Y-73201018D01*
X240389640Y-73201018D02*
X240342021Y-73296256D01*
X240342021Y-73296256D02*
X240342021Y-73486732D01*
X240342021Y-73486732D02*
X240389640Y-73581970D01*
X240389640Y-73581970D02*
X240437259Y-73629589D01*
X240437259Y-73629589D02*
X240532497Y-73677208D01*
%TO.C,D8*%
X83004819Y-75581970D02*
X82004819Y-75581970D01*
X82004819Y-75581970D02*
X82004819Y-75343875D01*
X82004819Y-75343875D02*
X82052438Y-75201018D01*
X82052438Y-75201018D02*
X82147676Y-75105780D01*
X82147676Y-75105780D02*
X82242914Y-75058161D01*
X82242914Y-75058161D02*
X82433390Y-75010542D01*
X82433390Y-75010542D02*
X82576247Y-75010542D01*
X82576247Y-75010542D02*
X82766723Y-75058161D01*
X82766723Y-75058161D02*
X82861961Y-75105780D01*
X82861961Y-75105780D02*
X82957200Y-75201018D01*
X82957200Y-75201018D02*
X83004819Y-75343875D01*
X83004819Y-75343875D02*
X83004819Y-75581970D01*
X82433390Y-74439113D02*
X82385771Y-74534351D01*
X82385771Y-74534351D02*
X82338152Y-74581970D01*
X82338152Y-74581970D02*
X82242914Y-74629589D01*
X82242914Y-74629589D02*
X82195295Y-74629589D01*
X82195295Y-74629589D02*
X82100057Y-74581970D01*
X82100057Y-74581970D02*
X82052438Y-74534351D01*
X82052438Y-74534351D02*
X82004819Y-74439113D01*
X82004819Y-74439113D02*
X82004819Y-74248637D01*
X82004819Y-74248637D02*
X82052438Y-74153399D01*
X82052438Y-74153399D02*
X82100057Y-74105780D01*
X82100057Y-74105780D02*
X82195295Y-74058161D01*
X82195295Y-74058161D02*
X82242914Y-74058161D01*
X82242914Y-74058161D02*
X82338152Y-74105780D01*
X82338152Y-74105780D02*
X82385771Y-74153399D01*
X82385771Y-74153399D02*
X82433390Y-74248637D01*
X82433390Y-74248637D02*
X82433390Y-74439113D01*
X82433390Y-74439113D02*
X82481009Y-74534351D01*
X82481009Y-74534351D02*
X82528628Y-74581970D01*
X82528628Y-74581970D02*
X82623866Y-74629589D01*
X82623866Y-74629589D02*
X82814342Y-74629589D01*
X82814342Y-74629589D02*
X82909580Y-74581970D01*
X82909580Y-74581970D02*
X82957200Y-74534351D01*
X82957200Y-74534351D02*
X83004819Y-74439113D01*
X83004819Y-74439113D02*
X83004819Y-74248637D01*
X83004819Y-74248637D02*
X82957200Y-74153399D01*
X82957200Y-74153399D02*
X82909580Y-74105780D01*
X82909580Y-74105780D02*
X82814342Y-74058161D01*
X82814342Y-74058161D02*
X82623866Y-74058161D01*
X82623866Y-74058161D02*
X82528628Y-74105780D01*
X82528628Y-74105780D02*
X82481009Y-74153399D01*
X82481009Y-74153399D02*
X82433390Y-74248637D01*
%TO.C,D31*%
X165554819Y-75581970D02*
X164554819Y-75581970D01*
X164554819Y-75581970D02*
X164554819Y-75343875D01*
X164554819Y-75343875D02*
X164602438Y-75201018D01*
X164602438Y-75201018D02*
X164697676Y-75105780D01*
X164697676Y-75105780D02*
X164792914Y-75058161D01*
X164792914Y-75058161D02*
X164983390Y-75010542D01*
X164983390Y-75010542D02*
X165126247Y-75010542D01*
X165126247Y-75010542D02*
X165316723Y-75058161D01*
X165316723Y-75058161D02*
X165411961Y-75105780D01*
X165411961Y-75105780D02*
X165507200Y-75201018D01*
X165507200Y-75201018D02*
X165554819Y-75343875D01*
X165554819Y-75343875D02*
X165554819Y-75581970D01*
X164554819Y-74677208D02*
X164554819Y-74058161D01*
X164554819Y-74058161D02*
X164935771Y-74391494D01*
X164935771Y-74391494D02*
X164935771Y-74248637D01*
X164935771Y-74248637D02*
X164983390Y-74153399D01*
X164983390Y-74153399D02*
X165031009Y-74105780D01*
X165031009Y-74105780D02*
X165126247Y-74058161D01*
X165126247Y-74058161D02*
X165364342Y-74058161D01*
X165364342Y-74058161D02*
X165459580Y-74105780D01*
X165459580Y-74105780D02*
X165507200Y-74153399D01*
X165507200Y-74153399D02*
X165554819Y-74248637D01*
X165554819Y-74248637D02*
X165554819Y-74534351D01*
X165554819Y-74534351D02*
X165507200Y-74629589D01*
X165507200Y-74629589D02*
X165459580Y-74677208D01*
X165554819Y-73105780D02*
X165554819Y-73677208D01*
X165554819Y-73391494D02*
X164554819Y-73391494D01*
X164554819Y-73391494D02*
X164697676Y-73486732D01*
X164697676Y-73486732D02*
X164792914Y-73581970D01*
X164792914Y-73581970D02*
X164840533Y-73677208D01*
%TO.C,D44*%
X234611069Y-75581970D02*
X233611069Y-75581970D01*
X233611069Y-75581970D02*
X233611069Y-75343875D01*
X233611069Y-75343875D02*
X233658688Y-75201018D01*
X233658688Y-75201018D02*
X233753926Y-75105780D01*
X233753926Y-75105780D02*
X233849164Y-75058161D01*
X233849164Y-75058161D02*
X234039640Y-75010542D01*
X234039640Y-75010542D02*
X234182497Y-75010542D01*
X234182497Y-75010542D02*
X234372973Y-75058161D01*
X234372973Y-75058161D02*
X234468211Y-75105780D01*
X234468211Y-75105780D02*
X234563450Y-75201018D01*
X234563450Y-75201018D02*
X234611069Y-75343875D01*
X234611069Y-75343875D02*
X234611069Y-75581970D01*
X233944402Y-74153399D02*
X234611069Y-74153399D01*
X233563450Y-74391494D02*
X234277735Y-74629589D01*
X234277735Y-74629589D02*
X234277735Y-74010542D01*
X233944402Y-73201018D02*
X234611069Y-73201018D01*
X233563450Y-73439113D02*
X234277735Y-73677208D01*
X234277735Y-73677208D02*
X234277735Y-73058161D01*
%TO.C,D17*%
X114754819Y-75581970D02*
X113754819Y-75581970D01*
X113754819Y-75581970D02*
X113754819Y-75343875D01*
X113754819Y-75343875D02*
X113802438Y-75201018D01*
X113802438Y-75201018D02*
X113897676Y-75105780D01*
X113897676Y-75105780D02*
X113992914Y-75058161D01*
X113992914Y-75058161D02*
X114183390Y-75010542D01*
X114183390Y-75010542D02*
X114326247Y-75010542D01*
X114326247Y-75010542D02*
X114516723Y-75058161D01*
X114516723Y-75058161D02*
X114611961Y-75105780D01*
X114611961Y-75105780D02*
X114707200Y-75201018D01*
X114707200Y-75201018D02*
X114754819Y-75343875D01*
X114754819Y-75343875D02*
X114754819Y-75581970D01*
X114754819Y-74058161D02*
X114754819Y-74629589D01*
X114754819Y-74343875D02*
X113754819Y-74343875D01*
X113754819Y-74343875D02*
X113897676Y-74439113D01*
X113897676Y-74439113D02*
X113992914Y-74534351D01*
X113992914Y-74534351D02*
X114040533Y-74629589D01*
X113754819Y-73724827D02*
X113754819Y-73058161D01*
X113754819Y-73058161D02*
X114754819Y-73486732D01*
%TO.C,D11*%
X94117319Y-75581970D02*
X93117319Y-75581970D01*
X93117319Y-75581970D02*
X93117319Y-75343875D01*
X93117319Y-75343875D02*
X93164938Y-75201018D01*
X93164938Y-75201018D02*
X93260176Y-75105780D01*
X93260176Y-75105780D02*
X93355414Y-75058161D01*
X93355414Y-75058161D02*
X93545890Y-75010542D01*
X93545890Y-75010542D02*
X93688747Y-75010542D01*
X93688747Y-75010542D02*
X93879223Y-75058161D01*
X93879223Y-75058161D02*
X93974461Y-75105780D01*
X93974461Y-75105780D02*
X94069700Y-75201018D01*
X94069700Y-75201018D02*
X94117319Y-75343875D01*
X94117319Y-75343875D02*
X94117319Y-75581970D01*
X94117319Y-74058161D02*
X94117319Y-74629589D01*
X94117319Y-74343875D02*
X93117319Y-74343875D01*
X93117319Y-74343875D02*
X93260176Y-74439113D01*
X93260176Y-74439113D02*
X93355414Y-74534351D01*
X93355414Y-74534351D02*
X93403033Y-74629589D01*
X94117319Y-73105780D02*
X94117319Y-73677208D01*
X94117319Y-73391494D02*
X93117319Y-73391494D01*
X93117319Y-73391494D02*
X93260176Y-73486732D01*
X93260176Y-73486732D02*
X93355414Y-73581970D01*
X93355414Y-73581970D02*
X93403033Y-73677208D01*
%TO.C,D39*%
X217148569Y-75581970D02*
X216148569Y-75581970D01*
X216148569Y-75581970D02*
X216148569Y-75343875D01*
X216148569Y-75343875D02*
X216196188Y-75201018D01*
X216196188Y-75201018D02*
X216291426Y-75105780D01*
X216291426Y-75105780D02*
X216386664Y-75058161D01*
X216386664Y-75058161D02*
X216577140Y-75010542D01*
X216577140Y-75010542D02*
X216719997Y-75010542D01*
X216719997Y-75010542D02*
X216910473Y-75058161D01*
X216910473Y-75058161D02*
X217005711Y-75105780D01*
X217005711Y-75105780D02*
X217100950Y-75201018D01*
X217100950Y-75201018D02*
X217148569Y-75343875D01*
X217148569Y-75343875D02*
X217148569Y-75581970D01*
X216148569Y-74677208D02*
X216148569Y-74058161D01*
X216148569Y-74058161D02*
X216529521Y-74391494D01*
X216529521Y-74391494D02*
X216529521Y-74248637D01*
X216529521Y-74248637D02*
X216577140Y-74153399D01*
X216577140Y-74153399D02*
X216624759Y-74105780D01*
X216624759Y-74105780D02*
X216719997Y-74058161D01*
X216719997Y-74058161D02*
X216958092Y-74058161D01*
X216958092Y-74058161D02*
X217053330Y-74105780D01*
X217053330Y-74105780D02*
X217100950Y-74153399D01*
X217100950Y-74153399D02*
X217148569Y-74248637D01*
X217148569Y-74248637D02*
X217148569Y-74534351D01*
X217148569Y-74534351D02*
X217100950Y-74629589D01*
X217100950Y-74629589D02*
X217053330Y-74677208D01*
X217148569Y-73581970D02*
X217148569Y-73391494D01*
X217148569Y-73391494D02*
X217100950Y-73296256D01*
X217100950Y-73296256D02*
X217053330Y-73248637D01*
X217053330Y-73248637D02*
X216910473Y-73153399D01*
X216910473Y-73153399D02*
X216719997Y-73105780D01*
X216719997Y-73105780D02*
X216339045Y-73105780D01*
X216339045Y-73105780D02*
X216243807Y-73153399D01*
X216243807Y-73153399D02*
X216196188Y-73201018D01*
X216196188Y-73201018D02*
X216148569Y-73296256D01*
X216148569Y-73296256D02*
X216148569Y-73486732D01*
X216148569Y-73486732D02*
X216196188Y-73581970D01*
X216196188Y-73581970D02*
X216243807Y-73629589D01*
X216243807Y-73629589D02*
X216339045Y-73677208D01*
X216339045Y-73677208D02*
X216577140Y-73677208D01*
X216577140Y-73677208D02*
X216672378Y-73629589D01*
X216672378Y-73629589D02*
X216719997Y-73581970D01*
X216719997Y-73581970D02*
X216767616Y-73486732D01*
X216767616Y-73486732D02*
X216767616Y-73296256D01*
X216767616Y-73296256D02*
X216719997Y-73201018D01*
X216719997Y-73201018D02*
X216672378Y-73153399D01*
X216672378Y-73153399D02*
X216577140Y-73105780D01*
%TO.C,D48*%
X248898569Y-75581970D02*
X247898569Y-75581970D01*
X247898569Y-75581970D02*
X247898569Y-75343875D01*
X247898569Y-75343875D02*
X247946188Y-75201018D01*
X247946188Y-75201018D02*
X248041426Y-75105780D01*
X248041426Y-75105780D02*
X248136664Y-75058161D01*
X248136664Y-75058161D02*
X248327140Y-75010542D01*
X248327140Y-75010542D02*
X248469997Y-75010542D01*
X248469997Y-75010542D02*
X248660473Y-75058161D01*
X248660473Y-75058161D02*
X248755711Y-75105780D01*
X248755711Y-75105780D02*
X248850950Y-75201018D01*
X248850950Y-75201018D02*
X248898569Y-75343875D01*
X248898569Y-75343875D02*
X248898569Y-75581970D01*
X248231902Y-74153399D02*
X248898569Y-74153399D01*
X247850950Y-74391494D02*
X248565235Y-74629589D01*
X248565235Y-74629589D02*
X248565235Y-74010542D01*
X248327140Y-73486732D02*
X248279521Y-73581970D01*
X248279521Y-73581970D02*
X248231902Y-73629589D01*
X248231902Y-73629589D02*
X248136664Y-73677208D01*
X248136664Y-73677208D02*
X248089045Y-73677208D01*
X248089045Y-73677208D02*
X247993807Y-73629589D01*
X247993807Y-73629589D02*
X247946188Y-73581970D01*
X247946188Y-73581970D02*
X247898569Y-73486732D01*
X247898569Y-73486732D02*
X247898569Y-73296256D01*
X247898569Y-73296256D02*
X247946188Y-73201018D01*
X247946188Y-73201018D02*
X247993807Y-73153399D01*
X247993807Y-73153399D02*
X248089045Y-73105780D01*
X248089045Y-73105780D02*
X248136664Y-73105780D01*
X248136664Y-73105780D02*
X248231902Y-73153399D01*
X248231902Y-73153399D02*
X248279521Y-73201018D01*
X248279521Y-73201018D02*
X248327140Y-73296256D01*
X248327140Y-73296256D02*
X248327140Y-73486732D01*
X248327140Y-73486732D02*
X248374759Y-73581970D01*
X248374759Y-73581970D02*
X248422378Y-73629589D01*
X248422378Y-73629589D02*
X248517616Y-73677208D01*
X248517616Y-73677208D02*
X248708092Y-73677208D01*
X248708092Y-73677208D02*
X248803330Y-73629589D01*
X248803330Y-73629589D02*
X248850950Y-73581970D01*
X248850950Y-73581970D02*
X248898569Y-73486732D01*
X248898569Y-73486732D02*
X248898569Y-73296256D01*
X248898569Y-73296256D02*
X248850950Y-73201018D01*
X248850950Y-73201018D02*
X248803330Y-73153399D01*
X248803330Y-73153399D02*
X248708092Y-73105780D01*
X248708092Y-73105780D02*
X248517616Y-73105780D01*
X248517616Y-73105780D02*
X248422378Y-73153399D01*
X248422378Y-73153399D02*
X248374759Y-73201018D01*
X248374759Y-73201018D02*
X248327140Y-73296256D01*
%TO.C,D10*%
X90942319Y-75581970D02*
X89942319Y-75581970D01*
X89942319Y-75581970D02*
X89942319Y-75343875D01*
X89942319Y-75343875D02*
X89989938Y-75201018D01*
X89989938Y-75201018D02*
X90085176Y-75105780D01*
X90085176Y-75105780D02*
X90180414Y-75058161D01*
X90180414Y-75058161D02*
X90370890Y-75010542D01*
X90370890Y-75010542D02*
X90513747Y-75010542D01*
X90513747Y-75010542D02*
X90704223Y-75058161D01*
X90704223Y-75058161D02*
X90799461Y-75105780D01*
X90799461Y-75105780D02*
X90894700Y-75201018D01*
X90894700Y-75201018D02*
X90942319Y-75343875D01*
X90942319Y-75343875D02*
X90942319Y-75581970D01*
X90942319Y-74058161D02*
X90942319Y-74629589D01*
X90942319Y-74343875D02*
X89942319Y-74343875D01*
X89942319Y-74343875D02*
X90085176Y-74439113D01*
X90085176Y-74439113D02*
X90180414Y-74534351D01*
X90180414Y-74534351D02*
X90228033Y-74629589D01*
X89942319Y-73439113D02*
X89942319Y-73343875D01*
X89942319Y-73343875D02*
X89989938Y-73248637D01*
X89989938Y-73248637D02*
X90037557Y-73201018D01*
X90037557Y-73201018D02*
X90132795Y-73153399D01*
X90132795Y-73153399D02*
X90323271Y-73105780D01*
X90323271Y-73105780D02*
X90561366Y-73105780D01*
X90561366Y-73105780D02*
X90751842Y-73153399D01*
X90751842Y-73153399D02*
X90847080Y-73201018D01*
X90847080Y-73201018D02*
X90894700Y-73248637D01*
X90894700Y-73248637D02*
X90942319Y-73343875D01*
X90942319Y-73343875D02*
X90942319Y-73439113D01*
X90942319Y-73439113D02*
X90894700Y-73534351D01*
X90894700Y-73534351D02*
X90847080Y-73581970D01*
X90847080Y-73581970D02*
X90751842Y-73629589D01*
X90751842Y-73629589D02*
X90561366Y-73677208D01*
X90561366Y-73677208D02*
X90323271Y-73677208D01*
X90323271Y-73677208D02*
X90132795Y-73629589D01*
X90132795Y-73629589D02*
X90037557Y-73581970D01*
X90037557Y-73581970D02*
X89989938Y-73534351D01*
X89989938Y-73534351D02*
X89942319Y-73439113D01*
%TO.C,D2*%
X62367319Y-75581970D02*
X61367319Y-75581970D01*
X61367319Y-75581970D02*
X61367319Y-75343875D01*
X61367319Y-75343875D02*
X61414938Y-75201018D01*
X61414938Y-75201018D02*
X61510176Y-75105780D01*
X61510176Y-75105780D02*
X61605414Y-75058161D01*
X61605414Y-75058161D02*
X61795890Y-75010542D01*
X61795890Y-75010542D02*
X61938747Y-75010542D01*
X61938747Y-75010542D02*
X62129223Y-75058161D01*
X62129223Y-75058161D02*
X62224461Y-75105780D01*
X62224461Y-75105780D02*
X62319700Y-75201018D01*
X62319700Y-75201018D02*
X62367319Y-75343875D01*
X62367319Y-75343875D02*
X62367319Y-75581970D01*
X61462557Y-74629589D02*
X61414938Y-74581970D01*
X61414938Y-74581970D02*
X61367319Y-74486732D01*
X61367319Y-74486732D02*
X61367319Y-74248637D01*
X61367319Y-74248637D02*
X61414938Y-74153399D01*
X61414938Y-74153399D02*
X61462557Y-74105780D01*
X61462557Y-74105780D02*
X61557795Y-74058161D01*
X61557795Y-74058161D02*
X61653033Y-74058161D01*
X61653033Y-74058161D02*
X61795890Y-74105780D01*
X61795890Y-74105780D02*
X62367319Y-74677208D01*
X62367319Y-74677208D02*
X62367319Y-74058161D01*
%TO.C,D13*%
X102054819Y-75581970D02*
X101054819Y-75581970D01*
X101054819Y-75581970D02*
X101054819Y-75343875D01*
X101054819Y-75343875D02*
X101102438Y-75201018D01*
X101102438Y-75201018D02*
X101197676Y-75105780D01*
X101197676Y-75105780D02*
X101292914Y-75058161D01*
X101292914Y-75058161D02*
X101483390Y-75010542D01*
X101483390Y-75010542D02*
X101626247Y-75010542D01*
X101626247Y-75010542D02*
X101816723Y-75058161D01*
X101816723Y-75058161D02*
X101911961Y-75105780D01*
X101911961Y-75105780D02*
X102007200Y-75201018D01*
X102007200Y-75201018D02*
X102054819Y-75343875D01*
X102054819Y-75343875D02*
X102054819Y-75581970D01*
X102054819Y-74058161D02*
X102054819Y-74629589D01*
X102054819Y-74343875D02*
X101054819Y-74343875D01*
X101054819Y-74343875D02*
X101197676Y-74439113D01*
X101197676Y-74439113D02*
X101292914Y-74534351D01*
X101292914Y-74534351D02*
X101340533Y-74629589D01*
X101054819Y-73724827D02*
X101054819Y-73105780D01*
X101054819Y-73105780D02*
X101435771Y-73439113D01*
X101435771Y-73439113D02*
X101435771Y-73296256D01*
X101435771Y-73296256D02*
X101483390Y-73201018D01*
X101483390Y-73201018D02*
X101531009Y-73153399D01*
X101531009Y-73153399D02*
X101626247Y-73105780D01*
X101626247Y-73105780D02*
X101864342Y-73105780D01*
X101864342Y-73105780D02*
X101959580Y-73153399D01*
X101959580Y-73153399D02*
X102007200Y-73201018D01*
X102007200Y-73201018D02*
X102054819Y-73296256D01*
X102054819Y-73296256D02*
X102054819Y-73581970D01*
X102054819Y-73581970D02*
X102007200Y-73677208D01*
X102007200Y-73677208D02*
X101959580Y-73724827D01*
%TO.C,D41*%
X223498569Y-75581970D02*
X222498569Y-75581970D01*
X222498569Y-75581970D02*
X222498569Y-75343875D01*
X222498569Y-75343875D02*
X222546188Y-75201018D01*
X222546188Y-75201018D02*
X222641426Y-75105780D01*
X222641426Y-75105780D02*
X222736664Y-75058161D01*
X222736664Y-75058161D02*
X222927140Y-75010542D01*
X222927140Y-75010542D02*
X223069997Y-75010542D01*
X223069997Y-75010542D02*
X223260473Y-75058161D01*
X223260473Y-75058161D02*
X223355711Y-75105780D01*
X223355711Y-75105780D02*
X223450950Y-75201018D01*
X223450950Y-75201018D02*
X223498569Y-75343875D01*
X223498569Y-75343875D02*
X223498569Y-75581970D01*
X222831902Y-74153399D02*
X223498569Y-74153399D01*
X222450950Y-74391494D02*
X223165235Y-74629589D01*
X223165235Y-74629589D02*
X223165235Y-74010542D01*
X223498569Y-73105780D02*
X223498569Y-73677208D01*
X223498569Y-73391494D02*
X222498569Y-73391494D01*
X222498569Y-73391494D02*
X222641426Y-73486732D01*
X222641426Y-73486732D02*
X222736664Y-73581970D01*
X222736664Y-73581970D02*
X222784283Y-73677208D01*
%TO.C,D23*%
X136979819Y-75581970D02*
X135979819Y-75581970D01*
X135979819Y-75581970D02*
X135979819Y-75343875D01*
X135979819Y-75343875D02*
X136027438Y-75201018D01*
X136027438Y-75201018D02*
X136122676Y-75105780D01*
X136122676Y-75105780D02*
X136217914Y-75058161D01*
X136217914Y-75058161D02*
X136408390Y-75010542D01*
X136408390Y-75010542D02*
X136551247Y-75010542D01*
X136551247Y-75010542D02*
X136741723Y-75058161D01*
X136741723Y-75058161D02*
X136836961Y-75105780D01*
X136836961Y-75105780D02*
X136932200Y-75201018D01*
X136932200Y-75201018D02*
X136979819Y-75343875D01*
X136979819Y-75343875D02*
X136979819Y-75581970D01*
X136075057Y-74629589D02*
X136027438Y-74581970D01*
X136027438Y-74581970D02*
X135979819Y-74486732D01*
X135979819Y-74486732D02*
X135979819Y-74248637D01*
X135979819Y-74248637D02*
X136027438Y-74153399D01*
X136027438Y-74153399D02*
X136075057Y-74105780D01*
X136075057Y-74105780D02*
X136170295Y-74058161D01*
X136170295Y-74058161D02*
X136265533Y-74058161D01*
X136265533Y-74058161D02*
X136408390Y-74105780D01*
X136408390Y-74105780D02*
X136979819Y-74677208D01*
X136979819Y-74677208D02*
X136979819Y-74058161D01*
X135979819Y-73724827D02*
X135979819Y-73105780D01*
X135979819Y-73105780D02*
X136360771Y-73439113D01*
X136360771Y-73439113D02*
X136360771Y-73296256D01*
X136360771Y-73296256D02*
X136408390Y-73201018D01*
X136408390Y-73201018D02*
X136456009Y-73153399D01*
X136456009Y-73153399D02*
X136551247Y-73105780D01*
X136551247Y-73105780D02*
X136789342Y-73105780D01*
X136789342Y-73105780D02*
X136884580Y-73153399D01*
X136884580Y-73153399D02*
X136932200Y-73201018D01*
X136932200Y-73201018D02*
X136979819Y-73296256D01*
X136979819Y-73296256D02*
X136979819Y-73581970D01*
X136979819Y-73581970D02*
X136932200Y-73677208D01*
X136932200Y-73677208D02*
X136884580Y-73724827D01*
%TO.C,D64*%
X318380529Y-66336069D02*
X318380529Y-65336069D01*
X318380529Y-65336069D02*
X318618624Y-65336069D01*
X318618624Y-65336069D02*
X318761481Y-65383688D01*
X318761481Y-65383688D02*
X318856719Y-65478926D01*
X318856719Y-65478926D02*
X318904338Y-65574164D01*
X318904338Y-65574164D02*
X318951957Y-65764640D01*
X318951957Y-65764640D02*
X318951957Y-65907497D01*
X318951957Y-65907497D02*
X318904338Y-66097973D01*
X318904338Y-66097973D02*
X318856719Y-66193211D01*
X318856719Y-66193211D02*
X318761481Y-66288450D01*
X318761481Y-66288450D02*
X318618624Y-66336069D01*
X318618624Y-66336069D02*
X318380529Y-66336069D01*
X319809100Y-65336069D02*
X319618624Y-65336069D01*
X319618624Y-65336069D02*
X319523386Y-65383688D01*
X319523386Y-65383688D02*
X319475767Y-65431307D01*
X319475767Y-65431307D02*
X319380529Y-65574164D01*
X319380529Y-65574164D02*
X319332910Y-65764640D01*
X319332910Y-65764640D02*
X319332910Y-66145592D01*
X319332910Y-66145592D02*
X319380529Y-66240830D01*
X319380529Y-66240830D02*
X319428148Y-66288450D01*
X319428148Y-66288450D02*
X319523386Y-66336069D01*
X319523386Y-66336069D02*
X319713862Y-66336069D01*
X319713862Y-66336069D02*
X319809100Y-66288450D01*
X319809100Y-66288450D02*
X319856719Y-66240830D01*
X319856719Y-66240830D02*
X319904338Y-66145592D01*
X319904338Y-66145592D02*
X319904338Y-65907497D01*
X319904338Y-65907497D02*
X319856719Y-65812259D01*
X319856719Y-65812259D02*
X319809100Y-65764640D01*
X319809100Y-65764640D02*
X319713862Y-65717021D01*
X319713862Y-65717021D02*
X319523386Y-65717021D01*
X319523386Y-65717021D02*
X319428148Y-65764640D01*
X319428148Y-65764640D02*
X319380529Y-65812259D01*
X319380529Y-65812259D02*
X319332910Y-65907497D01*
X320761481Y-65669402D02*
X320761481Y-66336069D01*
X320523386Y-65288450D02*
X320285291Y-66002735D01*
X320285291Y-66002735D02*
X320904338Y-66002735D01*
%TO.C,*%
%TO.C,D33*%
X171904819Y-75581970D02*
X170904819Y-75581970D01*
X170904819Y-75581970D02*
X170904819Y-75343875D01*
X170904819Y-75343875D02*
X170952438Y-75201018D01*
X170952438Y-75201018D02*
X171047676Y-75105780D01*
X171047676Y-75105780D02*
X171142914Y-75058161D01*
X171142914Y-75058161D02*
X171333390Y-75010542D01*
X171333390Y-75010542D02*
X171476247Y-75010542D01*
X171476247Y-75010542D02*
X171666723Y-75058161D01*
X171666723Y-75058161D02*
X171761961Y-75105780D01*
X171761961Y-75105780D02*
X171857200Y-75201018D01*
X171857200Y-75201018D02*
X171904819Y-75343875D01*
X171904819Y-75343875D02*
X171904819Y-75581970D01*
X170904819Y-74677208D02*
X170904819Y-74058161D01*
X170904819Y-74058161D02*
X171285771Y-74391494D01*
X171285771Y-74391494D02*
X171285771Y-74248637D01*
X171285771Y-74248637D02*
X171333390Y-74153399D01*
X171333390Y-74153399D02*
X171381009Y-74105780D01*
X171381009Y-74105780D02*
X171476247Y-74058161D01*
X171476247Y-74058161D02*
X171714342Y-74058161D01*
X171714342Y-74058161D02*
X171809580Y-74105780D01*
X171809580Y-74105780D02*
X171857200Y-74153399D01*
X171857200Y-74153399D02*
X171904819Y-74248637D01*
X171904819Y-74248637D02*
X171904819Y-74534351D01*
X171904819Y-74534351D02*
X171857200Y-74629589D01*
X171857200Y-74629589D02*
X171809580Y-74677208D01*
X170904819Y-73724827D02*
X170904819Y-73105780D01*
X170904819Y-73105780D02*
X171285771Y-73439113D01*
X171285771Y-73439113D02*
X171285771Y-73296256D01*
X171285771Y-73296256D02*
X171333390Y-73201018D01*
X171333390Y-73201018D02*
X171381009Y-73153399D01*
X171381009Y-73153399D02*
X171476247Y-73105780D01*
X171476247Y-73105780D02*
X171714342Y-73105780D01*
X171714342Y-73105780D02*
X171809580Y-73153399D01*
X171809580Y-73153399D02*
X171857200Y-73201018D01*
X171857200Y-73201018D02*
X171904819Y-73296256D01*
X171904819Y-73296256D02*
X171904819Y-73581970D01*
X171904819Y-73581970D02*
X171857200Y-73677208D01*
X171857200Y-73677208D02*
X171809580Y-73724827D01*
%TO.C,D15*%
X108404819Y-75581970D02*
X107404819Y-75581970D01*
X107404819Y-75581970D02*
X107404819Y-75343875D01*
X107404819Y-75343875D02*
X107452438Y-75201018D01*
X107452438Y-75201018D02*
X107547676Y-75105780D01*
X107547676Y-75105780D02*
X107642914Y-75058161D01*
X107642914Y-75058161D02*
X107833390Y-75010542D01*
X107833390Y-75010542D02*
X107976247Y-75010542D01*
X107976247Y-75010542D02*
X108166723Y-75058161D01*
X108166723Y-75058161D02*
X108261961Y-75105780D01*
X108261961Y-75105780D02*
X108357200Y-75201018D01*
X108357200Y-75201018D02*
X108404819Y-75343875D01*
X108404819Y-75343875D02*
X108404819Y-75581970D01*
X108404819Y-74058161D02*
X108404819Y-74629589D01*
X108404819Y-74343875D02*
X107404819Y-74343875D01*
X107404819Y-74343875D02*
X107547676Y-74439113D01*
X107547676Y-74439113D02*
X107642914Y-74534351D01*
X107642914Y-74534351D02*
X107690533Y-74629589D01*
X107404819Y-73153399D02*
X107404819Y-73629589D01*
X107404819Y-73629589D02*
X107881009Y-73677208D01*
X107881009Y-73677208D02*
X107833390Y-73629589D01*
X107833390Y-73629589D02*
X107785771Y-73534351D01*
X107785771Y-73534351D02*
X107785771Y-73296256D01*
X107785771Y-73296256D02*
X107833390Y-73201018D01*
X107833390Y-73201018D02*
X107881009Y-73153399D01*
X107881009Y-73153399D02*
X107976247Y-73105780D01*
X107976247Y-73105780D02*
X108214342Y-73105780D01*
X108214342Y-73105780D02*
X108309580Y-73153399D01*
X108309580Y-73153399D02*
X108357200Y-73201018D01*
X108357200Y-73201018D02*
X108404819Y-73296256D01*
X108404819Y-73296256D02*
X108404819Y-73534351D01*
X108404819Y-73534351D02*
X108357200Y-73629589D01*
X108357200Y-73629589D02*
X108309580Y-73677208D01*
%TO.C,D26*%
X148092319Y-75581970D02*
X147092319Y-75581970D01*
X147092319Y-75581970D02*
X147092319Y-75343875D01*
X147092319Y-75343875D02*
X147139938Y-75201018D01*
X147139938Y-75201018D02*
X147235176Y-75105780D01*
X147235176Y-75105780D02*
X147330414Y-75058161D01*
X147330414Y-75058161D02*
X147520890Y-75010542D01*
X147520890Y-75010542D02*
X147663747Y-75010542D01*
X147663747Y-75010542D02*
X147854223Y-75058161D01*
X147854223Y-75058161D02*
X147949461Y-75105780D01*
X147949461Y-75105780D02*
X148044700Y-75201018D01*
X148044700Y-75201018D02*
X148092319Y-75343875D01*
X148092319Y-75343875D02*
X148092319Y-75581970D01*
X147187557Y-74629589D02*
X147139938Y-74581970D01*
X147139938Y-74581970D02*
X147092319Y-74486732D01*
X147092319Y-74486732D02*
X147092319Y-74248637D01*
X147092319Y-74248637D02*
X147139938Y-74153399D01*
X147139938Y-74153399D02*
X147187557Y-74105780D01*
X147187557Y-74105780D02*
X147282795Y-74058161D01*
X147282795Y-74058161D02*
X147378033Y-74058161D01*
X147378033Y-74058161D02*
X147520890Y-74105780D01*
X147520890Y-74105780D02*
X148092319Y-74677208D01*
X148092319Y-74677208D02*
X148092319Y-74058161D01*
X147092319Y-73201018D02*
X147092319Y-73391494D01*
X147092319Y-73391494D02*
X147139938Y-73486732D01*
X147139938Y-73486732D02*
X147187557Y-73534351D01*
X147187557Y-73534351D02*
X147330414Y-73629589D01*
X147330414Y-73629589D02*
X147520890Y-73677208D01*
X147520890Y-73677208D02*
X147901842Y-73677208D01*
X147901842Y-73677208D02*
X147997080Y-73629589D01*
X147997080Y-73629589D02*
X148044700Y-73581970D01*
X148044700Y-73581970D02*
X148092319Y-73486732D01*
X148092319Y-73486732D02*
X148092319Y-73296256D01*
X148092319Y-73296256D02*
X148044700Y-73201018D01*
X148044700Y-73201018D02*
X147997080Y-73153399D01*
X147997080Y-73153399D02*
X147901842Y-73105780D01*
X147901842Y-73105780D02*
X147663747Y-73105780D01*
X147663747Y-73105780D02*
X147568509Y-73153399D01*
X147568509Y-73153399D02*
X147520890Y-73201018D01*
X147520890Y-73201018D02*
X147473271Y-73296256D01*
X147473271Y-73296256D02*
X147473271Y-73486732D01*
X147473271Y-73486732D02*
X147520890Y-73581970D01*
X147520890Y-73581970D02*
X147568509Y-73629589D01*
X147568509Y-73629589D02*
X147663747Y-73677208D01*
%TO.C,D30*%
X162379819Y-75581970D02*
X161379819Y-75581970D01*
X161379819Y-75581970D02*
X161379819Y-75343875D01*
X161379819Y-75343875D02*
X161427438Y-75201018D01*
X161427438Y-75201018D02*
X161522676Y-75105780D01*
X161522676Y-75105780D02*
X161617914Y-75058161D01*
X161617914Y-75058161D02*
X161808390Y-75010542D01*
X161808390Y-75010542D02*
X161951247Y-75010542D01*
X161951247Y-75010542D02*
X162141723Y-75058161D01*
X162141723Y-75058161D02*
X162236961Y-75105780D01*
X162236961Y-75105780D02*
X162332200Y-75201018D01*
X162332200Y-75201018D02*
X162379819Y-75343875D01*
X162379819Y-75343875D02*
X162379819Y-75581970D01*
X161379819Y-74677208D02*
X161379819Y-74058161D01*
X161379819Y-74058161D02*
X161760771Y-74391494D01*
X161760771Y-74391494D02*
X161760771Y-74248637D01*
X161760771Y-74248637D02*
X161808390Y-74153399D01*
X161808390Y-74153399D02*
X161856009Y-74105780D01*
X161856009Y-74105780D02*
X161951247Y-74058161D01*
X161951247Y-74058161D02*
X162189342Y-74058161D01*
X162189342Y-74058161D02*
X162284580Y-74105780D01*
X162284580Y-74105780D02*
X162332200Y-74153399D01*
X162332200Y-74153399D02*
X162379819Y-74248637D01*
X162379819Y-74248637D02*
X162379819Y-74534351D01*
X162379819Y-74534351D02*
X162332200Y-74629589D01*
X162332200Y-74629589D02*
X162284580Y-74677208D01*
X161379819Y-73439113D02*
X161379819Y-73343875D01*
X161379819Y-73343875D02*
X161427438Y-73248637D01*
X161427438Y-73248637D02*
X161475057Y-73201018D01*
X161475057Y-73201018D02*
X161570295Y-73153399D01*
X161570295Y-73153399D02*
X161760771Y-73105780D01*
X161760771Y-73105780D02*
X161998866Y-73105780D01*
X161998866Y-73105780D02*
X162189342Y-73153399D01*
X162189342Y-73153399D02*
X162284580Y-73201018D01*
X162284580Y-73201018D02*
X162332200Y-73248637D01*
X162332200Y-73248637D02*
X162379819Y-73343875D01*
X162379819Y-73343875D02*
X162379819Y-73439113D01*
X162379819Y-73439113D02*
X162332200Y-73534351D01*
X162332200Y-73534351D02*
X162284580Y-73581970D01*
X162284580Y-73581970D02*
X162189342Y-73629589D01*
X162189342Y-73629589D02*
X161998866Y-73677208D01*
X161998866Y-73677208D02*
X161760771Y-73677208D01*
X161760771Y-73677208D02*
X161570295Y-73629589D01*
X161570295Y-73629589D02*
X161475057Y-73581970D01*
X161475057Y-73581970D02*
X161427438Y-73534351D01*
X161427438Y-73534351D02*
X161379819Y-73439113D01*
%TO.C,D3*%
X65542319Y-75581970D02*
X64542319Y-75581970D01*
X64542319Y-75581970D02*
X64542319Y-75343875D01*
X64542319Y-75343875D02*
X64589938Y-75201018D01*
X64589938Y-75201018D02*
X64685176Y-75105780D01*
X64685176Y-75105780D02*
X64780414Y-75058161D01*
X64780414Y-75058161D02*
X64970890Y-75010542D01*
X64970890Y-75010542D02*
X65113747Y-75010542D01*
X65113747Y-75010542D02*
X65304223Y-75058161D01*
X65304223Y-75058161D02*
X65399461Y-75105780D01*
X65399461Y-75105780D02*
X65494700Y-75201018D01*
X65494700Y-75201018D02*
X65542319Y-75343875D01*
X65542319Y-75343875D02*
X65542319Y-75581970D01*
X64542319Y-74677208D02*
X64542319Y-74058161D01*
X64542319Y-74058161D02*
X64923271Y-74391494D01*
X64923271Y-74391494D02*
X64923271Y-74248637D01*
X64923271Y-74248637D02*
X64970890Y-74153399D01*
X64970890Y-74153399D02*
X65018509Y-74105780D01*
X65018509Y-74105780D02*
X65113747Y-74058161D01*
X65113747Y-74058161D02*
X65351842Y-74058161D01*
X65351842Y-74058161D02*
X65447080Y-74105780D01*
X65447080Y-74105780D02*
X65494700Y-74153399D01*
X65494700Y-74153399D02*
X65542319Y-74248637D01*
X65542319Y-74248637D02*
X65542319Y-74534351D01*
X65542319Y-74534351D02*
X65494700Y-74629589D01*
X65494700Y-74629589D02*
X65447080Y-74677208D01*
%TO.C,ENC3*%
X330073214Y-70574759D02*
X330406547Y-70574759D01*
X330549404Y-71098569D02*
X330073214Y-71098569D01*
X330073214Y-71098569D02*
X330073214Y-70098569D01*
X330073214Y-70098569D02*
X330549404Y-70098569D01*
X330977976Y-71098569D02*
X330977976Y-70098569D01*
X330977976Y-70098569D02*
X331549404Y-71098569D01*
X331549404Y-71098569D02*
X331549404Y-70098569D01*
X332597023Y-71003330D02*
X332549404Y-71050950D01*
X332549404Y-71050950D02*
X332406547Y-71098569D01*
X332406547Y-71098569D02*
X332311309Y-71098569D01*
X332311309Y-71098569D02*
X332168452Y-71050950D01*
X332168452Y-71050950D02*
X332073214Y-70955711D01*
X332073214Y-70955711D02*
X332025595Y-70860473D01*
X332025595Y-70860473D02*
X331977976Y-70669997D01*
X331977976Y-70669997D02*
X331977976Y-70527140D01*
X331977976Y-70527140D02*
X332025595Y-70336664D01*
X332025595Y-70336664D02*
X332073214Y-70241426D01*
X332073214Y-70241426D02*
X332168452Y-70146188D01*
X332168452Y-70146188D02*
X332311309Y-70098569D01*
X332311309Y-70098569D02*
X332406547Y-70098569D01*
X332406547Y-70098569D02*
X332549404Y-70146188D01*
X332549404Y-70146188D02*
X332597023Y-70193807D01*
X332930357Y-70098569D02*
X333549404Y-70098569D01*
X333549404Y-70098569D02*
X333216071Y-70479521D01*
X333216071Y-70479521D02*
X333358928Y-70479521D01*
X333358928Y-70479521D02*
X333454166Y-70527140D01*
X333454166Y-70527140D02*
X333501785Y-70574759D01*
X333501785Y-70574759D02*
X333549404Y-70669997D01*
X333549404Y-70669997D02*
X333549404Y-70908092D01*
X333549404Y-70908092D02*
X333501785Y-71003330D01*
X333501785Y-71003330D02*
X333454166Y-71050950D01*
X333454166Y-71050950D02*
X333358928Y-71098569D01*
X333358928Y-71098569D02*
X333073214Y-71098569D01*
X333073214Y-71098569D02*
X332977976Y-71050950D01*
X332977976Y-71050950D02*
X332930357Y-71003330D01*
%TO.C,D22*%
X133804819Y-75581970D02*
X132804819Y-75581970D01*
X132804819Y-75581970D02*
X132804819Y-75343875D01*
X132804819Y-75343875D02*
X132852438Y-75201018D01*
X132852438Y-75201018D02*
X132947676Y-75105780D01*
X132947676Y-75105780D02*
X133042914Y-75058161D01*
X133042914Y-75058161D02*
X133233390Y-75010542D01*
X133233390Y-75010542D02*
X133376247Y-75010542D01*
X133376247Y-75010542D02*
X133566723Y-75058161D01*
X133566723Y-75058161D02*
X133661961Y-75105780D01*
X133661961Y-75105780D02*
X133757200Y-75201018D01*
X133757200Y-75201018D02*
X133804819Y-75343875D01*
X133804819Y-75343875D02*
X133804819Y-75581970D01*
X132900057Y-74629589D02*
X132852438Y-74581970D01*
X132852438Y-74581970D02*
X132804819Y-74486732D01*
X132804819Y-74486732D02*
X132804819Y-74248637D01*
X132804819Y-74248637D02*
X132852438Y-74153399D01*
X132852438Y-74153399D02*
X132900057Y-74105780D01*
X132900057Y-74105780D02*
X132995295Y-74058161D01*
X132995295Y-74058161D02*
X133090533Y-74058161D01*
X133090533Y-74058161D02*
X133233390Y-74105780D01*
X133233390Y-74105780D02*
X133804819Y-74677208D01*
X133804819Y-74677208D02*
X133804819Y-74058161D01*
X132900057Y-73677208D02*
X132852438Y-73629589D01*
X132852438Y-73629589D02*
X132804819Y-73534351D01*
X132804819Y-73534351D02*
X132804819Y-73296256D01*
X132804819Y-73296256D02*
X132852438Y-73201018D01*
X132852438Y-73201018D02*
X132900057Y-73153399D01*
X132900057Y-73153399D02*
X132995295Y-73105780D01*
X132995295Y-73105780D02*
X133090533Y-73105780D01*
X133090533Y-73105780D02*
X133233390Y-73153399D01*
X133233390Y-73153399D02*
X133804819Y-73724827D01*
X133804819Y-73724827D02*
X133804819Y-73105780D01*
%TO.C,D45*%
X237786069Y-75581970D02*
X236786069Y-75581970D01*
X236786069Y-75581970D02*
X236786069Y-75343875D01*
X236786069Y-75343875D02*
X236833688Y-75201018D01*
X236833688Y-75201018D02*
X236928926Y-75105780D01*
X236928926Y-75105780D02*
X237024164Y-75058161D01*
X237024164Y-75058161D02*
X237214640Y-75010542D01*
X237214640Y-75010542D02*
X237357497Y-75010542D01*
X237357497Y-75010542D02*
X237547973Y-75058161D01*
X237547973Y-75058161D02*
X237643211Y-75105780D01*
X237643211Y-75105780D02*
X237738450Y-75201018D01*
X237738450Y-75201018D02*
X237786069Y-75343875D01*
X237786069Y-75343875D02*
X237786069Y-75581970D01*
X237119402Y-74153399D02*
X237786069Y-74153399D01*
X236738450Y-74391494D02*
X237452735Y-74629589D01*
X237452735Y-74629589D02*
X237452735Y-74010542D01*
X236786069Y-73153399D02*
X236786069Y-73629589D01*
X236786069Y-73629589D02*
X237262259Y-73677208D01*
X237262259Y-73677208D02*
X237214640Y-73629589D01*
X237214640Y-73629589D02*
X237167021Y-73534351D01*
X237167021Y-73534351D02*
X237167021Y-73296256D01*
X237167021Y-73296256D02*
X237214640Y-73201018D01*
X237214640Y-73201018D02*
X237262259Y-73153399D01*
X237262259Y-73153399D02*
X237357497Y-73105780D01*
X237357497Y-73105780D02*
X237595592Y-73105780D01*
X237595592Y-73105780D02*
X237690830Y-73153399D01*
X237690830Y-73153399D02*
X237738450Y-73201018D01*
X237738450Y-73201018D02*
X237786069Y-73296256D01*
X237786069Y-73296256D02*
X237786069Y-73534351D01*
X237786069Y-73534351D02*
X237738450Y-73629589D01*
X237738450Y-73629589D02*
X237690830Y-73677208D01*
%TO.C,D56*%
X290967319Y-75581970D02*
X289967319Y-75581970D01*
X289967319Y-75581970D02*
X289967319Y-75343875D01*
X289967319Y-75343875D02*
X290014938Y-75201018D01*
X290014938Y-75201018D02*
X290110176Y-75105780D01*
X290110176Y-75105780D02*
X290205414Y-75058161D01*
X290205414Y-75058161D02*
X290395890Y-75010542D01*
X290395890Y-75010542D02*
X290538747Y-75010542D01*
X290538747Y-75010542D02*
X290729223Y-75058161D01*
X290729223Y-75058161D02*
X290824461Y-75105780D01*
X290824461Y-75105780D02*
X290919700Y-75201018D01*
X290919700Y-75201018D02*
X290967319Y-75343875D01*
X290967319Y-75343875D02*
X290967319Y-75581970D01*
X289967319Y-74105780D02*
X289967319Y-74581970D01*
X289967319Y-74581970D02*
X290443509Y-74629589D01*
X290443509Y-74629589D02*
X290395890Y-74581970D01*
X290395890Y-74581970D02*
X290348271Y-74486732D01*
X290348271Y-74486732D02*
X290348271Y-74248637D01*
X290348271Y-74248637D02*
X290395890Y-74153399D01*
X290395890Y-74153399D02*
X290443509Y-74105780D01*
X290443509Y-74105780D02*
X290538747Y-74058161D01*
X290538747Y-74058161D02*
X290776842Y-74058161D01*
X290776842Y-74058161D02*
X290872080Y-74105780D01*
X290872080Y-74105780D02*
X290919700Y-74153399D01*
X290919700Y-74153399D02*
X290967319Y-74248637D01*
X290967319Y-74248637D02*
X290967319Y-74486732D01*
X290967319Y-74486732D02*
X290919700Y-74581970D01*
X290919700Y-74581970D02*
X290872080Y-74629589D01*
X289967319Y-73201018D02*
X289967319Y-73391494D01*
X289967319Y-73391494D02*
X290014938Y-73486732D01*
X290014938Y-73486732D02*
X290062557Y-73534351D01*
X290062557Y-73534351D02*
X290205414Y-73629589D01*
X290205414Y-73629589D02*
X290395890Y-73677208D01*
X290395890Y-73677208D02*
X290776842Y-73677208D01*
X290776842Y-73677208D02*
X290872080Y-73629589D01*
X290872080Y-73629589D02*
X290919700Y-73581970D01*
X290919700Y-73581970D02*
X290967319Y-73486732D01*
X290967319Y-73486732D02*
X290967319Y-73296256D01*
X290967319Y-73296256D02*
X290919700Y-73201018D01*
X290919700Y-73201018D02*
X290872080Y-73153399D01*
X290872080Y-73153399D02*
X290776842Y-73105780D01*
X290776842Y-73105780D02*
X290538747Y-73105780D01*
X290538747Y-73105780D02*
X290443509Y-73153399D01*
X290443509Y-73153399D02*
X290395890Y-73201018D01*
X290395890Y-73201018D02*
X290348271Y-73296256D01*
X290348271Y-73296256D02*
X290348271Y-73486732D01*
X290348271Y-73486732D02*
X290395890Y-73581970D01*
X290395890Y-73581970D02*
X290443509Y-73629589D01*
X290443509Y-73629589D02*
X290538747Y-73677208D01*
%TO.C,D18*%
X119517319Y-75581970D02*
X118517319Y-75581970D01*
X118517319Y-75581970D02*
X118517319Y-75343875D01*
X118517319Y-75343875D02*
X118564938Y-75201018D01*
X118564938Y-75201018D02*
X118660176Y-75105780D01*
X118660176Y-75105780D02*
X118755414Y-75058161D01*
X118755414Y-75058161D02*
X118945890Y-75010542D01*
X118945890Y-75010542D02*
X119088747Y-75010542D01*
X119088747Y-75010542D02*
X119279223Y-75058161D01*
X119279223Y-75058161D02*
X119374461Y-75105780D01*
X119374461Y-75105780D02*
X119469700Y-75201018D01*
X119469700Y-75201018D02*
X119517319Y-75343875D01*
X119517319Y-75343875D02*
X119517319Y-75581970D01*
X119517319Y-74058161D02*
X119517319Y-74629589D01*
X119517319Y-74343875D02*
X118517319Y-74343875D01*
X118517319Y-74343875D02*
X118660176Y-74439113D01*
X118660176Y-74439113D02*
X118755414Y-74534351D01*
X118755414Y-74534351D02*
X118803033Y-74629589D01*
X118945890Y-73486732D02*
X118898271Y-73581970D01*
X118898271Y-73581970D02*
X118850652Y-73629589D01*
X118850652Y-73629589D02*
X118755414Y-73677208D01*
X118755414Y-73677208D02*
X118707795Y-73677208D01*
X118707795Y-73677208D02*
X118612557Y-73629589D01*
X118612557Y-73629589D02*
X118564938Y-73581970D01*
X118564938Y-73581970D02*
X118517319Y-73486732D01*
X118517319Y-73486732D02*
X118517319Y-73296256D01*
X118517319Y-73296256D02*
X118564938Y-73201018D01*
X118564938Y-73201018D02*
X118612557Y-73153399D01*
X118612557Y-73153399D02*
X118707795Y-73105780D01*
X118707795Y-73105780D02*
X118755414Y-73105780D01*
X118755414Y-73105780D02*
X118850652Y-73153399D01*
X118850652Y-73153399D02*
X118898271Y-73201018D01*
X118898271Y-73201018D02*
X118945890Y-73296256D01*
X118945890Y-73296256D02*
X118945890Y-73486732D01*
X118945890Y-73486732D02*
X118993509Y-73581970D01*
X118993509Y-73581970D02*
X119041128Y-73629589D01*
X119041128Y-73629589D02*
X119136366Y-73677208D01*
X119136366Y-73677208D02*
X119326842Y-73677208D01*
X119326842Y-73677208D02*
X119422080Y-73629589D01*
X119422080Y-73629589D02*
X119469700Y-73581970D01*
X119469700Y-73581970D02*
X119517319Y-73486732D01*
X119517319Y-73486732D02*
X119517319Y-73296256D01*
X119517319Y-73296256D02*
X119469700Y-73201018D01*
X119469700Y-73201018D02*
X119422080Y-73153399D01*
X119422080Y-73153399D02*
X119326842Y-73105780D01*
X119326842Y-73105780D02*
X119136366Y-73105780D01*
X119136366Y-73105780D02*
X119041128Y-73153399D01*
X119041128Y-73153399D02*
X118993509Y-73201018D01*
X118993509Y-73201018D02*
X118945890Y-73296256D01*
%TO.C,D19*%
X122692319Y-75581970D02*
X121692319Y-75581970D01*
X121692319Y-75581970D02*
X121692319Y-75343875D01*
X121692319Y-75343875D02*
X121739938Y-75201018D01*
X121739938Y-75201018D02*
X121835176Y-75105780D01*
X121835176Y-75105780D02*
X121930414Y-75058161D01*
X121930414Y-75058161D02*
X122120890Y-75010542D01*
X122120890Y-75010542D02*
X122263747Y-75010542D01*
X122263747Y-75010542D02*
X122454223Y-75058161D01*
X122454223Y-75058161D02*
X122549461Y-75105780D01*
X122549461Y-75105780D02*
X122644700Y-75201018D01*
X122644700Y-75201018D02*
X122692319Y-75343875D01*
X122692319Y-75343875D02*
X122692319Y-75581970D01*
X122692319Y-74058161D02*
X122692319Y-74629589D01*
X122692319Y-74343875D02*
X121692319Y-74343875D01*
X121692319Y-74343875D02*
X121835176Y-74439113D01*
X121835176Y-74439113D02*
X121930414Y-74534351D01*
X121930414Y-74534351D02*
X121978033Y-74629589D01*
X122692319Y-73581970D02*
X122692319Y-73391494D01*
X122692319Y-73391494D02*
X122644700Y-73296256D01*
X122644700Y-73296256D02*
X122597080Y-73248637D01*
X122597080Y-73248637D02*
X122454223Y-73153399D01*
X122454223Y-73153399D02*
X122263747Y-73105780D01*
X122263747Y-73105780D02*
X121882795Y-73105780D01*
X121882795Y-73105780D02*
X121787557Y-73153399D01*
X121787557Y-73153399D02*
X121739938Y-73201018D01*
X121739938Y-73201018D02*
X121692319Y-73296256D01*
X121692319Y-73296256D02*
X121692319Y-73486732D01*
X121692319Y-73486732D02*
X121739938Y-73581970D01*
X121739938Y-73581970D02*
X121787557Y-73629589D01*
X121787557Y-73629589D02*
X121882795Y-73677208D01*
X121882795Y-73677208D02*
X122120890Y-73677208D01*
X122120890Y-73677208D02*
X122216128Y-73629589D01*
X122216128Y-73629589D02*
X122263747Y-73581970D01*
X122263747Y-73581970D02*
X122311366Y-73486732D01*
X122311366Y-73486732D02*
X122311366Y-73296256D01*
X122311366Y-73296256D02*
X122263747Y-73201018D01*
X122263747Y-73201018D02*
X122216128Y-73153399D01*
X122216128Y-73153399D02*
X122120890Y-73105780D01*
%TO.C,D38*%
X212386069Y-75581970D02*
X211386069Y-75581970D01*
X211386069Y-75581970D02*
X211386069Y-75343875D01*
X211386069Y-75343875D02*
X211433688Y-75201018D01*
X211433688Y-75201018D02*
X211528926Y-75105780D01*
X211528926Y-75105780D02*
X211624164Y-75058161D01*
X211624164Y-75058161D02*
X211814640Y-75010542D01*
X211814640Y-75010542D02*
X211957497Y-75010542D01*
X211957497Y-75010542D02*
X212147973Y-75058161D01*
X212147973Y-75058161D02*
X212243211Y-75105780D01*
X212243211Y-75105780D02*
X212338450Y-75201018D01*
X212338450Y-75201018D02*
X212386069Y-75343875D01*
X212386069Y-75343875D02*
X212386069Y-75581970D01*
X211386069Y-74677208D02*
X211386069Y-74058161D01*
X211386069Y-74058161D02*
X211767021Y-74391494D01*
X211767021Y-74391494D02*
X211767021Y-74248637D01*
X211767021Y-74248637D02*
X211814640Y-74153399D01*
X211814640Y-74153399D02*
X211862259Y-74105780D01*
X211862259Y-74105780D02*
X211957497Y-74058161D01*
X211957497Y-74058161D02*
X212195592Y-74058161D01*
X212195592Y-74058161D02*
X212290830Y-74105780D01*
X212290830Y-74105780D02*
X212338450Y-74153399D01*
X212338450Y-74153399D02*
X212386069Y-74248637D01*
X212386069Y-74248637D02*
X212386069Y-74534351D01*
X212386069Y-74534351D02*
X212338450Y-74629589D01*
X212338450Y-74629589D02*
X212290830Y-74677208D01*
X211814640Y-73486732D02*
X211767021Y-73581970D01*
X211767021Y-73581970D02*
X211719402Y-73629589D01*
X211719402Y-73629589D02*
X211624164Y-73677208D01*
X211624164Y-73677208D02*
X211576545Y-73677208D01*
X211576545Y-73677208D02*
X211481307Y-73629589D01*
X211481307Y-73629589D02*
X211433688Y-73581970D01*
X211433688Y-73581970D02*
X211386069Y-73486732D01*
X211386069Y-73486732D02*
X211386069Y-73296256D01*
X211386069Y-73296256D02*
X211433688Y-73201018D01*
X211433688Y-73201018D02*
X211481307Y-73153399D01*
X211481307Y-73153399D02*
X211576545Y-73105780D01*
X211576545Y-73105780D02*
X211624164Y-73105780D01*
X211624164Y-73105780D02*
X211719402Y-73153399D01*
X211719402Y-73153399D02*
X211767021Y-73201018D01*
X211767021Y-73201018D02*
X211814640Y-73296256D01*
X211814640Y-73296256D02*
X211814640Y-73486732D01*
X211814640Y-73486732D02*
X211862259Y-73581970D01*
X211862259Y-73581970D02*
X211909878Y-73629589D01*
X211909878Y-73629589D02*
X212005116Y-73677208D01*
X212005116Y-73677208D02*
X212195592Y-73677208D01*
X212195592Y-73677208D02*
X212290830Y-73629589D01*
X212290830Y-73629589D02*
X212338450Y-73581970D01*
X212338450Y-73581970D02*
X212386069Y-73486732D01*
X212386069Y-73486732D02*
X212386069Y-73296256D01*
X212386069Y-73296256D02*
X212338450Y-73201018D01*
X212338450Y-73201018D02*
X212290830Y-73153399D01*
X212290830Y-73153399D02*
X212195592Y-73105780D01*
X212195592Y-73105780D02*
X212005116Y-73105780D01*
X212005116Y-73105780D02*
X211909878Y-73153399D01*
X211909878Y-73153399D02*
X211862259Y-73201018D01*
X211862259Y-73201018D02*
X211814640Y-73296256D01*
%TO.C,D40*%
X220323569Y-75581970D02*
X219323569Y-75581970D01*
X219323569Y-75581970D02*
X219323569Y-75343875D01*
X219323569Y-75343875D02*
X219371188Y-75201018D01*
X219371188Y-75201018D02*
X219466426Y-75105780D01*
X219466426Y-75105780D02*
X219561664Y-75058161D01*
X219561664Y-75058161D02*
X219752140Y-75010542D01*
X219752140Y-75010542D02*
X219894997Y-75010542D01*
X219894997Y-75010542D02*
X220085473Y-75058161D01*
X220085473Y-75058161D02*
X220180711Y-75105780D01*
X220180711Y-75105780D02*
X220275950Y-75201018D01*
X220275950Y-75201018D02*
X220323569Y-75343875D01*
X220323569Y-75343875D02*
X220323569Y-75581970D01*
X219656902Y-74153399D02*
X220323569Y-74153399D01*
X219275950Y-74391494D02*
X219990235Y-74629589D01*
X219990235Y-74629589D02*
X219990235Y-74010542D01*
X219323569Y-73439113D02*
X219323569Y-73343875D01*
X219323569Y-73343875D02*
X219371188Y-73248637D01*
X219371188Y-73248637D02*
X219418807Y-73201018D01*
X219418807Y-73201018D02*
X219514045Y-73153399D01*
X219514045Y-73153399D02*
X219704521Y-73105780D01*
X219704521Y-73105780D02*
X219942616Y-73105780D01*
X219942616Y-73105780D02*
X220133092Y-73153399D01*
X220133092Y-73153399D02*
X220228330Y-73201018D01*
X220228330Y-73201018D02*
X220275950Y-73248637D01*
X220275950Y-73248637D02*
X220323569Y-73343875D01*
X220323569Y-73343875D02*
X220323569Y-73439113D01*
X220323569Y-73439113D02*
X220275950Y-73534351D01*
X220275950Y-73534351D02*
X220228330Y-73581970D01*
X220228330Y-73581970D02*
X220133092Y-73629589D01*
X220133092Y-73629589D02*
X219942616Y-73677208D01*
X219942616Y-73677208D02*
X219704521Y-73677208D01*
X219704521Y-73677208D02*
X219514045Y-73629589D01*
X219514045Y-73629589D02*
X219418807Y-73581970D01*
X219418807Y-73581970D02*
X219371188Y-73534351D01*
X219371188Y-73534351D02*
X219323569Y-73439113D01*
%TO.C,ENC1*%
X279273214Y-70574759D02*
X279606547Y-70574759D01*
X279749404Y-71098569D02*
X279273214Y-71098569D01*
X279273214Y-71098569D02*
X279273214Y-70098569D01*
X279273214Y-70098569D02*
X279749404Y-70098569D01*
X280177976Y-71098569D02*
X280177976Y-70098569D01*
X280177976Y-70098569D02*
X280749404Y-71098569D01*
X280749404Y-71098569D02*
X280749404Y-70098569D01*
X281797023Y-71003330D02*
X281749404Y-71050950D01*
X281749404Y-71050950D02*
X281606547Y-71098569D01*
X281606547Y-71098569D02*
X281511309Y-71098569D01*
X281511309Y-71098569D02*
X281368452Y-71050950D01*
X281368452Y-71050950D02*
X281273214Y-70955711D01*
X281273214Y-70955711D02*
X281225595Y-70860473D01*
X281225595Y-70860473D02*
X281177976Y-70669997D01*
X281177976Y-70669997D02*
X281177976Y-70527140D01*
X281177976Y-70527140D02*
X281225595Y-70336664D01*
X281225595Y-70336664D02*
X281273214Y-70241426D01*
X281273214Y-70241426D02*
X281368452Y-70146188D01*
X281368452Y-70146188D02*
X281511309Y-70098569D01*
X281511309Y-70098569D02*
X281606547Y-70098569D01*
X281606547Y-70098569D02*
X281749404Y-70146188D01*
X281749404Y-70146188D02*
X281797023Y-70193807D01*
X282749404Y-71098569D02*
X282177976Y-71098569D01*
X282463690Y-71098569D02*
X282463690Y-70098569D01*
X282463690Y-70098569D02*
X282368452Y-70241426D01*
X282368452Y-70241426D02*
X282273214Y-70336664D01*
X282273214Y-70336664D02*
X282177976Y-70384283D01*
%TO.C,D53*%
X266361069Y-75581970D02*
X265361069Y-75581970D01*
X265361069Y-75581970D02*
X265361069Y-75343875D01*
X265361069Y-75343875D02*
X265408688Y-75201018D01*
X265408688Y-75201018D02*
X265503926Y-75105780D01*
X265503926Y-75105780D02*
X265599164Y-75058161D01*
X265599164Y-75058161D02*
X265789640Y-75010542D01*
X265789640Y-75010542D02*
X265932497Y-75010542D01*
X265932497Y-75010542D02*
X266122973Y-75058161D01*
X266122973Y-75058161D02*
X266218211Y-75105780D01*
X266218211Y-75105780D02*
X266313450Y-75201018D01*
X266313450Y-75201018D02*
X266361069Y-75343875D01*
X266361069Y-75343875D02*
X266361069Y-75581970D01*
X265361069Y-74105780D02*
X265361069Y-74581970D01*
X265361069Y-74581970D02*
X265837259Y-74629589D01*
X265837259Y-74629589D02*
X265789640Y-74581970D01*
X265789640Y-74581970D02*
X265742021Y-74486732D01*
X265742021Y-74486732D02*
X265742021Y-74248637D01*
X265742021Y-74248637D02*
X265789640Y-74153399D01*
X265789640Y-74153399D02*
X265837259Y-74105780D01*
X265837259Y-74105780D02*
X265932497Y-74058161D01*
X265932497Y-74058161D02*
X266170592Y-74058161D01*
X266170592Y-74058161D02*
X266265830Y-74105780D01*
X266265830Y-74105780D02*
X266313450Y-74153399D01*
X266313450Y-74153399D02*
X266361069Y-74248637D01*
X266361069Y-74248637D02*
X266361069Y-74486732D01*
X266361069Y-74486732D02*
X266313450Y-74581970D01*
X266313450Y-74581970D02*
X266265830Y-74629589D01*
X265361069Y-73724827D02*
X265361069Y-73105780D01*
X265361069Y-73105780D02*
X265742021Y-73439113D01*
X265742021Y-73439113D02*
X265742021Y-73296256D01*
X265742021Y-73296256D02*
X265789640Y-73201018D01*
X265789640Y-73201018D02*
X265837259Y-73153399D01*
X265837259Y-73153399D02*
X265932497Y-73105780D01*
X265932497Y-73105780D02*
X266170592Y-73105780D01*
X266170592Y-73105780D02*
X266265830Y-73153399D01*
X266265830Y-73153399D02*
X266313450Y-73201018D01*
X266313450Y-73201018D02*
X266361069Y-73296256D01*
X266361069Y-73296256D02*
X266361069Y-73581970D01*
X266361069Y-73581970D02*
X266313450Y-73677208D01*
X266313450Y-73677208D02*
X266265830Y-73724827D01*
%TO.C,D1*%
X59192319Y-75581970D02*
X58192319Y-75581970D01*
X58192319Y-75581970D02*
X58192319Y-75343875D01*
X58192319Y-75343875D02*
X58239938Y-75201018D01*
X58239938Y-75201018D02*
X58335176Y-75105780D01*
X58335176Y-75105780D02*
X58430414Y-75058161D01*
X58430414Y-75058161D02*
X58620890Y-75010542D01*
X58620890Y-75010542D02*
X58763747Y-75010542D01*
X58763747Y-75010542D02*
X58954223Y-75058161D01*
X58954223Y-75058161D02*
X59049461Y-75105780D01*
X59049461Y-75105780D02*
X59144700Y-75201018D01*
X59144700Y-75201018D02*
X59192319Y-75343875D01*
X59192319Y-75343875D02*
X59192319Y-75581970D01*
X59192319Y-74058161D02*
X59192319Y-74629589D01*
X59192319Y-74343875D02*
X58192319Y-74343875D01*
X58192319Y-74343875D02*
X58335176Y-74439113D01*
X58335176Y-74439113D02*
X58430414Y-74534351D01*
X58430414Y-74534351D02*
X58478033Y-74629589D01*
%TO.C,D42*%
X226673569Y-75581970D02*
X225673569Y-75581970D01*
X225673569Y-75581970D02*
X225673569Y-75343875D01*
X225673569Y-75343875D02*
X225721188Y-75201018D01*
X225721188Y-75201018D02*
X225816426Y-75105780D01*
X225816426Y-75105780D02*
X225911664Y-75058161D01*
X225911664Y-75058161D02*
X226102140Y-75010542D01*
X226102140Y-75010542D02*
X226244997Y-75010542D01*
X226244997Y-75010542D02*
X226435473Y-75058161D01*
X226435473Y-75058161D02*
X226530711Y-75105780D01*
X226530711Y-75105780D02*
X226625950Y-75201018D01*
X226625950Y-75201018D02*
X226673569Y-75343875D01*
X226673569Y-75343875D02*
X226673569Y-75581970D01*
X226006902Y-74153399D02*
X226673569Y-74153399D01*
X225625950Y-74391494D02*
X226340235Y-74629589D01*
X226340235Y-74629589D02*
X226340235Y-74010542D01*
X225768807Y-73677208D02*
X225721188Y-73629589D01*
X225721188Y-73629589D02*
X225673569Y-73534351D01*
X225673569Y-73534351D02*
X225673569Y-73296256D01*
X225673569Y-73296256D02*
X225721188Y-73201018D01*
X225721188Y-73201018D02*
X225768807Y-73153399D01*
X225768807Y-73153399D02*
X225864045Y-73105780D01*
X225864045Y-73105780D02*
X225959283Y-73105780D01*
X225959283Y-73105780D02*
X226102140Y-73153399D01*
X226102140Y-73153399D02*
X226673569Y-73724827D01*
X226673569Y-73724827D02*
X226673569Y-73105780D01*
%TO.C,ENC2*%
X304673214Y-70574759D02*
X305006547Y-70574759D01*
X305149404Y-71098569D02*
X304673214Y-71098569D01*
X304673214Y-71098569D02*
X304673214Y-70098569D01*
X304673214Y-70098569D02*
X305149404Y-70098569D01*
X305577976Y-71098569D02*
X305577976Y-70098569D01*
X305577976Y-70098569D02*
X306149404Y-71098569D01*
X306149404Y-71098569D02*
X306149404Y-70098569D01*
X307197023Y-71003330D02*
X307149404Y-71050950D01*
X307149404Y-71050950D02*
X307006547Y-71098569D01*
X307006547Y-71098569D02*
X306911309Y-71098569D01*
X306911309Y-71098569D02*
X306768452Y-71050950D01*
X306768452Y-71050950D02*
X306673214Y-70955711D01*
X306673214Y-70955711D02*
X306625595Y-70860473D01*
X306625595Y-70860473D02*
X306577976Y-70669997D01*
X306577976Y-70669997D02*
X306577976Y-70527140D01*
X306577976Y-70527140D02*
X306625595Y-70336664D01*
X306625595Y-70336664D02*
X306673214Y-70241426D01*
X306673214Y-70241426D02*
X306768452Y-70146188D01*
X306768452Y-70146188D02*
X306911309Y-70098569D01*
X306911309Y-70098569D02*
X307006547Y-70098569D01*
X307006547Y-70098569D02*
X307149404Y-70146188D01*
X307149404Y-70146188D02*
X307197023Y-70193807D01*
X307577976Y-70193807D02*
X307625595Y-70146188D01*
X307625595Y-70146188D02*
X307720833Y-70098569D01*
X307720833Y-70098569D02*
X307958928Y-70098569D01*
X307958928Y-70098569D02*
X308054166Y-70146188D01*
X308054166Y-70146188D02*
X308101785Y-70193807D01*
X308101785Y-70193807D02*
X308149404Y-70289045D01*
X308149404Y-70289045D02*
X308149404Y-70384283D01*
X308149404Y-70384283D02*
X308101785Y-70527140D01*
X308101785Y-70527140D02*
X307530357Y-71098569D01*
X307530357Y-71098569D02*
X308149404Y-71098569D01*
%TO.C,D47*%
X244136069Y-75581970D02*
X243136069Y-75581970D01*
X243136069Y-75581970D02*
X243136069Y-75343875D01*
X243136069Y-75343875D02*
X243183688Y-75201018D01*
X243183688Y-75201018D02*
X243278926Y-75105780D01*
X243278926Y-75105780D02*
X243374164Y-75058161D01*
X243374164Y-75058161D02*
X243564640Y-75010542D01*
X243564640Y-75010542D02*
X243707497Y-75010542D01*
X243707497Y-75010542D02*
X243897973Y-75058161D01*
X243897973Y-75058161D02*
X243993211Y-75105780D01*
X243993211Y-75105780D02*
X244088450Y-75201018D01*
X244088450Y-75201018D02*
X244136069Y-75343875D01*
X244136069Y-75343875D02*
X244136069Y-75581970D01*
X243469402Y-74153399D02*
X244136069Y-74153399D01*
X243088450Y-74391494D02*
X243802735Y-74629589D01*
X243802735Y-74629589D02*
X243802735Y-74010542D01*
X243136069Y-73724827D02*
X243136069Y-73058161D01*
X243136069Y-73058161D02*
X244136069Y-73486732D01*
%TO.C,D49*%
X252073569Y-75581970D02*
X251073569Y-75581970D01*
X251073569Y-75581970D02*
X251073569Y-75343875D01*
X251073569Y-75343875D02*
X251121188Y-75201018D01*
X251121188Y-75201018D02*
X251216426Y-75105780D01*
X251216426Y-75105780D02*
X251311664Y-75058161D01*
X251311664Y-75058161D02*
X251502140Y-75010542D01*
X251502140Y-75010542D02*
X251644997Y-75010542D01*
X251644997Y-75010542D02*
X251835473Y-75058161D01*
X251835473Y-75058161D02*
X251930711Y-75105780D01*
X251930711Y-75105780D02*
X252025950Y-75201018D01*
X252025950Y-75201018D02*
X252073569Y-75343875D01*
X252073569Y-75343875D02*
X252073569Y-75581970D01*
X251406902Y-74153399D02*
X252073569Y-74153399D01*
X251025950Y-74391494D02*
X251740235Y-74629589D01*
X251740235Y-74629589D02*
X251740235Y-74010542D01*
X252073569Y-73581970D02*
X252073569Y-73391494D01*
X252073569Y-73391494D02*
X252025950Y-73296256D01*
X252025950Y-73296256D02*
X251978330Y-73248637D01*
X251978330Y-73248637D02*
X251835473Y-73153399D01*
X251835473Y-73153399D02*
X251644997Y-73105780D01*
X251644997Y-73105780D02*
X251264045Y-73105780D01*
X251264045Y-73105780D02*
X251168807Y-73153399D01*
X251168807Y-73153399D02*
X251121188Y-73201018D01*
X251121188Y-73201018D02*
X251073569Y-73296256D01*
X251073569Y-73296256D02*
X251073569Y-73486732D01*
X251073569Y-73486732D02*
X251121188Y-73581970D01*
X251121188Y-73581970D02*
X251168807Y-73629589D01*
X251168807Y-73629589D02*
X251264045Y-73677208D01*
X251264045Y-73677208D02*
X251502140Y-73677208D01*
X251502140Y-73677208D02*
X251597378Y-73629589D01*
X251597378Y-73629589D02*
X251644997Y-73581970D01*
X251644997Y-73581970D02*
X251692616Y-73486732D01*
X251692616Y-73486732D02*
X251692616Y-73296256D01*
X251692616Y-73296256D02*
X251644997Y-73201018D01*
X251644997Y-73201018D02*
X251597378Y-73153399D01*
X251597378Y-73153399D02*
X251502140Y-73105780D01*
%TO.C,D24*%
X140154819Y-75581970D02*
X139154819Y-75581970D01*
X139154819Y-75581970D02*
X139154819Y-75343875D01*
X139154819Y-75343875D02*
X139202438Y-75201018D01*
X139202438Y-75201018D02*
X139297676Y-75105780D01*
X139297676Y-75105780D02*
X139392914Y-75058161D01*
X139392914Y-75058161D02*
X139583390Y-75010542D01*
X139583390Y-75010542D02*
X139726247Y-75010542D01*
X139726247Y-75010542D02*
X139916723Y-75058161D01*
X139916723Y-75058161D02*
X140011961Y-75105780D01*
X140011961Y-75105780D02*
X140107200Y-75201018D01*
X140107200Y-75201018D02*
X140154819Y-75343875D01*
X140154819Y-75343875D02*
X140154819Y-75581970D01*
X139250057Y-74629589D02*
X139202438Y-74581970D01*
X139202438Y-74581970D02*
X139154819Y-74486732D01*
X139154819Y-74486732D02*
X139154819Y-74248637D01*
X139154819Y-74248637D02*
X139202438Y-74153399D01*
X139202438Y-74153399D02*
X139250057Y-74105780D01*
X139250057Y-74105780D02*
X139345295Y-74058161D01*
X139345295Y-74058161D02*
X139440533Y-74058161D01*
X139440533Y-74058161D02*
X139583390Y-74105780D01*
X139583390Y-74105780D02*
X140154819Y-74677208D01*
X140154819Y-74677208D02*
X140154819Y-74058161D01*
X139488152Y-73201018D02*
X140154819Y-73201018D01*
X139107200Y-73439113D02*
X139821485Y-73677208D01*
X139821485Y-73677208D02*
X139821485Y-73058161D01*
%TO.C,D29*%
X157617319Y-75581970D02*
X156617319Y-75581970D01*
X156617319Y-75581970D02*
X156617319Y-75343875D01*
X156617319Y-75343875D02*
X156664938Y-75201018D01*
X156664938Y-75201018D02*
X156760176Y-75105780D01*
X156760176Y-75105780D02*
X156855414Y-75058161D01*
X156855414Y-75058161D02*
X157045890Y-75010542D01*
X157045890Y-75010542D02*
X157188747Y-75010542D01*
X157188747Y-75010542D02*
X157379223Y-75058161D01*
X157379223Y-75058161D02*
X157474461Y-75105780D01*
X157474461Y-75105780D02*
X157569700Y-75201018D01*
X157569700Y-75201018D02*
X157617319Y-75343875D01*
X157617319Y-75343875D02*
X157617319Y-75581970D01*
X156712557Y-74629589D02*
X156664938Y-74581970D01*
X156664938Y-74581970D02*
X156617319Y-74486732D01*
X156617319Y-74486732D02*
X156617319Y-74248637D01*
X156617319Y-74248637D02*
X156664938Y-74153399D01*
X156664938Y-74153399D02*
X156712557Y-74105780D01*
X156712557Y-74105780D02*
X156807795Y-74058161D01*
X156807795Y-74058161D02*
X156903033Y-74058161D01*
X156903033Y-74058161D02*
X157045890Y-74105780D01*
X157045890Y-74105780D02*
X157617319Y-74677208D01*
X157617319Y-74677208D02*
X157617319Y-74058161D01*
X157617319Y-73581970D02*
X157617319Y-73391494D01*
X157617319Y-73391494D02*
X157569700Y-73296256D01*
X157569700Y-73296256D02*
X157522080Y-73248637D01*
X157522080Y-73248637D02*
X157379223Y-73153399D01*
X157379223Y-73153399D02*
X157188747Y-73105780D01*
X157188747Y-73105780D02*
X156807795Y-73105780D01*
X156807795Y-73105780D02*
X156712557Y-73153399D01*
X156712557Y-73153399D02*
X156664938Y-73201018D01*
X156664938Y-73201018D02*
X156617319Y-73296256D01*
X156617319Y-73296256D02*
X156617319Y-73486732D01*
X156617319Y-73486732D02*
X156664938Y-73581970D01*
X156664938Y-73581970D02*
X156712557Y-73629589D01*
X156712557Y-73629589D02*
X156807795Y-73677208D01*
X156807795Y-73677208D02*
X157045890Y-73677208D01*
X157045890Y-73677208D02*
X157141128Y-73629589D01*
X157141128Y-73629589D02*
X157188747Y-73581970D01*
X157188747Y-73581970D02*
X157236366Y-73486732D01*
X157236366Y-73486732D02*
X157236366Y-73296256D01*
X157236366Y-73296256D02*
X157188747Y-73201018D01*
X157188747Y-73201018D02*
X157141128Y-73153399D01*
X157141128Y-73153399D02*
X157045890Y-73105780D01*
%TO.C,D28*%
X154442319Y-75581970D02*
X153442319Y-75581970D01*
X153442319Y-75581970D02*
X153442319Y-75343875D01*
X153442319Y-75343875D02*
X153489938Y-75201018D01*
X153489938Y-75201018D02*
X153585176Y-75105780D01*
X153585176Y-75105780D02*
X153680414Y-75058161D01*
X153680414Y-75058161D02*
X153870890Y-75010542D01*
X153870890Y-75010542D02*
X154013747Y-75010542D01*
X154013747Y-75010542D02*
X154204223Y-75058161D01*
X154204223Y-75058161D02*
X154299461Y-75105780D01*
X154299461Y-75105780D02*
X154394700Y-75201018D01*
X154394700Y-75201018D02*
X154442319Y-75343875D01*
X154442319Y-75343875D02*
X154442319Y-75581970D01*
X153537557Y-74629589D02*
X153489938Y-74581970D01*
X153489938Y-74581970D02*
X153442319Y-74486732D01*
X153442319Y-74486732D02*
X153442319Y-74248637D01*
X153442319Y-74248637D02*
X153489938Y-74153399D01*
X153489938Y-74153399D02*
X153537557Y-74105780D01*
X153537557Y-74105780D02*
X153632795Y-74058161D01*
X153632795Y-74058161D02*
X153728033Y-74058161D01*
X153728033Y-74058161D02*
X153870890Y-74105780D01*
X153870890Y-74105780D02*
X154442319Y-74677208D01*
X154442319Y-74677208D02*
X154442319Y-74058161D01*
X153870890Y-73486732D02*
X153823271Y-73581970D01*
X153823271Y-73581970D02*
X153775652Y-73629589D01*
X153775652Y-73629589D02*
X153680414Y-73677208D01*
X153680414Y-73677208D02*
X153632795Y-73677208D01*
X153632795Y-73677208D02*
X153537557Y-73629589D01*
X153537557Y-73629589D02*
X153489938Y-73581970D01*
X153489938Y-73581970D02*
X153442319Y-73486732D01*
X153442319Y-73486732D02*
X153442319Y-73296256D01*
X153442319Y-73296256D02*
X153489938Y-73201018D01*
X153489938Y-73201018D02*
X153537557Y-73153399D01*
X153537557Y-73153399D02*
X153632795Y-73105780D01*
X153632795Y-73105780D02*
X153680414Y-73105780D01*
X153680414Y-73105780D02*
X153775652Y-73153399D01*
X153775652Y-73153399D02*
X153823271Y-73201018D01*
X153823271Y-73201018D02*
X153870890Y-73296256D01*
X153870890Y-73296256D02*
X153870890Y-73486732D01*
X153870890Y-73486732D02*
X153918509Y-73581970D01*
X153918509Y-73581970D02*
X153966128Y-73629589D01*
X153966128Y-73629589D02*
X154061366Y-73677208D01*
X154061366Y-73677208D02*
X154251842Y-73677208D01*
X154251842Y-73677208D02*
X154347080Y-73629589D01*
X154347080Y-73629589D02*
X154394700Y-73581970D01*
X154394700Y-73581970D02*
X154442319Y-73486732D01*
X154442319Y-73486732D02*
X154442319Y-73296256D01*
X154442319Y-73296256D02*
X154394700Y-73201018D01*
X154394700Y-73201018D02*
X154347080Y-73153399D01*
X154347080Y-73153399D02*
X154251842Y-73105780D01*
X154251842Y-73105780D02*
X154061366Y-73105780D01*
X154061366Y-73105780D02*
X153966128Y-73153399D01*
X153966128Y-73153399D02*
X153918509Y-73201018D01*
X153918509Y-73201018D02*
X153870890Y-73296256D01*
%TO.C,D58*%
X297317319Y-75581970D02*
X296317319Y-75581970D01*
X296317319Y-75581970D02*
X296317319Y-75343875D01*
X296317319Y-75343875D02*
X296364938Y-75201018D01*
X296364938Y-75201018D02*
X296460176Y-75105780D01*
X296460176Y-75105780D02*
X296555414Y-75058161D01*
X296555414Y-75058161D02*
X296745890Y-75010542D01*
X296745890Y-75010542D02*
X296888747Y-75010542D01*
X296888747Y-75010542D02*
X297079223Y-75058161D01*
X297079223Y-75058161D02*
X297174461Y-75105780D01*
X297174461Y-75105780D02*
X297269700Y-75201018D01*
X297269700Y-75201018D02*
X297317319Y-75343875D01*
X297317319Y-75343875D02*
X297317319Y-75581970D01*
X296317319Y-74105780D02*
X296317319Y-74581970D01*
X296317319Y-74581970D02*
X296793509Y-74629589D01*
X296793509Y-74629589D02*
X296745890Y-74581970D01*
X296745890Y-74581970D02*
X296698271Y-74486732D01*
X296698271Y-74486732D02*
X296698271Y-74248637D01*
X296698271Y-74248637D02*
X296745890Y-74153399D01*
X296745890Y-74153399D02*
X296793509Y-74105780D01*
X296793509Y-74105780D02*
X296888747Y-74058161D01*
X296888747Y-74058161D02*
X297126842Y-74058161D01*
X297126842Y-74058161D02*
X297222080Y-74105780D01*
X297222080Y-74105780D02*
X297269700Y-74153399D01*
X297269700Y-74153399D02*
X297317319Y-74248637D01*
X297317319Y-74248637D02*
X297317319Y-74486732D01*
X297317319Y-74486732D02*
X297269700Y-74581970D01*
X297269700Y-74581970D02*
X297222080Y-74629589D01*
X296745890Y-73486732D02*
X296698271Y-73581970D01*
X296698271Y-73581970D02*
X296650652Y-73629589D01*
X296650652Y-73629589D02*
X296555414Y-73677208D01*
X296555414Y-73677208D02*
X296507795Y-73677208D01*
X296507795Y-73677208D02*
X296412557Y-73629589D01*
X296412557Y-73629589D02*
X296364938Y-73581970D01*
X296364938Y-73581970D02*
X296317319Y-73486732D01*
X296317319Y-73486732D02*
X296317319Y-73296256D01*
X296317319Y-73296256D02*
X296364938Y-73201018D01*
X296364938Y-73201018D02*
X296412557Y-73153399D01*
X296412557Y-73153399D02*
X296507795Y-73105780D01*
X296507795Y-73105780D02*
X296555414Y-73105780D01*
X296555414Y-73105780D02*
X296650652Y-73153399D01*
X296650652Y-73153399D02*
X296698271Y-73201018D01*
X296698271Y-73201018D02*
X296745890Y-73296256D01*
X296745890Y-73296256D02*
X296745890Y-73486732D01*
X296745890Y-73486732D02*
X296793509Y-73581970D01*
X296793509Y-73581970D02*
X296841128Y-73629589D01*
X296841128Y-73629589D02*
X296936366Y-73677208D01*
X296936366Y-73677208D02*
X297126842Y-73677208D01*
X297126842Y-73677208D02*
X297222080Y-73629589D01*
X297222080Y-73629589D02*
X297269700Y-73581970D01*
X297269700Y-73581970D02*
X297317319Y-73486732D01*
X297317319Y-73486732D02*
X297317319Y-73296256D01*
X297317319Y-73296256D02*
X297269700Y-73201018D01*
X297269700Y-73201018D02*
X297222080Y-73153399D01*
X297222080Y-73153399D02*
X297126842Y-73105780D01*
X297126842Y-73105780D02*
X296936366Y-73105780D01*
X296936366Y-73105780D02*
X296841128Y-73153399D01*
X296841128Y-73153399D02*
X296793509Y-73201018D01*
X296793509Y-73201018D02*
X296745890Y-73296256D01*
%TO.C,D14*%
X105229819Y-75581970D02*
X104229819Y-75581970D01*
X104229819Y-75581970D02*
X104229819Y-75343875D01*
X104229819Y-75343875D02*
X104277438Y-75201018D01*
X104277438Y-75201018D02*
X104372676Y-75105780D01*
X104372676Y-75105780D02*
X104467914Y-75058161D01*
X104467914Y-75058161D02*
X104658390Y-75010542D01*
X104658390Y-75010542D02*
X104801247Y-75010542D01*
X104801247Y-75010542D02*
X104991723Y-75058161D01*
X104991723Y-75058161D02*
X105086961Y-75105780D01*
X105086961Y-75105780D02*
X105182200Y-75201018D01*
X105182200Y-75201018D02*
X105229819Y-75343875D01*
X105229819Y-75343875D02*
X105229819Y-75581970D01*
X105229819Y-74058161D02*
X105229819Y-74629589D01*
X105229819Y-74343875D02*
X104229819Y-74343875D01*
X104229819Y-74343875D02*
X104372676Y-74439113D01*
X104372676Y-74439113D02*
X104467914Y-74534351D01*
X104467914Y-74534351D02*
X104515533Y-74629589D01*
X104563152Y-73201018D02*
X105229819Y-73201018D01*
X104182200Y-73439113D02*
X104896485Y-73677208D01*
X104896485Y-73677208D02*
X104896485Y-73058161D01*
%TO.C,D6*%
X76654819Y-75581970D02*
X75654819Y-75581970D01*
X75654819Y-75581970D02*
X75654819Y-75343875D01*
X75654819Y-75343875D02*
X75702438Y-75201018D01*
X75702438Y-75201018D02*
X75797676Y-75105780D01*
X75797676Y-75105780D02*
X75892914Y-75058161D01*
X75892914Y-75058161D02*
X76083390Y-75010542D01*
X76083390Y-75010542D02*
X76226247Y-75010542D01*
X76226247Y-75010542D02*
X76416723Y-75058161D01*
X76416723Y-75058161D02*
X76511961Y-75105780D01*
X76511961Y-75105780D02*
X76607200Y-75201018D01*
X76607200Y-75201018D02*
X76654819Y-75343875D01*
X76654819Y-75343875D02*
X76654819Y-75581970D01*
X75654819Y-74153399D02*
X75654819Y-74343875D01*
X75654819Y-74343875D02*
X75702438Y-74439113D01*
X75702438Y-74439113D02*
X75750057Y-74486732D01*
X75750057Y-74486732D02*
X75892914Y-74581970D01*
X75892914Y-74581970D02*
X76083390Y-74629589D01*
X76083390Y-74629589D02*
X76464342Y-74629589D01*
X76464342Y-74629589D02*
X76559580Y-74581970D01*
X76559580Y-74581970D02*
X76607200Y-74534351D01*
X76607200Y-74534351D02*
X76654819Y-74439113D01*
X76654819Y-74439113D02*
X76654819Y-74248637D01*
X76654819Y-74248637D02*
X76607200Y-74153399D01*
X76607200Y-74153399D02*
X76559580Y-74105780D01*
X76559580Y-74105780D02*
X76464342Y-74058161D01*
X76464342Y-74058161D02*
X76226247Y-74058161D01*
X76226247Y-74058161D02*
X76131009Y-74105780D01*
X76131009Y-74105780D02*
X76083390Y-74153399D01*
X76083390Y-74153399D02*
X76035771Y-74248637D01*
X76035771Y-74248637D02*
X76035771Y-74439113D01*
X76035771Y-74439113D02*
X76083390Y-74534351D01*
X76083390Y-74534351D02*
X76131009Y-74581970D01*
X76131009Y-74581970D02*
X76226247Y-74629589D01*
%TO.C,D34*%
X175079819Y-75581970D02*
X174079819Y-75581970D01*
X174079819Y-75581970D02*
X174079819Y-75343875D01*
X174079819Y-75343875D02*
X174127438Y-75201018D01*
X174127438Y-75201018D02*
X174222676Y-75105780D01*
X174222676Y-75105780D02*
X174317914Y-75058161D01*
X174317914Y-75058161D02*
X174508390Y-75010542D01*
X174508390Y-75010542D02*
X174651247Y-75010542D01*
X174651247Y-75010542D02*
X174841723Y-75058161D01*
X174841723Y-75058161D02*
X174936961Y-75105780D01*
X174936961Y-75105780D02*
X175032200Y-75201018D01*
X175032200Y-75201018D02*
X175079819Y-75343875D01*
X175079819Y-75343875D02*
X175079819Y-75581970D01*
X174079819Y-74677208D02*
X174079819Y-74058161D01*
X174079819Y-74058161D02*
X174460771Y-74391494D01*
X174460771Y-74391494D02*
X174460771Y-74248637D01*
X174460771Y-74248637D02*
X174508390Y-74153399D01*
X174508390Y-74153399D02*
X174556009Y-74105780D01*
X174556009Y-74105780D02*
X174651247Y-74058161D01*
X174651247Y-74058161D02*
X174889342Y-74058161D01*
X174889342Y-74058161D02*
X174984580Y-74105780D01*
X174984580Y-74105780D02*
X175032200Y-74153399D01*
X175032200Y-74153399D02*
X175079819Y-74248637D01*
X175079819Y-74248637D02*
X175079819Y-74534351D01*
X175079819Y-74534351D02*
X175032200Y-74629589D01*
X175032200Y-74629589D02*
X174984580Y-74677208D01*
X174413152Y-73201018D02*
X175079819Y-73201018D01*
X174032200Y-73439113D02*
X174746485Y-73677208D01*
X174746485Y-73677208D02*
X174746485Y-73058161D01*
%TO.C,D62*%
X268374279Y-66336069D02*
X268374279Y-65336069D01*
X268374279Y-65336069D02*
X268612374Y-65336069D01*
X268612374Y-65336069D02*
X268755231Y-65383688D01*
X268755231Y-65383688D02*
X268850469Y-65478926D01*
X268850469Y-65478926D02*
X268898088Y-65574164D01*
X268898088Y-65574164D02*
X268945707Y-65764640D01*
X268945707Y-65764640D02*
X268945707Y-65907497D01*
X268945707Y-65907497D02*
X268898088Y-66097973D01*
X268898088Y-66097973D02*
X268850469Y-66193211D01*
X268850469Y-66193211D02*
X268755231Y-66288450D01*
X268755231Y-66288450D02*
X268612374Y-66336069D01*
X268612374Y-66336069D02*
X268374279Y-66336069D01*
X269802850Y-65336069D02*
X269612374Y-65336069D01*
X269612374Y-65336069D02*
X269517136Y-65383688D01*
X269517136Y-65383688D02*
X269469517Y-65431307D01*
X269469517Y-65431307D02*
X269374279Y-65574164D01*
X269374279Y-65574164D02*
X269326660Y-65764640D01*
X269326660Y-65764640D02*
X269326660Y-66145592D01*
X269326660Y-66145592D02*
X269374279Y-66240830D01*
X269374279Y-66240830D02*
X269421898Y-66288450D01*
X269421898Y-66288450D02*
X269517136Y-66336069D01*
X269517136Y-66336069D02*
X269707612Y-66336069D01*
X269707612Y-66336069D02*
X269802850Y-66288450D01*
X269802850Y-66288450D02*
X269850469Y-66240830D01*
X269850469Y-66240830D02*
X269898088Y-66145592D01*
X269898088Y-66145592D02*
X269898088Y-65907497D01*
X269898088Y-65907497D02*
X269850469Y-65812259D01*
X269850469Y-65812259D02*
X269802850Y-65764640D01*
X269802850Y-65764640D02*
X269707612Y-65717021D01*
X269707612Y-65717021D02*
X269517136Y-65717021D01*
X269517136Y-65717021D02*
X269421898Y-65764640D01*
X269421898Y-65764640D02*
X269374279Y-65812259D01*
X269374279Y-65812259D02*
X269326660Y-65907497D01*
X270279041Y-65431307D02*
X270326660Y-65383688D01*
X270326660Y-65383688D02*
X270421898Y-65336069D01*
X270421898Y-65336069D02*
X270659993Y-65336069D01*
X270659993Y-65336069D02*
X270755231Y-65383688D01*
X270755231Y-65383688D02*
X270802850Y-65431307D01*
X270802850Y-65431307D02*
X270850469Y-65526545D01*
X270850469Y-65526545D02*
X270850469Y-65621783D01*
X270850469Y-65621783D02*
X270802850Y-65764640D01*
X270802850Y-65764640D02*
X270231422Y-66336069D01*
X270231422Y-66336069D02*
X270850469Y-66336069D01*
%TO.C,D20*%
X125867319Y-75581970D02*
X124867319Y-75581970D01*
X124867319Y-75581970D02*
X124867319Y-75343875D01*
X124867319Y-75343875D02*
X124914938Y-75201018D01*
X124914938Y-75201018D02*
X125010176Y-75105780D01*
X125010176Y-75105780D02*
X125105414Y-75058161D01*
X125105414Y-75058161D02*
X125295890Y-75010542D01*
X125295890Y-75010542D02*
X125438747Y-75010542D01*
X125438747Y-75010542D02*
X125629223Y-75058161D01*
X125629223Y-75058161D02*
X125724461Y-75105780D01*
X125724461Y-75105780D02*
X125819700Y-75201018D01*
X125819700Y-75201018D02*
X125867319Y-75343875D01*
X125867319Y-75343875D02*
X125867319Y-75581970D01*
X124962557Y-74629589D02*
X124914938Y-74581970D01*
X124914938Y-74581970D02*
X124867319Y-74486732D01*
X124867319Y-74486732D02*
X124867319Y-74248637D01*
X124867319Y-74248637D02*
X124914938Y-74153399D01*
X124914938Y-74153399D02*
X124962557Y-74105780D01*
X124962557Y-74105780D02*
X125057795Y-74058161D01*
X125057795Y-74058161D02*
X125153033Y-74058161D01*
X125153033Y-74058161D02*
X125295890Y-74105780D01*
X125295890Y-74105780D02*
X125867319Y-74677208D01*
X125867319Y-74677208D02*
X125867319Y-74058161D01*
X124867319Y-73439113D02*
X124867319Y-73343875D01*
X124867319Y-73343875D02*
X124914938Y-73248637D01*
X124914938Y-73248637D02*
X124962557Y-73201018D01*
X124962557Y-73201018D02*
X125057795Y-73153399D01*
X125057795Y-73153399D02*
X125248271Y-73105780D01*
X125248271Y-73105780D02*
X125486366Y-73105780D01*
X125486366Y-73105780D02*
X125676842Y-73153399D01*
X125676842Y-73153399D02*
X125772080Y-73201018D01*
X125772080Y-73201018D02*
X125819700Y-73248637D01*
X125819700Y-73248637D02*
X125867319Y-73343875D01*
X125867319Y-73343875D02*
X125867319Y-73439113D01*
X125867319Y-73439113D02*
X125819700Y-73534351D01*
X125819700Y-73534351D02*
X125772080Y-73581970D01*
X125772080Y-73581970D02*
X125676842Y-73629589D01*
X125676842Y-73629589D02*
X125486366Y-73677208D01*
X125486366Y-73677208D02*
X125248271Y-73677208D01*
X125248271Y-73677208D02*
X125057795Y-73629589D01*
X125057795Y-73629589D02*
X124962557Y-73581970D01*
X124962557Y-73581970D02*
X124914938Y-73534351D01*
X124914938Y-73534351D02*
X124867319Y-73439113D01*
%TO.C,D12*%
X97292319Y-75581970D02*
X96292319Y-75581970D01*
X96292319Y-75581970D02*
X96292319Y-75343875D01*
X96292319Y-75343875D02*
X96339938Y-75201018D01*
X96339938Y-75201018D02*
X96435176Y-75105780D01*
X96435176Y-75105780D02*
X96530414Y-75058161D01*
X96530414Y-75058161D02*
X96720890Y-75010542D01*
X96720890Y-75010542D02*
X96863747Y-75010542D01*
X96863747Y-75010542D02*
X97054223Y-75058161D01*
X97054223Y-75058161D02*
X97149461Y-75105780D01*
X97149461Y-75105780D02*
X97244700Y-75201018D01*
X97244700Y-75201018D02*
X97292319Y-75343875D01*
X97292319Y-75343875D02*
X97292319Y-75581970D01*
X97292319Y-74058161D02*
X97292319Y-74629589D01*
X97292319Y-74343875D02*
X96292319Y-74343875D01*
X96292319Y-74343875D02*
X96435176Y-74439113D01*
X96435176Y-74439113D02*
X96530414Y-74534351D01*
X96530414Y-74534351D02*
X96578033Y-74629589D01*
X96387557Y-73677208D02*
X96339938Y-73629589D01*
X96339938Y-73629589D02*
X96292319Y-73534351D01*
X96292319Y-73534351D02*
X96292319Y-73296256D01*
X96292319Y-73296256D02*
X96339938Y-73201018D01*
X96339938Y-73201018D02*
X96387557Y-73153399D01*
X96387557Y-73153399D02*
X96482795Y-73105780D01*
X96482795Y-73105780D02*
X96578033Y-73105780D01*
X96578033Y-73105780D02*
X96720890Y-73153399D01*
X96720890Y-73153399D02*
X97292319Y-73724827D01*
X97292319Y-73724827D02*
X97292319Y-73105780D01*
%TO.C,D35*%
X179842319Y-75581970D02*
X178842319Y-75581970D01*
X178842319Y-75581970D02*
X178842319Y-75343875D01*
X178842319Y-75343875D02*
X178889938Y-75201018D01*
X178889938Y-75201018D02*
X178985176Y-75105780D01*
X178985176Y-75105780D02*
X179080414Y-75058161D01*
X179080414Y-75058161D02*
X179270890Y-75010542D01*
X179270890Y-75010542D02*
X179413747Y-75010542D01*
X179413747Y-75010542D02*
X179604223Y-75058161D01*
X179604223Y-75058161D02*
X179699461Y-75105780D01*
X179699461Y-75105780D02*
X179794700Y-75201018D01*
X179794700Y-75201018D02*
X179842319Y-75343875D01*
X179842319Y-75343875D02*
X179842319Y-75581970D01*
X178842319Y-74677208D02*
X178842319Y-74058161D01*
X178842319Y-74058161D02*
X179223271Y-74391494D01*
X179223271Y-74391494D02*
X179223271Y-74248637D01*
X179223271Y-74248637D02*
X179270890Y-74153399D01*
X179270890Y-74153399D02*
X179318509Y-74105780D01*
X179318509Y-74105780D02*
X179413747Y-74058161D01*
X179413747Y-74058161D02*
X179651842Y-74058161D01*
X179651842Y-74058161D02*
X179747080Y-74105780D01*
X179747080Y-74105780D02*
X179794700Y-74153399D01*
X179794700Y-74153399D02*
X179842319Y-74248637D01*
X179842319Y-74248637D02*
X179842319Y-74534351D01*
X179842319Y-74534351D02*
X179794700Y-74629589D01*
X179794700Y-74629589D02*
X179747080Y-74677208D01*
X178842319Y-73153399D02*
X178842319Y-73629589D01*
X178842319Y-73629589D02*
X179318509Y-73677208D01*
X179318509Y-73677208D02*
X179270890Y-73629589D01*
X179270890Y-73629589D02*
X179223271Y-73534351D01*
X179223271Y-73534351D02*
X179223271Y-73296256D01*
X179223271Y-73296256D02*
X179270890Y-73201018D01*
X179270890Y-73201018D02*
X179318509Y-73153399D01*
X179318509Y-73153399D02*
X179413747Y-73105780D01*
X179413747Y-73105780D02*
X179651842Y-73105780D01*
X179651842Y-73105780D02*
X179747080Y-73153399D01*
X179747080Y-73153399D02*
X179794700Y-73201018D01*
X179794700Y-73201018D02*
X179842319Y-73296256D01*
X179842319Y-73296256D02*
X179842319Y-73534351D01*
X179842319Y-73534351D02*
X179794700Y-73629589D01*
X179794700Y-73629589D02*
X179747080Y-73677208D01*
%TO.C,D16*%
X111579819Y-75581970D02*
X110579819Y-75581970D01*
X110579819Y-75581970D02*
X110579819Y-75343875D01*
X110579819Y-75343875D02*
X110627438Y-75201018D01*
X110627438Y-75201018D02*
X110722676Y-75105780D01*
X110722676Y-75105780D02*
X110817914Y-75058161D01*
X110817914Y-75058161D02*
X111008390Y-75010542D01*
X111008390Y-75010542D02*
X111151247Y-75010542D01*
X111151247Y-75010542D02*
X111341723Y-75058161D01*
X111341723Y-75058161D02*
X111436961Y-75105780D01*
X111436961Y-75105780D02*
X111532200Y-75201018D01*
X111532200Y-75201018D02*
X111579819Y-75343875D01*
X111579819Y-75343875D02*
X111579819Y-75581970D01*
X111579819Y-74058161D02*
X111579819Y-74629589D01*
X111579819Y-74343875D02*
X110579819Y-74343875D01*
X110579819Y-74343875D02*
X110722676Y-74439113D01*
X110722676Y-74439113D02*
X110817914Y-74534351D01*
X110817914Y-74534351D02*
X110865533Y-74629589D01*
X110579819Y-73201018D02*
X110579819Y-73391494D01*
X110579819Y-73391494D02*
X110627438Y-73486732D01*
X110627438Y-73486732D02*
X110675057Y-73534351D01*
X110675057Y-73534351D02*
X110817914Y-73629589D01*
X110817914Y-73629589D02*
X111008390Y-73677208D01*
X111008390Y-73677208D02*
X111389342Y-73677208D01*
X111389342Y-73677208D02*
X111484580Y-73629589D01*
X111484580Y-73629589D02*
X111532200Y-73581970D01*
X111532200Y-73581970D02*
X111579819Y-73486732D01*
X111579819Y-73486732D02*
X111579819Y-73296256D01*
X111579819Y-73296256D02*
X111532200Y-73201018D01*
X111532200Y-73201018D02*
X111484580Y-73153399D01*
X111484580Y-73153399D02*
X111389342Y-73105780D01*
X111389342Y-73105780D02*
X111151247Y-73105780D01*
X111151247Y-73105780D02*
X111056009Y-73153399D01*
X111056009Y-73153399D02*
X111008390Y-73201018D01*
X111008390Y-73201018D02*
X110960771Y-73296256D01*
X110960771Y-73296256D02*
X110960771Y-73486732D01*
X110960771Y-73486732D02*
X111008390Y-73581970D01*
X111008390Y-73581970D02*
X111056009Y-73629589D01*
X111056009Y-73629589D02*
X111151247Y-73677208D01*
%TO.C,D5*%
X71892319Y-75581970D02*
X70892319Y-75581970D01*
X70892319Y-75581970D02*
X70892319Y-75343875D01*
X70892319Y-75343875D02*
X70939938Y-75201018D01*
X70939938Y-75201018D02*
X71035176Y-75105780D01*
X71035176Y-75105780D02*
X71130414Y-75058161D01*
X71130414Y-75058161D02*
X71320890Y-75010542D01*
X71320890Y-75010542D02*
X71463747Y-75010542D01*
X71463747Y-75010542D02*
X71654223Y-75058161D01*
X71654223Y-75058161D02*
X71749461Y-75105780D01*
X71749461Y-75105780D02*
X71844700Y-75201018D01*
X71844700Y-75201018D02*
X71892319Y-75343875D01*
X71892319Y-75343875D02*
X71892319Y-75581970D01*
X70892319Y-74105780D02*
X70892319Y-74581970D01*
X70892319Y-74581970D02*
X71368509Y-74629589D01*
X71368509Y-74629589D02*
X71320890Y-74581970D01*
X71320890Y-74581970D02*
X71273271Y-74486732D01*
X71273271Y-74486732D02*
X71273271Y-74248637D01*
X71273271Y-74248637D02*
X71320890Y-74153399D01*
X71320890Y-74153399D02*
X71368509Y-74105780D01*
X71368509Y-74105780D02*
X71463747Y-74058161D01*
X71463747Y-74058161D02*
X71701842Y-74058161D01*
X71701842Y-74058161D02*
X71797080Y-74105780D01*
X71797080Y-74105780D02*
X71844700Y-74153399D01*
X71844700Y-74153399D02*
X71892319Y-74248637D01*
X71892319Y-74248637D02*
X71892319Y-74486732D01*
X71892319Y-74486732D02*
X71844700Y-74581970D01*
X71844700Y-74581970D02*
X71797080Y-74629589D01*
%TO.C,D61*%
X322717319Y-75581970D02*
X321717319Y-75581970D01*
X321717319Y-75581970D02*
X321717319Y-75343875D01*
X321717319Y-75343875D02*
X321764938Y-75201018D01*
X321764938Y-75201018D02*
X321860176Y-75105780D01*
X321860176Y-75105780D02*
X321955414Y-75058161D01*
X321955414Y-75058161D02*
X322145890Y-75010542D01*
X322145890Y-75010542D02*
X322288747Y-75010542D01*
X322288747Y-75010542D02*
X322479223Y-75058161D01*
X322479223Y-75058161D02*
X322574461Y-75105780D01*
X322574461Y-75105780D02*
X322669700Y-75201018D01*
X322669700Y-75201018D02*
X322717319Y-75343875D01*
X322717319Y-75343875D02*
X322717319Y-75581970D01*
X321717319Y-74153399D02*
X321717319Y-74343875D01*
X321717319Y-74343875D02*
X321764938Y-74439113D01*
X321764938Y-74439113D02*
X321812557Y-74486732D01*
X321812557Y-74486732D02*
X321955414Y-74581970D01*
X321955414Y-74581970D02*
X322145890Y-74629589D01*
X322145890Y-74629589D02*
X322526842Y-74629589D01*
X322526842Y-74629589D02*
X322622080Y-74581970D01*
X322622080Y-74581970D02*
X322669700Y-74534351D01*
X322669700Y-74534351D02*
X322717319Y-74439113D01*
X322717319Y-74439113D02*
X322717319Y-74248637D01*
X322717319Y-74248637D02*
X322669700Y-74153399D01*
X322669700Y-74153399D02*
X322622080Y-74105780D01*
X322622080Y-74105780D02*
X322526842Y-74058161D01*
X322526842Y-74058161D02*
X322288747Y-74058161D01*
X322288747Y-74058161D02*
X322193509Y-74105780D01*
X322193509Y-74105780D02*
X322145890Y-74153399D01*
X322145890Y-74153399D02*
X322098271Y-74248637D01*
X322098271Y-74248637D02*
X322098271Y-74439113D01*
X322098271Y-74439113D02*
X322145890Y-74534351D01*
X322145890Y-74534351D02*
X322193509Y-74581970D01*
X322193509Y-74581970D02*
X322288747Y-74629589D01*
X322717319Y-73105780D02*
X322717319Y-73677208D01*
X322717319Y-73391494D02*
X321717319Y-73391494D01*
X321717319Y-73391494D02*
X321860176Y-73486732D01*
X321860176Y-73486732D02*
X321955414Y-73581970D01*
X321955414Y-73581970D02*
X322003033Y-73677208D01*
%TO.C,D51*%
X258423569Y-75581970D02*
X257423569Y-75581970D01*
X257423569Y-75581970D02*
X257423569Y-75343875D01*
X257423569Y-75343875D02*
X257471188Y-75201018D01*
X257471188Y-75201018D02*
X257566426Y-75105780D01*
X257566426Y-75105780D02*
X257661664Y-75058161D01*
X257661664Y-75058161D02*
X257852140Y-75010542D01*
X257852140Y-75010542D02*
X257994997Y-75010542D01*
X257994997Y-75010542D02*
X258185473Y-75058161D01*
X258185473Y-75058161D02*
X258280711Y-75105780D01*
X258280711Y-75105780D02*
X258375950Y-75201018D01*
X258375950Y-75201018D02*
X258423569Y-75343875D01*
X258423569Y-75343875D02*
X258423569Y-75581970D01*
X257423569Y-74105780D02*
X257423569Y-74581970D01*
X257423569Y-74581970D02*
X257899759Y-74629589D01*
X257899759Y-74629589D02*
X257852140Y-74581970D01*
X257852140Y-74581970D02*
X257804521Y-74486732D01*
X257804521Y-74486732D02*
X257804521Y-74248637D01*
X257804521Y-74248637D02*
X257852140Y-74153399D01*
X257852140Y-74153399D02*
X257899759Y-74105780D01*
X257899759Y-74105780D02*
X257994997Y-74058161D01*
X257994997Y-74058161D02*
X258233092Y-74058161D01*
X258233092Y-74058161D02*
X258328330Y-74105780D01*
X258328330Y-74105780D02*
X258375950Y-74153399D01*
X258375950Y-74153399D02*
X258423569Y-74248637D01*
X258423569Y-74248637D02*
X258423569Y-74486732D01*
X258423569Y-74486732D02*
X258375950Y-74581970D01*
X258375950Y-74581970D02*
X258328330Y-74629589D01*
X258423569Y-73105780D02*
X258423569Y-73677208D01*
X258423569Y-73391494D02*
X257423569Y-73391494D01*
X257423569Y-73391494D02*
X257566426Y-73486732D01*
X257566426Y-73486732D02*
X257661664Y-73581970D01*
X257661664Y-73581970D02*
X257709283Y-73677208D01*
%TO.C,D55*%
X272711069Y-75581970D02*
X271711069Y-75581970D01*
X271711069Y-75581970D02*
X271711069Y-75343875D01*
X271711069Y-75343875D02*
X271758688Y-75201018D01*
X271758688Y-75201018D02*
X271853926Y-75105780D01*
X271853926Y-75105780D02*
X271949164Y-75058161D01*
X271949164Y-75058161D02*
X272139640Y-75010542D01*
X272139640Y-75010542D02*
X272282497Y-75010542D01*
X272282497Y-75010542D02*
X272472973Y-75058161D01*
X272472973Y-75058161D02*
X272568211Y-75105780D01*
X272568211Y-75105780D02*
X272663450Y-75201018D01*
X272663450Y-75201018D02*
X272711069Y-75343875D01*
X272711069Y-75343875D02*
X272711069Y-75581970D01*
X271711069Y-74105780D02*
X271711069Y-74581970D01*
X271711069Y-74581970D02*
X272187259Y-74629589D01*
X272187259Y-74629589D02*
X272139640Y-74581970D01*
X272139640Y-74581970D02*
X272092021Y-74486732D01*
X272092021Y-74486732D02*
X272092021Y-74248637D01*
X272092021Y-74248637D02*
X272139640Y-74153399D01*
X272139640Y-74153399D02*
X272187259Y-74105780D01*
X272187259Y-74105780D02*
X272282497Y-74058161D01*
X272282497Y-74058161D02*
X272520592Y-74058161D01*
X272520592Y-74058161D02*
X272615830Y-74105780D01*
X272615830Y-74105780D02*
X272663450Y-74153399D01*
X272663450Y-74153399D02*
X272711069Y-74248637D01*
X272711069Y-74248637D02*
X272711069Y-74486732D01*
X272711069Y-74486732D02*
X272663450Y-74581970D01*
X272663450Y-74581970D02*
X272615830Y-74629589D01*
X271711069Y-73153399D02*
X271711069Y-73629589D01*
X271711069Y-73629589D02*
X272187259Y-73677208D01*
X272187259Y-73677208D02*
X272139640Y-73629589D01*
X272139640Y-73629589D02*
X272092021Y-73534351D01*
X272092021Y-73534351D02*
X272092021Y-73296256D01*
X272092021Y-73296256D02*
X272139640Y-73201018D01*
X272139640Y-73201018D02*
X272187259Y-73153399D01*
X272187259Y-73153399D02*
X272282497Y-73105780D01*
X272282497Y-73105780D02*
X272520592Y-73105780D01*
X272520592Y-73105780D02*
X272615830Y-73153399D01*
X272615830Y-73153399D02*
X272663450Y-73201018D01*
X272663450Y-73201018D02*
X272711069Y-73296256D01*
X272711069Y-73296256D02*
X272711069Y-73534351D01*
X272711069Y-73534351D02*
X272663450Y-73629589D01*
X272663450Y-73629589D02*
X272615830Y-73677208D01*
%TO.C,D54*%
X269536069Y-75581970D02*
X268536069Y-75581970D01*
X268536069Y-75581970D02*
X268536069Y-75343875D01*
X268536069Y-75343875D02*
X268583688Y-75201018D01*
X268583688Y-75201018D02*
X268678926Y-75105780D01*
X268678926Y-75105780D02*
X268774164Y-75058161D01*
X268774164Y-75058161D02*
X268964640Y-75010542D01*
X268964640Y-75010542D02*
X269107497Y-75010542D01*
X269107497Y-75010542D02*
X269297973Y-75058161D01*
X269297973Y-75058161D02*
X269393211Y-75105780D01*
X269393211Y-75105780D02*
X269488450Y-75201018D01*
X269488450Y-75201018D02*
X269536069Y-75343875D01*
X269536069Y-75343875D02*
X269536069Y-75581970D01*
X268536069Y-74105780D02*
X268536069Y-74581970D01*
X268536069Y-74581970D02*
X269012259Y-74629589D01*
X269012259Y-74629589D02*
X268964640Y-74581970D01*
X268964640Y-74581970D02*
X268917021Y-74486732D01*
X268917021Y-74486732D02*
X268917021Y-74248637D01*
X268917021Y-74248637D02*
X268964640Y-74153399D01*
X268964640Y-74153399D02*
X269012259Y-74105780D01*
X269012259Y-74105780D02*
X269107497Y-74058161D01*
X269107497Y-74058161D02*
X269345592Y-74058161D01*
X269345592Y-74058161D02*
X269440830Y-74105780D01*
X269440830Y-74105780D02*
X269488450Y-74153399D01*
X269488450Y-74153399D02*
X269536069Y-74248637D01*
X269536069Y-74248637D02*
X269536069Y-74486732D01*
X269536069Y-74486732D02*
X269488450Y-74581970D01*
X269488450Y-74581970D02*
X269440830Y-74629589D01*
X268869402Y-73201018D02*
X269536069Y-73201018D01*
X268488450Y-73439113D02*
X269202735Y-73677208D01*
X269202735Y-73677208D02*
X269202735Y-73058161D01*
%TO.C,D21*%
X129042319Y-75581970D02*
X128042319Y-75581970D01*
X128042319Y-75581970D02*
X128042319Y-75343875D01*
X128042319Y-75343875D02*
X128089938Y-75201018D01*
X128089938Y-75201018D02*
X128185176Y-75105780D01*
X128185176Y-75105780D02*
X128280414Y-75058161D01*
X128280414Y-75058161D02*
X128470890Y-75010542D01*
X128470890Y-75010542D02*
X128613747Y-75010542D01*
X128613747Y-75010542D02*
X128804223Y-75058161D01*
X128804223Y-75058161D02*
X128899461Y-75105780D01*
X128899461Y-75105780D02*
X128994700Y-75201018D01*
X128994700Y-75201018D02*
X129042319Y-75343875D01*
X129042319Y-75343875D02*
X129042319Y-75581970D01*
X128137557Y-74629589D02*
X128089938Y-74581970D01*
X128089938Y-74581970D02*
X128042319Y-74486732D01*
X128042319Y-74486732D02*
X128042319Y-74248637D01*
X128042319Y-74248637D02*
X128089938Y-74153399D01*
X128089938Y-74153399D02*
X128137557Y-74105780D01*
X128137557Y-74105780D02*
X128232795Y-74058161D01*
X128232795Y-74058161D02*
X128328033Y-74058161D01*
X128328033Y-74058161D02*
X128470890Y-74105780D01*
X128470890Y-74105780D02*
X129042319Y-74677208D01*
X129042319Y-74677208D02*
X129042319Y-74058161D01*
X129042319Y-73105780D02*
X129042319Y-73677208D01*
X129042319Y-73391494D02*
X128042319Y-73391494D01*
X128042319Y-73391494D02*
X128185176Y-73486732D01*
X128185176Y-73486732D02*
X128280414Y-73581970D01*
X128280414Y-73581970D02*
X128328033Y-73677208D01*
%TO.C,D59*%
X316367319Y-75581970D02*
X315367319Y-75581970D01*
X315367319Y-75581970D02*
X315367319Y-75343875D01*
X315367319Y-75343875D02*
X315414938Y-75201018D01*
X315414938Y-75201018D02*
X315510176Y-75105780D01*
X315510176Y-75105780D02*
X315605414Y-75058161D01*
X315605414Y-75058161D02*
X315795890Y-75010542D01*
X315795890Y-75010542D02*
X315938747Y-75010542D01*
X315938747Y-75010542D02*
X316129223Y-75058161D01*
X316129223Y-75058161D02*
X316224461Y-75105780D01*
X316224461Y-75105780D02*
X316319700Y-75201018D01*
X316319700Y-75201018D02*
X316367319Y-75343875D01*
X316367319Y-75343875D02*
X316367319Y-75581970D01*
X315367319Y-74105780D02*
X315367319Y-74581970D01*
X315367319Y-74581970D02*
X315843509Y-74629589D01*
X315843509Y-74629589D02*
X315795890Y-74581970D01*
X315795890Y-74581970D02*
X315748271Y-74486732D01*
X315748271Y-74486732D02*
X315748271Y-74248637D01*
X315748271Y-74248637D02*
X315795890Y-74153399D01*
X315795890Y-74153399D02*
X315843509Y-74105780D01*
X315843509Y-74105780D02*
X315938747Y-74058161D01*
X315938747Y-74058161D02*
X316176842Y-74058161D01*
X316176842Y-74058161D02*
X316272080Y-74105780D01*
X316272080Y-74105780D02*
X316319700Y-74153399D01*
X316319700Y-74153399D02*
X316367319Y-74248637D01*
X316367319Y-74248637D02*
X316367319Y-74486732D01*
X316367319Y-74486732D02*
X316319700Y-74581970D01*
X316319700Y-74581970D02*
X316272080Y-74629589D01*
X316367319Y-73581970D02*
X316367319Y-73391494D01*
X316367319Y-73391494D02*
X316319700Y-73296256D01*
X316319700Y-73296256D02*
X316272080Y-73248637D01*
X316272080Y-73248637D02*
X316129223Y-73153399D01*
X316129223Y-73153399D02*
X315938747Y-73105780D01*
X315938747Y-73105780D02*
X315557795Y-73105780D01*
X315557795Y-73105780D02*
X315462557Y-73153399D01*
X315462557Y-73153399D02*
X315414938Y-73201018D01*
X315414938Y-73201018D02*
X315367319Y-73296256D01*
X315367319Y-73296256D02*
X315367319Y-73486732D01*
X315367319Y-73486732D02*
X315414938Y-73581970D01*
X315414938Y-73581970D02*
X315462557Y-73629589D01*
X315462557Y-73629589D02*
X315557795Y-73677208D01*
X315557795Y-73677208D02*
X315795890Y-73677208D01*
X315795890Y-73677208D02*
X315891128Y-73629589D01*
X315891128Y-73629589D02*
X315938747Y-73581970D01*
X315938747Y-73581970D02*
X315986366Y-73486732D01*
X315986366Y-73486732D02*
X315986366Y-73296256D01*
X315986366Y-73296256D02*
X315938747Y-73201018D01*
X315938747Y-73201018D02*
X315891128Y-73153399D01*
X315891128Y-73153399D02*
X315795890Y-73105780D01*
%TO.C,D27*%
X151267319Y-75581970D02*
X150267319Y-75581970D01*
X150267319Y-75581970D02*
X150267319Y-75343875D01*
X150267319Y-75343875D02*
X150314938Y-75201018D01*
X150314938Y-75201018D02*
X150410176Y-75105780D01*
X150410176Y-75105780D02*
X150505414Y-75058161D01*
X150505414Y-75058161D02*
X150695890Y-75010542D01*
X150695890Y-75010542D02*
X150838747Y-75010542D01*
X150838747Y-75010542D02*
X151029223Y-75058161D01*
X151029223Y-75058161D02*
X151124461Y-75105780D01*
X151124461Y-75105780D02*
X151219700Y-75201018D01*
X151219700Y-75201018D02*
X151267319Y-75343875D01*
X151267319Y-75343875D02*
X151267319Y-75581970D01*
X150362557Y-74629589D02*
X150314938Y-74581970D01*
X150314938Y-74581970D02*
X150267319Y-74486732D01*
X150267319Y-74486732D02*
X150267319Y-74248637D01*
X150267319Y-74248637D02*
X150314938Y-74153399D01*
X150314938Y-74153399D02*
X150362557Y-74105780D01*
X150362557Y-74105780D02*
X150457795Y-74058161D01*
X150457795Y-74058161D02*
X150553033Y-74058161D01*
X150553033Y-74058161D02*
X150695890Y-74105780D01*
X150695890Y-74105780D02*
X151267319Y-74677208D01*
X151267319Y-74677208D02*
X151267319Y-74058161D01*
X150267319Y-73724827D02*
X150267319Y-73058161D01*
X150267319Y-73058161D02*
X151267319Y-73486732D01*
%TO.C,D50*%
X255248569Y-75581970D02*
X254248569Y-75581970D01*
X254248569Y-75581970D02*
X254248569Y-75343875D01*
X254248569Y-75343875D02*
X254296188Y-75201018D01*
X254296188Y-75201018D02*
X254391426Y-75105780D01*
X254391426Y-75105780D02*
X254486664Y-75058161D01*
X254486664Y-75058161D02*
X254677140Y-75010542D01*
X254677140Y-75010542D02*
X254819997Y-75010542D01*
X254819997Y-75010542D02*
X255010473Y-75058161D01*
X255010473Y-75058161D02*
X255105711Y-75105780D01*
X255105711Y-75105780D02*
X255200950Y-75201018D01*
X255200950Y-75201018D02*
X255248569Y-75343875D01*
X255248569Y-75343875D02*
X255248569Y-75581970D01*
X254248569Y-74105780D02*
X254248569Y-74581970D01*
X254248569Y-74581970D02*
X254724759Y-74629589D01*
X254724759Y-74629589D02*
X254677140Y-74581970D01*
X254677140Y-74581970D02*
X254629521Y-74486732D01*
X254629521Y-74486732D02*
X254629521Y-74248637D01*
X254629521Y-74248637D02*
X254677140Y-74153399D01*
X254677140Y-74153399D02*
X254724759Y-74105780D01*
X254724759Y-74105780D02*
X254819997Y-74058161D01*
X254819997Y-74058161D02*
X255058092Y-74058161D01*
X255058092Y-74058161D02*
X255153330Y-74105780D01*
X255153330Y-74105780D02*
X255200950Y-74153399D01*
X255200950Y-74153399D02*
X255248569Y-74248637D01*
X255248569Y-74248637D02*
X255248569Y-74486732D01*
X255248569Y-74486732D02*
X255200950Y-74581970D01*
X255200950Y-74581970D02*
X255153330Y-74629589D01*
X254248569Y-73439113D02*
X254248569Y-73343875D01*
X254248569Y-73343875D02*
X254296188Y-73248637D01*
X254296188Y-73248637D02*
X254343807Y-73201018D01*
X254343807Y-73201018D02*
X254439045Y-73153399D01*
X254439045Y-73153399D02*
X254629521Y-73105780D01*
X254629521Y-73105780D02*
X254867616Y-73105780D01*
X254867616Y-73105780D02*
X255058092Y-73153399D01*
X255058092Y-73153399D02*
X255153330Y-73201018D01*
X255153330Y-73201018D02*
X255200950Y-73248637D01*
X255200950Y-73248637D02*
X255248569Y-73343875D01*
X255248569Y-73343875D02*
X255248569Y-73439113D01*
X255248569Y-73439113D02*
X255200950Y-73534351D01*
X255200950Y-73534351D02*
X255153330Y-73581970D01*
X255153330Y-73581970D02*
X255058092Y-73629589D01*
X255058092Y-73629589D02*
X254867616Y-73677208D01*
X254867616Y-73677208D02*
X254629521Y-73677208D01*
X254629521Y-73677208D02*
X254439045Y-73629589D01*
X254439045Y-73629589D02*
X254343807Y-73581970D01*
X254343807Y-73581970D02*
X254296188Y-73534351D01*
X254296188Y-73534351D02*
X254248569Y-73439113D01*
%TO.C,D57*%
X294142319Y-75581970D02*
X293142319Y-75581970D01*
X293142319Y-75581970D02*
X293142319Y-75343875D01*
X293142319Y-75343875D02*
X293189938Y-75201018D01*
X293189938Y-75201018D02*
X293285176Y-75105780D01*
X293285176Y-75105780D02*
X293380414Y-75058161D01*
X293380414Y-75058161D02*
X293570890Y-75010542D01*
X293570890Y-75010542D02*
X293713747Y-75010542D01*
X293713747Y-75010542D02*
X293904223Y-75058161D01*
X293904223Y-75058161D02*
X293999461Y-75105780D01*
X293999461Y-75105780D02*
X294094700Y-75201018D01*
X294094700Y-75201018D02*
X294142319Y-75343875D01*
X294142319Y-75343875D02*
X294142319Y-75581970D01*
X293142319Y-74105780D02*
X293142319Y-74581970D01*
X293142319Y-74581970D02*
X293618509Y-74629589D01*
X293618509Y-74629589D02*
X293570890Y-74581970D01*
X293570890Y-74581970D02*
X293523271Y-74486732D01*
X293523271Y-74486732D02*
X293523271Y-74248637D01*
X293523271Y-74248637D02*
X293570890Y-74153399D01*
X293570890Y-74153399D02*
X293618509Y-74105780D01*
X293618509Y-74105780D02*
X293713747Y-74058161D01*
X293713747Y-74058161D02*
X293951842Y-74058161D01*
X293951842Y-74058161D02*
X294047080Y-74105780D01*
X294047080Y-74105780D02*
X294094700Y-74153399D01*
X294094700Y-74153399D02*
X294142319Y-74248637D01*
X294142319Y-74248637D02*
X294142319Y-74486732D01*
X294142319Y-74486732D02*
X294094700Y-74581970D01*
X294094700Y-74581970D02*
X294047080Y-74629589D01*
X293142319Y-73724827D02*
X293142319Y-73058161D01*
X293142319Y-73058161D02*
X294142319Y-73486732D01*
%TO.C,D4*%
X68717319Y-75581970D02*
X67717319Y-75581970D01*
X67717319Y-75581970D02*
X67717319Y-75343875D01*
X67717319Y-75343875D02*
X67764938Y-75201018D01*
X67764938Y-75201018D02*
X67860176Y-75105780D01*
X67860176Y-75105780D02*
X67955414Y-75058161D01*
X67955414Y-75058161D02*
X68145890Y-75010542D01*
X68145890Y-75010542D02*
X68288747Y-75010542D01*
X68288747Y-75010542D02*
X68479223Y-75058161D01*
X68479223Y-75058161D02*
X68574461Y-75105780D01*
X68574461Y-75105780D02*
X68669700Y-75201018D01*
X68669700Y-75201018D02*
X68717319Y-75343875D01*
X68717319Y-75343875D02*
X68717319Y-75581970D01*
X68050652Y-74153399D02*
X68717319Y-74153399D01*
X67669700Y-74391494D02*
X68383985Y-74629589D01*
X68383985Y-74629589D02*
X68383985Y-74010542D01*
%TO.C,D9*%
X87767319Y-75581970D02*
X86767319Y-75581970D01*
X86767319Y-75581970D02*
X86767319Y-75343875D01*
X86767319Y-75343875D02*
X86814938Y-75201018D01*
X86814938Y-75201018D02*
X86910176Y-75105780D01*
X86910176Y-75105780D02*
X87005414Y-75058161D01*
X87005414Y-75058161D02*
X87195890Y-75010542D01*
X87195890Y-75010542D02*
X87338747Y-75010542D01*
X87338747Y-75010542D02*
X87529223Y-75058161D01*
X87529223Y-75058161D02*
X87624461Y-75105780D01*
X87624461Y-75105780D02*
X87719700Y-75201018D01*
X87719700Y-75201018D02*
X87767319Y-75343875D01*
X87767319Y-75343875D02*
X87767319Y-75581970D01*
X87767319Y-74534351D02*
X87767319Y-74343875D01*
X87767319Y-74343875D02*
X87719700Y-74248637D01*
X87719700Y-74248637D02*
X87672080Y-74201018D01*
X87672080Y-74201018D02*
X87529223Y-74105780D01*
X87529223Y-74105780D02*
X87338747Y-74058161D01*
X87338747Y-74058161D02*
X86957795Y-74058161D01*
X86957795Y-74058161D02*
X86862557Y-74105780D01*
X86862557Y-74105780D02*
X86814938Y-74153399D01*
X86814938Y-74153399D02*
X86767319Y-74248637D01*
X86767319Y-74248637D02*
X86767319Y-74439113D01*
X86767319Y-74439113D02*
X86814938Y-74534351D01*
X86814938Y-74534351D02*
X86862557Y-74581970D01*
X86862557Y-74581970D02*
X86957795Y-74629589D01*
X86957795Y-74629589D02*
X87195890Y-74629589D01*
X87195890Y-74629589D02*
X87291128Y-74581970D01*
X87291128Y-74581970D02*
X87338747Y-74534351D01*
X87338747Y-74534351D02*
X87386366Y-74439113D01*
X87386366Y-74439113D02*
X87386366Y-74248637D01*
X87386366Y-74248637D02*
X87338747Y-74153399D01*
X87338747Y-74153399D02*
X87291128Y-74105780D01*
X87291128Y-74105780D02*
X87195890Y-74058161D01*
%TO.C,D7*%
X79829819Y-75581970D02*
X78829819Y-75581970D01*
X78829819Y-75581970D02*
X78829819Y-75343875D01*
X78829819Y-75343875D02*
X78877438Y-75201018D01*
X78877438Y-75201018D02*
X78972676Y-75105780D01*
X78972676Y-75105780D02*
X79067914Y-75058161D01*
X79067914Y-75058161D02*
X79258390Y-75010542D01*
X79258390Y-75010542D02*
X79401247Y-75010542D01*
X79401247Y-75010542D02*
X79591723Y-75058161D01*
X79591723Y-75058161D02*
X79686961Y-75105780D01*
X79686961Y-75105780D02*
X79782200Y-75201018D01*
X79782200Y-75201018D02*
X79829819Y-75343875D01*
X79829819Y-75343875D02*
X79829819Y-75581970D01*
X78829819Y-74677208D02*
X78829819Y-74010542D01*
X78829819Y-74010542D02*
X79829819Y-74439113D01*
%TO.C,D63*%
X292186779Y-66336069D02*
X292186779Y-65336069D01*
X292186779Y-65336069D02*
X292424874Y-65336069D01*
X292424874Y-65336069D02*
X292567731Y-65383688D01*
X292567731Y-65383688D02*
X292662969Y-65478926D01*
X292662969Y-65478926D02*
X292710588Y-65574164D01*
X292710588Y-65574164D02*
X292758207Y-65764640D01*
X292758207Y-65764640D02*
X292758207Y-65907497D01*
X292758207Y-65907497D02*
X292710588Y-66097973D01*
X292710588Y-66097973D02*
X292662969Y-66193211D01*
X292662969Y-66193211D02*
X292567731Y-66288450D01*
X292567731Y-66288450D02*
X292424874Y-66336069D01*
X292424874Y-66336069D02*
X292186779Y-66336069D01*
X293615350Y-65336069D02*
X293424874Y-65336069D01*
X293424874Y-65336069D02*
X293329636Y-65383688D01*
X293329636Y-65383688D02*
X293282017Y-65431307D01*
X293282017Y-65431307D02*
X293186779Y-65574164D01*
X293186779Y-65574164D02*
X293139160Y-65764640D01*
X293139160Y-65764640D02*
X293139160Y-66145592D01*
X293139160Y-66145592D02*
X293186779Y-66240830D01*
X293186779Y-66240830D02*
X293234398Y-66288450D01*
X293234398Y-66288450D02*
X293329636Y-66336069D01*
X293329636Y-66336069D02*
X293520112Y-66336069D01*
X293520112Y-66336069D02*
X293615350Y-66288450D01*
X293615350Y-66288450D02*
X293662969Y-66240830D01*
X293662969Y-66240830D02*
X293710588Y-66145592D01*
X293710588Y-66145592D02*
X293710588Y-65907497D01*
X293710588Y-65907497D02*
X293662969Y-65812259D01*
X293662969Y-65812259D02*
X293615350Y-65764640D01*
X293615350Y-65764640D02*
X293520112Y-65717021D01*
X293520112Y-65717021D02*
X293329636Y-65717021D01*
X293329636Y-65717021D02*
X293234398Y-65764640D01*
X293234398Y-65764640D02*
X293186779Y-65812259D01*
X293186779Y-65812259D02*
X293139160Y-65907497D01*
X294043922Y-65336069D02*
X294662969Y-65336069D01*
X294662969Y-65336069D02*
X294329636Y-65717021D01*
X294329636Y-65717021D02*
X294472493Y-65717021D01*
X294472493Y-65717021D02*
X294567731Y-65764640D01*
X294567731Y-65764640D02*
X294615350Y-65812259D01*
X294615350Y-65812259D02*
X294662969Y-65907497D01*
X294662969Y-65907497D02*
X294662969Y-66145592D01*
X294662969Y-66145592D02*
X294615350Y-66240830D01*
X294615350Y-66240830D02*
X294567731Y-66288450D01*
X294567731Y-66288450D02*
X294472493Y-66336069D01*
X294472493Y-66336069D02*
X294186779Y-66336069D01*
X294186779Y-66336069D02*
X294091541Y-66288450D01*
X294091541Y-66288450D02*
X294043922Y-66240830D01*
%TO.C,D36*%
X183017319Y-75581970D02*
X182017319Y-75581970D01*
X182017319Y-75581970D02*
X182017319Y-75343875D01*
X182017319Y-75343875D02*
X182064938Y-75201018D01*
X182064938Y-75201018D02*
X182160176Y-75105780D01*
X182160176Y-75105780D02*
X182255414Y-75058161D01*
X182255414Y-75058161D02*
X182445890Y-75010542D01*
X182445890Y-75010542D02*
X182588747Y-75010542D01*
X182588747Y-75010542D02*
X182779223Y-75058161D01*
X182779223Y-75058161D02*
X182874461Y-75105780D01*
X182874461Y-75105780D02*
X182969700Y-75201018D01*
X182969700Y-75201018D02*
X183017319Y-75343875D01*
X183017319Y-75343875D02*
X183017319Y-75581970D01*
X182017319Y-74677208D02*
X182017319Y-74058161D01*
X182017319Y-74058161D02*
X182398271Y-74391494D01*
X182398271Y-74391494D02*
X182398271Y-74248637D01*
X182398271Y-74248637D02*
X182445890Y-74153399D01*
X182445890Y-74153399D02*
X182493509Y-74105780D01*
X182493509Y-74105780D02*
X182588747Y-74058161D01*
X182588747Y-74058161D02*
X182826842Y-74058161D01*
X182826842Y-74058161D02*
X182922080Y-74105780D01*
X182922080Y-74105780D02*
X182969700Y-74153399D01*
X182969700Y-74153399D02*
X183017319Y-74248637D01*
X183017319Y-74248637D02*
X183017319Y-74534351D01*
X183017319Y-74534351D02*
X182969700Y-74629589D01*
X182969700Y-74629589D02*
X182922080Y-74677208D01*
X182017319Y-73201018D02*
X182017319Y-73391494D01*
X182017319Y-73391494D02*
X182064938Y-73486732D01*
X182064938Y-73486732D02*
X182112557Y-73534351D01*
X182112557Y-73534351D02*
X182255414Y-73629589D01*
X182255414Y-73629589D02*
X182445890Y-73677208D01*
X182445890Y-73677208D02*
X182826842Y-73677208D01*
X182826842Y-73677208D02*
X182922080Y-73629589D01*
X182922080Y-73629589D02*
X182969700Y-73581970D01*
X182969700Y-73581970D02*
X183017319Y-73486732D01*
X183017319Y-73486732D02*
X183017319Y-73296256D01*
X183017319Y-73296256D02*
X182969700Y-73201018D01*
X182969700Y-73201018D02*
X182922080Y-73153399D01*
X182922080Y-73153399D02*
X182826842Y-73105780D01*
X182826842Y-73105780D02*
X182588747Y-73105780D01*
X182588747Y-73105780D02*
X182493509Y-73153399D01*
X182493509Y-73153399D02*
X182445890Y-73201018D01*
X182445890Y-73201018D02*
X182398271Y-73296256D01*
X182398271Y-73296256D02*
X182398271Y-73486732D01*
X182398271Y-73486732D02*
X182445890Y-73581970D01*
X182445890Y-73581970D02*
X182493509Y-73629589D01*
X182493509Y-73629589D02*
X182588747Y-73677208D01*
%TO.C,D25*%
X143329819Y-75581970D02*
X142329819Y-75581970D01*
X142329819Y-75581970D02*
X142329819Y-75343875D01*
X142329819Y-75343875D02*
X142377438Y-75201018D01*
X142377438Y-75201018D02*
X142472676Y-75105780D01*
X142472676Y-75105780D02*
X142567914Y-75058161D01*
X142567914Y-75058161D02*
X142758390Y-75010542D01*
X142758390Y-75010542D02*
X142901247Y-75010542D01*
X142901247Y-75010542D02*
X143091723Y-75058161D01*
X143091723Y-75058161D02*
X143186961Y-75105780D01*
X143186961Y-75105780D02*
X143282200Y-75201018D01*
X143282200Y-75201018D02*
X143329819Y-75343875D01*
X143329819Y-75343875D02*
X143329819Y-75581970D01*
X142425057Y-74629589D02*
X142377438Y-74581970D01*
X142377438Y-74581970D02*
X142329819Y-74486732D01*
X142329819Y-74486732D02*
X142329819Y-74248637D01*
X142329819Y-74248637D02*
X142377438Y-74153399D01*
X142377438Y-74153399D02*
X142425057Y-74105780D01*
X142425057Y-74105780D02*
X142520295Y-74058161D01*
X142520295Y-74058161D02*
X142615533Y-74058161D01*
X142615533Y-74058161D02*
X142758390Y-74105780D01*
X142758390Y-74105780D02*
X143329819Y-74677208D01*
X143329819Y-74677208D02*
X143329819Y-74058161D01*
X142329819Y-73153399D02*
X142329819Y-73629589D01*
X142329819Y-73629589D02*
X142806009Y-73677208D01*
X142806009Y-73677208D02*
X142758390Y-73629589D01*
X142758390Y-73629589D02*
X142710771Y-73534351D01*
X142710771Y-73534351D02*
X142710771Y-73296256D01*
X142710771Y-73296256D02*
X142758390Y-73201018D01*
X142758390Y-73201018D02*
X142806009Y-73153399D01*
X142806009Y-73153399D02*
X142901247Y-73105780D01*
X142901247Y-73105780D02*
X143139342Y-73105780D01*
X143139342Y-73105780D02*
X143234580Y-73153399D01*
X143234580Y-73153399D02*
X143282200Y-73201018D01*
X143282200Y-73201018D02*
X143329819Y-73296256D01*
X143329819Y-73296256D02*
X143329819Y-73534351D01*
X143329819Y-73534351D02*
X143282200Y-73629589D01*
X143282200Y-73629589D02*
X143234580Y-73677208D01*
%TO.C,D32*%
X168729819Y-75581970D02*
X167729819Y-75581970D01*
X167729819Y-75581970D02*
X167729819Y-75343875D01*
X167729819Y-75343875D02*
X167777438Y-75201018D01*
X167777438Y-75201018D02*
X167872676Y-75105780D01*
X167872676Y-75105780D02*
X167967914Y-75058161D01*
X167967914Y-75058161D02*
X168158390Y-75010542D01*
X168158390Y-75010542D02*
X168301247Y-75010542D01*
X168301247Y-75010542D02*
X168491723Y-75058161D01*
X168491723Y-75058161D02*
X168586961Y-75105780D01*
X168586961Y-75105780D02*
X168682200Y-75201018D01*
X168682200Y-75201018D02*
X168729819Y-75343875D01*
X168729819Y-75343875D02*
X168729819Y-75581970D01*
X167729819Y-74677208D02*
X167729819Y-74058161D01*
X167729819Y-74058161D02*
X168110771Y-74391494D01*
X168110771Y-74391494D02*
X168110771Y-74248637D01*
X168110771Y-74248637D02*
X168158390Y-74153399D01*
X168158390Y-74153399D02*
X168206009Y-74105780D01*
X168206009Y-74105780D02*
X168301247Y-74058161D01*
X168301247Y-74058161D02*
X168539342Y-74058161D01*
X168539342Y-74058161D02*
X168634580Y-74105780D01*
X168634580Y-74105780D02*
X168682200Y-74153399D01*
X168682200Y-74153399D02*
X168729819Y-74248637D01*
X168729819Y-74248637D02*
X168729819Y-74534351D01*
X168729819Y-74534351D02*
X168682200Y-74629589D01*
X168682200Y-74629589D02*
X168634580Y-74677208D01*
X167825057Y-73677208D02*
X167777438Y-73629589D01*
X167777438Y-73629589D02*
X167729819Y-73534351D01*
X167729819Y-73534351D02*
X167729819Y-73296256D01*
X167729819Y-73296256D02*
X167777438Y-73201018D01*
X167777438Y-73201018D02*
X167825057Y-73153399D01*
X167825057Y-73153399D02*
X167920295Y-73105780D01*
X167920295Y-73105780D02*
X168015533Y-73105780D01*
X168015533Y-73105780D02*
X168158390Y-73153399D01*
X168158390Y-73153399D02*
X168729819Y-73724827D01*
X168729819Y-73724827D02*
X168729819Y-73105780D01*
%TO.C,D37*%
X186192319Y-75581970D02*
X185192319Y-75581970D01*
X185192319Y-75581970D02*
X185192319Y-75343875D01*
X185192319Y-75343875D02*
X185239938Y-75201018D01*
X185239938Y-75201018D02*
X185335176Y-75105780D01*
X185335176Y-75105780D02*
X185430414Y-75058161D01*
X185430414Y-75058161D02*
X185620890Y-75010542D01*
X185620890Y-75010542D02*
X185763747Y-75010542D01*
X185763747Y-75010542D02*
X185954223Y-75058161D01*
X185954223Y-75058161D02*
X186049461Y-75105780D01*
X186049461Y-75105780D02*
X186144700Y-75201018D01*
X186144700Y-75201018D02*
X186192319Y-75343875D01*
X186192319Y-75343875D02*
X186192319Y-75581970D01*
X185192319Y-74677208D02*
X185192319Y-74058161D01*
X185192319Y-74058161D02*
X185573271Y-74391494D01*
X185573271Y-74391494D02*
X185573271Y-74248637D01*
X185573271Y-74248637D02*
X185620890Y-74153399D01*
X185620890Y-74153399D02*
X185668509Y-74105780D01*
X185668509Y-74105780D02*
X185763747Y-74058161D01*
X185763747Y-74058161D02*
X186001842Y-74058161D01*
X186001842Y-74058161D02*
X186097080Y-74105780D01*
X186097080Y-74105780D02*
X186144700Y-74153399D01*
X186144700Y-74153399D02*
X186192319Y-74248637D01*
X186192319Y-74248637D02*
X186192319Y-74534351D01*
X186192319Y-74534351D02*
X186144700Y-74629589D01*
X186144700Y-74629589D02*
X186097080Y-74677208D01*
X185192319Y-73724827D02*
X185192319Y-73058161D01*
X185192319Y-73058161D02*
X186192319Y-73486732D01*
%TO.C,D43*%
X231936250Y-71538750D02*
X231936250Y-76098750D01*
X230981250Y-71538750D02*
X230981250Y-71005750D01*
X230026250Y-71538750D02*
X231936250Y-71538750D01*
D10*
X230096250Y-72678750D02*
X231866250Y-72678750D01*
D11*
X231936250Y-76098750D02*
X230026250Y-76098750D01*
X230981250Y-76098750D02*
X230981250Y-76631750D01*
X230026250Y-76098750D02*
X230026250Y-71538750D01*
%TO.C,D60*%
X320042500Y-71538750D02*
X320042500Y-76098750D01*
X319087500Y-71538750D02*
X319087500Y-71005750D01*
X318132500Y-71538750D02*
X320042500Y-71538750D01*
D10*
X318202500Y-72678750D02*
X319972500Y-72678750D01*
D11*
X320042500Y-76098750D02*
X318132500Y-76098750D01*
X319087500Y-76098750D02*
X319087500Y-76631750D01*
X318132500Y-76098750D02*
X318132500Y-71538750D01*
%TO.C,D52*%
X262098750Y-71538750D02*
X262098750Y-76098750D01*
X261143750Y-71538750D02*
X261143750Y-71005750D01*
X260188750Y-71538750D02*
X262098750Y-71538750D01*
D10*
X260258750Y-72678750D02*
X262028750Y-72678750D01*
D11*
X262098750Y-76098750D02*
X260188750Y-76098750D01*
X261143750Y-76098750D02*
X261143750Y-76631750D01*
X260188750Y-76098750D02*
X260188750Y-71538750D01*
%TO.C,D46*%
X241461250Y-71538750D02*
X241461250Y-76098750D01*
X240506250Y-71538750D02*
X240506250Y-71005750D01*
X239551250Y-71538750D02*
X241461250Y-71538750D01*
D10*
X239621250Y-72678750D02*
X241391250Y-72678750D01*
D11*
X241461250Y-76098750D02*
X239551250Y-76098750D01*
X240506250Y-76098750D02*
X240506250Y-76631750D01*
X239551250Y-76098750D02*
X239551250Y-71538750D01*
%TO.C,D8*%
X83505000Y-71538750D02*
X83505000Y-76098750D01*
X82550000Y-71538750D02*
X82550000Y-71005750D01*
X81595000Y-71538750D02*
X83505000Y-71538750D01*
D10*
X81665000Y-72678750D02*
X83435000Y-72678750D01*
D11*
X83505000Y-76098750D02*
X81595000Y-76098750D01*
X82550000Y-76098750D02*
X82550000Y-76631750D01*
X81595000Y-76098750D02*
X81595000Y-71538750D01*
%TO.C,D31*%
X166055000Y-71538750D02*
X166055000Y-76098750D01*
X165100000Y-71538750D02*
X165100000Y-71005750D01*
X164145000Y-71538750D02*
X166055000Y-71538750D01*
D10*
X164215000Y-72678750D02*
X165985000Y-72678750D01*
D11*
X166055000Y-76098750D02*
X164145000Y-76098750D01*
X165100000Y-76098750D02*
X165100000Y-76631750D01*
X164145000Y-76098750D02*
X164145000Y-71538750D01*
%TO.C,D44*%
X235111250Y-71538750D02*
X235111250Y-76098750D01*
X234156250Y-71538750D02*
X234156250Y-71005750D01*
X233201250Y-71538750D02*
X235111250Y-71538750D01*
D10*
X233271250Y-72678750D02*
X235041250Y-72678750D01*
D11*
X235111250Y-76098750D02*
X233201250Y-76098750D01*
X234156250Y-76098750D02*
X234156250Y-76631750D01*
X233201250Y-76098750D02*
X233201250Y-71538750D01*
%TO.C,D17*%
X115255000Y-71538750D02*
X115255000Y-76098750D01*
X114300000Y-71538750D02*
X114300000Y-71005750D01*
X113345000Y-71538750D02*
X115255000Y-71538750D01*
D10*
X113415000Y-72678750D02*
X115185000Y-72678750D01*
D11*
X115255000Y-76098750D02*
X113345000Y-76098750D01*
X114300000Y-76098750D02*
X114300000Y-76631750D01*
X113345000Y-76098750D02*
X113345000Y-71538750D01*
%TO.C,D11*%
X94617500Y-71538750D02*
X94617500Y-76098750D01*
X93662500Y-71538750D02*
X93662500Y-71005750D01*
X92707500Y-71538750D02*
X94617500Y-71538750D01*
D10*
X92777500Y-72678750D02*
X94547500Y-72678750D01*
D11*
X94617500Y-76098750D02*
X92707500Y-76098750D01*
X93662500Y-76098750D02*
X93662500Y-76631750D01*
X92707500Y-76098750D02*
X92707500Y-71538750D01*
%TO.C,D39*%
X217648750Y-71538750D02*
X217648750Y-76098750D01*
X216693750Y-71538750D02*
X216693750Y-71005750D01*
X215738750Y-71538750D02*
X217648750Y-71538750D01*
D10*
X215808750Y-72678750D02*
X217578750Y-72678750D01*
D11*
X217648750Y-76098750D02*
X215738750Y-76098750D01*
X216693750Y-76098750D02*
X216693750Y-76631750D01*
X215738750Y-76098750D02*
X215738750Y-71538750D01*
%TO.C,D48*%
X249398750Y-71538750D02*
X249398750Y-76098750D01*
X248443750Y-71538750D02*
X248443750Y-71005750D01*
X247488750Y-71538750D02*
X249398750Y-71538750D01*
D10*
X247558750Y-72678750D02*
X249328750Y-72678750D01*
D11*
X249398750Y-76098750D02*
X247488750Y-76098750D01*
X248443750Y-76098750D02*
X248443750Y-76631750D01*
X247488750Y-76098750D02*
X247488750Y-71538750D01*
%TO.C,D10*%
X91442500Y-71538750D02*
X91442500Y-76098750D01*
X90487500Y-71538750D02*
X90487500Y-71005750D01*
X89532500Y-71538750D02*
X91442500Y-71538750D01*
D10*
X89602500Y-72678750D02*
X91372500Y-72678750D01*
D11*
X91442500Y-76098750D02*
X89532500Y-76098750D01*
X90487500Y-76098750D02*
X90487500Y-76631750D01*
X89532500Y-76098750D02*
X89532500Y-71538750D01*
%TO.C,D2*%
X62867500Y-71538750D02*
X62867500Y-76098750D01*
X61912500Y-71538750D02*
X61912500Y-71005750D01*
X60957500Y-71538750D02*
X62867500Y-71538750D01*
D10*
X61027500Y-72678750D02*
X62797500Y-72678750D01*
D11*
X62867500Y-76098750D02*
X60957500Y-76098750D01*
X61912500Y-76098750D02*
X61912500Y-76631750D01*
X60957500Y-76098750D02*
X60957500Y-71538750D01*
%TO.C,D13*%
X102555000Y-71538750D02*
X102555000Y-76098750D01*
X101600000Y-71538750D02*
X101600000Y-71005750D01*
X100645000Y-71538750D02*
X102555000Y-71538750D01*
D10*
X100715000Y-72678750D02*
X102485000Y-72678750D01*
D11*
X102555000Y-76098750D02*
X100645000Y-76098750D01*
X101600000Y-76098750D02*
X101600000Y-76631750D01*
X100645000Y-76098750D02*
X100645000Y-71538750D01*
%TO.C,D41*%
X223998750Y-71538750D02*
X223998750Y-76098750D01*
X223043750Y-71538750D02*
X223043750Y-71005750D01*
X222088750Y-71538750D02*
X223998750Y-71538750D01*
D10*
X222158750Y-72678750D02*
X223928750Y-72678750D01*
D11*
X223998750Y-76098750D02*
X222088750Y-76098750D01*
X223043750Y-76098750D02*
X223043750Y-76631750D01*
X222088750Y-76098750D02*
X222088750Y-71538750D01*
%TO.C,D23*%
X137480000Y-71538750D02*
X137480000Y-76098750D01*
X136525000Y-71538750D02*
X136525000Y-71005750D01*
X135570000Y-71538750D02*
X137480000Y-71538750D01*
D10*
X135640000Y-72678750D02*
X137410000Y-72678750D01*
D11*
X137480000Y-76098750D02*
X135570000Y-76098750D01*
X136525000Y-76098750D02*
X136525000Y-76631750D01*
X135570000Y-76098750D02*
X135570000Y-71538750D01*
%TO.C,D64*%
X316807500Y-64926250D02*
X321367500Y-64926250D01*
X316807500Y-65881250D02*
X316274500Y-65881250D01*
X316807500Y-66836250D02*
X316807500Y-64926250D01*
D10*
X317947500Y-66766250D02*
X317947500Y-64996250D01*
D11*
X321367500Y-64926250D02*
X321367500Y-66836250D01*
X321367500Y-65881250D02*
X321900500Y-65881250D01*
X321367500Y-66836250D02*
X316807500Y-66836250D01*
%TO.C,D33*%
X172405000Y-71538750D02*
X172405000Y-76098750D01*
X171450000Y-71538750D02*
X171450000Y-71005750D01*
X170495000Y-71538750D02*
X172405000Y-71538750D01*
D10*
X170565000Y-72678750D02*
X172335000Y-72678750D01*
D11*
X172405000Y-76098750D02*
X170495000Y-76098750D01*
X171450000Y-76098750D02*
X171450000Y-76631750D01*
X170495000Y-76098750D02*
X170495000Y-71538750D01*
%TO.C,D15*%
X108905000Y-71538750D02*
X108905000Y-76098750D01*
X107950000Y-71538750D02*
X107950000Y-71005750D01*
X106995000Y-71538750D02*
X108905000Y-71538750D01*
D10*
X107065000Y-72678750D02*
X108835000Y-72678750D01*
D11*
X108905000Y-76098750D02*
X106995000Y-76098750D01*
X107950000Y-76098750D02*
X107950000Y-76631750D01*
X106995000Y-76098750D02*
X106995000Y-71538750D01*
%TO.C,D26*%
X148592500Y-71538750D02*
X148592500Y-76098750D01*
X147637500Y-71538750D02*
X147637500Y-71005750D01*
X146682500Y-71538750D02*
X148592500Y-71538750D01*
D10*
X146752500Y-72678750D02*
X148522500Y-72678750D01*
D11*
X148592500Y-76098750D02*
X146682500Y-76098750D01*
X147637500Y-76098750D02*
X147637500Y-76631750D01*
X146682500Y-76098750D02*
X146682500Y-71538750D01*
%TO.C,D30*%
X162880000Y-71538750D02*
X162880000Y-76098750D01*
X161925000Y-71538750D02*
X161925000Y-71005750D01*
X160970000Y-71538750D02*
X162880000Y-71538750D01*
D10*
X161040000Y-72678750D02*
X162810000Y-72678750D01*
D11*
X162880000Y-76098750D02*
X160970000Y-76098750D01*
X161925000Y-76098750D02*
X161925000Y-76631750D01*
X160970000Y-76098750D02*
X160970000Y-71538750D01*
%TO.C,D3*%
X66042500Y-71538750D02*
X66042500Y-76098750D01*
X65087500Y-71538750D02*
X65087500Y-71005750D01*
X64132500Y-71538750D02*
X66042500Y-71538750D01*
D10*
X64202500Y-72678750D02*
X65972500Y-72678750D01*
D11*
X66042500Y-76098750D02*
X64132500Y-76098750D01*
X65087500Y-76098750D02*
X65087500Y-76631750D01*
X64132500Y-76098750D02*
X64132500Y-71538750D01*
%TO.C,ENC3*%
X325637500Y-64343750D02*
X328137500Y-64343750D01*
X325637500Y-68218751D02*
X325637500Y-64343750D01*
X325637500Y-76943750D02*
X325637500Y-73068749D01*
X325637500Y-76943750D02*
X337937500Y-76943750D01*
X330437500Y-64343750D02*
X333137500Y-64343750D01*
X335437500Y-64343750D02*
X337937500Y-64343750D01*
X337937500Y-68218751D02*
X337937500Y-64343750D01*
X337937500Y-76943750D02*
X337937500Y-73068749D01*
D12*
X329312500Y-80243750D02*
G75*
G03*
X329312500Y-80243750I-125000J0D01*
G01*
D11*
%TO.C,D22*%
X134305000Y-71538750D02*
X134305000Y-76098750D01*
X133350000Y-71538750D02*
X133350000Y-71005750D01*
X132395000Y-71538750D02*
X134305000Y-71538750D01*
D10*
X132465000Y-72678750D02*
X134235000Y-72678750D01*
D11*
X134305000Y-76098750D02*
X132395000Y-76098750D01*
X133350000Y-76098750D02*
X133350000Y-76631750D01*
X132395000Y-76098750D02*
X132395000Y-71538750D01*
%TO.C,D45*%
X238286250Y-71538750D02*
X238286250Y-76098750D01*
X237331250Y-71538750D02*
X237331250Y-71005750D01*
X236376250Y-71538750D02*
X238286250Y-71538750D01*
D10*
X236446250Y-72678750D02*
X238216250Y-72678750D01*
D11*
X238286250Y-76098750D02*
X236376250Y-76098750D01*
X237331250Y-76098750D02*
X237331250Y-76631750D01*
X236376250Y-76098750D02*
X236376250Y-71538750D01*
%TO.C,D56*%
X291467500Y-71538750D02*
X291467500Y-76098750D01*
X290512500Y-71538750D02*
X290512500Y-71005750D01*
X289557500Y-71538750D02*
X291467500Y-71538750D01*
D10*
X289627500Y-72678750D02*
X291397500Y-72678750D01*
D11*
X291467500Y-76098750D02*
X289557500Y-76098750D01*
X290512500Y-76098750D02*
X290512500Y-76631750D01*
X289557500Y-76098750D02*
X289557500Y-71538750D01*
%TO.C,D18*%
X120017500Y-71538750D02*
X120017500Y-76098750D01*
X119062500Y-71538750D02*
X119062500Y-71005750D01*
X118107500Y-71538750D02*
X120017500Y-71538750D01*
D10*
X118177500Y-72678750D02*
X119947500Y-72678750D01*
D11*
X120017500Y-76098750D02*
X118107500Y-76098750D01*
X119062500Y-76098750D02*
X119062500Y-76631750D01*
X118107500Y-76098750D02*
X118107500Y-71538750D01*
%TO.C,D19*%
X123192500Y-71538750D02*
X123192500Y-76098750D01*
X122237500Y-71538750D02*
X122237500Y-71005750D01*
X121282500Y-71538750D02*
X123192500Y-71538750D01*
D10*
X121352500Y-72678750D02*
X123122500Y-72678750D01*
D11*
X123192500Y-76098750D02*
X121282500Y-76098750D01*
X122237500Y-76098750D02*
X122237500Y-76631750D01*
X121282500Y-76098750D02*
X121282500Y-71538750D01*
%TO.C,D38*%
X212886250Y-71538750D02*
X212886250Y-76098750D01*
X211931250Y-71538750D02*
X211931250Y-71005750D01*
X210976250Y-71538750D02*
X212886250Y-71538750D01*
D10*
X211046250Y-72678750D02*
X212816250Y-72678750D01*
D11*
X212886250Y-76098750D02*
X210976250Y-76098750D01*
X211931250Y-76098750D02*
X211931250Y-76631750D01*
X210976250Y-76098750D02*
X210976250Y-71538750D01*
%TO.C,D40*%
X220823750Y-71538750D02*
X220823750Y-76098750D01*
X219868750Y-71538750D02*
X219868750Y-71005750D01*
X218913750Y-71538750D02*
X220823750Y-71538750D01*
D10*
X218983750Y-72678750D02*
X220753750Y-72678750D01*
D11*
X220823750Y-76098750D02*
X218913750Y-76098750D01*
X219868750Y-76098750D02*
X219868750Y-76631750D01*
X218913750Y-76098750D02*
X218913750Y-71538750D01*
%TO.C,ENC1*%
X274837500Y-64343750D02*
X277337500Y-64343750D01*
X274837500Y-68218751D02*
X274837500Y-64343750D01*
X274837500Y-76943750D02*
X274837500Y-73068749D01*
X274837500Y-76943750D02*
X287137500Y-76943750D01*
X279637500Y-64343750D02*
X282337500Y-64343750D01*
X284637500Y-64343750D02*
X287137500Y-64343750D01*
X287137500Y-68218751D02*
X287137500Y-64343750D01*
X287137500Y-76943750D02*
X287137500Y-73068749D01*
D12*
X278512500Y-80243750D02*
G75*
G03*
X278512500Y-80243750I-125000J0D01*
G01*
D11*
%TO.C,D53*%
X266861250Y-71538750D02*
X266861250Y-76098750D01*
X265906250Y-71538750D02*
X265906250Y-71005750D01*
X264951250Y-71538750D02*
X266861250Y-71538750D01*
D10*
X265021250Y-72678750D02*
X266791250Y-72678750D01*
D11*
X266861250Y-76098750D02*
X264951250Y-76098750D01*
X265906250Y-76098750D02*
X265906250Y-76631750D01*
X264951250Y-76098750D02*
X264951250Y-71538750D01*
%TO.C,D1*%
X59692500Y-71538750D02*
X59692500Y-76098750D01*
X58737500Y-71538750D02*
X58737500Y-71005750D01*
X57782500Y-71538750D02*
X59692500Y-71538750D01*
D10*
X57852500Y-72678750D02*
X59622500Y-72678750D01*
D11*
X59692500Y-76098750D02*
X57782500Y-76098750D01*
X58737500Y-76098750D02*
X58737500Y-76631750D01*
X57782500Y-76098750D02*
X57782500Y-71538750D01*
%TO.C,D42*%
X227173750Y-71538750D02*
X227173750Y-76098750D01*
X226218750Y-71538750D02*
X226218750Y-71005750D01*
X225263750Y-71538750D02*
X227173750Y-71538750D01*
D10*
X225333750Y-72678750D02*
X227103750Y-72678750D01*
D11*
X227173750Y-76098750D02*
X225263750Y-76098750D01*
X226218750Y-76098750D02*
X226218750Y-76631750D01*
X225263750Y-76098750D02*
X225263750Y-71538750D01*
%TO.C,ENC2*%
X300237500Y-64343750D02*
X302737500Y-64343750D01*
X300237500Y-68218751D02*
X300237500Y-64343750D01*
X300237500Y-76943750D02*
X300237500Y-73068749D01*
X300237500Y-76943750D02*
X312537500Y-76943750D01*
X305037500Y-64343750D02*
X307737500Y-64343750D01*
X310037500Y-64343750D02*
X312537500Y-64343750D01*
X312537500Y-68218751D02*
X312537500Y-64343750D01*
X312537500Y-76943750D02*
X312537500Y-73068749D01*
D12*
X303912500Y-80243750D02*
G75*
G03*
X303912500Y-80243750I-125000J0D01*
G01*
D11*
%TO.C,D47*%
X244636250Y-71538750D02*
X244636250Y-76098750D01*
X243681250Y-71538750D02*
X243681250Y-71005750D01*
X242726250Y-71538750D02*
X244636250Y-71538750D01*
D10*
X242796250Y-72678750D02*
X244566250Y-72678750D01*
D11*
X244636250Y-76098750D02*
X242726250Y-76098750D01*
X243681250Y-76098750D02*
X243681250Y-76631750D01*
X242726250Y-76098750D02*
X242726250Y-71538750D01*
%TO.C,D49*%
X252573750Y-71538750D02*
X252573750Y-76098750D01*
X251618750Y-71538750D02*
X251618750Y-71005750D01*
X250663750Y-71538750D02*
X252573750Y-71538750D01*
D10*
X250733750Y-72678750D02*
X252503750Y-72678750D01*
D11*
X252573750Y-76098750D02*
X250663750Y-76098750D01*
X251618750Y-76098750D02*
X251618750Y-76631750D01*
X250663750Y-76098750D02*
X250663750Y-71538750D01*
%TO.C,D24*%
X140655000Y-71538750D02*
X140655000Y-76098750D01*
X139700000Y-71538750D02*
X139700000Y-71005750D01*
X138745000Y-71538750D02*
X140655000Y-71538750D01*
D10*
X138815000Y-72678750D02*
X140585000Y-72678750D01*
D11*
X140655000Y-76098750D02*
X138745000Y-76098750D01*
X139700000Y-76098750D02*
X139700000Y-76631750D01*
X138745000Y-76098750D02*
X138745000Y-71538750D01*
%TO.C,D29*%
X158117500Y-71538750D02*
X158117500Y-76098750D01*
X157162500Y-71538750D02*
X157162500Y-71005750D01*
X156207500Y-71538750D02*
X158117500Y-71538750D01*
D10*
X156277500Y-72678750D02*
X158047500Y-72678750D01*
D11*
X158117500Y-76098750D02*
X156207500Y-76098750D01*
X157162500Y-76098750D02*
X157162500Y-76631750D01*
X156207500Y-76098750D02*
X156207500Y-71538750D01*
%TO.C,D28*%
X154942500Y-71538750D02*
X154942500Y-76098750D01*
X153987500Y-71538750D02*
X153987500Y-71005750D01*
X153032500Y-71538750D02*
X154942500Y-71538750D01*
D10*
X153102500Y-72678750D02*
X154872500Y-72678750D01*
D11*
X154942500Y-76098750D02*
X153032500Y-76098750D01*
X153987500Y-76098750D02*
X153987500Y-76631750D01*
X153032500Y-76098750D02*
X153032500Y-71538750D01*
%TO.C,D58*%
X297817500Y-71538750D02*
X297817500Y-76098750D01*
X296862500Y-71538750D02*
X296862500Y-71005750D01*
X295907500Y-71538750D02*
X297817500Y-71538750D01*
D10*
X295977500Y-72678750D02*
X297747500Y-72678750D01*
D11*
X297817500Y-76098750D02*
X295907500Y-76098750D01*
X296862500Y-76098750D02*
X296862500Y-76631750D01*
X295907500Y-76098750D02*
X295907500Y-71538750D01*
%TO.C,D14*%
X105730000Y-71538750D02*
X105730000Y-76098750D01*
X104775000Y-71538750D02*
X104775000Y-71005750D01*
X103820000Y-71538750D02*
X105730000Y-71538750D01*
D10*
X103890000Y-72678750D02*
X105660000Y-72678750D01*
D11*
X105730000Y-76098750D02*
X103820000Y-76098750D01*
X104775000Y-76098750D02*
X104775000Y-76631750D01*
X103820000Y-76098750D02*
X103820000Y-71538750D01*
%TO.C,D6*%
X77155000Y-71538750D02*
X77155000Y-76098750D01*
X76200000Y-71538750D02*
X76200000Y-71005750D01*
X75245000Y-71538750D02*
X77155000Y-71538750D01*
D10*
X75315000Y-72678750D02*
X77085000Y-72678750D01*
D11*
X77155000Y-76098750D02*
X75245000Y-76098750D01*
X76200000Y-76098750D02*
X76200000Y-76631750D01*
X75245000Y-76098750D02*
X75245000Y-71538750D01*
%TO.C,D34*%
X175580000Y-71538750D02*
X175580000Y-76098750D01*
X174625000Y-71538750D02*
X174625000Y-71005750D01*
X173670000Y-71538750D02*
X175580000Y-71538750D01*
D10*
X173740000Y-72678750D02*
X175510000Y-72678750D01*
D11*
X175580000Y-76098750D02*
X173670000Y-76098750D01*
X174625000Y-76098750D02*
X174625000Y-76631750D01*
X173670000Y-76098750D02*
X173670000Y-71538750D01*
%TO.C,D62*%
X266801250Y-64926250D02*
X271361250Y-64926250D01*
X266801250Y-65881250D02*
X266268250Y-65881250D01*
X266801250Y-66836250D02*
X266801250Y-64926250D01*
D10*
X267941250Y-66766250D02*
X267941250Y-64996250D01*
D11*
X271361250Y-64926250D02*
X271361250Y-66836250D01*
X271361250Y-65881250D02*
X271894250Y-65881250D01*
X271361250Y-66836250D02*
X266801250Y-66836250D01*
%TO.C,D20*%
X126367500Y-71538750D02*
X126367500Y-76098750D01*
X125412500Y-71538750D02*
X125412500Y-71005750D01*
X124457500Y-71538750D02*
X126367500Y-71538750D01*
D10*
X124527500Y-72678750D02*
X126297500Y-72678750D01*
D11*
X126367500Y-76098750D02*
X124457500Y-76098750D01*
X125412500Y-76098750D02*
X125412500Y-76631750D01*
X124457500Y-76098750D02*
X124457500Y-71538750D01*
%TO.C,D12*%
X97792500Y-71538750D02*
X97792500Y-76098750D01*
X96837500Y-71538750D02*
X96837500Y-71005750D01*
X95882500Y-71538750D02*
X97792500Y-71538750D01*
D10*
X95952500Y-72678750D02*
X97722500Y-72678750D01*
D11*
X97792500Y-76098750D02*
X95882500Y-76098750D01*
X96837500Y-76098750D02*
X96837500Y-76631750D01*
X95882500Y-76098750D02*
X95882500Y-71538750D01*
%TO.C,D35*%
X180342500Y-71538750D02*
X180342500Y-76098750D01*
X179387500Y-71538750D02*
X179387500Y-71005750D01*
X178432500Y-71538750D02*
X180342500Y-71538750D01*
D10*
X178502500Y-72678750D02*
X180272500Y-72678750D01*
D11*
X180342500Y-76098750D02*
X178432500Y-76098750D01*
X179387500Y-76098750D02*
X179387500Y-76631750D01*
X178432500Y-76098750D02*
X178432500Y-71538750D01*
%TO.C,D16*%
X112080000Y-71538750D02*
X112080000Y-76098750D01*
X111125000Y-71538750D02*
X111125000Y-71005750D01*
X110170000Y-71538750D02*
X112080000Y-71538750D01*
D10*
X110240000Y-72678750D02*
X112010000Y-72678750D01*
D11*
X112080000Y-76098750D02*
X110170000Y-76098750D01*
X111125000Y-76098750D02*
X111125000Y-76631750D01*
X110170000Y-76098750D02*
X110170000Y-71538750D01*
%TO.C,D5*%
X72392500Y-71538750D02*
X72392500Y-76098750D01*
X71437500Y-71538750D02*
X71437500Y-71005750D01*
X70482500Y-71538750D02*
X72392500Y-71538750D01*
D10*
X70552500Y-72678750D02*
X72322500Y-72678750D01*
D11*
X72392500Y-76098750D02*
X70482500Y-76098750D01*
X71437500Y-76098750D02*
X71437500Y-76631750D01*
X70482500Y-76098750D02*
X70482500Y-71538750D01*
%TO.C,D61*%
X323217500Y-71538750D02*
X323217500Y-76098750D01*
X322262500Y-71538750D02*
X322262500Y-71005750D01*
X321307500Y-71538750D02*
X323217500Y-71538750D01*
D10*
X321377500Y-72678750D02*
X323147500Y-72678750D01*
D11*
X323217500Y-76098750D02*
X321307500Y-76098750D01*
X322262500Y-76098750D02*
X322262500Y-76631750D01*
X321307500Y-76098750D02*
X321307500Y-71538750D01*
%TO.C,D51*%
X258923750Y-71538750D02*
X258923750Y-76098750D01*
X257968750Y-71538750D02*
X257968750Y-71005750D01*
X257013750Y-71538750D02*
X258923750Y-71538750D01*
D10*
X257083750Y-72678750D02*
X258853750Y-72678750D01*
D11*
X258923750Y-76098750D02*
X257013750Y-76098750D01*
X257968750Y-76098750D02*
X257968750Y-76631750D01*
X257013750Y-76098750D02*
X257013750Y-71538750D01*
%TO.C,D55*%
X273211250Y-71538750D02*
X273211250Y-76098750D01*
X272256250Y-71538750D02*
X272256250Y-71005750D01*
X271301250Y-71538750D02*
X273211250Y-71538750D01*
D10*
X271371250Y-72678750D02*
X273141250Y-72678750D01*
D11*
X273211250Y-76098750D02*
X271301250Y-76098750D01*
X272256250Y-76098750D02*
X272256250Y-76631750D01*
X271301250Y-76098750D02*
X271301250Y-71538750D01*
%TO.C,D54*%
X270036250Y-71538750D02*
X270036250Y-76098750D01*
X269081250Y-71538750D02*
X269081250Y-71005750D01*
X268126250Y-71538750D02*
X270036250Y-71538750D01*
D10*
X268196250Y-72678750D02*
X269966250Y-72678750D01*
D11*
X270036250Y-76098750D02*
X268126250Y-76098750D01*
X269081250Y-76098750D02*
X269081250Y-76631750D01*
X268126250Y-76098750D02*
X268126250Y-71538750D01*
%TO.C,D21*%
X129542500Y-71538750D02*
X129542500Y-76098750D01*
X128587500Y-71538750D02*
X128587500Y-71005750D01*
X127632500Y-71538750D02*
X129542500Y-71538750D01*
D10*
X127702500Y-72678750D02*
X129472500Y-72678750D01*
D11*
X129542500Y-76098750D02*
X127632500Y-76098750D01*
X128587500Y-76098750D02*
X128587500Y-76631750D01*
X127632500Y-76098750D02*
X127632500Y-71538750D01*
%TO.C,D59*%
X316867500Y-71538750D02*
X316867500Y-76098750D01*
X315912500Y-71538750D02*
X315912500Y-71005750D01*
X314957500Y-71538750D02*
X316867500Y-71538750D01*
D10*
X315027500Y-72678750D02*
X316797500Y-72678750D01*
D11*
X316867500Y-76098750D02*
X314957500Y-76098750D01*
X315912500Y-76098750D02*
X315912500Y-76631750D01*
X314957500Y-76098750D02*
X314957500Y-71538750D01*
%TO.C,D27*%
X151767500Y-71538750D02*
X151767500Y-76098750D01*
X150812500Y-71538750D02*
X150812500Y-71005750D01*
X149857500Y-71538750D02*
X151767500Y-71538750D01*
D10*
X149927500Y-72678750D02*
X151697500Y-72678750D01*
D11*
X151767500Y-76098750D02*
X149857500Y-76098750D01*
X150812500Y-76098750D02*
X150812500Y-76631750D01*
X149857500Y-76098750D02*
X149857500Y-71538750D01*
%TO.C,D50*%
X255748750Y-71538750D02*
X255748750Y-76098750D01*
X254793750Y-71538750D02*
X254793750Y-71005750D01*
X253838750Y-71538750D02*
X255748750Y-71538750D01*
D10*
X253908750Y-72678750D02*
X255678750Y-72678750D01*
D11*
X255748750Y-76098750D02*
X253838750Y-76098750D01*
X254793750Y-76098750D02*
X254793750Y-76631750D01*
X253838750Y-76098750D02*
X253838750Y-71538750D01*
%TO.C,D57*%
X294642500Y-71538750D02*
X294642500Y-76098750D01*
X293687500Y-71538750D02*
X293687500Y-71005750D01*
X292732500Y-71538750D02*
X294642500Y-71538750D01*
D10*
X292802500Y-72678750D02*
X294572500Y-72678750D01*
D11*
X294642500Y-76098750D02*
X292732500Y-76098750D01*
X293687500Y-76098750D02*
X293687500Y-76631750D01*
X292732500Y-76098750D02*
X292732500Y-71538750D01*
%TO.C,D4*%
X69217500Y-71538750D02*
X69217500Y-76098750D01*
X68262500Y-71538750D02*
X68262500Y-71005750D01*
X67307500Y-71538750D02*
X69217500Y-71538750D01*
D10*
X67377500Y-72678750D02*
X69147500Y-72678750D01*
D11*
X69217500Y-76098750D02*
X67307500Y-76098750D01*
X68262500Y-76098750D02*
X68262500Y-76631750D01*
X67307500Y-76098750D02*
X67307500Y-71538750D01*
%TO.C,D9*%
X88267500Y-71538750D02*
X88267500Y-76098750D01*
X87312500Y-71538750D02*
X87312500Y-71005750D01*
X86357500Y-71538750D02*
X88267500Y-71538750D01*
D10*
X86427500Y-72678750D02*
X88197500Y-72678750D01*
D11*
X88267500Y-76098750D02*
X86357500Y-76098750D01*
X87312500Y-76098750D02*
X87312500Y-76631750D01*
X86357500Y-76098750D02*
X86357500Y-71538750D01*
%TO.C,D7*%
X80330000Y-71538750D02*
X80330000Y-76098750D01*
X79375000Y-71538750D02*
X79375000Y-71005750D01*
X78420000Y-71538750D02*
X80330000Y-71538750D01*
D10*
X78490000Y-72678750D02*
X80260000Y-72678750D01*
D11*
X80330000Y-76098750D02*
X78420000Y-76098750D01*
X79375000Y-76098750D02*
X79375000Y-76631750D01*
X78420000Y-76098750D02*
X78420000Y-71538750D01*
%TO.C,D63*%
X290613750Y-64926250D02*
X295173750Y-64926250D01*
X290613750Y-65881250D02*
X290080750Y-65881250D01*
X290613750Y-66836250D02*
X290613750Y-64926250D01*
D10*
X291753750Y-66766250D02*
X291753750Y-64996250D01*
D11*
X295173750Y-64926250D02*
X295173750Y-66836250D01*
X295173750Y-65881250D02*
X295706750Y-65881250D01*
X295173750Y-66836250D02*
X290613750Y-66836250D01*
%TO.C,D36*%
X183517500Y-71538750D02*
X183517500Y-76098750D01*
X182562500Y-71538750D02*
X182562500Y-71005750D01*
X181607500Y-71538750D02*
X183517500Y-71538750D01*
D10*
X181677500Y-72678750D02*
X183447500Y-72678750D01*
D11*
X183517500Y-76098750D02*
X181607500Y-76098750D01*
X182562500Y-76098750D02*
X182562500Y-76631750D01*
X181607500Y-76098750D02*
X181607500Y-71538750D01*
%TO.C,D25*%
X143830000Y-71538750D02*
X143830000Y-76098750D01*
X142875000Y-71538750D02*
X142875000Y-71005750D01*
X141920000Y-71538750D02*
X143830000Y-71538750D01*
D10*
X141990000Y-72678750D02*
X143760000Y-72678750D01*
D11*
X143830000Y-76098750D02*
X141920000Y-76098750D01*
X142875000Y-76098750D02*
X142875000Y-76631750D01*
X141920000Y-76098750D02*
X141920000Y-71538750D01*
%TO.C,D32*%
X169230000Y-71538750D02*
X169230000Y-76098750D01*
X168275000Y-71538750D02*
X168275000Y-71005750D01*
X167320000Y-71538750D02*
X169230000Y-71538750D01*
D10*
X167390000Y-72678750D02*
X169160000Y-72678750D01*
D11*
X169230000Y-76098750D02*
X167320000Y-76098750D01*
X168275000Y-76098750D02*
X168275000Y-76631750D01*
X167320000Y-76098750D02*
X167320000Y-71538750D01*
%TO.C,D37*%
X186692500Y-71538750D02*
X186692500Y-76098750D01*
X185737500Y-71538750D02*
X185737500Y-71005750D01*
X184782500Y-71538750D02*
X186692500Y-71538750D01*
D10*
X184852500Y-72678750D02*
X186622500Y-72678750D01*
D11*
X186692500Y-76098750D02*
X184782500Y-76098750D01*
X185737500Y-76098750D02*
X185737500Y-76631750D01*
X184782500Y-76098750D02*
X184782500Y-71538750D01*
%TD*%
%LPC*%
D13*
%TO.C,MX42*%
X65055750Y-139065000D03*
D14*
X65055750Y-154305000D03*
D15*
X71913750Y-146050000D03*
D14*
X76993750Y-146050000D03*
D15*
X82073750Y-146050000D03*
D13*
X88931750Y-139065000D03*
D14*
X88931750Y-154305000D03*
%TD*%
D16*
%TO.C,D43*%
X230981250Y-70005750D03*
D17*
X230981250Y-77631750D03*
%TD*%
D16*
%TO.C,D60*%
X319087500Y-70005750D03*
D17*
X319087500Y-77631750D03*
%TD*%
D16*
%TO.C,D52*%
X261143750Y-70005750D03*
D17*
X261143750Y-77631750D03*
%TD*%
D18*
%TO.C,REF\u002A\u002A*%
X83343750Y-107950000D03*
%TD*%
D15*
%TO.C,MX50*%
X236220000Y-146050000D03*
D14*
X241300000Y-146050000D03*
D15*
X246380000Y-146050000D03*
%TD*%
%TO.C,MX33*%
X150495000Y-127000000D03*
D14*
X155575000Y-127000000D03*
D15*
X160655000Y-127000000D03*
%TD*%
D16*
%TO.C,D46*%
X240506250Y-70005750D03*
D17*
X240506250Y-77631750D03*
%TD*%
D15*
%TO.C,MX5*%
X136207500Y-88900000D03*
D14*
X141287500Y-88900000D03*
D15*
X146367500Y-88900000D03*
%TD*%
%TO.C,MX18*%
X126682500Y-107950000D03*
D14*
X131762500Y-107950000D03*
D15*
X136842500Y-107950000D03*
%TD*%
%TO.C,MX7*%
X174307500Y-88900000D03*
D14*
X179387500Y-88900000D03*
D15*
X184467500Y-88900000D03*
%TD*%
D16*
%TO.C,D8*%
X82550000Y-70005750D03*
D17*
X82550000Y-77631750D03*
%TD*%
D16*
%TO.C,D31*%
X165100000Y-70005750D03*
D17*
X165100000Y-77631750D03*
%TD*%
D16*
%TO.C,D44*%
X234156250Y-70005750D03*
D17*
X234156250Y-77631750D03*
%TD*%
D15*
%TO.C,MX20*%
X164782500Y-107950000D03*
D14*
X169862500Y-107950000D03*
D15*
X174942500Y-107950000D03*
%TD*%
%TO.C,MX60*%
X300513750Y-165100000D03*
D14*
X305593750Y-165100000D03*
D15*
X310673750Y-165100000D03*
%TD*%
D16*
%TO.C,D17*%
X114300000Y-70005750D03*
D17*
X114300000Y-77631750D03*
%TD*%
D16*
%TO.C,D11*%
X93662500Y-70005750D03*
D17*
X93662500Y-77631750D03*
%TD*%
D15*
%TO.C,MX27*%
X298132500Y-107950000D03*
D14*
X303212500Y-107950000D03*
D15*
X308292500Y-107950000D03*
%TD*%
%TO.C,MX2*%
X79057500Y-88900000D03*
D14*
X84137500Y-88900000D03*
D15*
X89217500Y-88900000D03*
%TD*%
D16*
%TO.C,D39*%
X216693750Y-70005750D03*
D17*
X216693750Y-77631750D03*
%TD*%
D16*
%TO.C,D48*%
X248443750Y-70005750D03*
D17*
X248443750Y-77631750D03*
%TD*%
D16*
%TO.C,D10*%
X90487500Y-70005750D03*
D17*
X90487500Y-77631750D03*
%TD*%
D16*
%TO.C,D2*%
X61912500Y-70005750D03*
D17*
X61912500Y-77631750D03*
%TD*%
D15*
%TO.C,MX30*%
X93345000Y-127000000D03*
D14*
X98425000Y-127000000D03*
D15*
X103505000Y-127000000D03*
%TD*%
%TO.C,MX48*%
X198120000Y-146050000D03*
D14*
X203200000Y-146050000D03*
D15*
X208280000Y-146050000D03*
%TD*%
D16*
%TO.C,D13*%
X101600000Y-70005750D03*
D17*
X101600000Y-77631750D03*
%TD*%
D16*
%TO.C,D41*%
X223043750Y-70005750D03*
D17*
X223043750Y-77631750D03*
%TD*%
D16*
%TO.C,D23*%
X136525000Y-70005750D03*
D17*
X136525000Y-77631750D03*
%TD*%
D15*
%TO.C,MX55*%
X86201250Y-165100000D03*
D14*
X91281250Y-165100000D03*
D15*
X96361250Y-165100000D03*
%TD*%
%TO.C,MX6*%
X155257500Y-88900000D03*
D14*
X160337500Y-88900000D03*
D15*
X165417500Y-88900000D03*
%TD*%
D16*
%TO.C,D64*%
X315274500Y-65881250D03*
D17*
X322900500Y-65881250D03*
%TD*%
D18*
%TO.C,*%
X95250000Y-93662500D03*
%TD*%
D16*
%TO.C,D33*%
X171450000Y-70005750D03*
D17*
X171450000Y-77631750D03*
%TD*%
D15*
%TO.C,MX51*%
X255270000Y-146050000D03*
D14*
X260350000Y-146050000D03*
D15*
X265430000Y-146050000D03*
%TD*%
D13*
%TO.C,MX41*%
X307943250Y-120015000D03*
D14*
X307943250Y-135255000D03*
D15*
X314801250Y-127000000D03*
D14*
X319881250Y-127000000D03*
D15*
X324961250Y-127000000D03*
D13*
X331819250Y-120015000D03*
D14*
X331819250Y-135255000D03*
%TD*%
D15*
%TO.C,MX3*%
X98107500Y-88900000D03*
D14*
X103187500Y-88900000D03*
D15*
X108267500Y-88900000D03*
%TD*%
D16*
%TO.C,D15*%
X107950000Y-70005750D03*
D17*
X107950000Y-77631750D03*
%TD*%
D16*
%TO.C,D26*%
X147637500Y-70005750D03*
D17*
X147637500Y-77631750D03*
%TD*%
D16*
%TO.C,D30*%
X161925000Y-70005750D03*
D17*
X161925000Y-77631750D03*
%TD*%
D16*
%TO.C,D3*%
X65087500Y-70005750D03*
D17*
X65087500Y-77631750D03*
%TD*%
D15*
%TO.C,MX44*%
X121920000Y-146050000D03*
D14*
X127000000Y-146050000D03*
D15*
X132080000Y-146050000D03*
%TD*%
D19*
%TO.C,ENC3*%
X329287500Y-63643750D03*
X334287500Y-63643750D03*
D20*
X329287500Y-78143750D03*
D19*
X334287500Y-78143750D03*
X331787500Y-78143750D03*
%TD*%
D16*
%TO.C,D22*%
X133350000Y-70005750D03*
D17*
X133350000Y-77631750D03*
%TD*%
D16*
%TO.C,D45*%
X237331250Y-70005750D03*
D17*
X237331250Y-77631750D03*
%TD*%
D15*
%TO.C,MX56*%
X110013750Y-165100000D03*
D14*
X115093750Y-165100000D03*
D15*
X120173750Y-165100000D03*
%TD*%
D16*
%TO.C,D56*%
X290512500Y-70005750D03*
D17*
X290512500Y-77631750D03*
%TD*%
D15*
%TO.C,MX32*%
X131445000Y-127000000D03*
D14*
X136525000Y-127000000D03*
D15*
X141605000Y-127000000D03*
%TD*%
D16*
%TO.C,D18*%
X119062500Y-70005750D03*
D17*
X119062500Y-77631750D03*
%TD*%
D15*
%TO.C,MX34*%
X169545000Y-127000000D03*
D14*
X174625000Y-127000000D03*
D15*
X179705000Y-127000000D03*
%TD*%
%TO.C,MX10*%
X231457500Y-88900000D03*
D14*
X236537500Y-88900000D03*
D15*
X241617500Y-88900000D03*
%TD*%
D16*
%TO.C,D19*%
X122237500Y-70005750D03*
D17*
X122237500Y-77631750D03*
%TD*%
D16*
%TO.C,D38*%
X211931250Y-70005750D03*
D17*
X211931250Y-77631750D03*
%TD*%
D16*
%TO.C,D40*%
X219868750Y-70005750D03*
D17*
X219868750Y-77631750D03*
%TD*%
D19*
%TO.C,ENC1*%
X278487500Y-63643750D03*
X283487500Y-63643750D03*
D20*
X278487500Y-78143750D03*
D19*
X283487500Y-78143750D03*
X280987500Y-78143750D03*
%TD*%
D15*
%TO.C,MX52*%
X274320000Y-146050000D03*
D14*
X279400000Y-146050000D03*
D15*
X284480000Y-146050000D03*
%TD*%
%TO.C,MX17*%
X107632500Y-107950000D03*
D14*
X112712500Y-107950000D03*
D15*
X117792500Y-107950000D03*
%TD*%
D16*
%TO.C,D53*%
X265906250Y-70005750D03*
D17*
X265906250Y-77631750D03*
%TD*%
D16*
%TO.C,D1*%
X58737500Y-70005750D03*
D17*
X58737500Y-77631750D03*
%TD*%
D15*
%TO.C,MX39*%
X264795000Y-127000000D03*
D14*
X269875000Y-127000000D03*
D15*
X274955000Y-127000000D03*
%TD*%
%TO.C,MX43*%
X102870000Y-146050000D03*
D14*
X107950000Y-146050000D03*
D15*
X113030000Y-146050000D03*
%TD*%
D16*
%TO.C,D42*%
X226218750Y-70005750D03*
D17*
X226218750Y-77631750D03*
%TD*%
D19*
%TO.C,ENC2*%
X303887500Y-63643750D03*
X308887500Y-63643750D03*
D20*
X303887500Y-78143750D03*
D19*
X308887500Y-78143750D03*
X306387500Y-78143750D03*
%TD*%
D16*
%TO.C,D47*%
X243681250Y-70005750D03*
D17*
X243681250Y-77631750D03*
%TD*%
D15*
%TO.C,MX45*%
X140970000Y-146050000D03*
D14*
X146050000Y-146050000D03*
D15*
X151130000Y-146050000D03*
%TD*%
D16*
%TO.C,D49*%
X251618750Y-70005750D03*
D17*
X251618750Y-77631750D03*
%TD*%
D16*
%TO.C,D24*%
X139700000Y-70005750D03*
D17*
X139700000Y-77631750D03*
%TD*%
D18*
%TO.C,REF\u002A\u002A*%
X315118750Y-107950000D03*
%TD*%
D16*
%TO.C,D29*%
X157162500Y-70005750D03*
D17*
X157162500Y-77631750D03*
%TD*%
D15*
%TO.C,MX37*%
X226695000Y-127000000D03*
D14*
X231775000Y-127000000D03*
D15*
X236855000Y-127000000D03*
%TD*%
D18*
%TO.C,REF\u002A\u002A*%
X95250000Y-93662500D03*
%TD*%
D16*
%TO.C,D28*%
X153987500Y-70005750D03*
D17*
X153987500Y-77631750D03*
%TD*%
D15*
%TO.C,MX40*%
X283845000Y-127000000D03*
D14*
X288925000Y-127000000D03*
D15*
X294005000Y-127000000D03*
%TD*%
D16*
%TO.C,D58*%
X296862500Y-70005750D03*
D17*
X296862500Y-77631750D03*
%TD*%
D16*
%TO.C,D14*%
X104775000Y-70005750D03*
D17*
X104775000Y-77631750D03*
%TD*%
D16*
%TO.C,D6*%
X76200000Y-70005750D03*
D17*
X76200000Y-77631750D03*
%TD*%
D15*
%TO.C,MX54*%
X62388750Y-165100000D03*
D14*
X67468750Y-165100000D03*
D15*
X72548750Y-165100000D03*
%TD*%
D16*
%TO.C,D34*%
X174625000Y-70005750D03*
D17*
X174625000Y-77631750D03*
%TD*%
D15*
%TO.C,MX15*%
X64770000Y-107950000D03*
D14*
X69850000Y-107950000D03*
D15*
X74930000Y-107950000D03*
%TD*%
%TO.C,MX36*%
X207645000Y-127000000D03*
D14*
X212725000Y-127000000D03*
D15*
X217805000Y-127000000D03*
%TD*%
%TO.C,MX49*%
X217170000Y-146050000D03*
D14*
X222250000Y-146050000D03*
D15*
X227330000Y-146050000D03*
%TD*%
D16*
%TO.C,D62*%
X265268250Y-65881250D03*
D17*
X272894250Y-65881250D03*
%TD*%
D16*
%TO.C,D20*%
X125412500Y-70005750D03*
D17*
X125412500Y-77631750D03*
%TD*%
D15*
%TO.C,MX31*%
X112395000Y-127000000D03*
D14*
X117475000Y-127000000D03*
D15*
X122555000Y-127000000D03*
%TD*%
%TO.C,MX13*%
X288607500Y-88900000D03*
D14*
X293687500Y-88900000D03*
D15*
X298767500Y-88900000D03*
%TD*%
D16*
%TO.C,D12*%
X96837500Y-70005750D03*
D17*
X96837500Y-77631750D03*
%TD*%
D13*
%TO.C,MX53*%
X303180750Y-139065000D03*
D14*
X303180750Y-154305000D03*
D15*
X310038750Y-146050000D03*
D14*
X315118750Y-146050000D03*
D15*
X320198750Y-146050000D03*
D13*
X327056750Y-139065000D03*
D14*
X327056750Y-154305000D03*
%TD*%
D16*
%TO.C,D35*%
X179387500Y-70005750D03*
D17*
X179387500Y-77631750D03*
%TD*%
D16*
%TO.C,D16*%
X111125000Y-70005750D03*
D17*
X111125000Y-77631750D03*
%TD*%
D16*
%TO.C,D5*%
X71437500Y-70005750D03*
D17*
X71437500Y-77631750D03*
%TD*%
D16*
%TO.C,D61*%
X322262500Y-70005750D03*
D17*
X322262500Y-77631750D03*
%TD*%
D16*
%TO.C,D51*%
X257968750Y-70005750D03*
D17*
X257968750Y-77631750D03*
%TD*%
D18*
%TO.C,REF\u002A\u002A*%
X304800000Y-91281250D03*
%TD*%
D15*
%TO.C,MX23*%
X221932500Y-107950000D03*
D14*
X227012500Y-107950000D03*
D15*
X232092500Y-107950000D03*
%TD*%
D14*
%TO.C,MX57*%
X136531350Y-156845000D03*
D13*
X136531350Y-172085000D03*
D15*
X181451250Y-165100000D03*
D14*
X186531250Y-165100000D03*
D15*
X191611250Y-165100000D03*
D14*
X236531150Y-156845000D03*
D13*
X236531150Y-172085000D03*
%TD*%
D16*
%TO.C,D55*%
X272256250Y-70005750D03*
D17*
X272256250Y-77631750D03*
%TD*%
D15*
%TO.C,MX8*%
X193357500Y-88900000D03*
D14*
X198437500Y-88900000D03*
D15*
X203517500Y-88900000D03*
%TD*%
D16*
%TO.C,D54*%
X269081250Y-70005750D03*
D17*
X269081250Y-77631750D03*
%TD*%
D15*
%TO.C,MX47*%
X179070000Y-146050000D03*
D14*
X184150000Y-146050000D03*
D15*
X189230000Y-146050000D03*
%TD*%
%TO.C,MX59*%
X276701250Y-165100000D03*
D14*
X281781250Y-165100000D03*
D15*
X286861250Y-165100000D03*
%TD*%
D16*
%TO.C,D21*%
X128587500Y-70005750D03*
D17*
X128587500Y-77631750D03*
%TD*%
D16*
%TO.C,D59*%
X315912500Y-70005750D03*
D17*
X315912500Y-77631750D03*
%TD*%
D15*
%TO.C,MX46*%
X160020000Y-146050000D03*
D14*
X165100000Y-146050000D03*
D15*
X170180000Y-146050000D03*
%TD*%
D16*
%TO.C,D27*%
X150812500Y-70005750D03*
D17*
X150812500Y-77631750D03*
%TD*%
D18*
%TO.C,REF\u002A\u002A*%
X96837500Y-146050000D03*
%TD*%
D15*
%TO.C,MX58*%
X252888750Y-165100000D03*
D14*
X257968750Y-165100000D03*
D15*
X263048750Y-165100000D03*
%TD*%
D16*
%TO.C,D50*%
X254793750Y-70005750D03*
D17*
X254793750Y-77631750D03*
%TD*%
D16*
%TO.C,D57*%
X293687500Y-70005750D03*
D17*
X293687500Y-77631750D03*
%TD*%
D16*
%TO.C,D4*%
X68262500Y-70005750D03*
D17*
X68262500Y-77631750D03*
%TD*%
D15*
%TO.C,MX26*%
X279082500Y-107950000D03*
D14*
X284162500Y-107950000D03*
D15*
X289242500Y-107950000D03*
%TD*%
%TO.C,MX35*%
X188595000Y-127000000D03*
D14*
X193675000Y-127000000D03*
D15*
X198755000Y-127000000D03*
%TD*%
%TO.C,MX24*%
X240982500Y-107950000D03*
D14*
X246062500Y-107950000D03*
D15*
X251142500Y-107950000D03*
%TD*%
D16*
%TO.C,D9*%
X87312500Y-70005750D03*
D17*
X87312500Y-77631750D03*
%TD*%
D16*
%TO.C,D7*%
X79375000Y-70005750D03*
D17*
X79375000Y-77631750D03*
%TD*%
D16*
%TO.C,D63*%
X289080750Y-65881250D03*
D17*
X296706750Y-65881250D03*
%TD*%
D15*
%TO.C,MX38*%
X245745000Y-127000000D03*
D14*
X250825000Y-127000000D03*
D15*
X255905000Y-127000000D03*
%TD*%
%TO.C,MX21*%
X183832500Y-107950000D03*
D14*
X188912500Y-107950000D03*
D15*
X193992500Y-107950000D03*
%TD*%
%TO.C,MX19*%
X145732500Y-107950000D03*
D14*
X150812500Y-107950000D03*
D15*
X155892500Y-107950000D03*
%TD*%
%TO.C,MX25*%
X260032500Y-107950000D03*
D14*
X265112500Y-107950000D03*
D15*
X270192500Y-107950000D03*
%TD*%
D16*
%TO.C,D36*%
X182562500Y-70005750D03*
D17*
X182562500Y-77631750D03*
%TD*%
D18*
%TO.C,REF\u002A\u002A*%
X191293750Y-115887500D03*
%TD*%
D13*
%TO.C,MX14*%
X310324500Y-81915000D03*
D14*
X310324500Y-97155000D03*
D15*
X317182500Y-88900000D03*
D14*
X322262500Y-88900000D03*
D15*
X327342500Y-88900000D03*
D13*
X334200500Y-81915000D03*
D14*
X334200500Y-97155000D03*
%TD*%
D15*
%TO.C,MX61*%
X324326250Y-165100000D03*
D14*
X329406250Y-165100000D03*
D15*
X334486250Y-165100000D03*
%TD*%
%TO.C,MX28*%
X321945000Y-107950000D03*
D14*
X327025000Y-107950000D03*
D15*
X332105000Y-107950000D03*
%TD*%
%TO.C,MX12*%
X269557500Y-88900000D03*
D14*
X274637500Y-88900000D03*
D15*
X279717500Y-88900000D03*
%TD*%
D16*
%TO.C,D25*%
X142875000Y-70005750D03*
D17*
X142875000Y-77631750D03*
%TD*%
D15*
%TO.C,MX16*%
X88582500Y-107950000D03*
D14*
X93662500Y-107950000D03*
D15*
X98742500Y-107950000D03*
%TD*%
%TO.C,MX1*%
X60007500Y-88900000D03*
D14*
X65087500Y-88900000D03*
D15*
X70167500Y-88900000D03*
%TD*%
%TO.C,MX4*%
X117157500Y-88900000D03*
D14*
X122237500Y-88900000D03*
D15*
X127317500Y-88900000D03*
%TD*%
D18*
%TO.C,REF\u002A\u002A*%
X293687500Y-146050000D03*
%TD*%
D15*
%TO.C,MX11*%
X250507500Y-88900000D03*
D14*
X255587500Y-88900000D03*
D15*
X260667500Y-88900000D03*
%TD*%
D16*
%TO.C,D32*%
X168275000Y-70005750D03*
D17*
X168275000Y-77631750D03*
%TD*%
D15*
%TO.C,MX29*%
X67151250Y-127000000D03*
D14*
X72231250Y-127000000D03*
D15*
X77311250Y-127000000D03*
%TD*%
D16*
%TO.C,D37*%
X185737500Y-70005750D03*
D17*
X185737500Y-77631750D03*
%TD*%
D15*
%TO.C,MX22*%
X202882500Y-107950000D03*
D14*
X207962500Y-107950000D03*
D15*
X213042500Y-107950000D03*
%TD*%
%TO.C,MX9*%
X212407500Y-88900000D03*
D14*
X217487500Y-88900000D03*
D15*
X222567500Y-88900000D03*
%TD*%
D21*
%TO.C,U1*%
X201162500Y-51406250D03*
D22*
X200862500Y-54436250D03*
X196012500Y-54436250D03*
D21*
X195712500Y-51406250D03*
D23*
X207327500Y-51276250D03*
X207327500Y-53816250D03*
D24*
X207327500Y-56356250D03*
D23*
X207327500Y-58896250D03*
X207327500Y-61436250D03*
X207327500Y-63976250D03*
X207327500Y-66516250D03*
D24*
X207327500Y-69056250D03*
D23*
X207327500Y-71596250D03*
X207327500Y-74136250D03*
X207327500Y-76676250D03*
X207327500Y-79216250D03*
D24*
X207327500Y-81756250D03*
D23*
X207327500Y-84296250D03*
X207327500Y-86836250D03*
X207327500Y-89376250D03*
X207327500Y-91916250D03*
D24*
X207327500Y-94456250D03*
D23*
X207327500Y-96996250D03*
X207327500Y-99536250D03*
X189547500Y-99536250D03*
X189547500Y-96996250D03*
D24*
X189547500Y-94456250D03*
D23*
X189547500Y-91916250D03*
X189547500Y-89376250D03*
X189547500Y-86836250D03*
X189547500Y-84296250D03*
D24*
X189547500Y-81756250D03*
D23*
X189547500Y-79216250D03*
X189547500Y-76676250D03*
X189547500Y-74136250D03*
X189547500Y-71596250D03*
D24*
X189547500Y-69056250D03*
D23*
X189547500Y-66516250D03*
X189547500Y-63976250D03*
X189547500Y-61436250D03*
X189547500Y-58896250D03*
D24*
X189547500Y-56356250D03*
D23*
X189547500Y-53816250D03*
X189547500Y-51276250D03*
X200977500Y-99306250D03*
D24*
X198437500Y-99306250D03*
D23*
X195897500Y-99306250D03*
%TD*%
%LPD*%
M02*
