%TF.GenerationSoftware,KiCad,Pcbnew,7.0.4*%
%TF.CreationDate,2023-05-29T10:37:38-04:00*%
%TF.ProjectId,keyboard,6b657962-6f61-4726-942e-6b696361645f,rev?*%
%TF.SameCoordinates,Original*%
%TF.FileFunction,Copper,L1,Top*%
%TF.FilePolarity,Positive*%
%FSLAX46Y46*%
G04 Gerber Fmt 4.6, Leading zero omitted, Abs format (unit mm)*
G04 Created by KiCad (PCBNEW 7.0.4) date 2023-05-29 10:37:38*
%MOMM*%
%LPD*%
G01*
G04 APERTURE LIST*
G04 Aperture macros list*
%AMRoundRect*
0 Rectangle with rounded corners*
0 $1 Rounding radius*
0 $2 $3 $4 $5 $6 $7 $8 $9 X,Y pos of 4 corners*
0 Add a 4 corners polygon primitive as box body*
4,1,4,$2,$3,$4,$5,$6,$7,$8,$9,$2,$3,0*
0 Add four circle primitives for the rounded corners*
1,1,$1+$1,$2,$3*
1,1,$1+$1,$4,$5*
1,1,$1+$1,$6,$7*
1,1,$1+$1,$8,$9*
0 Add four rect primitives between the rounded corners*
20,1,$1+$1,$2,$3,$4,$5,0*
20,1,$1+$1,$4,$5,$6,$7,0*
20,1,$1+$1,$6,$7,$8,$9,0*
20,1,$1+$1,$8,$9,$2,$3,0*%
%AMHorizOval*
0 Thick line with rounded ends*
0 $1 width*
0 $2 $3 position (X,Y) of the first rounded end (center of the circle)*
0 $4 $5 position (X,Y) of the second rounded end (center of the circle)*
0 Add line between two ends*
20,1,$1,$2,$3,$4,$5,0*
0 Add two circle primitives to create the rounded ends*
1,1,$1,$2,$3*
1,1,$1,$4,$5*%
G04 Aperture macros list end*
%TA.AperFunction,ComponentPad*%
%ADD10HorizOval,2.250000X0.655001X0.730000X-0.655001X-0.730000X0*%
%TD*%
%TA.AperFunction,ComponentPad*%
%ADD11C,2.250000*%
%TD*%
%TA.AperFunction,ComponentPad*%
%ADD12HorizOval,2.250000X0.020000X0.290000X-0.020000X-0.290000X0*%
%TD*%
%TA.AperFunction,ComponentPad*%
%ADD13R,1.200000X1.200000*%
%TD*%
%TA.AperFunction,ComponentPad*%
%ADD14C,1.200000*%
%TD*%
%TA.AperFunction,ComponentPad*%
%ADD15C,5.000000*%
%TD*%
%TA.AperFunction,ComponentPad*%
%ADD16C,1.550000*%
%TD*%
%TA.AperFunction,ComponentPad*%
%ADD17RoundRect,1.000000X0.000000X-1.049999X0.000000X-1.049999X0.000000X1.049999X0.000000X1.049999X0*%
%TD*%
%TA.AperFunction,ComponentPad*%
%ADD18R,1.550000X1.550000*%
%TD*%
%TA.AperFunction,ComponentPad*%
%ADD19O,1.700000X1.700000*%
%TD*%
%TA.AperFunction,ComponentPad*%
%ADD20R,1.700000X1.700000*%
%TD*%
%TA.AperFunction,ViaPad*%
%ADD21C,0.800000*%
%TD*%
%TA.AperFunction,Conductor*%
%ADD22C,0.250000*%
%TD*%
G04 APERTURE END LIST*
D10*
%TO.P,MX42,1,COL*%
%TO.N,COL0*%
X73838751Y-142780000D03*
D11*
X74493750Y-142050000D03*
D12*
%TO.P,MX42,2,ROW*%
%TO.N,Net-(D4-A)*%
X79513750Y-141260000D03*
D11*
X79533750Y-140970000D03*
%TD*%
D13*
%TO.P,D43,1,K*%
%TO.N,ROW0*%
X230981250Y-70005750D03*
D14*
%TO.P,D43,2,A*%
%TO.N,Net-(D43-A)*%
X230981250Y-77631750D03*
%TD*%
D13*
%TO.P,D60,1,K*%
%TO.N,ROW3*%
X319087500Y-70005750D03*
D14*
%TO.P,D60,2,A*%
%TO.N,Net-(D60-A)*%
X319087500Y-77631750D03*
%TD*%
D13*
%TO.P,D52,1,K*%
%TO.N,ROW4*%
X261143750Y-70005750D03*
D14*
%TO.P,D52,2,A*%
%TO.N,Net-(D52-A)*%
X261143750Y-77631750D03*
%TD*%
D15*
%TO.P,REF\u002A\u002A,1*%
%TO.N,N/C*%
X83343750Y-107950000D03*
%TD*%
D10*
%TO.P,MX50,1,COL*%
%TO.N,COL9*%
X238145001Y-142780000D03*
D11*
X238800000Y-142050000D03*
D12*
%TO.P,MX50,2,ROW*%
%TO.N,Net-(D42-A)*%
X243820000Y-141260000D03*
D11*
X243840000Y-140970000D03*
%TD*%
D10*
%TO.P,MX33,1,COL*%
%TO.N,COL5*%
X152420001Y-123730000D03*
D11*
X153075000Y-123000000D03*
D12*
%TO.P,MX33,2,ROW*%
%TO.N,Net-(D24-A)*%
X158095000Y-122210000D03*
D11*
X158115000Y-121920000D03*
%TD*%
D13*
%TO.P,D46,1,K*%
%TO.N,ROW3*%
X240506250Y-70005750D03*
D14*
%TO.P,D46,2,A*%
%TO.N,Net-(D46-A)*%
X240506250Y-77631750D03*
%TD*%
D10*
%TO.P,MX5,1,COL*%
%TO.N,COL4*%
X138132501Y-85630000D03*
D11*
X138787500Y-84900000D03*
D12*
%TO.P,MX5,2,ROW*%
%TO.N,Net-(D18-A)*%
X143807500Y-84110000D03*
D11*
X143827500Y-83820000D03*
%TD*%
D10*
%TO.P,MX18,1,COL*%
%TO.N,COL3*%
X128607501Y-104680000D03*
D11*
X129262500Y-103950000D03*
D12*
%TO.P,MX18,2,ROW*%
%TO.N,Net-(D14-A)*%
X134282500Y-103160000D03*
D11*
X134302500Y-102870000D03*
%TD*%
D10*
%TO.P,MX7,1,COL*%
%TO.N,COL6*%
X176232501Y-85630000D03*
D11*
X176887500Y-84900000D03*
D12*
%TO.P,MX7,2,ROW*%
%TO.N,Net-(D26-A)*%
X181907500Y-84110000D03*
D11*
X181927500Y-83820000D03*
%TD*%
D13*
%TO.P,D8,1,K*%
%TO.N,ROW4*%
X82550000Y-70005750D03*
D14*
%TO.P,D8,2,A*%
%TO.N,Net-(D8-A)*%
X82550000Y-77631750D03*
%TD*%
D13*
%TO.P,D31,1,K*%
%TO.N,ROW1*%
X165100000Y-70005750D03*
D14*
%TO.P,D31,2,A*%
%TO.N,Net-(D31-A)*%
X165100000Y-77631750D03*
%TD*%
D13*
%TO.P,D44,1,K*%
%TO.N,ROW1*%
X234156250Y-70005750D03*
D14*
%TO.P,D44,2,A*%
%TO.N,Net-(D44-A)*%
X234156250Y-77631750D03*
%TD*%
D10*
%TO.P,MX20,1,COL*%
%TO.N,COL5*%
X166707501Y-104680000D03*
D11*
X167362500Y-103950000D03*
D12*
%TO.P,MX20,2,ROW*%
%TO.N,Net-(D23-A)*%
X172382500Y-103160000D03*
D11*
X172402500Y-102870000D03*
%TD*%
D10*
%TO.P,MX60,1,COL*%
%TO.N,COL12*%
X302438751Y-161830000D03*
D11*
X303093750Y-161100000D03*
D12*
%TO.P,MX60,2,ROW*%
%TO.N,Net-(D56-A)*%
X308113750Y-160310000D03*
D11*
X308133750Y-160020000D03*
%TD*%
D13*
%TO.P,D17,1,K*%
%TO.N,ROW4*%
X114300000Y-70005750D03*
D14*
%TO.P,D17,2,A*%
%TO.N,Net-(D17-A)*%
X114300000Y-77631750D03*
%TD*%
D13*
%TO.P,D11,1,K*%
%TO.N,ROW2*%
X93662500Y-70005750D03*
D14*
%TO.P,D11,2,A*%
%TO.N,Net-(D11-A)*%
X93662500Y-77631750D03*
%TD*%
D10*
%TO.P,MX27,1,COL*%
%TO.N,COL12*%
X300057501Y-104680000D03*
D11*
X300712500Y-103950000D03*
D12*
%TO.P,MX27,2,ROW*%
%TO.N,Net-(D54-A)*%
X305732500Y-103160000D03*
D11*
X305752500Y-102870000D03*
%TD*%
D10*
%TO.P,MX2,1,COL*%
%TO.N,COL1*%
X80982501Y-85630000D03*
D11*
X81637500Y-84900000D03*
D12*
%TO.P,MX2,2,ROW*%
%TO.N,Net-(D6-A)*%
X86657500Y-84110000D03*
D11*
X86677500Y-83820000D03*
%TD*%
D13*
%TO.P,D39,1,K*%
%TO.N,ROW0*%
X216693750Y-70005750D03*
D14*
%TO.P,D39,2,A*%
%TO.N,Net-(D39-A)*%
X216693750Y-77631750D03*
%TD*%
D13*
%TO.P,D48,1,K*%
%TO.N,ROW0*%
X248443750Y-70005750D03*
D14*
%TO.P,D48,2,A*%
%TO.N,Net-(D48-A)*%
X248443750Y-77631750D03*
%TD*%
D13*
%TO.P,D10,1,K*%
%TO.N,ROW1*%
X90487500Y-70005750D03*
D14*
%TO.P,D10,2,A*%
%TO.N,Net-(D10-A)*%
X90487500Y-77631750D03*
%TD*%
D13*
%TO.P,D2,1,K*%
%TO.N,ROW1*%
X61912500Y-70005750D03*
D14*
%TO.P,D2,2,A*%
%TO.N,Net-(D2-A)*%
X61912500Y-77631750D03*
%TD*%
D10*
%TO.P,MX30,1,COL*%
%TO.N,COL2*%
X95270001Y-123730000D03*
D11*
X95925000Y-123000000D03*
D12*
%TO.P,MX30,2,ROW*%
%TO.N,Net-(D11-A)*%
X100945000Y-122210000D03*
D11*
X100965000Y-121920000D03*
%TD*%
D10*
%TO.P,MX48,1,COL*%
%TO.N,COL7*%
X200045001Y-142780000D03*
D11*
X200700000Y-142050000D03*
D12*
%TO.P,MX48,2,ROW*%
%TO.N,Net-(D33-A)*%
X205720000Y-141260000D03*
D11*
X205740000Y-140970000D03*
%TD*%
D13*
%TO.P,D13,1,K*%
%TO.N,ROW0*%
X101600000Y-70005750D03*
D14*
%TO.P,D13,2,A*%
%TO.N,Net-(D13-A)*%
X101600000Y-77631750D03*
%TD*%
D13*
%TO.P,D41,1,K*%
%TO.N,ROW2*%
X223043750Y-70005750D03*
D14*
%TO.P,D41,2,A*%
%TO.N,Net-(D41-A)*%
X223043750Y-77631750D03*
%TD*%
D13*
%TO.P,D23,1,K*%
%TO.N,ROW1*%
X136525000Y-70005750D03*
D14*
%TO.P,D23,2,A*%
%TO.N,Net-(D23-A)*%
X136525000Y-77631750D03*
%TD*%
D10*
%TO.P,MX55,1,COL*%
%TO.N,COL1*%
X88126251Y-161830000D03*
D11*
X88781250Y-161100000D03*
D12*
%TO.P,MX55,2,ROW*%
%TO.N,Net-(D8-A)*%
X93801250Y-160310000D03*
D11*
X93821250Y-160020000D03*
%TD*%
D10*
%TO.P,MX6,1,COL*%
%TO.N,COL5*%
X157182501Y-85630000D03*
D11*
X157837500Y-84900000D03*
D12*
%TO.P,MX6,2,ROW*%
%TO.N,Net-(D22-A)*%
X162857500Y-84110000D03*
D11*
X162877500Y-83820000D03*
%TD*%
D13*
%TO.P,D64,1,K*%
%TO.N,ROW0*%
X315274500Y-65881250D03*
D14*
%TO.P,D64,2,A*%
%TO.N,Net-(D64-A)*%
X322900500Y-65881250D03*
%TD*%
D15*
%TO.P,,1*%
%TO.N,N/C*%
X95250000Y-93662500D03*
%TD*%
D13*
%TO.P,D33,1,K*%
%TO.N,ROW3*%
X171450000Y-70005750D03*
D14*
%TO.P,D33,2,A*%
%TO.N,Net-(D33-A)*%
X171450000Y-77631750D03*
%TD*%
D10*
%TO.P,MX51,1,COL*%
%TO.N,COL10*%
X257195001Y-142780000D03*
D11*
X257850000Y-142050000D03*
D12*
%TO.P,MX51,2,ROW*%
%TO.N,Net-(D46-A)*%
X262870000Y-141260000D03*
D11*
X262890000Y-140970000D03*
%TD*%
D10*
%TO.P,MX41,1,COL*%
%TO.N,COL13*%
X316726251Y-123730000D03*
D11*
X317381250Y-123000000D03*
D12*
%TO.P,MX41,2,ROW*%
%TO.N,Net-(D59-A)*%
X322401250Y-122210000D03*
D11*
X322421250Y-121920000D03*
%TD*%
D10*
%TO.P,MX3,1,COL*%
%TO.N,COL2*%
X100032501Y-85630000D03*
D11*
X100687500Y-84900000D03*
D12*
%TO.P,MX3,2,ROW*%
%TO.N,Net-(D9-A)*%
X105707500Y-84110000D03*
D11*
X105727500Y-83820000D03*
%TD*%
D13*
%TO.P,D15,1,K*%
%TO.N,ROW2*%
X107950000Y-70005750D03*
D14*
%TO.P,D15,2,A*%
%TO.N,Net-(D15-A)*%
X107950000Y-77631750D03*
%TD*%
D13*
%TO.P,D26,1,K*%
%TO.N,ROW0*%
X147637500Y-70005750D03*
D14*
%TO.P,D26,2,A*%
%TO.N,Net-(D26-A)*%
X147637500Y-77631750D03*
%TD*%
D13*
%TO.P,D30,1,K*%
%TO.N,ROW0*%
X161925000Y-70005750D03*
D14*
%TO.P,D30,2,A*%
%TO.N,Net-(D30-A)*%
X161925000Y-77631750D03*
%TD*%
D13*
%TO.P,D3,1,K*%
%TO.N,ROW2*%
X65087500Y-70005750D03*
D14*
%TO.P,D3,2,A*%
%TO.N,Net-(D3-A)*%
X65087500Y-77631750D03*
%TD*%
D10*
%TO.P,MX44,1,COL*%
%TO.N,COL3*%
X123845001Y-142780000D03*
D11*
X124500000Y-142050000D03*
D12*
%TO.P,MX44,2,ROW*%
%TO.N,Net-(D16-A)*%
X129520000Y-141260000D03*
D11*
X129540000Y-140970000D03*
%TD*%
D16*
%TO.P,ENC3,1,1*%
%TO.N,COL13*%
X329287500Y-63643750D03*
%TO.P,ENC3,2,2*%
%TO.N,Net-(D64-A)*%
X334287500Y-63643750D03*
D17*
%TO.P,ENC3,3,MNT_1*%
%TO.N,unconnected-(ENC3-MNT_1-Pad3)*%
X326087500Y-70643750D03*
%TO.P,ENC3,4,MNT_2*%
%TO.N,unconnected-(ENC3-MNT_2-Pad4)*%
X337487500Y-70643750D03*
D18*
%TO.P,ENC3,A,CHANNEL_A*%
%TO.N,ENC3A*%
X329287500Y-78143750D03*
D16*
%TO.P,ENC3,B,CHANNEL_B*%
%TO.N,ENC3B*%
X334287500Y-78143750D03*
%TO.P,ENC3,C,COMMON*%
%TO.N,GND*%
X331787500Y-78143750D03*
%TD*%
D13*
%TO.P,D22,1,K*%
%TO.N,ROW0*%
X133350000Y-70005750D03*
D14*
%TO.P,D22,2,A*%
%TO.N,Net-(D22-A)*%
X133350000Y-77631750D03*
%TD*%
D13*
%TO.P,D45,1,K*%
%TO.N,ROW2*%
X237331250Y-70005750D03*
D14*
%TO.P,D45,2,A*%
%TO.N,Net-(D45-A)*%
X237331250Y-77631750D03*
%TD*%
D10*
%TO.P,MX56,1,COL*%
%TO.N,COL3*%
X111938751Y-161830000D03*
D11*
X112593750Y-161100000D03*
D12*
%TO.P,MX56,2,ROW*%
%TO.N,Net-(D17-A)*%
X117613750Y-160310000D03*
D11*
X117633750Y-160020000D03*
%TD*%
D13*
%TO.P,D56,1,K*%
%TO.N,ROW4*%
X290512500Y-70005750D03*
D14*
%TO.P,D56,2,A*%
%TO.N,Net-(D56-A)*%
X290512500Y-77631750D03*
%TD*%
D10*
%TO.P,MX32,1,COL*%
%TO.N,COL4*%
X133370001Y-123730000D03*
D11*
X134025000Y-123000000D03*
D12*
%TO.P,MX32,2,ROW*%
%TO.N,Net-(D20-A)*%
X139045000Y-122210000D03*
D11*
X139065000Y-121920000D03*
%TD*%
D13*
%TO.P,D18,1,K*%
%TO.N,ROW0*%
X119062500Y-70005750D03*
D14*
%TO.P,D18,2,A*%
%TO.N,Net-(D18-A)*%
X119062500Y-77631750D03*
%TD*%
D10*
%TO.P,MX34,1,COL*%
%TO.N,COL6*%
X171470001Y-123730000D03*
D11*
X172125000Y-123000000D03*
D12*
%TO.P,MX34,2,ROW*%
%TO.N,Net-(D28-A)*%
X177145000Y-122210000D03*
D11*
X177165000Y-121920000D03*
%TD*%
D10*
%TO.P,MX10,1,COL*%
%TO.N,COL9*%
X233382501Y-85630000D03*
D11*
X234037500Y-84900000D03*
D12*
%TO.P,MX10,2,ROW*%
%TO.N,Net-(D39-A)*%
X239057500Y-84110000D03*
D11*
X239077500Y-83820000D03*
%TD*%
D13*
%TO.P,D19,1,K*%
%TO.N,ROW1*%
X122237500Y-70005750D03*
D14*
%TO.P,D19,2,A*%
%TO.N,Net-(D19-A)*%
X122237500Y-77631750D03*
%TD*%
D13*
%TO.P,D38,1,K*%
%TO.N,ROW3*%
X211931250Y-70005750D03*
D14*
%TO.P,D38,2,A*%
%TO.N,Net-(D38-A)*%
X211931250Y-77631750D03*
%TD*%
D13*
%TO.P,D40,1,K*%
%TO.N,ROW1*%
X219868750Y-70005750D03*
D14*
%TO.P,D40,2,A*%
%TO.N,Net-(D40-A)*%
X219868750Y-77631750D03*
%TD*%
D16*
%TO.P,ENC1,1,1*%
%TO.N,COL11*%
X278487500Y-63643750D03*
%TO.P,ENC1,2,2*%
%TO.N,Net-(D62-A)*%
X283487500Y-63643750D03*
D17*
%TO.P,ENC1,3,MNT_1*%
%TO.N,unconnected-(ENC1-MNT_1-Pad3)*%
X275287500Y-70643750D03*
%TO.P,ENC1,4,MNT_2*%
%TO.N,unconnected-(ENC1-MNT_2-Pad4)*%
X286687500Y-70643750D03*
D18*
%TO.P,ENC1,A,CHANNEL_A*%
%TO.N,ENC1A*%
X278487500Y-78143750D03*
D16*
%TO.P,ENC1,B,CHANNEL_B*%
%TO.N,ENC1B*%
X283487500Y-78143750D03*
%TO.P,ENC1,C,COMMON*%
%TO.N,GND*%
X280987500Y-78143750D03*
%TD*%
D10*
%TO.P,MX52,1,COL*%
%TO.N,COL11*%
X276245001Y-142780000D03*
D11*
X276900000Y-142050000D03*
D12*
%TO.P,MX52,2,ROW*%
%TO.N,Net-(D51-A)*%
X281920000Y-141260000D03*
D11*
X281940000Y-140970000D03*
%TD*%
D10*
%TO.P,MX17,1,COL*%
%TO.N,COL2*%
X109557501Y-104680000D03*
D11*
X110212500Y-103950000D03*
D12*
%TO.P,MX17,2,ROW*%
%TO.N,Net-(D10-A)*%
X115232500Y-103160000D03*
D11*
X115252500Y-102870000D03*
%TD*%
D13*
%TO.P,D53,1,K*%
%TO.N,ROW0*%
X265906250Y-70005750D03*
D14*
%TO.P,D53,2,A*%
%TO.N,Net-(D53-A)*%
X265906250Y-77631750D03*
%TD*%
D13*
%TO.P,D1,1,K*%
%TO.N,ROW0*%
X58737500Y-70005750D03*
D14*
%TO.P,D1,2,A*%
%TO.N,Net-(D1-A)*%
X58737500Y-77631750D03*
%TD*%
D10*
%TO.P,MX39,1,COL*%
%TO.N,COL11*%
X266720001Y-123730000D03*
D11*
X267375000Y-123000000D03*
D12*
%TO.P,MX39,2,ROW*%
%TO.N,Net-(D50-A)*%
X272395000Y-122210000D03*
D11*
X272415000Y-121920000D03*
%TD*%
D10*
%TO.P,MX43,1,COL*%
%TO.N,COL2*%
X104795001Y-142780000D03*
D11*
X105450000Y-142050000D03*
D12*
%TO.P,MX43,2,ROW*%
%TO.N,Net-(D12-A)*%
X110470000Y-141260000D03*
D11*
X110490000Y-140970000D03*
%TD*%
D13*
%TO.P,D42,1,K*%
%TO.N,ROW3*%
X226218750Y-70005750D03*
D14*
%TO.P,D42,2,A*%
%TO.N,Net-(D42-A)*%
X226218750Y-77631750D03*
%TD*%
D16*
%TO.P,ENC2,1,1*%
%TO.N,COL12*%
X303887500Y-63643750D03*
%TO.P,ENC2,2,2*%
%TO.N,Net-(D63-A)*%
X308887500Y-63643750D03*
D17*
%TO.P,ENC2,3,MNT_1*%
%TO.N,unconnected-(ENC2-MNT_1-Pad3)*%
X300687500Y-70643750D03*
%TO.P,ENC2,4,MNT_2*%
%TO.N,unconnected-(ENC2-MNT_2-Pad4)*%
X312087500Y-70643750D03*
D18*
%TO.P,ENC2,A,CHANNEL_A*%
%TO.N,ENC2A*%
X303887500Y-78143750D03*
D16*
%TO.P,ENC2,B,CHANNEL_B*%
%TO.N,ENC2B*%
X308887500Y-78143750D03*
%TO.P,ENC2,C,COMMON*%
%TO.N,GND*%
X306387500Y-78143750D03*
%TD*%
D13*
%TO.P,D47,1,K*%
%TO.N,ROW4*%
X243681250Y-70005750D03*
D14*
%TO.P,D47,2,A*%
%TO.N,Net-(D47-A)*%
X243681250Y-77631750D03*
%TD*%
D10*
%TO.P,MX45,1,COL*%
%TO.N,COL4*%
X142895001Y-142780000D03*
D11*
X143550000Y-142050000D03*
D12*
%TO.P,MX45,2,ROW*%
%TO.N,Net-(D21-A)*%
X148570000Y-141260000D03*
D11*
X148590000Y-140970000D03*
%TD*%
D13*
%TO.P,D49,1,K*%
%TO.N,ROW1*%
X251618750Y-70005750D03*
D14*
%TO.P,D49,2,A*%
%TO.N,Net-(D49-A)*%
X251618750Y-77631750D03*
%TD*%
D13*
%TO.P,D24,1,K*%
%TO.N,ROW2*%
X139700000Y-70005750D03*
D14*
%TO.P,D24,2,A*%
%TO.N,Net-(D24-A)*%
X139700000Y-77631750D03*
%TD*%
D15*
%TO.P,REF\u002A\u002A,1*%
%TO.N,N/C*%
X315118750Y-107950000D03*
%TD*%
D13*
%TO.P,D29,1,K*%
%TO.N,ROW3*%
X157162500Y-70005750D03*
D14*
%TO.P,D29,2,A*%
%TO.N,Net-(D29-A)*%
X157162500Y-77631750D03*
%TD*%
D10*
%TO.P,MX37,1,COL*%
%TO.N,COL9*%
X228620001Y-123730000D03*
D11*
X229275000Y-123000000D03*
D12*
%TO.P,MX37,2,ROW*%
%TO.N,Net-(D41-A)*%
X234295000Y-122210000D03*
D11*
X234315000Y-121920000D03*
%TD*%
D15*
%TO.P,REF\u002A\u002A,1*%
%TO.N,N/C*%
X95250000Y-93662500D03*
%TD*%
D13*
%TO.P,D28,1,K*%
%TO.N,ROW2*%
X153987500Y-70005750D03*
D14*
%TO.P,D28,2,A*%
%TO.N,Net-(D28-A)*%
X153987500Y-77631750D03*
%TD*%
D10*
%TO.P,MX40,1,COL*%
%TO.N,COL12*%
X285770001Y-123730000D03*
D11*
X286425000Y-123000000D03*
D12*
%TO.P,MX40,2,ROW*%
%TO.N,Net-(D55-A)*%
X291445000Y-122210000D03*
D11*
X291465000Y-121920000D03*
%TD*%
D13*
%TO.P,D58,1,K*%
%TO.N,ROW1*%
X296862500Y-70005750D03*
D14*
%TO.P,D58,2,A*%
%TO.N,Net-(D58-A)*%
X296862500Y-77631750D03*
%TD*%
D13*
%TO.P,D14,1,K*%
%TO.N,ROW1*%
X104775000Y-70005750D03*
D14*
%TO.P,D14,2,A*%
%TO.N,Net-(D14-A)*%
X104775000Y-77631750D03*
%TD*%
D13*
%TO.P,D6,1,K*%
%TO.N,ROW0*%
X76200000Y-70005750D03*
D14*
%TO.P,D6,2,A*%
%TO.N,Net-(D6-A)*%
X76200000Y-77631750D03*
%TD*%
D10*
%TO.P,MX54,1,COL*%
%TO.N,COL0*%
X64313751Y-161830000D03*
D11*
X64968750Y-161100000D03*
D12*
%TO.P,MX54,2,ROW*%
%TO.N,Net-(D5-A)*%
X69988750Y-160310000D03*
D11*
X70008750Y-160020000D03*
%TD*%
D13*
%TO.P,D34,1,K*%
%TO.N,ROW4*%
X174625000Y-70005750D03*
D14*
%TO.P,D34,2,A*%
%TO.N,Net-(D34-A)*%
X174625000Y-77631750D03*
%TD*%
D10*
%TO.P,MX15,1,COL*%
%TO.N,COL0*%
X66695001Y-104680000D03*
D11*
X67350000Y-103950000D03*
D12*
%TO.P,MX15,2,ROW*%
%TO.N,Net-(D2-A)*%
X72370000Y-103160000D03*
D11*
X72390000Y-102870000D03*
%TD*%
D10*
%TO.P,MX36,1,COL*%
%TO.N,COL8*%
X209570001Y-123730000D03*
D11*
X210225000Y-123000000D03*
D12*
%TO.P,MX36,2,ROW*%
%TO.N,Net-(D37-A)*%
X215245000Y-122210000D03*
D11*
X215265000Y-121920000D03*
%TD*%
D10*
%TO.P,MX49,1,COL*%
%TO.N,COL8*%
X219095001Y-142780000D03*
D11*
X219750000Y-142050000D03*
D12*
%TO.P,MX49,2,ROW*%
%TO.N,Net-(D38-A)*%
X224770000Y-141260000D03*
D11*
X224790000Y-140970000D03*
%TD*%
D13*
%TO.P,D62,1,K*%
%TO.N,ROW0*%
X265268250Y-65881250D03*
D14*
%TO.P,D62,2,A*%
%TO.N,Net-(D62-A)*%
X272894250Y-65881250D03*
%TD*%
D13*
%TO.P,D20,1,K*%
%TO.N,ROW2*%
X125412500Y-70005750D03*
D14*
%TO.P,D20,2,A*%
%TO.N,Net-(D20-A)*%
X125412500Y-77631750D03*
%TD*%
D10*
%TO.P,MX31,1,COL*%
%TO.N,COL3*%
X114320001Y-123730000D03*
D11*
X114975000Y-123000000D03*
D12*
%TO.P,MX31,2,ROW*%
%TO.N,Net-(D15-A)*%
X119995000Y-122210000D03*
D11*
X120015000Y-121920000D03*
%TD*%
D10*
%TO.P,MX13,1,COL*%
%TO.N,COL12*%
X290532501Y-85630000D03*
D11*
X291187500Y-84900000D03*
D12*
%TO.P,MX13,2,ROW*%
%TO.N,Net-(D53-A)*%
X296207500Y-84110000D03*
D11*
X296227500Y-83820000D03*
%TD*%
D13*
%TO.P,D12,1,K*%
%TO.N,ROW3*%
X96837500Y-70005750D03*
D14*
%TO.P,D12,2,A*%
%TO.N,Net-(D12-A)*%
X96837500Y-77631750D03*
%TD*%
D10*
%TO.P,MX53,1,COL*%
%TO.N,COL13*%
X311963751Y-142780000D03*
D11*
X312618750Y-142050000D03*
D12*
%TO.P,MX53,2,ROW*%
%TO.N,Net-(D60-A)*%
X317638750Y-141260000D03*
D11*
X317658750Y-140970000D03*
%TD*%
D13*
%TO.P,D35,1,K*%
%TO.N,ROW0*%
X179387500Y-70005750D03*
D14*
%TO.P,D35,2,A*%
%TO.N,Net-(D35-A)*%
X179387500Y-77631750D03*
%TD*%
D13*
%TO.P,D16,1,K*%
%TO.N,ROW3*%
X111125000Y-70005750D03*
D14*
%TO.P,D16,2,A*%
%TO.N,Net-(D16-A)*%
X111125000Y-77631750D03*
%TD*%
D13*
%TO.P,D5,1,K*%
%TO.N,ROW4*%
X71437500Y-70005750D03*
D14*
%TO.P,D5,2,A*%
%TO.N,Net-(D5-A)*%
X71437500Y-77631750D03*
%TD*%
D13*
%TO.P,D61,1,K*%
%TO.N,ROW4*%
X322262500Y-70005750D03*
D14*
%TO.P,D61,2,A*%
%TO.N,Net-(D61-A)*%
X322262500Y-77631750D03*
%TD*%
D13*
%TO.P,D51,1,K*%
%TO.N,ROW3*%
X257968750Y-70005750D03*
D14*
%TO.P,D51,2,A*%
%TO.N,Net-(D51-A)*%
X257968750Y-77631750D03*
%TD*%
D15*
%TO.P,REF\u002A\u002A,1*%
%TO.N,N/C*%
X304800000Y-91281250D03*
%TD*%
D10*
%TO.P,MX23,1,COL*%
%TO.N,COL8*%
X223857501Y-104680000D03*
D11*
X224512500Y-103950000D03*
D12*
%TO.P,MX23,2,ROW*%
%TO.N,Net-(D36-A)*%
X229532500Y-103160000D03*
D11*
X229552500Y-102870000D03*
%TD*%
D10*
%TO.P,MX57,1,COL*%
%TO.N,COL7*%
X183376251Y-161830000D03*
D11*
X184031250Y-161100000D03*
D12*
%TO.P,MX57,2,ROW*%
%TO.N,Net-(D34-A)*%
X189051250Y-160310000D03*
D11*
X189071250Y-160020000D03*
%TD*%
D13*
%TO.P,D55,1,K*%
%TO.N,ROW2*%
X272256250Y-70005750D03*
D14*
%TO.P,D55,2,A*%
%TO.N,Net-(D55-A)*%
X272256250Y-77631750D03*
%TD*%
D10*
%TO.P,MX8,1,COL*%
%TO.N,COL7*%
X195282501Y-85630000D03*
D11*
X195937500Y-84900000D03*
D12*
%TO.P,MX8,2,ROW*%
%TO.N,Net-(D30-A)*%
X200957500Y-84110000D03*
D11*
X200977500Y-83820000D03*
%TD*%
D13*
%TO.P,D54,1,K*%
%TO.N,ROW1*%
X269081250Y-70005750D03*
D14*
%TO.P,D54,2,A*%
%TO.N,Net-(D54-A)*%
X269081250Y-77631750D03*
%TD*%
D10*
%TO.P,MX47,1,COL*%
%TO.N,COL6*%
X180995001Y-142780000D03*
D11*
X181650000Y-142050000D03*
D12*
%TO.P,MX47,2,ROW*%
%TO.N,Net-(D29-A)*%
X186670000Y-141260000D03*
D11*
X186690000Y-140970000D03*
%TD*%
D10*
%TO.P,MX59,1,COL*%
%TO.N,COL11*%
X278626251Y-161830000D03*
D11*
X279281250Y-161100000D03*
D12*
%TO.P,MX59,2,ROW*%
%TO.N,Net-(D52-A)*%
X284301250Y-160310000D03*
D11*
X284321250Y-160020000D03*
%TD*%
D13*
%TO.P,D21,1,K*%
%TO.N,ROW3*%
X128587500Y-70005750D03*
D14*
%TO.P,D21,2,A*%
%TO.N,Net-(D21-A)*%
X128587500Y-77631750D03*
%TD*%
D13*
%TO.P,D59,1,K*%
%TO.N,ROW2*%
X315912500Y-70005750D03*
D14*
%TO.P,D59,2,A*%
%TO.N,Net-(D59-A)*%
X315912500Y-77631750D03*
%TD*%
D10*
%TO.P,MX46,1,COL*%
%TO.N,COL5*%
X161945001Y-142780000D03*
D11*
X162600000Y-142050000D03*
D12*
%TO.P,MX46,2,ROW*%
%TO.N,Net-(D25-A)*%
X167620000Y-141260000D03*
D11*
X167640000Y-140970000D03*
%TD*%
D13*
%TO.P,D27,1,K*%
%TO.N,ROW1*%
X150812500Y-70005750D03*
D14*
%TO.P,D27,2,A*%
%TO.N,Net-(D27-A)*%
X150812500Y-77631750D03*
%TD*%
D15*
%TO.P,REF\u002A\u002A,1*%
%TO.N,N/C*%
X96837500Y-146050000D03*
%TD*%
D10*
%TO.P,MX58,1,COL*%
%TO.N,COL10*%
X254813751Y-161830000D03*
D11*
X255468750Y-161100000D03*
D12*
%TO.P,MX58,2,ROW*%
%TO.N,Net-(D47-A)*%
X260488750Y-160310000D03*
D11*
X260508750Y-160020000D03*
%TD*%
D13*
%TO.P,D50,1,K*%
%TO.N,ROW2*%
X254793750Y-70005750D03*
D14*
%TO.P,D50,2,A*%
%TO.N,Net-(D50-A)*%
X254793750Y-77631750D03*
%TD*%
D13*
%TO.P,D57,1,K*%
%TO.N,ROW0*%
X293687500Y-70005750D03*
D14*
%TO.P,D57,2,A*%
%TO.N,Net-(D57-A)*%
X293687500Y-77631750D03*
%TD*%
D13*
%TO.P,D4,1,K*%
%TO.N,ROW3*%
X68262500Y-70005750D03*
D14*
%TO.P,D4,2,A*%
%TO.N,Net-(D4-A)*%
X68262500Y-77631750D03*
%TD*%
D10*
%TO.P,MX26,1,COL*%
%TO.N,COL11*%
X281007501Y-104680000D03*
D11*
X281662500Y-103950000D03*
D12*
%TO.P,MX26,2,ROW*%
%TO.N,Net-(D49-A)*%
X286682500Y-103160000D03*
D11*
X286702500Y-102870000D03*
%TD*%
D10*
%TO.P,MX35,1,COL*%
%TO.N,COL7*%
X190520001Y-123730000D03*
D11*
X191175000Y-123000000D03*
D12*
%TO.P,MX35,2,ROW*%
%TO.N,Net-(D32-A)*%
X196195000Y-122210000D03*
D11*
X196215000Y-121920000D03*
%TD*%
D10*
%TO.P,MX24,1,COL*%
%TO.N,COL9*%
X242907501Y-104680000D03*
D11*
X243562500Y-103950000D03*
D12*
%TO.P,MX24,2,ROW*%
%TO.N,Net-(D40-A)*%
X248582500Y-103160000D03*
D11*
X248602500Y-102870000D03*
%TD*%
D13*
%TO.P,D9,1,K*%
%TO.N,ROW0*%
X87312500Y-70005750D03*
D14*
%TO.P,D9,2,A*%
%TO.N,Net-(D9-A)*%
X87312500Y-77631750D03*
%TD*%
D13*
%TO.P,D7,1,K*%
%TO.N,ROW1*%
X79375000Y-70005750D03*
D14*
%TO.P,D7,2,A*%
%TO.N,Net-(D7-A)*%
X79375000Y-77631750D03*
%TD*%
D13*
%TO.P,D63,1,K*%
%TO.N,ROW0*%
X289080750Y-65881250D03*
D14*
%TO.P,D63,2,A*%
%TO.N,Net-(D63-A)*%
X296706750Y-65881250D03*
%TD*%
D10*
%TO.P,MX38,1,COL*%
%TO.N,COL10*%
X247670001Y-123730000D03*
D11*
X248325000Y-123000000D03*
D12*
%TO.P,MX38,2,ROW*%
%TO.N,Net-(D45-A)*%
X253345000Y-122210000D03*
D11*
X253365000Y-121920000D03*
%TD*%
D10*
%TO.P,MX21,1,COL*%
%TO.N,COL6*%
X185757501Y-104680000D03*
D11*
X186412500Y-103950000D03*
D12*
%TO.P,MX21,2,ROW*%
%TO.N,Net-(D27-A)*%
X191432500Y-103160000D03*
D11*
X191452500Y-102870000D03*
%TD*%
D10*
%TO.P,MX19,1,COL*%
%TO.N,COL4*%
X147657501Y-104680000D03*
D11*
X148312500Y-103950000D03*
D12*
%TO.P,MX19,2,ROW*%
%TO.N,Net-(D19-A)*%
X153332500Y-103160000D03*
D11*
X153352500Y-102870000D03*
%TD*%
D10*
%TO.P,MX25,1,COL*%
%TO.N,COL10*%
X261957501Y-104680000D03*
D11*
X262612500Y-103950000D03*
D12*
%TO.P,MX25,2,ROW*%
%TO.N,Net-(D44-A)*%
X267632500Y-103160000D03*
D11*
X267652500Y-102870000D03*
%TD*%
D13*
%TO.P,D36,1,K*%
%TO.N,ROW1*%
X182562500Y-70005750D03*
D14*
%TO.P,D36,2,A*%
%TO.N,Net-(D36-A)*%
X182562500Y-77631750D03*
%TD*%
D15*
%TO.P,REF\u002A\u002A,1*%
%TO.N,N/C*%
X191293750Y-115887500D03*
%TD*%
D10*
%TO.P,MX14,1,COL*%
%TO.N,COL13*%
X319107501Y-85630000D03*
D11*
X319762500Y-84900000D03*
D12*
%TO.P,MX14,2,ROW*%
%TO.N,Net-(D57-A)*%
X324782500Y-84110000D03*
D11*
X324802500Y-83820000D03*
%TD*%
D10*
%TO.P,MX61,1,COL*%
%TO.N,COL13*%
X326251251Y-161830000D03*
D11*
X326906250Y-161100000D03*
D12*
%TO.P,MX61,2,ROW*%
%TO.N,Net-(D61-A)*%
X331926250Y-160310000D03*
D11*
X331946250Y-160020000D03*
%TD*%
D10*
%TO.P,MX28,1,COL*%
%TO.N,COL13*%
X323870001Y-104680000D03*
D11*
X324525000Y-103950000D03*
D12*
%TO.P,MX28,2,ROW*%
%TO.N,Net-(D58-A)*%
X329545000Y-103160000D03*
D11*
X329565000Y-102870000D03*
%TD*%
D10*
%TO.P,MX12,1,COL*%
%TO.N,COL11*%
X271482501Y-85630000D03*
D11*
X272137500Y-84900000D03*
D12*
%TO.P,MX12,2,ROW*%
%TO.N,Net-(D48-A)*%
X277157500Y-84110000D03*
D11*
X277177500Y-83820000D03*
%TD*%
D13*
%TO.P,D25,1,K*%
%TO.N,ROW3*%
X142875000Y-70005750D03*
D14*
%TO.P,D25,2,A*%
%TO.N,Net-(D25-A)*%
X142875000Y-77631750D03*
%TD*%
D10*
%TO.P,MX16,1,COL*%
%TO.N,COL1*%
X90507501Y-104680000D03*
D11*
X91162500Y-103950000D03*
D12*
%TO.P,MX16,2,ROW*%
%TO.N,Net-(D7-A)*%
X96182500Y-103160000D03*
D11*
X96202500Y-102870000D03*
%TD*%
D10*
%TO.P,MX1,1,COL*%
%TO.N,COL0*%
X61932501Y-85630000D03*
D11*
X62587500Y-84900000D03*
D12*
%TO.P,MX1,2,ROW*%
%TO.N,Net-(D1-A)*%
X67607500Y-84110000D03*
D11*
X67627500Y-83820000D03*
%TD*%
D10*
%TO.P,MX4,1,COL*%
%TO.N,COL3*%
X119082501Y-85630000D03*
D11*
X119737500Y-84900000D03*
D12*
%TO.P,MX4,2,ROW*%
%TO.N,Net-(D13-A)*%
X124757500Y-84110000D03*
D11*
X124777500Y-83820000D03*
%TD*%
D15*
%TO.P,REF\u002A\u002A,1*%
%TO.N,N/C*%
X293687500Y-146050000D03*
%TD*%
D10*
%TO.P,MX11,1,COL*%
%TO.N,COL10*%
X252432501Y-85630000D03*
D11*
X253087500Y-84900000D03*
D12*
%TO.P,MX11,2,ROW*%
%TO.N,Net-(D43-A)*%
X258107500Y-84110000D03*
D11*
X258127500Y-83820000D03*
%TD*%
D13*
%TO.P,D32,1,K*%
%TO.N,ROW2*%
X168275000Y-70005750D03*
D14*
%TO.P,D32,2,A*%
%TO.N,Net-(D32-A)*%
X168275000Y-77631750D03*
%TD*%
D10*
%TO.P,MX29,1,COL*%
%TO.N,COL0*%
X69076251Y-123730000D03*
D11*
X69731250Y-123000000D03*
D12*
%TO.P,MX29,2,ROW*%
%TO.N,Net-(D3-A)*%
X74751250Y-122210000D03*
D11*
X74771250Y-121920000D03*
%TD*%
D13*
%TO.P,D37,1,K*%
%TO.N,ROW2*%
X185737500Y-70005750D03*
D14*
%TO.P,D37,2,A*%
%TO.N,Net-(D37-A)*%
X185737500Y-77631750D03*
%TD*%
D10*
%TO.P,MX22,1,COL*%
%TO.N,COL7*%
X204807501Y-104680000D03*
D11*
X205462500Y-103950000D03*
D12*
%TO.P,MX22,2,ROW*%
%TO.N,Net-(D31-A)*%
X210482500Y-103160000D03*
D11*
X210502500Y-102870000D03*
%TD*%
D10*
%TO.P,MX9,1,COL*%
%TO.N,COL8*%
X214332501Y-85630000D03*
D11*
X214987500Y-84900000D03*
D12*
%TO.P,MX9,2,ROW*%
%TO.N,Net-(D35-A)*%
X220007500Y-84110000D03*
D11*
X220027500Y-83820000D03*
%TD*%
D19*
%TO.P,U1,1,GPIO0*%
%TO.N,ENC3B*%
X207327500Y-51276250D03*
%TO.P,U1,2,GPIO1*%
%TO.N,ENC3A*%
X207327500Y-53816250D03*
D20*
%TO.P,U1,3,GND*%
%TO.N,unconnected-(U1-GND-Pad3)*%
X207327500Y-56356250D03*
D19*
%TO.P,U1,4,GPIO2*%
%TO.N,ROW4*%
X207327500Y-58896250D03*
%TO.P,U1,5,GPIO3*%
%TO.N,ROW3*%
X207327500Y-61436250D03*
%TO.P,U1,6,GPIO4*%
%TO.N,ROW2*%
X207327500Y-63976250D03*
%TO.P,U1,7,GPIO5*%
%TO.N,ROW1*%
X207327500Y-66516250D03*
D20*
%TO.P,U1,8,GND*%
%TO.N,unconnected-(U1-GND-Pad8)*%
X207327500Y-69056250D03*
D19*
%TO.P,U1,9,GPIO6*%
%TO.N,ENC2B*%
X207327500Y-71596250D03*
%TO.P,U1,10,GPIO7*%
%TO.N,ENC2A*%
X207327500Y-74136250D03*
%TO.P,U1,11,GPIO8*%
%TO.N,ENC1B*%
X207327500Y-76676250D03*
%TO.P,U1,12,GPIO9*%
%TO.N,ENC1A*%
X207327500Y-79216250D03*
D20*
%TO.P,U1,13,GND*%
%TO.N,unconnected-(U1-GND-Pad13)*%
X207327500Y-81756250D03*
D19*
%TO.P,U1,14,GPIO10*%
%TO.N,COL8*%
X207327500Y-84296250D03*
%TO.P,U1,15,GPIO11*%
%TO.N,COL9*%
X207327500Y-86836250D03*
%TO.P,U1,16,GPIO12*%
%TO.N,COL10*%
X207327500Y-89376250D03*
%TO.P,U1,17,GPIO13*%
%TO.N,COL11*%
X207327500Y-91916250D03*
D20*
%TO.P,U1,18,GND*%
%TO.N,GND*%
X207327500Y-94456250D03*
D19*
%TO.P,U1,19,GPIO14*%
%TO.N,COL12*%
X207327500Y-96996250D03*
%TO.P,U1,20,GPIO15*%
%TO.N,COL13*%
X207327500Y-99536250D03*
%TO.P,U1,21,GPIO16*%
%TO.N,COL2*%
X189547500Y-99536250D03*
%TO.P,U1,22,GPIO17*%
%TO.N,COL3*%
X189547500Y-96996250D03*
D20*
%TO.P,U1,23,GND*%
%TO.N,unconnected-(U1-GND-Pad23)*%
X189547500Y-94456250D03*
D19*
%TO.P,U1,24,GPIO18*%
%TO.N,COL4*%
X189547500Y-91916250D03*
%TO.P,U1,25,GPIO19*%
%TO.N,COL5*%
X189547500Y-89376250D03*
%TO.P,U1,26,GPIO20*%
%TO.N,COL6*%
X189547500Y-86836250D03*
%TO.P,U1,27,GPIO21*%
%TO.N,COL7*%
X189547500Y-84296250D03*
D20*
%TO.P,U1,28,GND*%
%TO.N,unconnected-(U1-GND-Pad28)*%
X189547500Y-81756250D03*
D19*
%TO.P,U1,29,GPIO22*%
%TO.N,COL1*%
X189547500Y-79216250D03*
%TO.P,U1,30,RUN*%
%TO.N,unconnected-(U1-RUN-Pad30)*%
X189547500Y-76676250D03*
%TO.P,U1,31,GPIO26_ADC0*%
%TO.N,COL0*%
X189547500Y-74136250D03*
%TO.P,U1,32,GPIO27_ADC1*%
%TO.N,Net-(U1-GPIO27_ADC1)*%
X189547500Y-71596250D03*
D20*
%TO.P,U1,33,AGND*%
%TO.N,unconnected-(U1-AGND-Pad33)*%
X189547500Y-69056250D03*
D19*
%TO.P,U1,34,GPIO28_ADC2*%
%TO.N,ROW0*%
X189547500Y-66516250D03*
%TO.P,U1,35,ADC_VREF*%
%TO.N,Net-(U1-ADC_VREF)*%
X189547500Y-63976250D03*
%TO.P,U1,36,3V3*%
%TO.N,Net-(U1-3V3)*%
X189547500Y-61436250D03*
%TO.P,U1,37,3V3_EN*%
%TO.N,Net-(U1-3V3_EN)*%
X189547500Y-58896250D03*
D20*
%TO.P,U1,38,GND*%
%TO.N,Net-(Hole3-Pad)*%
X189547500Y-56356250D03*
D19*
%TO.P,U1,39,VSYS*%
%TO.N,Net-(U1-VSYS)*%
X189547500Y-53816250D03*
%TO.P,U1,40,VBUS*%
%TO.N,Net-(U1-VBUS)*%
X189547500Y-51276250D03*
%TO.P,U1,41,SWCLK*%
%TO.N,Net-(U1-SWCLK)*%
X200977500Y-99306250D03*
D20*
%TO.P,U1,42,GND*%
%TO.N,unconnected-(U1-GND-Pad42)*%
X198437500Y-99306250D03*
D19*
%TO.P,U1,43,SWDIO*%
%TO.N,Net-(U1-SWDIO)*%
X195897500Y-99306250D03*
%TD*%
D21*
%TO.N,ROW0*%
X289718750Y-68262500D03*
X294481250Y-68262500D03*
X265906250Y-68262500D03*
%TO.N,ROW1*%
X183356250Y-67431250D03*
X62706250Y-67468750D03*
X137318750Y-67468750D03*
X269875000Y-67468750D03*
X252412500Y-67468750D03*
X91281250Y-67468750D03*
X151606250Y-67468750D03*
X123031250Y-67468750D03*
X220662500Y-67468750D03*
X80168750Y-67468750D03*
X105568750Y-67468750D03*
X297656250Y-67468750D03*
X165893750Y-67468750D03*
X234950000Y-67468750D03*
%TO.N,ROW2*%
X255587500Y-66675000D03*
X223837500Y-66675000D03*
X108743750Y-66675000D03*
X273050000Y-61912500D03*
X154781250Y-66675000D03*
X186256024Y-65606024D03*
X238125000Y-66675000D03*
X169068750Y-66675000D03*
X65881250Y-66675000D03*
X317500000Y-61912500D03*
X94456250Y-66675000D03*
X140493750Y-66675000D03*
X126206250Y-66675000D03*
%TO.N,ROW3*%
X319881250Y-61118750D03*
X111918750Y-65881250D03*
X69056250Y-65881250D03*
X241300000Y-65881250D03*
X97631250Y-65881250D03*
X143668750Y-65881250D03*
X157956250Y-65881250D03*
X129381250Y-65881250D03*
X227012500Y-65881250D03*
X258762500Y-65881250D03*
X172243750Y-65881250D03*
X212725000Y-65087500D03*
%TO.N,ROW4*%
X72231250Y-65087500D03*
X261937500Y-65087500D03*
X115093750Y-65087500D03*
X323056250Y-60325000D03*
X175418750Y-65087500D03*
X83343750Y-65087500D03*
X291306250Y-60325000D03*
X244475000Y-65087500D03*
%TO.N,GND*%
X211022076Y-94340826D03*
X306387500Y-87312500D03*
X306387500Y-85635500D03*
X281010274Y-88092016D03*
X280987500Y-95250000D03*
X214312500Y-96043750D03*
%TD*%
D22*
%TO.N,ROW0*%
X119062500Y-68262500D02*
X133350000Y-68262500D01*
X133350000Y-70005750D02*
X133350000Y-68262500D01*
X265906250Y-70005750D02*
X265906250Y-68262500D01*
X87312500Y-68262500D02*
X101600000Y-68262500D01*
X87312500Y-70005750D02*
X87312500Y-68262500D01*
X161925000Y-68262500D02*
X179387500Y-68262500D01*
X211137500Y-68262500D02*
X216693750Y-68262500D01*
X265906250Y-68262500D02*
X294481250Y-68262500D01*
X133350000Y-68262500D02*
X147637500Y-68262500D01*
X248443750Y-68262500D02*
X265112500Y-68262500D01*
X119062500Y-70005750D02*
X119062500Y-68262500D01*
X230981250Y-68262500D02*
X248443750Y-68262500D01*
X248443750Y-70005750D02*
X248443750Y-68262500D01*
X59531250Y-68262500D02*
X87312500Y-68262500D01*
X147637500Y-70005750D02*
X147637500Y-68262500D01*
X101600000Y-70005750D02*
X101600000Y-68262500D01*
X188118750Y-68262500D02*
X188500000Y-67881250D01*
X189706250Y-67881250D02*
X189547500Y-67722500D01*
X216693750Y-68262500D02*
X230981250Y-68262500D01*
X58737500Y-69056250D02*
X59531250Y-68262500D01*
X76200000Y-70005750D02*
X76200000Y-68262500D01*
X179387500Y-68262500D02*
X188118750Y-68262500D01*
X189706250Y-67881250D02*
X210756250Y-67881250D01*
X315274500Y-65881250D02*
X315274500Y-68106750D01*
X179387500Y-70005750D02*
X179387500Y-68262500D01*
X188500000Y-67881250D02*
X189706250Y-67881250D01*
X315274500Y-68106750D02*
X315118750Y-68262500D01*
X265112500Y-68262500D02*
X265906250Y-68262500D01*
X161925000Y-70005750D02*
X161925000Y-68262500D01*
X101600000Y-68262500D02*
X119062500Y-68262500D01*
X216693750Y-70005750D02*
X216693750Y-68262500D01*
X210756250Y-67881250D02*
X211137500Y-68262500D01*
X230981250Y-70005750D02*
X230981250Y-68262500D01*
X189547500Y-67722500D02*
X189547500Y-66516250D01*
X147637500Y-68262500D02*
X161925000Y-68262500D01*
X58737500Y-70005750D02*
X58737500Y-69056250D01*
X294481250Y-68262500D02*
X315118750Y-68262500D01*
%TO.N,Net-(D1-A)*%
X67587500Y-84400000D02*
X67587500Y-83462500D01*
X58737500Y-81756250D02*
X58737500Y-77631750D01*
X67587500Y-83462500D02*
X66675000Y-82550000D01*
X59531250Y-82550000D02*
X58737500Y-81756250D01*
X66675000Y-82550000D02*
X59531250Y-82550000D01*
%TO.N,Net-(D2-A)*%
X62706250Y-81756250D02*
X61912500Y-80962500D01*
X72390000Y-102870000D02*
X72390000Y-85883750D01*
X61912500Y-80962500D02*
X61912500Y-77631750D01*
X72390000Y-85883750D02*
X68262500Y-81756250D01*
X68262500Y-81756250D02*
X62706250Y-81756250D01*
%TO.N,Net-(D3-A)*%
X72840000Y-85697354D02*
X65087500Y-77944854D01*
X76180000Y-104561645D02*
X72840000Y-101221645D01*
X72840000Y-101221645D02*
X72840000Y-85697354D01*
X65087500Y-77944854D02*
X65087500Y-77631750D01*
X74731250Y-122500000D02*
X76180000Y-121051250D01*
X76180000Y-121051250D02*
X76180000Y-104561645D01*
%TO.N,Net-(D4-A)*%
X79533750Y-107278999D02*
X73290000Y-101035249D01*
X73290000Y-101035249D02*
X73290000Y-85510958D01*
X68262500Y-80483458D02*
X68262500Y-77631750D01*
X73290000Y-85510958D02*
X68262500Y-80483458D01*
X79533750Y-140970000D02*
X79533750Y-107278999D01*
%TO.N,Net-(D5-A)*%
X79983750Y-139321645D02*
X81021637Y-140359532D01*
X73740000Y-85324562D02*
X73740000Y-100848853D01*
X79362650Y-143785291D02*
X79362650Y-150666100D01*
X71437500Y-83022062D02*
X73740000Y-85324562D01*
X81021637Y-142126304D02*
X79362650Y-143785291D01*
X71437500Y-77631750D02*
X71437500Y-83022062D01*
X81021637Y-140359532D02*
X81021637Y-142126304D01*
X79983750Y-107092603D02*
X79983750Y-139321645D01*
X73740000Y-100848853D02*
X79983750Y-107092603D01*
X79362650Y-150666100D02*
X70008750Y-160020000D01*
%TO.N,Net-(D6-A)*%
X76993750Y-82550000D02*
X76200000Y-81756250D01*
X85407500Y-82550000D02*
X76993750Y-82550000D01*
X76200000Y-81756250D02*
X76200000Y-77631750D01*
X86677500Y-83820000D02*
X85407500Y-82550000D01*
%TO.N,Net-(D7-A)*%
X79718750Y-82100000D02*
X79375000Y-81756250D01*
X79375000Y-81756250D02*
X79375000Y-77631750D01*
X91281250Y-96043750D02*
X91281250Y-86373140D01*
X96162500Y-100925000D02*
X91281250Y-96043750D01*
X87008110Y-82100000D02*
X79718750Y-82100000D01*
X91281250Y-86373140D02*
X87008110Y-82100000D01*
X96162500Y-103450000D02*
X96162500Y-100925000D01*
%TO.N,Net-(D8-A)*%
X92095000Y-116365267D02*
X100012500Y-108447767D01*
X92095000Y-158293750D02*
X92095000Y-116365267D01*
X100012500Y-104138604D02*
X91731250Y-95857354D01*
X100012500Y-108447767D02*
X100012500Y-104138604D01*
X93821250Y-160020000D02*
X92095000Y-158293750D01*
X91731250Y-95857354D02*
X91731250Y-85381250D01*
X83237500Y-81650000D02*
X82550000Y-80962500D01*
X82550000Y-80962500D02*
X82550000Y-77631750D01*
X91731250Y-85381250D02*
X88000000Y-81650000D01*
X88000000Y-81650000D02*
X83237500Y-81650000D01*
%TO.N,Net-(D9-A)*%
X104457500Y-82550000D02*
X89693750Y-82550000D01*
X105727500Y-83820000D02*
X104457500Y-82550000D01*
X89693750Y-82550000D02*
X87312500Y-80168750D01*
X87312500Y-80168750D02*
X87312500Y-77631750D01*
%TO.N,Net-(D10-A)*%
X115252500Y-100965000D02*
X110331250Y-96043750D01*
X115252500Y-102870000D02*
X115252500Y-100965000D01*
X90487500Y-81756250D02*
X90487500Y-77631750D01*
X110331250Y-86319559D02*
X106111691Y-82100000D01*
X110331250Y-96043750D02*
X110331250Y-86319559D01*
X90831250Y-82100000D02*
X90487500Y-81756250D01*
X106111691Y-82100000D02*
X90831250Y-82100000D01*
%TO.N,Net-(D11-A)*%
X110781250Y-86133163D02*
X106298087Y-81650000D01*
X93662500Y-80962500D02*
X93662500Y-77631750D01*
X116740387Y-101816491D02*
X110781250Y-95857354D01*
X115093750Y-105672941D02*
X116740387Y-104026304D01*
X94350000Y-81650000D02*
X93662500Y-80962500D01*
X106298087Y-81650000D02*
X94350000Y-81650000D01*
X115093750Y-108918881D02*
X115093750Y-105672941D01*
X101512631Y-122500000D02*
X115093750Y-108918881D01*
X116740387Y-104026304D02*
X116740387Y-101816491D01*
X100925000Y-122500000D02*
X101512631Y-122500000D01*
X110781250Y-95857354D02*
X110781250Y-86133163D01*
%TO.N,Net-(D12-A)*%
X111231250Y-85831250D02*
X106600000Y-81200000D01*
X105568750Y-119080277D02*
X115543750Y-109105277D01*
X96837500Y-80962500D02*
X96837500Y-77631750D01*
X105568750Y-136668750D02*
X105568750Y-119080277D01*
X115543750Y-109105277D02*
X115543750Y-105875966D01*
X111231250Y-95670958D02*
X111231250Y-85831250D01*
X106600000Y-81200000D02*
X97075000Y-81200000D01*
X117190387Y-104229329D02*
X117190387Y-101630095D01*
X115543750Y-105875966D02*
X117190387Y-104229329D01*
X97075000Y-81200000D02*
X96837500Y-80962500D01*
X110450000Y-141550000D02*
X105568750Y-136668750D01*
X117190387Y-101630095D02*
X111231250Y-95670958D01*
%TO.N,Net-(D13-A)*%
X106786396Y-80750000D02*
X102181250Y-80750000D01*
X101600000Y-80168750D02*
X101600000Y-77631750D01*
X102181250Y-80750000D02*
X101600000Y-80168750D01*
X123739613Y-82782113D02*
X108818509Y-82782113D01*
X124777500Y-83820000D02*
X123739613Y-82782113D01*
X108818509Y-82782113D02*
X106786396Y-80750000D01*
%TO.N,Net-(D14-A)*%
X109004905Y-82332113D02*
X106972792Y-80300000D01*
X134262500Y-100925000D02*
X129381250Y-96043750D01*
X129381250Y-96043750D02*
X129381250Y-86319559D01*
X105700000Y-80300000D02*
X104775000Y-79375000D01*
X106972792Y-80300000D02*
X105700000Y-80300000D01*
X134262500Y-103450000D02*
X134262500Y-100925000D01*
X125393804Y-82332113D02*
X109004905Y-82332113D01*
X129381250Y-86319559D02*
X125393804Y-82332113D01*
X104775000Y-79375000D02*
X104775000Y-77631750D01*
%TO.N,ROW1*%
X174662500Y-67431250D02*
X183356250Y-67431250D01*
X207168750Y-65341250D02*
X209010000Y-65341250D01*
X123031250Y-67468750D02*
X137318750Y-67468750D01*
X91281250Y-67468750D02*
X105568750Y-67468750D01*
X211137500Y-67468750D02*
X220662500Y-67468750D01*
X207168750Y-66357500D02*
X207327500Y-66516250D01*
X174625000Y-67468750D02*
X174662500Y-67431250D01*
X137318750Y-67468750D02*
X151606250Y-67468750D01*
X105568750Y-67468750D02*
X123031250Y-67468750D01*
X209010000Y-65341250D02*
X211137500Y-67468750D01*
X269875000Y-67468750D02*
X297656250Y-67468750D01*
X189060799Y-65341250D02*
X207168750Y-65341250D01*
X207168750Y-65341250D02*
X207168750Y-66357500D01*
X186970799Y-67431250D02*
X189060799Y-65341250D01*
X183356250Y-67431250D02*
X186970799Y-67431250D01*
X220662500Y-67468750D02*
X234950000Y-67468750D01*
X165893750Y-67468750D02*
X174625000Y-67468750D01*
X151606250Y-67468750D02*
X165893750Y-67468750D01*
X234950000Y-67468750D02*
X269875000Y-67468750D01*
X62706250Y-67468750D02*
X91281250Y-67468750D01*
%TO.N,Net-(D15-A)*%
X129831250Y-86133163D02*
X129831250Y-95857354D01*
X133936383Y-110123883D02*
X134143750Y-109916517D01*
X125454337Y-81756250D02*
X129831250Y-86133163D01*
X121560267Y-122500000D02*
X133936383Y-110123883D01*
X119975000Y-122500000D02*
X121560267Y-122500000D01*
X135790387Y-101816491D02*
X135790387Y-104026304D01*
X129831250Y-95857354D02*
X135790387Y-101816491D01*
X135790387Y-104026304D02*
X134143750Y-105672941D01*
X107950000Y-77631750D02*
X107950000Y-80640812D01*
X107950000Y-80640812D02*
X109065438Y-81756250D01*
X134143750Y-109916516D02*
X133936383Y-110123883D01*
X109065438Y-81756250D02*
X125454337Y-81756250D01*
X134143750Y-105672941D02*
X134143750Y-109916516D01*
%TO.N,Net-(D16-A)*%
X129540000Y-140970000D02*
X129540000Y-139619418D01*
X134593750Y-110102912D02*
X134593750Y-105859337D01*
X111125000Y-80962500D02*
X111125000Y-77631750D01*
X124332706Y-120363956D02*
X134593750Y-110102912D01*
X129540000Y-139619418D02*
X124332706Y-134412124D01*
X111468750Y-81306250D02*
X111125000Y-80962500D01*
X124332706Y-134412124D02*
X124332706Y-120363956D01*
X130281250Y-85946767D02*
X125640733Y-81306250D01*
X125640733Y-81306250D02*
X111468750Y-81306250D01*
X136240387Y-101630095D02*
X130281250Y-95670958D01*
X130281250Y-95670958D02*
X130281250Y-85946767D01*
X134593750Y-105859337D02*
X136240387Y-104212700D01*
X136240387Y-104212700D02*
X136240387Y-101630095D01*
%TO.N,Net-(D17-A)*%
X135043750Y-106045733D02*
X135043750Y-110289308D01*
X136690387Y-104399096D02*
X135043750Y-106045733D01*
X136690387Y-101443699D02*
X136690387Y-104399096D01*
X129473091Y-147545659D02*
X117593750Y-159425000D01*
X124782706Y-120550352D02*
X124782706Y-134162096D01*
X124782706Y-134162096D02*
X130990000Y-140369390D01*
X117593750Y-159425000D02*
X117593750Y-160600000D01*
X130731250Y-95484562D02*
X136690387Y-101443699D01*
X125827129Y-80856250D02*
X130731250Y-85760371D01*
X114987500Y-80856250D02*
X125827129Y-80856250D01*
X130731250Y-85760371D02*
X130731250Y-95484562D01*
X130990000Y-142164191D02*
X129473091Y-143681100D01*
X135043750Y-110289308D02*
X124782706Y-120550352D01*
X129473091Y-143681100D02*
X129473091Y-147545659D01*
X130990000Y-140369390D02*
X130990000Y-142164191D01*
X114300000Y-80168750D02*
X114987500Y-80856250D01*
X114300000Y-77631750D02*
X114300000Y-80168750D01*
%TO.N,Net-(D18-A)*%
X143787500Y-84400000D02*
X142169613Y-82782113D01*
X126013525Y-80406250D02*
X119300000Y-80406250D01*
X142169613Y-82782113D02*
X128389388Y-82782113D01*
X119062500Y-80168750D02*
X119062500Y-77631750D01*
X128389388Y-82782113D02*
X126013525Y-80406250D01*
X119300000Y-80406250D02*
X119062500Y-80168750D01*
%TO.N,Net-(D19-A)*%
X126199921Y-79956250D02*
X122818750Y-79956250D01*
X153352500Y-102870000D02*
X153352500Y-100965000D01*
X148431250Y-96043750D02*
X148431250Y-86319559D01*
X122818750Y-79956250D02*
X122237500Y-79375000D01*
X148431250Y-86319559D02*
X144443804Y-82332113D01*
X153352500Y-100965000D02*
X148431250Y-96043750D01*
X128575784Y-82332113D02*
X126199921Y-79956250D01*
X122237500Y-79375000D02*
X122237500Y-77631750D01*
X144443804Y-82332113D02*
X128575784Y-82332113D01*
%TO.N,Net-(D20-A)*%
X153193750Y-109382240D02*
X140655990Y-121920000D01*
X148881250Y-86133163D02*
X148881250Y-95857354D01*
X125412500Y-78532433D02*
X128762180Y-81882113D01*
X154802500Y-101778604D02*
X154802500Y-104064191D01*
X148881250Y-95857354D02*
X154802500Y-101778604D01*
X154802500Y-104064191D02*
X153193750Y-105672941D01*
X153193750Y-105672941D02*
X153193750Y-109382240D01*
X128762180Y-81882113D02*
X144630200Y-81882113D01*
X125412500Y-77631750D02*
X125412500Y-78532433D01*
X144630200Y-81882113D02*
X148881250Y-86133163D01*
X140655990Y-121920000D02*
X139065000Y-121920000D01*
%TO.N,Net-(D21-A)*%
X129057113Y-81432113D02*
X128587500Y-80962500D01*
X149331250Y-85946767D02*
X144816596Y-81432113D01*
X149331250Y-95670958D02*
X149331250Y-85946767D01*
X144816596Y-81432113D02*
X129057113Y-81432113D01*
X143668750Y-134143750D02*
X143668750Y-119543636D01*
X153643750Y-109568636D02*
X153643750Y-105859337D01*
X155252500Y-104250587D02*
X155252500Y-101592208D01*
X148590000Y-140970000D02*
X148590000Y-139065000D01*
X143668750Y-119543636D02*
X153643750Y-109568636D01*
X128587500Y-80962500D02*
X128587500Y-77631750D01*
X148590000Y-139065000D02*
X143668750Y-134143750D01*
X155252500Y-101592208D02*
X149331250Y-95670958D01*
X153643750Y-105859337D02*
X155252500Y-104250587D01*
%TO.N,Net-(D22-A)*%
X133350000Y-80168750D02*
X133350000Y-77631750D01*
X144983379Y-80962500D02*
X134143750Y-80962500D01*
X134143750Y-80962500D02*
X133350000Y-80168750D01*
X146839116Y-82818238D02*
X144983379Y-80962500D01*
X162837500Y-84400000D02*
X161255737Y-82818237D01*
X161255737Y-82818237D02*
X146839116Y-82818238D01*
%TO.N,Net-(D23-A)*%
X167481250Y-86373140D02*
X163476347Y-82368237D01*
X172362500Y-100925000D02*
X167481250Y-96043750D01*
X163476347Y-82368237D02*
X147025512Y-82368238D01*
X167481250Y-96043750D02*
X167481250Y-86373140D01*
X172362500Y-103450000D02*
X172362500Y-100925000D01*
X145169775Y-80512500D02*
X136868750Y-80512500D01*
X147025512Y-82368238D02*
X145169775Y-80512500D01*
X136868750Y-80512500D02*
X136525000Y-80168750D01*
X136525000Y-80168750D02*
X136525000Y-77631750D01*
%TO.N,Net-(D24-A)*%
X145356171Y-80062500D02*
X140387500Y-80062500D01*
X147211908Y-81918238D02*
X145356171Y-80062500D01*
X167931250Y-86186744D02*
X163662743Y-81918237D01*
X167931250Y-95700000D02*
X167931250Y-86186744D01*
X173852500Y-104064191D02*
X173852500Y-101621250D01*
X163662743Y-81918237D02*
X147211908Y-81918238D01*
X172243750Y-105672941D02*
X173852500Y-104064191D01*
X140387500Y-80062500D02*
X139700000Y-79375000D01*
X172243750Y-108918881D02*
X172243750Y-105672941D01*
X173852500Y-101621250D02*
X167931250Y-95700000D01*
X158075000Y-122500000D02*
X158662631Y-122500000D01*
X158662631Y-122500000D02*
X172243750Y-108918881D01*
X139700000Y-79375000D02*
X139700000Y-77631750D01*
%TO.N,Net-(D25-A)*%
X172693750Y-109105277D02*
X172693750Y-105912500D01*
X167640000Y-139065000D02*
X162718750Y-134143750D01*
X174302500Y-101434854D02*
X168381250Y-95513604D01*
X168381250Y-86000348D02*
X163849139Y-81468237D01*
X163849139Y-81468237D02*
X147398304Y-81468238D01*
X145542567Y-79612500D02*
X143906250Y-79612500D01*
X143906250Y-79612500D02*
X142875000Y-78581250D01*
X147398304Y-81468238D02*
X145542567Y-79612500D01*
X167640000Y-140970000D02*
X167640000Y-139065000D01*
X174302500Y-104303750D02*
X174302500Y-101434854D01*
X142875000Y-78581250D02*
X142875000Y-77631750D01*
X172693750Y-105912500D02*
X174302500Y-104303750D01*
X162718750Y-119080277D02*
X172693750Y-109105277D01*
X168381250Y-95513604D02*
X168381250Y-86000348D01*
X162718750Y-134143750D02*
X162718750Y-119080277D01*
%TO.N,Net-(D26-A)*%
X181887500Y-84400000D02*
X180307500Y-82820000D01*
X147637500Y-80168750D02*
X147637500Y-77631750D01*
X148486987Y-81018237D02*
X147637500Y-80168750D01*
X180307500Y-82820000D02*
X165837298Y-82820000D01*
X164035535Y-81018237D02*
X148486987Y-81018237D01*
X165837298Y-82820000D02*
X164035535Y-81018237D01*
%TO.N,Net-(D27-A)*%
X185717500Y-88382233D02*
X184943750Y-87608483D01*
X150812500Y-80168750D02*
X150812500Y-77631750D01*
X184943750Y-84785640D02*
X182528110Y-82370000D01*
X191412500Y-103450000D02*
X191412500Y-103306250D01*
X182528110Y-82370000D02*
X166023694Y-82370000D01*
X164221931Y-80568237D02*
X151211987Y-80568237D01*
X191452500Y-102870000D02*
X190815755Y-102870000D01*
X166023694Y-82370000D02*
X164221931Y-80568237D01*
X151211987Y-80568237D02*
X150812500Y-80168750D01*
X190815755Y-102870000D02*
X185717500Y-97771745D01*
X184943750Y-87608483D02*
X184943750Y-84785640D01*
X185717500Y-97771745D02*
X185717500Y-88382233D01*
%TO.N,Net-(D28-A)*%
X178331250Y-122500000D02*
X192087500Y-108743750D01*
X177125000Y-122500000D02*
X178331250Y-122500000D01*
X186167500Y-88195837D02*
X185393750Y-87422087D01*
X189060799Y-98361250D02*
X186167500Y-95467951D01*
X185393750Y-87422087D02*
X185393750Y-84534201D01*
X192087500Y-105568750D02*
X192940387Y-104715863D01*
X192940387Y-101267436D02*
X190034201Y-98361250D01*
X166210090Y-81920000D02*
X164408327Y-80118237D01*
X186167500Y-95467951D02*
X186167500Y-88195837D01*
X164408327Y-80118237D02*
X154730737Y-80118237D01*
X190034201Y-98361250D02*
X189060799Y-98361250D01*
X153987500Y-79375000D02*
X153987500Y-77631750D01*
X192087500Y-108743750D02*
X192087500Y-105568750D01*
X154730737Y-80118237D02*
X153987500Y-79375000D01*
X182779549Y-81920000D02*
X166210090Y-81920000D01*
X185393750Y-84534201D02*
X182779549Y-81920000D01*
X192940387Y-104715863D02*
X192940387Y-101267436D01*
%TO.N,ROW2*%
X263525000Y-66675000D02*
X263525000Y-64293750D01*
X154781250Y-66675000D02*
X169068750Y-66675000D01*
X207168750Y-62801250D02*
X207814201Y-62801250D01*
X238125000Y-66675000D02*
X255587500Y-66675000D01*
X189060799Y-62801250D02*
X207168750Y-62801250D01*
X140493750Y-66675000D02*
X154781250Y-66675000D01*
X94456250Y-66675000D02*
X108743750Y-66675000D01*
X108743750Y-66675000D02*
X126206250Y-66675000D01*
X207814201Y-62801250D02*
X208057500Y-62801250D01*
X263525000Y-64293750D02*
X265906250Y-61912500D01*
X265906250Y-61912500D02*
X273050000Y-61912500D01*
X65881250Y-66675000D02*
X94456250Y-66675000D01*
X211931250Y-66675000D02*
X238125000Y-66675000D01*
X185187049Y-66675000D02*
X186256024Y-65606024D01*
X207168750Y-62801250D02*
X207168750Y-63817500D01*
X255587500Y-66675000D02*
X263525000Y-66675000D01*
X186256024Y-65606024D02*
X189060799Y-62801250D01*
X126206250Y-66675000D02*
X140493750Y-66675000D01*
X207168750Y-63817500D02*
X207327500Y-63976250D01*
X208057500Y-62801250D02*
X211931250Y-66675000D01*
X169068750Y-66675000D02*
X185187049Y-66675000D01*
X273050000Y-61912500D02*
X317500000Y-61912500D01*
%TO.N,Net-(D29-A)*%
X166396486Y-81470000D02*
X164594723Y-79668237D01*
X181768750Y-119856250D02*
X192742500Y-108882500D01*
X157455737Y-79668237D02*
X157162500Y-79375000D01*
X193390387Y-98140387D02*
X190881250Y-95631250D01*
X186617500Y-88009441D02*
X185843750Y-87235691D01*
X186690000Y-139065000D02*
X181768750Y-134143750D01*
X185843750Y-84347805D02*
X182965945Y-81470000D01*
X164594723Y-79668237D02*
X157455737Y-79668237D01*
X181768750Y-134143750D02*
X181768750Y-119856250D01*
X185843750Y-87235691D02*
X185843750Y-84347805D01*
X182965945Y-81470000D02*
X166396486Y-81470000D01*
X157162500Y-79375000D02*
X157162500Y-77631750D01*
X192742500Y-105707500D02*
X193390387Y-105059613D01*
X186617500Y-93876250D02*
X186617500Y-88009441D01*
X190881250Y-95631250D02*
X188372500Y-95631250D01*
X186690000Y-140970000D02*
X186690000Y-139065000D01*
X192742500Y-108882500D02*
X192742500Y-105707500D01*
X188372500Y-95631250D02*
X186617500Y-93876250D01*
X193390387Y-105059613D02*
X193390387Y-98140387D01*
%TO.N,Net-(D30-A)*%
X183152341Y-81020000D02*
X166582882Y-81020000D01*
X200257113Y-82782113D02*
X195824137Y-82782113D01*
X187067500Y-87823045D02*
X186293750Y-87049295D01*
X189060799Y-93091250D02*
X188081649Y-92112101D01*
X195824137Y-82782113D02*
X192087500Y-86518750D01*
X200937500Y-83462500D02*
X200257113Y-82782113D01*
X161925000Y-78581250D02*
X161925000Y-77631750D01*
X166582882Y-81020000D02*
X164781119Y-79218237D01*
X188081649Y-92112101D02*
X187067500Y-91097952D01*
X192087500Y-86518750D02*
X192087500Y-91037951D01*
X164781119Y-79218237D02*
X162561987Y-79218237D01*
X186293750Y-84161409D02*
X183152341Y-81020000D01*
X192087500Y-91037951D02*
X190034201Y-93091250D01*
X190034201Y-93091250D02*
X189060799Y-93091250D01*
X187067500Y-91097952D02*
X187067500Y-87823045D01*
X200937500Y-84400000D02*
X200937500Y-83462500D01*
X186293750Y-87049295D02*
X186293750Y-84161409D01*
X162561987Y-79218237D02*
X161925000Y-78581250D01*
%TO.N,Net-(D31-A)*%
X188372500Y-90741250D02*
X187517500Y-89886250D01*
X186743750Y-83975013D02*
X183338737Y-80570000D01*
X187517500Y-89886250D02*
X187517500Y-87636649D01*
X191620305Y-86349549D02*
X191620305Y-89155146D01*
X210462500Y-103450000D02*
X209579549Y-103450000D01*
X166769278Y-80570000D02*
X165100000Y-78900722D01*
X201593804Y-82332113D02*
X195637741Y-82332113D01*
X191620305Y-89155146D02*
X190034201Y-90741250D01*
X209579549Y-103450000D02*
X204787500Y-98657951D01*
X195637741Y-82332113D02*
X191620305Y-86349549D01*
X186743750Y-86862899D02*
X186743750Y-83975013D01*
X204787500Y-98657951D02*
X204787500Y-85525809D01*
X204787500Y-85525809D02*
X201593804Y-82332113D01*
X165100000Y-78900722D02*
X165100000Y-77631750D01*
X190034201Y-90741250D02*
X188372500Y-90741250D01*
X183338737Y-80570000D02*
X166769278Y-80570000D01*
X187517500Y-87636649D02*
X186743750Y-86862899D01*
%TO.N,Net-(D32-A)*%
X201780200Y-81882113D02*
X195451345Y-81882113D01*
X208097941Y-98361250D02*
X206311250Y-98361250D01*
X206311250Y-98361250D02*
X205237500Y-97287500D01*
X188440000Y-88106250D02*
X187967500Y-87633750D01*
X168821562Y-80120000D02*
X168275000Y-79573438D01*
X196175000Y-122500000D02*
X196762631Y-122500000D01*
X211990387Y-104026304D02*
X211990387Y-102253696D01*
X189939201Y-88106250D02*
X188440000Y-88106250D01*
X191170305Y-86875146D02*
X189939201Y-88106250D01*
X191170305Y-86163153D02*
X191170305Y-86875146D01*
X196762631Y-122500000D02*
X210343750Y-108918881D01*
X205237500Y-97287500D02*
X205237500Y-85339413D01*
X211990387Y-102253696D02*
X208097941Y-98361250D01*
X187193750Y-86676503D02*
X187193750Y-83788617D01*
X210343750Y-105672941D02*
X211990387Y-104026304D01*
X183525133Y-80120000D02*
X168821562Y-80120000D01*
X210343750Y-108918881D02*
X210343750Y-105672941D01*
X195451345Y-81882113D02*
X191170305Y-86163153D01*
X168275000Y-79573438D02*
X168275000Y-77631750D01*
X187967500Y-87633750D02*
X187967500Y-87450253D01*
X187193750Y-83788617D02*
X183525133Y-80120000D01*
X205237500Y-85339413D02*
X201780200Y-81882113D01*
X187967500Y-87450253D02*
X187193750Y-86676503D01*
%TO.N,Net-(D33-A)*%
X205687500Y-85153017D02*
X201966596Y-81432113D01*
X188373750Y-85661250D02*
X187643750Y-84931250D01*
X205700000Y-141550000D02*
X205700000Y-139025000D01*
X187643750Y-84931250D02*
X187643750Y-83602221D01*
X212440387Y-104265863D02*
X212440387Y-102067300D01*
X187643750Y-83602221D02*
X183711529Y-79670000D01*
X205687500Y-95250000D02*
X205687500Y-85153017D01*
X212176783Y-101803696D02*
X212176783Y-100183832D01*
X183711529Y-79670000D02*
X171745000Y-79670000D01*
X206258750Y-95821250D02*
X205687500Y-95250000D01*
X207814201Y-95821250D02*
X206258750Y-95821250D01*
X171745000Y-79670000D02*
X171450000Y-79375000D01*
X191035812Y-85661250D02*
X188373750Y-85661250D01*
X171450000Y-79375000D02*
X171450000Y-77631750D01*
X211137500Y-105568750D02*
X212440387Y-104265863D01*
X201966596Y-81432113D02*
X195264949Y-81432113D01*
X212440387Y-102067300D02*
X212176783Y-101803696D01*
X200818750Y-134143750D02*
X200818750Y-119080277D01*
X205700000Y-139025000D02*
X200818750Y-134143750D01*
X200818750Y-119080277D02*
X211137500Y-108761527D01*
X211137500Y-108761527D02*
X211137500Y-105568750D01*
X212176783Y-100183832D02*
X207814201Y-95821250D01*
X195264949Y-81432113D02*
X191035812Y-85661250D01*
%TO.N,Net-(D34-A)*%
X195098166Y-80962500D02*
X193065254Y-82995412D01*
X206152500Y-92402951D02*
X206152500Y-84981621D01*
X174625000Y-78503375D02*
X174625000Y-77631750D01*
X206840799Y-93091250D02*
X206152500Y-92402951D01*
X183897925Y-79220000D02*
X175341625Y-79220000D01*
X192000131Y-160600000D02*
X205581250Y-147018881D01*
X202133379Y-80962500D02*
X195098166Y-80962500D01*
X206152500Y-84981621D02*
X202133379Y-80962500D01*
X207227887Y-139916491D02*
X201268750Y-133957354D01*
X201268750Y-133957354D02*
X201268750Y-119266673D01*
X207227887Y-142126304D02*
X207227887Y-139916491D01*
X201268750Y-119266673D02*
X211587500Y-108947923D01*
X175341625Y-79220000D02*
X174625000Y-78503375D01*
X208312500Y-93091250D02*
X206840799Y-93091250D01*
X189031250Y-160600000D02*
X192000131Y-160600000D01*
X212890387Y-97669137D02*
X208312500Y-93091250D01*
X205581250Y-143772941D02*
X207227887Y-142126304D01*
X211587500Y-105912500D02*
X212890387Y-104609613D01*
X205581250Y-147018881D02*
X205581250Y-143772941D01*
X211587500Y-108947923D02*
X211587500Y-105912500D01*
X187673337Y-82995412D02*
X183897925Y-79220000D01*
X212890387Y-104609613D02*
X212890387Y-97669137D01*
X193065254Y-82995412D02*
X187673337Y-82995412D01*
%TO.N,Net-(D35-A)*%
X185826821Y-80512500D02*
X184084321Y-78770000D01*
X179387500Y-77787500D02*
X179387500Y-77631750D01*
X202319775Y-80512500D02*
X185826821Y-80512500D01*
X184084321Y-78770000D02*
X180370000Y-78770000D01*
X218708750Y-83121250D02*
X204928525Y-83121250D01*
X219987500Y-84400000D02*
X218708750Y-83121250D01*
X204928525Y-83121250D02*
X202319775Y-80512500D01*
X180370000Y-78770000D02*
X179387500Y-77787500D01*
%TO.N,Net-(D36-A)*%
X202506171Y-80062500D02*
X191981250Y-80062500D01*
X187325000Y-79375000D02*
X185325717Y-79375000D01*
X191293750Y-78581250D02*
X190563750Y-77851250D01*
X191293750Y-79375000D02*
X191293750Y-78581250D01*
X208375000Y-80581250D02*
X206152500Y-80581250D01*
X210125863Y-82332113D02*
X208375000Y-80581250D01*
X206152500Y-80581250D02*
X204977500Y-81756250D01*
X183250750Y-78320000D02*
X182562500Y-77631750D01*
X188848750Y-77851250D02*
X187325000Y-79375000D01*
X223837500Y-85525809D02*
X220643804Y-82332113D01*
X204977500Y-81756250D02*
X204199921Y-81756250D01*
X190563750Y-77851250D02*
X188848750Y-77851250D01*
X223837500Y-95250000D02*
X223837500Y-85525809D01*
X184270717Y-78320000D02*
X183250750Y-78320000D01*
X220643804Y-82332113D02*
X210125863Y-82332113D01*
X185325717Y-79375000D02*
X184270717Y-78320000D01*
X191981250Y-80062500D02*
X191293750Y-79375000D01*
X229512500Y-103450000D02*
X229512500Y-100925000D01*
X204199921Y-81756250D02*
X202506171Y-80062500D01*
X229512500Y-100925000D02*
X223837500Y-95250000D01*
%TO.N,Net-(D37-A)*%
X188817500Y-75501250D02*
X186687000Y-77631750D01*
X191743750Y-78394854D02*
X191293750Y-77944854D01*
X224287500Y-85339413D02*
X220830200Y-81882113D01*
X210312259Y-81882113D02*
X208502500Y-80072354D01*
X191293750Y-77944854D02*
X191293750Y-76760799D01*
X231002500Y-101778604D02*
X224287500Y-95063604D01*
X208502500Y-78729549D02*
X207814201Y-78041250D01*
X207814201Y-78041250D02*
X206840799Y-78041250D01*
X224287500Y-95063604D02*
X224287500Y-85339413D01*
X206840799Y-78041250D02*
X204713299Y-80168750D01*
X192325000Y-79612500D02*
X191743750Y-79031250D01*
X190034201Y-75501250D02*
X188817500Y-75501250D01*
X186687000Y-77631750D02*
X185737500Y-77631750D01*
X202692567Y-79612500D02*
X192325000Y-79612500D01*
X191743750Y-79031250D02*
X191743750Y-78394854D01*
X220830200Y-81882113D02*
X210312259Y-81882113D01*
X191293750Y-76760799D02*
X190034201Y-75501250D01*
X203248817Y-80168750D02*
X202692567Y-79612500D01*
X231002500Y-104064191D02*
X231002500Y-101778604D01*
X215225000Y-122500000D02*
X215812631Y-122500000D01*
X208502500Y-80072354D02*
X208502500Y-78729549D01*
X215812631Y-122500000D02*
X229393750Y-108918881D01*
X229393750Y-105672941D02*
X231002500Y-104064191D01*
X229393750Y-108918881D02*
X229393750Y-105672941D01*
X204713299Y-80168750D02*
X203248817Y-80168750D01*
%TO.N,Net-(D38-A)*%
X224790000Y-139065000D02*
X219868750Y-134143750D01*
X219868750Y-134143750D02*
X219868750Y-119080277D01*
X212400863Y-81432113D02*
X211931250Y-80962500D01*
X224790000Y-140970000D02*
X224790000Y-139065000D01*
X231452500Y-101592208D02*
X224737500Y-94877208D01*
X224737500Y-94877208D02*
X224737500Y-85153017D01*
X221016596Y-81432113D02*
X212400863Y-81432113D01*
X231452500Y-104303750D02*
X231452500Y-101592208D01*
X211931250Y-80962500D02*
X211931250Y-77631750D01*
X229843750Y-105912500D02*
X231452500Y-104303750D01*
X229843750Y-109105277D02*
X229843750Y-105912500D01*
X224737500Y-85153017D02*
X221016596Y-81432113D01*
X219868750Y-119080277D02*
X229843750Y-109105277D01*
%TO.N,Net-(D39-A)*%
X239037500Y-84400000D02*
X237455737Y-82818237D01*
X221183379Y-80962500D02*
X217487500Y-80962500D01*
X217487500Y-80962500D02*
X216693750Y-80168750D01*
X223039116Y-82818237D02*
X221183379Y-80962500D01*
X237455737Y-82818237D02*
X223039116Y-82818237D01*
X216693750Y-80168750D02*
X216693750Y-77631750D01*
%TO.N,Net-(D40-A)*%
X220212500Y-80512500D02*
X219868750Y-80168750D01*
X243681250Y-86373140D02*
X239676347Y-82368237D01*
X248602500Y-102870000D02*
X248602500Y-100965000D01*
X221369775Y-80512500D02*
X220212500Y-80512500D01*
X223225512Y-82368237D02*
X221369775Y-80512500D01*
X219868750Y-80168750D02*
X219868750Y-77631750D01*
X239676347Y-82368237D02*
X223225512Y-82368237D01*
X243681250Y-96043750D02*
X243681250Y-86373140D01*
X248602500Y-100965000D02*
X243681250Y-96043750D01*
%TO.N,Net-(D41-A)*%
X244131250Y-95778677D02*
X244131250Y-86186744D01*
X234275000Y-122500000D02*
X234862631Y-122500000D01*
X248443750Y-105672941D02*
X250088516Y-104028175D01*
X239862743Y-81918237D02*
X223411908Y-81918237D01*
X250088516Y-101735944D02*
X249991911Y-101639339D01*
X248443750Y-108918881D02*
X248443750Y-105672941D01*
X234862631Y-122500000D02*
X248443750Y-108918881D01*
X249991911Y-101639339D02*
X244131250Y-95778677D01*
X250090387Y-101737814D02*
X249991911Y-101639339D01*
X244131250Y-86186744D02*
X239862743Y-81918237D01*
X250088516Y-104028175D02*
X250088516Y-101735944D01*
X223043750Y-81550079D02*
X223043750Y-77631750D01*
X223411908Y-81918237D02*
X223043750Y-81550079D01*
%TO.N,Net-(D42-A)*%
X226218750Y-80962500D02*
X226218750Y-77631750D01*
X250540388Y-104212699D02*
X250540388Y-101551419D01*
X243800000Y-139025000D02*
X238918750Y-134143750D01*
X248893750Y-109105277D02*
X248893750Y-105859337D01*
X243800000Y-141550000D02*
X243800000Y-139025000D01*
X248893750Y-105859337D02*
X250540388Y-104212699D01*
X238918750Y-134143750D02*
X238918750Y-119080277D01*
X240049139Y-81468237D02*
X226724487Y-81468237D01*
X250540388Y-101551419D02*
X244581250Y-95592281D01*
X238918750Y-119080277D02*
X248893750Y-109105277D01*
X244581250Y-86000348D02*
X240049139Y-81468237D01*
X244581250Y-95592281D02*
X244581250Y-86000348D01*
X226724487Y-81468237D02*
X226218750Y-80962500D01*
%TO.N,ROW3*%
X172243750Y-65881250D02*
X183356250Y-65881250D01*
X213518750Y-65881250D02*
X227012500Y-65881250D01*
X207898750Y-60261250D02*
X212725000Y-65087500D01*
X69056250Y-65881250D02*
X97631250Y-65881250D01*
X265112500Y-61118750D02*
X319881250Y-61118750D01*
X188976250Y-60261250D02*
X207168750Y-60261250D01*
X97631250Y-65881250D02*
X111918750Y-65881250D01*
X111918750Y-65881250D02*
X129381250Y-65881250D01*
X129381250Y-65881250D02*
X143668750Y-65881250D01*
X183356250Y-65881250D02*
X188976250Y-60261250D01*
X143668750Y-65881250D02*
X157956250Y-65881250D01*
X227012500Y-65881250D02*
X262731250Y-65881250D01*
X207168750Y-60261250D02*
X207168750Y-61277500D01*
X207168750Y-60261250D02*
X207898750Y-60261250D01*
X212725000Y-65087500D02*
X213518750Y-65881250D01*
X157956250Y-65881250D02*
X172243750Y-65881250D01*
X207168750Y-61277500D02*
X207327500Y-61436250D01*
X262731250Y-63500000D02*
X265112500Y-61118750D01*
X262731250Y-65881250D02*
X262731250Y-63500000D01*
%TO.N,Net-(D43-A)*%
X256507500Y-82820000D02*
X242037298Y-82820000D01*
X258087500Y-84400000D02*
X256507500Y-82820000D01*
X231775000Y-80962500D02*
X230981250Y-80168750D01*
X230981250Y-80168750D02*
X230981250Y-77631750D01*
X240179798Y-80962500D02*
X231775000Y-80962500D01*
X242037298Y-82820000D02*
X240179798Y-80962500D01*
%TO.N,Net-(D44-A)*%
X242223694Y-82370000D02*
X240366194Y-80512500D01*
X234156250Y-79771875D02*
X234156250Y-77631750D01*
X267612500Y-103450000D02*
X267612500Y-100925000D01*
X262731250Y-96043750D02*
X262731250Y-86373140D01*
X262731250Y-86373140D02*
X258728110Y-82370000D01*
X258728110Y-82370000D02*
X242223694Y-82370000D01*
X234896875Y-80512500D02*
X234156250Y-79771875D01*
X240366194Y-80512500D02*
X234896875Y-80512500D01*
X267612500Y-100925000D02*
X262731250Y-96043750D01*
%TO.N,Net-(D45-A)*%
X267493750Y-105672941D02*
X269140387Y-104026304D01*
X258914506Y-81920000D02*
X242410090Y-81920000D01*
X267493750Y-109799045D02*
X267493750Y-105672941D01*
X263181250Y-95857354D02*
X263181250Y-86186744D01*
X240552590Y-80062500D02*
X238018750Y-80062500D01*
X237331250Y-79375000D02*
X237331250Y-77631750D01*
X253325000Y-122500000D02*
X254792795Y-122500000D01*
X269140387Y-101816491D02*
X263181250Y-95857354D01*
X238018750Y-80062500D02*
X237331250Y-79375000D01*
X254792795Y-122500000D02*
X267493750Y-109799045D01*
X263181250Y-86186744D02*
X258914506Y-81920000D01*
X269140387Y-104026304D02*
X269140387Y-101816491D01*
X242410090Y-81920000D02*
X240552590Y-80062500D01*
%TO.N,Net-(D46-A)*%
X259100902Y-81470000D02*
X242601250Y-81470000D01*
X262890000Y-140970000D02*
X262890000Y-139065000D01*
X267943750Y-105859337D02*
X269590387Y-104212700D01*
X267943750Y-109985441D02*
X267943750Y-105859337D01*
X263631250Y-86000348D02*
X259100902Y-81470000D01*
X257968750Y-134143750D02*
X257968750Y-119960441D01*
X263631250Y-95670958D02*
X263631250Y-86000348D01*
X269590387Y-104212700D02*
X269590387Y-101630095D01*
X257968750Y-119960441D02*
X267943750Y-109985441D01*
X262890000Y-139065000D02*
X257968750Y-134143750D01*
X240506250Y-79375000D02*
X240506250Y-77631750D01*
X269590387Y-101630095D02*
X263631250Y-95670958D01*
X242601250Y-81470000D02*
X240506250Y-79375000D01*
%TO.N,Net-(D47-A)*%
X258418750Y-133878677D02*
X258418750Y-120146837D01*
X259229798Y-80962500D02*
X244475000Y-80962500D01*
X264081250Y-95484562D02*
X264081250Y-85813952D01*
X244475000Y-80962500D02*
X243681250Y-80168750D01*
X264340000Y-139799927D02*
X258418750Y-133878677D01*
X243681250Y-80168750D02*
X243681250Y-77631750D01*
X270040387Y-104399096D02*
X270040387Y-101443699D01*
X262731250Y-143772941D02*
X264340000Y-142164191D01*
X268393750Y-110171837D02*
X268393750Y-106045733D01*
X264340000Y-142164191D02*
X264340000Y-139799927D01*
X270040387Y-101443699D02*
X264081250Y-95484562D01*
X268393750Y-106045733D02*
X270040387Y-104399096D01*
X262731250Y-157797500D02*
X262731250Y-143772941D01*
X258418750Y-120146837D02*
X268393750Y-110171837D01*
X264081250Y-85813952D02*
X259229798Y-80962500D01*
X260508750Y-160020000D02*
X262731250Y-157797500D01*
%TO.N,Net-(D48-A)*%
X277137500Y-84400000D02*
X274943750Y-82206250D01*
X274943750Y-82206250D02*
X261109944Y-82206250D01*
X259416194Y-80512500D02*
X248787500Y-80512500D01*
X261109944Y-82206250D02*
X259416194Y-80512500D01*
X248443750Y-80168750D02*
X248443750Y-77631750D01*
X248787500Y-80512500D02*
X248443750Y-80168750D01*
%TO.N,Net-(D49-A)*%
X286662500Y-103450000D02*
X286662500Y-100925000D01*
X286662500Y-100925000D02*
X281781250Y-96043750D01*
X281781250Y-96043750D02*
X281781250Y-86373140D01*
X281781250Y-86373140D02*
X277164360Y-81756250D01*
X286662500Y-102910000D02*
X286702500Y-102870000D01*
X286662500Y-103450000D02*
X286662500Y-102910000D01*
X251618750Y-79375000D02*
X251618750Y-77631750D01*
X277164360Y-81756250D02*
X261296340Y-81756250D01*
X259602590Y-80062500D02*
X252306250Y-80062500D01*
X252306250Y-80062500D02*
X251618750Y-79375000D01*
X261296340Y-81756250D02*
X259602590Y-80062500D01*
%TO.N,Net-(D50-A)*%
X259788986Y-79612500D02*
X256774500Y-79612500D01*
X286531400Y-105685291D02*
X288190387Y-104026304D01*
X282231250Y-86186744D02*
X277350756Y-81306250D01*
X272375000Y-122500000D02*
X273581250Y-122500000D01*
X277350756Y-81306250D02*
X261482736Y-81306250D01*
X288190387Y-104026304D02*
X288190387Y-101816491D01*
X256774500Y-79612500D02*
X254793750Y-77631750D01*
X286531400Y-109549850D02*
X286531400Y-105685291D01*
X273581250Y-122500000D02*
X286531400Y-109549850D01*
X282231250Y-95857354D02*
X282231250Y-86186744D01*
X261482736Y-81306250D02*
X259788986Y-79612500D01*
X288190387Y-101816491D02*
X282231250Y-95857354D01*
%TO.N,Net-(D51-A)*%
X286981400Y-109893600D02*
X286981400Y-105871687D01*
X277537152Y-80856250D02*
X261669132Y-80856250D01*
X277018750Y-134634536D02*
X277018750Y-119856250D01*
X277018750Y-119856250D02*
X286981400Y-109893600D01*
X261669132Y-80856250D02*
X259975382Y-79162500D01*
X288640387Y-101630095D02*
X282681250Y-95670958D01*
X286981400Y-105871687D02*
X288640387Y-104212700D01*
X259975382Y-79162500D02*
X258550000Y-79162500D01*
X257968750Y-78581250D02*
X257968750Y-77631750D01*
X258550000Y-79162500D02*
X257968750Y-78581250D01*
X288640387Y-104212700D02*
X288640387Y-101630095D01*
X282681250Y-86000348D02*
X277537152Y-80856250D01*
X282681250Y-95670958D02*
X282681250Y-86000348D01*
X281900000Y-141550000D02*
X281900000Y-139515786D01*
X281900000Y-139515786D02*
X277018750Y-134634536D01*
%TO.N,Net-(D52-A)*%
X277468750Y-120042646D02*
X287431400Y-110079996D01*
X261855528Y-80406250D02*
X261143750Y-79694472D01*
X284281250Y-160600000D02*
X283225000Y-159543750D01*
X261143750Y-79694472D02*
X261143750Y-77631750D01*
X289090387Y-104399096D02*
X289090387Y-101443699D01*
X283131250Y-85813952D02*
X277723548Y-80406250D01*
X277723548Y-80406250D02*
X261855528Y-80406250D01*
X283131250Y-95484562D02*
X283131250Y-85813952D01*
X281781250Y-143937841D02*
X283427887Y-142291204D01*
X281781250Y-158750000D02*
X281781250Y-143937841D01*
X289090387Y-101443699D02*
X283131250Y-95484562D01*
X287431400Y-110079996D02*
X287431400Y-106058083D01*
X283427887Y-142291204D02*
X283427887Y-140407277D01*
X283225000Y-159543750D02*
X282575000Y-159543750D01*
X287431400Y-106058083D02*
X289090387Y-104399096D01*
X277468750Y-134448140D02*
X277468750Y-120042646D01*
X283427887Y-140407277D02*
X277468750Y-134448140D01*
X282575000Y-159543750D02*
X281781250Y-158750000D01*
%TO.N,Net-(D53-A)*%
X296187500Y-84400000D02*
X296187500Y-83860000D01*
X280348722Y-82395028D02*
X277909944Y-79956250D01*
X277909944Y-79956250D02*
X266487500Y-79956250D01*
X296227500Y-83820000D02*
X294802528Y-82395028D01*
X296187500Y-83860000D02*
X296227500Y-83820000D01*
X265906250Y-79375000D02*
X265906250Y-77631750D01*
X266487500Y-79956250D02*
X265906250Y-79375000D01*
X294802528Y-82395028D02*
X280348722Y-82395028D01*
%TO.N,Net-(D54-A)*%
X270955750Y-79506250D02*
X269081250Y-77631750D01*
X305712500Y-103450000D02*
X305712500Y-100925000D01*
X300831250Y-96043750D02*
X300831250Y-86319559D01*
X296456719Y-81945028D02*
X280535118Y-81945028D01*
X305712500Y-100925000D02*
X300831250Y-96043750D01*
X278096340Y-79506250D02*
X270955750Y-79506250D01*
X280535118Y-81945028D02*
X278096340Y-79506250D01*
X300831250Y-86319559D02*
X296456719Y-81945028D01*
%TO.N,Net-(D55-A)*%
X279587500Y-77043750D02*
X279537500Y-76993750D01*
X279537500Y-76993750D02*
X272894250Y-76993750D01*
X301281250Y-95700000D02*
X301281250Y-86133163D01*
X301281250Y-86133163D02*
X296643115Y-81495028D01*
X279587500Y-80361014D02*
X279587500Y-77043750D01*
X305593750Y-105672941D02*
X307240387Y-104026304D01*
X307240387Y-104026304D02*
X307240387Y-101659137D01*
X307240387Y-101659137D02*
X301281250Y-95700000D01*
X291465000Y-121920000D02*
X293211250Y-121920000D01*
X293211250Y-121920000D02*
X305593750Y-109537500D01*
X280721514Y-81495028D02*
X279587500Y-80361014D01*
X305593750Y-109537500D02*
X305593750Y-105672941D01*
X272894250Y-76993750D02*
X272256250Y-77631750D01*
X296643115Y-81495028D02*
X280721514Y-81495028D01*
%TO.N,Net-(D56-A)*%
X307690387Y-101472741D02*
X301731250Y-95513604D01*
X301731250Y-85946767D02*
X296746983Y-80962500D01*
X306043750Y-109881250D02*
X306043750Y-105859337D01*
X308133750Y-160020000D02*
X308133750Y-155907869D01*
X308133750Y-155907869D02*
X296068750Y-143842869D01*
X306043750Y-105859337D02*
X307690387Y-104212700D01*
X296746983Y-80962500D02*
X291306250Y-80962500D01*
X307690387Y-104212700D02*
X307690387Y-101472741D01*
X296068750Y-119856250D02*
X306043750Y-109881250D01*
X296068750Y-143842869D02*
X296068750Y-119856250D01*
X290512500Y-80168750D02*
X290512500Y-77631750D01*
X291306250Y-80962500D02*
X290512500Y-80168750D01*
X301731250Y-95513604D02*
X301731250Y-85946767D01*
%TO.N,ROW4*%
X72231250Y-65087500D02*
X83343750Y-65087500D01*
X189060799Y-57721250D02*
X207168750Y-57721250D01*
X115093750Y-65087500D02*
X175418750Y-65087500D01*
X225425000Y-65087500D02*
X244475000Y-65087500D01*
X207168750Y-57721250D02*
X207168750Y-58737500D01*
X261937500Y-65087500D02*
X261937500Y-62706250D01*
X181694549Y-65087500D02*
X189060799Y-57721250D01*
X83343750Y-65087500D02*
X115093750Y-65087500D01*
X244475000Y-65087500D02*
X261937500Y-65087500D01*
X264318750Y-60325000D02*
X291306250Y-60325000D01*
X291306250Y-60325000D02*
X323056250Y-60325000D01*
X215180451Y-65087500D02*
X225425000Y-65087500D01*
X207168750Y-57721250D02*
X207814201Y-57721250D01*
X175418750Y-65087500D02*
X181694549Y-65087500D01*
X207814201Y-57721250D02*
X215180451Y-65087500D01*
X207168750Y-58737500D02*
X207327500Y-58896250D01*
X261937500Y-62706250D02*
X264318750Y-60325000D01*
%TO.N,Net-(D57-A)*%
X293687500Y-79375000D02*
X293687500Y-77631750D01*
X322412714Y-80016000D02*
X294328500Y-80016000D01*
X324802500Y-83820000D02*
X324802500Y-82405786D01*
X294328500Y-80016000D02*
X293687500Y-79375000D01*
X324802500Y-82405786D02*
X322412714Y-80016000D01*
%TO.N,Net-(D58-A)*%
X329565000Y-102870000D02*
X329565000Y-86484145D01*
X296862500Y-78581250D02*
X296862500Y-77631750D01*
X325863122Y-82830012D02*
X322599110Y-79566000D01*
X322599110Y-79566000D02*
X297847250Y-79566000D01*
X325540845Y-82459990D02*
X325863122Y-82830012D01*
X297847250Y-79566000D02*
X296862500Y-78581250D01*
X329565000Y-86484145D02*
X325540845Y-82459990D01*
%TO.N,Net-(D59-A)*%
X329406250Y-115475000D02*
X329406250Y-105672941D01*
X322833251Y-79116000D02*
X316447250Y-79116000D01*
X330015000Y-101215809D02*
X330015000Y-86297749D01*
X315912500Y-78581250D02*
X315912500Y-77631750D01*
X322381250Y-122500000D02*
X329406250Y-115475000D01*
X316447250Y-79116000D02*
X315912500Y-78581250D01*
X331052887Y-104026304D02*
X331052887Y-102370576D01*
X329406250Y-105672941D02*
X331052887Y-104026304D01*
X331052887Y-102370576D02*
X330263950Y-101464759D01*
X330015000Y-86297749D02*
X322833251Y-79116000D01*
X330263950Y-101464759D02*
X330015000Y-101215809D01*
%TO.N,Net-(D63-A)*%
X306650000Y-65881250D02*
X296706750Y-65881250D01*
X308887500Y-63643750D02*
X306650000Y-65881250D01*
%TO.N,Net-(D60-A)*%
X322262500Y-124722941D02*
X322262500Y-127968881D01*
X323895216Y-123090225D02*
X322262500Y-124722941D01*
X322262500Y-127968881D02*
X317500000Y-132731381D01*
X331502887Y-104265863D02*
X329856250Y-105912500D01*
X329856250Y-105912500D02*
X329856250Y-115661396D01*
X317500000Y-132731381D02*
X317500000Y-140811250D01*
X330480866Y-101028650D02*
X331502887Y-102050671D01*
X319087500Y-77631750D02*
X319087500Y-78425500D01*
X329856250Y-115661396D02*
X323895216Y-121622430D01*
X331502887Y-102050671D02*
X331502887Y-104265863D01*
X319328000Y-78666000D02*
X323019647Y-78666000D01*
X317500000Y-140811250D02*
X317658750Y-140970000D01*
X319087500Y-78425500D02*
X319328000Y-78666000D01*
X323895216Y-121622430D02*
X323895216Y-123090225D01*
X323019647Y-78666000D02*
X330480866Y-86127219D01*
X330480866Y-86127219D02*
X330480866Y-101028650D01*
%TO.N,Net-(D61-A)*%
X330306250Y-115847792D02*
X330306250Y-106098896D01*
X330306250Y-106098896D02*
X331952887Y-104452259D01*
X322712500Y-128155277D02*
X322712500Y-124962500D01*
X322621793Y-77631750D02*
X322262500Y-77631750D01*
X330930866Y-100842254D02*
X330930866Y-85940823D01*
X324345216Y-123329784D02*
X324345216Y-121808826D01*
X324345216Y-121808826D02*
X330306250Y-115847792D01*
X331906250Y-160600000D02*
X331906250Y-148654191D01*
X322262500Y-128605277D02*
X322712500Y-128155277D01*
X322712500Y-124962500D02*
X324345216Y-123329784D01*
X322262500Y-139010441D02*
X322262500Y-128605277D01*
X331906250Y-148654191D02*
X322262500Y-139010441D01*
X330930866Y-85940823D02*
X322621793Y-77631750D01*
X331952887Y-104452259D02*
X331952887Y-101864275D01*
X331952887Y-101864275D02*
X330930866Y-100842254D01*
%TO.N,Net-(D62-A)*%
X281250000Y-65881250D02*
X272894250Y-65881250D01*
X283487500Y-63643750D02*
X281250000Y-65881250D01*
%TO.N,Net-(D64-A)*%
X334287500Y-63643750D02*
X332050000Y-65881250D01*
X332050000Y-65881250D02*
X322900500Y-65881250D01*
%TO.N,COL13*%
X318452500Y-97877500D02*
X318452500Y-86360000D01*
X325596250Y-162560000D02*
X311308750Y-148272500D01*
X311308750Y-148272500D02*
X311308750Y-143510000D01*
X323215000Y-117166250D02*
X323215000Y-105410000D01*
X317381250Y-123000000D02*
X323215000Y-117166250D01*
X312618750Y-142050000D02*
X316071250Y-138597500D01*
X316071250Y-138597500D02*
X316071250Y-124460000D01*
X324525000Y-103950000D02*
X318452500Y-97877500D01*
%TO.N,COL12*%
X289877500Y-93115000D02*
X289877500Y-86360000D01*
X285730000Y-143736250D02*
X285730000Y-125075000D01*
X303093750Y-161250000D02*
X301783750Y-162560000D01*
X303093750Y-161100000D02*
X285730000Y-143736250D01*
X300712500Y-103950000D02*
X289877500Y-93115000D01*
X303093750Y-161100000D02*
X303093750Y-161250000D01*
X299402500Y-110022500D02*
X299402500Y-105410000D01*
X286425000Y-123000000D02*
X299402500Y-110022500D01*
%TO.N,COL10*%
X248325000Y-123000000D02*
X261302500Y-110022500D01*
X256540000Y-143510000D02*
X247015000Y-133985000D01*
X255468750Y-161100000D02*
X256540000Y-160028750D01*
X262612500Y-103950000D02*
X251777500Y-93115000D01*
X256540000Y-160028750D02*
X256540000Y-143510000D01*
X261302500Y-110022500D02*
X261302500Y-105410000D01*
X251777500Y-93115000D02*
X251777500Y-86360000D01*
X247015000Y-133985000D02*
X247015000Y-124460000D01*
%TO.N,COL0*%
X73183750Y-152885000D02*
X73183750Y-143510000D01*
X64968750Y-161100000D02*
X73183750Y-152885000D01*
X73183750Y-143510000D02*
X68421250Y-138747500D01*
X66040000Y-105410000D02*
X61277500Y-100647500D01*
X61277500Y-100647500D02*
X61277500Y-86360000D01*
X68421250Y-138747500D02*
X68421250Y-124460000D01*
X68421250Y-124460000D02*
X66040000Y-122078750D01*
X66040000Y-122078750D02*
X66040000Y-105410000D01*
%TO.N,COL1*%
X89852500Y-108585000D02*
X89852500Y-105410000D01*
X80327500Y-95885000D02*
X80327500Y-86360000D01*
X87471250Y-162560000D02*
X86562850Y-161651600D01*
X86562850Y-161651600D02*
X86562850Y-111874650D01*
X89852500Y-105410000D02*
X80327500Y-95885000D01*
X86562850Y-111874650D02*
X89852500Y-108585000D01*
%TO.N,COL2*%
X94615000Y-133985000D02*
X94615000Y-124460000D01*
X108902500Y-110022500D02*
X108902500Y-105410000D01*
X99377500Y-95885000D02*
X99377500Y-86360000D01*
X108902500Y-105410000D02*
X99377500Y-95885000D01*
X104140000Y-143510000D02*
X94615000Y-133985000D01*
X95925000Y-123000000D02*
X108902500Y-110022500D01*
%TO.N,COL5*%
X161290000Y-143510000D02*
X151765000Y-133985000D01*
X166052500Y-105410000D02*
X156527500Y-95885000D01*
X166052500Y-110022500D02*
X166052500Y-105410000D01*
X151765000Y-133985000D02*
X151765000Y-124460000D01*
X156527500Y-95885000D02*
X156527500Y-86360000D01*
X153075000Y-123000000D02*
X166052500Y-110022500D01*
%TO.N,COL6*%
X180340000Y-143510000D02*
X170815000Y-133985000D01*
X185102500Y-105410000D02*
X175577500Y-95885000D01*
X172125000Y-123000000D02*
X185102500Y-110022500D01*
X175577500Y-95885000D02*
X175577500Y-86360000D01*
X185102500Y-110022500D02*
X185102500Y-105410000D01*
X170815000Y-133985000D02*
X170815000Y-124460000D01*
%TO.N,COL7*%
X199390000Y-147332240D02*
X199390000Y-143510000D01*
X199390000Y-143510000D02*
X189845000Y-133965000D01*
X185622240Y-161100000D02*
X199390000Y-147332240D01*
X189845000Y-133965000D02*
X189845000Y-124480000D01*
X194627500Y-90606250D02*
X194627500Y-86360000D01*
X184031250Y-161100000D02*
X185622240Y-161100000D01*
X191175000Y-123000000D02*
X204152500Y-110022500D01*
X204152500Y-105410000D02*
X204152500Y-100131250D01*
X204152500Y-110022500D02*
X204152500Y-105410000D01*
X204152500Y-100131250D02*
X194627500Y-90606250D01*
X189845000Y-124480000D02*
X189865000Y-124460000D01*
%TO.N,COL8*%
X208915000Y-133985000D02*
X208915000Y-124460000D01*
X213677500Y-93115000D02*
X213677500Y-86360000D01*
X223202500Y-110022500D02*
X223202500Y-105410000D01*
X218440000Y-143510000D02*
X208915000Y-133985000D01*
X210225000Y-123000000D02*
X223202500Y-110022500D01*
X224512500Y-103950000D02*
X213677500Y-93115000D01*
%TO.N,COL9*%
X242252500Y-110022500D02*
X242252500Y-105410000D01*
X232727500Y-93115000D02*
X232727500Y-86360000D01*
X243562500Y-103950000D02*
X232727500Y-93115000D01*
X237490000Y-143510000D02*
X227965000Y-133985000D01*
X229275000Y-123000000D02*
X242252500Y-110022500D01*
X227965000Y-133985000D02*
X227965000Y-124460000D01*
%TO.N,COL11*%
X281662500Y-103950000D02*
X270827500Y-93115000D01*
X266065000Y-133985000D02*
X266065000Y-124460000D01*
X267375000Y-123000000D02*
X280352500Y-110022500D01*
X275590000Y-157408750D02*
X275590000Y-143510000D01*
X280352500Y-110022500D02*
X280352500Y-105410000D01*
X279281250Y-161100000D02*
X275590000Y-157408750D01*
X275590000Y-143510000D02*
X266065000Y-133985000D01*
X270827500Y-93115000D02*
X270827500Y-86360000D01*
%TO.N,COL3*%
X113665000Y-133985000D02*
X113665000Y-124460000D01*
X127952500Y-110022500D02*
X127952500Y-105410000D01*
X112593750Y-161100000D02*
X123190000Y-150503750D01*
X123190000Y-150503750D02*
X123190000Y-143510000D01*
X123190000Y-143510000D02*
X113665000Y-133985000D01*
X118427500Y-95885000D02*
X118427500Y-86360000D01*
X114975000Y-123000000D02*
X127952500Y-110022500D01*
X127952500Y-105410000D02*
X118427500Y-95885000D01*
%TO.N,COL4*%
X134025000Y-123000000D02*
X147002500Y-110022500D01*
X147002500Y-110022500D02*
X147002500Y-105410000D01*
X137477500Y-95885000D02*
X137477500Y-86360000D01*
X142240000Y-143510000D02*
X132695000Y-133965000D01*
X132695000Y-133965000D02*
X132695000Y-124480000D01*
X147002500Y-105410000D02*
X137477500Y-95885000D01*
%TO.N,GND*%
X212725000Y-96043750D02*
X211022076Y-94340826D01*
X281010274Y-88092016D02*
X281010274Y-95227226D01*
X306387500Y-85635500D02*
X306387500Y-87312500D01*
X281010274Y-95227226D02*
X280987500Y-95250000D01*
X214312500Y-96043750D02*
X212725000Y-96043750D01*
%TD*%
M02*
