%TF.GenerationSoftware,KiCad,Pcbnew,7.0.4*%
%TF.CreationDate,2023-05-29T10:37:38-04:00*%
%TF.ProjectId,keyboard,6b657962-6f61-4726-942e-6b696361645f,rev?*%
%TF.SameCoordinates,Original*%
%TF.FileFunction,Copper,L2,Bot*%
%TF.FilePolarity,Positive*%
%FSLAX46Y46*%
G04 Gerber Fmt 4.6, Leading zero omitted, Abs format (unit mm)*
G04 Created by KiCad (PCBNEW 7.0.4) date 2023-05-29 10:37:38*
%MOMM*%
%LPD*%
G01*
G04 APERTURE LIST*
G04 Aperture macros list*
%AMRoundRect*
0 Rectangle with rounded corners*
0 $1 Rounding radius*
0 $2 $3 $4 $5 $6 $7 $8 $9 X,Y pos of 4 corners*
0 Add a 4 corners polygon primitive as box body*
4,1,4,$2,$3,$4,$5,$6,$7,$8,$9,$2,$3,0*
0 Add four circle primitives for the rounded corners*
1,1,$1+$1,$2,$3*
1,1,$1+$1,$4,$5*
1,1,$1+$1,$6,$7*
1,1,$1+$1,$8,$9*
0 Add four rect primitives between the rounded corners*
20,1,$1+$1,$2,$3,$4,$5,0*
20,1,$1+$1,$4,$5,$6,$7,0*
20,1,$1+$1,$6,$7,$8,$9,0*
20,1,$1+$1,$8,$9,$2,$3,0*%
%AMHorizOval*
0 Thick line with rounded ends*
0 $1 width*
0 $2 $3 position (X,Y) of the first rounded end (center of the circle)*
0 $4 $5 position (X,Y) of the second rounded end (center of the circle)*
0 Add line between two ends*
20,1,$1,$2,$3,$4,$5,0*
0 Add two circle primitives to create the rounded ends*
1,1,$1,$2,$3*
1,1,$1,$4,$5*%
G04 Aperture macros list end*
%TA.AperFunction,ComponentPad*%
%ADD10HorizOval,2.250000X0.655001X0.730000X-0.655001X-0.730000X0*%
%TD*%
%TA.AperFunction,ComponentPad*%
%ADD11C,2.250000*%
%TD*%
%TA.AperFunction,ComponentPad*%
%ADD12HorizOval,2.250000X0.020000X0.290000X-0.020000X-0.290000X0*%
%TD*%
%TA.AperFunction,ComponentPad*%
%ADD13R,1.200000X1.200000*%
%TD*%
%TA.AperFunction,ComponentPad*%
%ADD14C,1.200000*%
%TD*%
%TA.AperFunction,ComponentPad*%
%ADD15C,5.000000*%
%TD*%
%TA.AperFunction,ComponentPad*%
%ADD16C,1.550000*%
%TD*%
%TA.AperFunction,ComponentPad*%
%ADD17RoundRect,1.000000X0.000000X-1.049999X0.000000X-1.049999X0.000000X1.049999X0.000000X1.049999X0*%
%TD*%
%TA.AperFunction,ComponentPad*%
%ADD18R,1.550000X1.550000*%
%TD*%
%TA.AperFunction,ComponentPad*%
%ADD19O,1.700000X1.700000*%
%TD*%
%TA.AperFunction,SMDPad,CuDef*%
%ADD20R,3.500000X1.700000*%
%TD*%
%TA.AperFunction,ComponentPad*%
%ADD21R,1.700000X1.700000*%
%TD*%
%TA.AperFunction,SMDPad,CuDef*%
%ADD22R,1.700000X3.500000*%
%TD*%
%TA.AperFunction,ViaPad*%
%ADD23C,0.800000*%
%TD*%
%TA.AperFunction,Conductor*%
%ADD24C,0.250000*%
%TD*%
G04 APERTURE END LIST*
D10*
%TO.P,MX42,1,COL*%
%TO.N,COL0*%
X73838751Y-142780000D03*
D11*
X74493750Y-142050000D03*
D12*
%TO.P,MX42,2,ROW*%
%TO.N,Net-(D4-A)*%
X79513750Y-141260000D03*
D11*
X79533750Y-140970000D03*
%TD*%
D13*
%TO.P,D43,1,K*%
%TO.N,ROW0*%
X230981250Y-70005750D03*
D14*
%TO.P,D43,2,A*%
%TO.N,Net-(D43-A)*%
X230981250Y-77631750D03*
%TD*%
D13*
%TO.P,D60,1,K*%
%TO.N,ROW3*%
X319087500Y-70005750D03*
D14*
%TO.P,D60,2,A*%
%TO.N,Net-(D60-A)*%
X319087500Y-77631750D03*
%TD*%
D13*
%TO.P,D52,1,K*%
%TO.N,ROW4*%
X261143750Y-70005750D03*
D14*
%TO.P,D52,2,A*%
%TO.N,Net-(D52-A)*%
X261143750Y-77631750D03*
%TD*%
D15*
%TO.P,REF\u002A\u002A,1*%
%TO.N,N/C*%
X83343750Y-107950000D03*
%TD*%
D10*
%TO.P,MX50,1,COL*%
%TO.N,COL9*%
X238145001Y-142780000D03*
D11*
X238800000Y-142050000D03*
D12*
%TO.P,MX50,2,ROW*%
%TO.N,Net-(D42-A)*%
X243820000Y-141260000D03*
D11*
X243840000Y-140970000D03*
%TD*%
D10*
%TO.P,MX33,1,COL*%
%TO.N,COL5*%
X152420001Y-123730000D03*
D11*
X153075000Y-123000000D03*
D12*
%TO.P,MX33,2,ROW*%
%TO.N,Net-(D24-A)*%
X158095000Y-122210000D03*
D11*
X158115000Y-121920000D03*
%TD*%
D13*
%TO.P,D46,1,K*%
%TO.N,ROW3*%
X240506250Y-70005750D03*
D14*
%TO.P,D46,2,A*%
%TO.N,Net-(D46-A)*%
X240506250Y-77631750D03*
%TD*%
D10*
%TO.P,MX5,1,COL*%
%TO.N,COL4*%
X138132501Y-85630000D03*
D11*
X138787500Y-84900000D03*
D12*
%TO.P,MX5,2,ROW*%
%TO.N,Net-(D18-A)*%
X143807500Y-84110000D03*
D11*
X143827500Y-83820000D03*
%TD*%
D10*
%TO.P,MX18,1,COL*%
%TO.N,COL3*%
X128607501Y-104680000D03*
D11*
X129262500Y-103950000D03*
D12*
%TO.P,MX18,2,ROW*%
%TO.N,Net-(D14-A)*%
X134282500Y-103160000D03*
D11*
X134302500Y-102870000D03*
%TD*%
D10*
%TO.P,MX7,1,COL*%
%TO.N,COL6*%
X176232501Y-85630000D03*
D11*
X176887500Y-84900000D03*
D12*
%TO.P,MX7,2,ROW*%
%TO.N,Net-(D26-A)*%
X181907500Y-84110000D03*
D11*
X181927500Y-83820000D03*
%TD*%
D13*
%TO.P,D8,1,K*%
%TO.N,ROW4*%
X82550000Y-70005750D03*
D14*
%TO.P,D8,2,A*%
%TO.N,Net-(D8-A)*%
X82550000Y-77631750D03*
%TD*%
D13*
%TO.P,D31,1,K*%
%TO.N,ROW1*%
X165100000Y-70005750D03*
D14*
%TO.P,D31,2,A*%
%TO.N,Net-(D31-A)*%
X165100000Y-77631750D03*
%TD*%
D13*
%TO.P,D44,1,K*%
%TO.N,ROW1*%
X234156250Y-70005750D03*
D14*
%TO.P,D44,2,A*%
%TO.N,Net-(D44-A)*%
X234156250Y-77631750D03*
%TD*%
D10*
%TO.P,MX20,1,COL*%
%TO.N,COL5*%
X166707501Y-104680000D03*
D11*
X167362500Y-103950000D03*
D12*
%TO.P,MX20,2,ROW*%
%TO.N,Net-(D23-A)*%
X172382500Y-103160000D03*
D11*
X172402500Y-102870000D03*
%TD*%
D10*
%TO.P,MX60,1,COL*%
%TO.N,COL12*%
X302438751Y-161830000D03*
D11*
X303093750Y-161100000D03*
D12*
%TO.P,MX60,2,ROW*%
%TO.N,Net-(D56-A)*%
X308113750Y-160310000D03*
D11*
X308133750Y-160020000D03*
%TD*%
D13*
%TO.P,D17,1,K*%
%TO.N,ROW4*%
X114300000Y-70005750D03*
D14*
%TO.P,D17,2,A*%
%TO.N,Net-(D17-A)*%
X114300000Y-77631750D03*
%TD*%
D13*
%TO.P,D11,1,K*%
%TO.N,ROW2*%
X93662500Y-70005750D03*
D14*
%TO.P,D11,2,A*%
%TO.N,Net-(D11-A)*%
X93662500Y-77631750D03*
%TD*%
D10*
%TO.P,MX27,1,COL*%
%TO.N,COL12*%
X300057501Y-104680000D03*
D11*
X300712500Y-103950000D03*
D12*
%TO.P,MX27,2,ROW*%
%TO.N,Net-(D54-A)*%
X305732500Y-103160000D03*
D11*
X305752500Y-102870000D03*
%TD*%
D10*
%TO.P,MX2,1,COL*%
%TO.N,COL1*%
X80982501Y-85630000D03*
D11*
X81637500Y-84900000D03*
D12*
%TO.P,MX2,2,ROW*%
%TO.N,Net-(D6-A)*%
X86657500Y-84110000D03*
D11*
X86677500Y-83820000D03*
%TD*%
D13*
%TO.P,D39,1,K*%
%TO.N,ROW0*%
X216693750Y-70005750D03*
D14*
%TO.P,D39,2,A*%
%TO.N,Net-(D39-A)*%
X216693750Y-77631750D03*
%TD*%
D13*
%TO.P,D48,1,K*%
%TO.N,ROW0*%
X248443750Y-70005750D03*
D14*
%TO.P,D48,2,A*%
%TO.N,Net-(D48-A)*%
X248443750Y-77631750D03*
%TD*%
D13*
%TO.P,D10,1,K*%
%TO.N,ROW1*%
X90487500Y-70005750D03*
D14*
%TO.P,D10,2,A*%
%TO.N,Net-(D10-A)*%
X90487500Y-77631750D03*
%TD*%
D13*
%TO.P,D2,1,K*%
%TO.N,ROW1*%
X61912500Y-70005750D03*
D14*
%TO.P,D2,2,A*%
%TO.N,Net-(D2-A)*%
X61912500Y-77631750D03*
%TD*%
D10*
%TO.P,MX30,1,COL*%
%TO.N,COL2*%
X95270001Y-123730000D03*
D11*
X95925000Y-123000000D03*
D12*
%TO.P,MX30,2,ROW*%
%TO.N,Net-(D11-A)*%
X100945000Y-122210000D03*
D11*
X100965000Y-121920000D03*
%TD*%
D10*
%TO.P,MX48,1,COL*%
%TO.N,COL7*%
X200045001Y-142780000D03*
D11*
X200700000Y-142050000D03*
D12*
%TO.P,MX48,2,ROW*%
%TO.N,Net-(D33-A)*%
X205720000Y-141260000D03*
D11*
X205740000Y-140970000D03*
%TD*%
D13*
%TO.P,D13,1,K*%
%TO.N,ROW0*%
X101600000Y-70005750D03*
D14*
%TO.P,D13,2,A*%
%TO.N,Net-(D13-A)*%
X101600000Y-77631750D03*
%TD*%
D13*
%TO.P,D41,1,K*%
%TO.N,ROW2*%
X223043750Y-70005750D03*
D14*
%TO.P,D41,2,A*%
%TO.N,Net-(D41-A)*%
X223043750Y-77631750D03*
%TD*%
D13*
%TO.P,D23,1,K*%
%TO.N,ROW1*%
X136525000Y-70005750D03*
D14*
%TO.P,D23,2,A*%
%TO.N,Net-(D23-A)*%
X136525000Y-77631750D03*
%TD*%
D10*
%TO.P,MX55,1,COL*%
%TO.N,COL1*%
X88126251Y-161830000D03*
D11*
X88781250Y-161100000D03*
D12*
%TO.P,MX55,2,ROW*%
%TO.N,Net-(D8-A)*%
X93801250Y-160310000D03*
D11*
X93821250Y-160020000D03*
%TD*%
D10*
%TO.P,MX6,1,COL*%
%TO.N,COL5*%
X157182501Y-85630000D03*
D11*
X157837500Y-84900000D03*
D12*
%TO.P,MX6,2,ROW*%
%TO.N,Net-(D22-A)*%
X162857500Y-84110000D03*
D11*
X162877500Y-83820000D03*
%TD*%
D13*
%TO.P,D64,1,K*%
%TO.N,ROW0*%
X315274500Y-65881250D03*
D14*
%TO.P,D64,2,A*%
%TO.N,Net-(D64-A)*%
X322900500Y-65881250D03*
%TD*%
D15*
%TO.P,,1*%
%TO.N,N/C*%
X95250000Y-93662500D03*
%TD*%
D13*
%TO.P,D33,1,K*%
%TO.N,ROW3*%
X171450000Y-70005750D03*
D14*
%TO.P,D33,2,A*%
%TO.N,Net-(D33-A)*%
X171450000Y-77631750D03*
%TD*%
D10*
%TO.P,MX51,1,COL*%
%TO.N,COL10*%
X257195001Y-142780000D03*
D11*
X257850000Y-142050000D03*
D12*
%TO.P,MX51,2,ROW*%
%TO.N,Net-(D46-A)*%
X262870000Y-141260000D03*
D11*
X262890000Y-140970000D03*
%TD*%
D10*
%TO.P,MX41,1,COL*%
%TO.N,COL13*%
X316726251Y-123730000D03*
D11*
X317381250Y-123000000D03*
D12*
%TO.P,MX41,2,ROW*%
%TO.N,Net-(D59-A)*%
X322401250Y-122210000D03*
D11*
X322421250Y-121920000D03*
%TD*%
D10*
%TO.P,MX3,1,COL*%
%TO.N,COL2*%
X100032501Y-85630000D03*
D11*
X100687500Y-84900000D03*
D12*
%TO.P,MX3,2,ROW*%
%TO.N,Net-(D9-A)*%
X105707500Y-84110000D03*
D11*
X105727500Y-83820000D03*
%TD*%
D13*
%TO.P,D15,1,K*%
%TO.N,ROW2*%
X107950000Y-70005750D03*
D14*
%TO.P,D15,2,A*%
%TO.N,Net-(D15-A)*%
X107950000Y-77631750D03*
%TD*%
D13*
%TO.P,D26,1,K*%
%TO.N,ROW0*%
X147637500Y-70005750D03*
D14*
%TO.P,D26,2,A*%
%TO.N,Net-(D26-A)*%
X147637500Y-77631750D03*
%TD*%
D13*
%TO.P,D30,1,K*%
%TO.N,ROW0*%
X161925000Y-70005750D03*
D14*
%TO.P,D30,2,A*%
%TO.N,Net-(D30-A)*%
X161925000Y-77631750D03*
%TD*%
D13*
%TO.P,D3,1,K*%
%TO.N,ROW2*%
X65087500Y-70005750D03*
D14*
%TO.P,D3,2,A*%
%TO.N,Net-(D3-A)*%
X65087500Y-77631750D03*
%TD*%
D10*
%TO.P,MX44,1,COL*%
%TO.N,COL3*%
X123845001Y-142780000D03*
D11*
X124500000Y-142050000D03*
D12*
%TO.P,MX44,2,ROW*%
%TO.N,Net-(D16-A)*%
X129520000Y-141260000D03*
D11*
X129540000Y-140970000D03*
%TD*%
D16*
%TO.P,ENC3,1,1*%
%TO.N,COL13*%
X329287500Y-63643750D03*
%TO.P,ENC3,2,2*%
%TO.N,Net-(D64-A)*%
X334287500Y-63643750D03*
D17*
%TO.P,ENC3,3,MNT_1*%
%TO.N,unconnected-(ENC3-MNT_1-Pad3)*%
X326087500Y-70643750D03*
%TO.P,ENC3,4,MNT_2*%
%TO.N,unconnected-(ENC3-MNT_2-Pad4)*%
X337487500Y-70643750D03*
D18*
%TO.P,ENC3,A,CHANNEL_A*%
%TO.N,ENC3A*%
X329287500Y-78143750D03*
D16*
%TO.P,ENC3,B,CHANNEL_B*%
%TO.N,ENC3B*%
X334287500Y-78143750D03*
%TO.P,ENC3,C,COMMON*%
%TO.N,GND*%
X331787500Y-78143750D03*
%TD*%
D13*
%TO.P,D22,1,K*%
%TO.N,ROW0*%
X133350000Y-70005750D03*
D14*
%TO.P,D22,2,A*%
%TO.N,Net-(D22-A)*%
X133350000Y-77631750D03*
%TD*%
D13*
%TO.P,D45,1,K*%
%TO.N,ROW2*%
X237331250Y-70005750D03*
D14*
%TO.P,D45,2,A*%
%TO.N,Net-(D45-A)*%
X237331250Y-77631750D03*
%TD*%
D10*
%TO.P,MX56,1,COL*%
%TO.N,COL3*%
X111938751Y-161830000D03*
D11*
X112593750Y-161100000D03*
D12*
%TO.P,MX56,2,ROW*%
%TO.N,Net-(D17-A)*%
X117613750Y-160310000D03*
D11*
X117633750Y-160020000D03*
%TD*%
D13*
%TO.P,D56,1,K*%
%TO.N,ROW4*%
X290512500Y-70005750D03*
D14*
%TO.P,D56,2,A*%
%TO.N,Net-(D56-A)*%
X290512500Y-77631750D03*
%TD*%
D10*
%TO.P,MX32,1,COL*%
%TO.N,COL4*%
X133370001Y-123730000D03*
D11*
X134025000Y-123000000D03*
D12*
%TO.P,MX32,2,ROW*%
%TO.N,Net-(D20-A)*%
X139045000Y-122210000D03*
D11*
X139065000Y-121920000D03*
%TD*%
D13*
%TO.P,D18,1,K*%
%TO.N,ROW0*%
X119062500Y-70005750D03*
D14*
%TO.P,D18,2,A*%
%TO.N,Net-(D18-A)*%
X119062500Y-77631750D03*
%TD*%
D10*
%TO.P,MX34,1,COL*%
%TO.N,COL6*%
X171470001Y-123730000D03*
D11*
X172125000Y-123000000D03*
D12*
%TO.P,MX34,2,ROW*%
%TO.N,Net-(D28-A)*%
X177145000Y-122210000D03*
D11*
X177165000Y-121920000D03*
%TD*%
D10*
%TO.P,MX10,1,COL*%
%TO.N,COL9*%
X233382501Y-85630000D03*
D11*
X234037500Y-84900000D03*
D12*
%TO.P,MX10,2,ROW*%
%TO.N,Net-(D39-A)*%
X239057500Y-84110000D03*
D11*
X239077500Y-83820000D03*
%TD*%
D13*
%TO.P,D19,1,K*%
%TO.N,ROW1*%
X122237500Y-70005750D03*
D14*
%TO.P,D19,2,A*%
%TO.N,Net-(D19-A)*%
X122237500Y-77631750D03*
%TD*%
D13*
%TO.P,D38,1,K*%
%TO.N,ROW3*%
X211931250Y-70005750D03*
D14*
%TO.P,D38,2,A*%
%TO.N,Net-(D38-A)*%
X211931250Y-77631750D03*
%TD*%
D13*
%TO.P,D40,1,K*%
%TO.N,ROW1*%
X219868750Y-70005750D03*
D14*
%TO.P,D40,2,A*%
%TO.N,Net-(D40-A)*%
X219868750Y-77631750D03*
%TD*%
D16*
%TO.P,ENC1,1,1*%
%TO.N,COL11*%
X278487500Y-63643750D03*
%TO.P,ENC1,2,2*%
%TO.N,Net-(D62-A)*%
X283487500Y-63643750D03*
D17*
%TO.P,ENC1,3,MNT_1*%
%TO.N,unconnected-(ENC1-MNT_1-Pad3)*%
X275287500Y-70643750D03*
%TO.P,ENC1,4,MNT_2*%
%TO.N,unconnected-(ENC1-MNT_2-Pad4)*%
X286687500Y-70643750D03*
D18*
%TO.P,ENC1,A,CHANNEL_A*%
%TO.N,ENC1A*%
X278487500Y-78143750D03*
D16*
%TO.P,ENC1,B,CHANNEL_B*%
%TO.N,ENC1B*%
X283487500Y-78143750D03*
%TO.P,ENC1,C,COMMON*%
%TO.N,GND*%
X280987500Y-78143750D03*
%TD*%
D10*
%TO.P,MX52,1,COL*%
%TO.N,COL11*%
X276245001Y-142780000D03*
D11*
X276900000Y-142050000D03*
D12*
%TO.P,MX52,2,ROW*%
%TO.N,Net-(D51-A)*%
X281920000Y-141260000D03*
D11*
X281940000Y-140970000D03*
%TD*%
D10*
%TO.P,MX17,1,COL*%
%TO.N,COL2*%
X109557501Y-104680000D03*
D11*
X110212500Y-103950000D03*
D12*
%TO.P,MX17,2,ROW*%
%TO.N,Net-(D10-A)*%
X115232500Y-103160000D03*
D11*
X115252500Y-102870000D03*
%TD*%
D13*
%TO.P,D53,1,K*%
%TO.N,ROW0*%
X265906250Y-70005750D03*
D14*
%TO.P,D53,2,A*%
%TO.N,Net-(D53-A)*%
X265906250Y-77631750D03*
%TD*%
D13*
%TO.P,D1,1,K*%
%TO.N,ROW0*%
X58737500Y-70005750D03*
D14*
%TO.P,D1,2,A*%
%TO.N,Net-(D1-A)*%
X58737500Y-77631750D03*
%TD*%
D10*
%TO.P,MX39,1,COL*%
%TO.N,COL11*%
X266720001Y-123730000D03*
D11*
X267375000Y-123000000D03*
D12*
%TO.P,MX39,2,ROW*%
%TO.N,Net-(D50-A)*%
X272395000Y-122210000D03*
D11*
X272415000Y-121920000D03*
%TD*%
D10*
%TO.P,MX43,1,COL*%
%TO.N,COL2*%
X104795001Y-142780000D03*
D11*
X105450000Y-142050000D03*
D12*
%TO.P,MX43,2,ROW*%
%TO.N,Net-(D12-A)*%
X110470000Y-141260000D03*
D11*
X110490000Y-140970000D03*
%TD*%
D13*
%TO.P,D42,1,K*%
%TO.N,ROW3*%
X226218750Y-70005750D03*
D14*
%TO.P,D42,2,A*%
%TO.N,Net-(D42-A)*%
X226218750Y-77631750D03*
%TD*%
D16*
%TO.P,ENC2,1,1*%
%TO.N,COL12*%
X303887500Y-63643750D03*
%TO.P,ENC2,2,2*%
%TO.N,Net-(D63-A)*%
X308887500Y-63643750D03*
D17*
%TO.P,ENC2,3,MNT_1*%
%TO.N,unconnected-(ENC2-MNT_1-Pad3)*%
X300687500Y-70643750D03*
%TO.P,ENC2,4,MNT_2*%
%TO.N,unconnected-(ENC2-MNT_2-Pad4)*%
X312087500Y-70643750D03*
D18*
%TO.P,ENC2,A,CHANNEL_A*%
%TO.N,ENC2A*%
X303887500Y-78143750D03*
D16*
%TO.P,ENC2,B,CHANNEL_B*%
%TO.N,ENC2B*%
X308887500Y-78143750D03*
%TO.P,ENC2,C,COMMON*%
%TO.N,GND*%
X306387500Y-78143750D03*
%TD*%
D13*
%TO.P,D47,1,K*%
%TO.N,ROW4*%
X243681250Y-70005750D03*
D14*
%TO.P,D47,2,A*%
%TO.N,Net-(D47-A)*%
X243681250Y-77631750D03*
%TD*%
D10*
%TO.P,MX45,1,COL*%
%TO.N,COL4*%
X142895001Y-142780000D03*
D11*
X143550000Y-142050000D03*
D12*
%TO.P,MX45,2,ROW*%
%TO.N,Net-(D21-A)*%
X148570000Y-141260000D03*
D11*
X148590000Y-140970000D03*
%TD*%
D13*
%TO.P,D49,1,K*%
%TO.N,ROW1*%
X251618750Y-70005750D03*
D14*
%TO.P,D49,2,A*%
%TO.N,Net-(D49-A)*%
X251618750Y-77631750D03*
%TD*%
D13*
%TO.P,D24,1,K*%
%TO.N,ROW2*%
X139700000Y-70005750D03*
D14*
%TO.P,D24,2,A*%
%TO.N,Net-(D24-A)*%
X139700000Y-77631750D03*
%TD*%
D15*
%TO.P,REF\u002A\u002A,1*%
%TO.N,N/C*%
X315118750Y-107950000D03*
%TD*%
D13*
%TO.P,D29,1,K*%
%TO.N,ROW3*%
X157162500Y-70005750D03*
D14*
%TO.P,D29,2,A*%
%TO.N,Net-(D29-A)*%
X157162500Y-77631750D03*
%TD*%
D10*
%TO.P,MX37,1,COL*%
%TO.N,COL9*%
X228620001Y-123730000D03*
D11*
X229275000Y-123000000D03*
D12*
%TO.P,MX37,2,ROW*%
%TO.N,Net-(D41-A)*%
X234295000Y-122210000D03*
D11*
X234315000Y-121920000D03*
%TD*%
D15*
%TO.P,REF\u002A\u002A,1*%
%TO.N,N/C*%
X95250000Y-93662500D03*
%TD*%
D13*
%TO.P,D28,1,K*%
%TO.N,ROW2*%
X153987500Y-70005750D03*
D14*
%TO.P,D28,2,A*%
%TO.N,Net-(D28-A)*%
X153987500Y-77631750D03*
%TD*%
D10*
%TO.P,MX40,1,COL*%
%TO.N,COL12*%
X285770001Y-123730000D03*
D11*
X286425000Y-123000000D03*
D12*
%TO.P,MX40,2,ROW*%
%TO.N,Net-(D55-A)*%
X291445000Y-122210000D03*
D11*
X291465000Y-121920000D03*
%TD*%
D13*
%TO.P,D58,1,K*%
%TO.N,ROW1*%
X296862500Y-70005750D03*
D14*
%TO.P,D58,2,A*%
%TO.N,Net-(D58-A)*%
X296862500Y-77631750D03*
%TD*%
D13*
%TO.P,D14,1,K*%
%TO.N,ROW1*%
X104775000Y-70005750D03*
D14*
%TO.P,D14,2,A*%
%TO.N,Net-(D14-A)*%
X104775000Y-77631750D03*
%TD*%
D13*
%TO.P,D6,1,K*%
%TO.N,ROW0*%
X76200000Y-70005750D03*
D14*
%TO.P,D6,2,A*%
%TO.N,Net-(D6-A)*%
X76200000Y-77631750D03*
%TD*%
D10*
%TO.P,MX54,1,COL*%
%TO.N,COL0*%
X64313751Y-161830000D03*
D11*
X64968750Y-161100000D03*
D12*
%TO.P,MX54,2,ROW*%
%TO.N,Net-(D5-A)*%
X69988750Y-160310000D03*
D11*
X70008750Y-160020000D03*
%TD*%
D13*
%TO.P,D34,1,K*%
%TO.N,ROW4*%
X174625000Y-70005750D03*
D14*
%TO.P,D34,2,A*%
%TO.N,Net-(D34-A)*%
X174625000Y-77631750D03*
%TD*%
D10*
%TO.P,MX15,1,COL*%
%TO.N,COL0*%
X66695001Y-104680000D03*
D11*
X67350000Y-103950000D03*
D12*
%TO.P,MX15,2,ROW*%
%TO.N,Net-(D2-A)*%
X72370000Y-103160000D03*
D11*
X72390000Y-102870000D03*
%TD*%
D10*
%TO.P,MX36,1,COL*%
%TO.N,COL8*%
X209570001Y-123730000D03*
D11*
X210225000Y-123000000D03*
D12*
%TO.P,MX36,2,ROW*%
%TO.N,Net-(D37-A)*%
X215245000Y-122210000D03*
D11*
X215265000Y-121920000D03*
%TD*%
D10*
%TO.P,MX49,1,COL*%
%TO.N,COL8*%
X219095001Y-142780000D03*
D11*
X219750000Y-142050000D03*
D12*
%TO.P,MX49,2,ROW*%
%TO.N,Net-(D38-A)*%
X224770000Y-141260000D03*
D11*
X224790000Y-140970000D03*
%TD*%
D13*
%TO.P,D62,1,K*%
%TO.N,ROW0*%
X265268250Y-65881250D03*
D14*
%TO.P,D62,2,A*%
%TO.N,Net-(D62-A)*%
X272894250Y-65881250D03*
%TD*%
D13*
%TO.P,D20,1,K*%
%TO.N,ROW2*%
X125412500Y-70005750D03*
D14*
%TO.P,D20,2,A*%
%TO.N,Net-(D20-A)*%
X125412500Y-77631750D03*
%TD*%
D10*
%TO.P,MX31,1,COL*%
%TO.N,COL3*%
X114320001Y-123730000D03*
D11*
X114975000Y-123000000D03*
D12*
%TO.P,MX31,2,ROW*%
%TO.N,Net-(D15-A)*%
X119995000Y-122210000D03*
D11*
X120015000Y-121920000D03*
%TD*%
D10*
%TO.P,MX13,1,COL*%
%TO.N,COL12*%
X290532501Y-85630000D03*
D11*
X291187500Y-84900000D03*
D12*
%TO.P,MX13,2,ROW*%
%TO.N,Net-(D53-A)*%
X296207500Y-84110000D03*
D11*
X296227500Y-83820000D03*
%TD*%
D13*
%TO.P,D12,1,K*%
%TO.N,ROW3*%
X96837500Y-70005750D03*
D14*
%TO.P,D12,2,A*%
%TO.N,Net-(D12-A)*%
X96837500Y-77631750D03*
%TD*%
D10*
%TO.P,MX53,1,COL*%
%TO.N,COL13*%
X311963751Y-142780000D03*
D11*
X312618750Y-142050000D03*
D12*
%TO.P,MX53,2,ROW*%
%TO.N,Net-(D60-A)*%
X317638750Y-141260000D03*
D11*
X317658750Y-140970000D03*
%TD*%
D13*
%TO.P,D35,1,K*%
%TO.N,ROW0*%
X179387500Y-70005750D03*
D14*
%TO.P,D35,2,A*%
%TO.N,Net-(D35-A)*%
X179387500Y-77631750D03*
%TD*%
D13*
%TO.P,D16,1,K*%
%TO.N,ROW3*%
X111125000Y-70005750D03*
D14*
%TO.P,D16,2,A*%
%TO.N,Net-(D16-A)*%
X111125000Y-77631750D03*
%TD*%
D13*
%TO.P,D5,1,K*%
%TO.N,ROW4*%
X71437500Y-70005750D03*
D14*
%TO.P,D5,2,A*%
%TO.N,Net-(D5-A)*%
X71437500Y-77631750D03*
%TD*%
D13*
%TO.P,D61,1,K*%
%TO.N,ROW4*%
X322262500Y-70005750D03*
D14*
%TO.P,D61,2,A*%
%TO.N,Net-(D61-A)*%
X322262500Y-77631750D03*
%TD*%
D13*
%TO.P,D51,1,K*%
%TO.N,ROW3*%
X257968750Y-70005750D03*
D14*
%TO.P,D51,2,A*%
%TO.N,Net-(D51-A)*%
X257968750Y-77631750D03*
%TD*%
D15*
%TO.P,REF\u002A\u002A,1*%
%TO.N,N/C*%
X304800000Y-91281250D03*
%TD*%
D10*
%TO.P,MX23,1,COL*%
%TO.N,COL8*%
X223857501Y-104680000D03*
D11*
X224512500Y-103950000D03*
D12*
%TO.P,MX23,2,ROW*%
%TO.N,Net-(D36-A)*%
X229532500Y-103160000D03*
D11*
X229552500Y-102870000D03*
%TD*%
D10*
%TO.P,MX57,1,COL*%
%TO.N,COL7*%
X183376251Y-161830000D03*
D11*
X184031250Y-161100000D03*
D12*
%TO.P,MX57,2,ROW*%
%TO.N,Net-(D34-A)*%
X189051250Y-160310000D03*
D11*
X189071250Y-160020000D03*
%TD*%
D13*
%TO.P,D55,1,K*%
%TO.N,ROW2*%
X272256250Y-70005750D03*
D14*
%TO.P,D55,2,A*%
%TO.N,Net-(D55-A)*%
X272256250Y-77631750D03*
%TD*%
D10*
%TO.P,MX8,1,COL*%
%TO.N,COL7*%
X195282501Y-85630000D03*
D11*
X195937500Y-84900000D03*
D12*
%TO.P,MX8,2,ROW*%
%TO.N,Net-(D30-A)*%
X200957500Y-84110000D03*
D11*
X200977500Y-83820000D03*
%TD*%
D13*
%TO.P,D54,1,K*%
%TO.N,ROW1*%
X269081250Y-70005750D03*
D14*
%TO.P,D54,2,A*%
%TO.N,Net-(D54-A)*%
X269081250Y-77631750D03*
%TD*%
D10*
%TO.P,MX47,1,COL*%
%TO.N,COL6*%
X180995001Y-142780000D03*
D11*
X181650000Y-142050000D03*
D12*
%TO.P,MX47,2,ROW*%
%TO.N,Net-(D29-A)*%
X186670000Y-141260000D03*
D11*
X186690000Y-140970000D03*
%TD*%
D10*
%TO.P,MX59,1,COL*%
%TO.N,COL11*%
X278626251Y-161830000D03*
D11*
X279281250Y-161100000D03*
D12*
%TO.P,MX59,2,ROW*%
%TO.N,Net-(D52-A)*%
X284301250Y-160310000D03*
D11*
X284321250Y-160020000D03*
%TD*%
D13*
%TO.P,D21,1,K*%
%TO.N,ROW3*%
X128587500Y-70005750D03*
D14*
%TO.P,D21,2,A*%
%TO.N,Net-(D21-A)*%
X128587500Y-77631750D03*
%TD*%
D13*
%TO.P,D59,1,K*%
%TO.N,ROW2*%
X315912500Y-70005750D03*
D14*
%TO.P,D59,2,A*%
%TO.N,Net-(D59-A)*%
X315912500Y-77631750D03*
%TD*%
D10*
%TO.P,MX46,1,COL*%
%TO.N,COL5*%
X161945001Y-142780000D03*
D11*
X162600000Y-142050000D03*
D12*
%TO.P,MX46,2,ROW*%
%TO.N,Net-(D25-A)*%
X167620000Y-141260000D03*
D11*
X167640000Y-140970000D03*
%TD*%
D13*
%TO.P,D27,1,K*%
%TO.N,ROW1*%
X150812500Y-70005750D03*
D14*
%TO.P,D27,2,A*%
%TO.N,Net-(D27-A)*%
X150812500Y-77631750D03*
%TD*%
D15*
%TO.P,REF\u002A\u002A,1*%
%TO.N,N/C*%
X96837500Y-146050000D03*
%TD*%
D10*
%TO.P,MX58,1,COL*%
%TO.N,COL10*%
X254813751Y-161830000D03*
D11*
X255468750Y-161100000D03*
D12*
%TO.P,MX58,2,ROW*%
%TO.N,Net-(D47-A)*%
X260488750Y-160310000D03*
D11*
X260508750Y-160020000D03*
%TD*%
D13*
%TO.P,D50,1,K*%
%TO.N,ROW2*%
X254793750Y-70005750D03*
D14*
%TO.P,D50,2,A*%
%TO.N,Net-(D50-A)*%
X254793750Y-77631750D03*
%TD*%
D13*
%TO.P,D57,1,K*%
%TO.N,ROW0*%
X293687500Y-70005750D03*
D14*
%TO.P,D57,2,A*%
%TO.N,Net-(D57-A)*%
X293687500Y-77631750D03*
%TD*%
D13*
%TO.P,D4,1,K*%
%TO.N,ROW3*%
X68262500Y-70005750D03*
D14*
%TO.P,D4,2,A*%
%TO.N,Net-(D4-A)*%
X68262500Y-77631750D03*
%TD*%
D10*
%TO.P,MX26,1,COL*%
%TO.N,COL11*%
X281007501Y-104680000D03*
D11*
X281662500Y-103950000D03*
D12*
%TO.P,MX26,2,ROW*%
%TO.N,Net-(D49-A)*%
X286682500Y-103160000D03*
D11*
X286702500Y-102870000D03*
%TD*%
D10*
%TO.P,MX35,1,COL*%
%TO.N,COL7*%
X190520001Y-123730000D03*
D11*
X191175000Y-123000000D03*
D12*
%TO.P,MX35,2,ROW*%
%TO.N,Net-(D32-A)*%
X196195000Y-122210000D03*
D11*
X196215000Y-121920000D03*
%TD*%
D10*
%TO.P,MX24,1,COL*%
%TO.N,COL9*%
X242907501Y-104680000D03*
D11*
X243562500Y-103950000D03*
D12*
%TO.P,MX24,2,ROW*%
%TO.N,Net-(D40-A)*%
X248582500Y-103160000D03*
D11*
X248602500Y-102870000D03*
%TD*%
D13*
%TO.P,D9,1,K*%
%TO.N,ROW0*%
X87312500Y-70005750D03*
D14*
%TO.P,D9,2,A*%
%TO.N,Net-(D9-A)*%
X87312500Y-77631750D03*
%TD*%
D13*
%TO.P,D7,1,K*%
%TO.N,ROW1*%
X79375000Y-70005750D03*
D14*
%TO.P,D7,2,A*%
%TO.N,Net-(D7-A)*%
X79375000Y-77631750D03*
%TD*%
D13*
%TO.P,D63,1,K*%
%TO.N,ROW0*%
X289080750Y-65881250D03*
D14*
%TO.P,D63,2,A*%
%TO.N,Net-(D63-A)*%
X296706750Y-65881250D03*
%TD*%
D10*
%TO.P,MX38,1,COL*%
%TO.N,COL10*%
X247670001Y-123730000D03*
D11*
X248325000Y-123000000D03*
D12*
%TO.P,MX38,2,ROW*%
%TO.N,Net-(D45-A)*%
X253345000Y-122210000D03*
D11*
X253365000Y-121920000D03*
%TD*%
D10*
%TO.P,MX21,1,COL*%
%TO.N,COL6*%
X185757501Y-104680000D03*
D11*
X186412500Y-103950000D03*
D12*
%TO.P,MX21,2,ROW*%
%TO.N,Net-(D27-A)*%
X191432500Y-103160000D03*
D11*
X191452500Y-102870000D03*
%TD*%
D10*
%TO.P,MX19,1,COL*%
%TO.N,COL4*%
X147657501Y-104680000D03*
D11*
X148312500Y-103950000D03*
D12*
%TO.P,MX19,2,ROW*%
%TO.N,Net-(D19-A)*%
X153332500Y-103160000D03*
D11*
X153352500Y-102870000D03*
%TD*%
D10*
%TO.P,MX25,1,COL*%
%TO.N,COL10*%
X261957501Y-104680000D03*
D11*
X262612500Y-103950000D03*
D12*
%TO.P,MX25,2,ROW*%
%TO.N,Net-(D44-A)*%
X267632500Y-103160000D03*
D11*
X267652500Y-102870000D03*
%TD*%
D13*
%TO.P,D36,1,K*%
%TO.N,ROW1*%
X182562500Y-70005750D03*
D14*
%TO.P,D36,2,A*%
%TO.N,Net-(D36-A)*%
X182562500Y-77631750D03*
%TD*%
D15*
%TO.P,REF\u002A\u002A,1*%
%TO.N,N/C*%
X191293750Y-115887500D03*
%TD*%
D10*
%TO.P,MX14,1,COL*%
%TO.N,COL13*%
X319107501Y-85630000D03*
D11*
X319762500Y-84900000D03*
D12*
%TO.P,MX14,2,ROW*%
%TO.N,Net-(D57-A)*%
X324782500Y-84110000D03*
D11*
X324802500Y-83820000D03*
%TD*%
D10*
%TO.P,MX61,1,COL*%
%TO.N,COL13*%
X326251251Y-161830000D03*
D11*
X326906250Y-161100000D03*
D12*
%TO.P,MX61,2,ROW*%
%TO.N,Net-(D61-A)*%
X331926250Y-160310000D03*
D11*
X331946250Y-160020000D03*
%TD*%
D10*
%TO.P,MX28,1,COL*%
%TO.N,COL13*%
X323870001Y-104680000D03*
D11*
X324525000Y-103950000D03*
D12*
%TO.P,MX28,2,ROW*%
%TO.N,Net-(D58-A)*%
X329545000Y-103160000D03*
D11*
X329565000Y-102870000D03*
%TD*%
D10*
%TO.P,MX12,1,COL*%
%TO.N,COL11*%
X271482501Y-85630000D03*
D11*
X272137500Y-84900000D03*
D12*
%TO.P,MX12,2,ROW*%
%TO.N,Net-(D48-A)*%
X277157500Y-84110000D03*
D11*
X277177500Y-83820000D03*
%TD*%
D13*
%TO.P,D25,1,K*%
%TO.N,ROW3*%
X142875000Y-70005750D03*
D14*
%TO.P,D25,2,A*%
%TO.N,Net-(D25-A)*%
X142875000Y-77631750D03*
%TD*%
D10*
%TO.P,MX16,1,COL*%
%TO.N,COL1*%
X90507501Y-104680000D03*
D11*
X91162500Y-103950000D03*
D12*
%TO.P,MX16,2,ROW*%
%TO.N,Net-(D7-A)*%
X96182500Y-103160000D03*
D11*
X96202500Y-102870000D03*
%TD*%
D10*
%TO.P,MX1,1,COL*%
%TO.N,COL0*%
X61932501Y-85630000D03*
D11*
X62587500Y-84900000D03*
D12*
%TO.P,MX1,2,ROW*%
%TO.N,Net-(D1-A)*%
X67607500Y-84110000D03*
D11*
X67627500Y-83820000D03*
%TD*%
D10*
%TO.P,MX4,1,COL*%
%TO.N,COL3*%
X119082501Y-85630000D03*
D11*
X119737500Y-84900000D03*
D12*
%TO.P,MX4,2,ROW*%
%TO.N,Net-(D13-A)*%
X124757500Y-84110000D03*
D11*
X124777500Y-83820000D03*
%TD*%
D15*
%TO.P,REF\u002A\u002A,1*%
%TO.N,N/C*%
X293687500Y-146050000D03*
%TD*%
D10*
%TO.P,MX11,1,COL*%
%TO.N,COL10*%
X252432501Y-85630000D03*
D11*
X253087500Y-84900000D03*
D12*
%TO.P,MX11,2,ROW*%
%TO.N,Net-(D43-A)*%
X258107500Y-84110000D03*
D11*
X258127500Y-83820000D03*
%TD*%
D13*
%TO.P,D32,1,K*%
%TO.N,ROW2*%
X168275000Y-70005750D03*
D14*
%TO.P,D32,2,A*%
%TO.N,Net-(D32-A)*%
X168275000Y-77631750D03*
%TD*%
D10*
%TO.P,MX29,1,COL*%
%TO.N,COL0*%
X69076251Y-123730000D03*
D11*
X69731250Y-123000000D03*
D12*
%TO.P,MX29,2,ROW*%
%TO.N,Net-(D3-A)*%
X74751250Y-122210000D03*
D11*
X74771250Y-121920000D03*
%TD*%
D13*
%TO.P,D37,1,K*%
%TO.N,ROW2*%
X185737500Y-70005750D03*
D14*
%TO.P,D37,2,A*%
%TO.N,Net-(D37-A)*%
X185737500Y-77631750D03*
%TD*%
D10*
%TO.P,MX22,1,COL*%
%TO.N,COL7*%
X204807501Y-104680000D03*
D11*
X205462500Y-103950000D03*
D12*
%TO.P,MX22,2,ROW*%
%TO.N,Net-(D31-A)*%
X210482500Y-103160000D03*
D11*
X210502500Y-102870000D03*
%TD*%
D10*
%TO.P,MX9,1,COL*%
%TO.N,COL8*%
X214332501Y-85630000D03*
D11*
X214987500Y-84900000D03*
D12*
%TO.P,MX9,2,ROW*%
%TO.N,Net-(D35-A)*%
X220007500Y-84110000D03*
D11*
X220027500Y-83820000D03*
%TD*%
D19*
%TO.P,U1,1,GPIO0*%
%TO.N,ENC3B*%
X207327500Y-51276250D03*
D20*
X208227500Y-51276250D03*
D19*
%TO.P,U1,2,GPIO1*%
%TO.N,ENC3A*%
X207327500Y-53816250D03*
D20*
X208227500Y-53816250D03*
D21*
%TO.P,U1,3,GND*%
%TO.N,unconnected-(U1-GND-Pad3)*%
X207327500Y-56356250D03*
D20*
X208227500Y-56356250D03*
D19*
%TO.P,U1,4,GPIO2*%
%TO.N,ROW4*%
X207327500Y-58896250D03*
D20*
X208227500Y-58896250D03*
D19*
%TO.P,U1,5,GPIO3*%
%TO.N,ROW3*%
X207327500Y-61436250D03*
D20*
X208227500Y-61436250D03*
D19*
%TO.P,U1,6,GPIO4*%
%TO.N,ROW2*%
X207327500Y-63976250D03*
D20*
X208227500Y-63976250D03*
D19*
%TO.P,U1,7,GPIO5*%
%TO.N,ROW1*%
X207327500Y-66516250D03*
D20*
X208227500Y-66516250D03*
D21*
%TO.P,U1,8,GND*%
%TO.N,unconnected-(U1-GND-Pad8)*%
X207327500Y-69056250D03*
D20*
X208227500Y-69056250D03*
D19*
%TO.P,U1,9,GPIO6*%
%TO.N,ENC2B*%
X207327500Y-71596250D03*
D20*
X208227500Y-71596250D03*
D19*
%TO.P,U1,10,GPIO7*%
%TO.N,ENC2A*%
X207327500Y-74136250D03*
D20*
X208227500Y-74136250D03*
D19*
%TO.P,U1,11,GPIO8*%
%TO.N,ENC1B*%
X207327500Y-76676250D03*
D20*
X208227500Y-76676250D03*
D19*
%TO.P,U1,12,GPIO9*%
%TO.N,ENC1A*%
X207327500Y-79216250D03*
D20*
X208227500Y-79216250D03*
D21*
%TO.P,U1,13,GND*%
%TO.N,unconnected-(U1-GND-Pad13)*%
X207327500Y-81756250D03*
D20*
X208227500Y-81756250D03*
D19*
%TO.P,U1,14,GPIO10*%
%TO.N,COL8*%
X207327500Y-84296250D03*
D20*
X208227500Y-84296250D03*
D19*
%TO.P,U1,15,GPIO11*%
%TO.N,COL9*%
X207327500Y-86836250D03*
D20*
X208227500Y-86836250D03*
D19*
%TO.P,U1,16,GPIO12*%
%TO.N,COL10*%
X207327500Y-89376250D03*
D20*
X208227500Y-89376250D03*
D19*
%TO.P,U1,17,GPIO13*%
%TO.N,COL11*%
X207327500Y-91916250D03*
D20*
X208227500Y-91916250D03*
D21*
%TO.P,U1,18,GND*%
%TO.N,GND*%
X207327500Y-94456250D03*
D20*
X208227500Y-94456250D03*
D19*
%TO.P,U1,19,GPIO14*%
%TO.N,COL12*%
X207327500Y-96996250D03*
D20*
X208227500Y-96996250D03*
D19*
%TO.P,U1,20,GPIO15*%
%TO.N,COL13*%
X207327500Y-99536250D03*
D20*
X208227500Y-99536250D03*
D19*
%TO.P,U1,21,GPIO16*%
%TO.N,COL2*%
X189547500Y-99536250D03*
D20*
X188647500Y-99536250D03*
D19*
%TO.P,U1,22,GPIO17*%
%TO.N,COL3*%
X189547500Y-96996250D03*
D20*
X188647500Y-96996250D03*
D21*
%TO.P,U1,23,GND*%
%TO.N,unconnected-(U1-GND-Pad23)*%
X189547500Y-94456250D03*
D20*
X188647500Y-94456250D03*
D19*
%TO.P,U1,24,GPIO18*%
%TO.N,COL4*%
X189547500Y-91916250D03*
D20*
X188647500Y-91916250D03*
D19*
%TO.P,U1,25,GPIO19*%
%TO.N,COL5*%
X189547500Y-89376250D03*
D20*
X188647500Y-89376250D03*
D19*
%TO.P,U1,26,GPIO20*%
%TO.N,COL6*%
X189547500Y-86836250D03*
D20*
X188647500Y-86836250D03*
D19*
%TO.P,U1,27,GPIO21*%
%TO.N,COL7*%
X189547500Y-84296250D03*
D20*
X188647500Y-84296250D03*
D21*
%TO.P,U1,28,GND*%
%TO.N,unconnected-(U1-GND-Pad28)*%
X189547500Y-81756250D03*
D20*
X188647500Y-81756250D03*
D19*
%TO.P,U1,29,GPIO22*%
%TO.N,COL1*%
X189547500Y-79216250D03*
D20*
X188647500Y-79216250D03*
D19*
%TO.P,U1,30,RUN*%
%TO.N,unconnected-(U1-RUN-Pad30)*%
X189547500Y-76676250D03*
D20*
X188647500Y-76676250D03*
D19*
%TO.P,U1,31,GPIO26_ADC0*%
%TO.N,COL0*%
X189547500Y-74136250D03*
D20*
X188647500Y-74136250D03*
D19*
%TO.P,U1,32,GPIO27_ADC1*%
%TO.N,Net-(U1-GPIO27_ADC1)*%
X189547500Y-71596250D03*
D20*
X188647500Y-71596250D03*
D21*
%TO.P,U1,33,AGND*%
%TO.N,unconnected-(U1-AGND-Pad33)*%
X189547500Y-69056250D03*
D20*
X188647500Y-69056250D03*
D19*
%TO.P,U1,34,GPIO28_ADC2*%
%TO.N,ROW0*%
X189547500Y-66516250D03*
D20*
X188647500Y-66516250D03*
D19*
%TO.P,U1,35,ADC_VREF*%
%TO.N,Net-(U1-ADC_VREF)*%
X189547500Y-63976250D03*
D20*
X188647500Y-63976250D03*
D19*
%TO.P,U1,36,3V3*%
%TO.N,Net-(U1-3V3)*%
X189547500Y-61436250D03*
D20*
X188647500Y-61436250D03*
D19*
%TO.P,U1,37,3V3_EN*%
%TO.N,Net-(U1-3V3_EN)*%
X189547500Y-58896250D03*
D20*
X188647500Y-58896250D03*
D21*
%TO.P,U1,38,GND*%
%TO.N,Net-(Hole3-Pad)*%
X189547500Y-56356250D03*
D20*
X188647500Y-56356250D03*
D19*
%TO.P,U1,39,VSYS*%
%TO.N,Net-(U1-VSYS)*%
X189547500Y-53816250D03*
D20*
X188647500Y-53816250D03*
D19*
%TO.P,U1,40,VBUS*%
%TO.N,Net-(U1-VBUS)*%
X189547500Y-51276250D03*
D20*
X188647500Y-51276250D03*
D19*
%TO.P,U1,41,SWCLK*%
%TO.N,Net-(U1-SWCLK)*%
X200977500Y-99306250D03*
D22*
X200977500Y-100206250D03*
D21*
%TO.P,U1,42,GND*%
%TO.N,unconnected-(U1-GND-Pad42)*%
X198437500Y-99306250D03*
D22*
X198437500Y-100206250D03*
D19*
%TO.P,U1,43,SWDIO*%
%TO.N,Net-(U1-SWDIO)*%
X195897500Y-99306250D03*
D22*
X195897500Y-100206250D03*
%TD*%
D23*
%TO.N,ROW0*%
X289718750Y-68262500D03*
X294481250Y-68262500D03*
X265906250Y-68262500D03*
%TO.N,ROW1*%
X183356250Y-67431250D03*
X62706250Y-67468750D03*
X137318750Y-67468750D03*
X269875000Y-67468750D03*
X252412500Y-67468750D03*
X91281250Y-67468750D03*
X151606250Y-67468750D03*
X123031250Y-67468750D03*
X220662500Y-67468750D03*
X80168750Y-67468750D03*
X105568750Y-67468750D03*
X297656250Y-67468750D03*
X165893750Y-67468750D03*
X234950000Y-67468750D03*
%TO.N,ROW2*%
X255587500Y-66675000D03*
X223837500Y-66675000D03*
X108743750Y-66675000D03*
X273050000Y-61912500D03*
X154781250Y-66675000D03*
X186256024Y-65606024D03*
X238125000Y-66675000D03*
X169068750Y-66675000D03*
X65881250Y-66675000D03*
X317500000Y-61912500D03*
X94456250Y-66675000D03*
X140493750Y-66675000D03*
X126206250Y-66675000D03*
%TO.N,ROW3*%
X319881250Y-61118750D03*
X111918750Y-65881250D03*
X69056250Y-65881250D03*
X241300000Y-65881250D03*
X97631250Y-65881250D03*
X143668750Y-65881250D03*
X157956250Y-65881250D03*
X129381250Y-65881250D03*
X227012500Y-65881250D03*
X258762500Y-65881250D03*
X172243750Y-65881250D03*
X212725000Y-65087500D03*
%TO.N,ROW4*%
X72231250Y-65087500D03*
X261937500Y-65087500D03*
X115093750Y-65087500D03*
X323056250Y-60325000D03*
X175418750Y-65087500D03*
X83343750Y-65087500D03*
X291306250Y-60325000D03*
X244475000Y-65087500D03*
%TO.N,GND*%
X211022076Y-94340826D03*
X306387500Y-87312500D03*
X306387500Y-85635500D03*
X281010274Y-88092016D03*
X280987500Y-95250000D03*
X214312500Y-96043750D03*
%TD*%
D24*
%TO.N,ROW0*%
X293687500Y-70005750D02*
X293687500Y-69056250D01*
X265268250Y-67624500D02*
X265906250Y-68262500D01*
X265268250Y-65881250D02*
X265268250Y-67624500D01*
X289080750Y-65881250D02*
X289080750Y-67624500D01*
X293687500Y-69056250D02*
X294481250Y-68262500D01*
X289080750Y-67624500D02*
X289718750Y-68262500D01*
%TO.N,ROW1*%
X234156250Y-68262500D02*
X234950000Y-67468750D01*
X251618750Y-68262500D02*
X252412500Y-67468750D01*
X90487500Y-68262500D02*
X91281250Y-67468750D01*
X136525000Y-68262500D02*
X137318750Y-67468750D01*
X219868750Y-70005750D02*
X219868750Y-68262500D01*
X165100000Y-70005750D02*
X165100000Y-68262500D01*
X296862500Y-70005750D02*
X296862500Y-68262500D01*
X90487500Y-70005750D02*
X90487500Y-68262500D01*
X182562500Y-70005750D02*
X182562500Y-68225000D01*
X150812500Y-68262500D02*
X151606250Y-67468750D01*
X150812500Y-70005750D02*
X150812500Y-68262500D01*
X61912500Y-68262500D02*
X62706250Y-67468750D01*
X165100000Y-68262500D02*
X165893750Y-67468750D01*
X104775000Y-68262500D02*
X105568750Y-67468750D01*
X182562500Y-68225000D02*
X183356250Y-67431250D01*
X269081250Y-68262500D02*
X269875000Y-67468750D01*
X296862500Y-68262500D02*
X297656250Y-67468750D01*
X79375000Y-70005750D02*
X79375000Y-68262500D01*
X79375000Y-68262500D02*
X80168750Y-67468750D01*
X234156250Y-70005750D02*
X234156250Y-68262500D01*
X61912500Y-70005750D02*
X61912500Y-68262500D01*
X136525000Y-70005750D02*
X136525000Y-68262500D01*
X219868750Y-68262500D02*
X220662500Y-67468750D01*
X122237500Y-70005750D02*
X122237500Y-68262500D01*
X104775000Y-70005750D02*
X104775000Y-68262500D01*
X251618750Y-70005750D02*
X251618750Y-68262500D01*
X122237500Y-68262500D02*
X123031250Y-67468750D01*
X269081250Y-70005750D02*
X269081250Y-68262500D01*
%TO.N,ROW2*%
X237331250Y-70005750D02*
X237331250Y-67468750D01*
X185737500Y-70005750D02*
X185737500Y-66124548D01*
X237331250Y-67468750D02*
X238125000Y-66675000D01*
X168275000Y-70005750D02*
X168275000Y-67468750D01*
X153987500Y-70005750D02*
X153987500Y-67468750D01*
X125412500Y-67468750D02*
X126206250Y-66675000D01*
X271969250Y-62993250D02*
X273050000Y-61912500D01*
X223043750Y-70005750D02*
X223043750Y-67468750D01*
X223043750Y-67468750D02*
X223837500Y-66675000D01*
X271969250Y-69718750D02*
X271969250Y-62993250D01*
X315912500Y-70005750D02*
X316706250Y-69212000D01*
X254793750Y-67468750D02*
X255587500Y-66675000D01*
X139700000Y-70005750D02*
X139700000Y-67468750D01*
X153987500Y-67468750D02*
X154781250Y-66675000D01*
X65087500Y-70005750D02*
X65087500Y-67468750D01*
X254793750Y-70005750D02*
X254793750Y-67468750D01*
X316706250Y-69212000D02*
X316706250Y-62706250D01*
X316706250Y-62706250D02*
X317500000Y-61912500D01*
X139700000Y-67468750D02*
X140493750Y-66675000D01*
X168275000Y-67468750D02*
X169068750Y-66675000D01*
X107950000Y-70005750D02*
X107950000Y-67468750D01*
X272256250Y-70005750D02*
X271969250Y-69718750D01*
X93662500Y-70005750D02*
X93662500Y-67468750D01*
X65087500Y-67468750D02*
X65881250Y-66675000D01*
X125412500Y-70005750D02*
X125412500Y-67468750D01*
X107950000Y-67468750D02*
X108743750Y-66675000D01*
X93662500Y-67468750D02*
X94456250Y-66675000D01*
X185737500Y-66124548D02*
X186256024Y-65606024D01*
%TO.N,ROW3*%
X96837500Y-66675000D02*
X97631250Y-65881250D01*
X142875000Y-66675000D02*
X143668750Y-65881250D01*
X171450000Y-70005750D02*
X171450000Y-66675000D01*
X257968750Y-66675000D02*
X258762500Y-65881250D01*
X319087500Y-61912500D02*
X319881250Y-61118750D01*
X319087500Y-70005750D02*
X319087500Y-61912500D01*
X68262500Y-70005750D02*
X68262500Y-66675000D01*
X68262500Y-66675000D02*
X69056250Y-65881250D01*
X226218750Y-70005750D02*
X226218750Y-66675000D01*
X240506250Y-70005750D02*
X240506250Y-66675000D01*
X111125000Y-66675000D02*
X111918750Y-65881250D01*
X157162500Y-70005750D02*
X157162500Y-66675000D01*
X171450000Y-66675000D02*
X172243750Y-65881250D01*
X128587500Y-70005750D02*
X128587500Y-66675000D01*
X157162500Y-66675000D02*
X157956250Y-65881250D01*
X142875000Y-70005750D02*
X142875000Y-66675000D01*
X111125000Y-70005750D02*
X111125000Y-66675000D01*
X128587500Y-66675000D02*
X129381250Y-65881250D01*
X257968750Y-70005750D02*
X257968750Y-66675000D01*
X96837500Y-70005750D02*
X96837500Y-66675000D01*
X240506250Y-66675000D02*
X241300000Y-65881250D01*
X211931250Y-70005750D02*
X211931250Y-65881250D01*
X226218750Y-66675000D02*
X227012500Y-65881250D01*
X211931250Y-65881250D02*
X212725000Y-65087500D01*
%TO.N,ROW4*%
X174625000Y-70005750D02*
X174625000Y-65881250D01*
X261143750Y-65881250D02*
X261937500Y-65087500D01*
X322262500Y-70005750D02*
X321975500Y-69718750D01*
X243681250Y-65881250D02*
X244475000Y-65087500D01*
X82550000Y-65881250D02*
X83343750Y-65087500D01*
X290512500Y-61118750D02*
X291306250Y-60325000D01*
X321975500Y-69718750D02*
X321975500Y-61405750D01*
X114300000Y-70005750D02*
X114300000Y-65881250D01*
X71437500Y-65881250D02*
X72231250Y-65087500D01*
X174625000Y-65881250D02*
X175418750Y-65087500D01*
X243681250Y-70005750D02*
X243681250Y-65881250D01*
X321975500Y-61405750D02*
X323056250Y-60325000D01*
X114300000Y-65881250D02*
X115093750Y-65087500D01*
X261143750Y-70005750D02*
X261143750Y-65881250D01*
X71437500Y-70005750D02*
X71437500Y-65881250D01*
X290512500Y-70005750D02*
X290512500Y-61118750D01*
X82550000Y-70005750D02*
X82550000Y-65881250D01*
%TO.N,COL13*%
X303075267Y-86360000D02*
X294979017Y-94456250D01*
X319762500Y-84900000D02*
X329287500Y-75375000D01*
X329287500Y-75375000D02*
X329287500Y-63643750D01*
X214017500Y-94456250D02*
X208937500Y-99536250D01*
X294979017Y-94456250D02*
X214017500Y-94456250D01*
X208937500Y-99536250D02*
X207327500Y-99536250D01*
X318452500Y-86360000D02*
X303075267Y-86360000D01*
%TO.N,COL12*%
X301783750Y-162560000D02*
X302815625Y-161528125D01*
X301783750Y-162560000D02*
X301783750Y-162410000D01*
X291187500Y-84900000D02*
X303887500Y-72200000D01*
X284025267Y-86360000D02*
X276722767Y-93662500D01*
X289877500Y-86360000D02*
X284025267Y-86360000D01*
X303887500Y-72200000D02*
X303887500Y-63643750D01*
X212725000Y-93662500D02*
X209391250Y-96996250D01*
X276722767Y-93662500D02*
X212725000Y-93662500D01*
X209391250Y-96996250D02*
X207327500Y-96996250D01*
X301783750Y-162410000D02*
X303093750Y-161100000D01*
%TO.N,COL10*%
X208937500Y-89376250D02*
X207327500Y-89376250D01*
X211477500Y-91916250D02*
X208937500Y-89376250D01*
X251279733Y-86360000D02*
X245723483Y-91916250D01*
X251777500Y-86360000D02*
X251279733Y-86360000D01*
X245723483Y-91916250D02*
X211477500Y-91916250D01*
%TO.N,COL0*%
X187924852Y-74136250D02*
X189547500Y-74136250D01*
X180754852Y-81306250D02*
X187924852Y-74136250D01*
X175418750Y-80962500D02*
X175762500Y-81306250D01*
X175762500Y-81306250D02*
X180754852Y-81306250D01*
X62587500Y-84900000D02*
X66525000Y-80962500D01*
X66525000Y-80962500D02*
X175418750Y-80962500D01*
%TO.N,COL1*%
X185102500Y-79216250D02*
X189547500Y-79216250D01*
X182562500Y-81756250D02*
X185102500Y-79216250D01*
X81637500Y-84900000D02*
X84781250Y-81756250D01*
X84781250Y-81756250D02*
X182562500Y-81756250D01*
%TO.N,COL2*%
X99377500Y-86360000D02*
X112849733Y-86360000D01*
X120152233Y-93662500D02*
X182063750Y-93662500D01*
X112849733Y-86360000D02*
X120152233Y-93662500D01*
X187937500Y-99536250D02*
X189547500Y-99536250D01*
X182063750Y-93662500D02*
X187937500Y-99536250D01*
%TO.N,COL5*%
X187937500Y-89376250D02*
X189547500Y-89376250D01*
X164167500Y-89379869D02*
X164167500Y-89417767D01*
X186032500Y-91281250D02*
X187937500Y-89376250D01*
X161147631Y-86360000D02*
X164167500Y-89379869D01*
X156527500Y-86360000D02*
X161147631Y-86360000D01*
X164167500Y-89417767D02*
X166030983Y-91281250D01*
X166030983Y-91281250D02*
X186032500Y-91281250D01*
%TO.N,COL6*%
X176887500Y-84900000D02*
X178737631Y-84900000D01*
X180673881Y-86836250D02*
X189547500Y-86836250D01*
X178737631Y-84900000D02*
X180673881Y-86836250D01*
%TO.N,COL7*%
X194627500Y-86360000D02*
X192563750Y-84296250D01*
X192563750Y-84296250D02*
X189547500Y-84296250D01*
%TO.N,COL8*%
X213677500Y-86360000D02*
X211613750Y-84296250D01*
X211613750Y-84296250D02*
X207327500Y-84296250D01*
%TO.N,COL9*%
X230912633Y-91212633D02*
X230856367Y-91268900D01*
X230856366Y-91268900D02*
X213008633Y-91268900D01*
X232727500Y-86360000D02*
X232727500Y-89397767D01*
X232727500Y-89397767D02*
X230912633Y-91212633D01*
X230912633Y-91212633D02*
X230856366Y-91268900D01*
X210343750Y-88604017D02*
X210343750Y-88242500D01*
X213008633Y-91268900D02*
X210343750Y-88604017D01*
X210343750Y-88242500D02*
X208937500Y-86836250D01*
X208937500Y-86836250D02*
X207327500Y-86836250D01*
%TO.N,COL11*%
X273181250Y-81250000D02*
X278487500Y-75943750D01*
X273181250Y-84006250D02*
X273181250Y-81250000D01*
X270827500Y-86360000D02*
X273181250Y-84006250D01*
X258466517Y-92868750D02*
X208280000Y-92868750D01*
X270827500Y-86360000D02*
X264975267Y-86360000D01*
X208280000Y-92868750D02*
X207327500Y-91916250D01*
X264975267Y-86360000D02*
X258466517Y-92868750D01*
X278487500Y-75943750D02*
X278487500Y-63643750D01*
%TO.N,COL3*%
X118427500Y-86360000D02*
X131899733Y-86360000D01*
X183810000Y-92868750D02*
X187937500Y-96996250D01*
X187937500Y-96996250D02*
X189547500Y-96996250D01*
X131899733Y-86360000D02*
X138408483Y-92868750D01*
X138408483Y-92868750D02*
X183810000Y-92868750D01*
%TO.N,COL4*%
X137477500Y-86360000D02*
X147478750Y-86360000D01*
X153035000Y-91916250D02*
X189547500Y-91916250D01*
X147478750Y-86360000D02*
X153035000Y-91916250D01*
%TO.N,ENC1A*%
X279400000Y-77231250D02*
X279400000Y-64293750D01*
X280193750Y-60325000D02*
X279400000Y-59531250D01*
X280193750Y-63500000D02*
X280193750Y-60325000D01*
X215106250Y-75764898D02*
X211654898Y-79216250D01*
X225318250Y-59531250D02*
X215106250Y-69743250D01*
X279400000Y-59531250D02*
X225318250Y-59531250D01*
X279400000Y-64293750D02*
X280193750Y-63500000D01*
X211654898Y-79216250D02*
X207327500Y-79216250D01*
X215106250Y-69743250D02*
X215106250Y-75764898D01*
X278487500Y-78143750D02*
X279400000Y-77231250D01*
%TO.N,ENC1B*%
X282575000Y-64293750D02*
X281781250Y-63500000D01*
X225049500Y-58737500D02*
X214656250Y-69130750D01*
X283487500Y-78143750D02*
X282575000Y-77231250D01*
X282575000Y-77231250D02*
X282575000Y-64293750D01*
X212153750Y-76676250D02*
X207327500Y-76676250D01*
X280987500Y-58737500D02*
X225049500Y-58737500D01*
X281781250Y-63500000D02*
X281781250Y-59531250D01*
X281781250Y-59531250D02*
X280987500Y-58737500D01*
X214656250Y-69130750D02*
X214656250Y-74173750D01*
X214656250Y-74173750D02*
X212153750Y-76676250D01*
%TO.N,GND*%
X323224167Y-94786100D02*
X308768750Y-94786100D01*
X280987500Y-88069242D02*
X281010274Y-88092016D01*
X294481250Y-96043750D02*
X280987500Y-96043750D01*
X295738900Y-94786100D02*
X294481250Y-96043750D01*
X331787500Y-78143750D02*
X331787500Y-86222767D01*
X280987500Y-78143750D02*
X280987500Y-88069242D01*
X306387500Y-87312500D02*
X308768750Y-89693750D01*
X211022076Y-94340826D02*
X210906652Y-94456250D01*
X308768750Y-89693750D02*
X308768750Y-94786100D01*
X308768750Y-94786100D02*
X306387500Y-94786100D01*
X210906652Y-94456250D02*
X207327500Y-94456250D01*
X280987500Y-95250000D02*
X280987500Y-96043750D01*
X306387500Y-78143750D02*
X306387500Y-85635500D01*
X331787500Y-86222767D02*
X323224167Y-94786100D01*
X306387500Y-94786100D02*
X295738900Y-94786100D01*
X280987500Y-96043750D02*
X214312500Y-96043750D01*
%TO.N,ENC2A*%
X224522177Y-57943750D02*
X214206250Y-68259677D01*
X303887500Y-78143750D02*
X304800000Y-77231250D01*
X214206250Y-68259677D02*
X214206250Y-73131250D01*
X304800000Y-57943750D02*
X224522177Y-57943750D01*
X305593750Y-63500000D02*
X305593750Y-58737500D01*
X214206250Y-73131250D02*
X213201250Y-74136250D01*
X304800000Y-64293750D02*
X305593750Y-63500000D01*
X213201250Y-74136250D02*
X207327500Y-74136250D01*
X304800000Y-77231250D02*
X304800000Y-64293750D01*
X305593750Y-58737500D02*
X304800000Y-57943750D01*
%TO.N,ENC2B*%
X213518750Y-67468750D02*
X213518750Y-70268250D01*
X212190750Y-71596250D02*
X207327500Y-71596250D01*
X223837500Y-57150000D02*
X213518750Y-67468750D01*
X307975000Y-77231250D02*
X307975000Y-64293750D01*
X307975000Y-64293750D02*
X307181250Y-63500000D01*
X308887500Y-78143750D02*
X307975000Y-77231250D01*
X213518750Y-70268250D02*
X212190750Y-71596250D01*
X307181250Y-58737500D02*
X305593750Y-57150000D01*
X305593750Y-57150000D02*
X223837500Y-57150000D01*
X307181250Y-63500000D02*
X307181250Y-58737500D01*
%TO.N,ENC3A*%
X329287500Y-78143750D02*
X330200000Y-77231250D01*
X330993750Y-64293750D02*
X330993750Y-57150000D01*
X330993750Y-57150000D02*
X330200000Y-56356250D01*
X330200000Y-65087500D02*
X330993750Y-64293750D01*
X221297500Y-53816250D02*
X207327500Y-53816250D01*
X223837500Y-56356250D02*
X221297500Y-53816250D01*
X330200000Y-56356250D02*
X223837500Y-56356250D01*
X330200000Y-77231250D02*
X330200000Y-65087500D01*
%TO.N,ENC3B*%
X332581250Y-57150000D02*
X330993750Y-55562500D01*
X334287500Y-78143750D02*
X333375000Y-77231250D01*
X332581250Y-64293750D02*
X332581250Y-57150000D01*
X220345000Y-51276250D02*
X207327500Y-51276250D01*
X333375000Y-65087500D02*
X332581250Y-64293750D01*
X330993750Y-55562500D02*
X224631250Y-55562500D01*
X224631250Y-55562500D02*
X220345000Y-51276250D01*
X333375000Y-77231250D02*
X333375000Y-65087500D01*
%TD*%
M02*
