%TF.GenerationSoftware,KiCad,Pcbnew,7.0.4*%
%TF.CreationDate,2023-05-29T10:37:39-04:00*%
%TF.ProjectId,keyboard,6b657962-6f61-4726-942e-6b696361645f,rev?*%
%TF.SameCoordinates,Original*%
%TF.FileFunction,Soldermask,Bot*%
%TF.FilePolarity,Negative*%
%FSLAX46Y46*%
G04 Gerber Fmt 4.6, Leading zero omitted, Abs format (unit mm)*
G04 Created by KiCad (PCBNEW 7.0.4) date 2023-05-29 10:37:39*
%MOMM*%
%LPD*%
G01*
G04 APERTURE LIST*
G04 Aperture macros list*
%AMHorizOval*
0 Thick line with rounded ends*
0 $1 width*
0 $2 $3 position (X,Y) of the first rounded end (center of the circle)*
0 $4 $5 position (X,Y) of the second rounded end (center of the circle)*
0 Add line between two ends*
20,1,$1,$2,$3,$4,$5,0*
0 Add two circle primitives to create the rounded ends*
1,1,$1,$2,$3*
1,1,$1,$4,$5*%
G04 Aperture macros list end*
%ADD10C,3.048000*%
%ADD11C,3.987800*%
%ADD12C,1.750000*%
%ADD13HorizOval,2.250000X0.655001X0.730000X-0.655001X-0.730000X0*%
%ADD14C,2.250000*%
%ADD15HorizOval,2.250000X0.020000X0.290000X-0.020000X-0.290000X0*%
%ADD16R,1.200000X1.200000*%
%ADD17C,1.200000*%
%ADD18C,5.000000*%
%ADD19C,1.550000*%
%ADD20R,1.550000X1.550000*%
%ADD21O,1.800000X1.800000*%
%ADD22O,1.500000X1.500000*%
%ADD23O,1.700000X1.700000*%
%ADD24R,3.500000X1.700000*%
%ADD25R,1.700000X1.700000*%
%ADD26R,1.700000X3.500000*%
G04 APERTURE END LIST*
D10*
%TO.C,MX42*%
X65055750Y-139065000D03*
D11*
X65055750Y-154305000D03*
D12*
X71913750Y-146050000D03*
D11*
X76993750Y-146050000D03*
D12*
X82073750Y-146050000D03*
D10*
X88931750Y-139065000D03*
D11*
X88931750Y-154305000D03*
D13*
X73838751Y-142780000D03*
D14*
X74493750Y-142050000D03*
D15*
X79513750Y-141260000D03*
D14*
X79533750Y-140970000D03*
%TD*%
D16*
%TO.C,D43*%
X230981250Y-70005750D03*
D17*
X230981250Y-77631750D03*
%TD*%
D16*
%TO.C,D60*%
X319087500Y-70005750D03*
D17*
X319087500Y-77631750D03*
%TD*%
D16*
%TO.C,D52*%
X261143750Y-70005750D03*
D17*
X261143750Y-77631750D03*
%TD*%
D18*
%TO.C,REF\u002A\u002A*%
X83343750Y-107950000D03*
%TD*%
D12*
%TO.C,MX50*%
X236220000Y-146050000D03*
D11*
X241300000Y-146050000D03*
D12*
X246380000Y-146050000D03*
D13*
X238145001Y-142780000D03*
D14*
X238800000Y-142050000D03*
D15*
X243820000Y-141260000D03*
D14*
X243840000Y-140970000D03*
%TD*%
D12*
%TO.C,MX33*%
X150495000Y-127000000D03*
D11*
X155575000Y-127000000D03*
D12*
X160655000Y-127000000D03*
D13*
X152420001Y-123730000D03*
D14*
X153075000Y-123000000D03*
D15*
X158095000Y-122210000D03*
D14*
X158115000Y-121920000D03*
%TD*%
D16*
%TO.C,D46*%
X240506250Y-70005750D03*
D17*
X240506250Y-77631750D03*
%TD*%
D12*
%TO.C,MX5*%
X136207500Y-88900000D03*
D11*
X141287500Y-88900000D03*
D12*
X146367500Y-88900000D03*
D13*
X138132501Y-85630000D03*
D14*
X138787500Y-84900000D03*
D15*
X143807500Y-84110000D03*
D14*
X143827500Y-83820000D03*
%TD*%
D12*
%TO.C,MX18*%
X126682500Y-107950000D03*
D11*
X131762500Y-107950000D03*
D12*
X136842500Y-107950000D03*
D13*
X128607501Y-104680000D03*
D14*
X129262500Y-103950000D03*
D15*
X134282500Y-103160000D03*
D14*
X134302500Y-102870000D03*
%TD*%
D12*
%TO.C,MX7*%
X174307500Y-88900000D03*
D11*
X179387500Y-88900000D03*
D12*
X184467500Y-88900000D03*
D13*
X176232501Y-85630000D03*
D14*
X176887500Y-84900000D03*
D15*
X181907500Y-84110000D03*
D14*
X181927500Y-83820000D03*
%TD*%
D16*
%TO.C,D8*%
X82550000Y-70005750D03*
D17*
X82550000Y-77631750D03*
%TD*%
D16*
%TO.C,D31*%
X165100000Y-70005750D03*
D17*
X165100000Y-77631750D03*
%TD*%
D16*
%TO.C,D44*%
X234156250Y-70005750D03*
D17*
X234156250Y-77631750D03*
%TD*%
D12*
%TO.C,MX20*%
X164782500Y-107950000D03*
D11*
X169862500Y-107950000D03*
D12*
X174942500Y-107950000D03*
D13*
X166707501Y-104680000D03*
D14*
X167362500Y-103950000D03*
D15*
X172382500Y-103160000D03*
D14*
X172402500Y-102870000D03*
%TD*%
D12*
%TO.C,MX60*%
X300513750Y-165100000D03*
D11*
X305593750Y-165100000D03*
D12*
X310673750Y-165100000D03*
D13*
X302438751Y-161830000D03*
D14*
X303093750Y-161100000D03*
D15*
X308113750Y-160310000D03*
D14*
X308133750Y-160020000D03*
%TD*%
D16*
%TO.C,D17*%
X114300000Y-70005750D03*
D17*
X114300000Y-77631750D03*
%TD*%
D16*
%TO.C,D11*%
X93662500Y-70005750D03*
D17*
X93662500Y-77631750D03*
%TD*%
D12*
%TO.C,MX27*%
X298132500Y-107950000D03*
D11*
X303212500Y-107950000D03*
D12*
X308292500Y-107950000D03*
D13*
X300057501Y-104680000D03*
D14*
X300712500Y-103950000D03*
D15*
X305732500Y-103160000D03*
D14*
X305752500Y-102870000D03*
%TD*%
D12*
%TO.C,MX2*%
X79057500Y-88900000D03*
D11*
X84137500Y-88900000D03*
D12*
X89217500Y-88900000D03*
D13*
X80982501Y-85630000D03*
D14*
X81637500Y-84900000D03*
D15*
X86657500Y-84110000D03*
D14*
X86677500Y-83820000D03*
%TD*%
D16*
%TO.C,D39*%
X216693750Y-70005750D03*
D17*
X216693750Y-77631750D03*
%TD*%
D16*
%TO.C,D48*%
X248443750Y-70005750D03*
D17*
X248443750Y-77631750D03*
%TD*%
D16*
%TO.C,D10*%
X90487500Y-70005750D03*
D17*
X90487500Y-77631750D03*
%TD*%
D16*
%TO.C,D2*%
X61912500Y-70005750D03*
D17*
X61912500Y-77631750D03*
%TD*%
D12*
%TO.C,MX30*%
X93345000Y-127000000D03*
D11*
X98425000Y-127000000D03*
D12*
X103505000Y-127000000D03*
D13*
X95270001Y-123730000D03*
D14*
X95925000Y-123000000D03*
D15*
X100945000Y-122210000D03*
D14*
X100965000Y-121920000D03*
%TD*%
D12*
%TO.C,MX48*%
X198120000Y-146050000D03*
D11*
X203200000Y-146050000D03*
D12*
X208280000Y-146050000D03*
D13*
X200045001Y-142780000D03*
D14*
X200700000Y-142050000D03*
D15*
X205720000Y-141260000D03*
D14*
X205740000Y-140970000D03*
%TD*%
D16*
%TO.C,D13*%
X101600000Y-70005750D03*
D17*
X101600000Y-77631750D03*
%TD*%
D16*
%TO.C,D41*%
X223043750Y-70005750D03*
D17*
X223043750Y-77631750D03*
%TD*%
D16*
%TO.C,D23*%
X136525000Y-70005750D03*
D17*
X136525000Y-77631750D03*
%TD*%
D12*
%TO.C,MX55*%
X86201250Y-165100000D03*
D11*
X91281250Y-165100000D03*
D12*
X96361250Y-165100000D03*
D13*
X88126251Y-161830000D03*
D14*
X88781250Y-161100000D03*
D15*
X93801250Y-160310000D03*
D14*
X93821250Y-160020000D03*
%TD*%
D12*
%TO.C,MX6*%
X155257500Y-88900000D03*
D11*
X160337500Y-88900000D03*
D12*
X165417500Y-88900000D03*
D13*
X157182501Y-85630000D03*
D14*
X157837500Y-84900000D03*
D15*
X162857500Y-84110000D03*
D14*
X162877500Y-83820000D03*
%TD*%
D16*
%TO.C,D64*%
X315274500Y-65881250D03*
D17*
X322900500Y-65881250D03*
%TD*%
D18*
%TO.C,*%
X95250000Y-93662500D03*
%TD*%
D16*
%TO.C,D33*%
X171450000Y-70005750D03*
D17*
X171450000Y-77631750D03*
%TD*%
D12*
%TO.C,MX51*%
X255270000Y-146050000D03*
D11*
X260350000Y-146050000D03*
D12*
X265430000Y-146050000D03*
D13*
X257195001Y-142780000D03*
D14*
X257850000Y-142050000D03*
D15*
X262870000Y-141260000D03*
D14*
X262890000Y-140970000D03*
%TD*%
D10*
%TO.C,MX41*%
X307943250Y-120015000D03*
D11*
X307943250Y-135255000D03*
D12*
X314801250Y-127000000D03*
D11*
X319881250Y-127000000D03*
D12*
X324961250Y-127000000D03*
D10*
X331819250Y-120015000D03*
D11*
X331819250Y-135255000D03*
D13*
X316726251Y-123730000D03*
D14*
X317381250Y-123000000D03*
D15*
X322401250Y-122210000D03*
D14*
X322421250Y-121920000D03*
%TD*%
D12*
%TO.C,MX3*%
X98107500Y-88900000D03*
D11*
X103187500Y-88900000D03*
D12*
X108267500Y-88900000D03*
D13*
X100032501Y-85630000D03*
D14*
X100687500Y-84900000D03*
D15*
X105707500Y-84110000D03*
D14*
X105727500Y-83820000D03*
%TD*%
D16*
%TO.C,D15*%
X107950000Y-70005750D03*
D17*
X107950000Y-77631750D03*
%TD*%
D16*
%TO.C,D26*%
X147637500Y-70005750D03*
D17*
X147637500Y-77631750D03*
%TD*%
D16*
%TO.C,D30*%
X161925000Y-70005750D03*
D17*
X161925000Y-77631750D03*
%TD*%
D16*
%TO.C,D3*%
X65087500Y-70005750D03*
D17*
X65087500Y-77631750D03*
%TD*%
D12*
%TO.C,MX44*%
X121920000Y-146050000D03*
D11*
X127000000Y-146050000D03*
D12*
X132080000Y-146050000D03*
D13*
X123845001Y-142780000D03*
D14*
X124500000Y-142050000D03*
D15*
X129520000Y-141260000D03*
D14*
X129540000Y-140970000D03*
%TD*%
D19*
%TO.C,ENC3*%
X329287500Y-63643750D03*
X334287500Y-63643750D03*
D20*
X329287500Y-78143750D03*
D19*
X334287500Y-78143750D03*
X331787500Y-78143750D03*
%TD*%
D16*
%TO.C,D22*%
X133350000Y-70005750D03*
D17*
X133350000Y-77631750D03*
%TD*%
D16*
%TO.C,D45*%
X237331250Y-70005750D03*
D17*
X237331250Y-77631750D03*
%TD*%
D12*
%TO.C,MX56*%
X110013750Y-165100000D03*
D11*
X115093750Y-165100000D03*
D12*
X120173750Y-165100000D03*
D13*
X111938751Y-161830000D03*
D14*
X112593750Y-161100000D03*
D15*
X117613750Y-160310000D03*
D14*
X117633750Y-160020000D03*
%TD*%
D16*
%TO.C,D56*%
X290512500Y-70005750D03*
D17*
X290512500Y-77631750D03*
%TD*%
D12*
%TO.C,MX32*%
X131445000Y-127000000D03*
D11*
X136525000Y-127000000D03*
D12*
X141605000Y-127000000D03*
D13*
X133370001Y-123730000D03*
D14*
X134025000Y-123000000D03*
D15*
X139045000Y-122210000D03*
D14*
X139065000Y-121920000D03*
%TD*%
D16*
%TO.C,D18*%
X119062500Y-70005750D03*
D17*
X119062500Y-77631750D03*
%TD*%
D12*
%TO.C,MX34*%
X169545000Y-127000000D03*
D11*
X174625000Y-127000000D03*
D12*
X179705000Y-127000000D03*
D13*
X171470001Y-123730000D03*
D14*
X172125000Y-123000000D03*
D15*
X177145000Y-122210000D03*
D14*
X177165000Y-121920000D03*
%TD*%
D12*
%TO.C,MX10*%
X231457500Y-88900000D03*
D11*
X236537500Y-88900000D03*
D12*
X241617500Y-88900000D03*
D13*
X233382501Y-85630000D03*
D14*
X234037500Y-84900000D03*
D15*
X239057500Y-84110000D03*
D14*
X239077500Y-83820000D03*
%TD*%
D16*
%TO.C,D19*%
X122237500Y-70005750D03*
D17*
X122237500Y-77631750D03*
%TD*%
D16*
%TO.C,D38*%
X211931250Y-70005750D03*
D17*
X211931250Y-77631750D03*
%TD*%
D16*
%TO.C,D40*%
X219868750Y-70005750D03*
D17*
X219868750Y-77631750D03*
%TD*%
D19*
%TO.C,ENC1*%
X278487500Y-63643750D03*
X283487500Y-63643750D03*
D20*
X278487500Y-78143750D03*
D19*
X283487500Y-78143750D03*
X280987500Y-78143750D03*
%TD*%
D12*
%TO.C,MX52*%
X274320000Y-146050000D03*
D11*
X279400000Y-146050000D03*
D12*
X284480000Y-146050000D03*
D13*
X276245001Y-142780000D03*
D14*
X276900000Y-142050000D03*
D15*
X281920000Y-141260000D03*
D14*
X281940000Y-140970000D03*
%TD*%
D12*
%TO.C,MX17*%
X107632500Y-107950000D03*
D11*
X112712500Y-107950000D03*
D12*
X117792500Y-107950000D03*
D13*
X109557501Y-104680000D03*
D14*
X110212500Y-103950000D03*
D15*
X115232500Y-103160000D03*
D14*
X115252500Y-102870000D03*
%TD*%
D16*
%TO.C,D53*%
X265906250Y-70005750D03*
D17*
X265906250Y-77631750D03*
%TD*%
D16*
%TO.C,D1*%
X58737500Y-70005750D03*
D17*
X58737500Y-77631750D03*
%TD*%
D12*
%TO.C,MX39*%
X264795000Y-127000000D03*
D11*
X269875000Y-127000000D03*
D12*
X274955000Y-127000000D03*
D13*
X266720001Y-123730000D03*
D14*
X267375000Y-123000000D03*
D15*
X272395000Y-122210000D03*
D14*
X272415000Y-121920000D03*
%TD*%
D12*
%TO.C,MX43*%
X102870000Y-146050000D03*
D11*
X107950000Y-146050000D03*
D12*
X113030000Y-146050000D03*
D13*
X104795001Y-142780000D03*
D14*
X105450000Y-142050000D03*
D15*
X110470000Y-141260000D03*
D14*
X110490000Y-140970000D03*
%TD*%
D16*
%TO.C,D42*%
X226218750Y-70005750D03*
D17*
X226218750Y-77631750D03*
%TD*%
D19*
%TO.C,ENC2*%
X303887500Y-63643750D03*
X308887500Y-63643750D03*
D20*
X303887500Y-78143750D03*
D19*
X308887500Y-78143750D03*
X306387500Y-78143750D03*
%TD*%
D16*
%TO.C,D47*%
X243681250Y-70005750D03*
D17*
X243681250Y-77631750D03*
%TD*%
D12*
%TO.C,MX45*%
X140970000Y-146050000D03*
D11*
X146050000Y-146050000D03*
D12*
X151130000Y-146050000D03*
D13*
X142895001Y-142780000D03*
D14*
X143550000Y-142050000D03*
D15*
X148570000Y-141260000D03*
D14*
X148590000Y-140970000D03*
%TD*%
D16*
%TO.C,D49*%
X251618750Y-70005750D03*
D17*
X251618750Y-77631750D03*
%TD*%
D16*
%TO.C,D24*%
X139700000Y-70005750D03*
D17*
X139700000Y-77631750D03*
%TD*%
D18*
%TO.C,REF\u002A\u002A*%
X315118750Y-107950000D03*
%TD*%
D16*
%TO.C,D29*%
X157162500Y-70005750D03*
D17*
X157162500Y-77631750D03*
%TD*%
D12*
%TO.C,MX37*%
X226695000Y-127000000D03*
D11*
X231775000Y-127000000D03*
D12*
X236855000Y-127000000D03*
D13*
X228620001Y-123730000D03*
D14*
X229275000Y-123000000D03*
D15*
X234295000Y-122210000D03*
D14*
X234315000Y-121920000D03*
%TD*%
D18*
%TO.C,REF\u002A\u002A*%
X95250000Y-93662500D03*
%TD*%
D16*
%TO.C,D28*%
X153987500Y-70005750D03*
D17*
X153987500Y-77631750D03*
%TD*%
D12*
%TO.C,MX40*%
X283845000Y-127000000D03*
D11*
X288925000Y-127000000D03*
D12*
X294005000Y-127000000D03*
D13*
X285770001Y-123730000D03*
D14*
X286425000Y-123000000D03*
D15*
X291445000Y-122210000D03*
D14*
X291465000Y-121920000D03*
%TD*%
D16*
%TO.C,D58*%
X296862500Y-70005750D03*
D17*
X296862500Y-77631750D03*
%TD*%
D16*
%TO.C,D14*%
X104775000Y-70005750D03*
D17*
X104775000Y-77631750D03*
%TD*%
D16*
%TO.C,D6*%
X76200000Y-70005750D03*
D17*
X76200000Y-77631750D03*
%TD*%
D12*
%TO.C,MX54*%
X62388750Y-165100000D03*
D11*
X67468750Y-165100000D03*
D12*
X72548750Y-165100000D03*
D13*
X64313751Y-161830000D03*
D14*
X64968750Y-161100000D03*
D15*
X69988750Y-160310000D03*
D14*
X70008750Y-160020000D03*
%TD*%
D16*
%TO.C,D34*%
X174625000Y-70005750D03*
D17*
X174625000Y-77631750D03*
%TD*%
D12*
%TO.C,MX15*%
X64770000Y-107950000D03*
D11*
X69850000Y-107950000D03*
D12*
X74930000Y-107950000D03*
D13*
X66695001Y-104680000D03*
D14*
X67350000Y-103950000D03*
D15*
X72370000Y-103160000D03*
D14*
X72390000Y-102870000D03*
%TD*%
D12*
%TO.C,MX36*%
X207645000Y-127000000D03*
D11*
X212725000Y-127000000D03*
D12*
X217805000Y-127000000D03*
D13*
X209570001Y-123730000D03*
D14*
X210225000Y-123000000D03*
D15*
X215245000Y-122210000D03*
D14*
X215265000Y-121920000D03*
%TD*%
D12*
%TO.C,MX49*%
X217170000Y-146050000D03*
D11*
X222250000Y-146050000D03*
D12*
X227330000Y-146050000D03*
D13*
X219095001Y-142780000D03*
D14*
X219750000Y-142050000D03*
D15*
X224770000Y-141260000D03*
D14*
X224790000Y-140970000D03*
%TD*%
D16*
%TO.C,D62*%
X265268250Y-65881250D03*
D17*
X272894250Y-65881250D03*
%TD*%
D16*
%TO.C,D20*%
X125412500Y-70005750D03*
D17*
X125412500Y-77631750D03*
%TD*%
D12*
%TO.C,MX31*%
X112395000Y-127000000D03*
D11*
X117475000Y-127000000D03*
D12*
X122555000Y-127000000D03*
D13*
X114320001Y-123730000D03*
D14*
X114975000Y-123000000D03*
D15*
X119995000Y-122210000D03*
D14*
X120015000Y-121920000D03*
%TD*%
D12*
%TO.C,MX13*%
X288607500Y-88900000D03*
D11*
X293687500Y-88900000D03*
D12*
X298767500Y-88900000D03*
D13*
X290532501Y-85630000D03*
D14*
X291187500Y-84900000D03*
D15*
X296207500Y-84110000D03*
D14*
X296227500Y-83820000D03*
%TD*%
D16*
%TO.C,D12*%
X96837500Y-70005750D03*
D17*
X96837500Y-77631750D03*
%TD*%
D10*
%TO.C,MX53*%
X303180750Y-139065000D03*
D11*
X303180750Y-154305000D03*
D12*
X310038750Y-146050000D03*
D11*
X315118750Y-146050000D03*
D12*
X320198750Y-146050000D03*
D10*
X327056750Y-139065000D03*
D11*
X327056750Y-154305000D03*
D13*
X311963751Y-142780000D03*
D14*
X312618750Y-142050000D03*
D15*
X317638750Y-141260000D03*
D14*
X317658750Y-140970000D03*
%TD*%
D16*
%TO.C,D35*%
X179387500Y-70005750D03*
D17*
X179387500Y-77631750D03*
%TD*%
D16*
%TO.C,D16*%
X111125000Y-70005750D03*
D17*
X111125000Y-77631750D03*
%TD*%
D16*
%TO.C,D5*%
X71437500Y-70005750D03*
D17*
X71437500Y-77631750D03*
%TD*%
D16*
%TO.C,D61*%
X322262500Y-70005750D03*
D17*
X322262500Y-77631750D03*
%TD*%
D16*
%TO.C,D51*%
X257968750Y-70005750D03*
D17*
X257968750Y-77631750D03*
%TD*%
D18*
%TO.C,REF\u002A\u002A*%
X304800000Y-91281250D03*
%TD*%
D12*
%TO.C,MX23*%
X221932500Y-107950000D03*
D11*
X227012500Y-107950000D03*
D12*
X232092500Y-107950000D03*
D13*
X223857501Y-104680000D03*
D14*
X224512500Y-103950000D03*
D15*
X229532500Y-103160000D03*
D14*
X229552500Y-102870000D03*
%TD*%
D11*
%TO.C,MX57*%
X136531350Y-156845000D03*
D10*
X136531350Y-172085000D03*
D12*
X181451250Y-165100000D03*
D11*
X186531250Y-165100000D03*
D12*
X191611250Y-165100000D03*
D11*
X236531150Y-156845000D03*
D10*
X236531150Y-172085000D03*
D13*
X183376251Y-161830000D03*
D14*
X184031250Y-161100000D03*
D15*
X189051250Y-160310000D03*
D14*
X189071250Y-160020000D03*
%TD*%
D16*
%TO.C,D55*%
X272256250Y-70005750D03*
D17*
X272256250Y-77631750D03*
%TD*%
D12*
%TO.C,MX8*%
X193357500Y-88900000D03*
D11*
X198437500Y-88900000D03*
D12*
X203517500Y-88900000D03*
D13*
X195282501Y-85630000D03*
D14*
X195937500Y-84900000D03*
D15*
X200957500Y-84110000D03*
D14*
X200977500Y-83820000D03*
%TD*%
D16*
%TO.C,D54*%
X269081250Y-70005750D03*
D17*
X269081250Y-77631750D03*
%TD*%
D12*
%TO.C,MX47*%
X179070000Y-146050000D03*
D11*
X184150000Y-146050000D03*
D12*
X189230000Y-146050000D03*
D13*
X180995001Y-142780000D03*
D14*
X181650000Y-142050000D03*
D15*
X186670000Y-141260000D03*
D14*
X186690000Y-140970000D03*
%TD*%
D12*
%TO.C,MX59*%
X276701250Y-165100000D03*
D11*
X281781250Y-165100000D03*
D12*
X286861250Y-165100000D03*
D13*
X278626251Y-161830000D03*
D14*
X279281250Y-161100000D03*
D15*
X284301250Y-160310000D03*
D14*
X284321250Y-160020000D03*
%TD*%
D16*
%TO.C,D21*%
X128587500Y-70005750D03*
D17*
X128587500Y-77631750D03*
%TD*%
D16*
%TO.C,D59*%
X315912500Y-70005750D03*
D17*
X315912500Y-77631750D03*
%TD*%
D12*
%TO.C,MX46*%
X160020000Y-146050000D03*
D11*
X165100000Y-146050000D03*
D12*
X170180000Y-146050000D03*
D13*
X161945001Y-142780000D03*
D14*
X162600000Y-142050000D03*
D15*
X167620000Y-141260000D03*
D14*
X167640000Y-140970000D03*
%TD*%
D16*
%TO.C,D27*%
X150812500Y-70005750D03*
D17*
X150812500Y-77631750D03*
%TD*%
D18*
%TO.C,REF\u002A\u002A*%
X96837500Y-146050000D03*
%TD*%
D12*
%TO.C,MX58*%
X252888750Y-165100000D03*
D11*
X257968750Y-165100000D03*
D12*
X263048750Y-165100000D03*
D13*
X254813751Y-161830000D03*
D14*
X255468750Y-161100000D03*
D15*
X260488750Y-160310000D03*
D14*
X260508750Y-160020000D03*
%TD*%
D16*
%TO.C,D50*%
X254793750Y-70005750D03*
D17*
X254793750Y-77631750D03*
%TD*%
D16*
%TO.C,D57*%
X293687500Y-70005750D03*
D17*
X293687500Y-77631750D03*
%TD*%
D16*
%TO.C,D4*%
X68262500Y-70005750D03*
D17*
X68262500Y-77631750D03*
%TD*%
D12*
%TO.C,MX26*%
X279082500Y-107950000D03*
D11*
X284162500Y-107950000D03*
D12*
X289242500Y-107950000D03*
D13*
X281007501Y-104680000D03*
D14*
X281662500Y-103950000D03*
D15*
X286682500Y-103160000D03*
D14*
X286702500Y-102870000D03*
%TD*%
D12*
%TO.C,MX35*%
X188595000Y-127000000D03*
D11*
X193675000Y-127000000D03*
D12*
X198755000Y-127000000D03*
D13*
X190520001Y-123730000D03*
D14*
X191175000Y-123000000D03*
D15*
X196195000Y-122210000D03*
D14*
X196215000Y-121920000D03*
%TD*%
D12*
%TO.C,MX24*%
X240982500Y-107950000D03*
D11*
X246062500Y-107950000D03*
D12*
X251142500Y-107950000D03*
D13*
X242907501Y-104680000D03*
D14*
X243562500Y-103950000D03*
D15*
X248582500Y-103160000D03*
D14*
X248602500Y-102870000D03*
%TD*%
D16*
%TO.C,D9*%
X87312500Y-70005750D03*
D17*
X87312500Y-77631750D03*
%TD*%
D16*
%TO.C,D7*%
X79375000Y-70005750D03*
D17*
X79375000Y-77631750D03*
%TD*%
D16*
%TO.C,D63*%
X289080750Y-65881250D03*
D17*
X296706750Y-65881250D03*
%TD*%
D12*
%TO.C,MX38*%
X245745000Y-127000000D03*
D11*
X250825000Y-127000000D03*
D12*
X255905000Y-127000000D03*
D13*
X247670001Y-123730000D03*
D14*
X248325000Y-123000000D03*
D15*
X253345000Y-122210000D03*
D14*
X253365000Y-121920000D03*
%TD*%
D12*
%TO.C,MX21*%
X183832500Y-107950000D03*
D11*
X188912500Y-107950000D03*
D12*
X193992500Y-107950000D03*
D13*
X185757501Y-104680000D03*
D14*
X186412500Y-103950000D03*
D15*
X191432500Y-103160000D03*
D14*
X191452500Y-102870000D03*
%TD*%
D12*
%TO.C,MX19*%
X145732500Y-107950000D03*
D11*
X150812500Y-107950000D03*
D12*
X155892500Y-107950000D03*
D13*
X147657501Y-104680000D03*
D14*
X148312500Y-103950000D03*
D15*
X153332500Y-103160000D03*
D14*
X153352500Y-102870000D03*
%TD*%
D12*
%TO.C,MX25*%
X260032500Y-107950000D03*
D11*
X265112500Y-107950000D03*
D12*
X270192500Y-107950000D03*
D13*
X261957501Y-104680000D03*
D14*
X262612500Y-103950000D03*
D15*
X267632500Y-103160000D03*
D14*
X267652500Y-102870000D03*
%TD*%
D16*
%TO.C,D36*%
X182562500Y-70005750D03*
D17*
X182562500Y-77631750D03*
%TD*%
D18*
%TO.C,REF\u002A\u002A*%
X191293750Y-115887500D03*
%TD*%
D10*
%TO.C,MX14*%
X310324500Y-81915000D03*
D11*
X310324500Y-97155000D03*
D12*
X317182500Y-88900000D03*
D11*
X322262500Y-88900000D03*
D12*
X327342500Y-88900000D03*
D10*
X334200500Y-81915000D03*
D11*
X334200500Y-97155000D03*
D13*
X319107501Y-85630000D03*
D14*
X319762500Y-84900000D03*
D15*
X324782500Y-84110000D03*
D14*
X324802500Y-83820000D03*
%TD*%
D12*
%TO.C,MX61*%
X324326250Y-165100000D03*
D11*
X329406250Y-165100000D03*
D12*
X334486250Y-165100000D03*
D13*
X326251251Y-161830000D03*
D14*
X326906250Y-161100000D03*
D15*
X331926250Y-160310000D03*
D14*
X331946250Y-160020000D03*
%TD*%
D12*
%TO.C,MX28*%
X321945000Y-107950000D03*
D11*
X327025000Y-107950000D03*
D12*
X332105000Y-107950000D03*
D13*
X323870001Y-104680000D03*
D14*
X324525000Y-103950000D03*
D15*
X329545000Y-103160000D03*
D14*
X329565000Y-102870000D03*
%TD*%
D12*
%TO.C,MX12*%
X269557500Y-88900000D03*
D11*
X274637500Y-88900000D03*
D12*
X279717500Y-88900000D03*
D13*
X271482501Y-85630000D03*
D14*
X272137500Y-84900000D03*
D15*
X277157500Y-84110000D03*
D14*
X277177500Y-83820000D03*
%TD*%
D16*
%TO.C,D25*%
X142875000Y-70005750D03*
D17*
X142875000Y-77631750D03*
%TD*%
D12*
%TO.C,MX16*%
X88582500Y-107950000D03*
D11*
X93662500Y-107950000D03*
D12*
X98742500Y-107950000D03*
D13*
X90507501Y-104680000D03*
D14*
X91162500Y-103950000D03*
D15*
X96182500Y-103160000D03*
D14*
X96202500Y-102870000D03*
%TD*%
D12*
%TO.C,MX1*%
X60007500Y-88900000D03*
D11*
X65087500Y-88900000D03*
D12*
X70167500Y-88900000D03*
D13*
X61932501Y-85630000D03*
D14*
X62587500Y-84900000D03*
D15*
X67607500Y-84110000D03*
D14*
X67627500Y-83820000D03*
%TD*%
D12*
%TO.C,MX4*%
X117157500Y-88900000D03*
D11*
X122237500Y-88900000D03*
D12*
X127317500Y-88900000D03*
D13*
X119082501Y-85630000D03*
D14*
X119737500Y-84900000D03*
D15*
X124757500Y-84110000D03*
D14*
X124777500Y-83820000D03*
%TD*%
D18*
%TO.C,REF\u002A\u002A*%
X293687500Y-146050000D03*
%TD*%
D12*
%TO.C,MX11*%
X250507500Y-88900000D03*
D11*
X255587500Y-88900000D03*
D12*
X260667500Y-88900000D03*
D13*
X252432501Y-85630000D03*
D14*
X253087500Y-84900000D03*
D15*
X258107500Y-84110000D03*
D14*
X258127500Y-83820000D03*
%TD*%
D16*
%TO.C,D32*%
X168275000Y-70005750D03*
D17*
X168275000Y-77631750D03*
%TD*%
D12*
%TO.C,MX29*%
X67151250Y-127000000D03*
D11*
X72231250Y-127000000D03*
D12*
X77311250Y-127000000D03*
D13*
X69076251Y-123730000D03*
D14*
X69731250Y-123000000D03*
D15*
X74751250Y-122210000D03*
D14*
X74771250Y-121920000D03*
%TD*%
D16*
%TO.C,D37*%
X185737500Y-70005750D03*
D17*
X185737500Y-77631750D03*
%TD*%
D12*
%TO.C,MX22*%
X202882500Y-107950000D03*
D11*
X207962500Y-107950000D03*
D12*
X213042500Y-107950000D03*
D13*
X204807501Y-104680000D03*
D14*
X205462500Y-103950000D03*
D15*
X210482500Y-103160000D03*
D14*
X210502500Y-102870000D03*
%TD*%
D12*
%TO.C,MX9*%
X212407500Y-88900000D03*
D11*
X217487500Y-88900000D03*
D12*
X222567500Y-88900000D03*
D13*
X214332501Y-85630000D03*
D14*
X214987500Y-84900000D03*
D15*
X220007500Y-84110000D03*
D14*
X220027500Y-83820000D03*
%TD*%
D21*
%TO.C,U1*%
X201162500Y-51406250D03*
D22*
X200862500Y-54436250D03*
X196012500Y-54436250D03*
D21*
X195712500Y-51406250D03*
D23*
X207327500Y-51276250D03*
D24*
X208227500Y-51276250D03*
D23*
X207327500Y-53816250D03*
D24*
X208227500Y-53816250D03*
D25*
X207327500Y-56356250D03*
D24*
X208227500Y-56356250D03*
D23*
X207327500Y-58896250D03*
D24*
X208227500Y-58896250D03*
D23*
X207327500Y-61436250D03*
D24*
X208227500Y-61436250D03*
D23*
X207327500Y-63976250D03*
D24*
X208227500Y-63976250D03*
D23*
X207327500Y-66516250D03*
D24*
X208227500Y-66516250D03*
D25*
X207327500Y-69056250D03*
D24*
X208227500Y-69056250D03*
D23*
X207327500Y-71596250D03*
D24*
X208227500Y-71596250D03*
D23*
X207327500Y-74136250D03*
D24*
X208227500Y-74136250D03*
D23*
X207327500Y-76676250D03*
D24*
X208227500Y-76676250D03*
D23*
X207327500Y-79216250D03*
D24*
X208227500Y-79216250D03*
D25*
X207327500Y-81756250D03*
D24*
X208227500Y-81756250D03*
D23*
X207327500Y-84296250D03*
D24*
X208227500Y-84296250D03*
D23*
X207327500Y-86836250D03*
D24*
X208227500Y-86836250D03*
D23*
X207327500Y-89376250D03*
D24*
X208227500Y-89376250D03*
D23*
X207327500Y-91916250D03*
D24*
X208227500Y-91916250D03*
D25*
X207327500Y-94456250D03*
D24*
X208227500Y-94456250D03*
D23*
X207327500Y-96996250D03*
D24*
X208227500Y-96996250D03*
D23*
X207327500Y-99536250D03*
D24*
X208227500Y-99536250D03*
D23*
X189547500Y-99536250D03*
D24*
X188647500Y-99536250D03*
D23*
X189547500Y-96996250D03*
D24*
X188647500Y-96996250D03*
D25*
X189547500Y-94456250D03*
D24*
X188647500Y-94456250D03*
D23*
X189547500Y-91916250D03*
D24*
X188647500Y-91916250D03*
D23*
X189547500Y-89376250D03*
D24*
X188647500Y-89376250D03*
D23*
X189547500Y-86836250D03*
D24*
X188647500Y-86836250D03*
D23*
X189547500Y-84296250D03*
D24*
X188647500Y-84296250D03*
D25*
X189547500Y-81756250D03*
D24*
X188647500Y-81756250D03*
D23*
X189547500Y-79216250D03*
D24*
X188647500Y-79216250D03*
D23*
X189547500Y-76676250D03*
D24*
X188647500Y-76676250D03*
D23*
X189547500Y-74136250D03*
D24*
X188647500Y-74136250D03*
D23*
X189547500Y-71596250D03*
D24*
X188647500Y-71596250D03*
D25*
X189547500Y-69056250D03*
D24*
X188647500Y-69056250D03*
D23*
X189547500Y-66516250D03*
D24*
X188647500Y-66516250D03*
D23*
X189547500Y-63976250D03*
D24*
X188647500Y-63976250D03*
D23*
X189547500Y-61436250D03*
D24*
X188647500Y-61436250D03*
D23*
X189547500Y-58896250D03*
D24*
X188647500Y-58896250D03*
D25*
X189547500Y-56356250D03*
D24*
X188647500Y-56356250D03*
D23*
X189547500Y-53816250D03*
D24*
X188647500Y-53816250D03*
D23*
X189547500Y-51276250D03*
D24*
X188647500Y-51276250D03*
D23*
X200977500Y-99306250D03*
D26*
X200977500Y-100206250D03*
D25*
X198437500Y-99306250D03*
D26*
X198437500Y-100206250D03*
D23*
X195897500Y-99306250D03*
D26*
X195897500Y-100206250D03*
%TD*%
M02*
