%TF.GenerationSoftware,KiCad,Pcbnew,7.0.4*%
%TF.CreationDate,2023-05-29T10:37:39-04:00*%
%TF.ProjectId,keyboard,6b657962-6f61-4726-942e-6b696361645f,rev?*%
%TF.SameCoordinates,Original*%
%TF.FileFunction,Soldermask,Top*%
%TF.FilePolarity,Negative*%
%FSLAX46Y46*%
G04 Gerber Fmt 4.6, Leading zero omitted, Abs format (unit mm)*
G04 Created by KiCad (PCBNEW 7.0.4) date 2023-05-29 10:37:39*
%MOMM*%
%LPD*%
G01*
G04 APERTURE LIST*
%ADD10C,3.048000*%
%ADD11C,3.987800*%
%ADD12C,1.750000*%
%ADD13R,1.200000X1.200000*%
%ADD14C,1.200000*%
%ADD15C,5.000000*%
%ADD16C,1.550000*%
%ADD17R,1.550000X1.550000*%
%ADD18O,1.800000X1.800000*%
%ADD19O,1.500000X1.500000*%
%ADD20O,1.700000X1.700000*%
%ADD21R,1.700000X1.700000*%
G04 APERTURE END LIST*
D10*
%TO.C,MX42*%
X65055750Y-139065000D03*
D11*
X65055750Y-154305000D03*
D12*
X71913750Y-146050000D03*
D11*
X76993750Y-146050000D03*
D12*
X82073750Y-146050000D03*
D10*
X88931750Y-139065000D03*
D11*
X88931750Y-154305000D03*
%TD*%
D13*
%TO.C,D43*%
X230981250Y-70005750D03*
D14*
X230981250Y-77631750D03*
%TD*%
D13*
%TO.C,D60*%
X319087500Y-70005750D03*
D14*
X319087500Y-77631750D03*
%TD*%
D13*
%TO.C,D52*%
X261143750Y-70005750D03*
D14*
X261143750Y-77631750D03*
%TD*%
D15*
%TO.C,REF\u002A\u002A*%
X83343750Y-107950000D03*
%TD*%
D12*
%TO.C,MX50*%
X236220000Y-146050000D03*
D11*
X241300000Y-146050000D03*
D12*
X246380000Y-146050000D03*
%TD*%
%TO.C,MX33*%
X150495000Y-127000000D03*
D11*
X155575000Y-127000000D03*
D12*
X160655000Y-127000000D03*
%TD*%
D13*
%TO.C,D46*%
X240506250Y-70005750D03*
D14*
X240506250Y-77631750D03*
%TD*%
D12*
%TO.C,MX5*%
X136207500Y-88900000D03*
D11*
X141287500Y-88900000D03*
D12*
X146367500Y-88900000D03*
%TD*%
%TO.C,MX18*%
X126682500Y-107950000D03*
D11*
X131762500Y-107950000D03*
D12*
X136842500Y-107950000D03*
%TD*%
%TO.C,MX7*%
X174307500Y-88900000D03*
D11*
X179387500Y-88900000D03*
D12*
X184467500Y-88900000D03*
%TD*%
D13*
%TO.C,D8*%
X82550000Y-70005750D03*
D14*
X82550000Y-77631750D03*
%TD*%
D13*
%TO.C,D31*%
X165100000Y-70005750D03*
D14*
X165100000Y-77631750D03*
%TD*%
D13*
%TO.C,D44*%
X234156250Y-70005750D03*
D14*
X234156250Y-77631750D03*
%TD*%
D12*
%TO.C,MX20*%
X164782500Y-107950000D03*
D11*
X169862500Y-107950000D03*
D12*
X174942500Y-107950000D03*
%TD*%
%TO.C,MX60*%
X300513750Y-165100000D03*
D11*
X305593750Y-165100000D03*
D12*
X310673750Y-165100000D03*
%TD*%
D13*
%TO.C,D17*%
X114300000Y-70005750D03*
D14*
X114300000Y-77631750D03*
%TD*%
D13*
%TO.C,D11*%
X93662500Y-70005750D03*
D14*
X93662500Y-77631750D03*
%TD*%
D12*
%TO.C,MX27*%
X298132500Y-107950000D03*
D11*
X303212500Y-107950000D03*
D12*
X308292500Y-107950000D03*
%TD*%
%TO.C,MX2*%
X79057500Y-88900000D03*
D11*
X84137500Y-88900000D03*
D12*
X89217500Y-88900000D03*
%TD*%
D13*
%TO.C,D39*%
X216693750Y-70005750D03*
D14*
X216693750Y-77631750D03*
%TD*%
D13*
%TO.C,D48*%
X248443750Y-70005750D03*
D14*
X248443750Y-77631750D03*
%TD*%
D13*
%TO.C,D10*%
X90487500Y-70005750D03*
D14*
X90487500Y-77631750D03*
%TD*%
D13*
%TO.C,D2*%
X61912500Y-70005750D03*
D14*
X61912500Y-77631750D03*
%TD*%
D12*
%TO.C,MX30*%
X93345000Y-127000000D03*
D11*
X98425000Y-127000000D03*
D12*
X103505000Y-127000000D03*
%TD*%
%TO.C,MX48*%
X198120000Y-146050000D03*
D11*
X203200000Y-146050000D03*
D12*
X208280000Y-146050000D03*
%TD*%
D13*
%TO.C,D13*%
X101600000Y-70005750D03*
D14*
X101600000Y-77631750D03*
%TD*%
D13*
%TO.C,D41*%
X223043750Y-70005750D03*
D14*
X223043750Y-77631750D03*
%TD*%
D13*
%TO.C,D23*%
X136525000Y-70005750D03*
D14*
X136525000Y-77631750D03*
%TD*%
D12*
%TO.C,MX55*%
X86201250Y-165100000D03*
D11*
X91281250Y-165100000D03*
D12*
X96361250Y-165100000D03*
%TD*%
%TO.C,MX6*%
X155257500Y-88900000D03*
D11*
X160337500Y-88900000D03*
D12*
X165417500Y-88900000D03*
%TD*%
D13*
%TO.C,D64*%
X315274500Y-65881250D03*
D14*
X322900500Y-65881250D03*
%TD*%
D15*
%TO.C,*%
X95250000Y-93662500D03*
%TD*%
D13*
%TO.C,D33*%
X171450000Y-70005750D03*
D14*
X171450000Y-77631750D03*
%TD*%
D12*
%TO.C,MX51*%
X255270000Y-146050000D03*
D11*
X260350000Y-146050000D03*
D12*
X265430000Y-146050000D03*
%TD*%
D10*
%TO.C,MX41*%
X307943250Y-120015000D03*
D11*
X307943250Y-135255000D03*
D12*
X314801250Y-127000000D03*
D11*
X319881250Y-127000000D03*
D12*
X324961250Y-127000000D03*
D10*
X331819250Y-120015000D03*
D11*
X331819250Y-135255000D03*
%TD*%
D12*
%TO.C,MX3*%
X98107500Y-88900000D03*
D11*
X103187500Y-88900000D03*
D12*
X108267500Y-88900000D03*
%TD*%
D13*
%TO.C,D15*%
X107950000Y-70005750D03*
D14*
X107950000Y-77631750D03*
%TD*%
D13*
%TO.C,D26*%
X147637500Y-70005750D03*
D14*
X147637500Y-77631750D03*
%TD*%
D13*
%TO.C,D30*%
X161925000Y-70005750D03*
D14*
X161925000Y-77631750D03*
%TD*%
D13*
%TO.C,D3*%
X65087500Y-70005750D03*
D14*
X65087500Y-77631750D03*
%TD*%
D12*
%TO.C,MX44*%
X121920000Y-146050000D03*
D11*
X127000000Y-146050000D03*
D12*
X132080000Y-146050000D03*
%TD*%
D16*
%TO.C,ENC3*%
X329287500Y-63643750D03*
X334287500Y-63643750D03*
D17*
X329287500Y-78143750D03*
D16*
X334287500Y-78143750D03*
X331787500Y-78143750D03*
%TD*%
D13*
%TO.C,D22*%
X133350000Y-70005750D03*
D14*
X133350000Y-77631750D03*
%TD*%
D13*
%TO.C,D45*%
X237331250Y-70005750D03*
D14*
X237331250Y-77631750D03*
%TD*%
D12*
%TO.C,MX56*%
X110013750Y-165100000D03*
D11*
X115093750Y-165100000D03*
D12*
X120173750Y-165100000D03*
%TD*%
D13*
%TO.C,D56*%
X290512500Y-70005750D03*
D14*
X290512500Y-77631750D03*
%TD*%
D12*
%TO.C,MX32*%
X131445000Y-127000000D03*
D11*
X136525000Y-127000000D03*
D12*
X141605000Y-127000000D03*
%TD*%
D13*
%TO.C,D18*%
X119062500Y-70005750D03*
D14*
X119062500Y-77631750D03*
%TD*%
D12*
%TO.C,MX34*%
X169545000Y-127000000D03*
D11*
X174625000Y-127000000D03*
D12*
X179705000Y-127000000D03*
%TD*%
%TO.C,MX10*%
X231457500Y-88900000D03*
D11*
X236537500Y-88900000D03*
D12*
X241617500Y-88900000D03*
%TD*%
D13*
%TO.C,D19*%
X122237500Y-70005750D03*
D14*
X122237500Y-77631750D03*
%TD*%
D13*
%TO.C,D38*%
X211931250Y-70005750D03*
D14*
X211931250Y-77631750D03*
%TD*%
D13*
%TO.C,D40*%
X219868750Y-70005750D03*
D14*
X219868750Y-77631750D03*
%TD*%
D16*
%TO.C,ENC1*%
X278487500Y-63643750D03*
X283487500Y-63643750D03*
D17*
X278487500Y-78143750D03*
D16*
X283487500Y-78143750D03*
X280987500Y-78143750D03*
%TD*%
D12*
%TO.C,MX52*%
X274320000Y-146050000D03*
D11*
X279400000Y-146050000D03*
D12*
X284480000Y-146050000D03*
%TD*%
%TO.C,MX17*%
X107632500Y-107950000D03*
D11*
X112712500Y-107950000D03*
D12*
X117792500Y-107950000D03*
%TD*%
D13*
%TO.C,D53*%
X265906250Y-70005750D03*
D14*
X265906250Y-77631750D03*
%TD*%
D13*
%TO.C,D1*%
X58737500Y-70005750D03*
D14*
X58737500Y-77631750D03*
%TD*%
D12*
%TO.C,MX39*%
X264795000Y-127000000D03*
D11*
X269875000Y-127000000D03*
D12*
X274955000Y-127000000D03*
%TD*%
%TO.C,MX43*%
X102870000Y-146050000D03*
D11*
X107950000Y-146050000D03*
D12*
X113030000Y-146050000D03*
%TD*%
D13*
%TO.C,D42*%
X226218750Y-70005750D03*
D14*
X226218750Y-77631750D03*
%TD*%
D16*
%TO.C,ENC2*%
X303887500Y-63643750D03*
X308887500Y-63643750D03*
D17*
X303887500Y-78143750D03*
D16*
X308887500Y-78143750D03*
X306387500Y-78143750D03*
%TD*%
D13*
%TO.C,D47*%
X243681250Y-70005750D03*
D14*
X243681250Y-77631750D03*
%TD*%
D12*
%TO.C,MX45*%
X140970000Y-146050000D03*
D11*
X146050000Y-146050000D03*
D12*
X151130000Y-146050000D03*
%TD*%
D13*
%TO.C,D49*%
X251618750Y-70005750D03*
D14*
X251618750Y-77631750D03*
%TD*%
D13*
%TO.C,D24*%
X139700000Y-70005750D03*
D14*
X139700000Y-77631750D03*
%TD*%
D15*
%TO.C,REF\u002A\u002A*%
X315118750Y-107950000D03*
%TD*%
D13*
%TO.C,D29*%
X157162500Y-70005750D03*
D14*
X157162500Y-77631750D03*
%TD*%
D12*
%TO.C,MX37*%
X226695000Y-127000000D03*
D11*
X231775000Y-127000000D03*
D12*
X236855000Y-127000000D03*
%TD*%
D15*
%TO.C,REF\u002A\u002A*%
X95250000Y-93662500D03*
%TD*%
D13*
%TO.C,D28*%
X153987500Y-70005750D03*
D14*
X153987500Y-77631750D03*
%TD*%
D12*
%TO.C,MX40*%
X283845000Y-127000000D03*
D11*
X288925000Y-127000000D03*
D12*
X294005000Y-127000000D03*
%TD*%
D13*
%TO.C,D58*%
X296862500Y-70005750D03*
D14*
X296862500Y-77631750D03*
%TD*%
D13*
%TO.C,D14*%
X104775000Y-70005750D03*
D14*
X104775000Y-77631750D03*
%TD*%
D13*
%TO.C,D6*%
X76200000Y-70005750D03*
D14*
X76200000Y-77631750D03*
%TD*%
D12*
%TO.C,MX54*%
X62388750Y-165100000D03*
D11*
X67468750Y-165100000D03*
D12*
X72548750Y-165100000D03*
%TD*%
D13*
%TO.C,D34*%
X174625000Y-70005750D03*
D14*
X174625000Y-77631750D03*
%TD*%
D12*
%TO.C,MX15*%
X64770000Y-107950000D03*
D11*
X69850000Y-107950000D03*
D12*
X74930000Y-107950000D03*
%TD*%
%TO.C,MX36*%
X207645000Y-127000000D03*
D11*
X212725000Y-127000000D03*
D12*
X217805000Y-127000000D03*
%TD*%
%TO.C,MX49*%
X217170000Y-146050000D03*
D11*
X222250000Y-146050000D03*
D12*
X227330000Y-146050000D03*
%TD*%
D13*
%TO.C,D62*%
X265268250Y-65881250D03*
D14*
X272894250Y-65881250D03*
%TD*%
D13*
%TO.C,D20*%
X125412500Y-70005750D03*
D14*
X125412500Y-77631750D03*
%TD*%
D12*
%TO.C,MX31*%
X112395000Y-127000000D03*
D11*
X117475000Y-127000000D03*
D12*
X122555000Y-127000000D03*
%TD*%
%TO.C,MX13*%
X288607500Y-88900000D03*
D11*
X293687500Y-88900000D03*
D12*
X298767500Y-88900000D03*
%TD*%
D13*
%TO.C,D12*%
X96837500Y-70005750D03*
D14*
X96837500Y-77631750D03*
%TD*%
D10*
%TO.C,MX53*%
X303180750Y-139065000D03*
D11*
X303180750Y-154305000D03*
D12*
X310038750Y-146050000D03*
D11*
X315118750Y-146050000D03*
D12*
X320198750Y-146050000D03*
D10*
X327056750Y-139065000D03*
D11*
X327056750Y-154305000D03*
%TD*%
D13*
%TO.C,D35*%
X179387500Y-70005750D03*
D14*
X179387500Y-77631750D03*
%TD*%
D13*
%TO.C,D16*%
X111125000Y-70005750D03*
D14*
X111125000Y-77631750D03*
%TD*%
D13*
%TO.C,D5*%
X71437500Y-70005750D03*
D14*
X71437500Y-77631750D03*
%TD*%
D13*
%TO.C,D61*%
X322262500Y-70005750D03*
D14*
X322262500Y-77631750D03*
%TD*%
D13*
%TO.C,D51*%
X257968750Y-70005750D03*
D14*
X257968750Y-77631750D03*
%TD*%
D15*
%TO.C,REF\u002A\u002A*%
X304800000Y-91281250D03*
%TD*%
D12*
%TO.C,MX23*%
X221932500Y-107950000D03*
D11*
X227012500Y-107950000D03*
D12*
X232092500Y-107950000D03*
%TD*%
D11*
%TO.C,MX57*%
X136531350Y-156845000D03*
D10*
X136531350Y-172085000D03*
D12*
X181451250Y-165100000D03*
D11*
X186531250Y-165100000D03*
D12*
X191611250Y-165100000D03*
D11*
X236531150Y-156845000D03*
D10*
X236531150Y-172085000D03*
%TD*%
D13*
%TO.C,D55*%
X272256250Y-70005750D03*
D14*
X272256250Y-77631750D03*
%TD*%
D12*
%TO.C,MX8*%
X193357500Y-88900000D03*
D11*
X198437500Y-88900000D03*
D12*
X203517500Y-88900000D03*
%TD*%
D13*
%TO.C,D54*%
X269081250Y-70005750D03*
D14*
X269081250Y-77631750D03*
%TD*%
D12*
%TO.C,MX47*%
X179070000Y-146050000D03*
D11*
X184150000Y-146050000D03*
D12*
X189230000Y-146050000D03*
%TD*%
%TO.C,MX59*%
X276701250Y-165100000D03*
D11*
X281781250Y-165100000D03*
D12*
X286861250Y-165100000D03*
%TD*%
D13*
%TO.C,D21*%
X128587500Y-70005750D03*
D14*
X128587500Y-77631750D03*
%TD*%
D13*
%TO.C,D59*%
X315912500Y-70005750D03*
D14*
X315912500Y-77631750D03*
%TD*%
D12*
%TO.C,MX46*%
X160020000Y-146050000D03*
D11*
X165100000Y-146050000D03*
D12*
X170180000Y-146050000D03*
%TD*%
D13*
%TO.C,D27*%
X150812500Y-70005750D03*
D14*
X150812500Y-77631750D03*
%TD*%
D15*
%TO.C,REF\u002A\u002A*%
X96837500Y-146050000D03*
%TD*%
D12*
%TO.C,MX58*%
X252888750Y-165100000D03*
D11*
X257968750Y-165100000D03*
D12*
X263048750Y-165100000D03*
%TD*%
D13*
%TO.C,D50*%
X254793750Y-70005750D03*
D14*
X254793750Y-77631750D03*
%TD*%
D13*
%TO.C,D57*%
X293687500Y-70005750D03*
D14*
X293687500Y-77631750D03*
%TD*%
D13*
%TO.C,D4*%
X68262500Y-70005750D03*
D14*
X68262500Y-77631750D03*
%TD*%
D12*
%TO.C,MX26*%
X279082500Y-107950000D03*
D11*
X284162500Y-107950000D03*
D12*
X289242500Y-107950000D03*
%TD*%
%TO.C,MX35*%
X188595000Y-127000000D03*
D11*
X193675000Y-127000000D03*
D12*
X198755000Y-127000000D03*
%TD*%
%TO.C,MX24*%
X240982500Y-107950000D03*
D11*
X246062500Y-107950000D03*
D12*
X251142500Y-107950000D03*
%TD*%
D13*
%TO.C,D9*%
X87312500Y-70005750D03*
D14*
X87312500Y-77631750D03*
%TD*%
D13*
%TO.C,D7*%
X79375000Y-70005750D03*
D14*
X79375000Y-77631750D03*
%TD*%
D13*
%TO.C,D63*%
X289080750Y-65881250D03*
D14*
X296706750Y-65881250D03*
%TD*%
D12*
%TO.C,MX38*%
X245745000Y-127000000D03*
D11*
X250825000Y-127000000D03*
D12*
X255905000Y-127000000D03*
%TD*%
%TO.C,MX21*%
X183832500Y-107950000D03*
D11*
X188912500Y-107950000D03*
D12*
X193992500Y-107950000D03*
%TD*%
%TO.C,MX19*%
X145732500Y-107950000D03*
D11*
X150812500Y-107950000D03*
D12*
X155892500Y-107950000D03*
%TD*%
%TO.C,MX25*%
X260032500Y-107950000D03*
D11*
X265112500Y-107950000D03*
D12*
X270192500Y-107950000D03*
%TD*%
D13*
%TO.C,D36*%
X182562500Y-70005750D03*
D14*
X182562500Y-77631750D03*
%TD*%
D15*
%TO.C,REF\u002A\u002A*%
X191293750Y-115887500D03*
%TD*%
D10*
%TO.C,MX14*%
X310324500Y-81915000D03*
D11*
X310324500Y-97155000D03*
D12*
X317182500Y-88900000D03*
D11*
X322262500Y-88900000D03*
D12*
X327342500Y-88900000D03*
D10*
X334200500Y-81915000D03*
D11*
X334200500Y-97155000D03*
%TD*%
D12*
%TO.C,MX61*%
X324326250Y-165100000D03*
D11*
X329406250Y-165100000D03*
D12*
X334486250Y-165100000D03*
%TD*%
%TO.C,MX28*%
X321945000Y-107950000D03*
D11*
X327025000Y-107950000D03*
D12*
X332105000Y-107950000D03*
%TD*%
%TO.C,MX12*%
X269557500Y-88900000D03*
D11*
X274637500Y-88900000D03*
D12*
X279717500Y-88900000D03*
%TD*%
D13*
%TO.C,D25*%
X142875000Y-70005750D03*
D14*
X142875000Y-77631750D03*
%TD*%
D12*
%TO.C,MX16*%
X88582500Y-107950000D03*
D11*
X93662500Y-107950000D03*
D12*
X98742500Y-107950000D03*
%TD*%
%TO.C,MX1*%
X60007500Y-88900000D03*
D11*
X65087500Y-88900000D03*
D12*
X70167500Y-88900000D03*
%TD*%
%TO.C,MX4*%
X117157500Y-88900000D03*
D11*
X122237500Y-88900000D03*
D12*
X127317500Y-88900000D03*
%TD*%
D15*
%TO.C,REF\u002A\u002A*%
X293687500Y-146050000D03*
%TD*%
D12*
%TO.C,MX11*%
X250507500Y-88900000D03*
D11*
X255587500Y-88900000D03*
D12*
X260667500Y-88900000D03*
%TD*%
D13*
%TO.C,D32*%
X168275000Y-70005750D03*
D14*
X168275000Y-77631750D03*
%TD*%
D12*
%TO.C,MX29*%
X67151250Y-127000000D03*
D11*
X72231250Y-127000000D03*
D12*
X77311250Y-127000000D03*
%TD*%
D13*
%TO.C,D37*%
X185737500Y-70005750D03*
D14*
X185737500Y-77631750D03*
%TD*%
D12*
%TO.C,MX22*%
X202882500Y-107950000D03*
D11*
X207962500Y-107950000D03*
D12*
X213042500Y-107950000D03*
%TD*%
%TO.C,MX9*%
X212407500Y-88900000D03*
D11*
X217487500Y-88900000D03*
D12*
X222567500Y-88900000D03*
%TD*%
D18*
%TO.C,U1*%
X201162500Y-51406250D03*
D19*
X200862500Y-54436250D03*
X196012500Y-54436250D03*
D18*
X195712500Y-51406250D03*
D20*
X207327500Y-51276250D03*
X207327500Y-53816250D03*
D21*
X207327500Y-56356250D03*
D20*
X207327500Y-58896250D03*
X207327500Y-61436250D03*
X207327500Y-63976250D03*
X207327500Y-66516250D03*
D21*
X207327500Y-69056250D03*
D20*
X207327500Y-71596250D03*
X207327500Y-74136250D03*
X207327500Y-76676250D03*
X207327500Y-79216250D03*
D21*
X207327500Y-81756250D03*
D20*
X207327500Y-84296250D03*
X207327500Y-86836250D03*
X207327500Y-89376250D03*
X207327500Y-91916250D03*
D21*
X207327500Y-94456250D03*
D20*
X207327500Y-96996250D03*
X207327500Y-99536250D03*
X189547500Y-99536250D03*
X189547500Y-96996250D03*
D21*
X189547500Y-94456250D03*
D20*
X189547500Y-91916250D03*
X189547500Y-89376250D03*
X189547500Y-86836250D03*
X189547500Y-84296250D03*
D21*
X189547500Y-81756250D03*
D20*
X189547500Y-79216250D03*
X189547500Y-76676250D03*
X189547500Y-74136250D03*
X189547500Y-71596250D03*
D21*
X189547500Y-69056250D03*
D20*
X189547500Y-66516250D03*
X189547500Y-63976250D03*
X189547500Y-61436250D03*
X189547500Y-58896250D03*
D21*
X189547500Y-56356250D03*
D20*
X189547500Y-53816250D03*
X189547500Y-51276250D03*
X200977500Y-99306250D03*
D21*
X198437500Y-99306250D03*
D20*
X195897500Y-99306250D03*
%TD*%
M02*
