%TF.GenerationSoftware,KiCad,Pcbnew,7.0.4*%
%TF.CreationDate,2023-05-29T10:38:24-04:00*%
%TF.ProjectId,keyboard,6b657962-6f61-4726-942e-6b696361645f,rev?*%
%TF.SameCoordinates,Original*%
%TF.FileFunction,Drillmap*%
%TF.FilePolarity,Positive*%
%FSLAX45Y45*%
G04 Gerber Fmt 4.5, Leading zero omitted, Abs format (unit mm)*
G04 Created by KiCad (PCBNEW 7.0.4) date 2023-05-29 10:38:24*
%MOMM*%
%LPD*%
G01*
G04 APERTURE LIST*
%ADD10C,0.100000*%
%ADD11C,0.200000*%
%ADD12C,0.040000*%
%ADD13C,0.070000*%
%ADD14C,0.102000*%
%ADD15C,0.147000*%
%ADD16C,0.150000*%
%ADD17C,0.250000*%
G04 APERTURE END LIST*
D10*
X5794375Y-4921250D02*
X33893125Y-4921250D01*
X5556250Y-5159375D02*
X5556250Y-17224375D01*
X33893125Y-17462500D02*
G75*
G03*
X34131250Y-17224375I-5J238130D01*
G01*
X34131250Y-5159375D02*
G75*
G03*
X33893125Y-4921250I-238130J-5D01*
G01*
X5556250Y-17224375D02*
G75*
G03*
X5794375Y-17462500I238130J5D01*
G01*
X34131250Y-5159375D02*
X34131250Y-17224375D01*
X33893125Y-17462500D02*
X5794375Y-17462500D01*
X5794375Y-4921250D02*
G75*
G03*
X5556250Y-5159375I0J-238125D01*
G01*
D11*
D12*
X6250625Y-6726875D02*
X6290625Y-6766875D01*
X6290625Y-6726875D02*
X6250625Y-6766875D01*
X6568125Y-6647500D02*
X6608125Y-6687500D01*
X6608125Y-6647500D02*
X6568125Y-6687500D01*
X6885625Y-6568125D02*
X6925625Y-6608125D01*
X6925625Y-6568125D02*
X6885625Y-6608125D01*
X7203125Y-6488750D02*
X7243125Y-6528750D01*
X7243125Y-6488750D02*
X7203125Y-6528750D01*
X7996875Y-6726875D02*
X8036875Y-6766875D01*
X8036875Y-6726875D02*
X7996875Y-6766875D01*
X8314375Y-6488750D02*
X8354375Y-6528750D01*
X8354375Y-6488750D02*
X8314375Y-6528750D01*
X9108125Y-6726875D02*
X9148125Y-6766875D01*
X9148125Y-6726875D02*
X9108125Y-6766875D01*
X9425625Y-6647500D02*
X9465625Y-6687500D01*
X9465625Y-6647500D02*
X9425625Y-6687500D01*
X9743125Y-6568125D02*
X9783125Y-6608125D01*
X9783125Y-6568125D02*
X9743125Y-6608125D01*
X10536875Y-6726875D02*
X10576875Y-6766875D01*
X10576875Y-6726875D02*
X10536875Y-6766875D01*
X10854375Y-6647500D02*
X10894375Y-6687500D01*
X10894375Y-6647500D02*
X10854375Y-6687500D01*
X11171875Y-6568125D02*
X11211875Y-6608125D01*
X11211875Y-6568125D02*
X11171875Y-6608125D01*
X11489375Y-6488750D02*
X11529375Y-6528750D01*
X11529375Y-6488750D02*
X11489375Y-6528750D01*
X12283125Y-6726875D02*
X12323125Y-6766875D01*
X12323125Y-6726875D02*
X12283125Y-6766875D01*
X12600625Y-6647500D02*
X12640625Y-6687500D01*
X12640625Y-6647500D02*
X12600625Y-6687500D01*
X12918125Y-6568125D02*
X12958125Y-6608125D01*
X12958125Y-6568125D02*
X12918125Y-6608125D01*
X13711875Y-6726875D02*
X13751875Y-6766875D01*
X13751875Y-6726875D02*
X13711875Y-6766875D01*
X14029375Y-6647500D02*
X14069375Y-6687500D01*
X14069375Y-6647500D02*
X14029375Y-6687500D01*
X14346875Y-6568125D02*
X14386875Y-6608125D01*
X14386875Y-6568125D02*
X14346875Y-6608125D01*
X15140625Y-6726875D02*
X15180625Y-6766875D01*
X15180625Y-6726875D02*
X15140625Y-6766875D01*
X15458125Y-6647500D02*
X15498125Y-6687500D01*
X15498125Y-6647500D02*
X15458125Y-6687500D01*
X15775625Y-6568125D02*
X15815625Y-6608125D01*
X15815625Y-6568125D02*
X15775625Y-6608125D01*
X16569375Y-6726875D02*
X16609375Y-6766875D01*
X16609375Y-6726875D02*
X16569375Y-6766875D01*
X16886875Y-6647500D02*
X16926875Y-6687500D01*
X16926875Y-6647500D02*
X16886875Y-6687500D01*
X17204375Y-6568125D02*
X17244375Y-6608125D01*
X17244375Y-6568125D02*
X17204375Y-6608125D01*
X17521875Y-6488750D02*
X17561875Y-6528750D01*
X17561875Y-6488750D02*
X17521875Y-6528750D01*
X18315625Y-6723125D02*
X18355625Y-6763125D01*
X18355625Y-6723125D02*
X18315625Y-6763125D01*
X18605602Y-6540602D02*
X18645602Y-6580602D01*
X18645602Y-6540602D02*
X18605602Y-6580602D01*
X21082208Y-9414083D02*
X21122208Y-9454083D01*
X21122208Y-9414083D02*
X21082208Y-9454083D01*
X21252500Y-6488750D02*
X21292500Y-6528750D01*
X21292500Y-6488750D02*
X21252500Y-6528750D01*
X21411250Y-9584375D02*
X21451250Y-9624375D01*
X21451250Y-9584375D02*
X21411250Y-9624375D01*
X22046250Y-6726875D02*
X22086250Y-6766875D01*
X22086250Y-6726875D02*
X22046250Y-6766875D01*
X22363750Y-6647500D02*
X22403750Y-6687500D01*
X22403750Y-6647500D02*
X22363750Y-6687500D01*
X22681250Y-6568125D02*
X22721250Y-6608125D01*
X22721250Y-6568125D02*
X22681250Y-6608125D01*
X23475000Y-6726875D02*
X23515000Y-6766875D01*
X23515000Y-6726875D02*
X23475000Y-6766875D01*
X23792500Y-6647500D02*
X23832500Y-6687500D01*
X23832500Y-6647500D02*
X23792500Y-6687500D01*
X24110000Y-6568125D02*
X24150000Y-6608125D01*
X24150000Y-6568125D02*
X24110000Y-6608125D01*
X24427500Y-6488750D02*
X24467500Y-6528750D01*
X24467500Y-6488750D02*
X24427500Y-6528750D01*
X25221250Y-6726875D02*
X25261250Y-6766875D01*
X25261250Y-6726875D02*
X25221250Y-6766875D01*
X25538750Y-6647500D02*
X25578750Y-6687500D01*
X25578750Y-6647500D02*
X25538750Y-6687500D01*
X25856250Y-6568125D02*
X25896250Y-6608125D01*
X25896250Y-6568125D02*
X25856250Y-6608125D01*
X26173750Y-6488750D02*
X26213750Y-6528750D01*
X26213750Y-6488750D02*
X26173750Y-6528750D01*
X26570625Y-6806250D02*
X26610625Y-6846250D01*
X26610625Y-6806250D02*
X26570625Y-6846250D01*
X26967500Y-6726875D02*
X27007500Y-6766875D01*
X27007500Y-6726875D02*
X26967500Y-6766875D01*
X27285000Y-6171250D02*
X27325000Y-6211250D01*
X27325000Y-6171250D02*
X27285000Y-6211250D01*
X28078750Y-9505000D02*
X28118750Y-9545000D01*
X28118750Y-9505000D02*
X28078750Y-9545000D01*
X28081027Y-8789202D02*
X28121027Y-8829202D01*
X28121027Y-8789202D02*
X28081027Y-8829202D01*
X28951875Y-6806250D02*
X28991875Y-6846250D01*
X28991875Y-6806250D02*
X28951875Y-6846250D01*
X29110625Y-6012500D02*
X29150625Y-6052500D01*
X29150625Y-6012500D02*
X29110625Y-6052500D01*
X29428125Y-6806250D02*
X29468125Y-6846250D01*
X29468125Y-6806250D02*
X29428125Y-6846250D01*
X29745625Y-6726875D02*
X29785625Y-6766875D01*
X29785625Y-6726875D02*
X29745625Y-6766875D01*
X30618750Y-8543550D02*
X30658750Y-8583550D01*
X30658750Y-8543550D02*
X30618750Y-8583550D01*
X30618750Y-8711250D02*
X30658750Y-8751250D01*
X30658750Y-8711250D02*
X30618750Y-8751250D01*
X31730000Y-6171250D02*
X31770000Y-6211250D01*
X31770000Y-6171250D02*
X31730000Y-6211250D01*
X31968125Y-6091875D02*
X32008125Y-6131875D01*
X32008125Y-6091875D02*
X31968125Y-6131875D01*
X32285625Y-6012500D02*
X32325625Y-6052500D01*
X32325625Y-6012500D02*
X32285625Y-6052500D01*
D13*
X5908750Y-7000575D02*
G75*
G03*
X5908750Y-7000575I-35000J0D01*
G01*
X5908750Y-7763175D02*
G75*
G03*
X5908750Y-7763175I-35000J0D01*
G01*
X6226250Y-7000575D02*
G75*
G03*
X6226250Y-7000575I-35000J0D01*
G01*
X6226250Y-7763175D02*
G75*
G03*
X6226250Y-7763175I-35000J0D01*
G01*
X6543750Y-7000575D02*
G75*
G03*
X6543750Y-7000575I-35000J0D01*
G01*
X6543750Y-7763175D02*
G75*
G03*
X6543750Y-7763175I-35000J0D01*
G01*
X6861250Y-7000575D02*
G75*
G03*
X6861250Y-7000575I-35000J0D01*
G01*
X6861250Y-7763175D02*
G75*
G03*
X6861250Y-7763175I-35000J0D01*
G01*
X7178750Y-7000575D02*
G75*
G03*
X7178750Y-7000575I-35000J0D01*
G01*
X7178750Y-7763175D02*
G75*
G03*
X7178750Y-7763175I-35000J0D01*
G01*
X7655000Y-7000575D02*
G75*
G03*
X7655000Y-7000575I-35000J0D01*
G01*
X7655000Y-7763175D02*
G75*
G03*
X7655000Y-7763175I-35000J0D01*
G01*
X7972500Y-7000575D02*
G75*
G03*
X7972500Y-7000575I-35000J0D01*
G01*
X7972500Y-7763175D02*
G75*
G03*
X7972500Y-7763175I-35000J0D01*
G01*
X8290000Y-7000575D02*
G75*
G03*
X8290000Y-7000575I-35000J0D01*
G01*
X8290000Y-7763175D02*
G75*
G03*
X8290000Y-7763175I-35000J0D01*
G01*
X8766250Y-7000575D02*
G75*
G03*
X8766250Y-7000575I-35000J0D01*
G01*
X8766250Y-7763175D02*
G75*
G03*
X8766250Y-7763175I-35000J0D01*
G01*
X9083750Y-7000575D02*
G75*
G03*
X9083750Y-7000575I-35000J0D01*
G01*
X9083750Y-7763175D02*
G75*
G03*
X9083750Y-7763175I-35000J0D01*
G01*
X9401250Y-7000575D02*
G75*
G03*
X9401250Y-7000575I-35000J0D01*
G01*
X9401250Y-7763175D02*
G75*
G03*
X9401250Y-7763175I-35000J0D01*
G01*
X9718750Y-7000575D02*
G75*
G03*
X9718750Y-7000575I-35000J0D01*
G01*
X9718750Y-7763175D02*
G75*
G03*
X9718750Y-7763175I-35000J0D01*
G01*
X10195000Y-7000575D02*
G75*
G03*
X10195000Y-7000575I-35000J0D01*
G01*
X10195000Y-7763175D02*
G75*
G03*
X10195000Y-7763175I-35000J0D01*
G01*
X10512500Y-7000575D02*
G75*
G03*
X10512500Y-7000575I-35000J0D01*
G01*
X10512500Y-7763175D02*
G75*
G03*
X10512500Y-7763175I-35000J0D01*
G01*
X10830000Y-7000575D02*
G75*
G03*
X10830000Y-7000575I-35000J0D01*
G01*
X10830000Y-7763175D02*
G75*
G03*
X10830000Y-7763175I-35000J0D01*
G01*
X11147500Y-7000575D02*
G75*
G03*
X11147500Y-7000575I-35000J0D01*
G01*
X11147500Y-7763175D02*
G75*
G03*
X11147500Y-7763175I-35000J0D01*
G01*
X11465000Y-7000575D02*
G75*
G03*
X11465000Y-7000575I-35000J0D01*
G01*
X11465000Y-7763175D02*
G75*
G03*
X11465000Y-7763175I-35000J0D01*
G01*
X11941250Y-7000575D02*
G75*
G03*
X11941250Y-7000575I-35000J0D01*
G01*
X11941250Y-7763175D02*
G75*
G03*
X11941250Y-7763175I-35000J0D01*
G01*
X12258750Y-7000575D02*
G75*
G03*
X12258750Y-7000575I-35000J0D01*
G01*
X12258750Y-7763175D02*
G75*
G03*
X12258750Y-7763175I-35000J0D01*
G01*
X12576250Y-7000575D02*
G75*
G03*
X12576250Y-7000575I-35000J0D01*
G01*
X12576250Y-7763175D02*
G75*
G03*
X12576250Y-7763175I-35000J0D01*
G01*
X12893750Y-7000575D02*
G75*
G03*
X12893750Y-7000575I-35000J0D01*
G01*
X12893750Y-7763175D02*
G75*
G03*
X12893750Y-7763175I-35000J0D01*
G01*
X13370000Y-7000575D02*
G75*
G03*
X13370000Y-7000575I-35000J0D01*
G01*
X13370000Y-7763175D02*
G75*
G03*
X13370000Y-7763175I-35000J0D01*
G01*
X13687500Y-7000575D02*
G75*
G03*
X13687500Y-7000575I-35000J0D01*
G01*
X13687500Y-7763175D02*
G75*
G03*
X13687500Y-7763175I-35000J0D01*
G01*
X14005000Y-7000575D02*
G75*
G03*
X14005000Y-7000575I-35000J0D01*
G01*
X14005000Y-7763175D02*
G75*
G03*
X14005000Y-7763175I-35000J0D01*
G01*
X14322500Y-7000575D02*
G75*
G03*
X14322500Y-7000575I-35000J0D01*
G01*
X14322500Y-7763175D02*
G75*
G03*
X14322500Y-7763175I-35000J0D01*
G01*
X14798750Y-7000575D02*
G75*
G03*
X14798750Y-7000575I-35000J0D01*
G01*
X14798750Y-7763175D02*
G75*
G03*
X14798750Y-7763175I-35000J0D01*
G01*
X15116250Y-7000575D02*
G75*
G03*
X15116250Y-7000575I-35000J0D01*
G01*
X15116250Y-7763175D02*
G75*
G03*
X15116250Y-7763175I-35000J0D01*
G01*
X15433750Y-7000575D02*
G75*
G03*
X15433750Y-7000575I-35000J0D01*
G01*
X15433750Y-7763175D02*
G75*
G03*
X15433750Y-7763175I-35000J0D01*
G01*
X15751250Y-7000575D02*
G75*
G03*
X15751250Y-7000575I-35000J0D01*
G01*
X15751250Y-7763175D02*
G75*
G03*
X15751250Y-7763175I-35000J0D01*
G01*
X16227500Y-7000575D02*
G75*
G03*
X16227500Y-7000575I-35000J0D01*
G01*
X16227500Y-7763175D02*
G75*
G03*
X16227500Y-7763175I-35000J0D01*
G01*
X16545000Y-7000575D02*
G75*
G03*
X16545000Y-7000575I-35000J0D01*
G01*
X16545000Y-7763175D02*
G75*
G03*
X16545000Y-7763175I-35000J0D01*
G01*
X16862500Y-7000575D02*
G75*
G03*
X16862500Y-7000575I-35000J0D01*
G01*
X16862500Y-7763175D02*
G75*
G03*
X16862500Y-7763175I-35000J0D01*
G01*
X17180000Y-7000575D02*
G75*
G03*
X17180000Y-7000575I-35000J0D01*
G01*
X17180000Y-7763175D02*
G75*
G03*
X17180000Y-7763175I-35000J0D01*
G01*
X17497500Y-7000575D02*
G75*
G03*
X17497500Y-7000575I-35000J0D01*
G01*
X17497500Y-7763175D02*
G75*
G03*
X17497500Y-7763175I-35000J0D01*
G01*
X17973750Y-7000575D02*
G75*
G03*
X17973750Y-7000575I-35000J0D01*
G01*
X17973750Y-7763175D02*
G75*
G03*
X17973750Y-7763175I-35000J0D01*
G01*
X18291250Y-7000575D02*
G75*
G03*
X18291250Y-7000575I-35000J0D01*
G01*
X18291250Y-7763175D02*
G75*
G03*
X18291250Y-7763175I-35000J0D01*
G01*
X18608750Y-7000575D02*
G75*
G03*
X18608750Y-7000575I-35000J0D01*
G01*
X18608750Y-7763175D02*
G75*
G03*
X18608750Y-7763175I-35000J0D01*
G01*
X21228125Y-7000575D02*
G75*
G03*
X21228125Y-7000575I-35000J0D01*
G01*
X21228125Y-7763175D02*
G75*
G03*
X21228125Y-7763175I-35000J0D01*
G01*
X21704375Y-7000575D02*
G75*
G03*
X21704375Y-7000575I-35000J0D01*
G01*
X21704375Y-7763175D02*
G75*
G03*
X21704375Y-7763175I-35000J0D01*
G01*
X22021875Y-7000575D02*
G75*
G03*
X22021875Y-7000575I-35000J0D01*
G01*
X22021875Y-7763175D02*
G75*
G03*
X22021875Y-7763175I-35000J0D01*
G01*
X22339375Y-7000575D02*
G75*
G03*
X22339375Y-7000575I-35000J0D01*
G01*
X22339375Y-7763175D02*
G75*
G03*
X22339375Y-7763175I-35000J0D01*
G01*
X22656875Y-7000575D02*
G75*
G03*
X22656875Y-7000575I-35000J0D01*
G01*
X22656875Y-7763175D02*
G75*
G03*
X22656875Y-7763175I-35000J0D01*
G01*
X23133125Y-7000575D02*
G75*
G03*
X23133125Y-7000575I-35000J0D01*
G01*
X23133125Y-7763175D02*
G75*
G03*
X23133125Y-7763175I-35000J0D01*
G01*
X23450625Y-7000575D02*
G75*
G03*
X23450625Y-7000575I-35000J0D01*
G01*
X23450625Y-7763175D02*
G75*
G03*
X23450625Y-7763175I-35000J0D01*
G01*
X23768125Y-7000575D02*
G75*
G03*
X23768125Y-7000575I-35000J0D01*
G01*
X23768125Y-7763175D02*
G75*
G03*
X23768125Y-7763175I-35000J0D01*
G01*
X24085625Y-7000575D02*
G75*
G03*
X24085625Y-7000575I-35000J0D01*
G01*
X24085625Y-7763175D02*
G75*
G03*
X24085625Y-7763175I-35000J0D01*
G01*
X24403125Y-7000575D02*
G75*
G03*
X24403125Y-7000575I-35000J0D01*
G01*
X24403125Y-7763175D02*
G75*
G03*
X24403125Y-7763175I-35000J0D01*
G01*
X24879375Y-7000575D02*
G75*
G03*
X24879375Y-7000575I-35000J0D01*
G01*
X24879375Y-7763175D02*
G75*
G03*
X24879375Y-7763175I-35000J0D01*
G01*
X25196875Y-7000575D02*
G75*
G03*
X25196875Y-7000575I-35000J0D01*
G01*
X25196875Y-7763175D02*
G75*
G03*
X25196875Y-7763175I-35000J0D01*
G01*
X25514375Y-7000575D02*
G75*
G03*
X25514375Y-7000575I-35000J0D01*
G01*
X25514375Y-7763175D02*
G75*
G03*
X25514375Y-7763175I-35000J0D01*
G01*
X25831875Y-7000575D02*
G75*
G03*
X25831875Y-7000575I-35000J0D01*
G01*
X25831875Y-7763175D02*
G75*
G03*
X25831875Y-7763175I-35000J0D01*
G01*
X26149375Y-7000575D02*
G75*
G03*
X26149375Y-7000575I-35000J0D01*
G01*
X26149375Y-7763175D02*
G75*
G03*
X26149375Y-7763175I-35000J0D01*
G01*
X26561825Y-6588125D02*
G75*
G03*
X26561825Y-6588125I-35000J0D01*
G01*
X26625625Y-7000575D02*
G75*
G03*
X26625625Y-7000575I-35000J0D01*
G01*
X26625625Y-7763175D02*
G75*
G03*
X26625625Y-7763175I-35000J0D01*
G01*
X26943125Y-7000575D02*
G75*
G03*
X26943125Y-7000575I-35000J0D01*
G01*
X26943125Y-7763175D02*
G75*
G03*
X26943125Y-7763175I-35000J0D01*
G01*
X27260625Y-7000575D02*
G75*
G03*
X27260625Y-7000575I-35000J0D01*
G01*
X27260625Y-7763175D02*
G75*
G03*
X27260625Y-7763175I-35000J0D01*
G01*
X27324425Y-6588125D02*
G75*
G03*
X27324425Y-6588125I-35000J0D01*
G01*
X28943075Y-6588125D02*
G75*
G03*
X28943075Y-6588125I-35000J0D01*
G01*
X29086250Y-7000575D02*
G75*
G03*
X29086250Y-7000575I-35000J0D01*
G01*
X29086250Y-7763175D02*
G75*
G03*
X29086250Y-7763175I-35000J0D01*
G01*
X29403750Y-7000575D02*
G75*
G03*
X29403750Y-7000575I-35000J0D01*
G01*
X29403750Y-7763175D02*
G75*
G03*
X29403750Y-7763175I-35000J0D01*
G01*
X29705675Y-6588125D02*
G75*
G03*
X29705675Y-6588125I-35000J0D01*
G01*
X29721250Y-7000575D02*
G75*
G03*
X29721250Y-7000575I-35000J0D01*
G01*
X29721250Y-7763175D02*
G75*
G03*
X29721250Y-7763175I-35000J0D01*
G01*
X31562450Y-6588125D02*
G75*
G03*
X31562450Y-6588125I-35000J0D01*
G01*
X31626250Y-7000575D02*
G75*
G03*
X31626250Y-7000575I-35000J0D01*
G01*
X31626250Y-7763175D02*
G75*
G03*
X31626250Y-7763175I-35000J0D01*
G01*
X31943750Y-7000575D02*
G75*
G03*
X31943750Y-7000575I-35000J0D01*
G01*
X31943750Y-7763175D02*
G75*
G03*
X31943750Y-7763175I-35000J0D01*
G01*
X32261250Y-7000575D02*
G75*
G03*
X32261250Y-7000575I-35000J0D01*
G01*
X32261250Y-7763175D02*
G75*
G03*
X32261250Y-7763175I-35000J0D01*
G01*
X32325050Y-6588125D02*
G75*
G03*
X32325050Y-6588125I-35000J0D01*
G01*
D10*
X27848750Y-6314375D02*
X27848750Y-6414375D01*
X27798750Y-6364375D02*
X27898750Y-6364375D01*
X27848750Y-7764375D02*
X27848750Y-7864375D01*
X27798750Y-7814375D02*
X27898750Y-7814375D01*
X28098750Y-7764375D02*
X28098750Y-7864375D01*
X28048750Y-7814375D02*
X28148750Y-7814375D01*
X28348750Y-6314375D02*
X28348750Y-6414375D01*
X28298750Y-6364375D02*
X28398750Y-6364375D01*
X28348750Y-7764375D02*
X28348750Y-7864375D01*
X28298750Y-7814375D02*
X28398750Y-7814375D01*
X30388750Y-6314375D02*
X30388750Y-6414375D01*
X30338750Y-6364375D02*
X30438750Y-6364375D01*
X30388750Y-7764375D02*
X30388750Y-7864375D01*
X30338750Y-7814375D02*
X30438750Y-7814375D01*
X30638750Y-7764375D02*
X30638750Y-7864375D01*
X30588750Y-7814375D02*
X30688750Y-7814375D01*
X30888750Y-6314375D02*
X30888750Y-6414375D01*
X30838750Y-6364375D02*
X30938750Y-6364375D01*
X30888750Y-7764375D02*
X30888750Y-7864375D01*
X30838750Y-7814375D02*
X30938750Y-7814375D01*
X32928750Y-6314375D02*
X32928750Y-6414375D01*
X32878750Y-6364375D02*
X32978750Y-6364375D01*
X32928750Y-7764375D02*
X32928750Y-7864375D01*
X32878750Y-7814375D02*
X32978750Y-7814375D01*
X33178750Y-7764375D02*
X33178750Y-7864375D01*
X33128750Y-7814375D02*
X33228750Y-7814375D01*
X33428750Y-6314375D02*
X33428750Y-6414375D01*
X33378750Y-6364375D02*
X33478750Y-6364375D01*
X33428750Y-7764375D02*
X33428750Y-7864375D01*
X33378750Y-7814375D02*
X33478750Y-7814375D01*
D14*
X18990813Y-5163688D02*
X18990813Y-5091562D01*
X18918687Y-5091562D01*
X18918687Y-5163688D01*
X18990813Y-5163688D01*
X18990813Y-5417688D02*
X18990813Y-5345562D01*
X18918687Y-5345562D01*
X18918687Y-5417688D01*
X18990813Y-5417688D01*
X18990813Y-5671688D02*
X18990813Y-5599562D01*
X18918687Y-5599562D01*
X18918687Y-5671688D01*
X18990813Y-5671688D01*
X18990813Y-5925688D02*
X18990813Y-5853562D01*
X18918687Y-5853562D01*
X18918687Y-5925688D01*
X18990813Y-5925688D01*
X18990813Y-6179688D02*
X18990813Y-6107562D01*
X18918687Y-6107562D01*
X18918687Y-6179688D01*
X18990813Y-6179688D01*
X18990813Y-6433688D02*
X18990813Y-6361562D01*
X18918687Y-6361562D01*
X18918687Y-6433688D01*
X18990813Y-6433688D01*
X18990813Y-6687688D02*
X18990813Y-6615562D01*
X18918687Y-6615562D01*
X18918687Y-6687688D01*
X18990813Y-6687688D01*
X18990813Y-6941688D02*
X18990813Y-6869562D01*
X18918687Y-6869562D01*
X18918687Y-6941688D01*
X18990813Y-6941688D01*
X18990813Y-7195688D02*
X18990813Y-7123562D01*
X18918687Y-7123562D01*
X18918687Y-7195688D01*
X18990813Y-7195688D01*
X18990813Y-7449688D02*
X18990813Y-7377562D01*
X18918687Y-7377562D01*
X18918687Y-7449688D01*
X18990813Y-7449688D01*
X18990813Y-7703688D02*
X18990813Y-7631562D01*
X18918687Y-7631562D01*
X18918687Y-7703688D01*
X18990813Y-7703688D01*
X18990813Y-7957688D02*
X18990813Y-7885562D01*
X18918687Y-7885562D01*
X18918687Y-7957688D01*
X18990813Y-7957688D01*
X18990813Y-8211688D02*
X18990813Y-8139562D01*
X18918687Y-8139562D01*
X18918687Y-8211688D01*
X18990813Y-8211688D01*
X18990813Y-8465688D02*
X18990813Y-8393562D01*
X18918687Y-8393562D01*
X18918687Y-8465688D01*
X18990813Y-8465688D01*
X18990813Y-8719688D02*
X18990813Y-8647562D01*
X18918687Y-8647562D01*
X18918687Y-8719688D01*
X18990813Y-8719688D01*
X18990813Y-8973688D02*
X18990813Y-8901562D01*
X18918687Y-8901562D01*
X18918687Y-8973688D01*
X18990813Y-8973688D01*
X18990813Y-9227688D02*
X18990813Y-9155562D01*
X18918687Y-9155562D01*
X18918687Y-9227688D01*
X18990813Y-9227688D01*
X18990813Y-9481688D02*
X18990813Y-9409562D01*
X18918687Y-9409562D01*
X18918687Y-9481688D01*
X18990813Y-9481688D01*
X18990813Y-9735688D02*
X18990813Y-9663562D01*
X18918687Y-9663562D01*
X18918687Y-9735688D01*
X18990813Y-9735688D01*
X18990813Y-9989688D02*
X18990813Y-9917562D01*
X18918687Y-9917562D01*
X18918687Y-9989688D01*
X18990813Y-9989688D01*
X19625813Y-9966688D02*
X19625813Y-9894562D01*
X19553687Y-9894562D01*
X19553687Y-9966688D01*
X19625813Y-9966688D01*
X19879813Y-9966688D02*
X19879813Y-9894562D01*
X19807687Y-9894562D01*
X19807687Y-9966688D01*
X19879813Y-9966688D01*
X20133813Y-9966688D02*
X20133813Y-9894562D01*
X20061687Y-9894562D01*
X20061687Y-9966688D01*
X20133813Y-9966688D01*
X20768813Y-5163688D02*
X20768813Y-5091562D01*
X20696687Y-5091562D01*
X20696687Y-5163688D01*
X20768813Y-5163688D01*
X20768813Y-5417688D02*
X20768813Y-5345562D01*
X20696687Y-5345562D01*
X20696687Y-5417688D01*
X20768813Y-5417688D01*
X20768813Y-5671688D02*
X20768813Y-5599562D01*
X20696687Y-5599562D01*
X20696687Y-5671688D01*
X20768813Y-5671688D01*
X20768813Y-5925688D02*
X20768813Y-5853562D01*
X20696687Y-5853562D01*
X20696687Y-5925688D01*
X20768813Y-5925688D01*
X20768813Y-6179688D02*
X20768813Y-6107562D01*
X20696687Y-6107562D01*
X20696687Y-6179688D01*
X20768813Y-6179688D01*
X20768813Y-6433688D02*
X20768813Y-6361562D01*
X20696687Y-6361562D01*
X20696687Y-6433688D01*
X20768813Y-6433688D01*
X20768813Y-6687688D02*
X20768813Y-6615562D01*
X20696687Y-6615562D01*
X20696687Y-6687688D01*
X20768813Y-6687688D01*
X20768813Y-6941688D02*
X20768813Y-6869562D01*
X20696687Y-6869562D01*
X20696687Y-6941688D01*
X20768813Y-6941688D01*
X20768813Y-7195688D02*
X20768813Y-7123562D01*
X20696687Y-7123562D01*
X20696687Y-7195688D01*
X20768813Y-7195688D01*
X20768813Y-7449688D02*
X20768813Y-7377562D01*
X20696687Y-7377562D01*
X20696687Y-7449688D01*
X20768813Y-7449688D01*
X20768813Y-7703688D02*
X20768813Y-7631562D01*
X20696687Y-7631562D01*
X20696687Y-7703688D01*
X20768813Y-7703688D01*
X20768813Y-7957688D02*
X20768813Y-7885562D01*
X20696687Y-7885562D01*
X20696687Y-7957688D01*
X20768813Y-7957688D01*
X20768813Y-8211688D02*
X20768813Y-8139562D01*
X20696687Y-8139562D01*
X20696687Y-8211688D01*
X20768813Y-8211688D01*
X20768813Y-8465688D02*
X20768813Y-8393562D01*
X20696687Y-8393562D01*
X20696687Y-8465688D01*
X20768813Y-8465688D01*
X20768813Y-8719688D02*
X20768813Y-8647562D01*
X20696687Y-8647562D01*
X20696687Y-8719688D01*
X20768813Y-8719688D01*
X20768813Y-8973688D02*
X20768813Y-8901562D01*
X20696687Y-8901562D01*
X20696687Y-8973688D01*
X20768813Y-8973688D01*
X20768813Y-9227688D02*
X20768813Y-9155562D01*
X20696687Y-9155562D01*
X20696687Y-9227688D01*
X20768813Y-9227688D01*
X20768813Y-9481688D02*
X20768813Y-9409562D01*
X20696687Y-9409562D01*
X20696687Y-9481688D01*
X20768813Y-9481688D01*
X20768813Y-9735688D02*
X20768813Y-9663562D01*
X20696687Y-9663562D01*
X20696687Y-9735688D01*
X20768813Y-9735688D01*
X20768813Y-9989688D02*
X20768813Y-9917562D01*
X20696687Y-9917562D01*
X20696687Y-9989688D01*
X20768813Y-9989688D01*
D15*
X6127750Y-8709500D02*
X6201250Y-8636000D01*
X6127750Y-8562500D01*
X6054250Y-8636000D01*
X6127750Y-8709500D01*
X6258750Y-8563500D02*
X6332250Y-8490000D01*
X6258750Y-8416500D01*
X6185250Y-8490000D01*
X6258750Y-8563500D01*
X6365875Y-16329500D02*
X6439375Y-16256000D01*
X6365875Y-16182500D01*
X6292375Y-16256000D01*
X6365875Y-16329500D01*
X6496875Y-16183500D02*
X6570375Y-16110000D01*
X6496875Y-16036500D01*
X6423375Y-16110000D01*
X6496875Y-16183500D01*
X6604000Y-10614500D02*
X6677500Y-10541000D01*
X6604000Y-10467500D01*
X6530500Y-10541000D01*
X6604000Y-10614500D01*
X6735000Y-10468500D02*
X6808500Y-10395000D01*
X6735000Y-10321500D01*
X6661500Y-10395000D01*
X6735000Y-10468500D01*
X6758750Y-8513500D02*
X6832250Y-8440000D01*
X6758750Y-8366500D01*
X6685250Y-8440000D01*
X6758750Y-8513500D01*
X6762750Y-8455500D02*
X6836250Y-8382000D01*
X6762750Y-8308500D01*
X6689250Y-8382000D01*
X6762750Y-8455500D01*
X6842125Y-12519500D02*
X6915625Y-12446000D01*
X6842125Y-12372500D01*
X6768625Y-12446000D01*
X6842125Y-12519500D01*
X6973125Y-12373500D02*
X7046625Y-12300000D01*
X6973125Y-12226500D01*
X6899625Y-12300000D01*
X6973125Y-12373500D01*
X6996875Y-16133500D02*
X7070375Y-16060000D01*
X6996875Y-15986500D01*
X6923375Y-16060000D01*
X6996875Y-16133500D01*
X7000875Y-16075500D02*
X7074375Y-16002000D01*
X7000875Y-15928500D01*
X6927375Y-16002000D01*
X7000875Y-16075500D01*
X7235000Y-10418500D02*
X7308500Y-10345000D01*
X7235000Y-10271500D01*
X7161500Y-10345000D01*
X7235000Y-10418500D01*
X7239000Y-10360500D02*
X7312500Y-10287000D01*
X7239000Y-10213500D01*
X7165500Y-10287000D01*
X7239000Y-10360500D01*
X7318375Y-14424500D02*
X7391875Y-14351000D01*
X7318375Y-14277500D01*
X7244875Y-14351000D01*
X7318375Y-14424500D01*
X7449375Y-14278500D02*
X7522875Y-14205000D01*
X7449375Y-14131500D01*
X7375875Y-14205000D01*
X7449375Y-14278500D01*
X7473125Y-12323500D02*
X7546625Y-12250000D01*
X7473125Y-12176500D01*
X7399625Y-12250000D01*
X7473125Y-12323500D01*
X7477125Y-12265500D02*
X7550625Y-12192000D01*
X7477125Y-12118500D01*
X7403625Y-12192000D01*
X7477125Y-12265500D01*
X7949375Y-14228500D02*
X8022875Y-14155000D01*
X7949375Y-14081500D01*
X7875875Y-14155000D01*
X7949375Y-14228500D01*
X7953375Y-14170500D02*
X8026875Y-14097000D01*
X7953375Y-14023500D01*
X7879875Y-14097000D01*
X7953375Y-14170500D01*
X8032750Y-8709500D02*
X8106250Y-8636000D01*
X8032750Y-8562500D01*
X7959250Y-8636000D01*
X8032750Y-8709500D01*
X8163750Y-8563500D02*
X8237250Y-8490000D01*
X8163750Y-8416500D01*
X8090250Y-8490000D01*
X8163750Y-8563500D01*
X8663750Y-8513500D02*
X8737250Y-8440000D01*
X8663750Y-8366500D01*
X8590250Y-8440000D01*
X8663750Y-8513500D01*
X8667750Y-8455500D02*
X8741250Y-8382000D01*
X8667750Y-8308500D01*
X8594250Y-8382000D01*
X8667750Y-8455500D01*
X8747125Y-16329500D02*
X8820625Y-16256000D01*
X8747125Y-16182500D01*
X8673625Y-16256000D01*
X8747125Y-16329500D01*
X8878125Y-16183500D02*
X8951625Y-16110000D01*
X8878125Y-16036500D01*
X8804625Y-16110000D01*
X8878125Y-16183500D01*
X8985250Y-10614500D02*
X9058750Y-10541000D01*
X8985250Y-10467500D01*
X8911750Y-10541000D01*
X8985250Y-10614500D01*
X9116250Y-10468500D02*
X9189750Y-10395000D01*
X9116250Y-10321500D01*
X9042750Y-10395000D01*
X9116250Y-10468500D01*
X9378125Y-16133500D02*
X9451625Y-16060000D01*
X9378125Y-15986500D01*
X9304625Y-16060000D01*
X9378125Y-16133500D01*
X9382125Y-16075500D02*
X9455625Y-16002000D01*
X9382125Y-15928500D01*
X9308625Y-16002000D01*
X9382125Y-16075500D01*
X9461500Y-12519500D02*
X9535000Y-12446000D01*
X9461500Y-12372500D01*
X9388000Y-12446000D01*
X9461500Y-12519500D01*
X9592500Y-12373500D02*
X9666000Y-12300000D01*
X9592500Y-12226500D01*
X9519000Y-12300000D01*
X9592500Y-12373500D01*
X9616250Y-10418500D02*
X9689750Y-10345000D01*
X9616250Y-10271500D01*
X9542750Y-10345000D01*
X9616250Y-10418500D01*
X9620250Y-10360500D02*
X9693750Y-10287000D01*
X9620250Y-10213500D01*
X9546750Y-10287000D01*
X9620250Y-10360500D01*
X9937750Y-8709500D02*
X10011250Y-8636000D01*
X9937750Y-8562500D01*
X9864250Y-8636000D01*
X9937750Y-8709500D01*
X10068750Y-8563500D02*
X10142250Y-8490000D01*
X10068750Y-8416500D01*
X9995250Y-8490000D01*
X10068750Y-8563500D01*
X10092500Y-12323500D02*
X10166000Y-12250000D01*
X10092500Y-12176500D01*
X10019000Y-12250000D01*
X10092500Y-12323500D01*
X10096500Y-12265500D02*
X10170000Y-12192000D01*
X10096500Y-12118500D01*
X10023000Y-12192000D01*
X10096500Y-12265500D01*
X10414000Y-14424500D02*
X10487500Y-14351000D01*
X10414000Y-14277500D01*
X10340500Y-14351000D01*
X10414000Y-14424500D01*
X10545000Y-14278500D02*
X10618500Y-14205000D01*
X10545000Y-14131500D01*
X10471500Y-14205000D01*
X10545000Y-14278500D01*
X10568750Y-8513500D02*
X10642250Y-8440000D01*
X10568750Y-8366500D01*
X10495250Y-8440000D01*
X10568750Y-8513500D01*
X10572750Y-8455500D02*
X10646250Y-8382000D01*
X10572750Y-8308500D01*
X10499250Y-8382000D01*
X10572750Y-8455500D01*
X10890250Y-10614500D02*
X10963750Y-10541000D01*
X10890250Y-10467500D01*
X10816750Y-10541000D01*
X10890250Y-10614500D01*
X11021250Y-10468500D02*
X11094750Y-10395000D01*
X11021250Y-10321500D01*
X10947750Y-10395000D01*
X11021250Y-10468500D01*
X11045000Y-14228500D02*
X11118500Y-14155000D01*
X11045000Y-14081500D01*
X10971500Y-14155000D01*
X11045000Y-14228500D01*
X11049000Y-14170500D02*
X11122500Y-14097000D01*
X11049000Y-14023500D01*
X10975500Y-14097000D01*
X11049000Y-14170500D01*
X11128375Y-16329500D02*
X11201875Y-16256000D01*
X11128375Y-16182500D01*
X11054875Y-16256000D01*
X11128375Y-16329500D01*
X11259375Y-16183500D02*
X11332875Y-16110000D01*
X11259375Y-16036500D01*
X11185875Y-16110000D01*
X11259375Y-16183500D01*
X11366500Y-12519500D02*
X11440000Y-12446000D01*
X11366500Y-12372500D01*
X11293000Y-12446000D01*
X11366500Y-12519500D01*
X11497500Y-12373500D02*
X11571000Y-12300000D01*
X11497500Y-12226500D01*
X11424000Y-12300000D01*
X11497500Y-12373500D01*
X11521250Y-10418500D02*
X11594750Y-10345000D01*
X11521250Y-10271500D01*
X11447750Y-10345000D01*
X11521250Y-10418500D01*
X11525250Y-10360500D02*
X11598750Y-10287000D01*
X11525250Y-10213500D01*
X11451750Y-10287000D01*
X11525250Y-10360500D01*
X11759375Y-16133500D02*
X11832875Y-16060000D01*
X11759375Y-15986500D01*
X11685875Y-16060000D01*
X11759375Y-16133500D01*
X11763375Y-16075500D02*
X11836875Y-16002000D01*
X11763375Y-15928500D01*
X11689875Y-16002000D01*
X11763375Y-16075500D01*
X11842750Y-8709500D02*
X11916250Y-8636000D01*
X11842750Y-8562500D01*
X11769250Y-8636000D01*
X11842750Y-8709500D01*
X11973750Y-8563500D02*
X12047250Y-8490000D01*
X11973750Y-8416500D01*
X11900250Y-8490000D01*
X11973750Y-8563500D01*
X11997500Y-12323500D02*
X12071000Y-12250000D01*
X11997500Y-12176500D01*
X11924000Y-12250000D01*
X11997500Y-12323500D01*
X12001500Y-12265500D02*
X12075000Y-12192000D01*
X12001500Y-12118500D01*
X11928000Y-12192000D01*
X12001500Y-12265500D01*
X12319000Y-14424500D02*
X12392500Y-14351000D01*
X12319000Y-14277500D01*
X12245500Y-14351000D01*
X12319000Y-14424500D01*
X12450000Y-14278500D02*
X12523500Y-14205000D01*
X12450000Y-14131500D01*
X12376500Y-14205000D01*
X12450000Y-14278500D01*
X12473750Y-8513500D02*
X12547250Y-8440000D01*
X12473750Y-8366500D01*
X12400250Y-8440000D01*
X12473750Y-8513500D01*
X12477750Y-8455500D02*
X12551250Y-8382000D01*
X12477750Y-8308500D01*
X12404250Y-8382000D01*
X12477750Y-8455500D01*
X12795250Y-10614500D02*
X12868750Y-10541000D01*
X12795250Y-10467500D01*
X12721750Y-10541000D01*
X12795250Y-10614500D01*
X12926250Y-10468500D02*
X12999750Y-10395000D01*
X12926250Y-10321500D01*
X12852750Y-10395000D01*
X12926250Y-10468500D01*
X12950000Y-14228500D02*
X13023500Y-14155000D01*
X12950000Y-14081500D01*
X12876500Y-14155000D01*
X12950000Y-14228500D01*
X12954000Y-14170500D02*
X13027500Y-14097000D01*
X12954000Y-14023500D01*
X12880500Y-14097000D01*
X12954000Y-14170500D01*
X13271500Y-12519500D02*
X13345000Y-12446000D01*
X13271500Y-12372500D01*
X13198000Y-12446000D01*
X13271500Y-12519500D01*
X13402500Y-12373500D02*
X13476000Y-12300000D01*
X13402500Y-12226500D01*
X13329000Y-12300000D01*
X13402500Y-12373500D01*
X13426250Y-10418500D02*
X13499750Y-10345000D01*
X13426250Y-10271500D01*
X13352750Y-10345000D01*
X13426250Y-10418500D01*
X13430250Y-10360500D02*
X13503750Y-10287000D01*
X13430250Y-10213500D01*
X13356750Y-10287000D01*
X13430250Y-10360500D01*
X13747750Y-8709500D02*
X13821250Y-8636000D01*
X13747750Y-8562500D01*
X13674250Y-8636000D01*
X13747750Y-8709500D01*
X13878750Y-8563500D02*
X13952250Y-8490000D01*
X13878750Y-8416500D01*
X13805250Y-8490000D01*
X13878750Y-8563500D01*
X13902500Y-12323500D02*
X13976000Y-12250000D01*
X13902500Y-12176500D01*
X13829000Y-12250000D01*
X13902500Y-12323500D01*
X13906500Y-12265500D02*
X13980000Y-12192000D01*
X13906500Y-12118500D01*
X13833000Y-12192000D01*
X13906500Y-12265500D01*
X14224000Y-14424500D02*
X14297500Y-14351000D01*
X14224000Y-14277500D01*
X14150500Y-14351000D01*
X14224000Y-14424500D01*
X14355000Y-14278500D02*
X14428500Y-14205000D01*
X14355000Y-14131500D01*
X14281500Y-14205000D01*
X14355000Y-14278500D01*
X14378750Y-8513500D02*
X14452250Y-8440000D01*
X14378750Y-8366500D01*
X14305250Y-8440000D01*
X14378750Y-8513500D01*
X14382750Y-8455500D02*
X14456250Y-8382000D01*
X14382750Y-8308500D01*
X14309250Y-8382000D01*
X14382750Y-8455500D01*
X14700250Y-10614500D02*
X14773750Y-10541000D01*
X14700250Y-10467500D01*
X14626750Y-10541000D01*
X14700250Y-10614500D01*
X14831250Y-10468500D02*
X14904750Y-10395000D01*
X14831250Y-10321500D01*
X14757750Y-10395000D01*
X14831250Y-10468500D01*
X14855000Y-14228500D02*
X14928500Y-14155000D01*
X14855000Y-14081500D01*
X14781500Y-14155000D01*
X14855000Y-14228500D01*
X14859000Y-14170500D02*
X14932500Y-14097000D01*
X14859000Y-14023500D01*
X14785500Y-14097000D01*
X14859000Y-14170500D01*
X15176500Y-12519500D02*
X15250000Y-12446000D01*
X15176500Y-12372500D01*
X15103000Y-12446000D01*
X15176500Y-12519500D01*
X15307500Y-12373500D02*
X15381000Y-12300000D01*
X15307500Y-12226500D01*
X15234000Y-12300000D01*
X15307500Y-12373500D01*
X15331250Y-10418500D02*
X15404750Y-10345000D01*
X15331250Y-10271500D01*
X15257750Y-10345000D01*
X15331250Y-10418500D01*
X15335250Y-10360500D02*
X15408750Y-10287000D01*
X15335250Y-10213500D01*
X15261750Y-10287000D01*
X15335250Y-10360500D01*
X15652750Y-8709500D02*
X15726250Y-8636000D01*
X15652750Y-8562500D01*
X15579250Y-8636000D01*
X15652750Y-8709500D01*
X15783750Y-8563500D02*
X15857250Y-8490000D01*
X15783750Y-8416500D01*
X15710250Y-8490000D01*
X15783750Y-8563500D01*
X15807500Y-12323500D02*
X15881000Y-12250000D01*
X15807500Y-12176500D01*
X15734000Y-12250000D01*
X15807500Y-12323500D01*
X15811500Y-12265500D02*
X15885000Y-12192000D01*
X15811500Y-12118500D01*
X15738000Y-12192000D01*
X15811500Y-12265500D01*
X16129000Y-14424500D02*
X16202500Y-14351000D01*
X16129000Y-14277500D01*
X16055500Y-14351000D01*
X16129000Y-14424500D01*
X16260000Y-14278500D02*
X16333500Y-14205000D01*
X16260000Y-14131500D01*
X16186500Y-14205000D01*
X16260000Y-14278500D01*
X16283750Y-8513500D02*
X16357250Y-8440000D01*
X16283750Y-8366500D01*
X16210250Y-8440000D01*
X16283750Y-8513500D01*
X16287750Y-8455500D02*
X16361250Y-8382000D01*
X16287750Y-8308500D01*
X16214250Y-8382000D01*
X16287750Y-8455500D01*
X16605250Y-10614500D02*
X16678750Y-10541000D01*
X16605250Y-10467500D01*
X16531750Y-10541000D01*
X16605250Y-10614500D01*
X16736250Y-10468500D02*
X16809750Y-10395000D01*
X16736250Y-10321500D01*
X16662750Y-10395000D01*
X16736250Y-10468500D01*
X16760000Y-14228500D02*
X16833500Y-14155000D01*
X16760000Y-14081500D01*
X16686500Y-14155000D01*
X16760000Y-14228500D01*
X16764000Y-14170500D02*
X16837500Y-14097000D01*
X16764000Y-14023500D01*
X16690500Y-14097000D01*
X16764000Y-14170500D01*
X17081500Y-12519500D02*
X17155000Y-12446000D01*
X17081500Y-12372500D01*
X17008000Y-12446000D01*
X17081500Y-12519500D01*
X17212500Y-12373500D02*
X17286000Y-12300000D01*
X17212500Y-12226500D01*
X17139000Y-12300000D01*
X17212500Y-12373500D01*
X17236250Y-10418500D02*
X17309750Y-10345000D01*
X17236250Y-10271500D01*
X17162750Y-10345000D01*
X17236250Y-10418500D01*
X17240250Y-10360500D02*
X17313750Y-10287000D01*
X17240250Y-10213500D01*
X17166750Y-10287000D01*
X17240250Y-10360500D01*
X17557750Y-8709500D02*
X17631250Y-8636000D01*
X17557750Y-8562500D01*
X17484250Y-8636000D01*
X17557750Y-8709500D01*
X17688750Y-8563500D02*
X17762250Y-8490000D01*
X17688750Y-8416500D01*
X17615250Y-8490000D01*
X17688750Y-8563500D01*
X17712500Y-12323500D02*
X17786000Y-12250000D01*
X17712500Y-12176500D01*
X17639000Y-12250000D01*
X17712500Y-12323500D01*
X17716500Y-12265500D02*
X17790000Y-12192000D01*
X17716500Y-12118500D01*
X17643000Y-12192000D01*
X17716500Y-12265500D01*
X18034000Y-14424500D02*
X18107500Y-14351000D01*
X18034000Y-14277500D01*
X17960500Y-14351000D01*
X18034000Y-14424500D01*
X18165000Y-14278500D02*
X18238500Y-14205000D01*
X18165000Y-14131500D01*
X18091500Y-14205000D01*
X18165000Y-14278500D01*
X18188750Y-8513500D02*
X18262250Y-8440000D01*
X18188750Y-8366500D01*
X18115250Y-8440000D01*
X18188750Y-8513500D01*
X18192750Y-8455500D02*
X18266250Y-8382000D01*
X18192750Y-8308500D01*
X18119250Y-8382000D01*
X18192750Y-8455500D01*
X18272125Y-16329500D02*
X18345625Y-16256000D01*
X18272125Y-16182500D01*
X18198625Y-16256000D01*
X18272125Y-16329500D01*
X18403125Y-16183500D02*
X18476625Y-16110000D01*
X18403125Y-16036500D01*
X18329625Y-16110000D01*
X18403125Y-16183500D01*
X18510250Y-10614500D02*
X18583750Y-10541000D01*
X18510250Y-10467500D01*
X18436750Y-10541000D01*
X18510250Y-10614500D01*
X18641250Y-10468500D02*
X18714750Y-10395000D01*
X18641250Y-10321500D01*
X18567750Y-10395000D01*
X18641250Y-10468500D01*
X18665000Y-14228500D02*
X18738500Y-14155000D01*
X18665000Y-14081500D01*
X18591500Y-14155000D01*
X18665000Y-14228500D01*
X18669000Y-14170500D02*
X18742500Y-14097000D01*
X18669000Y-14023500D01*
X18595500Y-14097000D01*
X18669000Y-14170500D01*
X18903125Y-16133500D02*
X18976625Y-16060000D01*
X18903125Y-15986500D01*
X18829625Y-16060000D01*
X18903125Y-16133500D01*
X18907125Y-16075500D02*
X18980625Y-16002000D01*
X18907125Y-15928500D01*
X18833625Y-16002000D01*
X18907125Y-16075500D01*
X18986500Y-12519500D02*
X19060000Y-12446000D01*
X18986500Y-12372500D01*
X18913000Y-12446000D01*
X18986500Y-12519500D01*
X19117500Y-12373500D02*
X19191000Y-12300000D01*
X19117500Y-12226500D01*
X19044000Y-12300000D01*
X19117500Y-12373500D01*
X19141250Y-10418500D02*
X19214750Y-10345000D01*
X19141250Y-10271500D01*
X19067750Y-10345000D01*
X19141250Y-10418500D01*
X19145250Y-10360500D02*
X19218750Y-10287000D01*
X19145250Y-10213500D01*
X19071750Y-10287000D01*
X19145250Y-10360500D01*
X19462750Y-8709500D02*
X19536250Y-8636000D01*
X19462750Y-8562500D01*
X19389250Y-8636000D01*
X19462750Y-8709500D01*
X19593750Y-8563500D02*
X19667250Y-8490000D01*
X19593750Y-8416500D01*
X19520250Y-8490000D01*
X19593750Y-8563500D01*
X19617500Y-12323500D02*
X19691000Y-12250000D01*
X19617500Y-12176500D01*
X19544000Y-12250000D01*
X19617500Y-12323500D01*
X19621500Y-12265500D02*
X19695000Y-12192000D01*
X19621500Y-12118500D01*
X19548000Y-12192000D01*
X19621500Y-12265500D01*
X19939000Y-14424500D02*
X20012500Y-14351000D01*
X19939000Y-14277500D01*
X19865500Y-14351000D01*
X19939000Y-14424500D01*
X20070000Y-14278500D02*
X20143500Y-14205000D01*
X20070000Y-14131500D01*
X19996500Y-14205000D01*
X20070000Y-14278500D01*
X20093750Y-8513500D02*
X20167250Y-8440000D01*
X20093750Y-8366500D01*
X20020250Y-8440000D01*
X20093750Y-8513500D01*
X20097750Y-8455500D02*
X20171250Y-8382000D01*
X20097750Y-8308500D01*
X20024250Y-8382000D01*
X20097750Y-8455500D01*
X20415250Y-10614500D02*
X20488750Y-10541000D01*
X20415250Y-10467500D01*
X20341750Y-10541000D01*
X20415250Y-10614500D01*
X20546250Y-10468500D02*
X20619750Y-10395000D01*
X20546250Y-10321500D01*
X20472750Y-10395000D01*
X20546250Y-10468500D01*
X20570000Y-14228500D02*
X20643500Y-14155000D01*
X20570000Y-14081500D01*
X20496500Y-14155000D01*
X20570000Y-14228500D01*
X20574000Y-14170500D02*
X20647500Y-14097000D01*
X20574000Y-14023500D01*
X20500500Y-14097000D01*
X20574000Y-14170500D01*
X20891500Y-12519500D02*
X20965000Y-12446000D01*
X20891500Y-12372500D01*
X20818000Y-12446000D01*
X20891500Y-12519500D01*
X21022500Y-12373500D02*
X21096000Y-12300000D01*
X21022500Y-12226500D01*
X20949000Y-12300000D01*
X21022500Y-12373500D01*
X21046250Y-10418500D02*
X21119750Y-10345000D01*
X21046250Y-10271500D01*
X20972750Y-10345000D01*
X21046250Y-10418500D01*
X21050250Y-10360500D02*
X21123750Y-10287000D01*
X21050250Y-10213500D01*
X20976750Y-10287000D01*
X21050250Y-10360500D01*
X21367750Y-8709500D02*
X21441250Y-8636000D01*
X21367750Y-8562500D01*
X21294250Y-8636000D01*
X21367750Y-8709500D01*
X21498750Y-8563500D02*
X21572250Y-8490000D01*
X21498750Y-8416500D01*
X21425250Y-8490000D01*
X21498750Y-8563500D01*
X21522500Y-12323500D02*
X21596000Y-12250000D01*
X21522500Y-12176500D01*
X21449000Y-12250000D01*
X21522500Y-12323500D01*
X21526500Y-12265500D02*
X21600000Y-12192000D01*
X21526500Y-12118500D01*
X21453000Y-12192000D01*
X21526500Y-12265500D01*
X21844000Y-14424500D02*
X21917500Y-14351000D01*
X21844000Y-14277500D01*
X21770500Y-14351000D01*
X21844000Y-14424500D01*
X21975000Y-14278500D02*
X22048500Y-14205000D01*
X21975000Y-14131500D01*
X21901500Y-14205000D01*
X21975000Y-14278500D01*
X21998750Y-8513500D02*
X22072250Y-8440000D01*
X21998750Y-8366500D01*
X21925250Y-8440000D01*
X21998750Y-8513500D01*
X22002750Y-8455500D02*
X22076250Y-8382000D01*
X22002750Y-8308500D01*
X21929250Y-8382000D01*
X22002750Y-8455500D01*
X22320250Y-10614500D02*
X22393750Y-10541000D01*
X22320250Y-10467500D01*
X22246750Y-10541000D01*
X22320250Y-10614500D01*
X22451250Y-10468500D02*
X22524750Y-10395000D01*
X22451250Y-10321500D01*
X22377750Y-10395000D01*
X22451250Y-10468500D01*
X22475000Y-14228500D02*
X22548500Y-14155000D01*
X22475000Y-14081500D01*
X22401500Y-14155000D01*
X22475000Y-14228500D01*
X22479000Y-14170500D02*
X22552500Y-14097000D01*
X22479000Y-14023500D01*
X22405500Y-14097000D01*
X22479000Y-14170500D01*
X22796500Y-12519500D02*
X22870000Y-12446000D01*
X22796500Y-12372500D01*
X22723000Y-12446000D01*
X22796500Y-12519500D01*
X22927500Y-12373500D02*
X23001000Y-12300000D01*
X22927500Y-12226500D01*
X22854000Y-12300000D01*
X22927500Y-12373500D01*
X22951250Y-10418500D02*
X23024750Y-10345000D01*
X22951250Y-10271500D01*
X22877750Y-10345000D01*
X22951250Y-10418500D01*
X22955250Y-10360500D02*
X23028750Y-10287000D01*
X22955250Y-10213500D01*
X22881750Y-10287000D01*
X22955250Y-10360500D01*
X23272750Y-8709500D02*
X23346250Y-8636000D01*
X23272750Y-8562500D01*
X23199250Y-8636000D01*
X23272750Y-8709500D01*
X23403750Y-8563500D02*
X23477250Y-8490000D01*
X23403750Y-8416500D01*
X23330250Y-8490000D01*
X23403750Y-8563500D01*
X23427500Y-12323500D02*
X23501000Y-12250000D01*
X23427500Y-12176500D01*
X23354000Y-12250000D01*
X23427500Y-12323500D01*
X23431500Y-12265500D02*
X23505000Y-12192000D01*
X23431500Y-12118500D01*
X23358000Y-12192000D01*
X23431500Y-12265500D01*
X23749000Y-14424500D02*
X23822500Y-14351000D01*
X23749000Y-14277500D01*
X23675500Y-14351000D01*
X23749000Y-14424500D01*
X23880000Y-14278500D02*
X23953500Y-14205000D01*
X23880000Y-14131500D01*
X23806500Y-14205000D01*
X23880000Y-14278500D01*
X23903750Y-8513500D02*
X23977250Y-8440000D01*
X23903750Y-8366500D01*
X23830250Y-8440000D01*
X23903750Y-8513500D01*
X23907750Y-8455500D02*
X23981250Y-8382000D01*
X23907750Y-8308500D01*
X23834250Y-8382000D01*
X23907750Y-8455500D01*
X24225250Y-10614500D02*
X24298750Y-10541000D01*
X24225250Y-10467500D01*
X24151750Y-10541000D01*
X24225250Y-10614500D01*
X24356250Y-10468500D02*
X24429750Y-10395000D01*
X24356250Y-10321500D01*
X24282750Y-10395000D01*
X24356250Y-10468500D01*
X24380000Y-14228500D02*
X24453500Y-14155000D01*
X24380000Y-14081500D01*
X24306500Y-14155000D01*
X24380000Y-14228500D01*
X24384000Y-14170500D02*
X24457500Y-14097000D01*
X24384000Y-14023500D01*
X24310500Y-14097000D01*
X24384000Y-14170500D01*
X24701500Y-12519500D02*
X24775000Y-12446000D01*
X24701500Y-12372500D01*
X24628000Y-12446000D01*
X24701500Y-12519500D01*
X24832500Y-12373500D02*
X24906000Y-12300000D01*
X24832500Y-12226500D01*
X24759000Y-12300000D01*
X24832500Y-12373500D01*
X24856250Y-10418500D02*
X24929750Y-10345000D01*
X24856250Y-10271500D01*
X24782750Y-10345000D01*
X24856250Y-10418500D01*
X24860250Y-10360500D02*
X24933750Y-10287000D01*
X24860250Y-10213500D01*
X24786750Y-10287000D01*
X24860250Y-10360500D01*
X25177750Y-8709500D02*
X25251250Y-8636000D01*
X25177750Y-8562500D01*
X25104250Y-8636000D01*
X25177750Y-8709500D01*
X25308750Y-8563500D02*
X25382250Y-8490000D01*
X25308750Y-8416500D01*
X25235250Y-8490000D01*
X25308750Y-8563500D01*
X25332500Y-12323500D02*
X25406000Y-12250000D01*
X25332500Y-12176500D01*
X25259000Y-12250000D01*
X25332500Y-12323500D01*
X25336500Y-12265500D02*
X25410000Y-12192000D01*
X25336500Y-12118500D01*
X25263000Y-12192000D01*
X25336500Y-12265500D01*
X25415875Y-16329500D02*
X25489375Y-16256000D01*
X25415875Y-16182500D01*
X25342375Y-16256000D01*
X25415875Y-16329500D01*
X25546875Y-16183500D02*
X25620375Y-16110000D01*
X25546875Y-16036500D01*
X25473375Y-16110000D01*
X25546875Y-16183500D01*
X25654000Y-14424500D02*
X25727500Y-14351000D01*
X25654000Y-14277500D01*
X25580500Y-14351000D01*
X25654000Y-14424500D01*
X25785000Y-14278500D02*
X25858500Y-14205000D01*
X25785000Y-14131500D01*
X25711500Y-14205000D01*
X25785000Y-14278500D01*
X25808750Y-8513500D02*
X25882250Y-8440000D01*
X25808750Y-8366500D01*
X25735250Y-8440000D01*
X25808750Y-8513500D01*
X25812750Y-8455500D02*
X25886250Y-8382000D01*
X25812750Y-8308500D01*
X25739250Y-8382000D01*
X25812750Y-8455500D01*
X26046875Y-16133500D02*
X26120375Y-16060000D01*
X26046875Y-15986500D01*
X25973375Y-16060000D01*
X26046875Y-16133500D01*
X26050875Y-16075500D02*
X26124375Y-16002000D01*
X26050875Y-15928500D01*
X25977375Y-16002000D01*
X26050875Y-16075500D01*
X26130250Y-10614500D02*
X26203750Y-10541000D01*
X26130250Y-10467500D01*
X26056750Y-10541000D01*
X26130250Y-10614500D01*
X26261250Y-10468500D02*
X26334750Y-10395000D01*
X26261250Y-10321500D01*
X26187750Y-10395000D01*
X26261250Y-10468500D01*
X26285000Y-14228500D02*
X26358500Y-14155000D01*
X26285000Y-14081500D01*
X26211500Y-14155000D01*
X26285000Y-14228500D01*
X26289000Y-14170500D02*
X26362500Y-14097000D01*
X26289000Y-14023500D01*
X26215500Y-14097000D01*
X26289000Y-14170500D01*
X26606500Y-12519500D02*
X26680000Y-12446000D01*
X26606500Y-12372500D01*
X26533000Y-12446000D01*
X26606500Y-12519500D01*
X26737500Y-12373500D02*
X26811000Y-12300000D01*
X26737500Y-12226500D01*
X26664000Y-12300000D01*
X26737500Y-12373500D01*
X26761250Y-10418500D02*
X26834750Y-10345000D01*
X26761250Y-10271500D01*
X26687750Y-10345000D01*
X26761250Y-10418500D01*
X26765250Y-10360500D02*
X26838750Y-10287000D01*
X26765250Y-10213500D01*
X26691750Y-10287000D01*
X26765250Y-10360500D01*
X27082750Y-8709500D02*
X27156250Y-8636000D01*
X27082750Y-8562500D01*
X27009250Y-8636000D01*
X27082750Y-8709500D01*
X27213750Y-8563500D02*
X27287250Y-8490000D01*
X27213750Y-8416500D01*
X27140250Y-8490000D01*
X27213750Y-8563500D01*
X27237500Y-12323500D02*
X27311000Y-12250000D01*
X27237500Y-12176500D01*
X27164000Y-12250000D01*
X27237500Y-12323500D01*
X27241500Y-12265500D02*
X27315000Y-12192000D01*
X27241500Y-12118500D01*
X27168000Y-12192000D01*
X27241500Y-12265500D01*
X27559000Y-14424500D02*
X27632500Y-14351000D01*
X27559000Y-14277500D01*
X27485500Y-14351000D01*
X27559000Y-14424500D01*
X27690000Y-14278500D02*
X27763500Y-14205000D01*
X27690000Y-14131500D01*
X27616500Y-14205000D01*
X27690000Y-14278500D01*
X27713750Y-8513500D02*
X27787250Y-8440000D01*
X27713750Y-8366500D01*
X27640250Y-8440000D01*
X27713750Y-8513500D01*
X27717750Y-8455500D02*
X27791250Y-8382000D01*
X27717750Y-8308500D01*
X27644250Y-8382000D01*
X27717750Y-8455500D01*
X27797125Y-16329500D02*
X27870625Y-16256000D01*
X27797125Y-16182500D01*
X27723625Y-16256000D01*
X27797125Y-16329500D01*
X27928125Y-16183500D02*
X28001625Y-16110000D01*
X27928125Y-16036500D01*
X27854625Y-16110000D01*
X27928125Y-16183500D01*
X28035250Y-10614500D02*
X28108750Y-10541000D01*
X28035250Y-10467500D01*
X27961750Y-10541000D01*
X28035250Y-10614500D01*
X28166250Y-10468500D02*
X28239750Y-10395000D01*
X28166250Y-10321500D01*
X28092750Y-10395000D01*
X28166250Y-10468500D01*
X28190000Y-14228500D02*
X28263500Y-14155000D01*
X28190000Y-14081500D01*
X28116500Y-14155000D01*
X28190000Y-14228500D01*
X28194000Y-14170500D02*
X28267500Y-14097000D01*
X28194000Y-14023500D01*
X28120500Y-14097000D01*
X28194000Y-14170500D01*
X28428125Y-16133500D02*
X28501625Y-16060000D01*
X28428125Y-15986500D01*
X28354625Y-16060000D01*
X28428125Y-16133500D01*
X28432125Y-16075500D02*
X28505625Y-16002000D01*
X28432125Y-15928500D01*
X28358625Y-16002000D01*
X28432125Y-16075500D01*
X28511500Y-12519500D02*
X28585000Y-12446000D01*
X28511500Y-12372500D01*
X28438000Y-12446000D01*
X28511500Y-12519500D01*
X28642500Y-12373500D02*
X28716000Y-12300000D01*
X28642500Y-12226500D01*
X28569000Y-12300000D01*
X28642500Y-12373500D01*
X28666250Y-10418500D02*
X28739750Y-10345000D01*
X28666250Y-10271500D01*
X28592750Y-10345000D01*
X28666250Y-10418500D01*
X28670250Y-10360500D02*
X28743750Y-10287000D01*
X28670250Y-10213500D01*
X28596750Y-10287000D01*
X28670250Y-10360500D01*
X28987750Y-8709500D02*
X29061250Y-8636000D01*
X28987750Y-8562500D01*
X28914250Y-8636000D01*
X28987750Y-8709500D01*
X29118750Y-8563500D02*
X29192250Y-8490000D01*
X29118750Y-8416500D01*
X29045250Y-8490000D01*
X29118750Y-8563500D01*
X29142500Y-12323500D02*
X29216000Y-12250000D01*
X29142500Y-12176500D01*
X29069000Y-12250000D01*
X29142500Y-12323500D01*
X29146500Y-12265500D02*
X29220000Y-12192000D01*
X29146500Y-12118500D01*
X29073000Y-12192000D01*
X29146500Y-12265500D01*
X29618750Y-8513500D02*
X29692250Y-8440000D01*
X29618750Y-8366500D01*
X29545250Y-8440000D01*
X29618750Y-8513500D01*
X29622750Y-8455500D02*
X29696250Y-8382000D01*
X29622750Y-8308500D01*
X29549250Y-8382000D01*
X29622750Y-8455500D01*
X29940250Y-10614500D02*
X30013750Y-10541000D01*
X29940250Y-10467500D01*
X29866750Y-10541000D01*
X29940250Y-10614500D01*
X30071250Y-10468500D02*
X30144750Y-10395000D01*
X30071250Y-10321500D01*
X29997750Y-10395000D01*
X30071250Y-10468500D01*
X30178375Y-16329500D02*
X30251875Y-16256000D01*
X30178375Y-16182500D01*
X30104875Y-16256000D01*
X30178375Y-16329500D01*
X30309375Y-16183500D02*
X30382875Y-16110000D01*
X30309375Y-16036500D01*
X30235875Y-16110000D01*
X30309375Y-16183500D01*
X30571250Y-10418500D02*
X30644750Y-10345000D01*
X30571250Y-10271500D01*
X30497750Y-10345000D01*
X30571250Y-10418500D01*
X30575250Y-10360500D02*
X30648750Y-10287000D01*
X30575250Y-10213500D01*
X30501750Y-10287000D01*
X30575250Y-10360500D01*
X30809375Y-16133500D02*
X30882875Y-16060000D01*
X30809375Y-15986500D01*
X30735875Y-16060000D01*
X30809375Y-16133500D01*
X30813375Y-16075500D02*
X30886875Y-16002000D01*
X30813375Y-15928500D01*
X30739875Y-16002000D01*
X30813375Y-16075500D01*
X31130875Y-14424500D02*
X31204375Y-14351000D01*
X31130875Y-14277500D01*
X31057375Y-14351000D01*
X31130875Y-14424500D01*
X31261875Y-14278500D02*
X31335375Y-14205000D01*
X31261875Y-14131500D01*
X31188375Y-14205000D01*
X31261875Y-14278500D01*
X31607125Y-12519500D02*
X31680625Y-12446000D01*
X31607125Y-12372500D01*
X31533625Y-12446000D01*
X31607125Y-12519500D01*
X31738125Y-12373500D02*
X31811625Y-12300000D01*
X31738125Y-12226500D01*
X31664625Y-12300000D01*
X31738125Y-12373500D01*
X31761875Y-14228500D02*
X31835375Y-14155000D01*
X31761875Y-14081500D01*
X31688375Y-14155000D01*
X31761875Y-14228500D01*
X31765875Y-14170500D02*
X31839375Y-14097000D01*
X31765875Y-14023500D01*
X31692375Y-14097000D01*
X31765875Y-14170500D01*
X31845250Y-8709500D02*
X31918750Y-8636000D01*
X31845250Y-8562500D01*
X31771750Y-8636000D01*
X31845250Y-8709500D01*
X31976250Y-8563500D02*
X32049750Y-8490000D01*
X31976250Y-8416500D01*
X31902750Y-8490000D01*
X31976250Y-8563500D01*
X32238125Y-12323500D02*
X32311625Y-12250000D01*
X32238125Y-12176500D01*
X32164625Y-12250000D01*
X32238125Y-12323500D01*
X32242125Y-12265500D02*
X32315625Y-12192000D01*
X32242125Y-12118500D01*
X32168625Y-12192000D01*
X32242125Y-12265500D01*
X32321500Y-10614500D02*
X32395000Y-10541000D01*
X32321500Y-10467500D01*
X32248000Y-10541000D01*
X32321500Y-10614500D01*
X32452500Y-10468500D02*
X32526000Y-10395000D01*
X32452500Y-10321500D01*
X32379000Y-10395000D01*
X32452500Y-10468500D01*
X32476250Y-8513500D02*
X32549750Y-8440000D01*
X32476250Y-8366500D01*
X32402750Y-8440000D01*
X32476250Y-8513500D01*
X32480250Y-8455500D02*
X32553750Y-8382000D01*
X32480250Y-8308500D01*
X32406750Y-8382000D01*
X32480250Y-8455500D01*
X32559625Y-16329500D02*
X32633125Y-16256000D01*
X32559625Y-16182500D01*
X32486125Y-16256000D01*
X32559625Y-16329500D01*
X32690625Y-16183500D02*
X32764125Y-16110000D01*
X32690625Y-16036500D01*
X32617125Y-16110000D01*
X32690625Y-16183500D01*
X32952500Y-10418500D02*
X33026000Y-10345000D01*
X32952500Y-10271500D01*
X32879000Y-10345000D01*
X32952500Y-10418500D01*
X32956500Y-10360500D02*
X33030000Y-10287000D01*
X32956500Y-10213500D01*
X32883000Y-10287000D01*
X32956500Y-10360500D01*
X33190625Y-16133500D02*
X33264125Y-16060000D01*
X33190625Y-15986500D01*
X33117125Y-16060000D01*
X33190625Y-16133500D01*
X33194625Y-16075500D02*
X33268125Y-16002000D01*
X33194625Y-15928500D01*
X33121125Y-16002000D01*
X33194625Y-16075500D01*
D16*
X27453750Y-6989375D02*
X27603750Y-7139375D01*
X27603750Y-6989375D02*
X27453750Y-7139375D01*
X27603750Y-7064375D02*
G75*
G03*
X27603750Y-7064375I-75000J0D01*
G01*
D11*
X27453750Y-6964375D02*
X27453750Y-7164375D01*
X27453750Y-7164375D02*
G75*
G03*
X27603750Y-7164375I75000J0D01*
G01*
X27603750Y-7164375D02*
X27603750Y-6964375D01*
X27603750Y-6964375D02*
G75*
G03*
X27453750Y-6964375I-75000J0D01*
G01*
D16*
X28593750Y-6989375D02*
X28743750Y-7139375D01*
X28743750Y-6989375D02*
X28593750Y-7139375D01*
X28743750Y-7064375D02*
G75*
G03*
X28743750Y-7064375I-75000J0D01*
G01*
D11*
X28593750Y-6964375D02*
X28593750Y-7164375D01*
X28593750Y-7164375D02*
G75*
G03*
X28743750Y-7164375I75000J0D01*
G01*
X28743750Y-7164375D02*
X28743750Y-6964375D01*
X28743750Y-6964375D02*
G75*
G03*
X28593750Y-6964375I-75000J0D01*
G01*
D16*
X29993750Y-6989375D02*
X30143750Y-7139375D01*
X30143750Y-6989375D02*
X29993750Y-7139375D01*
X30143750Y-7064375D02*
G75*
G03*
X30143750Y-7064375I-75000J0D01*
G01*
D11*
X29993750Y-6964375D02*
X29993750Y-7164375D01*
X29993750Y-7164375D02*
G75*
G03*
X30143750Y-7164375I75000J0D01*
G01*
X30143750Y-7164375D02*
X30143750Y-6964375D01*
X30143750Y-6964375D02*
G75*
G03*
X29993750Y-6964375I-75000J0D01*
G01*
D16*
X31133750Y-6989375D02*
X31283750Y-7139375D01*
X31283750Y-6989375D02*
X31133750Y-7139375D01*
X31283750Y-7064375D02*
G75*
G03*
X31283750Y-7064375I-75000J0D01*
G01*
D11*
X31133750Y-6964375D02*
X31133750Y-7164375D01*
X31133750Y-7164375D02*
G75*
G03*
X31283750Y-7164375I75000J0D01*
G01*
X31283750Y-7164375D02*
X31283750Y-6964375D01*
X31283750Y-6964375D02*
G75*
G03*
X31133750Y-6964375I-75000J0D01*
G01*
D16*
X32533750Y-6989375D02*
X32683750Y-7139375D01*
X32683750Y-6989375D02*
X32533750Y-7139375D01*
X32683750Y-7064375D02*
G75*
G03*
X32683750Y-7064375I-75000J0D01*
G01*
D11*
X32533750Y-6964375D02*
X32533750Y-7164375D01*
X32533750Y-7164375D02*
G75*
G03*
X32683750Y-7164375I75000J0D01*
G01*
X32683750Y-7164375D02*
X32683750Y-6964375D01*
X32683750Y-6964375D02*
G75*
G03*
X32533750Y-6964375I-75000J0D01*
G01*
D16*
X33673750Y-6989375D02*
X33823750Y-7139375D01*
X33823750Y-6989375D02*
X33673750Y-7139375D01*
X33823750Y-7064375D02*
G75*
G03*
X33823750Y-7064375I-75000J0D01*
G01*
D11*
X33673750Y-6964375D02*
X33673750Y-7164375D01*
X33673750Y-7164375D02*
G75*
G03*
X33823750Y-7164375I75000J0D01*
G01*
X33823750Y-7164375D02*
X33823750Y-6964375D01*
X33823750Y-6964375D02*
G75*
G03*
X33673750Y-6964375I-75000J0D01*
G01*
D17*
X8209375Y-10670000D02*
X8459375Y-10920000D01*
X8459375Y-10670000D02*
X8209375Y-10920000D01*
X8334375Y-10670000D02*
X8334375Y-10920000D01*
X8209375Y-10795000D02*
X8459375Y-10795000D01*
D11*
X8209375Y-10920000D02*
X8459375Y-10920000D01*
X8459375Y-10920000D02*
G75*
G03*
X8459375Y-10670000I0J125000D01*
G01*
X8459375Y-10670000D02*
X8209375Y-10670000D01*
X8209375Y-10670000D02*
G75*
G03*
X8209375Y-10920000I0J-125000D01*
G01*
D17*
X9400000Y-9241250D02*
X9650000Y-9491250D01*
X9650000Y-9241250D02*
X9400000Y-9491250D01*
X9525000Y-9241250D02*
X9525000Y-9491250D01*
X9400000Y-9366250D02*
X9650000Y-9366250D01*
D11*
X9400000Y-9491250D02*
X9650000Y-9491250D01*
X9650000Y-9491250D02*
G75*
G03*
X9650000Y-9241250I0J125000D01*
G01*
X9650000Y-9241250D02*
X9400000Y-9241250D01*
X9400000Y-9241250D02*
G75*
G03*
X9400000Y-9491250I0J-125000D01*
G01*
D17*
X9400000Y-9241250D02*
X9650000Y-9491250D01*
X9650000Y-9241250D02*
X9400000Y-9491250D01*
X9525000Y-9241250D02*
X9525000Y-9491250D01*
X9400000Y-9366250D02*
X9650000Y-9366250D01*
D11*
X9400000Y-9491250D02*
X9650000Y-9491250D01*
X9650000Y-9491250D02*
G75*
G03*
X9650000Y-9241250I0J125000D01*
G01*
X9650000Y-9241250D02*
X9400000Y-9241250D01*
X9400000Y-9241250D02*
G75*
G03*
X9400000Y-9491250I0J-125000D01*
G01*
D17*
X9558750Y-14480000D02*
X9808750Y-14730000D01*
X9808750Y-14480000D02*
X9558750Y-14730000D01*
X9683750Y-14480000D02*
X9683750Y-14730000D01*
X9558750Y-14605000D02*
X9808750Y-14605000D01*
D11*
X9558750Y-14730000D02*
X9808750Y-14730000D01*
X9808750Y-14730000D02*
G75*
G03*
X9808750Y-14480000I0J125000D01*
G01*
X9808750Y-14480000D02*
X9558750Y-14480000D01*
X9558750Y-14480000D02*
G75*
G03*
X9558750Y-14730000I0J-125000D01*
G01*
D17*
X19004375Y-11463750D02*
X19254375Y-11713750D01*
X19254375Y-11463750D02*
X19004375Y-11713750D01*
X19129375Y-11463750D02*
X19129375Y-11713750D01*
X19004375Y-11588750D02*
X19254375Y-11588750D01*
D11*
X19004375Y-11713750D02*
X19254375Y-11713750D01*
X19254375Y-11713750D02*
G75*
G03*
X19254375Y-11463750I0J125000D01*
G01*
X19254375Y-11463750D02*
X19004375Y-11463750D01*
X19004375Y-11463750D02*
G75*
G03*
X19004375Y-11713750I0J-125000D01*
G01*
D17*
X29243750Y-14480000D02*
X29493750Y-14730000D01*
X29493750Y-14480000D02*
X29243750Y-14730000D01*
X29368750Y-14480000D02*
X29368750Y-14730000D01*
X29243750Y-14605000D02*
X29493750Y-14605000D01*
D11*
X29243750Y-14730000D02*
X29493750Y-14730000D01*
X29493750Y-14730000D02*
G75*
G03*
X29493750Y-14480000I0J125000D01*
G01*
X29493750Y-14480000D02*
X29243750Y-14480000D01*
X29243750Y-14480000D02*
G75*
G03*
X29243750Y-14730000I0J-125000D01*
G01*
D17*
X30355000Y-9003125D02*
X30605000Y-9253125D01*
X30605000Y-9003125D02*
X30355000Y-9253125D01*
X30480000Y-9003125D02*
X30480000Y-9253125D01*
X30355000Y-9128125D02*
X30605000Y-9128125D01*
D11*
X30355000Y-9253125D02*
X30605000Y-9253125D01*
X30605000Y-9253125D02*
G75*
G03*
X30605000Y-9003125I0J125000D01*
G01*
X30605000Y-9003125D02*
X30355000Y-9003125D01*
X30355000Y-9003125D02*
G75*
G03*
X30355000Y-9253125I0J-125000D01*
G01*
D17*
X31386875Y-10670000D02*
X31636875Y-10920000D01*
X31636875Y-10670000D02*
X31386875Y-10920000D01*
X31511875Y-10670000D02*
X31511875Y-10920000D01*
X31386875Y-10795000D02*
X31636875Y-10795000D01*
D11*
X31386875Y-10920000D02*
X31636875Y-10920000D01*
X31636875Y-10920000D02*
G75*
G03*
X31636875Y-10670000I0J125000D01*
G01*
X31636875Y-10670000D02*
X31386875Y-10670000D01*
X31386875Y-10670000D02*
G75*
G03*
X31386875Y-10920000I0J-125000D01*
G01*
X5812027Y-17778984D02*
X5812027Y-17578984D01*
X5812027Y-17578984D02*
X5859646Y-17578984D01*
X5859646Y-17578984D02*
X5888217Y-17588508D01*
X5888217Y-17588508D02*
X5907265Y-17607555D01*
X5907265Y-17607555D02*
X5916789Y-17626603D01*
X5916789Y-17626603D02*
X5926312Y-17664698D01*
X5926312Y-17664698D02*
X5926312Y-17693270D01*
X5926312Y-17693270D02*
X5916789Y-17731365D01*
X5916789Y-17731365D02*
X5907265Y-17750412D01*
X5907265Y-17750412D02*
X5888217Y-17769460D01*
X5888217Y-17769460D02*
X5859646Y-17778984D01*
X5859646Y-17778984D02*
X5812027Y-17778984D01*
X6012027Y-17778984D02*
X6012027Y-17645650D01*
X6012027Y-17683746D02*
X6021551Y-17664698D01*
X6021551Y-17664698D02*
X6031074Y-17655174D01*
X6031074Y-17655174D02*
X6050122Y-17645650D01*
X6050122Y-17645650D02*
X6069170Y-17645650D01*
X6135836Y-17778984D02*
X6135836Y-17645650D01*
X6135836Y-17578984D02*
X6126312Y-17588508D01*
X6126312Y-17588508D02*
X6135836Y-17598031D01*
X6135836Y-17598031D02*
X6145360Y-17588508D01*
X6145360Y-17588508D02*
X6135836Y-17578984D01*
X6135836Y-17578984D02*
X6135836Y-17598031D01*
X6259646Y-17778984D02*
X6240598Y-17769460D01*
X6240598Y-17769460D02*
X6231074Y-17750412D01*
X6231074Y-17750412D02*
X6231074Y-17578984D01*
X6364408Y-17778984D02*
X6345360Y-17769460D01*
X6345360Y-17769460D02*
X6335836Y-17750412D01*
X6335836Y-17750412D02*
X6335836Y-17578984D01*
X6592979Y-17778984D02*
X6592979Y-17578984D01*
X6592979Y-17578984D02*
X6659646Y-17721841D01*
X6659646Y-17721841D02*
X6726312Y-17578984D01*
X6726312Y-17578984D02*
X6726312Y-17778984D01*
X6907265Y-17778984D02*
X6907265Y-17674222D01*
X6907265Y-17674222D02*
X6897741Y-17655174D01*
X6897741Y-17655174D02*
X6878693Y-17645650D01*
X6878693Y-17645650D02*
X6840598Y-17645650D01*
X6840598Y-17645650D02*
X6821551Y-17655174D01*
X6907265Y-17769460D02*
X6888217Y-17778984D01*
X6888217Y-17778984D02*
X6840598Y-17778984D01*
X6840598Y-17778984D02*
X6821551Y-17769460D01*
X6821551Y-17769460D02*
X6812027Y-17750412D01*
X6812027Y-17750412D02*
X6812027Y-17731365D01*
X6812027Y-17731365D02*
X6821551Y-17712317D01*
X6821551Y-17712317D02*
X6840598Y-17702793D01*
X6840598Y-17702793D02*
X6888217Y-17702793D01*
X6888217Y-17702793D02*
X6907265Y-17693270D01*
X7002503Y-17645650D02*
X7002503Y-17845650D01*
X7002503Y-17655174D02*
X7021551Y-17645650D01*
X7021551Y-17645650D02*
X7059646Y-17645650D01*
X7059646Y-17645650D02*
X7078693Y-17655174D01*
X7078693Y-17655174D02*
X7088217Y-17664698D01*
X7088217Y-17664698D02*
X7097741Y-17683746D01*
X7097741Y-17683746D02*
X7097741Y-17740889D01*
X7097741Y-17740889D02*
X7088217Y-17759936D01*
X7088217Y-17759936D02*
X7078693Y-17769460D01*
X7078693Y-17769460D02*
X7059646Y-17778984D01*
X7059646Y-17778984D02*
X7021551Y-17778984D01*
X7021551Y-17778984D02*
X7002503Y-17769460D01*
X7183455Y-17759936D02*
X7192979Y-17769460D01*
X7192979Y-17769460D02*
X7183455Y-17778984D01*
X7183455Y-17778984D02*
X7173932Y-17769460D01*
X7173932Y-17769460D02*
X7183455Y-17759936D01*
X7183455Y-17759936D02*
X7183455Y-17778984D01*
X7183455Y-17655174D02*
X7192979Y-17664698D01*
X7192979Y-17664698D02*
X7183455Y-17674222D01*
X7183455Y-17674222D02*
X7173932Y-17664698D01*
X7173932Y-17664698D02*
X7183455Y-17655174D01*
X7183455Y-17655174D02*
X7183455Y-17674222D01*
D12*
X5511250Y-18087500D02*
X5551250Y-18127500D01*
X5551250Y-18087500D02*
X5511250Y-18127500D01*
D11*
X5850122Y-17998984D02*
X5869170Y-17998984D01*
X5869170Y-17998984D02*
X5888217Y-18008508D01*
X5888217Y-18008508D02*
X5897741Y-18018031D01*
X5897741Y-18018031D02*
X5907265Y-18037079D01*
X5907265Y-18037079D02*
X5916789Y-18075174D01*
X5916789Y-18075174D02*
X5916789Y-18122793D01*
X5916789Y-18122793D02*
X5907265Y-18160889D01*
X5907265Y-18160889D02*
X5897741Y-18179936D01*
X5897741Y-18179936D02*
X5888217Y-18189460D01*
X5888217Y-18189460D02*
X5869170Y-18198984D01*
X5869170Y-18198984D02*
X5850122Y-18198984D01*
X5850122Y-18198984D02*
X5831074Y-18189460D01*
X5831074Y-18189460D02*
X5821551Y-18179936D01*
X5821551Y-18179936D02*
X5812027Y-18160889D01*
X5812027Y-18160889D02*
X5802503Y-18122793D01*
X5802503Y-18122793D02*
X5802503Y-18075174D01*
X5802503Y-18075174D02*
X5812027Y-18037079D01*
X5812027Y-18037079D02*
X5821551Y-18018031D01*
X5821551Y-18018031D02*
X5831074Y-18008508D01*
X5831074Y-18008508D02*
X5850122Y-17998984D01*
X6002503Y-18179936D02*
X6012027Y-18189460D01*
X6012027Y-18189460D02*
X6002503Y-18198984D01*
X6002503Y-18198984D02*
X5992979Y-18189460D01*
X5992979Y-18189460D02*
X6002503Y-18179936D01*
X6002503Y-18179936D02*
X6002503Y-18198984D01*
X6183455Y-18065650D02*
X6183455Y-18198984D01*
X6135836Y-17989460D02*
X6088217Y-18132317D01*
X6088217Y-18132317D02*
X6212027Y-18132317D01*
X6326312Y-17998984D02*
X6345360Y-17998984D01*
X6345360Y-17998984D02*
X6364408Y-18008508D01*
X6364408Y-18008508D02*
X6373932Y-18018031D01*
X6373932Y-18018031D02*
X6383455Y-18037079D01*
X6383455Y-18037079D02*
X6392979Y-18075174D01*
X6392979Y-18075174D02*
X6392979Y-18122793D01*
X6392979Y-18122793D02*
X6383455Y-18160889D01*
X6383455Y-18160889D02*
X6373932Y-18179936D01*
X6373932Y-18179936D02*
X6364408Y-18189460D01*
X6364408Y-18189460D02*
X6345360Y-18198984D01*
X6345360Y-18198984D02*
X6326312Y-18198984D01*
X6326312Y-18198984D02*
X6307265Y-18189460D01*
X6307265Y-18189460D02*
X6297741Y-18179936D01*
X6297741Y-18179936D02*
X6288217Y-18160889D01*
X6288217Y-18160889D02*
X6278693Y-18122793D01*
X6278693Y-18122793D02*
X6278693Y-18075174D01*
X6278693Y-18075174D02*
X6288217Y-18037079D01*
X6288217Y-18037079D02*
X6297741Y-18018031D01*
X6297741Y-18018031D02*
X6307265Y-18008508D01*
X6307265Y-18008508D02*
X6326312Y-17998984D01*
X6516789Y-17998984D02*
X6535836Y-17998984D01*
X6535836Y-17998984D02*
X6554884Y-18008508D01*
X6554884Y-18008508D02*
X6564408Y-18018031D01*
X6564408Y-18018031D02*
X6573932Y-18037079D01*
X6573932Y-18037079D02*
X6583455Y-18075174D01*
X6583455Y-18075174D02*
X6583455Y-18122793D01*
X6583455Y-18122793D02*
X6573932Y-18160889D01*
X6573932Y-18160889D02*
X6564408Y-18179936D01*
X6564408Y-18179936D02*
X6554884Y-18189460D01*
X6554884Y-18189460D02*
X6535836Y-18198984D01*
X6535836Y-18198984D02*
X6516789Y-18198984D01*
X6516789Y-18198984D02*
X6497741Y-18189460D01*
X6497741Y-18189460D02*
X6488217Y-18179936D01*
X6488217Y-18179936D02*
X6478693Y-18160889D01*
X6478693Y-18160889D02*
X6469170Y-18122793D01*
X6469170Y-18122793D02*
X6469170Y-18075174D01*
X6469170Y-18075174D02*
X6478693Y-18037079D01*
X6478693Y-18037079D02*
X6488217Y-18018031D01*
X6488217Y-18018031D02*
X6497741Y-18008508D01*
X6497741Y-18008508D02*
X6516789Y-17998984D01*
X6669170Y-18198984D02*
X6669170Y-18065650D01*
X6669170Y-18084698D02*
X6678693Y-18075174D01*
X6678693Y-18075174D02*
X6697741Y-18065650D01*
X6697741Y-18065650D02*
X6726313Y-18065650D01*
X6726313Y-18065650D02*
X6745360Y-18075174D01*
X6745360Y-18075174D02*
X6754884Y-18094222D01*
X6754884Y-18094222D02*
X6754884Y-18198984D01*
X6754884Y-18094222D02*
X6764408Y-18075174D01*
X6764408Y-18075174D02*
X6783455Y-18065650D01*
X6783455Y-18065650D02*
X6812027Y-18065650D01*
X6812027Y-18065650D02*
X6831074Y-18075174D01*
X6831074Y-18075174D02*
X6840598Y-18094222D01*
X6840598Y-18094222D02*
X6840598Y-18198984D01*
X6935836Y-18198984D02*
X6935836Y-18065650D01*
X6935836Y-18084698D02*
X6945360Y-18075174D01*
X6945360Y-18075174D02*
X6964408Y-18065650D01*
X6964408Y-18065650D02*
X6992979Y-18065650D01*
X6992979Y-18065650D02*
X7012027Y-18075174D01*
X7012027Y-18075174D02*
X7021551Y-18094222D01*
X7021551Y-18094222D02*
X7021551Y-18198984D01*
X7021551Y-18094222D02*
X7031074Y-18075174D01*
X7031074Y-18075174D02*
X7050122Y-18065650D01*
X7050122Y-18065650D02*
X7078693Y-18065650D01*
X7078693Y-18065650D02*
X7097741Y-18075174D01*
X7097741Y-18075174D02*
X7107265Y-18094222D01*
X7107265Y-18094222D02*
X7107265Y-18198984D01*
X7497741Y-17989460D02*
X7326313Y-18246603D01*
X7754884Y-17998984D02*
X7773932Y-17998984D01*
X7773932Y-17998984D02*
X7792979Y-18008508D01*
X7792979Y-18008508D02*
X7802503Y-18018031D01*
X7802503Y-18018031D02*
X7812027Y-18037079D01*
X7812027Y-18037079D02*
X7821551Y-18075174D01*
X7821551Y-18075174D02*
X7821551Y-18122793D01*
X7821551Y-18122793D02*
X7812027Y-18160889D01*
X7812027Y-18160889D02*
X7802503Y-18179936D01*
X7802503Y-18179936D02*
X7792979Y-18189460D01*
X7792979Y-18189460D02*
X7773932Y-18198984D01*
X7773932Y-18198984D02*
X7754884Y-18198984D01*
X7754884Y-18198984D02*
X7735836Y-18189460D01*
X7735836Y-18189460D02*
X7726313Y-18179936D01*
X7726313Y-18179936D02*
X7716789Y-18160889D01*
X7716789Y-18160889D02*
X7707265Y-18122793D01*
X7707265Y-18122793D02*
X7707265Y-18075174D01*
X7707265Y-18075174D02*
X7716789Y-18037079D01*
X7716789Y-18037079D02*
X7726313Y-18018031D01*
X7726313Y-18018031D02*
X7735836Y-18008508D01*
X7735836Y-18008508D02*
X7754884Y-17998984D01*
X7907265Y-18179936D02*
X7916789Y-18189460D01*
X7916789Y-18189460D02*
X7907265Y-18198984D01*
X7907265Y-18198984D02*
X7897741Y-18189460D01*
X7897741Y-18189460D02*
X7907265Y-18179936D01*
X7907265Y-18179936D02*
X7907265Y-18198984D01*
X8040598Y-17998984D02*
X8059646Y-17998984D01*
X8059646Y-17998984D02*
X8078694Y-18008508D01*
X8078694Y-18008508D02*
X8088217Y-18018031D01*
X8088217Y-18018031D02*
X8097741Y-18037079D01*
X8097741Y-18037079D02*
X8107265Y-18075174D01*
X8107265Y-18075174D02*
X8107265Y-18122793D01*
X8107265Y-18122793D02*
X8097741Y-18160889D01*
X8097741Y-18160889D02*
X8088217Y-18179936D01*
X8088217Y-18179936D02*
X8078694Y-18189460D01*
X8078694Y-18189460D02*
X8059646Y-18198984D01*
X8059646Y-18198984D02*
X8040598Y-18198984D01*
X8040598Y-18198984D02*
X8021551Y-18189460D01*
X8021551Y-18189460D02*
X8012027Y-18179936D01*
X8012027Y-18179936D02*
X8002503Y-18160889D01*
X8002503Y-18160889D02*
X7992979Y-18122793D01*
X7992979Y-18122793D02*
X7992979Y-18075174D01*
X7992979Y-18075174D02*
X8002503Y-18037079D01*
X8002503Y-18037079D02*
X8012027Y-18018031D01*
X8012027Y-18018031D02*
X8021551Y-18008508D01*
X8021551Y-18008508D02*
X8040598Y-17998984D01*
X8297741Y-18198984D02*
X8183456Y-18198984D01*
X8240598Y-18198984D02*
X8240598Y-17998984D01*
X8240598Y-17998984D02*
X8221551Y-18027555D01*
X8221551Y-18027555D02*
X8202503Y-18046603D01*
X8202503Y-18046603D02*
X8183456Y-18056127D01*
X8478694Y-17998984D02*
X8383456Y-17998984D01*
X8383456Y-17998984D02*
X8373932Y-18094222D01*
X8373932Y-18094222D02*
X8383456Y-18084698D01*
X8383456Y-18084698D02*
X8402503Y-18075174D01*
X8402503Y-18075174D02*
X8450122Y-18075174D01*
X8450122Y-18075174D02*
X8469170Y-18084698D01*
X8469170Y-18084698D02*
X8478694Y-18094222D01*
X8478694Y-18094222D02*
X8488218Y-18113270D01*
X8488218Y-18113270D02*
X8488218Y-18160889D01*
X8488218Y-18160889D02*
X8478694Y-18179936D01*
X8478694Y-18179936D02*
X8469170Y-18189460D01*
X8469170Y-18189460D02*
X8450122Y-18198984D01*
X8450122Y-18198984D02*
X8402503Y-18198984D01*
X8402503Y-18198984D02*
X8383456Y-18189460D01*
X8383456Y-18189460D02*
X8373932Y-18179936D01*
X8554884Y-17998984D02*
X8688218Y-17998984D01*
X8688218Y-17998984D02*
X8602503Y-18198984D01*
X8754884Y-17998984D02*
X8754884Y-18037079D01*
X8831075Y-17998984D02*
X8831075Y-18037079D01*
X9126313Y-18275174D02*
X9116789Y-18265650D01*
X9116789Y-18265650D02*
X9097741Y-18237079D01*
X9097741Y-18237079D02*
X9088218Y-18218031D01*
X9088218Y-18218031D02*
X9078694Y-18189460D01*
X9078694Y-18189460D02*
X9069170Y-18141841D01*
X9069170Y-18141841D02*
X9069170Y-18103746D01*
X9069170Y-18103746D02*
X9078694Y-18056127D01*
X9078694Y-18056127D02*
X9088218Y-18027555D01*
X9088218Y-18027555D02*
X9097741Y-18008508D01*
X9097741Y-18008508D02*
X9116789Y-17979936D01*
X9116789Y-17979936D02*
X9126313Y-17970412D01*
X9297741Y-17998984D02*
X9202503Y-17998984D01*
X9202503Y-17998984D02*
X9192980Y-18094222D01*
X9192980Y-18094222D02*
X9202503Y-18084698D01*
X9202503Y-18084698D02*
X9221551Y-18075174D01*
X9221551Y-18075174D02*
X9269170Y-18075174D01*
X9269170Y-18075174D02*
X9288218Y-18084698D01*
X9288218Y-18084698D02*
X9297741Y-18094222D01*
X9297741Y-18094222D02*
X9307265Y-18113270D01*
X9307265Y-18113270D02*
X9307265Y-18160889D01*
X9307265Y-18160889D02*
X9297741Y-18179936D01*
X9297741Y-18179936D02*
X9288218Y-18189460D01*
X9288218Y-18189460D02*
X9269170Y-18198984D01*
X9269170Y-18198984D02*
X9221551Y-18198984D01*
X9221551Y-18198984D02*
X9202503Y-18189460D01*
X9202503Y-18189460D02*
X9192980Y-18179936D01*
X9478694Y-17998984D02*
X9440599Y-17998984D01*
X9440599Y-17998984D02*
X9421551Y-18008508D01*
X9421551Y-18008508D02*
X9412027Y-18018031D01*
X9412027Y-18018031D02*
X9392980Y-18046603D01*
X9392980Y-18046603D02*
X9383456Y-18084698D01*
X9383456Y-18084698D02*
X9383456Y-18160889D01*
X9383456Y-18160889D02*
X9392980Y-18179936D01*
X9392980Y-18179936D02*
X9402503Y-18189460D01*
X9402503Y-18189460D02*
X9421551Y-18198984D01*
X9421551Y-18198984D02*
X9459646Y-18198984D01*
X9459646Y-18198984D02*
X9478694Y-18189460D01*
X9478694Y-18189460D02*
X9488218Y-18179936D01*
X9488218Y-18179936D02*
X9497741Y-18160889D01*
X9497741Y-18160889D02*
X9497741Y-18113270D01*
X9497741Y-18113270D02*
X9488218Y-18094222D01*
X9488218Y-18094222D02*
X9478694Y-18084698D01*
X9478694Y-18084698D02*
X9459646Y-18075174D01*
X9459646Y-18075174D02*
X9421551Y-18075174D01*
X9421551Y-18075174D02*
X9402503Y-18084698D01*
X9402503Y-18084698D02*
X9392980Y-18094222D01*
X9392980Y-18094222D02*
X9383456Y-18113270D01*
X9735837Y-18198984D02*
X9735837Y-17998984D01*
X9821551Y-18198984D02*
X9821551Y-18094222D01*
X9821551Y-18094222D02*
X9812027Y-18075174D01*
X9812027Y-18075174D02*
X9792980Y-18065650D01*
X9792980Y-18065650D02*
X9764408Y-18065650D01*
X9764408Y-18065650D02*
X9745361Y-18075174D01*
X9745361Y-18075174D02*
X9735837Y-18084698D01*
X9945361Y-18198984D02*
X9926313Y-18189460D01*
X9926313Y-18189460D02*
X9916789Y-18179936D01*
X9916789Y-18179936D02*
X9907265Y-18160889D01*
X9907265Y-18160889D02*
X9907265Y-18103746D01*
X9907265Y-18103746D02*
X9916789Y-18084698D01*
X9916789Y-18084698D02*
X9926313Y-18075174D01*
X9926313Y-18075174D02*
X9945361Y-18065650D01*
X9945361Y-18065650D02*
X9973932Y-18065650D01*
X9973932Y-18065650D02*
X9992980Y-18075174D01*
X9992980Y-18075174D02*
X10002503Y-18084698D01*
X10002503Y-18084698D02*
X10012027Y-18103746D01*
X10012027Y-18103746D02*
X10012027Y-18160889D01*
X10012027Y-18160889D02*
X10002503Y-18179936D01*
X10002503Y-18179936D02*
X9992980Y-18189460D01*
X9992980Y-18189460D02*
X9973932Y-18198984D01*
X9973932Y-18198984D02*
X9945361Y-18198984D01*
X10126313Y-18198984D02*
X10107265Y-18189460D01*
X10107265Y-18189460D02*
X10097742Y-18170412D01*
X10097742Y-18170412D02*
X10097742Y-17998984D01*
X10278694Y-18189460D02*
X10259646Y-18198984D01*
X10259646Y-18198984D02*
X10221551Y-18198984D01*
X10221551Y-18198984D02*
X10202503Y-18189460D01*
X10202503Y-18189460D02*
X10192980Y-18170412D01*
X10192980Y-18170412D02*
X10192980Y-18094222D01*
X10192980Y-18094222D02*
X10202503Y-18075174D01*
X10202503Y-18075174D02*
X10221551Y-18065650D01*
X10221551Y-18065650D02*
X10259646Y-18065650D01*
X10259646Y-18065650D02*
X10278694Y-18075174D01*
X10278694Y-18075174D02*
X10288218Y-18094222D01*
X10288218Y-18094222D02*
X10288218Y-18113270D01*
X10288218Y-18113270D02*
X10192980Y-18132317D01*
X10364408Y-18189460D02*
X10383456Y-18198984D01*
X10383456Y-18198984D02*
X10421551Y-18198984D01*
X10421551Y-18198984D02*
X10440599Y-18189460D01*
X10440599Y-18189460D02*
X10450123Y-18170412D01*
X10450123Y-18170412D02*
X10450123Y-18160889D01*
X10450123Y-18160889D02*
X10440599Y-18141841D01*
X10440599Y-18141841D02*
X10421551Y-18132317D01*
X10421551Y-18132317D02*
X10392980Y-18132317D01*
X10392980Y-18132317D02*
X10373932Y-18122793D01*
X10373932Y-18122793D02*
X10364408Y-18103746D01*
X10364408Y-18103746D02*
X10364408Y-18094222D01*
X10364408Y-18094222D02*
X10373932Y-18075174D01*
X10373932Y-18075174D02*
X10392980Y-18065650D01*
X10392980Y-18065650D02*
X10421551Y-18065650D01*
X10421551Y-18065650D02*
X10440599Y-18075174D01*
X10516789Y-18275174D02*
X10526313Y-18265650D01*
X10526313Y-18265650D02*
X10545361Y-18237079D01*
X10545361Y-18237079D02*
X10554884Y-18218031D01*
X10554884Y-18218031D02*
X10564408Y-18189460D01*
X10564408Y-18189460D02*
X10573932Y-18141841D01*
X10573932Y-18141841D02*
X10573932Y-18103746D01*
X10573932Y-18103746D02*
X10564408Y-18056127D01*
X10564408Y-18056127D02*
X10554884Y-18027555D01*
X10554884Y-18027555D02*
X10545361Y-18008508D01*
X10545361Y-18008508D02*
X10526313Y-17979936D01*
X10526313Y-17979936D02*
X10516789Y-17970412D01*
D13*
X5551250Y-18371500D02*
G75*
G03*
X5551250Y-18371500I-35000J0D01*
G01*
D11*
X5850122Y-18262984D02*
X5869170Y-18262984D01*
X5869170Y-18262984D02*
X5888217Y-18272508D01*
X5888217Y-18272508D02*
X5897741Y-18282031D01*
X5897741Y-18282031D02*
X5907265Y-18301079D01*
X5907265Y-18301079D02*
X5916789Y-18339174D01*
X5916789Y-18339174D02*
X5916789Y-18386793D01*
X5916789Y-18386793D02*
X5907265Y-18424889D01*
X5907265Y-18424889D02*
X5897741Y-18443936D01*
X5897741Y-18443936D02*
X5888217Y-18453460D01*
X5888217Y-18453460D02*
X5869170Y-18462984D01*
X5869170Y-18462984D02*
X5850122Y-18462984D01*
X5850122Y-18462984D02*
X5831074Y-18453460D01*
X5831074Y-18453460D02*
X5821551Y-18443936D01*
X5821551Y-18443936D02*
X5812027Y-18424889D01*
X5812027Y-18424889D02*
X5802503Y-18386793D01*
X5802503Y-18386793D02*
X5802503Y-18339174D01*
X5802503Y-18339174D02*
X5812027Y-18301079D01*
X5812027Y-18301079D02*
X5821551Y-18282031D01*
X5821551Y-18282031D02*
X5831074Y-18272508D01*
X5831074Y-18272508D02*
X5850122Y-18262984D01*
X6002503Y-18443936D02*
X6012027Y-18453460D01*
X6012027Y-18453460D02*
X6002503Y-18462984D01*
X6002503Y-18462984D02*
X5992979Y-18453460D01*
X5992979Y-18453460D02*
X6002503Y-18443936D01*
X6002503Y-18443936D02*
X6002503Y-18462984D01*
X6078693Y-18262984D02*
X6212027Y-18262984D01*
X6212027Y-18262984D02*
X6126312Y-18462984D01*
X6326312Y-18262984D02*
X6345360Y-18262984D01*
X6345360Y-18262984D02*
X6364408Y-18272508D01*
X6364408Y-18272508D02*
X6373932Y-18282031D01*
X6373932Y-18282031D02*
X6383455Y-18301079D01*
X6383455Y-18301079D02*
X6392979Y-18339174D01*
X6392979Y-18339174D02*
X6392979Y-18386793D01*
X6392979Y-18386793D02*
X6383455Y-18424889D01*
X6383455Y-18424889D02*
X6373932Y-18443936D01*
X6373932Y-18443936D02*
X6364408Y-18453460D01*
X6364408Y-18453460D02*
X6345360Y-18462984D01*
X6345360Y-18462984D02*
X6326312Y-18462984D01*
X6326312Y-18462984D02*
X6307265Y-18453460D01*
X6307265Y-18453460D02*
X6297741Y-18443936D01*
X6297741Y-18443936D02*
X6288217Y-18424889D01*
X6288217Y-18424889D02*
X6278693Y-18386793D01*
X6278693Y-18386793D02*
X6278693Y-18339174D01*
X6278693Y-18339174D02*
X6288217Y-18301079D01*
X6288217Y-18301079D02*
X6297741Y-18282031D01*
X6297741Y-18282031D02*
X6307265Y-18272508D01*
X6307265Y-18272508D02*
X6326312Y-18262984D01*
X6516789Y-18262984D02*
X6535836Y-18262984D01*
X6535836Y-18262984D02*
X6554884Y-18272508D01*
X6554884Y-18272508D02*
X6564408Y-18282031D01*
X6564408Y-18282031D02*
X6573932Y-18301079D01*
X6573932Y-18301079D02*
X6583455Y-18339174D01*
X6583455Y-18339174D02*
X6583455Y-18386793D01*
X6583455Y-18386793D02*
X6573932Y-18424889D01*
X6573932Y-18424889D02*
X6564408Y-18443936D01*
X6564408Y-18443936D02*
X6554884Y-18453460D01*
X6554884Y-18453460D02*
X6535836Y-18462984D01*
X6535836Y-18462984D02*
X6516789Y-18462984D01*
X6516789Y-18462984D02*
X6497741Y-18453460D01*
X6497741Y-18453460D02*
X6488217Y-18443936D01*
X6488217Y-18443936D02*
X6478693Y-18424889D01*
X6478693Y-18424889D02*
X6469170Y-18386793D01*
X6469170Y-18386793D02*
X6469170Y-18339174D01*
X6469170Y-18339174D02*
X6478693Y-18301079D01*
X6478693Y-18301079D02*
X6488217Y-18282031D01*
X6488217Y-18282031D02*
X6497741Y-18272508D01*
X6497741Y-18272508D02*
X6516789Y-18262984D01*
X6669170Y-18462984D02*
X6669170Y-18329650D01*
X6669170Y-18348698D02*
X6678693Y-18339174D01*
X6678693Y-18339174D02*
X6697741Y-18329650D01*
X6697741Y-18329650D02*
X6726313Y-18329650D01*
X6726313Y-18329650D02*
X6745360Y-18339174D01*
X6745360Y-18339174D02*
X6754884Y-18358222D01*
X6754884Y-18358222D02*
X6754884Y-18462984D01*
X6754884Y-18358222D02*
X6764408Y-18339174D01*
X6764408Y-18339174D02*
X6783455Y-18329650D01*
X6783455Y-18329650D02*
X6812027Y-18329650D01*
X6812027Y-18329650D02*
X6831074Y-18339174D01*
X6831074Y-18339174D02*
X6840598Y-18358222D01*
X6840598Y-18358222D02*
X6840598Y-18462984D01*
X6935836Y-18462984D02*
X6935836Y-18329650D01*
X6935836Y-18348698D02*
X6945360Y-18339174D01*
X6945360Y-18339174D02*
X6964408Y-18329650D01*
X6964408Y-18329650D02*
X6992979Y-18329650D01*
X6992979Y-18329650D02*
X7012027Y-18339174D01*
X7012027Y-18339174D02*
X7021551Y-18358222D01*
X7021551Y-18358222D02*
X7021551Y-18462984D01*
X7021551Y-18358222D02*
X7031074Y-18339174D01*
X7031074Y-18339174D02*
X7050122Y-18329650D01*
X7050122Y-18329650D02*
X7078693Y-18329650D01*
X7078693Y-18329650D02*
X7097741Y-18339174D01*
X7097741Y-18339174D02*
X7107265Y-18358222D01*
X7107265Y-18358222D02*
X7107265Y-18462984D01*
X7497741Y-18253460D02*
X7326313Y-18510603D01*
X7754884Y-18262984D02*
X7773932Y-18262984D01*
X7773932Y-18262984D02*
X7792979Y-18272508D01*
X7792979Y-18272508D02*
X7802503Y-18282031D01*
X7802503Y-18282031D02*
X7812027Y-18301079D01*
X7812027Y-18301079D02*
X7821551Y-18339174D01*
X7821551Y-18339174D02*
X7821551Y-18386793D01*
X7821551Y-18386793D02*
X7812027Y-18424889D01*
X7812027Y-18424889D02*
X7802503Y-18443936D01*
X7802503Y-18443936D02*
X7792979Y-18453460D01*
X7792979Y-18453460D02*
X7773932Y-18462984D01*
X7773932Y-18462984D02*
X7754884Y-18462984D01*
X7754884Y-18462984D02*
X7735836Y-18453460D01*
X7735836Y-18453460D02*
X7726313Y-18443936D01*
X7726313Y-18443936D02*
X7716789Y-18424889D01*
X7716789Y-18424889D02*
X7707265Y-18386793D01*
X7707265Y-18386793D02*
X7707265Y-18339174D01*
X7707265Y-18339174D02*
X7716789Y-18301079D01*
X7716789Y-18301079D02*
X7726313Y-18282031D01*
X7726313Y-18282031D02*
X7735836Y-18272508D01*
X7735836Y-18272508D02*
X7754884Y-18262984D01*
X7907265Y-18443936D02*
X7916789Y-18453460D01*
X7916789Y-18453460D02*
X7907265Y-18462984D01*
X7907265Y-18462984D02*
X7897741Y-18453460D01*
X7897741Y-18453460D02*
X7907265Y-18443936D01*
X7907265Y-18443936D02*
X7907265Y-18462984D01*
X8040598Y-18262984D02*
X8059646Y-18262984D01*
X8059646Y-18262984D02*
X8078694Y-18272508D01*
X8078694Y-18272508D02*
X8088217Y-18282031D01*
X8088217Y-18282031D02*
X8097741Y-18301079D01*
X8097741Y-18301079D02*
X8107265Y-18339174D01*
X8107265Y-18339174D02*
X8107265Y-18386793D01*
X8107265Y-18386793D02*
X8097741Y-18424889D01*
X8097741Y-18424889D02*
X8088217Y-18443936D01*
X8088217Y-18443936D02*
X8078694Y-18453460D01*
X8078694Y-18453460D02*
X8059646Y-18462984D01*
X8059646Y-18462984D02*
X8040598Y-18462984D01*
X8040598Y-18462984D02*
X8021551Y-18453460D01*
X8021551Y-18453460D02*
X8012027Y-18443936D01*
X8012027Y-18443936D02*
X8002503Y-18424889D01*
X8002503Y-18424889D02*
X7992979Y-18386793D01*
X7992979Y-18386793D02*
X7992979Y-18339174D01*
X7992979Y-18339174D02*
X8002503Y-18301079D01*
X8002503Y-18301079D02*
X8012027Y-18282031D01*
X8012027Y-18282031D02*
X8021551Y-18272508D01*
X8021551Y-18272508D02*
X8040598Y-18262984D01*
X8183456Y-18282031D02*
X8192979Y-18272508D01*
X8192979Y-18272508D02*
X8212027Y-18262984D01*
X8212027Y-18262984D02*
X8259646Y-18262984D01*
X8259646Y-18262984D02*
X8278694Y-18272508D01*
X8278694Y-18272508D02*
X8288217Y-18282031D01*
X8288217Y-18282031D02*
X8297741Y-18301079D01*
X8297741Y-18301079D02*
X8297741Y-18320127D01*
X8297741Y-18320127D02*
X8288217Y-18348698D01*
X8288217Y-18348698D02*
X8173932Y-18462984D01*
X8173932Y-18462984D02*
X8297741Y-18462984D01*
X8364408Y-18262984D02*
X8497741Y-18262984D01*
X8497741Y-18262984D02*
X8412027Y-18462984D01*
X8659646Y-18262984D02*
X8621551Y-18262984D01*
X8621551Y-18262984D02*
X8602503Y-18272508D01*
X8602503Y-18272508D02*
X8592979Y-18282031D01*
X8592979Y-18282031D02*
X8573932Y-18310603D01*
X8573932Y-18310603D02*
X8564408Y-18348698D01*
X8564408Y-18348698D02*
X8564408Y-18424889D01*
X8564408Y-18424889D02*
X8573932Y-18443936D01*
X8573932Y-18443936D02*
X8583456Y-18453460D01*
X8583456Y-18453460D02*
X8602503Y-18462984D01*
X8602503Y-18462984D02*
X8640599Y-18462984D01*
X8640599Y-18462984D02*
X8659646Y-18453460D01*
X8659646Y-18453460D02*
X8669170Y-18443936D01*
X8669170Y-18443936D02*
X8678694Y-18424889D01*
X8678694Y-18424889D02*
X8678694Y-18377270D01*
X8678694Y-18377270D02*
X8669170Y-18358222D01*
X8669170Y-18358222D02*
X8659646Y-18348698D01*
X8659646Y-18348698D02*
X8640599Y-18339174D01*
X8640599Y-18339174D02*
X8602503Y-18339174D01*
X8602503Y-18339174D02*
X8583456Y-18348698D01*
X8583456Y-18348698D02*
X8573932Y-18358222D01*
X8573932Y-18358222D02*
X8564408Y-18377270D01*
X8754884Y-18262984D02*
X8754884Y-18301079D01*
X8831075Y-18262984D02*
X8831075Y-18301079D01*
X9126313Y-18539174D02*
X9116789Y-18529650D01*
X9116789Y-18529650D02*
X9097741Y-18501079D01*
X9097741Y-18501079D02*
X9088218Y-18482031D01*
X9088218Y-18482031D02*
X9078694Y-18453460D01*
X9078694Y-18453460D02*
X9069170Y-18405841D01*
X9069170Y-18405841D02*
X9069170Y-18367746D01*
X9069170Y-18367746D02*
X9078694Y-18320127D01*
X9078694Y-18320127D02*
X9088218Y-18291555D01*
X9088218Y-18291555D02*
X9097741Y-18272508D01*
X9097741Y-18272508D02*
X9116789Y-18243936D01*
X9116789Y-18243936D02*
X9126313Y-18234412D01*
X9307265Y-18462984D02*
X9192980Y-18462984D01*
X9250122Y-18462984D02*
X9250122Y-18262984D01*
X9250122Y-18262984D02*
X9231075Y-18291555D01*
X9231075Y-18291555D02*
X9212027Y-18310603D01*
X9212027Y-18310603D02*
X9192980Y-18320127D01*
X9383456Y-18282031D02*
X9392980Y-18272508D01*
X9392980Y-18272508D02*
X9412027Y-18262984D01*
X9412027Y-18262984D02*
X9459646Y-18262984D01*
X9459646Y-18262984D02*
X9478694Y-18272508D01*
X9478694Y-18272508D02*
X9488218Y-18282031D01*
X9488218Y-18282031D02*
X9497741Y-18301079D01*
X9497741Y-18301079D02*
X9497741Y-18320127D01*
X9497741Y-18320127D02*
X9488218Y-18348698D01*
X9488218Y-18348698D02*
X9373932Y-18462984D01*
X9373932Y-18462984D02*
X9497741Y-18462984D01*
X9612027Y-18348698D02*
X9592980Y-18339174D01*
X9592980Y-18339174D02*
X9583456Y-18329650D01*
X9583456Y-18329650D02*
X9573932Y-18310603D01*
X9573932Y-18310603D02*
X9573932Y-18301079D01*
X9573932Y-18301079D02*
X9583456Y-18282031D01*
X9583456Y-18282031D02*
X9592980Y-18272508D01*
X9592980Y-18272508D02*
X9612027Y-18262984D01*
X9612027Y-18262984D02*
X9650122Y-18262984D01*
X9650122Y-18262984D02*
X9669170Y-18272508D01*
X9669170Y-18272508D02*
X9678694Y-18282031D01*
X9678694Y-18282031D02*
X9688218Y-18301079D01*
X9688218Y-18301079D02*
X9688218Y-18310603D01*
X9688218Y-18310603D02*
X9678694Y-18329650D01*
X9678694Y-18329650D02*
X9669170Y-18339174D01*
X9669170Y-18339174D02*
X9650122Y-18348698D01*
X9650122Y-18348698D02*
X9612027Y-18348698D01*
X9612027Y-18348698D02*
X9592980Y-18358222D01*
X9592980Y-18358222D02*
X9583456Y-18367746D01*
X9583456Y-18367746D02*
X9573932Y-18386793D01*
X9573932Y-18386793D02*
X9573932Y-18424889D01*
X9573932Y-18424889D02*
X9583456Y-18443936D01*
X9583456Y-18443936D02*
X9592980Y-18453460D01*
X9592980Y-18453460D02*
X9612027Y-18462984D01*
X9612027Y-18462984D02*
X9650122Y-18462984D01*
X9650122Y-18462984D02*
X9669170Y-18453460D01*
X9669170Y-18453460D02*
X9678694Y-18443936D01*
X9678694Y-18443936D02*
X9688218Y-18424889D01*
X9688218Y-18424889D02*
X9688218Y-18386793D01*
X9688218Y-18386793D02*
X9678694Y-18367746D01*
X9678694Y-18367746D02*
X9669170Y-18358222D01*
X9669170Y-18358222D02*
X9650122Y-18348698D01*
X9926313Y-18462984D02*
X9926313Y-18262984D01*
X10012027Y-18462984D02*
X10012027Y-18358222D01*
X10012027Y-18358222D02*
X10002503Y-18339174D01*
X10002503Y-18339174D02*
X9983456Y-18329650D01*
X9983456Y-18329650D02*
X9954884Y-18329650D01*
X9954884Y-18329650D02*
X9935837Y-18339174D01*
X9935837Y-18339174D02*
X9926313Y-18348698D01*
X10135837Y-18462984D02*
X10116789Y-18453460D01*
X10116789Y-18453460D02*
X10107265Y-18443936D01*
X10107265Y-18443936D02*
X10097742Y-18424889D01*
X10097742Y-18424889D02*
X10097742Y-18367746D01*
X10097742Y-18367746D02*
X10107265Y-18348698D01*
X10107265Y-18348698D02*
X10116789Y-18339174D01*
X10116789Y-18339174D02*
X10135837Y-18329650D01*
X10135837Y-18329650D02*
X10164408Y-18329650D01*
X10164408Y-18329650D02*
X10183456Y-18339174D01*
X10183456Y-18339174D02*
X10192980Y-18348698D01*
X10192980Y-18348698D02*
X10202503Y-18367746D01*
X10202503Y-18367746D02*
X10202503Y-18424889D01*
X10202503Y-18424889D02*
X10192980Y-18443936D01*
X10192980Y-18443936D02*
X10183456Y-18453460D01*
X10183456Y-18453460D02*
X10164408Y-18462984D01*
X10164408Y-18462984D02*
X10135837Y-18462984D01*
X10316789Y-18462984D02*
X10297742Y-18453460D01*
X10297742Y-18453460D02*
X10288218Y-18434412D01*
X10288218Y-18434412D02*
X10288218Y-18262984D01*
X10469170Y-18453460D02*
X10450123Y-18462984D01*
X10450123Y-18462984D02*
X10412027Y-18462984D01*
X10412027Y-18462984D02*
X10392980Y-18453460D01*
X10392980Y-18453460D02*
X10383456Y-18434412D01*
X10383456Y-18434412D02*
X10383456Y-18358222D01*
X10383456Y-18358222D02*
X10392980Y-18339174D01*
X10392980Y-18339174D02*
X10412027Y-18329650D01*
X10412027Y-18329650D02*
X10450123Y-18329650D01*
X10450123Y-18329650D02*
X10469170Y-18339174D01*
X10469170Y-18339174D02*
X10478694Y-18358222D01*
X10478694Y-18358222D02*
X10478694Y-18377270D01*
X10478694Y-18377270D02*
X10383456Y-18396317D01*
X10554884Y-18453460D02*
X10573932Y-18462984D01*
X10573932Y-18462984D02*
X10612027Y-18462984D01*
X10612027Y-18462984D02*
X10631075Y-18453460D01*
X10631075Y-18453460D02*
X10640599Y-18434412D01*
X10640599Y-18434412D02*
X10640599Y-18424889D01*
X10640599Y-18424889D02*
X10631075Y-18405841D01*
X10631075Y-18405841D02*
X10612027Y-18396317D01*
X10612027Y-18396317D02*
X10583456Y-18396317D01*
X10583456Y-18396317D02*
X10564408Y-18386793D01*
X10564408Y-18386793D02*
X10554884Y-18367746D01*
X10554884Y-18367746D02*
X10554884Y-18358222D01*
X10554884Y-18358222D02*
X10564408Y-18339174D01*
X10564408Y-18339174D02*
X10583456Y-18329650D01*
X10583456Y-18329650D02*
X10612027Y-18329650D01*
X10612027Y-18329650D02*
X10631075Y-18339174D01*
X10707265Y-18539174D02*
X10716789Y-18529650D01*
X10716789Y-18529650D02*
X10735837Y-18501079D01*
X10735837Y-18501079D02*
X10745361Y-18482031D01*
X10745361Y-18482031D02*
X10754884Y-18453460D01*
X10754884Y-18453460D02*
X10764408Y-18405841D01*
X10764408Y-18405841D02*
X10764408Y-18367746D01*
X10764408Y-18367746D02*
X10754884Y-18320127D01*
X10754884Y-18320127D02*
X10745361Y-18291555D01*
X10745361Y-18291555D02*
X10735837Y-18272508D01*
X10735837Y-18272508D02*
X10716789Y-18243936D01*
X10716789Y-18243936D02*
X10707265Y-18234412D01*
D10*
X5501250Y-18585500D02*
X5501250Y-18685500D01*
X5451250Y-18635500D02*
X5551250Y-18635500D01*
D11*
X5916789Y-18726984D02*
X5802503Y-18726984D01*
X5859646Y-18726984D02*
X5859646Y-18526984D01*
X5859646Y-18526984D02*
X5840598Y-18555555D01*
X5840598Y-18555555D02*
X5821551Y-18574603D01*
X5821551Y-18574603D02*
X5802503Y-18584127D01*
X6002503Y-18707936D02*
X6012027Y-18717460D01*
X6012027Y-18717460D02*
X6002503Y-18726984D01*
X6002503Y-18726984D02*
X5992979Y-18717460D01*
X5992979Y-18717460D02*
X6002503Y-18707936D01*
X6002503Y-18707936D02*
X6002503Y-18726984D01*
X6135836Y-18526984D02*
X6154884Y-18526984D01*
X6154884Y-18526984D02*
X6173932Y-18536508D01*
X6173932Y-18536508D02*
X6183455Y-18546031D01*
X6183455Y-18546031D02*
X6192979Y-18565079D01*
X6192979Y-18565079D02*
X6202503Y-18603174D01*
X6202503Y-18603174D02*
X6202503Y-18650793D01*
X6202503Y-18650793D02*
X6192979Y-18688889D01*
X6192979Y-18688889D02*
X6183455Y-18707936D01*
X6183455Y-18707936D02*
X6173932Y-18717460D01*
X6173932Y-18717460D02*
X6154884Y-18726984D01*
X6154884Y-18726984D02*
X6135836Y-18726984D01*
X6135836Y-18726984D02*
X6116789Y-18717460D01*
X6116789Y-18717460D02*
X6107265Y-18707936D01*
X6107265Y-18707936D02*
X6097741Y-18688889D01*
X6097741Y-18688889D02*
X6088217Y-18650793D01*
X6088217Y-18650793D02*
X6088217Y-18603174D01*
X6088217Y-18603174D02*
X6097741Y-18565079D01*
X6097741Y-18565079D02*
X6107265Y-18546031D01*
X6107265Y-18546031D02*
X6116789Y-18536508D01*
X6116789Y-18536508D02*
X6135836Y-18526984D01*
X6326312Y-18526984D02*
X6345360Y-18526984D01*
X6345360Y-18526984D02*
X6364408Y-18536508D01*
X6364408Y-18536508D02*
X6373932Y-18546031D01*
X6373932Y-18546031D02*
X6383455Y-18565079D01*
X6383455Y-18565079D02*
X6392979Y-18603174D01*
X6392979Y-18603174D02*
X6392979Y-18650793D01*
X6392979Y-18650793D02*
X6383455Y-18688889D01*
X6383455Y-18688889D02*
X6373932Y-18707936D01*
X6373932Y-18707936D02*
X6364408Y-18717460D01*
X6364408Y-18717460D02*
X6345360Y-18726984D01*
X6345360Y-18726984D02*
X6326312Y-18726984D01*
X6326312Y-18726984D02*
X6307265Y-18717460D01*
X6307265Y-18717460D02*
X6297741Y-18707936D01*
X6297741Y-18707936D02*
X6288217Y-18688889D01*
X6288217Y-18688889D02*
X6278693Y-18650793D01*
X6278693Y-18650793D02*
X6278693Y-18603174D01*
X6278693Y-18603174D02*
X6288217Y-18565079D01*
X6288217Y-18565079D02*
X6297741Y-18546031D01*
X6297741Y-18546031D02*
X6307265Y-18536508D01*
X6307265Y-18536508D02*
X6326312Y-18526984D01*
X6516789Y-18526984D02*
X6535836Y-18526984D01*
X6535836Y-18526984D02*
X6554884Y-18536508D01*
X6554884Y-18536508D02*
X6564408Y-18546031D01*
X6564408Y-18546031D02*
X6573932Y-18565079D01*
X6573932Y-18565079D02*
X6583455Y-18603174D01*
X6583455Y-18603174D02*
X6583455Y-18650793D01*
X6583455Y-18650793D02*
X6573932Y-18688889D01*
X6573932Y-18688889D02*
X6564408Y-18707936D01*
X6564408Y-18707936D02*
X6554884Y-18717460D01*
X6554884Y-18717460D02*
X6535836Y-18726984D01*
X6535836Y-18726984D02*
X6516789Y-18726984D01*
X6516789Y-18726984D02*
X6497741Y-18717460D01*
X6497741Y-18717460D02*
X6488217Y-18707936D01*
X6488217Y-18707936D02*
X6478693Y-18688889D01*
X6478693Y-18688889D02*
X6469170Y-18650793D01*
X6469170Y-18650793D02*
X6469170Y-18603174D01*
X6469170Y-18603174D02*
X6478693Y-18565079D01*
X6478693Y-18565079D02*
X6488217Y-18546031D01*
X6488217Y-18546031D02*
X6497741Y-18536508D01*
X6497741Y-18536508D02*
X6516789Y-18526984D01*
X6669170Y-18726984D02*
X6669170Y-18593650D01*
X6669170Y-18612698D02*
X6678693Y-18603174D01*
X6678693Y-18603174D02*
X6697741Y-18593650D01*
X6697741Y-18593650D02*
X6726313Y-18593650D01*
X6726313Y-18593650D02*
X6745360Y-18603174D01*
X6745360Y-18603174D02*
X6754884Y-18622222D01*
X6754884Y-18622222D02*
X6754884Y-18726984D01*
X6754884Y-18622222D02*
X6764408Y-18603174D01*
X6764408Y-18603174D02*
X6783455Y-18593650D01*
X6783455Y-18593650D02*
X6812027Y-18593650D01*
X6812027Y-18593650D02*
X6831074Y-18603174D01*
X6831074Y-18603174D02*
X6840598Y-18622222D01*
X6840598Y-18622222D02*
X6840598Y-18726984D01*
X6935836Y-18726984D02*
X6935836Y-18593650D01*
X6935836Y-18612698D02*
X6945360Y-18603174D01*
X6945360Y-18603174D02*
X6964408Y-18593650D01*
X6964408Y-18593650D02*
X6992979Y-18593650D01*
X6992979Y-18593650D02*
X7012027Y-18603174D01*
X7012027Y-18603174D02*
X7021551Y-18622222D01*
X7021551Y-18622222D02*
X7021551Y-18726984D01*
X7021551Y-18622222D02*
X7031074Y-18603174D01*
X7031074Y-18603174D02*
X7050122Y-18593650D01*
X7050122Y-18593650D02*
X7078693Y-18593650D01*
X7078693Y-18593650D02*
X7097741Y-18603174D01*
X7097741Y-18603174D02*
X7107265Y-18622222D01*
X7107265Y-18622222D02*
X7107265Y-18726984D01*
X7497741Y-18517460D02*
X7326313Y-18774603D01*
X7754884Y-18526984D02*
X7773932Y-18526984D01*
X7773932Y-18526984D02*
X7792979Y-18536508D01*
X7792979Y-18536508D02*
X7802503Y-18546031D01*
X7802503Y-18546031D02*
X7812027Y-18565079D01*
X7812027Y-18565079D02*
X7821551Y-18603174D01*
X7821551Y-18603174D02*
X7821551Y-18650793D01*
X7821551Y-18650793D02*
X7812027Y-18688889D01*
X7812027Y-18688889D02*
X7802503Y-18707936D01*
X7802503Y-18707936D02*
X7792979Y-18717460D01*
X7792979Y-18717460D02*
X7773932Y-18726984D01*
X7773932Y-18726984D02*
X7754884Y-18726984D01*
X7754884Y-18726984D02*
X7735836Y-18717460D01*
X7735836Y-18717460D02*
X7726313Y-18707936D01*
X7726313Y-18707936D02*
X7716789Y-18688889D01*
X7716789Y-18688889D02*
X7707265Y-18650793D01*
X7707265Y-18650793D02*
X7707265Y-18603174D01*
X7707265Y-18603174D02*
X7716789Y-18565079D01*
X7716789Y-18565079D02*
X7726313Y-18546031D01*
X7726313Y-18546031D02*
X7735836Y-18536508D01*
X7735836Y-18536508D02*
X7754884Y-18526984D01*
X7907265Y-18707936D02*
X7916789Y-18717460D01*
X7916789Y-18717460D02*
X7907265Y-18726984D01*
X7907265Y-18726984D02*
X7897741Y-18717460D01*
X7897741Y-18717460D02*
X7907265Y-18707936D01*
X7907265Y-18707936D02*
X7907265Y-18726984D01*
X8040598Y-18526984D02*
X8059646Y-18526984D01*
X8059646Y-18526984D02*
X8078694Y-18536508D01*
X8078694Y-18536508D02*
X8088217Y-18546031D01*
X8088217Y-18546031D02*
X8097741Y-18565079D01*
X8097741Y-18565079D02*
X8107265Y-18603174D01*
X8107265Y-18603174D02*
X8107265Y-18650793D01*
X8107265Y-18650793D02*
X8097741Y-18688889D01*
X8097741Y-18688889D02*
X8088217Y-18707936D01*
X8088217Y-18707936D02*
X8078694Y-18717460D01*
X8078694Y-18717460D02*
X8059646Y-18726984D01*
X8059646Y-18726984D02*
X8040598Y-18726984D01*
X8040598Y-18726984D02*
X8021551Y-18717460D01*
X8021551Y-18717460D02*
X8012027Y-18707936D01*
X8012027Y-18707936D02*
X8002503Y-18688889D01*
X8002503Y-18688889D02*
X7992979Y-18650793D01*
X7992979Y-18650793D02*
X7992979Y-18603174D01*
X7992979Y-18603174D02*
X8002503Y-18565079D01*
X8002503Y-18565079D02*
X8012027Y-18546031D01*
X8012027Y-18546031D02*
X8021551Y-18536508D01*
X8021551Y-18536508D02*
X8040598Y-18526984D01*
X8173932Y-18526984D02*
X8297741Y-18526984D01*
X8297741Y-18526984D02*
X8231075Y-18603174D01*
X8231075Y-18603174D02*
X8259646Y-18603174D01*
X8259646Y-18603174D02*
X8278694Y-18612698D01*
X8278694Y-18612698D02*
X8288217Y-18622222D01*
X8288217Y-18622222D02*
X8297741Y-18641270D01*
X8297741Y-18641270D02*
X8297741Y-18688889D01*
X8297741Y-18688889D02*
X8288217Y-18707936D01*
X8288217Y-18707936D02*
X8278694Y-18717460D01*
X8278694Y-18717460D02*
X8259646Y-18726984D01*
X8259646Y-18726984D02*
X8202503Y-18726984D01*
X8202503Y-18726984D02*
X8183456Y-18717460D01*
X8183456Y-18717460D02*
X8173932Y-18707936D01*
X8392979Y-18726984D02*
X8431075Y-18726984D01*
X8431075Y-18726984D02*
X8450122Y-18717460D01*
X8450122Y-18717460D02*
X8459646Y-18707936D01*
X8459646Y-18707936D02*
X8478694Y-18679365D01*
X8478694Y-18679365D02*
X8488218Y-18641270D01*
X8488218Y-18641270D02*
X8488218Y-18565079D01*
X8488218Y-18565079D02*
X8478694Y-18546031D01*
X8478694Y-18546031D02*
X8469170Y-18536508D01*
X8469170Y-18536508D02*
X8450122Y-18526984D01*
X8450122Y-18526984D02*
X8412027Y-18526984D01*
X8412027Y-18526984D02*
X8392979Y-18536508D01*
X8392979Y-18536508D02*
X8383456Y-18546031D01*
X8383456Y-18546031D02*
X8373932Y-18565079D01*
X8373932Y-18565079D02*
X8373932Y-18612698D01*
X8373932Y-18612698D02*
X8383456Y-18631746D01*
X8383456Y-18631746D02*
X8392979Y-18641270D01*
X8392979Y-18641270D02*
X8412027Y-18650793D01*
X8412027Y-18650793D02*
X8450122Y-18650793D01*
X8450122Y-18650793D02*
X8469170Y-18641270D01*
X8469170Y-18641270D02*
X8478694Y-18631746D01*
X8478694Y-18631746D02*
X8488218Y-18612698D01*
X8659646Y-18593650D02*
X8659646Y-18726984D01*
X8612027Y-18517460D02*
X8564408Y-18660317D01*
X8564408Y-18660317D02*
X8688218Y-18660317D01*
X8754884Y-18526984D02*
X8754884Y-18565079D01*
X8831075Y-18526984D02*
X8831075Y-18565079D01*
X9126313Y-18803174D02*
X9116789Y-18793650D01*
X9116789Y-18793650D02*
X9097741Y-18765079D01*
X9097741Y-18765079D02*
X9088218Y-18746031D01*
X9088218Y-18746031D02*
X9078694Y-18717460D01*
X9078694Y-18717460D02*
X9069170Y-18669841D01*
X9069170Y-18669841D02*
X9069170Y-18631746D01*
X9069170Y-18631746D02*
X9078694Y-18584127D01*
X9078694Y-18584127D02*
X9088218Y-18555555D01*
X9088218Y-18555555D02*
X9097741Y-18536508D01*
X9097741Y-18536508D02*
X9116789Y-18507936D01*
X9116789Y-18507936D02*
X9126313Y-18498412D01*
X9307265Y-18726984D02*
X9192980Y-18726984D01*
X9250122Y-18726984D02*
X9250122Y-18526984D01*
X9250122Y-18526984D02*
X9231075Y-18555555D01*
X9231075Y-18555555D02*
X9212027Y-18574603D01*
X9212027Y-18574603D02*
X9192980Y-18584127D01*
X9488218Y-18526984D02*
X9392980Y-18526984D01*
X9392980Y-18526984D02*
X9383456Y-18622222D01*
X9383456Y-18622222D02*
X9392980Y-18612698D01*
X9392980Y-18612698D02*
X9412027Y-18603174D01*
X9412027Y-18603174D02*
X9459646Y-18603174D01*
X9459646Y-18603174D02*
X9478694Y-18612698D01*
X9478694Y-18612698D02*
X9488218Y-18622222D01*
X9488218Y-18622222D02*
X9497741Y-18641270D01*
X9497741Y-18641270D02*
X9497741Y-18688889D01*
X9497741Y-18688889D02*
X9488218Y-18707936D01*
X9488218Y-18707936D02*
X9478694Y-18717460D01*
X9478694Y-18717460D02*
X9459646Y-18726984D01*
X9459646Y-18726984D02*
X9412027Y-18726984D01*
X9412027Y-18726984D02*
X9392980Y-18717460D01*
X9392980Y-18717460D02*
X9383456Y-18707936D01*
X9735837Y-18726984D02*
X9735837Y-18526984D01*
X9821551Y-18726984D02*
X9821551Y-18622222D01*
X9821551Y-18622222D02*
X9812027Y-18603174D01*
X9812027Y-18603174D02*
X9792980Y-18593650D01*
X9792980Y-18593650D02*
X9764408Y-18593650D01*
X9764408Y-18593650D02*
X9745361Y-18603174D01*
X9745361Y-18603174D02*
X9735837Y-18612698D01*
X9945361Y-18726984D02*
X9926313Y-18717460D01*
X9926313Y-18717460D02*
X9916789Y-18707936D01*
X9916789Y-18707936D02*
X9907265Y-18688889D01*
X9907265Y-18688889D02*
X9907265Y-18631746D01*
X9907265Y-18631746D02*
X9916789Y-18612698D01*
X9916789Y-18612698D02*
X9926313Y-18603174D01*
X9926313Y-18603174D02*
X9945361Y-18593650D01*
X9945361Y-18593650D02*
X9973932Y-18593650D01*
X9973932Y-18593650D02*
X9992980Y-18603174D01*
X9992980Y-18603174D02*
X10002503Y-18612698D01*
X10002503Y-18612698D02*
X10012027Y-18631746D01*
X10012027Y-18631746D02*
X10012027Y-18688889D01*
X10012027Y-18688889D02*
X10002503Y-18707936D01*
X10002503Y-18707936D02*
X9992980Y-18717460D01*
X9992980Y-18717460D02*
X9973932Y-18726984D01*
X9973932Y-18726984D02*
X9945361Y-18726984D01*
X10126313Y-18726984D02*
X10107265Y-18717460D01*
X10107265Y-18717460D02*
X10097742Y-18698412D01*
X10097742Y-18698412D02*
X10097742Y-18526984D01*
X10278694Y-18717460D02*
X10259646Y-18726984D01*
X10259646Y-18726984D02*
X10221551Y-18726984D01*
X10221551Y-18726984D02*
X10202503Y-18717460D01*
X10202503Y-18717460D02*
X10192980Y-18698412D01*
X10192980Y-18698412D02*
X10192980Y-18622222D01*
X10192980Y-18622222D02*
X10202503Y-18603174D01*
X10202503Y-18603174D02*
X10221551Y-18593650D01*
X10221551Y-18593650D02*
X10259646Y-18593650D01*
X10259646Y-18593650D02*
X10278694Y-18603174D01*
X10278694Y-18603174D02*
X10288218Y-18622222D01*
X10288218Y-18622222D02*
X10288218Y-18641270D01*
X10288218Y-18641270D02*
X10192980Y-18660317D01*
X10364408Y-18717460D02*
X10383456Y-18726984D01*
X10383456Y-18726984D02*
X10421551Y-18726984D01*
X10421551Y-18726984D02*
X10440599Y-18717460D01*
X10440599Y-18717460D02*
X10450123Y-18698412D01*
X10450123Y-18698412D02*
X10450123Y-18688889D01*
X10450123Y-18688889D02*
X10440599Y-18669841D01*
X10440599Y-18669841D02*
X10421551Y-18660317D01*
X10421551Y-18660317D02*
X10392980Y-18660317D01*
X10392980Y-18660317D02*
X10373932Y-18650793D01*
X10373932Y-18650793D02*
X10364408Y-18631746D01*
X10364408Y-18631746D02*
X10364408Y-18622222D01*
X10364408Y-18622222D02*
X10373932Y-18603174D01*
X10373932Y-18603174D02*
X10392980Y-18593650D01*
X10392980Y-18593650D02*
X10421551Y-18593650D01*
X10421551Y-18593650D02*
X10440599Y-18603174D01*
X10516789Y-18803174D02*
X10526313Y-18793650D01*
X10526313Y-18793650D02*
X10545361Y-18765079D01*
X10545361Y-18765079D02*
X10554884Y-18746031D01*
X10554884Y-18746031D02*
X10564408Y-18717460D01*
X10564408Y-18717460D02*
X10573932Y-18669841D01*
X10573932Y-18669841D02*
X10573932Y-18631746D01*
X10573932Y-18631746D02*
X10564408Y-18584127D01*
X10564408Y-18584127D02*
X10554884Y-18555555D01*
X10554884Y-18555555D02*
X10545361Y-18536508D01*
X10545361Y-18536508D02*
X10526313Y-18507936D01*
X10526313Y-18507936D02*
X10516789Y-18498412D01*
D14*
X5536313Y-18935563D02*
X5536313Y-18863437D01*
X5464187Y-18863437D01*
X5464187Y-18935563D01*
X5536313Y-18935563D01*
D11*
X5916789Y-18990984D02*
X5802503Y-18990984D01*
X5859646Y-18990984D02*
X5859646Y-18790984D01*
X5859646Y-18790984D02*
X5840598Y-18819555D01*
X5840598Y-18819555D02*
X5821551Y-18838603D01*
X5821551Y-18838603D02*
X5802503Y-18848127D01*
X6002503Y-18971936D02*
X6012027Y-18981460D01*
X6012027Y-18981460D02*
X6002503Y-18990984D01*
X6002503Y-18990984D02*
X5992979Y-18981460D01*
X5992979Y-18981460D02*
X6002503Y-18971936D01*
X6002503Y-18971936D02*
X6002503Y-18990984D01*
X6135836Y-18790984D02*
X6154884Y-18790984D01*
X6154884Y-18790984D02*
X6173932Y-18800508D01*
X6173932Y-18800508D02*
X6183455Y-18810031D01*
X6183455Y-18810031D02*
X6192979Y-18829079D01*
X6192979Y-18829079D02*
X6202503Y-18867174D01*
X6202503Y-18867174D02*
X6202503Y-18914793D01*
X6202503Y-18914793D02*
X6192979Y-18952889D01*
X6192979Y-18952889D02*
X6183455Y-18971936D01*
X6183455Y-18971936D02*
X6173932Y-18981460D01*
X6173932Y-18981460D02*
X6154884Y-18990984D01*
X6154884Y-18990984D02*
X6135836Y-18990984D01*
X6135836Y-18990984D02*
X6116789Y-18981460D01*
X6116789Y-18981460D02*
X6107265Y-18971936D01*
X6107265Y-18971936D02*
X6097741Y-18952889D01*
X6097741Y-18952889D02*
X6088217Y-18914793D01*
X6088217Y-18914793D02*
X6088217Y-18867174D01*
X6088217Y-18867174D02*
X6097741Y-18829079D01*
X6097741Y-18829079D02*
X6107265Y-18810031D01*
X6107265Y-18810031D02*
X6116789Y-18800508D01*
X6116789Y-18800508D02*
X6135836Y-18790984D01*
X6278693Y-18810031D02*
X6288217Y-18800508D01*
X6288217Y-18800508D02*
X6307265Y-18790984D01*
X6307265Y-18790984D02*
X6354884Y-18790984D01*
X6354884Y-18790984D02*
X6373932Y-18800508D01*
X6373932Y-18800508D02*
X6383455Y-18810031D01*
X6383455Y-18810031D02*
X6392979Y-18829079D01*
X6392979Y-18829079D02*
X6392979Y-18848127D01*
X6392979Y-18848127D02*
X6383455Y-18876698D01*
X6383455Y-18876698D02*
X6269170Y-18990984D01*
X6269170Y-18990984D02*
X6392979Y-18990984D01*
X6516789Y-18790984D02*
X6535836Y-18790984D01*
X6535836Y-18790984D02*
X6554884Y-18800508D01*
X6554884Y-18800508D02*
X6564408Y-18810031D01*
X6564408Y-18810031D02*
X6573932Y-18829079D01*
X6573932Y-18829079D02*
X6583455Y-18867174D01*
X6583455Y-18867174D02*
X6583455Y-18914793D01*
X6583455Y-18914793D02*
X6573932Y-18952889D01*
X6573932Y-18952889D02*
X6564408Y-18971936D01*
X6564408Y-18971936D02*
X6554884Y-18981460D01*
X6554884Y-18981460D02*
X6535836Y-18990984D01*
X6535836Y-18990984D02*
X6516789Y-18990984D01*
X6516789Y-18990984D02*
X6497741Y-18981460D01*
X6497741Y-18981460D02*
X6488217Y-18971936D01*
X6488217Y-18971936D02*
X6478693Y-18952889D01*
X6478693Y-18952889D02*
X6469170Y-18914793D01*
X6469170Y-18914793D02*
X6469170Y-18867174D01*
X6469170Y-18867174D02*
X6478693Y-18829079D01*
X6478693Y-18829079D02*
X6488217Y-18810031D01*
X6488217Y-18810031D02*
X6497741Y-18800508D01*
X6497741Y-18800508D02*
X6516789Y-18790984D01*
X6669170Y-18990984D02*
X6669170Y-18857650D01*
X6669170Y-18876698D02*
X6678693Y-18867174D01*
X6678693Y-18867174D02*
X6697741Y-18857650D01*
X6697741Y-18857650D02*
X6726313Y-18857650D01*
X6726313Y-18857650D02*
X6745360Y-18867174D01*
X6745360Y-18867174D02*
X6754884Y-18886222D01*
X6754884Y-18886222D02*
X6754884Y-18990984D01*
X6754884Y-18886222D02*
X6764408Y-18867174D01*
X6764408Y-18867174D02*
X6783455Y-18857650D01*
X6783455Y-18857650D02*
X6812027Y-18857650D01*
X6812027Y-18857650D02*
X6831074Y-18867174D01*
X6831074Y-18867174D02*
X6840598Y-18886222D01*
X6840598Y-18886222D02*
X6840598Y-18990984D01*
X6935836Y-18990984D02*
X6935836Y-18857650D01*
X6935836Y-18876698D02*
X6945360Y-18867174D01*
X6945360Y-18867174D02*
X6964408Y-18857650D01*
X6964408Y-18857650D02*
X6992979Y-18857650D01*
X6992979Y-18857650D02*
X7012027Y-18867174D01*
X7012027Y-18867174D02*
X7021551Y-18886222D01*
X7021551Y-18886222D02*
X7021551Y-18990984D01*
X7021551Y-18886222D02*
X7031074Y-18867174D01*
X7031074Y-18867174D02*
X7050122Y-18857650D01*
X7050122Y-18857650D02*
X7078693Y-18857650D01*
X7078693Y-18857650D02*
X7097741Y-18867174D01*
X7097741Y-18867174D02*
X7107265Y-18886222D01*
X7107265Y-18886222D02*
X7107265Y-18990984D01*
X7497741Y-18781460D02*
X7326313Y-19038603D01*
X7754884Y-18790984D02*
X7773932Y-18790984D01*
X7773932Y-18790984D02*
X7792979Y-18800508D01*
X7792979Y-18800508D02*
X7802503Y-18810031D01*
X7802503Y-18810031D02*
X7812027Y-18829079D01*
X7812027Y-18829079D02*
X7821551Y-18867174D01*
X7821551Y-18867174D02*
X7821551Y-18914793D01*
X7821551Y-18914793D02*
X7812027Y-18952889D01*
X7812027Y-18952889D02*
X7802503Y-18971936D01*
X7802503Y-18971936D02*
X7792979Y-18981460D01*
X7792979Y-18981460D02*
X7773932Y-18990984D01*
X7773932Y-18990984D02*
X7754884Y-18990984D01*
X7754884Y-18990984D02*
X7735836Y-18981460D01*
X7735836Y-18981460D02*
X7726313Y-18971936D01*
X7726313Y-18971936D02*
X7716789Y-18952889D01*
X7716789Y-18952889D02*
X7707265Y-18914793D01*
X7707265Y-18914793D02*
X7707265Y-18867174D01*
X7707265Y-18867174D02*
X7716789Y-18829079D01*
X7716789Y-18829079D02*
X7726313Y-18810031D01*
X7726313Y-18810031D02*
X7735836Y-18800508D01*
X7735836Y-18800508D02*
X7754884Y-18790984D01*
X7907265Y-18971936D02*
X7916789Y-18981460D01*
X7916789Y-18981460D02*
X7907265Y-18990984D01*
X7907265Y-18990984D02*
X7897741Y-18981460D01*
X7897741Y-18981460D02*
X7907265Y-18971936D01*
X7907265Y-18971936D02*
X7907265Y-18990984D01*
X8040598Y-18790984D02*
X8059646Y-18790984D01*
X8059646Y-18790984D02*
X8078694Y-18800508D01*
X8078694Y-18800508D02*
X8088217Y-18810031D01*
X8088217Y-18810031D02*
X8097741Y-18829079D01*
X8097741Y-18829079D02*
X8107265Y-18867174D01*
X8107265Y-18867174D02*
X8107265Y-18914793D01*
X8107265Y-18914793D02*
X8097741Y-18952889D01*
X8097741Y-18952889D02*
X8088217Y-18971936D01*
X8088217Y-18971936D02*
X8078694Y-18981460D01*
X8078694Y-18981460D02*
X8059646Y-18990984D01*
X8059646Y-18990984D02*
X8040598Y-18990984D01*
X8040598Y-18990984D02*
X8021551Y-18981460D01*
X8021551Y-18981460D02*
X8012027Y-18971936D01*
X8012027Y-18971936D02*
X8002503Y-18952889D01*
X8002503Y-18952889D02*
X7992979Y-18914793D01*
X7992979Y-18914793D02*
X7992979Y-18867174D01*
X7992979Y-18867174D02*
X8002503Y-18829079D01*
X8002503Y-18829079D02*
X8012027Y-18810031D01*
X8012027Y-18810031D02*
X8021551Y-18800508D01*
X8021551Y-18800508D02*
X8040598Y-18790984D01*
X8278694Y-18857650D02*
X8278694Y-18990984D01*
X8231075Y-18781460D02*
X8183456Y-18924317D01*
X8183456Y-18924317D02*
X8307265Y-18924317D01*
X8421551Y-18790984D02*
X8440599Y-18790984D01*
X8440599Y-18790984D02*
X8459646Y-18800508D01*
X8459646Y-18800508D02*
X8469170Y-18810031D01*
X8469170Y-18810031D02*
X8478694Y-18829079D01*
X8478694Y-18829079D02*
X8488218Y-18867174D01*
X8488218Y-18867174D02*
X8488218Y-18914793D01*
X8488218Y-18914793D02*
X8478694Y-18952889D01*
X8478694Y-18952889D02*
X8469170Y-18971936D01*
X8469170Y-18971936D02*
X8459646Y-18981460D01*
X8459646Y-18981460D02*
X8440599Y-18990984D01*
X8440599Y-18990984D02*
X8421551Y-18990984D01*
X8421551Y-18990984D02*
X8402503Y-18981460D01*
X8402503Y-18981460D02*
X8392979Y-18971936D01*
X8392979Y-18971936D02*
X8383456Y-18952889D01*
X8383456Y-18952889D02*
X8373932Y-18914793D01*
X8373932Y-18914793D02*
X8373932Y-18867174D01*
X8373932Y-18867174D02*
X8383456Y-18829079D01*
X8383456Y-18829079D02*
X8392979Y-18810031D01*
X8392979Y-18810031D02*
X8402503Y-18800508D01*
X8402503Y-18800508D02*
X8421551Y-18790984D01*
X8564408Y-18810031D02*
X8573932Y-18800508D01*
X8573932Y-18800508D02*
X8592979Y-18790984D01*
X8592979Y-18790984D02*
X8640599Y-18790984D01*
X8640599Y-18790984D02*
X8659646Y-18800508D01*
X8659646Y-18800508D02*
X8669170Y-18810031D01*
X8669170Y-18810031D02*
X8678694Y-18829079D01*
X8678694Y-18829079D02*
X8678694Y-18848127D01*
X8678694Y-18848127D02*
X8669170Y-18876698D01*
X8669170Y-18876698D02*
X8554884Y-18990984D01*
X8554884Y-18990984D02*
X8678694Y-18990984D01*
X8754884Y-18790984D02*
X8754884Y-18829079D01*
X8831075Y-18790984D02*
X8831075Y-18829079D01*
X9126313Y-19067174D02*
X9116789Y-19057650D01*
X9116789Y-19057650D02*
X9097741Y-19029079D01*
X9097741Y-19029079D02*
X9088218Y-19010031D01*
X9088218Y-19010031D02*
X9078694Y-18981460D01*
X9078694Y-18981460D02*
X9069170Y-18933841D01*
X9069170Y-18933841D02*
X9069170Y-18895746D01*
X9069170Y-18895746D02*
X9078694Y-18848127D01*
X9078694Y-18848127D02*
X9088218Y-18819555D01*
X9088218Y-18819555D02*
X9097741Y-18800508D01*
X9097741Y-18800508D02*
X9116789Y-18771936D01*
X9116789Y-18771936D02*
X9126313Y-18762412D01*
X9288218Y-18857650D02*
X9288218Y-18990984D01*
X9240599Y-18781460D02*
X9192980Y-18924317D01*
X9192980Y-18924317D02*
X9316789Y-18924317D01*
X9373932Y-18790984D02*
X9497741Y-18790984D01*
X9497741Y-18790984D02*
X9431075Y-18867174D01*
X9431075Y-18867174D02*
X9459646Y-18867174D01*
X9459646Y-18867174D02*
X9478694Y-18876698D01*
X9478694Y-18876698D02*
X9488218Y-18886222D01*
X9488218Y-18886222D02*
X9497741Y-18905270D01*
X9497741Y-18905270D02*
X9497741Y-18952889D01*
X9497741Y-18952889D02*
X9488218Y-18971936D01*
X9488218Y-18971936D02*
X9478694Y-18981460D01*
X9478694Y-18981460D02*
X9459646Y-18990984D01*
X9459646Y-18990984D02*
X9402503Y-18990984D01*
X9402503Y-18990984D02*
X9383456Y-18981460D01*
X9383456Y-18981460D02*
X9373932Y-18971936D01*
X9735837Y-18990984D02*
X9735837Y-18790984D01*
X9821551Y-18990984D02*
X9821551Y-18886222D01*
X9821551Y-18886222D02*
X9812027Y-18867174D01*
X9812027Y-18867174D02*
X9792980Y-18857650D01*
X9792980Y-18857650D02*
X9764408Y-18857650D01*
X9764408Y-18857650D02*
X9745361Y-18867174D01*
X9745361Y-18867174D02*
X9735837Y-18876698D01*
X9945361Y-18990984D02*
X9926313Y-18981460D01*
X9926313Y-18981460D02*
X9916789Y-18971936D01*
X9916789Y-18971936D02*
X9907265Y-18952889D01*
X9907265Y-18952889D02*
X9907265Y-18895746D01*
X9907265Y-18895746D02*
X9916789Y-18876698D01*
X9916789Y-18876698D02*
X9926313Y-18867174D01*
X9926313Y-18867174D02*
X9945361Y-18857650D01*
X9945361Y-18857650D02*
X9973932Y-18857650D01*
X9973932Y-18857650D02*
X9992980Y-18867174D01*
X9992980Y-18867174D02*
X10002503Y-18876698D01*
X10002503Y-18876698D02*
X10012027Y-18895746D01*
X10012027Y-18895746D02*
X10012027Y-18952889D01*
X10012027Y-18952889D02*
X10002503Y-18971936D01*
X10002503Y-18971936D02*
X9992980Y-18981460D01*
X9992980Y-18981460D02*
X9973932Y-18990984D01*
X9973932Y-18990984D02*
X9945361Y-18990984D01*
X10126313Y-18990984D02*
X10107265Y-18981460D01*
X10107265Y-18981460D02*
X10097742Y-18962412D01*
X10097742Y-18962412D02*
X10097742Y-18790984D01*
X10278694Y-18981460D02*
X10259646Y-18990984D01*
X10259646Y-18990984D02*
X10221551Y-18990984D01*
X10221551Y-18990984D02*
X10202503Y-18981460D01*
X10202503Y-18981460D02*
X10192980Y-18962412D01*
X10192980Y-18962412D02*
X10192980Y-18886222D01*
X10192980Y-18886222D02*
X10202503Y-18867174D01*
X10202503Y-18867174D02*
X10221551Y-18857650D01*
X10221551Y-18857650D02*
X10259646Y-18857650D01*
X10259646Y-18857650D02*
X10278694Y-18867174D01*
X10278694Y-18867174D02*
X10288218Y-18886222D01*
X10288218Y-18886222D02*
X10288218Y-18905270D01*
X10288218Y-18905270D02*
X10192980Y-18924317D01*
X10364408Y-18981460D02*
X10383456Y-18990984D01*
X10383456Y-18990984D02*
X10421551Y-18990984D01*
X10421551Y-18990984D02*
X10440599Y-18981460D01*
X10440599Y-18981460D02*
X10450123Y-18962412D01*
X10450123Y-18962412D02*
X10450123Y-18952889D01*
X10450123Y-18952889D02*
X10440599Y-18933841D01*
X10440599Y-18933841D02*
X10421551Y-18924317D01*
X10421551Y-18924317D02*
X10392980Y-18924317D01*
X10392980Y-18924317D02*
X10373932Y-18914793D01*
X10373932Y-18914793D02*
X10364408Y-18895746D01*
X10364408Y-18895746D02*
X10364408Y-18886222D01*
X10364408Y-18886222D02*
X10373932Y-18867174D01*
X10373932Y-18867174D02*
X10392980Y-18857650D01*
X10392980Y-18857650D02*
X10421551Y-18857650D01*
X10421551Y-18857650D02*
X10440599Y-18867174D01*
X10516789Y-19067174D02*
X10526313Y-19057650D01*
X10526313Y-19057650D02*
X10545361Y-19029079D01*
X10545361Y-19029079D02*
X10554884Y-19010031D01*
X10554884Y-19010031D02*
X10564408Y-18981460D01*
X10564408Y-18981460D02*
X10573932Y-18933841D01*
X10573932Y-18933841D02*
X10573932Y-18895746D01*
X10573932Y-18895746D02*
X10564408Y-18848127D01*
X10564408Y-18848127D02*
X10554884Y-18819555D01*
X10554884Y-18819555D02*
X10545361Y-18800508D01*
X10545361Y-18800508D02*
X10526313Y-18771936D01*
X10526313Y-18771936D02*
X10516789Y-18762412D01*
D15*
X5477750Y-19237000D02*
X5551250Y-19163500D01*
X5477750Y-19090000D01*
X5404250Y-19163500D01*
X5477750Y-19237000D01*
D11*
X5916789Y-19254984D02*
X5802503Y-19254984D01*
X5859646Y-19254984D02*
X5859646Y-19054984D01*
X5859646Y-19054984D02*
X5840598Y-19083555D01*
X5840598Y-19083555D02*
X5821551Y-19102603D01*
X5821551Y-19102603D02*
X5802503Y-19112127D01*
X6002503Y-19235936D02*
X6012027Y-19245460D01*
X6012027Y-19245460D02*
X6002503Y-19254984D01*
X6002503Y-19254984D02*
X5992979Y-19245460D01*
X5992979Y-19245460D02*
X6002503Y-19235936D01*
X6002503Y-19235936D02*
X6002503Y-19254984D01*
X6183455Y-19121650D02*
X6183455Y-19254984D01*
X6135836Y-19045460D02*
X6088217Y-19188317D01*
X6088217Y-19188317D02*
X6212027Y-19188317D01*
X6269170Y-19054984D02*
X6402503Y-19054984D01*
X6402503Y-19054984D02*
X6316789Y-19254984D01*
X6516789Y-19054984D02*
X6535836Y-19054984D01*
X6535836Y-19054984D02*
X6554884Y-19064508D01*
X6554884Y-19064508D02*
X6564408Y-19074031D01*
X6564408Y-19074031D02*
X6573932Y-19093079D01*
X6573932Y-19093079D02*
X6583455Y-19131174D01*
X6583455Y-19131174D02*
X6583455Y-19178793D01*
X6583455Y-19178793D02*
X6573932Y-19216889D01*
X6573932Y-19216889D02*
X6564408Y-19235936D01*
X6564408Y-19235936D02*
X6554884Y-19245460D01*
X6554884Y-19245460D02*
X6535836Y-19254984D01*
X6535836Y-19254984D02*
X6516789Y-19254984D01*
X6516789Y-19254984D02*
X6497741Y-19245460D01*
X6497741Y-19245460D02*
X6488217Y-19235936D01*
X6488217Y-19235936D02*
X6478693Y-19216889D01*
X6478693Y-19216889D02*
X6469170Y-19178793D01*
X6469170Y-19178793D02*
X6469170Y-19131174D01*
X6469170Y-19131174D02*
X6478693Y-19093079D01*
X6478693Y-19093079D02*
X6488217Y-19074031D01*
X6488217Y-19074031D02*
X6497741Y-19064508D01*
X6497741Y-19064508D02*
X6516789Y-19054984D01*
X6669170Y-19254984D02*
X6669170Y-19121650D01*
X6669170Y-19140698D02*
X6678693Y-19131174D01*
X6678693Y-19131174D02*
X6697741Y-19121650D01*
X6697741Y-19121650D02*
X6726313Y-19121650D01*
X6726313Y-19121650D02*
X6745360Y-19131174D01*
X6745360Y-19131174D02*
X6754884Y-19150222D01*
X6754884Y-19150222D02*
X6754884Y-19254984D01*
X6754884Y-19150222D02*
X6764408Y-19131174D01*
X6764408Y-19131174D02*
X6783455Y-19121650D01*
X6783455Y-19121650D02*
X6812027Y-19121650D01*
X6812027Y-19121650D02*
X6831074Y-19131174D01*
X6831074Y-19131174D02*
X6840598Y-19150222D01*
X6840598Y-19150222D02*
X6840598Y-19254984D01*
X6935836Y-19254984D02*
X6935836Y-19121650D01*
X6935836Y-19140698D02*
X6945360Y-19131174D01*
X6945360Y-19131174D02*
X6964408Y-19121650D01*
X6964408Y-19121650D02*
X6992979Y-19121650D01*
X6992979Y-19121650D02*
X7012027Y-19131174D01*
X7012027Y-19131174D02*
X7021551Y-19150222D01*
X7021551Y-19150222D02*
X7021551Y-19254984D01*
X7021551Y-19150222D02*
X7031074Y-19131174D01*
X7031074Y-19131174D02*
X7050122Y-19121650D01*
X7050122Y-19121650D02*
X7078693Y-19121650D01*
X7078693Y-19121650D02*
X7097741Y-19131174D01*
X7097741Y-19131174D02*
X7107265Y-19150222D01*
X7107265Y-19150222D02*
X7107265Y-19254984D01*
X7497741Y-19045460D02*
X7326313Y-19302603D01*
X7754884Y-19054984D02*
X7773932Y-19054984D01*
X7773932Y-19054984D02*
X7792979Y-19064508D01*
X7792979Y-19064508D02*
X7802503Y-19074031D01*
X7802503Y-19074031D02*
X7812027Y-19093079D01*
X7812027Y-19093079D02*
X7821551Y-19131174D01*
X7821551Y-19131174D02*
X7821551Y-19178793D01*
X7821551Y-19178793D02*
X7812027Y-19216889D01*
X7812027Y-19216889D02*
X7802503Y-19235936D01*
X7802503Y-19235936D02*
X7792979Y-19245460D01*
X7792979Y-19245460D02*
X7773932Y-19254984D01*
X7773932Y-19254984D02*
X7754884Y-19254984D01*
X7754884Y-19254984D02*
X7735836Y-19245460D01*
X7735836Y-19245460D02*
X7726313Y-19235936D01*
X7726313Y-19235936D02*
X7716789Y-19216889D01*
X7716789Y-19216889D02*
X7707265Y-19178793D01*
X7707265Y-19178793D02*
X7707265Y-19131174D01*
X7707265Y-19131174D02*
X7716789Y-19093079D01*
X7716789Y-19093079D02*
X7726313Y-19074031D01*
X7726313Y-19074031D02*
X7735836Y-19064508D01*
X7735836Y-19064508D02*
X7754884Y-19054984D01*
X7907265Y-19235936D02*
X7916789Y-19245460D01*
X7916789Y-19245460D02*
X7907265Y-19254984D01*
X7907265Y-19254984D02*
X7897741Y-19245460D01*
X7897741Y-19245460D02*
X7907265Y-19235936D01*
X7907265Y-19235936D02*
X7907265Y-19254984D01*
X8040598Y-19054984D02*
X8059646Y-19054984D01*
X8059646Y-19054984D02*
X8078694Y-19064508D01*
X8078694Y-19064508D02*
X8088217Y-19074031D01*
X8088217Y-19074031D02*
X8097741Y-19093079D01*
X8097741Y-19093079D02*
X8107265Y-19131174D01*
X8107265Y-19131174D02*
X8107265Y-19178793D01*
X8107265Y-19178793D02*
X8097741Y-19216889D01*
X8097741Y-19216889D02*
X8088217Y-19235936D01*
X8088217Y-19235936D02*
X8078694Y-19245460D01*
X8078694Y-19245460D02*
X8059646Y-19254984D01*
X8059646Y-19254984D02*
X8040598Y-19254984D01*
X8040598Y-19254984D02*
X8021551Y-19245460D01*
X8021551Y-19245460D02*
X8012027Y-19235936D01*
X8012027Y-19235936D02*
X8002503Y-19216889D01*
X8002503Y-19216889D02*
X7992979Y-19178793D01*
X7992979Y-19178793D02*
X7992979Y-19131174D01*
X7992979Y-19131174D02*
X8002503Y-19093079D01*
X8002503Y-19093079D02*
X8012027Y-19074031D01*
X8012027Y-19074031D02*
X8021551Y-19064508D01*
X8021551Y-19064508D02*
X8040598Y-19054984D01*
X8288217Y-19054984D02*
X8192979Y-19054984D01*
X8192979Y-19054984D02*
X8183456Y-19150222D01*
X8183456Y-19150222D02*
X8192979Y-19140698D01*
X8192979Y-19140698D02*
X8212027Y-19131174D01*
X8212027Y-19131174D02*
X8259646Y-19131174D01*
X8259646Y-19131174D02*
X8278694Y-19140698D01*
X8278694Y-19140698D02*
X8288217Y-19150222D01*
X8288217Y-19150222D02*
X8297741Y-19169270D01*
X8297741Y-19169270D02*
X8297741Y-19216889D01*
X8297741Y-19216889D02*
X8288217Y-19235936D01*
X8288217Y-19235936D02*
X8278694Y-19245460D01*
X8278694Y-19245460D02*
X8259646Y-19254984D01*
X8259646Y-19254984D02*
X8212027Y-19254984D01*
X8212027Y-19254984D02*
X8192979Y-19245460D01*
X8192979Y-19245460D02*
X8183456Y-19235936D01*
X8364408Y-19054984D02*
X8497741Y-19054984D01*
X8497741Y-19054984D02*
X8412027Y-19254984D01*
X8583456Y-19254984D02*
X8621551Y-19254984D01*
X8621551Y-19254984D02*
X8640599Y-19245460D01*
X8640599Y-19245460D02*
X8650122Y-19235936D01*
X8650122Y-19235936D02*
X8669170Y-19207365D01*
X8669170Y-19207365D02*
X8678694Y-19169270D01*
X8678694Y-19169270D02*
X8678694Y-19093079D01*
X8678694Y-19093079D02*
X8669170Y-19074031D01*
X8669170Y-19074031D02*
X8659646Y-19064508D01*
X8659646Y-19064508D02*
X8640599Y-19054984D01*
X8640599Y-19054984D02*
X8602503Y-19054984D01*
X8602503Y-19054984D02*
X8583456Y-19064508D01*
X8583456Y-19064508D02*
X8573932Y-19074031D01*
X8573932Y-19074031D02*
X8564408Y-19093079D01*
X8564408Y-19093079D02*
X8564408Y-19140698D01*
X8564408Y-19140698D02*
X8573932Y-19159746D01*
X8573932Y-19159746D02*
X8583456Y-19169270D01*
X8583456Y-19169270D02*
X8602503Y-19178793D01*
X8602503Y-19178793D02*
X8640599Y-19178793D01*
X8640599Y-19178793D02*
X8659646Y-19169270D01*
X8659646Y-19169270D02*
X8669170Y-19159746D01*
X8669170Y-19159746D02*
X8678694Y-19140698D01*
X8754884Y-19054984D02*
X8754884Y-19093079D01*
X8831075Y-19054984D02*
X8831075Y-19093079D01*
X9126313Y-19331174D02*
X9116789Y-19321650D01*
X9116789Y-19321650D02*
X9097741Y-19293079D01*
X9097741Y-19293079D02*
X9088218Y-19274031D01*
X9088218Y-19274031D02*
X9078694Y-19245460D01*
X9078694Y-19245460D02*
X9069170Y-19197841D01*
X9069170Y-19197841D02*
X9069170Y-19159746D01*
X9069170Y-19159746D02*
X9078694Y-19112127D01*
X9078694Y-19112127D02*
X9088218Y-19083555D01*
X9088218Y-19083555D02*
X9097741Y-19064508D01*
X9097741Y-19064508D02*
X9116789Y-19035936D01*
X9116789Y-19035936D02*
X9126313Y-19026412D01*
X9192980Y-19074031D02*
X9202503Y-19064508D01*
X9202503Y-19064508D02*
X9221551Y-19054984D01*
X9221551Y-19054984D02*
X9269170Y-19054984D01*
X9269170Y-19054984D02*
X9288218Y-19064508D01*
X9288218Y-19064508D02*
X9297741Y-19074031D01*
X9297741Y-19074031D02*
X9307265Y-19093079D01*
X9307265Y-19093079D02*
X9307265Y-19112127D01*
X9307265Y-19112127D02*
X9297741Y-19140698D01*
X9297741Y-19140698D02*
X9183456Y-19254984D01*
X9183456Y-19254984D02*
X9307265Y-19254984D01*
X9478694Y-19121650D02*
X9478694Y-19254984D01*
X9431075Y-19045460D02*
X9383456Y-19188317D01*
X9383456Y-19188317D02*
X9507265Y-19188317D01*
X9669170Y-19121650D02*
X9669170Y-19254984D01*
X9621551Y-19045460D02*
X9573932Y-19188317D01*
X9573932Y-19188317D02*
X9697741Y-19188317D01*
X9926313Y-19254984D02*
X9926313Y-19054984D01*
X10012027Y-19254984D02*
X10012027Y-19150222D01*
X10012027Y-19150222D02*
X10002503Y-19131174D01*
X10002503Y-19131174D02*
X9983456Y-19121650D01*
X9983456Y-19121650D02*
X9954884Y-19121650D01*
X9954884Y-19121650D02*
X9935837Y-19131174D01*
X9935837Y-19131174D02*
X9926313Y-19140698D01*
X10135837Y-19254984D02*
X10116789Y-19245460D01*
X10116789Y-19245460D02*
X10107265Y-19235936D01*
X10107265Y-19235936D02*
X10097742Y-19216889D01*
X10097742Y-19216889D02*
X10097742Y-19159746D01*
X10097742Y-19159746D02*
X10107265Y-19140698D01*
X10107265Y-19140698D02*
X10116789Y-19131174D01*
X10116789Y-19131174D02*
X10135837Y-19121650D01*
X10135837Y-19121650D02*
X10164408Y-19121650D01*
X10164408Y-19121650D02*
X10183456Y-19131174D01*
X10183456Y-19131174D02*
X10192980Y-19140698D01*
X10192980Y-19140698D02*
X10202503Y-19159746D01*
X10202503Y-19159746D02*
X10202503Y-19216889D01*
X10202503Y-19216889D02*
X10192980Y-19235936D01*
X10192980Y-19235936D02*
X10183456Y-19245460D01*
X10183456Y-19245460D02*
X10164408Y-19254984D01*
X10164408Y-19254984D02*
X10135837Y-19254984D01*
X10316789Y-19254984D02*
X10297742Y-19245460D01*
X10297742Y-19245460D02*
X10288218Y-19226412D01*
X10288218Y-19226412D02*
X10288218Y-19054984D01*
X10469170Y-19245460D02*
X10450123Y-19254984D01*
X10450123Y-19254984D02*
X10412027Y-19254984D01*
X10412027Y-19254984D02*
X10392980Y-19245460D01*
X10392980Y-19245460D02*
X10383456Y-19226412D01*
X10383456Y-19226412D02*
X10383456Y-19150222D01*
X10383456Y-19150222D02*
X10392980Y-19131174D01*
X10392980Y-19131174D02*
X10412027Y-19121650D01*
X10412027Y-19121650D02*
X10450123Y-19121650D01*
X10450123Y-19121650D02*
X10469170Y-19131174D01*
X10469170Y-19131174D02*
X10478694Y-19150222D01*
X10478694Y-19150222D02*
X10478694Y-19169270D01*
X10478694Y-19169270D02*
X10383456Y-19188317D01*
X10554884Y-19245460D02*
X10573932Y-19254984D01*
X10573932Y-19254984D02*
X10612027Y-19254984D01*
X10612027Y-19254984D02*
X10631075Y-19245460D01*
X10631075Y-19245460D02*
X10640599Y-19226412D01*
X10640599Y-19226412D02*
X10640599Y-19216889D01*
X10640599Y-19216889D02*
X10631075Y-19197841D01*
X10631075Y-19197841D02*
X10612027Y-19188317D01*
X10612027Y-19188317D02*
X10583456Y-19188317D01*
X10583456Y-19188317D02*
X10564408Y-19178793D01*
X10564408Y-19178793D02*
X10554884Y-19159746D01*
X10554884Y-19159746D02*
X10554884Y-19150222D01*
X10554884Y-19150222D02*
X10564408Y-19131174D01*
X10564408Y-19131174D02*
X10583456Y-19121650D01*
X10583456Y-19121650D02*
X10612027Y-19121650D01*
X10612027Y-19121650D02*
X10631075Y-19131174D01*
X10707265Y-19331174D02*
X10716789Y-19321650D01*
X10716789Y-19321650D02*
X10735837Y-19293079D01*
X10735837Y-19293079D02*
X10745361Y-19274031D01*
X10745361Y-19274031D02*
X10754884Y-19245460D01*
X10754884Y-19245460D02*
X10764408Y-19197841D01*
X10764408Y-19197841D02*
X10764408Y-19159746D01*
X10764408Y-19159746D02*
X10754884Y-19112127D01*
X10754884Y-19112127D02*
X10745361Y-19083555D01*
X10745361Y-19083555D02*
X10735837Y-19064508D01*
X10735837Y-19064508D02*
X10716789Y-19035936D01*
X10716789Y-19035936D02*
X10707265Y-19026412D01*
D16*
X5401250Y-19355500D02*
X5551250Y-19505500D01*
X5551250Y-19355500D02*
X5401250Y-19505500D01*
X5551250Y-19430500D02*
G75*
G03*
X5551250Y-19430500I-75000J0D01*
G01*
D11*
X5916789Y-19521984D02*
X5802503Y-19521984D01*
X5859646Y-19521984D02*
X5859646Y-19321984D01*
X5859646Y-19321984D02*
X5840598Y-19350555D01*
X5840598Y-19350555D02*
X5821551Y-19369603D01*
X5821551Y-19369603D02*
X5802503Y-19379127D01*
X6002503Y-19502936D02*
X6012027Y-19512460D01*
X6012027Y-19512460D02*
X6002503Y-19521984D01*
X6002503Y-19521984D02*
X5992979Y-19512460D01*
X5992979Y-19512460D02*
X6002503Y-19502936D01*
X6002503Y-19502936D02*
X6002503Y-19521984D01*
X6192979Y-19321984D02*
X6097741Y-19321984D01*
X6097741Y-19321984D02*
X6088217Y-19417222D01*
X6088217Y-19417222D02*
X6097741Y-19407698D01*
X6097741Y-19407698D02*
X6116789Y-19398174D01*
X6116789Y-19398174D02*
X6164408Y-19398174D01*
X6164408Y-19398174D02*
X6183455Y-19407698D01*
X6183455Y-19407698D02*
X6192979Y-19417222D01*
X6192979Y-19417222D02*
X6202503Y-19436270D01*
X6202503Y-19436270D02*
X6202503Y-19483889D01*
X6202503Y-19483889D02*
X6192979Y-19502936D01*
X6192979Y-19502936D02*
X6183455Y-19512460D01*
X6183455Y-19512460D02*
X6164408Y-19521984D01*
X6164408Y-19521984D02*
X6116789Y-19521984D01*
X6116789Y-19521984D02*
X6097741Y-19512460D01*
X6097741Y-19512460D02*
X6088217Y-19502936D01*
X6326312Y-19321984D02*
X6345360Y-19321984D01*
X6345360Y-19321984D02*
X6364408Y-19331508D01*
X6364408Y-19331508D02*
X6373932Y-19341031D01*
X6373932Y-19341031D02*
X6383455Y-19360079D01*
X6383455Y-19360079D02*
X6392979Y-19398174D01*
X6392979Y-19398174D02*
X6392979Y-19445793D01*
X6392979Y-19445793D02*
X6383455Y-19483889D01*
X6383455Y-19483889D02*
X6373932Y-19502936D01*
X6373932Y-19502936D02*
X6364408Y-19512460D01*
X6364408Y-19512460D02*
X6345360Y-19521984D01*
X6345360Y-19521984D02*
X6326312Y-19521984D01*
X6326312Y-19521984D02*
X6307265Y-19512460D01*
X6307265Y-19512460D02*
X6297741Y-19502936D01*
X6297741Y-19502936D02*
X6288217Y-19483889D01*
X6288217Y-19483889D02*
X6278693Y-19445793D01*
X6278693Y-19445793D02*
X6278693Y-19398174D01*
X6278693Y-19398174D02*
X6288217Y-19360079D01*
X6288217Y-19360079D02*
X6297741Y-19341031D01*
X6297741Y-19341031D02*
X6307265Y-19331508D01*
X6307265Y-19331508D02*
X6326312Y-19321984D01*
X6516789Y-19321984D02*
X6535836Y-19321984D01*
X6535836Y-19321984D02*
X6554884Y-19331508D01*
X6554884Y-19331508D02*
X6564408Y-19341031D01*
X6564408Y-19341031D02*
X6573932Y-19360079D01*
X6573932Y-19360079D02*
X6583455Y-19398174D01*
X6583455Y-19398174D02*
X6583455Y-19445793D01*
X6583455Y-19445793D02*
X6573932Y-19483889D01*
X6573932Y-19483889D02*
X6564408Y-19502936D01*
X6564408Y-19502936D02*
X6554884Y-19512460D01*
X6554884Y-19512460D02*
X6535836Y-19521984D01*
X6535836Y-19521984D02*
X6516789Y-19521984D01*
X6516789Y-19521984D02*
X6497741Y-19512460D01*
X6497741Y-19512460D02*
X6488217Y-19502936D01*
X6488217Y-19502936D02*
X6478693Y-19483889D01*
X6478693Y-19483889D02*
X6469170Y-19445793D01*
X6469170Y-19445793D02*
X6469170Y-19398174D01*
X6469170Y-19398174D02*
X6478693Y-19360079D01*
X6478693Y-19360079D02*
X6488217Y-19341031D01*
X6488217Y-19341031D02*
X6497741Y-19331508D01*
X6497741Y-19331508D02*
X6516789Y-19321984D01*
X6669170Y-19521984D02*
X6669170Y-19388650D01*
X6669170Y-19407698D02*
X6678693Y-19398174D01*
X6678693Y-19398174D02*
X6697741Y-19388650D01*
X6697741Y-19388650D02*
X6726313Y-19388650D01*
X6726313Y-19388650D02*
X6745360Y-19398174D01*
X6745360Y-19398174D02*
X6754884Y-19417222D01*
X6754884Y-19417222D02*
X6754884Y-19521984D01*
X6754884Y-19417222D02*
X6764408Y-19398174D01*
X6764408Y-19398174D02*
X6783455Y-19388650D01*
X6783455Y-19388650D02*
X6812027Y-19388650D01*
X6812027Y-19388650D02*
X6831074Y-19398174D01*
X6831074Y-19398174D02*
X6840598Y-19417222D01*
X6840598Y-19417222D02*
X6840598Y-19521984D01*
X6935836Y-19521984D02*
X6935836Y-19388650D01*
X6935836Y-19407698D02*
X6945360Y-19398174D01*
X6945360Y-19398174D02*
X6964408Y-19388650D01*
X6964408Y-19388650D02*
X6992979Y-19388650D01*
X6992979Y-19388650D02*
X7012027Y-19398174D01*
X7012027Y-19398174D02*
X7021551Y-19417222D01*
X7021551Y-19417222D02*
X7021551Y-19521984D01*
X7021551Y-19417222D02*
X7031074Y-19398174D01*
X7031074Y-19398174D02*
X7050122Y-19388650D01*
X7050122Y-19388650D02*
X7078693Y-19388650D01*
X7078693Y-19388650D02*
X7097741Y-19398174D01*
X7097741Y-19398174D02*
X7107265Y-19417222D01*
X7107265Y-19417222D02*
X7107265Y-19521984D01*
X7497741Y-19312460D02*
X7326313Y-19569603D01*
X7754884Y-19321984D02*
X7773932Y-19321984D01*
X7773932Y-19321984D02*
X7792979Y-19331508D01*
X7792979Y-19331508D02*
X7802503Y-19341031D01*
X7802503Y-19341031D02*
X7812027Y-19360079D01*
X7812027Y-19360079D02*
X7821551Y-19398174D01*
X7821551Y-19398174D02*
X7821551Y-19445793D01*
X7821551Y-19445793D02*
X7812027Y-19483889D01*
X7812027Y-19483889D02*
X7802503Y-19502936D01*
X7802503Y-19502936D02*
X7792979Y-19512460D01*
X7792979Y-19512460D02*
X7773932Y-19521984D01*
X7773932Y-19521984D02*
X7754884Y-19521984D01*
X7754884Y-19521984D02*
X7735836Y-19512460D01*
X7735836Y-19512460D02*
X7726313Y-19502936D01*
X7726313Y-19502936D02*
X7716789Y-19483889D01*
X7716789Y-19483889D02*
X7707265Y-19445793D01*
X7707265Y-19445793D02*
X7707265Y-19398174D01*
X7707265Y-19398174D02*
X7716789Y-19360079D01*
X7716789Y-19360079D02*
X7726313Y-19341031D01*
X7726313Y-19341031D02*
X7735836Y-19331508D01*
X7735836Y-19331508D02*
X7754884Y-19321984D01*
X7907265Y-19502936D02*
X7916789Y-19512460D01*
X7916789Y-19512460D02*
X7907265Y-19521984D01*
X7907265Y-19521984D02*
X7897741Y-19512460D01*
X7897741Y-19512460D02*
X7907265Y-19502936D01*
X7907265Y-19502936D02*
X7907265Y-19521984D01*
X8040598Y-19321984D02*
X8059646Y-19321984D01*
X8059646Y-19321984D02*
X8078694Y-19331508D01*
X8078694Y-19331508D02*
X8088217Y-19341031D01*
X8088217Y-19341031D02*
X8097741Y-19360079D01*
X8097741Y-19360079D02*
X8107265Y-19398174D01*
X8107265Y-19398174D02*
X8107265Y-19445793D01*
X8107265Y-19445793D02*
X8097741Y-19483889D01*
X8097741Y-19483889D02*
X8088217Y-19502936D01*
X8088217Y-19502936D02*
X8078694Y-19512460D01*
X8078694Y-19512460D02*
X8059646Y-19521984D01*
X8059646Y-19521984D02*
X8040598Y-19521984D01*
X8040598Y-19521984D02*
X8021551Y-19512460D01*
X8021551Y-19512460D02*
X8012027Y-19502936D01*
X8012027Y-19502936D02*
X8002503Y-19483889D01*
X8002503Y-19483889D02*
X7992979Y-19445793D01*
X7992979Y-19445793D02*
X7992979Y-19398174D01*
X7992979Y-19398174D02*
X8002503Y-19360079D01*
X8002503Y-19360079D02*
X8012027Y-19341031D01*
X8012027Y-19341031D02*
X8021551Y-19331508D01*
X8021551Y-19331508D02*
X8040598Y-19321984D01*
X8288217Y-19321984D02*
X8192979Y-19321984D01*
X8192979Y-19321984D02*
X8183456Y-19417222D01*
X8183456Y-19417222D02*
X8192979Y-19407698D01*
X8192979Y-19407698D02*
X8212027Y-19398174D01*
X8212027Y-19398174D02*
X8259646Y-19398174D01*
X8259646Y-19398174D02*
X8278694Y-19407698D01*
X8278694Y-19407698D02*
X8288217Y-19417222D01*
X8288217Y-19417222D02*
X8297741Y-19436270D01*
X8297741Y-19436270D02*
X8297741Y-19483889D01*
X8297741Y-19483889D02*
X8288217Y-19502936D01*
X8288217Y-19502936D02*
X8278694Y-19512460D01*
X8278694Y-19512460D02*
X8259646Y-19521984D01*
X8259646Y-19521984D02*
X8212027Y-19521984D01*
X8212027Y-19521984D02*
X8192979Y-19512460D01*
X8192979Y-19512460D02*
X8183456Y-19502936D01*
X8392979Y-19521984D02*
X8431075Y-19521984D01*
X8431075Y-19521984D02*
X8450122Y-19512460D01*
X8450122Y-19512460D02*
X8459646Y-19502936D01*
X8459646Y-19502936D02*
X8478694Y-19474365D01*
X8478694Y-19474365D02*
X8488218Y-19436270D01*
X8488218Y-19436270D02*
X8488218Y-19360079D01*
X8488218Y-19360079D02*
X8478694Y-19341031D01*
X8478694Y-19341031D02*
X8469170Y-19331508D01*
X8469170Y-19331508D02*
X8450122Y-19321984D01*
X8450122Y-19321984D02*
X8412027Y-19321984D01*
X8412027Y-19321984D02*
X8392979Y-19331508D01*
X8392979Y-19331508D02*
X8383456Y-19341031D01*
X8383456Y-19341031D02*
X8373932Y-19360079D01*
X8373932Y-19360079D02*
X8373932Y-19407698D01*
X8373932Y-19407698D02*
X8383456Y-19426746D01*
X8383456Y-19426746D02*
X8392979Y-19436270D01*
X8392979Y-19436270D02*
X8412027Y-19445793D01*
X8412027Y-19445793D02*
X8450122Y-19445793D01*
X8450122Y-19445793D02*
X8469170Y-19436270D01*
X8469170Y-19436270D02*
X8478694Y-19426746D01*
X8478694Y-19426746D02*
X8488218Y-19407698D01*
X8678694Y-19521984D02*
X8564408Y-19521984D01*
X8621551Y-19521984D02*
X8621551Y-19321984D01*
X8621551Y-19321984D02*
X8602503Y-19350555D01*
X8602503Y-19350555D02*
X8583456Y-19369603D01*
X8583456Y-19369603D02*
X8564408Y-19379127D01*
X8754884Y-19321984D02*
X8754884Y-19360079D01*
X8831075Y-19321984D02*
X8831075Y-19360079D01*
X9126313Y-19598174D02*
X9116789Y-19588650D01*
X9116789Y-19588650D02*
X9097741Y-19560079D01*
X9097741Y-19560079D02*
X9088218Y-19541031D01*
X9088218Y-19541031D02*
X9078694Y-19512460D01*
X9078694Y-19512460D02*
X9069170Y-19464841D01*
X9069170Y-19464841D02*
X9069170Y-19426746D01*
X9069170Y-19426746D02*
X9078694Y-19379127D01*
X9078694Y-19379127D02*
X9088218Y-19350555D01*
X9088218Y-19350555D02*
X9097741Y-19331508D01*
X9097741Y-19331508D02*
X9116789Y-19302936D01*
X9116789Y-19302936D02*
X9126313Y-19293412D01*
X9240599Y-19321984D02*
X9259646Y-19321984D01*
X9259646Y-19321984D02*
X9278694Y-19331508D01*
X9278694Y-19331508D02*
X9288218Y-19341031D01*
X9288218Y-19341031D02*
X9297741Y-19360079D01*
X9297741Y-19360079D02*
X9307265Y-19398174D01*
X9307265Y-19398174D02*
X9307265Y-19445793D01*
X9307265Y-19445793D02*
X9297741Y-19483889D01*
X9297741Y-19483889D02*
X9288218Y-19502936D01*
X9288218Y-19502936D02*
X9278694Y-19512460D01*
X9278694Y-19512460D02*
X9259646Y-19521984D01*
X9259646Y-19521984D02*
X9240599Y-19521984D01*
X9240599Y-19521984D02*
X9221551Y-19512460D01*
X9221551Y-19512460D02*
X9212027Y-19502936D01*
X9212027Y-19502936D02*
X9202503Y-19483889D01*
X9202503Y-19483889D02*
X9192980Y-19445793D01*
X9192980Y-19445793D02*
X9192980Y-19398174D01*
X9192980Y-19398174D02*
X9202503Y-19360079D01*
X9202503Y-19360079D02*
X9212027Y-19341031D01*
X9212027Y-19341031D02*
X9221551Y-19331508D01*
X9221551Y-19331508D02*
X9240599Y-19321984D01*
X9545361Y-19521984D02*
X9545361Y-19321984D01*
X9631075Y-19521984D02*
X9631075Y-19417222D01*
X9631075Y-19417222D02*
X9621551Y-19398174D01*
X9621551Y-19398174D02*
X9602503Y-19388650D01*
X9602503Y-19388650D02*
X9573932Y-19388650D01*
X9573932Y-19388650D02*
X9554884Y-19398174D01*
X9554884Y-19398174D02*
X9545361Y-19407698D01*
X9754884Y-19521984D02*
X9735837Y-19512460D01*
X9735837Y-19512460D02*
X9726313Y-19502936D01*
X9726313Y-19502936D02*
X9716789Y-19483889D01*
X9716789Y-19483889D02*
X9716789Y-19426746D01*
X9716789Y-19426746D02*
X9726313Y-19407698D01*
X9726313Y-19407698D02*
X9735837Y-19398174D01*
X9735837Y-19398174D02*
X9754884Y-19388650D01*
X9754884Y-19388650D02*
X9783456Y-19388650D01*
X9783456Y-19388650D02*
X9802503Y-19398174D01*
X9802503Y-19398174D02*
X9812027Y-19407698D01*
X9812027Y-19407698D02*
X9821551Y-19426746D01*
X9821551Y-19426746D02*
X9821551Y-19483889D01*
X9821551Y-19483889D02*
X9812027Y-19502936D01*
X9812027Y-19502936D02*
X9802503Y-19512460D01*
X9802503Y-19512460D02*
X9783456Y-19521984D01*
X9783456Y-19521984D02*
X9754884Y-19521984D01*
X9935837Y-19521984D02*
X9916789Y-19512460D01*
X9916789Y-19512460D02*
X9907265Y-19493412D01*
X9907265Y-19493412D02*
X9907265Y-19321984D01*
X10088218Y-19512460D02*
X10069170Y-19521984D01*
X10069170Y-19521984D02*
X10031075Y-19521984D01*
X10031075Y-19521984D02*
X10012027Y-19512460D01*
X10012027Y-19512460D02*
X10002503Y-19493412D01*
X10002503Y-19493412D02*
X10002503Y-19417222D01*
X10002503Y-19417222D02*
X10012027Y-19398174D01*
X10012027Y-19398174D02*
X10031075Y-19388650D01*
X10031075Y-19388650D02*
X10069170Y-19388650D01*
X10069170Y-19388650D02*
X10088218Y-19398174D01*
X10088218Y-19398174D02*
X10097742Y-19417222D01*
X10097742Y-19417222D02*
X10097742Y-19436270D01*
X10097742Y-19436270D02*
X10002503Y-19455317D01*
X10173932Y-19512460D02*
X10192980Y-19521984D01*
X10192980Y-19521984D02*
X10231075Y-19521984D01*
X10231075Y-19521984D02*
X10250123Y-19512460D01*
X10250123Y-19512460D02*
X10259646Y-19493412D01*
X10259646Y-19493412D02*
X10259646Y-19483889D01*
X10259646Y-19483889D02*
X10250123Y-19464841D01*
X10250123Y-19464841D02*
X10231075Y-19455317D01*
X10231075Y-19455317D02*
X10202503Y-19455317D01*
X10202503Y-19455317D02*
X10183456Y-19445793D01*
X10183456Y-19445793D02*
X10173932Y-19426746D01*
X10173932Y-19426746D02*
X10173932Y-19417222D01*
X10173932Y-19417222D02*
X10183456Y-19398174D01*
X10183456Y-19398174D02*
X10202503Y-19388650D01*
X10202503Y-19388650D02*
X10231075Y-19388650D01*
X10231075Y-19388650D02*
X10250123Y-19398174D01*
X10497742Y-19445793D02*
X10650123Y-19445793D01*
X10573932Y-19521984D02*
X10573932Y-19369603D01*
X10983456Y-19321984D02*
X10945361Y-19321984D01*
X10945361Y-19321984D02*
X10926313Y-19331508D01*
X10926313Y-19331508D02*
X10916789Y-19341031D01*
X10916789Y-19341031D02*
X10897742Y-19369603D01*
X10897742Y-19369603D02*
X10888218Y-19407698D01*
X10888218Y-19407698D02*
X10888218Y-19483889D01*
X10888218Y-19483889D02*
X10897742Y-19502936D01*
X10897742Y-19502936D02*
X10907265Y-19512460D01*
X10907265Y-19512460D02*
X10926313Y-19521984D01*
X10926313Y-19521984D02*
X10964408Y-19521984D01*
X10964408Y-19521984D02*
X10983456Y-19512460D01*
X10983456Y-19512460D02*
X10992980Y-19502936D01*
X10992980Y-19502936D02*
X11002504Y-19483889D01*
X11002504Y-19483889D02*
X11002504Y-19436270D01*
X11002504Y-19436270D02*
X10992980Y-19417222D01*
X10992980Y-19417222D02*
X10983456Y-19407698D01*
X10983456Y-19407698D02*
X10964408Y-19398174D01*
X10964408Y-19398174D02*
X10926313Y-19398174D01*
X10926313Y-19398174D02*
X10907265Y-19407698D01*
X10907265Y-19407698D02*
X10897742Y-19417222D01*
X10897742Y-19417222D02*
X10888218Y-19436270D01*
X11231075Y-19512460D02*
X11250123Y-19521984D01*
X11250123Y-19521984D02*
X11288218Y-19521984D01*
X11288218Y-19521984D02*
X11307265Y-19512460D01*
X11307265Y-19512460D02*
X11316789Y-19493412D01*
X11316789Y-19493412D02*
X11316789Y-19483889D01*
X11316789Y-19483889D02*
X11307265Y-19464841D01*
X11307265Y-19464841D02*
X11288218Y-19455317D01*
X11288218Y-19455317D02*
X11259646Y-19455317D01*
X11259646Y-19455317D02*
X11240599Y-19445793D01*
X11240599Y-19445793D02*
X11231075Y-19426746D01*
X11231075Y-19426746D02*
X11231075Y-19417222D01*
X11231075Y-19417222D02*
X11240599Y-19398174D01*
X11240599Y-19398174D02*
X11259646Y-19388650D01*
X11259646Y-19388650D02*
X11288218Y-19388650D01*
X11288218Y-19388650D02*
X11307265Y-19398174D01*
X11431075Y-19521984D02*
X11412027Y-19512460D01*
X11412027Y-19512460D02*
X11402504Y-19493412D01*
X11402504Y-19493412D02*
X11402504Y-19321984D01*
X11535837Y-19521984D02*
X11516789Y-19512460D01*
X11516789Y-19512460D02*
X11507265Y-19502936D01*
X11507265Y-19502936D02*
X11497742Y-19483889D01*
X11497742Y-19483889D02*
X11497742Y-19426746D01*
X11497742Y-19426746D02*
X11507265Y-19407698D01*
X11507265Y-19407698D02*
X11516789Y-19398174D01*
X11516789Y-19398174D02*
X11535837Y-19388650D01*
X11535837Y-19388650D02*
X11564408Y-19388650D01*
X11564408Y-19388650D02*
X11583456Y-19398174D01*
X11583456Y-19398174D02*
X11592980Y-19407698D01*
X11592980Y-19407698D02*
X11602504Y-19426746D01*
X11602504Y-19426746D02*
X11602504Y-19483889D01*
X11602504Y-19483889D02*
X11592980Y-19502936D01*
X11592980Y-19502936D02*
X11583456Y-19512460D01*
X11583456Y-19512460D02*
X11564408Y-19521984D01*
X11564408Y-19521984D02*
X11535837Y-19521984D01*
X11659646Y-19388650D02*
X11735837Y-19388650D01*
X11688218Y-19321984D02*
X11688218Y-19493412D01*
X11688218Y-19493412D02*
X11697742Y-19512460D01*
X11697742Y-19512460D02*
X11716789Y-19521984D01*
X11716789Y-19521984D02*
X11735837Y-19521984D01*
X11792980Y-19512460D02*
X11812027Y-19521984D01*
X11812027Y-19521984D02*
X11850123Y-19521984D01*
X11850123Y-19521984D02*
X11869170Y-19512460D01*
X11869170Y-19512460D02*
X11878694Y-19493412D01*
X11878694Y-19493412D02*
X11878694Y-19483889D01*
X11878694Y-19483889D02*
X11869170Y-19464841D01*
X11869170Y-19464841D02*
X11850123Y-19455317D01*
X11850123Y-19455317D02*
X11821551Y-19455317D01*
X11821551Y-19455317D02*
X11802504Y-19445793D01*
X11802504Y-19445793D02*
X11792980Y-19426746D01*
X11792980Y-19426746D02*
X11792980Y-19417222D01*
X11792980Y-19417222D02*
X11802504Y-19398174D01*
X11802504Y-19398174D02*
X11821551Y-19388650D01*
X11821551Y-19388650D02*
X11850123Y-19388650D01*
X11850123Y-19388650D02*
X11869170Y-19398174D01*
X11945361Y-19598174D02*
X11954885Y-19588650D01*
X11954885Y-19588650D02*
X11973932Y-19560079D01*
X11973932Y-19560079D02*
X11983456Y-19541031D01*
X11983456Y-19541031D02*
X11992980Y-19512460D01*
X11992980Y-19512460D02*
X12002504Y-19464841D01*
X12002504Y-19464841D02*
X12002504Y-19426746D01*
X12002504Y-19426746D02*
X11992980Y-19379127D01*
X11992980Y-19379127D02*
X11983456Y-19350555D01*
X11983456Y-19350555D02*
X11973932Y-19331508D01*
X11973932Y-19331508D02*
X11954885Y-19302936D01*
X11954885Y-19302936D02*
X11945361Y-19293412D01*
X5351250Y-19600500D02*
X5551250Y-19800500D01*
X5551250Y-19600500D02*
X5351250Y-19800500D01*
X5451250Y-19600500D02*
X5451250Y-19800500D01*
X5351250Y-19700500D02*
X5551250Y-19700500D01*
X5802503Y-19611031D02*
X5812027Y-19601508D01*
X5812027Y-19601508D02*
X5831074Y-19591984D01*
X5831074Y-19591984D02*
X5878693Y-19591984D01*
X5878693Y-19591984D02*
X5897741Y-19601508D01*
X5897741Y-19601508D02*
X5907265Y-19611031D01*
X5907265Y-19611031D02*
X5916789Y-19630079D01*
X5916789Y-19630079D02*
X5916789Y-19649127D01*
X5916789Y-19649127D02*
X5907265Y-19677698D01*
X5907265Y-19677698D02*
X5792979Y-19791984D01*
X5792979Y-19791984D02*
X5916789Y-19791984D01*
X6002503Y-19772936D02*
X6012027Y-19782460D01*
X6012027Y-19782460D02*
X6002503Y-19791984D01*
X6002503Y-19791984D02*
X5992979Y-19782460D01*
X5992979Y-19782460D02*
X6002503Y-19772936D01*
X6002503Y-19772936D02*
X6002503Y-19791984D01*
X6192979Y-19591984D02*
X6097741Y-19591984D01*
X6097741Y-19591984D02*
X6088217Y-19687222D01*
X6088217Y-19687222D02*
X6097741Y-19677698D01*
X6097741Y-19677698D02*
X6116789Y-19668174D01*
X6116789Y-19668174D02*
X6164408Y-19668174D01*
X6164408Y-19668174D02*
X6183455Y-19677698D01*
X6183455Y-19677698D02*
X6192979Y-19687222D01*
X6192979Y-19687222D02*
X6202503Y-19706270D01*
X6202503Y-19706270D02*
X6202503Y-19753889D01*
X6202503Y-19753889D02*
X6192979Y-19772936D01*
X6192979Y-19772936D02*
X6183455Y-19782460D01*
X6183455Y-19782460D02*
X6164408Y-19791984D01*
X6164408Y-19791984D02*
X6116789Y-19791984D01*
X6116789Y-19791984D02*
X6097741Y-19782460D01*
X6097741Y-19782460D02*
X6088217Y-19772936D01*
X6326312Y-19591984D02*
X6345360Y-19591984D01*
X6345360Y-19591984D02*
X6364408Y-19601508D01*
X6364408Y-19601508D02*
X6373932Y-19611031D01*
X6373932Y-19611031D02*
X6383455Y-19630079D01*
X6383455Y-19630079D02*
X6392979Y-19668174D01*
X6392979Y-19668174D02*
X6392979Y-19715793D01*
X6392979Y-19715793D02*
X6383455Y-19753889D01*
X6383455Y-19753889D02*
X6373932Y-19772936D01*
X6373932Y-19772936D02*
X6364408Y-19782460D01*
X6364408Y-19782460D02*
X6345360Y-19791984D01*
X6345360Y-19791984D02*
X6326312Y-19791984D01*
X6326312Y-19791984D02*
X6307265Y-19782460D01*
X6307265Y-19782460D02*
X6297741Y-19772936D01*
X6297741Y-19772936D02*
X6288217Y-19753889D01*
X6288217Y-19753889D02*
X6278693Y-19715793D01*
X6278693Y-19715793D02*
X6278693Y-19668174D01*
X6278693Y-19668174D02*
X6288217Y-19630079D01*
X6288217Y-19630079D02*
X6297741Y-19611031D01*
X6297741Y-19611031D02*
X6307265Y-19601508D01*
X6307265Y-19601508D02*
X6326312Y-19591984D01*
X6516789Y-19591984D02*
X6535836Y-19591984D01*
X6535836Y-19591984D02*
X6554884Y-19601508D01*
X6554884Y-19601508D02*
X6564408Y-19611031D01*
X6564408Y-19611031D02*
X6573932Y-19630079D01*
X6573932Y-19630079D02*
X6583455Y-19668174D01*
X6583455Y-19668174D02*
X6583455Y-19715793D01*
X6583455Y-19715793D02*
X6573932Y-19753889D01*
X6573932Y-19753889D02*
X6564408Y-19772936D01*
X6564408Y-19772936D02*
X6554884Y-19782460D01*
X6554884Y-19782460D02*
X6535836Y-19791984D01*
X6535836Y-19791984D02*
X6516789Y-19791984D01*
X6516789Y-19791984D02*
X6497741Y-19782460D01*
X6497741Y-19782460D02*
X6488217Y-19772936D01*
X6488217Y-19772936D02*
X6478693Y-19753889D01*
X6478693Y-19753889D02*
X6469170Y-19715793D01*
X6469170Y-19715793D02*
X6469170Y-19668174D01*
X6469170Y-19668174D02*
X6478693Y-19630079D01*
X6478693Y-19630079D02*
X6488217Y-19611031D01*
X6488217Y-19611031D02*
X6497741Y-19601508D01*
X6497741Y-19601508D02*
X6516789Y-19591984D01*
X6669170Y-19791984D02*
X6669170Y-19658650D01*
X6669170Y-19677698D02*
X6678693Y-19668174D01*
X6678693Y-19668174D02*
X6697741Y-19658650D01*
X6697741Y-19658650D02*
X6726313Y-19658650D01*
X6726313Y-19658650D02*
X6745360Y-19668174D01*
X6745360Y-19668174D02*
X6754884Y-19687222D01*
X6754884Y-19687222D02*
X6754884Y-19791984D01*
X6754884Y-19687222D02*
X6764408Y-19668174D01*
X6764408Y-19668174D02*
X6783455Y-19658650D01*
X6783455Y-19658650D02*
X6812027Y-19658650D01*
X6812027Y-19658650D02*
X6831074Y-19668174D01*
X6831074Y-19668174D02*
X6840598Y-19687222D01*
X6840598Y-19687222D02*
X6840598Y-19791984D01*
X6935836Y-19791984D02*
X6935836Y-19658650D01*
X6935836Y-19677698D02*
X6945360Y-19668174D01*
X6945360Y-19668174D02*
X6964408Y-19658650D01*
X6964408Y-19658650D02*
X6992979Y-19658650D01*
X6992979Y-19658650D02*
X7012027Y-19668174D01*
X7012027Y-19668174D02*
X7021551Y-19687222D01*
X7021551Y-19687222D02*
X7021551Y-19791984D01*
X7021551Y-19687222D02*
X7031074Y-19668174D01*
X7031074Y-19668174D02*
X7050122Y-19658650D01*
X7050122Y-19658650D02*
X7078693Y-19658650D01*
X7078693Y-19658650D02*
X7097741Y-19668174D01*
X7097741Y-19668174D02*
X7107265Y-19687222D01*
X7107265Y-19687222D02*
X7107265Y-19791984D01*
X7497741Y-19582460D02*
X7326313Y-19839603D01*
X7754884Y-19591984D02*
X7773932Y-19591984D01*
X7773932Y-19591984D02*
X7792979Y-19601508D01*
X7792979Y-19601508D02*
X7802503Y-19611031D01*
X7802503Y-19611031D02*
X7812027Y-19630079D01*
X7812027Y-19630079D02*
X7821551Y-19668174D01*
X7821551Y-19668174D02*
X7821551Y-19715793D01*
X7821551Y-19715793D02*
X7812027Y-19753889D01*
X7812027Y-19753889D02*
X7802503Y-19772936D01*
X7802503Y-19772936D02*
X7792979Y-19782460D01*
X7792979Y-19782460D02*
X7773932Y-19791984D01*
X7773932Y-19791984D02*
X7754884Y-19791984D01*
X7754884Y-19791984D02*
X7735836Y-19782460D01*
X7735836Y-19782460D02*
X7726313Y-19772936D01*
X7726313Y-19772936D02*
X7716789Y-19753889D01*
X7716789Y-19753889D02*
X7707265Y-19715793D01*
X7707265Y-19715793D02*
X7707265Y-19668174D01*
X7707265Y-19668174D02*
X7716789Y-19630079D01*
X7716789Y-19630079D02*
X7726313Y-19611031D01*
X7726313Y-19611031D02*
X7735836Y-19601508D01*
X7735836Y-19601508D02*
X7754884Y-19591984D01*
X7907265Y-19772936D02*
X7916789Y-19782460D01*
X7916789Y-19782460D02*
X7907265Y-19791984D01*
X7907265Y-19791984D02*
X7897741Y-19782460D01*
X7897741Y-19782460D02*
X7907265Y-19772936D01*
X7907265Y-19772936D02*
X7907265Y-19791984D01*
X8040598Y-19591984D02*
X8059646Y-19591984D01*
X8059646Y-19591984D02*
X8078694Y-19601508D01*
X8078694Y-19601508D02*
X8088217Y-19611031D01*
X8088217Y-19611031D02*
X8097741Y-19630079D01*
X8097741Y-19630079D02*
X8107265Y-19668174D01*
X8107265Y-19668174D02*
X8107265Y-19715793D01*
X8107265Y-19715793D02*
X8097741Y-19753889D01*
X8097741Y-19753889D02*
X8088217Y-19772936D01*
X8088217Y-19772936D02*
X8078694Y-19782460D01*
X8078694Y-19782460D02*
X8059646Y-19791984D01*
X8059646Y-19791984D02*
X8040598Y-19791984D01*
X8040598Y-19791984D02*
X8021551Y-19782460D01*
X8021551Y-19782460D02*
X8012027Y-19772936D01*
X8012027Y-19772936D02*
X8002503Y-19753889D01*
X8002503Y-19753889D02*
X7992979Y-19715793D01*
X7992979Y-19715793D02*
X7992979Y-19668174D01*
X7992979Y-19668174D02*
X8002503Y-19630079D01*
X8002503Y-19630079D02*
X8012027Y-19611031D01*
X8012027Y-19611031D02*
X8021551Y-19601508D01*
X8021551Y-19601508D02*
X8040598Y-19591984D01*
X8202503Y-19791984D02*
X8240598Y-19791984D01*
X8240598Y-19791984D02*
X8259646Y-19782460D01*
X8259646Y-19782460D02*
X8269170Y-19772936D01*
X8269170Y-19772936D02*
X8288217Y-19744365D01*
X8288217Y-19744365D02*
X8297741Y-19706270D01*
X8297741Y-19706270D02*
X8297741Y-19630079D01*
X8297741Y-19630079D02*
X8288217Y-19611031D01*
X8288217Y-19611031D02*
X8278694Y-19601508D01*
X8278694Y-19601508D02*
X8259646Y-19591984D01*
X8259646Y-19591984D02*
X8221551Y-19591984D01*
X8221551Y-19591984D02*
X8202503Y-19601508D01*
X8202503Y-19601508D02*
X8192979Y-19611031D01*
X8192979Y-19611031D02*
X8183456Y-19630079D01*
X8183456Y-19630079D02*
X8183456Y-19677698D01*
X8183456Y-19677698D02*
X8192979Y-19696746D01*
X8192979Y-19696746D02*
X8202503Y-19706270D01*
X8202503Y-19706270D02*
X8221551Y-19715793D01*
X8221551Y-19715793D02*
X8259646Y-19715793D01*
X8259646Y-19715793D02*
X8278694Y-19706270D01*
X8278694Y-19706270D02*
X8288217Y-19696746D01*
X8288217Y-19696746D02*
X8297741Y-19677698D01*
X8412027Y-19677698D02*
X8392979Y-19668174D01*
X8392979Y-19668174D02*
X8383456Y-19658650D01*
X8383456Y-19658650D02*
X8373932Y-19639603D01*
X8373932Y-19639603D02*
X8373932Y-19630079D01*
X8373932Y-19630079D02*
X8383456Y-19611031D01*
X8383456Y-19611031D02*
X8392979Y-19601508D01*
X8392979Y-19601508D02*
X8412027Y-19591984D01*
X8412027Y-19591984D02*
X8450122Y-19591984D01*
X8450122Y-19591984D02*
X8469170Y-19601508D01*
X8469170Y-19601508D02*
X8478694Y-19611031D01*
X8478694Y-19611031D02*
X8488218Y-19630079D01*
X8488218Y-19630079D02*
X8488218Y-19639603D01*
X8488218Y-19639603D02*
X8478694Y-19658650D01*
X8478694Y-19658650D02*
X8469170Y-19668174D01*
X8469170Y-19668174D02*
X8450122Y-19677698D01*
X8450122Y-19677698D02*
X8412027Y-19677698D01*
X8412027Y-19677698D02*
X8392979Y-19687222D01*
X8392979Y-19687222D02*
X8383456Y-19696746D01*
X8383456Y-19696746D02*
X8373932Y-19715793D01*
X8373932Y-19715793D02*
X8373932Y-19753889D01*
X8373932Y-19753889D02*
X8383456Y-19772936D01*
X8383456Y-19772936D02*
X8392979Y-19782460D01*
X8392979Y-19782460D02*
X8412027Y-19791984D01*
X8412027Y-19791984D02*
X8450122Y-19791984D01*
X8450122Y-19791984D02*
X8469170Y-19782460D01*
X8469170Y-19782460D02*
X8478694Y-19772936D01*
X8478694Y-19772936D02*
X8488218Y-19753889D01*
X8488218Y-19753889D02*
X8488218Y-19715793D01*
X8488218Y-19715793D02*
X8478694Y-19696746D01*
X8478694Y-19696746D02*
X8469170Y-19687222D01*
X8469170Y-19687222D02*
X8450122Y-19677698D01*
X8659646Y-19658650D02*
X8659646Y-19791984D01*
X8612027Y-19582460D02*
X8564408Y-19725317D01*
X8564408Y-19725317D02*
X8688218Y-19725317D01*
X8754884Y-19591984D02*
X8754884Y-19630079D01*
X8831075Y-19591984D02*
X8831075Y-19630079D01*
X9126313Y-19868174D02*
X9116789Y-19858650D01*
X9116789Y-19858650D02*
X9097741Y-19830079D01*
X9097741Y-19830079D02*
X9088218Y-19811031D01*
X9088218Y-19811031D02*
X9078694Y-19782460D01*
X9078694Y-19782460D02*
X9069170Y-19734841D01*
X9069170Y-19734841D02*
X9069170Y-19696746D01*
X9069170Y-19696746D02*
X9078694Y-19649127D01*
X9078694Y-19649127D02*
X9088218Y-19620555D01*
X9088218Y-19620555D02*
X9097741Y-19601508D01*
X9097741Y-19601508D02*
X9116789Y-19572936D01*
X9116789Y-19572936D02*
X9126313Y-19563412D01*
X9240599Y-19591984D02*
X9259646Y-19591984D01*
X9259646Y-19591984D02*
X9278694Y-19601508D01*
X9278694Y-19601508D02*
X9288218Y-19611031D01*
X9288218Y-19611031D02*
X9297741Y-19630079D01*
X9297741Y-19630079D02*
X9307265Y-19668174D01*
X9307265Y-19668174D02*
X9307265Y-19715793D01*
X9307265Y-19715793D02*
X9297741Y-19753889D01*
X9297741Y-19753889D02*
X9288218Y-19772936D01*
X9288218Y-19772936D02*
X9278694Y-19782460D01*
X9278694Y-19782460D02*
X9259646Y-19791984D01*
X9259646Y-19791984D02*
X9240599Y-19791984D01*
X9240599Y-19791984D02*
X9221551Y-19782460D01*
X9221551Y-19782460D02*
X9212027Y-19772936D01*
X9212027Y-19772936D02*
X9202503Y-19753889D01*
X9202503Y-19753889D02*
X9192980Y-19715793D01*
X9192980Y-19715793D02*
X9192980Y-19668174D01*
X9192980Y-19668174D02*
X9202503Y-19630079D01*
X9202503Y-19630079D02*
X9212027Y-19611031D01*
X9212027Y-19611031D02*
X9221551Y-19601508D01*
X9221551Y-19601508D02*
X9240599Y-19591984D01*
X9545361Y-19791984D02*
X9545361Y-19591984D01*
X9631075Y-19791984D02*
X9631075Y-19687222D01*
X9631075Y-19687222D02*
X9621551Y-19668174D01*
X9621551Y-19668174D02*
X9602503Y-19658650D01*
X9602503Y-19658650D02*
X9573932Y-19658650D01*
X9573932Y-19658650D02*
X9554884Y-19668174D01*
X9554884Y-19668174D02*
X9545361Y-19677698D01*
X9754884Y-19791984D02*
X9735837Y-19782460D01*
X9735837Y-19782460D02*
X9726313Y-19772936D01*
X9726313Y-19772936D02*
X9716789Y-19753889D01*
X9716789Y-19753889D02*
X9716789Y-19696746D01*
X9716789Y-19696746D02*
X9726313Y-19677698D01*
X9726313Y-19677698D02*
X9735837Y-19668174D01*
X9735837Y-19668174D02*
X9754884Y-19658650D01*
X9754884Y-19658650D02*
X9783456Y-19658650D01*
X9783456Y-19658650D02*
X9802503Y-19668174D01*
X9802503Y-19668174D02*
X9812027Y-19677698D01*
X9812027Y-19677698D02*
X9821551Y-19696746D01*
X9821551Y-19696746D02*
X9821551Y-19753889D01*
X9821551Y-19753889D02*
X9812027Y-19772936D01*
X9812027Y-19772936D02*
X9802503Y-19782460D01*
X9802503Y-19782460D02*
X9783456Y-19791984D01*
X9783456Y-19791984D02*
X9754884Y-19791984D01*
X9935837Y-19791984D02*
X9916789Y-19782460D01*
X9916789Y-19782460D02*
X9907265Y-19763412D01*
X9907265Y-19763412D02*
X9907265Y-19591984D01*
X10088218Y-19782460D02*
X10069170Y-19791984D01*
X10069170Y-19791984D02*
X10031075Y-19791984D01*
X10031075Y-19791984D02*
X10012027Y-19782460D01*
X10012027Y-19782460D02*
X10002503Y-19763412D01*
X10002503Y-19763412D02*
X10002503Y-19687222D01*
X10002503Y-19687222D02*
X10012027Y-19668174D01*
X10012027Y-19668174D02*
X10031075Y-19658650D01*
X10031075Y-19658650D02*
X10069170Y-19658650D01*
X10069170Y-19658650D02*
X10088218Y-19668174D01*
X10088218Y-19668174D02*
X10097742Y-19687222D01*
X10097742Y-19687222D02*
X10097742Y-19706270D01*
X10097742Y-19706270D02*
X10002503Y-19725317D01*
X10173932Y-19782460D02*
X10192980Y-19791984D01*
X10192980Y-19791984D02*
X10231075Y-19791984D01*
X10231075Y-19791984D02*
X10250123Y-19782460D01*
X10250123Y-19782460D02*
X10259646Y-19763412D01*
X10259646Y-19763412D02*
X10259646Y-19753889D01*
X10259646Y-19753889D02*
X10250123Y-19734841D01*
X10250123Y-19734841D02*
X10231075Y-19725317D01*
X10231075Y-19725317D02*
X10202503Y-19725317D01*
X10202503Y-19725317D02*
X10183456Y-19715793D01*
X10183456Y-19715793D02*
X10173932Y-19696746D01*
X10173932Y-19696746D02*
X10173932Y-19687222D01*
X10173932Y-19687222D02*
X10183456Y-19668174D01*
X10183456Y-19668174D02*
X10202503Y-19658650D01*
X10202503Y-19658650D02*
X10231075Y-19658650D01*
X10231075Y-19658650D02*
X10250123Y-19668174D01*
X10497742Y-19715793D02*
X10650123Y-19715793D01*
X10573932Y-19791984D02*
X10573932Y-19639603D01*
X10926313Y-19677698D02*
X10907265Y-19668174D01*
X10907265Y-19668174D02*
X10897742Y-19658650D01*
X10897742Y-19658650D02*
X10888218Y-19639603D01*
X10888218Y-19639603D02*
X10888218Y-19630079D01*
X10888218Y-19630079D02*
X10897742Y-19611031D01*
X10897742Y-19611031D02*
X10907265Y-19601508D01*
X10907265Y-19601508D02*
X10926313Y-19591984D01*
X10926313Y-19591984D02*
X10964408Y-19591984D01*
X10964408Y-19591984D02*
X10983456Y-19601508D01*
X10983456Y-19601508D02*
X10992980Y-19611031D01*
X10992980Y-19611031D02*
X11002504Y-19630079D01*
X11002504Y-19630079D02*
X11002504Y-19639603D01*
X11002504Y-19639603D02*
X10992980Y-19658650D01*
X10992980Y-19658650D02*
X10983456Y-19668174D01*
X10983456Y-19668174D02*
X10964408Y-19677698D01*
X10964408Y-19677698D02*
X10926313Y-19677698D01*
X10926313Y-19677698D02*
X10907265Y-19687222D01*
X10907265Y-19687222D02*
X10897742Y-19696746D01*
X10897742Y-19696746D02*
X10888218Y-19715793D01*
X10888218Y-19715793D02*
X10888218Y-19753889D01*
X10888218Y-19753889D02*
X10897742Y-19772936D01*
X10897742Y-19772936D02*
X10907265Y-19782460D01*
X10907265Y-19782460D02*
X10926313Y-19791984D01*
X10926313Y-19791984D02*
X10964408Y-19791984D01*
X10964408Y-19791984D02*
X10983456Y-19782460D01*
X10983456Y-19782460D02*
X10992980Y-19772936D01*
X10992980Y-19772936D02*
X11002504Y-19753889D01*
X11002504Y-19753889D02*
X11002504Y-19715793D01*
X11002504Y-19715793D02*
X10992980Y-19696746D01*
X10992980Y-19696746D02*
X10983456Y-19687222D01*
X10983456Y-19687222D02*
X10964408Y-19677698D01*
X11231075Y-19782460D02*
X11250123Y-19791984D01*
X11250123Y-19791984D02*
X11288218Y-19791984D01*
X11288218Y-19791984D02*
X11307265Y-19782460D01*
X11307265Y-19782460D02*
X11316789Y-19763412D01*
X11316789Y-19763412D02*
X11316789Y-19753889D01*
X11316789Y-19753889D02*
X11307265Y-19734841D01*
X11307265Y-19734841D02*
X11288218Y-19725317D01*
X11288218Y-19725317D02*
X11259646Y-19725317D01*
X11259646Y-19725317D02*
X11240599Y-19715793D01*
X11240599Y-19715793D02*
X11231075Y-19696746D01*
X11231075Y-19696746D02*
X11231075Y-19687222D01*
X11231075Y-19687222D02*
X11240599Y-19668174D01*
X11240599Y-19668174D02*
X11259646Y-19658650D01*
X11259646Y-19658650D02*
X11288218Y-19658650D01*
X11288218Y-19658650D02*
X11307265Y-19668174D01*
X11431075Y-19791984D02*
X11412027Y-19782460D01*
X11412027Y-19782460D02*
X11402504Y-19763412D01*
X11402504Y-19763412D02*
X11402504Y-19591984D01*
X11535837Y-19791984D02*
X11516789Y-19782460D01*
X11516789Y-19782460D02*
X11507265Y-19772936D01*
X11507265Y-19772936D02*
X11497742Y-19753889D01*
X11497742Y-19753889D02*
X11497742Y-19696746D01*
X11497742Y-19696746D02*
X11507265Y-19677698D01*
X11507265Y-19677698D02*
X11516789Y-19668174D01*
X11516789Y-19668174D02*
X11535837Y-19658650D01*
X11535837Y-19658650D02*
X11564408Y-19658650D01*
X11564408Y-19658650D02*
X11583456Y-19668174D01*
X11583456Y-19668174D02*
X11592980Y-19677698D01*
X11592980Y-19677698D02*
X11602504Y-19696746D01*
X11602504Y-19696746D02*
X11602504Y-19753889D01*
X11602504Y-19753889D02*
X11592980Y-19772936D01*
X11592980Y-19772936D02*
X11583456Y-19782460D01*
X11583456Y-19782460D02*
X11564408Y-19791984D01*
X11564408Y-19791984D02*
X11535837Y-19791984D01*
X11659646Y-19658650D02*
X11735837Y-19658650D01*
X11688218Y-19591984D02*
X11688218Y-19763412D01*
X11688218Y-19763412D02*
X11697742Y-19782460D01*
X11697742Y-19782460D02*
X11716789Y-19791984D01*
X11716789Y-19791984D02*
X11735837Y-19791984D01*
X11792980Y-19782460D02*
X11812027Y-19791984D01*
X11812027Y-19791984D02*
X11850123Y-19791984D01*
X11850123Y-19791984D02*
X11869170Y-19782460D01*
X11869170Y-19782460D02*
X11878694Y-19763412D01*
X11878694Y-19763412D02*
X11878694Y-19753889D01*
X11878694Y-19753889D02*
X11869170Y-19734841D01*
X11869170Y-19734841D02*
X11850123Y-19725317D01*
X11850123Y-19725317D02*
X11821551Y-19725317D01*
X11821551Y-19725317D02*
X11802504Y-19715793D01*
X11802504Y-19715793D02*
X11792980Y-19696746D01*
X11792980Y-19696746D02*
X11792980Y-19687222D01*
X11792980Y-19687222D02*
X11802504Y-19668174D01*
X11802504Y-19668174D02*
X11821551Y-19658650D01*
X11821551Y-19658650D02*
X11850123Y-19658650D01*
X11850123Y-19658650D02*
X11869170Y-19668174D01*
X11945361Y-19868174D02*
X11954885Y-19858650D01*
X11954885Y-19858650D02*
X11973932Y-19830079D01*
X11973932Y-19830079D02*
X11983456Y-19811031D01*
X11983456Y-19811031D02*
X11992980Y-19782460D01*
X11992980Y-19782460D02*
X12002504Y-19734841D01*
X12002504Y-19734841D02*
X12002504Y-19696746D01*
X12002504Y-19696746D02*
X11992980Y-19649127D01*
X11992980Y-19649127D02*
X11983456Y-19620555D01*
X11983456Y-19620555D02*
X11973932Y-19601508D01*
X11973932Y-19601508D02*
X11954885Y-19572936D01*
X11954885Y-19572936D02*
X11945361Y-19563412D01*
M02*
