M48
; DRILL file {KiCad 7.0.4} date Mon 29 May 2023 10:38:16 AM EDT
; FORMAT={-:-/ absolute / metric / decimal}
; #@! TF.CreationDate,2023-05-29T10:38:16-04:00
; #@! TF.GenerationSoftware,Kicad,Pcbnew,7.0.4
; #@! TF.FileFunction,NonPlated,1,2,NPTH
FMAT,2
METRIC
; #@! TA.AperFunction,NonPlated,NPTH,ComponentDrill
T1C1.500
; #@! TA.AperFunction,NonPlated,NPTH,ComponentDrill
T2C1.750
; #@! TA.AperFunction,NonPlated,NPTH,ComponentDrill
T3C1.800
; #@! TA.AperFunction,NonPlated,NPTH,ComponentDrill
T4C3.048
; #@! TA.AperFunction,NonPlated,NPTH,ComponentDrill
T5C3.988
%
G90
G05
T1
X196.012Y-54.436
X200.862Y-54.436
T2
X60.008Y-88.9
X62.389Y-165.1
X64.77Y-107.95
X67.151Y-127.0
X70.167Y-88.9
X71.914Y-146.05
X72.549Y-165.1
X74.93Y-107.95
X77.311Y-127.0
X79.057Y-88.9
X82.074Y-146.05
X86.201Y-165.1
X88.582Y-107.95
X89.218Y-88.9
X93.345Y-127.0
X96.361Y-165.1
X98.108Y-88.9
X98.742Y-107.95
X102.87Y-146.05
X103.505Y-127.0
X107.632Y-107.95
X108.267Y-88.9
X110.014Y-165.1
X112.395Y-127.0
X113.03Y-146.05
X117.157Y-88.9
X117.792Y-107.95
X120.174Y-165.1
X121.92Y-146.05
X122.555Y-127.0
X126.682Y-107.95
X127.317Y-88.9
X131.445Y-127.0
X132.08Y-146.05
X136.207Y-88.9
X136.843Y-107.95
X140.97Y-146.05
X141.605Y-127.0
X145.732Y-107.95
X146.368Y-88.9
X150.495Y-127.0
X151.13Y-146.05
X155.257Y-88.9
X155.892Y-107.95
X160.02Y-146.05
X160.655Y-127.0
X164.782Y-107.95
X165.417Y-88.9
X169.545Y-127.0
X170.18Y-146.05
X174.308Y-88.9
X174.942Y-107.95
X179.07Y-146.05
X179.705Y-127.0
X181.451Y-165.1
X183.832Y-107.95
X184.468Y-88.9
X188.595Y-127.0
X189.23Y-146.05
X191.611Y-165.1
X193.357Y-88.9
X193.992Y-107.95
X198.12Y-146.05
X198.755Y-127.0
X202.882Y-107.95
X203.517Y-88.9
X207.645Y-127.0
X208.28Y-146.05
X212.407Y-88.9
X213.042Y-107.95
X217.17Y-146.05
X217.805Y-127.0
X221.932Y-107.95
X222.567Y-88.9
X226.695Y-127.0
X227.33Y-146.05
X231.457Y-88.9
X232.093Y-107.95
X236.22Y-146.05
X236.855Y-127.0
X240.982Y-107.95
X241.617Y-88.9
X245.745Y-127.0
X246.38Y-146.05
X250.507Y-88.9
X251.142Y-107.95
X252.889Y-165.1
X255.27Y-146.05
X255.905Y-127.0
X260.032Y-107.95
X260.667Y-88.9
X263.049Y-165.1
X264.795Y-127.0
X265.43Y-146.05
X269.558Y-88.9
X270.192Y-107.95
X274.32Y-146.05
X274.955Y-127.0
X276.701Y-165.1
X279.082Y-107.95
X279.717Y-88.9
X283.845Y-127.0
X284.48Y-146.05
X286.861Y-165.1
X288.607Y-88.9
X289.243Y-107.95
X294.005Y-127.0
X298.132Y-107.95
X298.767Y-88.9
X300.514Y-165.1
X308.292Y-107.95
X310.039Y-146.05
X310.674Y-165.1
X314.801Y-127.0
X317.183Y-88.9
X320.199Y-146.05
X321.945Y-107.95
X324.326Y-165.1
X324.961Y-127.0
X327.342Y-88.9
X332.105Y-107.95
X334.486Y-165.1
T3
X195.712Y-51.406
X201.162Y-51.406
T4
X65.056Y-139.065
X88.932Y-139.065
X136.531Y-172.085
X236.531Y-172.085
X303.181Y-139.065
X307.943Y-120.015
X310.325Y-81.915
X327.057Y-139.065
X331.819Y-120.015
X334.2Y-81.915
T5
X65.056Y-154.305
X65.087Y-88.9
X67.469Y-165.1
X69.85Y-107.95
X72.231Y-127.0
X76.994Y-146.05
X84.138Y-88.9
X88.932Y-154.305
X91.281Y-165.1
X93.662Y-107.95
X98.425Y-127.0
X103.188Y-88.9
X107.95Y-146.05
X112.712Y-107.95
X115.094Y-165.1
X117.475Y-127.0
X122.237Y-88.9
X127.0Y-146.05
X131.762Y-107.95
X136.525Y-127.0
X136.531Y-156.845
X141.287Y-88.9
X146.05Y-146.05
X150.812Y-107.95
X155.575Y-127.0
X160.338Y-88.9
X165.1Y-146.05
X169.862Y-107.95
X174.625Y-127.0
X179.387Y-88.9
X184.15Y-146.05
X186.531Y-165.1
X188.912Y-107.95
X193.675Y-127.0
X198.438Y-88.9
X203.2Y-146.05
X207.962Y-107.95
X212.725Y-127.0
X217.487Y-88.9
X222.25Y-146.05
X227.012Y-107.95
X231.775Y-127.0
X236.531Y-156.845
X236.537Y-88.9
X241.3Y-146.05
X246.062Y-107.95
X250.825Y-127.0
X255.587Y-88.9
X257.969Y-165.1
X260.35Y-146.05
X265.113Y-107.95
X269.875Y-127.0
X274.637Y-88.9
X279.4Y-146.05
X281.781Y-165.1
X284.162Y-107.95
X288.925Y-127.0
X293.688Y-88.9
X303.181Y-154.305
X303.212Y-107.95
X305.594Y-165.1
X307.943Y-135.255
X310.325Y-97.155
X315.119Y-146.05
X319.881Y-127.0
X322.262Y-88.9
X327.025Y-107.95
X327.057Y-154.305
X329.406Y-165.1
X331.819Y-135.255
X334.2Y-97.155
T0
M30
