M48
; DRILL file {KiCad 7.0.4} date Mon 29 May 2023 10:38:16 AM EDT
; FORMAT={-:-/ absolute / metric / decimal}
; #@! TF.CreationDate,2023-05-29T10:38:16-04:00
; #@! TF.GenerationSoftware,Kicad,Pcbnew,7.0.4
; #@! TF.FileFunction,Plated,1,2,PTH
FMAT,2
METRIC
; #@! TA.AperFunction,Plated,PTH,ViaDrill
T1C0.400
; #@! TA.AperFunction,Plated,PTH,ComponentDrill
T2C0.700
; #@! TA.AperFunction,Plated,PTH,ComponentDrill
T3C1.000
; #@! TA.AperFunction,Plated,PTH,ComponentDrill
T4C1.020
; #@! TA.AperFunction,Plated,PTH,ComponentDrill
T5C1.470
; #@! TA.AperFunction,Plated,PTH,ComponentDrill
T6C1.500
; #@! TA.AperFunction,Plated,PTH,ComponentDrill
T7C2.500
%
G90
G05
T1
X62.706Y-67.469
X65.881Y-66.675
X69.056Y-65.881
X72.231Y-65.087
X80.169Y-67.469
X83.344Y-65.087
X91.281Y-67.469
X94.456Y-66.675
X97.631Y-65.881
X105.569Y-67.469
X108.744Y-66.675
X111.919Y-65.881
X115.094Y-65.087
X123.031Y-67.469
X126.206Y-66.675
X129.381Y-65.881
X137.319Y-67.469
X140.494Y-66.675
X143.669Y-65.881
X151.606Y-67.469
X154.781Y-66.675
X157.956Y-65.881
X165.894Y-67.469
X169.069Y-66.675
X172.244Y-65.881
X175.419Y-65.087
X183.356Y-67.431
X186.256Y-65.606
X211.022Y-94.341
X212.725Y-65.087
X214.312Y-96.044
X220.662Y-67.469
X223.837Y-66.675
X227.012Y-65.881
X234.95Y-67.469
X238.125Y-66.675
X241.3Y-65.881
X244.475Y-65.087
X252.412Y-67.469
X255.587Y-66.675
X258.762Y-65.881
X261.938Y-65.087
X265.906Y-68.263
X269.875Y-67.469
X273.05Y-61.912
X280.988Y-95.25
X281.01Y-88.092
X289.719Y-68.263
X291.306Y-60.325
X294.481Y-68.263
X297.656Y-67.469
X306.387Y-85.635
X306.387Y-87.312
X317.5Y-61.912
X319.881Y-61.119
X323.056Y-60.325
T2
X58.737Y-70.006
X58.737Y-77.632
X61.912Y-70.006
X61.912Y-77.632
X65.087Y-70.006
X65.087Y-77.632
X68.263Y-70.006
X68.263Y-77.632
X71.438Y-70.006
X71.438Y-77.632
X76.2Y-70.006
X76.2Y-77.632
X79.375Y-70.006
X79.375Y-77.632
X82.55Y-70.006
X82.55Y-77.632
X87.312Y-70.006
X87.312Y-77.632
X90.487Y-70.006
X90.487Y-77.632
X93.662Y-70.006
X93.662Y-77.632
X96.837Y-70.006
X96.837Y-77.632
X101.6Y-70.006
X101.6Y-77.632
X104.775Y-70.006
X104.775Y-77.632
X107.95Y-70.006
X107.95Y-77.632
X111.125Y-70.006
X111.125Y-77.632
X114.3Y-70.006
X114.3Y-77.632
X119.062Y-70.006
X119.062Y-77.632
X122.237Y-70.006
X122.237Y-77.632
X125.412Y-70.006
X125.412Y-77.632
X128.588Y-70.006
X128.588Y-77.632
X133.35Y-70.006
X133.35Y-77.632
X136.525Y-70.006
X136.525Y-77.632
X139.7Y-70.006
X139.7Y-77.632
X142.875Y-70.006
X142.875Y-77.632
X147.637Y-70.006
X147.637Y-77.632
X150.812Y-70.006
X150.812Y-77.632
X153.987Y-70.006
X153.987Y-77.632
X157.162Y-70.006
X157.162Y-77.632
X161.925Y-70.006
X161.925Y-77.632
X165.1Y-70.006
X165.1Y-77.632
X168.275Y-70.006
X168.275Y-77.632
X171.45Y-70.006
X171.45Y-77.632
X174.625Y-70.006
X174.625Y-77.632
X179.387Y-70.006
X179.387Y-77.632
X182.562Y-70.006
X182.562Y-77.632
X185.737Y-70.006
X185.737Y-77.632
X211.931Y-70.006
X211.931Y-77.632
X216.694Y-70.006
X216.694Y-77.632
X219.869Y-70.006
X219.869Y-77.632
X223.044Y-70.006
X223.044Y-77.632
X226.219Y-70.006
X226.219Y-77.632
X230.981Y-70.006
X230.981Y-77.632
X234.156Y-70.006
X234.156Y-77.632
X237.331Y-70.006
X237.331Y-77.632
X240.506Y-70.006
X240.506Y-77.632
X243.681Y-70.006
X243.681Y-77.632
X248.444Y-70.006
X248.444Y-77.632
X251.619Y-70.006
X251.619Y-77.632
X254.794Y-70.006
X254.794Y-77.632
X257.969Y-70.006
X257.969Y-77.632
X261.144Y-70.006
X261.144Y-77.632
X265.268Y-65.881
X265.906Y-70.006
X265.906Y-77.632
X269.081Y-70.006
X269.081Y-77.632
X272.256Y-70.006
X272.256Y-77.632
X272.894Y-65.881
X289.081Y-65.881
X290.512Y-70.006
X290.512Y-77.632
X293.688Y-70.006
X293.688Y-77.632
X296.707Y-65.881
X296.863Y-70.006
X296.863Y-77.632
X315.274Y-65.881
X315.912Y-70.006
X315.912Y-77.632
X319.087Y-70.006
X319.087Y-77.632
X322.262Y-70.006
X322.262Y-77.632
X322.9Y-65.881
T3
X278.488Y-63.644
X278.488Y-78.144
X280.988Y-78.144
X283.488Y-63.644
X283.488Y-78.144
X303.887Y-63.644
X303.887Y-78.144
X306.387Y-78.144
X308.887Y-63.644
X308.887Y-78.144
X329.287Y-63.644
X329.287Y-78.144
X331.787Y-78.144
X334.287Y-63.644
X334.287Y-78.144
T4
X189.547Y-51.276
X189.547Y-53.816
X189.547Y-56.356
X189.547Y-58.896
X189.547Y-61.436
X189.547Y-63.976
X189.547Y-66.516
X189.547Y-69.056
X189.547Y-71.596
X189.547Y-74.136
X189.547Y-76.676
X189.547Y-79.216
X189.547Y-81.756
X189.547Y-84.296
X189.547Y-86.836
X189.547Y-89.376
X189.547Y-91.916
X189.547Y-94.456
X189.547Y-96.996
X189.547Y-99.536
X195.897Y-99.306
X198.438Y-99.306
X200.977Y-99.306
X207.327Y-51.276
X207.327Y-53.816
X207.327Y-56.356
X207.327Y-58.896
X207.327Y-61.436
X207.327Y-63.976
X207.327Y-66.516
X207.327Y-69.056
X207.327Y-71.596
X207.327Y-74.136
X207.327Y-76.676
X207.327Y-79.216
X207.327Y-81.756
X207.327Y-84.296
X207.327Y-86.836
X207.327Y-89.376
X207.327Y-91.916
X207.327Y-94.456
X207.327Y-96.996
X207.327Y-99.536
T5
X61.277Y-86.36
X62.587Y-84.9
X63.659Y-162.56
X64.969Y-161.1
X66.04Y-105.41
X67.35Y-103.95
X67.587Y-84.4
X67.627Y-83.82
X68.421Y-124.46
X69.731Y-123.0
X69.969Y-160.6
X70.009Y-160.02
X72.35Y-103.45
X72.39Y-102.87
X73.184Y-143.51
X74.494Y-142.05
X74.731Y-122.5
X74.771Y-121.92
X79.494Y-141.55
X79.534Y-140.97
X80.328Y-86.36
X81.638Y-84.9
X86.638Y-84.4
X86.677Y-83.82
X87.471Y-162.56
X88.781Y-161.1
X89.852Y-105.41
X91.162Y-103.95
X93.781Y-160.6
X93.821Y-160.02
X94.615Y-124.46
X95.925Y-123.0
X96.162Y-103.45
X96.203Y-102.87
X99.377Y-86.36
X100.688Y-84.9
X100.925Y-122.5
X100.965Y-121.92
X104.14Y-143.51
X105.45Y-142.05
X105.688Y-84.4
X105.727Y-83.82
X108.902Y-105.41
X110.212Y-103.95
X110.45Y-141.55
X110.49Y-140.97
X111.284Y-162.56
X112.594Y-161.1
X113.665Y-124.46
X114.975Y-123.0
X115.212Y-103.45
X115.252Y-102.87
X117.594Y-160.6
X117.634Y-160.02
X118.427Y-86.36
X119.737Y-84.9
X119.975Y-122.5
X120.015Y-121.92
X123.19Y-143.51
X124.5Y-142.05
X124.737Y-84.4
X124.777Y-83.82
X127.953Y-105.41
X129.262Y-103.95
X129.5Y-141.55
X129.54Y-140.97
X132.715Y-124.46
X134.025Y-123.0
X134.262Y-103.45
X134.302Y-102.87
X137.477Y-86.36
X138.787Y-84.9
X139.025Y-122.5
X139.065Y-121.92
X142.24Y-143.51
X143.55Y-142.05
X143.787Y-84.4
X143.827Y-83.82
X147.002Y-105.41
X148.312Y-103.95
X148.55Y-141.55
X148.59Y-140.97
X151.765Y-124.46
X153.075Y-123.0
X153.312Y-103.45
X153.352Y-102.87
X156.528Y-86.36
X157.838Y-84.9
X158.075Y-122.5
X158.115Y-121.92
X161.29Y-143.51
X162.6Y-142.05
X162.838Y-84.4
X162.877Y-83.82
X166.052Y-105.41
X167.362Y-103.95
X167.6Y-141.55
X167.64Y-140.97
X170.815Y-124.46
X172.125Y-123.0
X172.362Y-103.45
X172.403Y-102.87
X175.577Y-86.36
X176.887Y-84.9
X177.125Y-122.5
X177.165Y-121.92
X180.34Y-143.51
X181.65Y-142.05
X181.887Y-84.4
X181.927Y-83.82
X182.721Y-162.56
X184.031Y-161.1
X185.102Y-105.41
X186.412Y-103.95
X186.65Y-141.55
X186.69Y-140.97
X189.031Y-160.6
X189.071Y-160.02
X189.865Y-124.46
X191.175Y-123.0
X191.412Y-103.45
X191.452Y-102.87
X194.627Y-86.36
X195.938Y-84.9
X196.175Y-122.5
X196.215Y-121.92
X199.39Y-143.51
X200.7Y-142.05
X200.938Y-84.4
X200.977Y-83.82
X204.153Y-105.41
X205.462Y-103.95
X205.7Y-141.55
X205.74Y-140.97
X208.915Y-124.46
X210.225Y-123.0
X210.462Y-103.45
X210.502Y-102.87
X213.677Y-86.36
X214.987Y-84.9
X215.225Y-122.5
X215.265Y-121.92
X218.44Y-143.51
X219.75Y-142.05
X219.987Y-84.4
X220.028Y-83.82
X223.202Y-105.41
X224.512Y-103.95
X224.75Y-141.55
X224.79Y-140.97
X227.965Y-124.46
X229.275Y-123.0
X229.512Y-103.45
X229.552Y-102.87
X232.727Y-86.36
X234.037Y-84.9
X234.275Y-122.5
X234.315Y-121.92
X237.49Y-143.51
X238.8Y-142.05
X239.037Y-84.4
X239.077Y-83.82
X242.252Y-105.41
X243.562Y-103.95
X243.8Y-141.55
X243.84Y-140.97
X247.015Y-124.46
X248.325Y-123.0
X248.562Y-103.45
X248.602Y-102.87
X251.777Y-86.36
X253.087Y-84.9
X253.325Y-122.5
X253.365Y-121.92
X254.159Y-162.56
X255.469Y-161.1
X256.54Y-143.51
X257.85Y-142.05
X258.087Y-84.4
X258.127Y-83.82
X260.469Y-160.6
X260.509Y-160.02
X261.303Y-105.41
X262.613Y-103.95
X262.85Y-141.55
X262.89Y-140.97
X266.065Y-124.46
X267.375Y-123.0
X267.613Y-103.45
X267.652Y-102.87
X270.827Y-86.36
X272.137Y-84.9
X272.375Y-122.5
X272.415Y-121.92
X275.59Y-143.51
X276.9Y-142.05
X277.137Y-84.4
X277.178Y-83.82
X277.971Y-162.56
X279.281Y-161.1
X280.352Y-105.41
X281.662Y-103.95
X281.9Y-141.55
X281.94Y-140.97
X284.281Y-160.6
X284.321Y-160.02
X285.115Y-124.46
X286.425Y-123.0
X286.662Y-103.45
X286.702Y-102.87
X289.877Y-86.36
X291.188Y-84.9
X291.425Y-122.5
X291.465Y-121.92
X296.188Y-84.4
X296.227Y-83.82
X299.402Y-105.41
X300.712Y-103.95
X301.784Y-162.56
X303.094Y-161.1
X305.712Y-103.45
X305.752Y-102.87
X308.094Y-160.6
X308.134Y-160.02
X311.309Y-143.51
X312.619Y-142.05
X316.071Y-124.46
X317.381Y-123.0
X317.619Y-141.55
X317.659Y-140.97
X318.452Y-86.36
X319.762Y-84.9
X322.381Y-122.5
X322.421Y-121.92
X323.215Y-105.41
X324.525Y-103.95
X324.762Y-84.4
X324.803Y-83.82
X325.596Y-162.56
X326.906Y-161.1
X329.525Y-103.45
X329.565Y-102.87
X331.906Y-160.6
X331.946Y-160.02
T6
X275.287Y-69.644G85X275.287Y-71.644
G05
X286.688Y-69.644G85X286.688Y-71.644
G05
X300.688Y-69.644G85X300.688Y-71.644
G05
X312.087Y-69.644G85X312.087Y-71.644
G05
X326.087Y-69.644G85X326.087Y-71.644
G05
X337.488Y-69.644G85X337.488Y-71.644
G05
T7
X82.094Y-107.95G85X84.594Y-107.95
G05
X94.0Y-93.662G85X96.5Y-93.662
G05
X94.0Y-93.662G85X96.5Y-93.662
G05
X95.587Y-146.05G85X98.087Y-146.05
G05
X190.044Y-115.887G85X192.544Y-115.887
G05
X292.438Y-146.05G85X294.938Y-146.05
G05
X303.55Y-91.281G85X306.05Y-91.281
G05
X313.869Y-107.95G85X316.369Y-107.95
G05
T0
M30
