%TF.GenerationSoftware,KiCad,Pcbnew,7.0.4*%
%TF.CreationDate,2023-05-29T10:38:24-04:00*%
%TF.ProjectId,keyboard,6b657962-6f61-4726-942e-6b696361645f,rev?*%
%TF.SameCoordinates,Original*%
%TF.FileFunction,Drillmap*%
%TF.FilePolarity,Positive*%
%FSLAX45Y45*%
G04 Gerber Fmt 4.5, Leading zero omitted, Abs format (unit mm)*
G04 Created by KiCad (PCBNEW 7.0.4) date 2023-05-29 10:38:24*
%MOMM*%
%LPD*%
G01*
G04 APERTURE LIST*
%ADD10C,0.100000*%
%ADD11C,0.200000*%
%ADD12C,0.150000*%
%ADD13C,0.175000*%
%ADD14C,0.180000*%
%ADD15C,0.304800*%
%ADD16C,0.398780*%
G04 APERTURE END LIST*
D10*
X5794375Y-4921250D02*
X33893125Y-4921250D01*
X5556250Y-5159375D02*
X5556250Y-17224375D01*
X33893125Y-17462500D02*
G75*
G03*
X34131250Y-17224375I-5J238130D01*
G01*
X34131250Y-5159375D02*
G75*
G03*
X33893125Y-4921250I-238130J-5D01*
G01*
X5556250Y-17224375D02*
G75*
G03*
X5794375Y-17462500I238130J5D01*
G01*
X34131250Y-5159375D02*
X34131250Y-17224375D01*
X33893125Y-17462500D02*
X5794375Y-17462500D01*
X5794375Y-4921250D02*
G75*
G03*
X5556250Y-5159375I0J-238125D01*
G01*
D11*
D12*
X19526250Y-5368625D02*
X19676250Y-5518625D01*
X19676250Y-5368625D02*
X19526250Y-5518625D01*
X20011250Y-5368625D02*
X20161250Y-5518625D01*
X20161250Y-5368625D02*
X20011250Y-5518625D01*
D13*
X6088250Y-8890000D02*
G75*
G03*
X6088250Y-8890000I-87500J0D01*
G01*
X6326375Y-16510000D02*
G75*
G03*
X6326375Y-16510000I-87500J0D01*
G01*
X6564500Y-10795000D02*
G75*
G03*
X6564500Y-10795000I-87500J0D01*
G01*
X6802625Y-12700000D02*
G75*
G03*
X6802625Y-12700000I-87500J0D01*
G01*
X7104250Y-8890000D02*
G75*
G03*
X7104250Y-8890000I-87500J0D01*
G01*
X7278875Y-14605000D02*
G75*
G03*
X7278875Y-14605000I-87500J0D01*
G01*
X7342375Y-16510000D02*
G75*
G03*
X7342375Y-16510000I-87500J0D01*
G01*
X7580500Y-10795000D02*
G75*
G03*
X7580500Y-10795000I-87500J0D01*
G01*
X7818625Y-12700000D02*
G75*
G03*
X7818625Y-12700000I-87500J0D01*
G01*
X7993250Y-8890000D02*
G75*
G03*
X7993250Y-8890000I-87500J0D01*
G01*
X8294875Y-14605000D02*
G75*
G03*
X8294875Y-14605000I-87500J0D01*
G01*
X8707625Y-16510000D02*
G75*
G03*
X8707625Y-16510000I-87500J0D01*
G01*
X8945750Y-10795000D02*
G75*
G03*
X8945750Y-10795000I-87500J0D01*
G01*
X9009250Y-8890000D02*
G75*
G03*
X9009250Y-8890000I-87500J0D01*
G01*
X9422000Y-12700000D02*
G75*
G03*
X9422000Y-12700000I-87500J0D01*
G01*
X9723625Y-16510000D02*
G75*
G03*
X9723625Y-16510000I-87500J0D01*
G01*
X9898250Y-8890000D02*
G75*
G03*
X9898250Y-8890000I-87500J0D01*
G01*
X9961750Y-10795000D02*
G75*
G03*
X9961750Y-10795000I-87500J0D01*
G01*
X10374500Y-14605000D02*
G75*
G03*
X10374500Y-14605000I-87500J0D01*
G01*
X10438000Y-12700000D02*
G75*
G03*
X10438000Y-12700000I-87500J0D01*
G01*
X10850750Y-10795000D02*
G75*
G03*
X10850750Y-10795000I-87500J0D01*
G01*
X10914250Y-8890000D02*
G75*
G03*
X10914250Y-8890000I-87500J0D01*
G01*
X11088875Y-16510000D02*
G75*
G03*
X11088875Y-16510000I-87500J0D01*
G01*
X11327000Y-12700000D02*
G75*
G03*
X11327000Y-12700000I-87500J0D01*
G01*
X11390500Y-14605000D02*
G75*
G03*
X11390500Y-14605000I-87500J0D01*
G01*
X11803250Y-8890000D02*
G75*
G03*
X11803250Y-8890000I-87500J0D01*
G01*
X11866750Y-10795000D02*
G75*
G03*
X11866750Y-10795000I-87500J0D01*
G01*
X12104875Y-16510000D02*
G75*
G03*
X12104875Y-16510000I-87500J0D01*
G01*
X12279500Y-14605000D02*
G75*
G03*
X12279500Y-14605000I-87500J0D01*
G01*
X12343000Y-12700000D02*
G75*
G03*
X12343000Y-12700000I-87500J0D01*
G01*
X12755750Y-10795000D02*
G75*
G03*
X12755750Y-10795000I-87500J0D01*
G01*
X12819250Y-8890000D02*
G75*
G03*
X12819250Y-8890000I-87500J0D01*
G01*
X13232000Y-12700000D02*
G75*
G03*
X13232000Y-12700000I-87500J0D01*
G01*
X13295500Y-14605000D02*
G75*
G03*
X13295500Y-14605000I-87500J0D01*
G01*
X13708250Y-8890000D02*
G75*
G03*
X13708250Y-8890000I-87500J0D01*
G01*
X13771750Y-10795000D02*
G75*
G03*
X13771750Y-10795000I-87500J0D01*
G01*
X14184500Y-14605000D02*
G75*
G03*
X14184500Y-14605000I-87500J0D01*
G01*
X14248000Y-12700000D02*
G75*
G03*
X14248000Y-12700000I-87500J0D01*
G01*
X14660750Y-10795000D02*
G75*
G03*
X14660750Y-10795000I-87500J0D01*
G01*
X14724250Y-8890000D02*
G75*
G03*
X14724250Y-8890000I-87500J0D01*
G01*
X15137000Y-12700000D02*
G75*
G03*
X15137000Y-12700000I-87500J0D01*
G01*
X15200500Y-14605000D02*
G75*
G03*
X15200500Y-14605000I-87500J0D01*
G01*
X15613250Y-8890000D02*
G75*
G03*
X15613250Y-8890000I-87500J0D01*
G01*
X15676750Y-10795000D02*
G75*
G03*
X15676750Y-10795000I-87500J0D01*
G01*
X16089500Y-14605000D02*
G75*
G03*
X16089500Y-14605000I-87500J0D01*
G01*
X16153000Y-12700000D02*
G75*
G03*
X16153000Y-12700000I-87500J0D01*
G01*
X16565750Y-10795000D02*
G75*
G03*
X16565750Y-10795000I-87500J0D01*
G01*
X16629250Y-8890000D02*
G75*
G03*
X16629250Y-8890000I-87500J0D01*
G01*
X17042000Y-12700000D02*
G75*
G03*
X17042000Y-12700000I-87500J0D01*
G01*
X17105500Y-14605000D02*
G75*
G03*
X17105500Y-14605000I-87500J0D01*
G01*
X17518250Y-8890000D02*
G75*
G03*
X17518250Y-8890000I-87500J0D01*
G01*
X17581750Y-10795000D02*
G75*
G03*
X17581750Y-10795000I-87500J0D01*
G01*
X17994500Y-14605000D02*
G75*
G03*
X17994500Y-14605000I-87500J0D01*
G01*
X18058000Y-12700000D02*
G75*
G03*
X18058000Y-12700000I-87500J0D01*
G01*
X18232625Y-16510000D02*
G75*
G03*
X18232625Y-16510000I-87500J0D01*
G01*
X18470750Y-10795000D02*
G75*
G03*
X18470750Y-10795000I-87500J0D01*
G01*
X18534250Y-8890000D02*
G75*
G03*
X18534250Y-8890000I-87500J0D01*
G01*
X18947000Y-12700000D02*
G75*
G03*
X18947000Y-12700000I-87500J0D01*
G01*
X19010500Y-14605000D02*
G75*
G03*
X19010500Y-14605000I-87500J0D01*
G01*
X19248625Y-16510000D02*
G75*
G03*
X19248625Y-16510000I-87500J0D01*
G01*
X19423250Y-8890000D02*
G75*
G03*
X19423250Y-8890000I-87500J0D01*
G01*
X19486750Y-10795000D02*
G75*
G03*
X19486750Y-10795000I-87500J0D01*
G01*
X19899500Y-14605000D02*
G75*
G03*
X19899500Y-14605000I-87500J0D01*
G01*
X19963000Y-12700000D02*
G75*
G03*
X19963000Y-12700000I-87500J0D01*
G01*
X20375750Y-10795000D02*
G75*
G03*
X20375750Y-10795000I-87500J0D01*
G01*
X20439250Y-8890000D02*
G75*
G03*
X20439250Y-8890000I-87500J0D01*
G01*
X20852000Y-12700000D02*
G75*
G03*
X20852000Y-12700000I-87500J0D01*
G01*
X20915500Y-14605000D02*
G75*
G03*
X20915500Y-14605000I-87500J0D01*
G01*
X21328250Y-8890000D02*
G75*
G03*
X21328250Y-8890000I-87500J0D01*
G01*
X21391750Y-10795000D02*
G75*
G03*
X21391750Y-10795000I-87500J0D01*
G01*
X21804500Y-14605000D02*
G75*
G03*
X21804500Y-14605000I-87500J0D01*
G01*
X21868000Y-12700000D02*
G75*
G03*
X21868000Y-12700000I-87500J0D01*
G01*
X22280750Y-10795000D02*
G75*
G03*
X22280750Y-10795000I-87500J0D01*
G01*
X22344250Y-8890000D02*
G75*
G03*
X22344250Y-8890000I-87500J0D01*
G01*
X22757000Y-12700000D02*
G75*
G03*
X22757000Y-12700000I-87500J0D01*
G01*
X22820500Y-14605000D02*
G75*
G03*
X22820500Y-14605000I-87500J0D01*
G01*
X23233250Y-8890000D02*
G75*
G03*
X23233250Y-8890000I-87500J0D01*
G01*
X23296750Y-10795000D02*
G75*
G03*
X23296750Y-10795000I-87500J0D01*
G01*
X23709500Y-14605000D02*
G75*
G03*
X23709500Y-14605000I-87500J0D01*
G01*
X23773000Y-12700000D02*
G75*
G03*
X23773000Y-12700000I-87500J0D01*
G01*
X24185750Y-10795000D02*
G75*
G03*
X24185750Y-10795000I-87500J0D01*
G01*
X24249250Y-8890000D02*
G75*
G03*
X24249250Y-8890000I-87500J0D01*
G01*
X24662000Y-12700000D02*
G75*
G03*
X24662000Y-12700000I-87500J0D01*
G01*
X24725500Y-14605000D02*
G75*
G03*
X24725500Y-14605000I-87500J0D01*
G01*
X25138250Y-8890000D02*
G75*
G03*
X25138250Y-8890000I-87500J0D01*
G01*
X25201750Y-10795000D02*
G75*
G03*
X25201750Y-10795000I-87500J0D01*
G01*
X25376375Y-16510000D02*
G75*
G03*
X25376375Y-16510000I-87500J0D01*
G01*
X25614500Y-14605000D02*
G75*
G03*
X25614500Y-14605000I-87500J0D01*
G01*
X25678000Y-12700000D02*
G75*
G03*
X25678000Y-12700000I-87500J0D01*
G01*
X26090750Y-10795000D02*
G75*
G03*
X26090750Y-10795000I-87500J0D01*
G01*
X26154250Y-8890000D02*
G75*
G03*
X26154250Y-8890000I-87500J0D01*
G01*
X26392375Y-16510000D02*
G75*
G03*
X26392375Y-16510000I-87500J0D01*
G01*
X26567000Y-12700000D02*
G75*
G03*
X26567000Y-12700000I-87500J0D01*
G01*
X26630500Y-14605000D02*
G75*
G03*
X26630500Y-14605000I-87500J0D01*
G01*
X27043250Y-8890000D02*
G75*
G03*
X27043250Y-8890000I-87500J0D01*
G01*
X27106750Y-10795000D02*
G75*
G03*
X27106750Y-10795000I-87500J0D01*
G01*
X27519500Y-14605000D02*
G75*
G03*
X27519500Y-14605000I-87500J0D01*
G01*
X27583000Y-12700000D02*
G75*
G03*
X27583000Y-12700000I-87500J0D01*
G01*
X27757625Y-16510000D02*
G75*
G03*
X27757625Y-16510000I-87500J0D01*
G01*
X27995750Y-10795000D02*
G75*
G03*
X27995750Y-10795000I-87500J0D01*
G01*
X28059250Y-8890000D02*
G75*
G03*
X28059250Y-8890000I-87500J0D01*
G01*
X28472000Y-12700000D02*
G75*
G03*
X28472000Y-12700000I-87500J0D01*
G01*
X28535500Y-14605000D02*
G75*
G03*
X28535500Y-14605000I-87500J0D01*
G01*
X28773625Y-16510000D02*
G75*
G03*
X28773625Y-16510000I-87500J0D01*
G01*
X28948250Y-8890000D02*
G75*
G03*
X28948250Y-8890000I-87500J0D01*
G01*
X29011750Y-10795000D02*
G75*
G03*
X29011750Y-10795000I-87500J0D01*
G01*
X29488000Y-12700000D02*
G75*
G03*
X29488000Y-12700000I-87500J0D01*
G01*
X29900750Y-10795000D02*
G75*
G03*
X29900750Y-10795000I-87500J0D01*
G01*
X29964250Y-8890000D02*
G75*
G03*
X29964250Y-8890000I-87500J0D01*
G01*
X30138875Y-16510000D02*
G75*
G03*
X30138875Y-16510000I-87500J0D01*
G01*
X30916750Y-10795000D02*
G75*
G03*
X30916750Y-10795000I-87500J0D01*
G01*
X31091375Y-14605000D02*
G75*
G03*
X31091375Y-14605000I-87500J0D01*
G01*
X31154875Y-16510000D02*
G75*
G03*
X31154875Y-16510000I-87500J0D01*
G01*
X31567625Y-12700000D02*
G75*
G03*
X31567625Y-12700000I-87500J0D01*
G01*
X31805750Y-8890000D02*
G75*
G03*
X31805750Y-8890000I-87500J0D01*
G01*
X32107375Y-14605000D02*
G75*
G03*
X32107375Y-14605000I-87500J0D01*
G01*
X32282000Y-10795000D02*
G75*
G03*
X32282000Y-10795000I-87500J0D01*
G01*
X32520125Y-16510000D02*
G75*
G03*
X32520125Y-16510000I-87500J0D01*
G01*
X32583625Y-12700000D02*
G75*
G03*
X32583625Y-12700000I-87500J0D01*
G01*
X32821750Y-8890000D02*
G75*
G03*
X32821750Y-8890000I-87500J0D01*
G01*
X33298000Y-10795000D02*
G75*
G03*
X33298000Y-10795000I-87500J0D01*
G01*
X33536125Y-16510000D02*
G75*
G03*
X33536125Y-16510000I-87500J0D01*
G01*
D14*
X19571250Y-5050625D02*
X19571250Y-5230625D01*
X19481250Y-5140625D02*
X19661250Y-5140625D01*
X20116250Y-5050625D02*
X20116250Y-5230625D01*
X20026250Y-5140625D02*
X20206250Y-5140625D01*
D15*
X6613339Y-14014264D02*
X6613339Y-13798736D01*
X6397811Y-13798736D01*
X6397811Y-14014264D01*
X6613339Y-14014264D01*
X9000939Y-14014264D02*
X9000939Y-13798736D01*
X8785411Y-13798736D01*
X8785411Y-14014264D01*
X9000939Y-14014264D01*
X13760899Y-17316264D02*
X13760899Y-17100736D01*
X13545371Y-17100736D01*
X13545371Y-17316264D01*
X13760899Y-17316264D01*
X23760879Y-17316264D02*
X23760879Y-17100736D01*
X23545351Y-17100736D01*
X23545351Y-17316264D01*
X23760879Y-17316264D01*
X30425839Y-14014264D02*
X30425839Y-13798736D01*
X30210311Y-13798736D01*
X30210311Y-14014264D01*
X30425839Y-14014264D01*
X30902089Y-12109264D02*
X30902089Y-11893736D01*
X30686561Y-11893736D01*
X30686561Y-12109264D01*
X30902089Y-12109264D01*
X31140214Y-8299264D02*
X31140214Y-8083736D01*
X30924686Y-8083736D01*
X30924686Y-8299264D01*
X31140214Y-8299264D01*
X32813439Y-14014264D02*
X32813439Y-13798736D01*
X32597911Y-13798736D01*
X32597911Y-14014264D01*
X32813439Y-14014264D01*
X33289689Y-12109264D02*
X33289689Y-11893736D01*
X33074161Y-11893736D01*
X33074161Y-12109264D01*
X33289689Y-12109264D01*
X33527814Y-8299264D02*
X33527814Y-8083736D01*
X33312286Y-8083736D01*
X33312286Y-8299264D01*
X33527814Y-8299264D01*
D16*
X6505575Y-15629890D02*
X6704965Y-15430500D01*
X6505575Y-15231110D01*
X6306185Y-15430500D01*
X6505575Y-15629890D01*
X6508750Y-9089390D02*
X6708140Y-8890000D01*
X6508750Y-8690610D01*
X6309360Y-8890000D01*
X6508750Y-9089390D01*
X6746875Y-16709390D02*
X6946265Y-16510000D01*
X6746875Y-16310610D01*
X6547485Y-16510000D01*
X6746875Y-16709390D01*
X6985000Y-10994390D02*
X7184390Y-10795000D01*
X6985000Y-10595610D01*
X6785610Y-10795000D01*
X6985000Y-10994390D01*
X7223125Y-12899390D02*
X7422515Y-12700000D01*
X7223125Y-12500610D01*
X7023735Y-12700000D01*
X7223125Y-12899390D01*
X7699375Y-14804390D02*
X7898765Y-14605000D01*
X7699375Y-14405610D01*
X7499985Y-14605000D01*
X7699375Y-14804390D01*
X8413750Y-9089390D02*
X8613140Y-8890000D01*
X8413750Y-8690610D01*
X8214360Y-8890000D01*
X8413750Y-9089390D01*
X8893175Y-15629890D02*
X9092565Y-15430500D01*
X8893175Y-15231110D01*
X8693785Y-15430500D01*
X8893175Y-15629890D01*
X9128125Y-16709390D02*
X9327515Y-16510000D01*
X9128125Y-16310610D01*
X8928735Y-16510000D01*
X9128125Y-16709390D01*
X9366250Y-10994390D02*
X9565640Y-10795000D01*
X9366250Y-10595610D01*
X9166860Y-10795000D01*
X9366250Y-10994390D01*
X9842500Y-12899390D02*
X10041890Y-12700000D01*
X9842500Y-12500610D01*
X9643110Y-12700000D01*
X9842500Y-12899390D01*
X10318750Y-9089390D02*
X10518140Y-8890000D01*
X10318750Y-8690610D01*
X10119360Y-8890000D01*
X10318750Y-9089390D01*
X10795000Y-14804390D02*
X10994390Y-14605000D01*
X10795000Y-14405610D01*
X10595610Y-14605000D01*
X10795000Y-14804390D01*
X11271250Y-10994390D02*
X11470640Y-10795000D01*
X11271250Y-10595610D01*
X11071860Y-10795000D01*
X11271250Y-10994390D01*
X11509375Y-16709390D02*
X11708765Y-16510000D01*
X11509375Y-16310610D01*
X11309985Y-16510000D01*
X11509375Y-16709390D01*
X11747500Y-12899390D02*
X11946890Y-12700000D01*
X11747500Y-12500610D01*
X11548110Y-12700000D01*
X11747500Y-12899390D01*
X12223750Y-9089390D02*
X12423140Y-8890000D01*
X12223750Y-8690610D01*
X12024360Y-8890000D01*
X12223750Y-9089390D01*
X12700000Y-14804390D02*
X12899390Y-14605000D01*
X12700000Y-14405610D01*
X12500610Y-14605000D01*
X12700000Y-14804390D01*
X13176250Y-10994390D02*
X13375640Y-10795000D01*
X13176250Y-10595610D01*
X12976860Y-10795000D01*
X13176250Y-10994390D01*
X13652500Y-12899390D02*
X13851890Y-12700000D01*
X13652500Y-12500610D01*
X13453110Y-12700000D01*
X13652500Y-12899390D01*
X13653135Y-15883890D02*
X13852525Y-15684500D01*
X13653135Y-15485110D01*
X13453745Y-15684500D01*
X13653135Y-15883890D01*
X14128750Y-9089390D02*
X14328140Y-8890000D01*
X14128750Y-8690610D01*
X13929360Y-8890000D01*
X14128750Y-9089390D01*
X14605000Y-14804390D02*
X14804390Y-14605000D01*
X14605000Y-14405610D01*
X14405610Y-14605000D01*
X14605000Y-14804390D01*
X15081250Y-10994390D02*
X15280640Y-10795000D01*
X15081250Y-10595610D01*
X14881860Y-10795000D01*
X15081250Y-10994390D01*
X15557500Y-12899390D02*
X15756890Y-12700000D01*
X15557500Y-12500610D01*
X15358110Y-12700000D01*
X15557500Y-12899390D01*
X16033750Y-9089390D02*
X16233140Y-8890000D01*
X16033750Y-8690610D01*
X15834360Y-8890000D01*
X16033750Y-9089390D01*
X16510000Y-14804390D02*
X16709390Y-14605000D01*
X16510000Y-14405610D01*
X16310610Y-14605000D01*
X16510000Y-14804390D01*
X16986250Y-10994390D02*
X17185640Y-10795000D01*
X16986250Y-10595610D01*
X16786860Y-10795000D01*
X16986250Y-10994390D01*
X17462500Y-12899390D02*
X17661890Y-12700000D01*
X17462500Y-12500610D01*
X17263110Y-12700000D01*
X17462500Y-12899390D01*
X17938750Y-9089390D02*
X18138140Y-8890000D01*
X17938750Y-8690610D01*
X17739360Y-8890000D01*
X17938750Y-9089390D01*
X18415000Y-14804390D02*
X18614390Y-14605000D01*
X18415000Y-14405610D01*
X18215610Y-14605000D01*
X18415000Y-14804390D01*
X18653125Y-16709390D02*
X18852515Y-16510000D01*
X18653125Y-16310610D01*
X18453735Y-16510000D01*
X18653125Y-16709390D01*
X18891250Y-10994390D02*
X19090640Y-10795000D01*
X18891250Y-10595610D01*
X18691860Y-10795000D01*
X18891250Y-10994390D01*
X19367500Y-12899390D02*
X19566890Y-12700000D01*
X19367500Y-12500610D01*
X19168110Y-12700000D01*
X19367500Y-12899390D01*
X19843750Y-9089390D02*
X20043140Y-8890000D01*
X19843750Y-8690610D01*
X19644360Y-8890000D01*
X19843750Y-9089390D01*
X20320000Y-14804390D02*
X20519390Y-14605000D01*
X20320000Y-14405610D01*
X20120610Y-14605000D01*
X20320000Y-14804390D01*
X20796250Y-10994390D02*
X20995640Y-10795000D01*
X20796250Y-10595610D01*
X20596860Y-10795000D01*
X20796250Y-10994390D01*
X21272500Y-12899390D02*
X21471890Y-12700000D01*
X21272500Y-12500610D01*
X21073110Y-12700000D01*
X21272500Y-12899390D01*
X21748750Y-9089390D02*
X21948140Y-8890000D01*
X21748750Y-8690610D01*
X21549360Y-8890000D01*
X21748750Y-9089390D01*
X22225000Y-14804390D02*
X22424390Y-14605000D01*
X22225000Y-14405610D01*
X22025610Y-14605000D01*
X22225000Y-14804390D01*
X22701250Y-10994390D02*
X22900640Y-10795000D01*
X22701250Y-10595610D01*
X22501860Y-10795000D01*
X22701250Y-10994390D01*
X23177500Y-12899390D02*
X23376890Y-12700000D01*
X23177500Y-12500610D01*
X22978110Y-12700000D01*
X23177500Y-12899390D01*
X23653115Y-15883890D02*
X23852505Y-15684500D01*
X23653115Y-15485110D01*
X23453725Y-15684500D01*
X23653115Y-15883890D01*
X23653750Y-9089390D02*
X23853140Y-8890000D01*
X23653750Y-8690610D01*
X23454360Y-8890000D01*
X23653750Y-9089390D01*
X24130000Y-14804390D02*
X24329390Y-14605000D01*
X24130000Y-14405610D01*
X23930610Y-14605000D01*
X24130000Y-14804390D01*
X24606250Y-10994390D02*
X24805640Y-10795000D01*
X24606250Y-10595610D01*
X24406860Y-10795000D01*
X24606250Y-10994390D01*
X25082500Y-12899390D02*
X25281890Y-12700000D01*
X25082500Y-12500610D01*
X24883110Y-12700000D01*
X25082500Y-12899390D01*
X25558750Y-9089390D02*
X25758140Y-8890000D01*
X25558750Y-8690610D01*
X25359360Y-8890000D01*
X25558750Y-9089390D01*
X25796875Y-16709390D02*
X25996265Y-16510000D01*
X25796875Y-16310610D01*
X25597485Y-16510000D01*
X25796875Y-16709390D01*
X26035000Y-14804390D02*
X26234390Y-14605000D01*
X26035000Y-14405610D01*
X25835610Y-14605000D01*
X26035000Y-14804390D01*
X26511250Y-10994390D02*
X26710640Y-10795000D01*
X26511250Y-10595610D01*
X26311860Y-10795000D01*
X26511250Y-10994390D01*
X26987500Y-12899390D02*
X27186890Y-12700000D01*
X26987500Y-12500610D01*
X26788110Y-12700000D01*
X26987500Y-12899390D01*
X27463750Y-9089390D02*
X27663140Y-8890000D01*
X27463750Y-8690610D01*
X27264360Y-8890000D01*
X27463750Y-9089390D01*
X27940000Y-14804390D02*
X28139390Y-14605000D01*
X27940000Y-14405610D01*
X27740610Y-14605000D01*
X27940000Y-14804390D01*
X28178125Y-16709390D02*
X28377515Y-16510000D01*
X28178125Y-16310610D01*
X27978735Y-16510000D01*
X28178125Y-16709390D01*
X28416250Y-10994390D02*
X28615640Y-10795000D01*
X28416250Y-10595610D01*
X28216860Y-10795000D01*
X28416250Y-10994390D01*
X28892500Y-12899390D02*
X29091890Y-12700000D01*
X28892500Y-12500610D01*
X28693110Y-12700000D01*
X28892500Y-12899390D01*
X29368750Y-9089390D02*
X29568140Y-8890000D01*
X29368750Y-8690610D01*
X29169360Y-8890000D01*
X29368750Y-9089390D01*
X30318075Y-15629890D02*
X30517465Y-15430500D01*
X30318075Y-15231110D01*
X30118685Y-15430500D01*
X30318075Y-15629890D01*
X30321250Y-10994390D02*
X30520640Y-10795000D01*
X30321250Y-10595610D01*
X30121860Y-10795000D01*
X30321250Y-10994390D01*
X30559375Y-16709390D02*
X30758765Y-16510000D01*
X30559375Y-16310610D01*
X30359985Y-16510000D01*
X30559375Y-16709390D01*
X30794325Y-13724890D02*
X30993715Y-13525500D01*
X30794325Y-13326110D01*
X30594935Y-13525500D01*
X30794325Y-13724890D01*
X31032450Y-9914890D02*
X31231840Y-9715500D01*
X31032450Y-9516110D01*
X30833060Y-9715500D01*
X31032450Y-9914890D01*
X31511875Y-14804390D02*
X31711265Y-14605000D01*
X31511875Y-14405610D01*
X31312485Y-14605000D01*
X31511875Y-14804390D01*
X31988125Y-12899390D02*
X32187515Y-12700000D01*
X31988125Y-12500610D01*
X31788735Y-12700000D01*
X31988125Y-12899390D01*
X32226250Y-9089390D02*
X32425640Y-8890000D01*
X32226250Y-8690610D01*
X32026860Y-8890000D01*
X32226250Y-9089390D01*
X32702500Y-10994390D02*
X32901890Y-10795000D01*
X32702500Y-10595610D01*
X32503110Y-10795000D01*
X32702500Y-10994390D01*
X32705675Y-15629890D02*
X32905065Y-15430500D01*
X32705675Y-15231110D01*
X32506285Y-15430500D01*
X32705675Y-15629890D01*
X32940625Y-16709390D02*
X33140015Y-16510000D01*
X32940625Y-16310610D01*
X32741235Y-16510000D01*
X32940625Y-16709390D01*
X33181925Y-13724890D02*
X33381315Y-13525500D01*
X33181925Y-13326110D01*
X32982535Y-13525500D01*
X33181925Y-13724890D01*
X33420050Y-9914890D02*
X33619440Y-9715500D01*
X33420050Y-9516110D01*
X33220660Y-9715500D01*
X33420050Y-9914890D01*
D11*
X5812027Y-17778984D02*
X5812027Y-17578984D01*
X5812027Y-17578984D02*
X5859646Y-17578984D01*
X5859646Y-17578984D02*
X5888217Y-17588508D01*
X5888217Y-17588508D02*
X5907265Y-17607555D01*
X5907265Y-17607555D02*
X5916789Y-17626603D01*
X5916789Y-17626603D02*
X5926312Y-17664698D01*
X5926312Y-17664698D02*
X5926312Y-17693270D01*
X5926312Y-17693270D02*
X5916789Y-17731365D01*
X5916789Y-17731365D02*
X5907265Y-17750412D01*
X5907265Y-17750412D02*
X5888217Y-17769460D01*
X5888217Y-17769460D02*
X5859646Y-17778984D01*
X5859646Y-17778984D02*
X5812027Y-17778984D01*
X6012027Y-17778984D02*
X6012027Y-17645650D01*
X6012027Y-17683746D02*
X6021551Y-17664698D01*
X6021551Y-17664698D02*
X6031074Y-17655174D01*
X6031074Y-17655174D02*
X6050122Y-17645650D01*
X6050122Y-17645650D02*
X6069170Y-17645650D01*
X6135836Y-17778984D02*
X6135836Y-17645650D01*
X6135836Y-17578984D02*
X6126312Y-17588508D01*
X6126312Y-17588508D02*
X6135836Y-17598031D01*
X6135836Y-17598031D02*
X6145360Y-17588508D01*
X6145360Y-17588508D02*
X6135836Y-17578984D01*
X6135836Y-17578984D02*
X6135836Y-17598031D01*
X6259646Y-17778984D02*
X6240598Y-17769460D01*
X6240598Y-17769460D02*
X6231074Y-17750412D01*
X6231074Y-17750412D02*
X6231074Y-17578984D01*
X6364408Y-17778984D02*
X6345360Y-17769460D01*
X6345360Y-17769460D02*
X6335836Y-17750412D01*
X6335836Y-17750412D02*
X6335836Y-17578984D01*
X6592979Y-17778984D02*
X6592979Y-17578984D01*
X6592979Y-17578984D02*
X6659646Y-17721841D01*
X6659646Y-17721841D02*
X6726312Y-17578984D01*
X6726312Y-17578984D02*
X6726312Y-17778984D01*
X6907265Y-17778984D02*
X6907265Y-17674222D01*
X6907265Y-17674222D02*
X6897741Y-17655174D01*
X6897741Y-17655174D02*
X6878693Y-17645650D01*
X6878693Y-17645650D02*
X6840598Y-17645650D01*
X6840598Y-17645650D02*
X6821551Y-17655174D01*
X6907265Y-17769460D02*
X6888217Y-17778984D01*
X6888217Y-17778984D02*
X6840598Y-17778984D01*
X6840598Y-17778984D02*
X6821551Y-17769460D01*
X6821551Y-17769460D02*
X6812027Y-17750412D01*
X6812027Y-17750412D02*
X6812027Y-17731365D01*
X6812027Y-17731365D02*
X6821551Y-17712317D01*
X6821551Y-17712317D02*
X6840598Y-17702793D01*
X6840598Y-17702793D02*
X6888217Y-17702793D01*
X6888217Y-17702793D02*
X6907265Y-17693270D01*
X7002503Y-17645650D02*
X7002503Y-17845650D01*
X7002503Y-17655174D02*
X7021551Y-17645650D01*
X7021551Y-17645650D02*
X7059646Y-17645650D01*
X7059646Y-17645650D02*
X7078693Y-17655174D01*
X7078693Y-17655174D02*
X7088217Y-17664698D01*
X7088217Y-17664698D02*
X7097741Y-17683746D01*
X7097741Y-17683746D02*
X7097741Y-17740889D01*
X7097741Y-17740889D02*
X7088217Y-17759936D01*
X7088217Y-17759936D02*
X7078693Y-17769460D01*
X7078693Y-17769460D02*
X7059646Y-17778984D01*
X7059646Y-17778984D02*
X7021551Y-17778984D01*
X7021551Y-17778984D02*
X7002503Y-17769460D01*
X7183455Y-17759936D02*
X7192979Y-17769460D01*
X7192979Y-17769460D02*
X7183455Y-17778984D01*
X7183455Y-17778984D02*
X7173932Y-17769460D01*
X7173932Y-17769460D02*
X7183455Y-17759936D01*
X7183455Y-17759936D02*
X7183455Y-17778984D01*
X7183455Y-17655174D02*
X7192979Y-17664698D01*
X7192979Y-17664698D02*
X7183455Y-17674222D01*
X7183455Y-17674222D02*
X7173932Y-17664698D01*
X7173932Y-17664698D02*
X7183455Y-17655174D01*
X7183455Y-17655174D02*
X7183455Y-17674222D01*
D12*
X5401250Y-18032500D02*
X5551250Y-18182500D01*
X5551250Y-18032500D02*
X5401250Y-18182500D01*
D11*
X5916789Y-18198984D02*
X5802503Y-18198984D01*
X5859646Y-18198984D02*
X5859646Y-17998984D01*
X5859646Y-17998984D02*
X5840598Y-18027555D01*
X5840598Y-18027555D02*
X5821551Y-18046603D01*
X5821551Y-18046603D02*
X5802503Y-18056127D01*
X6002503Y-18179936D02*
X6012027Y-18189460D01*
X6012027Y-18189460D02*
X6002503Y-18198984D01*
X6002503Y-18198984D02*
X5992979Y-18189460D01*
X5992979Y-18189460D02*
X6002503Y-18179936D01*
X6002503Y-18179936D02*
X6002503Y-18198984D01*
X6192979Y-17998984D02*
X6097741Y-17998984D01*
X6097741Y-17998984D02*
X6088217Y-18094222D01*
X6088217Y-18094222D02*
X6097741Y-18084698D01*
X6097741Y-18084698D02*
X6116789Y-18075174D01*
X6116789Y-18075174D02*
X6164408Y-18075174D01*
X6164408Y-18075174D02*
X6183455Y-18084698D01*
X6183455Y-18084698D02*
X6192979Y-18094222D01*
X6192979Y-18094222D02*
X6202503Y-18113270D01*
X6202503Y-18113270D02*
X6202503Y-18160889D01*
X6202503Y-18160889D02*
X6192979Y-18179936D01*
X6192979Y-18179936D02*
X6183455Y-18189460D01*
X6183455Y-18189460D02*
X6164408Y-18198984D01*
X6164408Y-18198984D02*
X6116789Y-18198984D01*
X6116789Y-18198984D02*
X6097741Y-18189460D01*
X6097741Y-18189460D02*
X6088217Y-18179936D01*
X6326312Y-17998984D02*
X6345360Y-17998984D01*
X6345360Y-17998984D02*
X6364408Y-18008508D01*
X6364408Y-18008508D02*
X6373932Y-18018031D01*
X6373932Y-18018031D02*
X6383455Y-18037079D01*
X6383455Y-18037079D02*
X6392979Y-18075174D01*
X6392979Y-18075174D02*
X6392979Y-18122793D01*
X6392979Y-18122793D02*
X6383455Y-18160889D01*
X6383455Y-18160889D02*
X6373932Y-18179936D01*
X6373932Y-18179936D02*
X6364408Y-18189460D01*
X6364408Y-18189460D02*
X6345360Y-18198984D01*
X6345360Y-18198984D02*
X6326312Y-18198984D01*
X6326312Y-18198984D02*
X6307265Y-18189460D01*
X6307265Y-18189460D02*
X6297741Y-18179936D01*
X6297741Y-18179936D02*
X6288217Y-18160889D01*
X6288217Y-18160889D02*
X6278693Y-18122793D01*
X6278693Y-18122793D02*
X6278693Y-18075174D01*
X6278693Y-18075174D02*
X6288217Y-18037079D01*
X6288217Y-18037079D02*
X6297741Y-18018031D01*
X6297741Y-18018031D02*
X6307265Y-18008508D01*
X6307265Y-18008508D02*
X6326312Y-17998984D01*
X6516789Y-17998984D02*
X6535836Y-17998984D01*
X6535836Y-17998984D02*
X6554884Y-18008508D01*
X6554884Y-18008508D02*
X6564408Y-18018031D01*
X6564408Y-18018031D02*
X6573932Y-18037079D01*
X6573932Y-18037079D02*
X6583455Y-18075174D01*
X6583455Y-18075174D02*
X6583455Y-18122793D01*
X6583455Y-18122793D02*
X6573932Y-18160889D01*
X6573932Y-18160889D02*
X6564408Y-18179936D01*
X6564408Y-18179936D02*
X6554884Y-18189460D01*
X6554884Y-18189460D02*
X6535836Y-18198984D01*
X6535836Y-18198984D02*
X6516789Y-18198984D01*
X6516789Y-18198984D02*
X6497741Y-18189460D01*
X6497741Y-18189460D02*
X6488217Y-18179936D01*
X6488217Y-18179936D02*
X6478693Y-18160889D01*
X6478693Y-18160889D02*
X6469170Y-18122793D01*
X6469170Y-18122793D02*
X6469170Y-18075174D01*
X6469170Y-18075174D02*
X6478693Y-18037079D01*
X6478693Y-18037079D02*
X6488217Y-18018031D01*
X6488217Y-18018031D02*
X6497741Y-18008508D01*
X6497741Y-18008508D02*
X6516789Y-17998984D01*
X6669170Y-18198984D02*
X6669170Y-18065650D01*
X6669170Y-18084698D02*
X6678693Y-18075174D01*
X6678693Y-18075174D02*
X6697741Y-18065650D01*
X6697741Y-18065650D02*
X6726313Y-18065650D01*
X6726313Y-18065650D02*
X6745360Y-18075174D01*
X6745360Y-18075174D02*
X6754884Y-18094222D01*
X6754884Y-18094222D02*
X6754884Y-18198984D01*
X6754884Y-18094222D02*
X6764408Y-18075174D01*
X6764408Y-18075174D02*
X6783455Y-18065650D01*
X6783455Y-18065650D02*
X6812027Y-18065650D01*
X6812027Y-18065650D02*
X6831074Y-18075174D01*
X6831074Y-18075174D02*
X6840598Y-18094222D01*
X6840598Y-18094222D02*
X6840598Y-18198984D01*
X6935836Y-18198984D02*
X6935836Y-18065650D01*
X6935836Y-18084698D02*
X6945360Y-18075174D01*
X6945360Y-18075174D02*
X6964408Y-18065650D01*
X6964408Y-18065650D02*
X6992979Y-18065650D01*
X6992979Y-18065650D02*
X7012027Y-18075174D01*
X7012027Y-18075174D02*
X7021551Y-18094222D01*
X7021551Y-18094222D02*
X7021551Y-18198984D01*
X7021551Y-18094222D02*
X7031074Y-18075174D01*
X7031074Y-18075174D02*
X7050122Y-18065650D01*
X7050122Y-18065650D02*
X7078693Y-18065650D01*
X7078693Y-18065650D02*
X7097741Y-18075174D01*
X7097741Y-18075174D02*
X7107265Y-18094222D01*
X7107265Y-18094222D02*
X7107265Y-18198984D01*
X7497741Y-17989460D02*
X7326313Y-18246603D01*
X7754884Y-17998984D02*
X7773932Y-17998984D01*
X7773932Y-17998984D02*
X7792979Y-18008508D01*
X7792979Y-18008508D02*
X7802503Y-18018031D01*
X7802503Y-18018031D02*
X7812027Y-18037079D01*
X7812027Y-18037079D02*
X7821551Y-18075174D01*
X7821551Y-18075174D02*
X7821551Y-18122793D01*
X7821551Y-18122793D02*
X7812027Y-18160889D01*
X7812027Y-18160889D02*
X7802503Y-18179936D01*
X7802503Y-18179936D02*
X7792979Y-18189460D01*
X7792979Y-18189460D02*
X7773932Y-18198984D01*
X7773932Y-18198984D02*
X7754884Y-18198984D01*
X7754884Y-18198984D02*
X7735836Y-18189460D01*
X7735836Y-18189460D02*
X7726313Y-18179936D01*
X7726313Y-18179936D02*
X7716789Y-18160889D01*
X7716789Y-18160889D02*
X7707265Y-18122793D01*
X7707265Y-18122793D02*
X7707265Y-18075174D01*
X7707265Y-18075174D02*
X7716789Y-18037079D01*
X7716789Y-18037079D02*
X7726313Y-18018031D01*
X7726313Y-18018031D02*
X7735836Y-18008508D01*
X7735836Y-18008508D02*
X7754884Y-17998984D01*
X7907265Y-18179936D02*
X7916789Y-18189460D01*
X7916789Y-18189460D02*
X7907265Y-18198984D01*
X7907265Y-18198984D02*
X7897741Y-18189460D01*
X7897741Y-18189460D02*
X7907265Y-18179936D01*
X7907265Y-18179936D02*
X7907265Y-18198984D01*
X8040598Y-17998984D02*
X8059646Y-17998984D01*
X8059646Y-17998984D02*
X8078694Y-18008508D01*
X8078694Y-18008508D02*
X8088217Y-18018031D01*
X8088217Y-18018031D02*
X8097741Y-18037079D01*
X8097741Y-18037079D02*
X8107265Y-18075174D01*
X8107265Y-18075174D02*
X8107265Y-18122793D01*
X8107265Y-18122793D02*
X8097741Y-18160889D01*
X8097741Y-18160889D02*
X8088217Y-18179936D01*
X8088217Y-18179936D02*
X8078694Y-18189460D01*
X8078694Y-18189460D02*
X8059646Y-18198984D01*
X8059646Y-18198984D02*
X8040598Y-18198984D01*
X8040598Y-18198984D02*
X8021551Y-18189460D01*
X8021551Y-18189460D02*
X8012027Y-18179936D01*
X8012027Y-18179936D02*
X8002503Y-18160889D01*
X8002503Y-18160889D02*
X7992979Y-18122793D01*
X7992979Y-18122793D02*
X7992979Y-18075174D01*
X7992979Y-18075174D02*
X8002503Y-18037079D01*
X8002503Y-18037079D02*
X8012027Y-18018031D01*
X8012027Y-18018031D02*
X8021551Y-18008508D01*
X8021551Y-18008508D02*
X8040598Y-17998984D01*
X8288217Y-17998984D02*
X8192979Y-17998984D01*
X8192979Y-17998984D02*
X8183456Y-18094222D01*
X8183456Y-18094222D02*
X8192979Y-18084698D01*
X8192979Y-18084698D02*
X8212027Y-18075174D01*
X8212027Y-18075174D02*
X8259646Y-18075174D01*
X8259646Y-18075174D02*
X8278694Y-18084698D01*
X8278694Y-18084698D02*
X8288217Y-18094222D01*
X8288217Y-18094222D02*
X8297741Y-18113270D01*
X8297741Y-18113270D02*
X8297741Y-18160889D01*
X8297741Y-18160889D02*
X8288217Y-18179936D01*
X8288217Y-18179936D02*
X8278694Y-18189460D01*
X8278694Y-18189460D02*
X8259646Y-18198984D01*
X8259646Y-18198984D02*
X8212027Y-18198984D01*
X8212027Y-18198984D02*
X8192979Y-18189460D01*
X8192979Y-18189460D02*
X8183456Y-18179936D01*
X8392979Y-18198984D02*
X8431075Y-18198984D01*
X8431075Y-18198984D02*
X8450122Y-18189460D01*
X8450122Y-18189460D02*
X8459646Y-18179936D01*
X8459646Y-18179936D02*
X8478694Y-18151365D01*
X8478694Y-18151365D02*
X8488218Y-18113270D01*
X8488218Y-18113270D02*
X8488218Y-18037079D01*
X8488218Y-18037079D02*
X8478694Y-18018031D01*
X8478694Y-18018031D02*
X8469170Y-18008508D01*
X8469170Y-18008508D02*
X8450122Y-17998984D01*
X8450122Y-17998984D02*
X8412027Y-17998984D01*
X8412027Y-17998984D02*
X8392979Y-18008508D01*
X8392979Y-18008508D02*
X8383456Y-18018031D01*
X8383456Y-18018031D02*
X8373932Y-18037079D01*
X8373932Y-18037079D02*
X8373932Y-18084698D01*
X8373932Y-18084698D02*
X8383456Y-18103746D01*
X8383456Y-18103746D02*
X8392979Y-18113270D01*
X8392979Y-18113270D02*
X8412027Y-18122793D01*
X8412027Y-18122793D02*
X8450122Y-18122793D01*
X8450122Y-18122793D02*
X8469170Y-18113270D01*
X8469170Y-18113270D02*
X8478694Y-18103746D01*
X8478694Y-18103746D02*
X8488218Y-18084698D01*
X8678694Y-18198984D02*
X8564408Y-18198984D01*
X8621551Y-18198984D02*
X8621551Y-17998984D01*
X8621551Y-17998984D02*
X8602503Y-18027555D01*
X8602503Y-18027555D02*
X8583456Y-18046603D01*
X8583456Y-18046603D02*
X8564408Y-18056127D01*
X8754884Y-17998984D02*
X8754884Y-18037079D01*
X8831075Y-17998984D02*
X8831075Y-18037079D01*
X9126313Y-18275174D02*
X9116789Y-18265650D01*
X9116789Y-18265650D02*
X9097741Y-18237079D01*
X9097741Y-18237079D02*
X9088218Y-18218031D01*
X9088218Y-18218031D02*
X9078694Y-18189460D01*
X9078694Y-18189460D02*
X9069170Y-18141841D01*
X9069170Y-18141841D02*
X9069170Y-18103746D01*
X9069170Y-18103746D02*
X9078694Y-18056127D01*
X9078694Y-18056127D02*
X9088218Y-18027555D01*
X9088218Y-18027555D02*
X9097741Y-18008508D01*
X9097741Y-18008508D02*
X9116789Y-17979936D01*
X9116789Y-17979936D02*
X9126313Y-17970412D01*
X9192980Y-18018031D02*
X9202503Y-18008508D01*
X9202503Y-18008508D02*
X9221551Y-17998984D01*
X9221551Y-17998984D02*
X9269170Y-17998984D01*
X9269170Y-17998984D02*
X9288218Y-18008508D01*
X9288218Y-18008508D02*
X9297741Y-18018031D01*
X9297741Y-18018031D02*
X9307265Y-18037079D01*
X9307265Y-18037079D02*
X9307265Y-18056127D01*
X9307265Y-18056127D02*
X9297741Y-18084698D01*
X9297741Y-18084698D02*
X9183456Y-18198984D01*
X9183456Y-18198984D02*
X9307265Y-18198984D01*
X9545361Y-18198984D02*
X9545361Y-17998984D01*
X9631075Y-18198984D02*
X9631075Y-18094222D01*
X9631075Y-18094222D02*
X9621551Y-18075174D01*
X9621551Y-18075174D02*
X9602503Y-18065650D01*
X9602503Y-18065650D02*
X9573932Y-18065650D01*
X9573932Y-18065650D02*
X9554884Y-18075174D01*
X9554884Y-18075174D02*
X9545361Y-18084698D01*
X9754884Y-18198984D02*
X9735837Y-18189460D01*
X9735837Y-18189460D02*
X9726313Y-18179936D01*
X9726313Y-18179936D02*
X9716789Y-18160889D01*
X9716789Y-18160889D02*
X9716789Y-18103746D01*
X9716789Y-18103746D02*
X9726313Y-18084698D01*
X9726313Y-18084698D02*
X9735837Y-18075174D01*
X9735837Y-18075174D02*
X9754884Y-18065650D01*
X9754884Y-18065650D02*
X9783456Y-18065650D01*
X9783456Y-18065650D02*
X9802503Y-18075174D01*
X9802503Y-18075174D02*
X9812027Y-18084698D01*
X9812027Y-18084698D02*
X9821551Y-18103746D01*
X9821551Y-18103746D02*
X9821551Y-18160889D01*
X9821551Y-18160889D02*
X9812027Y-18179936D01*
X9812027Y-18179936D02*
X9802503Y-18189460D01*
X9802503Y-18189460D02*
X9783456Y-18198984D01*
X9783456Y-18198984D02*
X9754884Y-18198984D01*
X9935837Y-18198984D02*
X9916789Y-18189460D01*
X9916789Y-18189460D02*
X9907265Y-18170412D01*
X9907265Y-18170412D02*
X9907265Y-17998984D01*
X10088218Y-18189460D02*
X10069170Y-18198984D01*
X10069170Y-18198984D02*
X10031075Y-18198984D01*
X10031075Y-18198984D02*
X10012027Y-18189460D01*
X10012027Y-18189460D02*
X10002503Y-18170412D01*
X10002503Y-18170412D02*
X10002503Y-18094222D01*
X10002503Y-18094222D02*
X10012027Y-18075174D01*
X10012027Y-18075174D02*
X10031075Y-18065650D01*
X10031075Y-18065650D02*
X10069170Y-18065650D01*
X10069170Y-18065650D02*
X10088218Y-18075174D01*
X10088218Y-18075174D02*
X10097742Y-18094222D01*
X10097742Y-18094222D02*
X10097742Y-18113270D01*
X10097742Y-18113270D02*
X10002503Y-18132317D01*
X10173932Y-18189460D02*
X10192980Y-18198984D01*
X10192980Y-18198984D02*
X10231075Y-18198984D01*
X10231075Y-18198984D02*
X10250123Y-18189460D01*
X10250123Y-18189460D02*
X10259646Y-18170412D01*
X10259646Y-18170412D02*
X10259646Y-18160889D01*
X10259646Y-18160889D02*
X10250123Y-18141841D01*
X10250123Y-18141841D02*
X10231075Y-18132317D01*
X10231075Y-18132317D02*
X10202503Y-18132317D01*
X10202503Y-18132317D02*
X10183456Y-18122793D01*
X10183456Y-18122793D02*
X10173932Y-18103746D01*
X10173932Y-18103746D02*
X10173932Y-18094222D01*
X10173932Y-18094222D02*
X10183456Y-18075174D01*
X10183456Y-18075174D02*
X10202503Y-18065650D01*
X10202503Y-18065650D02*
X10231075Y-18065650D01*
X10231075Y-18065650D02*
X10250123Y-18075174D01*
X10326313Y-18275174D02*
X10335837Y-18265650D01*
X10335837Y-18265650D02*
X10354884Y-18237079D01*
X10354884Y-18237079D02*
X10364408Y-18218031D01*
X10364408Y-18218031D02*
X10373932Y-18189460D01*
X10373932Y-18189460D02*
X10383456Y-18141841D01*
X10383456Y-18141841D02*
X10383456Y-18103746D01*
X10383456Y-18103746D02*
X10373932Y-18056127D01*
X10373932Y-18056127D02*
X10364408Y-18027555D01*
X10364408Y-18027555D02*
X10354884Y-18008508D01*
X10354884Y-18008508D02*
X10335837Y-17979936D01*
X10335837Y-17979936D02*
X10326313Y-17970412D01*
X10688218Y-18275174D02*
X10678694Y-18265650D01*
X10678694Y-18265650D02*
X10659646Y-18237079D01*
X10659646Y-18237079D02*
X10650123Y-18218031D01*
X10650123Y-18218031D02*
X10640599Y-18189460D01*
X10640599Y-18189460D02*
X10631075Y-18141841D01*
X10631075Y-18141841D02*
X10631075Y-18103746D01*
X10631075Y-18103746D02*
X10640599Y-18056127D01*
X10640599Y-18056127D02*
X10650123Y-18027555D01*
X10650123Y-18027555D02*
X10659646Y-18008508D01*
X10659646Y-18008508D02*
X10678694Y-17979936D01*
X10678694Y-17979936D02*
X10688218Y-17970412D01*
X10764408Y-18065650D02*
X10764408Y-18198984D01*
X10764408Y-18084698D02*
X10773932Y-18075174D01*
X10773932Y-18075174D02*
X10792980Y-18065650D01*
X10792980Y-18065650D02*
X10821551Y-18065650D01*
X10821551Y-18065650D02*
X10840599Y-18075174D01*
X10840599Y-18075174D02*
X10850123Y-18094222D01*
X10850123Y-18094222D02*
X10850123Y-18198984D01*
X10973932Y-18198984D02*
X10954884Y-18189460D01*
X10954884Y-18189460D02*
X10945361Y-18179936D01*
X10945361Y-18179936D02*
X10935837Y-18160889D01*
X10935837Y-18160889D02*
X10935837Y-18103746D01*
X10935837Y-18103746D02*
X10945361Y-18084698D01*
X10945361Y-18084698D02*
X10954884Y-18075174D01*
X10954884Y-18075174D02*
X10973932Y-18065650D01*
X10973932Y-18065650D02*
X11002504Y-18065650D01*
X11002504Y-18065650D02*
X11021551Y-18075174D01*
X11021551Y-18075174D02*
X11031075Y-18084698D01*
X11031075Y-18084698D02*
X11040599Y-18103746D01*
X11040599Y-18103746D02*
X11040599Y-18160889D01*
X11040599Y-18160889D02*
X11031075Y-18179936D01*
X11031075Y-18179936D02*
X11021551Y-18189460D01*
X11021551Y-18189460D02*
X11002504Y-18198984D01*
X11002504Y-18198984D02*
X10973932Y-18198984D01*
X11097742Y-18065650D02*
X11173932Y-18065650D01*
X11126313Y-17998984D02*
X11126313Y-18170412D01*
X11126313Y-18170412D02*
X11135837Y-18189460D01*
X11135837Y-18189460D02*
X11154884Y-18198984D01*
X11154884Y-18198984D02*
X11173932Y-18198984D01*
X11392980Y-18065650D02*
X11392980Y-18265650D01*
X11392980Y-18075174D02*
X11412027Y-18065650D01*
X11412027Y-18065650D02*
X11450123Y-18065650D01*
X11450123Y-18065650D02*
X11469170Y-18075174D01*
X11469170Y-18075174D02*
X11478694Y-18084698D01*
X11478694Y-18084698D02*
X11488218Y-18103746D01*
X11488218Y-18103746D02*
X11488218Y-18160889D01*
X11488218Y-18160889D02*
X11478694Y-18179936D01*
X11478694Y-18179936D02*
X11469170Y-18189460D01*
X11469170Y-18189460D02*
X11450123Y-18198984D01*
X11450123Y-18198984D02*
X11412027Y-18198984D01*
X11412027Y-18198984D02*
X11392980Y-18189460D01*
X11602503Y-18198984D02*
X11583456Y-18189460D01*
X11583456Y-18189460D02*
X11573932Y-18170412D01*
X11573932Y-18170412D02*
X11573932Y-17998984D01*
X11764408Y-18198984D02*
X11764408Y-18094222D01*
X11764408Y-18094222D02*
X11754884Y-18075174D01*
X11754884Y-18075174D02*
X11735837Y-18065650D01*
X11735837Y-18065650D02*
X11697742Y-18065650D01*
X11697742Y-18065650D02*
X11678694Y-18075174D01*
X11764408Y-18189460D02*
X11745361Y-18198984D01*
X11745361Y-18198984D02*
X11697742Y-18198984D01*
X11697742Y-18198984D02*
X11678694Y-18189460D01*
X11678694Y-18189460D02*
X11669170Y-18170412D01*
X11669170Y-18170412D02*
X11669170Y-18151365D01*
X11669170Y-18151365D02*
X11678694Y-18132317D01*
X11678694Y-18132317D02*
X11697742Y-18122793D01*
X11697742Y-18122793D02*
X11745361Y-18122793D01*
X11745361Y-18122793D02*
X11764408Y-18113270D01*
X11831075Y-18065650D02*
X11907265Y-18065650D01*
X11859646Y-17998984D02*
X11859646Y-18170412D01*
X11859646Y-18170412D02*
X11869170Y-18189460D01*
X11869170Y-18189460D02*
X11888218Y-18198984D01*
X11888218Y-18198984D02*
X11907265Y-18198984D01*
X12050123Y-18189460D02*
X12031075Y-18198984D01*
X12031075Y-18198984D02*
X11992980Y-18198984D01*
X11992980Y-18198984D02*
X11973932Y-18189460D01*
X11973932Y-18189460D02*
X11964408Y-18170412D01*
X11964408Y-18170412D02*
X11964408Y-18094222D01*
X11964408Y-18094222D02*
X11973932Y-18075174D01*
X11973932Y-18075174D02*
X11992980Y-18065650D01*
X11992980Y-18065650D02*
X12031075Y-18065650D01*
X12031075Y-18065650D02*
X12050123Y-18075174D01*
X12050123Y-18075174D02*
X12059646Y-18094222D01*
X12059646Y-18094222D02*
X12059646Y-18113270D01*
X12059646Y-18113270D02*
X11964408Y-18132317D01*
X12231075Y-18198984D02*
X12231075Y-17998984D01*
X12231075Y-18189460D02*
X12212027Y-18198984D01*
X12212027Y-18198984D02*
X12173932Y-18198984D01*
X12173932Y-18198984D02*
X12154884Y-18189460D01*
X12154884Y-18189460D02*
X12145361Y-18179936D01*
X12145361Y-18179936D02*
X12135837Y-18160889D01*
X12135837Y-18160889D02*
X12135837Y-18103746D01*
X12135837Y-18103746D02*
X12145361Y-18084698D01*
X12145361Y-18084698D02*
X12154884Y-18075174D01*
X12154884Y-18075174D02*
X12173932Y-18065650D01*
X12173932Y-18065650D02*
X12212027Y-18065650D01*
X12212027Y-18065650D02*
X12231075Y-18075174D01*
X12307265Y-18275174D02*
X12316789Y-18265650D01*
X12316789Y-18265650D02*
X12335837Y-18237079D01*
X12335837Y-18237079D02*
X12345361Y-18218031D01*
X12345361Y-18218031D02*
X12354884Y-18189460D01*
X12354884Y-18189460D02*
X12364408Y-18141841D01*
X12364408Y-18141841D02*
X12364408Y-18103746D01*
X12364408Y-18103746D02*
X12354884Y-18056127D01*
X12354884Y-18056127D02*
X12345361Y-18027555D01*
X12345361Y-18027555D02*
X12335837Y-18008508D01*
X12335837Y-18008508D02*
X12316789Y-17979936D01*
X12316789Y-17979936D02*
X12307265Y-17970412D01*
D13*
X5551250Y-18377500D02*
G75*
G03*
X5551250Y-18377500I-87500J0D01*
G01*
D11*
X5916789Y-18468984D02*
X5802503Y-18468984D01*
X5859646Y-18468984D02*
X5859646Y-18268984D01*
X5859646Y-18268984D02*
X5840598Y-18297555D01*
X5840598Y-18297555D02*
X5821551Y-18316603D01*
X5821551Y-18316603D02*
X5802503Y-18326127D01*
X6002503Y-18449936D02*
X6012027Y-18459460D01*
X6012027Y-18459460D02*
X6002503Y-18468984D01*
X6002503Y-18468984D02*
X5992979Y-18459460D01*
X5992979Y-18459460D02*
X6002503Y-18449936D01*
X6002503Y-18449936D02*
X6002503Y-18468984D01*
X6078693Y-18268984D02*
X6212027Y-18268984D01*
X6212027Y-18268984D02*
X6126312Y-18468984D01*
X6383455Y-18268984D02*
X6288217Y-18268984D01*
X6288217Y-18268984D02*
X6278693Y-18364222D01*
X6278693Y-18364222D02*
X6288217Y-18354698D01*
X6288217Y-18354698D02*
X6307265Y-18345174D01*
X6307265Y-18345174D02*
X6354884Y-18345174D01*
X6354884Y-18345174D02*
X6373932Y-18354698D01*
X6373932Y-18354698D02*
X6383455Y-18364222D01*
X6383455Y-18364222D02*
X6392979Y-18383270D01*
X6392979Y-18383270D02*
X6392979Y-18430889D01*
X6392979Y-18430889D02*
X6383455Y-18449936D01*
X6383455Y-18449936D02*
X6373932Y-18459460D01*
X6373932Y-18459460D02*
X6354884Y-18468984D01*
X6354884Y-18468984D02*
X6307265Y-18468984D01*
X6307265Y-18468984D02*
X6288217Y-18459460D01*
X6288217Y-18459460D02*
X6278693Y-18449936D01*
X6516789Y-18268984D02*
X6535836Y-18268984D01*
X6535836Y-18268984D02*
X6554884Y-18278508D01*
X6554884Y-18278508D02*
X6564408Y-18288031D01*
X6564408Y-18288031D02*
X6573932Y-18307079D01*
X6573932Y-18307079D02*
X6583455Y-18345174D01*
X6583455Y-18345174D02*
X6583455Y-18392793D01*
X6583455Y-18392793D02*
X6573932Y-18430889D01*
X6573932Y-18430889D02*
X6564408Y-18449936D01*
X6564408Y-18449936D02*
X6554884Y-18459460D01*
X6554884Y-18459460D02*
X6535836Y-18468984D01*
X6535836Y-18468984D02*
X6516789Y-18468984D01*
X6516789Y-18468984D02*
X6497741Y-18459460D01*
X6497741Y-18459460D02*
X6488217Y-18449936D01*
X6488217Y-18449936D02*
X6478693Y-18430889D01*
X6478693Y-18430889D02*
X6469170Y-18392793D01*
X6469170Y-18392793D02*
X6469170Y-18345174D01*
X6469170Y-18345174D02*
X6478693Y-18307079D01*
X6478693Y-18307079D02*
X6488217Y-18288031D01*
X6488217Y-18288031D02*
X6497741Y-18278508D01*
X6497741Y-18278508D02*
X6516789Y-18268984D01*
X6669170Y-18468984D02*
X6669170Y-18335650D01*
X6669170Y-18354698D02*
X6678693Y-18345174D01*
X6678693Y-18345174D02*
X6697741Y-18335650D01*
X6697741Y-18335650D02*
X6726313Y-18335650D01*
X6726313Y-18335650D02*
X6745360Y-18345174D01*
X6745360Y-18345174D02*
X6754884Y-18364222D01*
X6754884Y-18364222D02*
X6754884Y-18468984D01*
X6754884Y-18364222D02*
X6764408Y-18345174D01*
X6764408Y-18345174D02*
X6783455Y-18335650D01*
X6783455Y-18335650D02*
X6812027Y-18335650D01*
X6812027Y-18335650D02*
X6831074Y-18345174D01*
X6831074Y-18345174D02*
X6840598Y-18364222D01*
X6840598Y-18364222D02*
X6840598Y-18468984D01*
X6935836Y-18468984D02*
X6935836Y-18335650D01*
X6935836Y-18354698D02*
X6945360Y-18345174D01*
X6945360Y-18345174D02*
X6964408Y-18335650D01*
X6964408Y-18335650D02*
X6992979Y-18335650D01*
X6992979Y-18335650D02*
X7012027Y-18345174D01*
X7012027Y-18345174D02*
X7021551Y-18364222D01*
X7021551Y-18364222D02*
X7021551Y-18468984D01*
X7021551Y-18364222D02*
X7031074Y-18345174D01*
X7031074Y-18345174D02*
X7050122Y-18335650D01*
X7050122Y-18335650D02*
X7078693Y-18335650D01*
X7078693Y-18335650D02*
X7097741Y-18345174D01*
X7097741Y-18345174D02*
X7107265Y-18364222D01*
X7107265Y-18364222D02*
X7107265Y-18468984D01*
X7497741Y-18259460D02*
X7326313Y-18516603D01*
X7754884Y-18268984D02*
X7773932Y-18268984D01*
X7773932Y-18268984D02*
X7792979Y-18278508D01*
X7792979Y-18278508D02*
X7802503Y-18288031D01*
X7802503Y-18288031D02*
X7812027Y-18307079D01*
X7812027Y-18307079D02*
X7821551Y-18345174D01*
X7821551Y-18345174D02*
X7821551Y-18392793D01*
X7821551Y-18392793D02*
X7812027Y-18430889D01*
X7812027Y-18430889D02*
X7802503Y-18449936D01*
X7802503Y-18449936D02*
X7792979Y-18459460D01*
X7792979Y-18459460D02*
X7773932Y-18468984D01*
X7773932Y-18468984D02*
X7754884Y-18468984D01*
X7754884Y-18468984D02*
X7735836Y-18459460D01*
X7735836Y-18459460D02*
X7726313Y-18449936D01*
X7726313Y-18449936D02*
X7716789Y-18430889D01*
X7716789Y-18430889D02*
X7707265Y-18392793D01*
X7707265Y-18392793D02*
X7707265Y-18345174D01*
X7707265Y-18345174D02*
X7716789Y-18307079D01*
X7716789Y-18307079D02*
X7726313Y-18288031D01*
X7726313Y-18288031D02*
X7735836Y-18278508D01*
X7735836Y-18278508D02*
X7754884Y-18268984D01*
X7907265Y-18449936D02*
X7916789Y-18459460D01*
X7916789Y-18459460D02*
X7907265Y-18468984D01*
X7907265Y-18468984D02*
X7897741Y-18459460D01*
X7897741Y-18459460D02*
X7907265Y-18449936D01*
X7907265Y-18449936D02*
X7907265Y-18468984D01*
X8040598Y-18268984D02*
X8059646Y-18268984D01*
X8059646Y-18268984D02*
X8078694Y-18278508D01*
X8078694Y-18278508D02*
X8088217Y-18288031D01*
X8088217Y-18288031D02*
X8097741Y-18307079D01*
X8097741Y-18307079D02*
X8107265Y-18345174D01*
X8107265Y-18345174D02*
X8107265Y-18392793D01*
X8107265Y-18392793D02*
X8097741Y-18430889D01*
X8097741Y-18430889D02*
X8088217Y-18449936D01*
X8088217Y-18449936D02*
X8078694Y-18459460D01*
X8078694Y-18459460D02*
X8059646Y-18468984D01*
X8059646Y-18468984D02*
X8040598Y-18468984D01*
X8040598Y-18468984D02*
X8021551Y-18459460D01*
X8021551Y-18459460D02*
X8012027Y-18449936D01*
X8012027Y-18449936D02*
X8002503Y-18430889D01*
X8002503Y-18430889D02*
X7992979Y-18392793D01*
X7992979Y-18392793D02*
X7992979Y-18345174D01*
X7992979Y-18345174D02*
X8002503Y-18307079D01*
X8002503Y-18307079D02*
X8012027Y-18288031D01*
X8012027Y-18288031D02*
X8021551Y-18278508D01*
X8021551Y-18278508D02*
X8040598Y-18268984D01*
X8278694Y-18268984D02*
X8240598Y-18268984D01*
X8240598Y-18268984D02*
X8221551Y-18278508D01*
X8221551Y-18278508D02*
X8212027Y-18288031D01*
X8212027Y-18288031D02*
X8192979Y-18316603D01*
X8192979Y-18316603D02*
X8183456Y-18354698D01*
X8183456Y-18354698D02*
X8183456Y-18430889D01*
X8183456Y-18430889D02*
X8192979Y-18449936D01*
X8192979Y-18449936D02*
X8202503Y-18459460D01*
X8202503Y-18459460D02*
X8221551Y-18468984D01*
X8221551Y-18468984D02*
X8259646Y-18468984D01*
X8259646Y-18468984D02*
X8278694Y-18459460D01*
X8278694Y-18459460D02*
X8288217Y-18449936D01*
X8288217Y-18449936D02*
X8297741Y-18430889D01*
X8297741Y-18430889D02*
X8297741Y-18383270D01*
X8297741Y-18383270D02*
X8288217Y-18364222D01*
X8288217Y-18364222D02*
X8278694Y-18354698D01*
X8278694Y-18354698D02*
X8259646Y-18345174D01*
X8259646Y-18345174D02*
X8221551Y-18345174D01*
X8221551Y-18345174D02*
X8202503Y-18354698D01*
X8202503Y-18354698D02*
X8192979Y-18364222D01*
X8192979Y-18364222D02*
X8183456Y-18383270D01*
X8412027Y-18354698D02*
X8392979Y-18345174D01*
X8392979Y-18345174D02*
X8383456Y-18335650D01*
X8383456Y-18335650D02*
X8373932Y-18316603D01*
X8373932Y-18316603D02*
X8373932Y-18307079D01*
X8373932Y-18307079D02*
X8383456Y-18288031D01*
X8383456Y-18288031D02*
X8392979Y-18278508D01*
X8392979Y-18278508D02*
X8412027Y-18268984D01*
X8412027Y-18268984D02*
X8450122Y-18268984D01*
X8450122Y-18268984D02*
X8469170Y-18278508D01*
X8469170Y-18278508D02*
X8478694Y-18288031D01*
X8478694Y-18288031D02*
X8488218Y-18307079D01*
X8488218Y-18307079D02*
X8488218Y-18316603D01*
X8488218Y-18316603D02*
X8478694Y-18335650D01*
X8478694Y-18335650D02*
X8469170Y-18345174D01*
X8469170Y-18345174D02*
X8450122Y-18354698D01*
X8450122Y-18354698D02*
X8412027Y-18354698D01*
X8412027Y-18354698D02*
X8392979Y-18364222D01*
X8392979Y-18364222D02*
X8383456Y-18373746D01*
X8383456Y-18373746D02*
X8373932Y-18392793D01*
X8373932Y-18392793D02*
X8373932Y-18430889D01*
X8373932Y-18430889D02*
X8383456Y-18449936D01*
X8383456Y-18449936D02*
X8392979Y-18459460D01*
X8392979Y-18459460D02*
X8412027Y-18468984D01*
X8412027Y-18468984D02*
X8450122Y-18468984D01*
X8450122Y-18468984D02*
X8469170Y-18459460D01*
X8469170Y-18459460D02*
X8478694Y-18449936D01*
X8478694Y-18449936D02*
X8488218Y-18430889D01*
X8488218Y-18430889D02*
X8488218Y-18392793D01*
X8488218Y-18392793D02*
X8478694Y-18373746D01*
X8478694Y-18373746D02*
X8469170Y-18364222D01*
X8469170Y-18364222D02*
X8450122Y-18354698D01*
X8583456Y-18468984D02*
X8621551Y-18468984D01*
X8621551Y-18468984D02*
X8640599Y-18459460D01*
X8640599Y-18459460D02*
X8650122Y-18449936D01*
X8650122Y-18449936D02*
X8669170Y-18421365D01*
X8669170Y-18421365D02*
X8678694Y-18383270D01*
X8678694Y-18383270D02*
X8678694Y-18307079D01*
X8678694Y-18307079D02*
X8669170Y-18288031D01*
X8669170Y-18288031D02*
X8659646Y-18278508D01*
X8659646Y-18278508D02*
X8640599Y-18268984D01*
X8640599Y-18268984D02*
X8602503Y-18268984D01*
X8602503Y-18268984D02*
X8583456Y-18278508D01*
X8583456Y-18278508D02*
X8573932Y-18288031D01*
X8573932Y-18288031D02*
X8564408Y-18307079D01*
X8564408Y-18307079D02*
X8564408Y-18354698D01*
X8564408Y-18354698D02*
X8573932Y-18373746D01*
X8573932Y-18373746D02*
X8583456Y-18383270D01*
X8583456Y-18383270D02*
X8602503Y-18392793D01*
X8602503Y-18392793D02*
X8640599Y-18392793D01*
X8640599Y-18392793D02*
X8659646Y-18383270D01*
X8659646Y-18383270D02*
X8669170Y-18373746D01*
X8669170Y-18373746D02*
X8678694Y-18354698D01*
X8754884Y-18268984D02*
X8754884Y-18307079D01*
X8831075Y-18268984D02*
X8831075Y-18307079D01*
X9126313Y-18545174D02*
X9116789Y-18535650D01*
X9116789Y-18535650D02*
X9097741Y-18507079D01*
X9097741Y-18507079D02*
X9088218Y-18488031D01*
X9088218Y-18488031D02*
X9078694Y-18459460D01*
X9078694Y-18459460D02*
X9069170Y-18411841D01*
X9069170Y-18411841D02*
X9069170Y-18373746D01*
X9069170Y-18373746D02*
X9078694Y-18326127D01*
X9078694Y-18326127D02*
X9088218Y-18297555D01*
X9088218Y-18297555D02*
X9097741Y-18278508D01*
X9097741Y-18278508D02*
X9116789Y-18249936D01*
X9116789Y-18249936D02*
X9126313Y-18240412D01*
X9307265Y-18468984D02*
X9192980Y-18468984D01*
X9250122Y-18468984D02*
X9250122Y-18268984D01*
X9250122Y-18268984D02*
X9231075Y-18297555D01*
X9231075Y-18297555D02*
X9212027Y-18316603D01*
X9212027Y-18316603D02*
X9192980Y-18326127D01*
X9383456Y-18288031D02*
X9392980Y-18278508D01*
X9392980Y-18278508D02*
X9412027Y-18268984D01*
X9412027Y-18268984D02*
X9459646Y-18268984D01*
X9459646Y-18268984D02*
X9478694Y-18278508D01*
X9478694Y-18278508D02*
X9488218Y-18288031D01*
X9488218Y-18288031D02*
X9497741Y-18307079D01*
X9497741Y-18307079D02*
X9497741Y-18326127D01*
X9497741Y-18326127D02*
X9488218Y-18354698D01*
X9488218Y-18354698D02*
X9373932Y-18468984D01*
X9373932Y-18468984D02*
X9497741Y-18468984D01*
X9573932Y-18288031D02*
X9583456Y-18278508D01*
X9583456Y-18278508D02*
X9602503Y-18268984D01*
X9602503Y-18268984D02*
X9650122Y-18268984D01*
X9650122Y-18268984D02*
X9669170Y-18278508D01*
X9669170Y-18278508D02*
X9678694Y-18288031D01*
X9678694Y-18288031D02*
X9688218Y-18307079D01*
X9688218Y-18307079D02*
X9688218Y-18326127D01*
X9688218Y-18326127D02*
X9678694Y-18354698D01*
X9678694Y-18354698D02*
X9564408Y-18468984D01*
X9564408Y-18468984D02*
X9688218Y-18468984D01*
X9926313Y-18468984D02*
X9926313Y-18268984D01*
X10012027Y-18468984D02*
X10012027Y-18364222D01*
X10012027Y-18364222D02*
X10002503Y-18345174D01*
X10002503Y-18345174D02*
X9983456Y-18335650D01*
X9983456Y-18335650D02*
X9954884Y-18335650D01*
X9954884Y-18335650D02*
X9935837Y-18345174D01*
X9935837Y-18345174D02*
X9926313Y-18354698D01*
X10135837Y-18468984D02*
X10116789Y-18459460D01*
X10116789Y-18459460D02*
X10107265Y-18449936D01*
X10107265Y-18449936D02*
X10097742Y-18430889D01*
X10097742Y-18430889D02*
X10097742Y-18373746D01*
X10097742Y-18373746D02*
X10107265Y-18354698D01*
X10107265Y-18354698D02*
X10116789Y-18345174D01*
X10116789Y-18345174D02*
X10135837Y-18335650D01*
X10135837Y-18335650D02*
X10164408Y-18335650D01*
X10164408Y-18335650D02*
X10183456Y-18345174D01*
X10183456Y-18345174D02*
X10192980Y-18354698D01*
X10192980Y-18354698D02*
X10202503Y-18373746D01*
X10202503Y-18373746D02*
X10202503Y-18430889D01*
X10202503Y-18430889D02*
X10192980Y-18449936D01*
X10192980Y-18449936D02*
X10183456Y-18459460D01*
X10183456Y-18459460D02*
X10164408Y-18468984D01*
X10164408Y-18468984D02*
X10135837Y-18468984D01*
X10316789Y-18468984D02*
X10297742Y-18459460D01*
X10297742Y-18459460D02*
X10288218Y-18440412D01*
X10288218Y-18440412D02*
X10288218Y-18268984D01*
X10469170Y-18459460D02*
X10450123Y-18468984D01*
X10450123Y-18468984D02*
X10412027Y-18468984D01*
X10412027Y-18468984D02*
X10392980Y-18459460D01*
X10392980Y-18459460D02*
X10383456Y-18440412D01*
X10383456Y-18440412D02*
X10383456Y-18364222D01*
X10383456Y-18364222D02*
X10392980Y-18345174D01*
X10392980Y-18345174D02*
X10412027Y-18335650D01*
X10412027Y-18335650D02*
X10450123Y-18335650D01*
X10450123Y-18335650D02*
X10469170Y-18345174D01*
X10469170Y-18345174D02*
X10478694Y-18364222D01*
X10478694Y-18364222D02*
X10478694Y-18383270D01*
X10478694Y-18383270D02*
X10383456Y-18402317D01*
X10554884Y-18459460D02*
X10573932Y-18468984D01*
X10573932Y-18468984D02*
X10612027Y-18468984D01*
X10612027Y-18468984D02*
X10631075Y-18459460D01*
X10631075Y-18459460D02*
X10640599Y-18440412D01*
X10640599Y-18440412D02*
X10640599Y-18430889D01*
X10640599Y-18430889D02*
X10631075Y-18411841D01*
X10631075Y-18411841D02*
X10612027Y-18402317D01*
X10612027Y-18402317D02*
X10583456Y-18402317D01*
X10583456Y-18402317D02*
X10564408Y-18392793D01*
X10564408Y-18392793D02*
X10554884Y-18373746D01*
X10554884Y-18373746D02*
X10554884Y-18364222D01*
X10554884Y-18364222D02*
X10564408Y-18345174D01*
X10564408Y-18345174D02*
X10583456Y-18335650D01*
X10583456Y-18335650D02*
X10612027Y-18335650D01*
X10612027Y-18335650D02*
X10631075Y-18345174D01*
X10707265Y-18545174D02*
X10716789Y-18535650D01*
X10716789Y-18535650D02*
X10735837Y-18507079D01*
X10735837Y-18507079D02*
X10745361Y-18488031D01*
X10745361Y-18488031D02*
X10754884Y-18459460D01*
X10754884Y-18459460D02*
X10764408Y-18411841D01*
X10764408Y-18411841D02*
X10764408Y-18373746D01*
X10764408Y-18373746D02*
X10754884Y-18326127D01*
X10754884Y-18326127D02*
X10745361Y-18297555D01*
X10745361Y-18297555D02*
X10735837Y-18278508D01*
X10735837Y-18278508D02*
X10716789Y-18249936D01*
X10716789Y-18249936D02*
X10707265Y-18240412D01*
X11069170Y-18545174D02*
X11059646Y-18535650D01*
X11059646Y-18535650D02*
X11040599Y-18507079D01*
X11040599Y-18507079D02*
X11031075Y-18488031D01*
X11031075Y-18488031D02*
X11021551Y-18459460D01*
X11021551Y-18459460D02*
X11012027Y-18411841D01*
X11012027Y-18411841D02*
X11012027Y-18373746D01*
X11012027Y-18373746D02*
X11021551Y-18326127D01*
X11021551Y-18326127D02*
X11031075Y-18297555D01*
X11031075Y-18297555D02*
X11040599Y-18278508D01*
X11040599Y-18278508D02*
X11059646Y-18249936D01*
X11059646Y-18249936D02*
X11069170Y-18240412D01*
X11145361Y-18335650D02*
X11145361Y-18468984D01*
X11145361Y-18354698D02*
X11154884Y-18345174D01*
X11154884Y-18345174D02*
X11173932Y-18335650D01*
X11173932Y-18335650D02*
X11202503Y-18335650D01*
X11202503Y-18335650D02*
X11221551Y-18345174D01*
X11221551Y-18345174D02*
X11231075Y-18364222D01*
X11231075Y-18364222D02*
X11231075Y-18468984D01*
X11354884Y-18468984D02*
X11335837Y-18459460D01*
X11335837Y-18459460D02*
X11326313Y-18449936D01*
X11326313Y-18449936D02*
X11316789Y-18430889D01*
X11316789Y-18430889D02*
X11316789Y-18373746D01*
X11316789Y-18373746D02*
X11326313Y-18354698D01*
X11326313Y-18354698D02*
X11335837Y-18345174D01*
X11335837Y-18345174D02*
X11354884Y-18335650D01*
X11354884Y-18335650D02*
X11383456Y-18335650D01*
X11383456Y-18335650D02*
X11402503Y-18345174D01*
X11402503Y-18345174D02*
X11412027Y-18354698D01*
X11412027Y-18354698D02*
X11421551Y-18373746D01*
X11421551Y-18373746D02*
X11421551Y-18430889D01*
X11421551Y-18430889D02*
X11412027Y-18449936D01*
X11412027Y-18449936D02*
X11402503Y-18459460D01*
X11402503Y-18459460D02*
X11383456Y-18468984D01*
X11383456Y-18468984D02*
X11354884Y-18468984D01*
X11478694Y-18335650D02*
X11554884Y-18335650D01*
X11507265Y-18268984D02*
X11507265Y-18440412D01*
X11507265Y-18440412D02*
X11516789Y-18459460D01*
X11516789Y-18459460D02*
X11535837Y-18468984D01*
X11535837Y-18468984D02*
X11554884Y-18468984D01*
X11773932Y-18335650D02*
X11773932Y-18535650D01*
X11773932Y-18345174D02*
X11792980Y-18335650D01*
X11792980Y-18335650D02*
X11831075Y-18335650D01*
X11831075Y-18335650D02*
X11850123Y-18345174D01*
X11850123Y-18345174D02*
X11859646Y-18354698D01*
X11859646Y-18354698D02*
X11869170Y-18373746D01*
X11869170Y-18373746D02*
X11869170Y-18430889D01*
X11869170Y-18430889D02*
X11859646Y-18449936D01*
X11859646Y-18449936D02*
X11850123Y-18459460D01*
X11850123Y-18459460D02*
X11831075Y-18468984D01*
X11831075Y-18468984D02*
X11792980Y-18468984D01*
X11792980Y-18468984D02*
X11773932Y-18459460D01*
X11983456Y-18468984D02*
X11964408Y-18459460D01*
X11964408Y-18459460D02*
X11954884Y-18440412D01*
X11954884Y-18440412D02*
X11954884Y-18268984D01*
X12145361Y-18468984D02*
X12145361Y-18364222D01*
X12145361Y-18364222D02*
X12135837Y-18345174D01*
X12135837Y-18345174D02*
X12116789Y-18335650D01*
X12116789Y-18335650D02*
X12078694Y-18335650D01*
X12078694Y-18335650D02*
X12059646Y-18345174D01*
X12145361Y-18459460D02*
X12126313Y-18468984D01*
X12126313Y-18468984D02*
X12078694Y-18468984D01*
X12078694Y-18468984D02*
X12059646Y-18459460D01*
X12059646Y-18459460D02*
X12050123Y-18440412D01*
X12050123Y-18440412D02*
X12050123Y-18421365D01*
X12050123Y-18421365D02*
X12059646Y-18402317D01*
X12059646Y-18402317D02*
X12078694Y-18392793D01*
X12078694Y-18392793D02*
X12126313Y-18392793D01*
X12126313Y-18392793D02*
X12145361Y-18383270D01*
X12212027Y-18335650D02*
X12288218Y-18335650D01*
X12240599Y-18268984D02*
X12240599Y-18440412D01*
X12240599Y-18440412D02*
X12250123Y-18459460D01*
X12250123Y-18459460D02*
X12269170Y-18468984D01*
X12269170Y-18468984D02*
X12288218Y-18468984D01*
X12431075Y-18459460D02*
X12412027Y-18468984D01*
X12412027Y-18468984D02*
X12373932Y-18468984D01*
X12373932Y-18468984D02*
X12354884Y-18459460D01*
X12354884Y-18459460D02*
X12345361Y-18440412D01*
X12345361Y-18440412D02*
X12345361Y-18364222D01*
X12345361Y-18364222D02*
X12354884Y-18345174D01*
X12354884Y-18345174D02*
X12373932Y-18335650D01*
X12373932Y-18335650D02*
X12412027Y-18335650D01*
X12412027Y-18335650D02*
X12431075Y-18345174D01*
X12431075Y-18345174D02*
X12440599Y-18364222D01*
X12440599Y-18364222D02*
X12440599Y-18383270D01*
X12440599Y-18383270D02*
X12345361Y-18402317D01*
X12612027Y-18468984D02*
X12612027Y-18268984D01*
X12612027Y-18459460D02*
X12592980Y-18468984D01*
X12592980Y-18468984D02*
X12554884Y-18468984D01*
X12554884Y-18468984D02*
X12535837Y-18459460D01*
X12535837Y-18459460D02*
X12526313Y-18449936D01*
X12526313Y-18449936D02*
X12516789Y-18430889D01*
X12516789Y-18430889D02*
X12516789Y-18373746D01*
X12516789Y-18373746D02*
X12526313Y-18354698D01*
X12526313Y-18354698D02*
X12535837Y-18345174D01*
X12535837Y-18345174D02*
X12554884Y-18335650D01*
X12554884Y-18335650D02*
X12592980Y-18335650D01*
X12592980Y-18335650D02*
X12612027Y-18345174D01*
X12688218Y-18545174D02*
X12697742Y-18535650D01*
X12697742Y-18535650D02*
X12716789Y-18507079D01*
X12716789Y-18507079D02*
X12726313Y-18488031D01*
X12726313Y-18488031D02*
X12735837Y-18459460D01*
X12735837Y-18459460D02*
X12745361Y-18411841D01*
X12745361Y-18411841D02*
X12745361Y-18373746D01*
X12745361Y-18373746D02*
X12735837Y-18326127D01*
X12735837Y-18326127D02*
X12726313Y-18297555D01*
X12726313Y-18297555D02*
X12716789Y-18278508D01*
X12716789Y-18278508D02*
X12697742Y-18249936D01*
X12697742Y-18249936D02*
X12688218Y-18240412D01*
D14*
X5461250Y-18582500D02*
X5461250Y-18762500D01*
X5371250Y-18672500D02*
X5551250Y-18672500D01*
D11*
X5916789Y-18763984D02*
X5802503Y-18763984D01*
X5859646Y-18763984D02*
X5859646Y-18563984D01*
X5859646Y-18563984D02*
X5840598Y-18592555D01*
X5840598Y-18592555D02*
X5821551Y-18611603D01*
X5821551Y-18611603D02*
X5802503Y-18621127D01*
X6002503Y-18744936D02*
X6012027Y-18754460D01*
X6012027Y-18754460D02*
X6002503Y-18763984D01*
X6002503Y-18763984D02*
X5992979Y-18754460D01*
X5992979Y-18754460D02*
X6002503Y-18744936D01*
X6002503Y-18744936D02*
X6002503Y-18763984D01*
X6126312Y-18649698D02*
X6107265Y-18640174D01*
X6107265Y-18640174D02*
X6097741Y-18630650D01*
X6097741Y-18630650D02*
X6088217Y-18611603D01*
X6088217Y-18611603D02*
X6088217Y-18602079D01*
X6088217Y-18602079D02*
X6097741Y-18583031D01*
X6097741Y-18583031D02*
X6107265Y-18573508D01*
X6107265Y-18573508D02*
X6126312Y-18563984D01*
X6126312Y-18563984D02*
X6164408Y-18563984D01*
X6164408Y-18563984D02*
X6183455Y-18573508D01*
X6183455Y-18573508D02*
X6192979Y-18583031D01*
X6192979Y-18583031D02*
X6202503Y-18602079D01*
X6202503Y-18602079D02*
X6202503Y-18611603D01*
X6202503Y-18611603D02*
X6192979Y-18630650D01*
X6192979Y-18630650D02*
X6183455Y-18640174D01*
X6183455Y-18640174D02*
X6164408Y-18649698D01*
X6164408Y-18649698D02*
X6126312Y-18649698D01*
X6126312Y-18649698D02*
X6107265Y-18659222D01*
X6107265Y-18659222D02*
X6097741Y-18668746D01*
X6097741Y-18668746D02*
X6088217Y-18687793D01*
X6088217Y-18687793D02*
X6088217Y-18725889D01*
X6088217Y-18725889D02*
X6097741Y-18744936D01*
X6097741Y-18744936D02*
X6107265Y-18754460D01*
X6107265Y-18754460D02*
X6126312Y-18763984D01*
X6126312Y-18763984D02*
X6164408Y-18763984D01*
X6164408Y-18763984D02*
X6183455Y-18754460D01*
X6183455Y-18754460D02*
X6192979Y-18744936D01*
X6192979Y-18744936D02*
X6202503Y-18725889D01*
X6202503Y-18725889D02*
X6202503Y-18687793D01*
X6202503Y-18687793D02*
X6192979Y-18668746D01*
X6192979Y-18668746D02*
X6183455Y-18659222D01*
X6183455Y-18659222D02*
X6164408Y-18649698D01*
X6326312Y-18563984D02*
X6345360Y-18563984D01*
X6345360Y-18563984D02*
X6364408Y-18573508D01*
X6364408Y-18573508D02*
X6373932Y-18583031D01*
X6373932Y-18583031D02*
X6383455Y-18602079D01*
X6383455Y-18602079D02*
X6392979Y-18640174D01*
X6392979Y-18640174D02*
X6392979Y-18687793D01*
X6392979Y-18687793D02*
X6383455Y-18725889D01*
X6383455Y-18725889D02*
X6373932Y-18744936D01*
X6373932Y-18744936D02*
X6364408Y-18754460D01*
X6364408Y-18754460D02*
X6345360Y-18763984D01*
X6345360Y-18763984D02*
X6326312Y-18763984D01*
X6326312Y-18763984D02*
X6307265Y-18754460D01*
X6307265Y-18754460D02*
X6297741Y-18744936D01*
X6297741Y-18744936D02*
X6288217Y-18725889D01*
X6288217Y-18725889D02*
X6278693Y-18687793D01*
X6278693Y-18687793D02*
X6278693Y-18640174D01*
X6278693Y-18640174D02*
X6288217Y-18602079D01*
X6288217Y-18602079D02*
X6297741Y-18583031D01*
X6297741Y-18583031D02*
X6307265Y-18573508D01*
X6307265Y-18573508D02*
X6326312Y-18563984D01*
X6516789Y-18563984D02*
X6535836Y-18563984D01*
X6535836Y-18563984D02*
X6554884Y-18573508D01*
X6554884Y-18573508D02*
X6564408Y-18583031D01*
X6564408Y-18583031D02*
X6573932Y-18602079D01*
X6573932Y-18602079D02*
X6583455Y-18640174D01*
X6583455Y-18640174D02*
X6583455Y-18687793D01*
X6583455Y-18687793D02*
X6573932Y-18725889D01*
X6573932Y-18725889D02*
X6564408Y-18744936D01*
X6564408Y-18744936D02*
X6554884Y-18754460D01*
X6554884Y-18754460D02*
X6535836Y-18763984D01*
X6535836Y-18763984D02*
X6516789Y-18763984D01*
X6516789Y-18763984D02*
X6497741Y-18754460D01*
X6497741Y-18754460D02*
X6488217Y-18744936D01*
X6488217Y-18744936D02*
X6478693Y-18725889D01*
X6478693Y-18725889D02*
X6469170Y-18687793D01*
X6469170Y-18687793D02*
X6469170Y-18640174D01*
X6469170Y-18640174D02*
X6478693Y-18602079D01*
X6478693Y-18602079D02*
X6488217Y-18583031D01*
X6488217Y-18583031D02*
X6497741Y-18573508D01*
X6497741Y-18573508D02*
X6516789Y-18563984D01*
X6669170Y-18763984D02*
X6669170Y-18630650D01*
X6669170Y-18649698D02*
X6678693Y-18640174D01*
X6678693Y-18640174D02*
X6697741Y-18630650D01*
X6697741Y-18630650D02*
X6726313Y-18630650D01*
X6726313Y-18630650D02*
X6745360Y-18640174D01*
X6745360Y-18640174D02*
X6754884Y-18659222D01*
X6754884Y-18659222D02*
X6754884Y-18763984D01*
X6754884Y-18659222D02*
X6764408Y-18640174D01*
X6764408Y-18640174D02*
X6783455Y-18630650D01*
X6783455Y-18630650D02*
X6812027Y-18630650D01*
X6812027Y-18630650D02*
X6831074Y-18640174D01*
X6831074Y-18640174D02*
X6840598Y-18659222D01*
X6840598Y-18659222D02*
X6840598Y-18763984D01*
X6935836Y-18763984D02*
X6935836Y-18630650D01*
X6935836Y-18649698D02*
X6945360Y-18640174D01*
X6945360Y-18640174D02*
X6964408Y-18630650D01*
X6964408Y-18630650D02*
X6992979Y-18630650D01*
X6992979Y-18630650D02*
X7012027Y-18640174D01*
X7012027Y-18640174D02*
X7021551Y-18659222D01*
X7021551Y-18659222D02*
X7021551Y-18763984D01*
X7021551Y-18659222D02*
X7031074Y-18640174D01*
X7031074Y-18640174D02*
X7050122Y-18630650D01*
X7050122Y-18630650D02*
X7078693Y-18630650D01*
X7078693Y-18630650D02*
X7097741Y-18640174D01*
X7097741Y-18640174D02*
X7107265Y-18659222D01*
X7107265Y-18659222D02*
X7107265Y-18763984D01*
X7497741Y-18554460D02*
X7326313Y-18811603D01*
X7754884Y-18563984D02*
X7773932Y-18563984D01*
X7773932Y-18563984D02*
X7792979Y-18573508D01*
X7792979Y-18573508D02*
X7802503Y-18583031D01*
X7802503Y-18583031D02*
X7812027Y-18602079D01*
X7812027Y-18602079D02*
X7821551Y-18640174D01*
X7821551Y-18640174D02*
X7821551Y-18687793D01*
X7821551Y-18687793D02*
X7812027Y-18725889D01*
X7812027Y-18725889D02*
X7802503Y-18744936D01*
X7802503Y-18744936D02*
X7792979Y-18754460D01*
X7792979Y-18754460D02*
X7773932Y-18763984D01*
X7773932Y-18763984D02*
X7754884Y-18763984D01*
X7754884Y-18763984D02*
X7735836Y-18754460D01*
X7735836Y-18754460D02*
X7726313Y-18744936D01*
X7726313Y-18744936D02*
X7716789Y-18725889D01*
X7716789Y-18725889D02*
X7707265Y-18687793D01*
X7707265Y-18687793D02*
X7707265Y-18640174D01*
X7707265Y-18640174D02*
X7716789Y-18602079D01*
X7716789Y-18602079D02*
X7726313Y-18583031D01*
X7726313Y-18583031D02*
X7735836Y-18573508D01*
X7735836Y-18573508D02*
X7754884Y-18563984D01*
X7907265Y-18744936D02*
X7916789Y-18754460D01*
X7916789Y-18754460D02*
X7907265Y-18763984D01*
X7907265Y-18763984D02*
X7897741Y-18754460D01*
X7897741Y-18754460D02*
X7907265Y-18744936D01*
X7907265Y-18744936D02*
X7907265Y-18763984D01*
X8040598Y-18563984D02*
X8059646Y-18563984D01*
X8059646Y-18563984D02*
X8078694Y-18573508D01*
X8078694Y-18573508D02*
X8088217Y-18583031D01*
X8088217Y-18583031D02*
X8097741Y-18602079D01*
X8097741Y-18602079D02*
X8107265Y-18640174D01*
X8107265Y-18640174D02*
X8107265Y-18687793D01*
X8107265Y-18687793D02*
X8097741Y-18725889D01*
X8097741Y-18725889D02*
X8088217Y-18744936D01*
X8088217Y-18744936D02*
X8078694Y-18754460D01*
X8078694Y-18754460D02*
X8059646Y-18763984D01*
X8059646Y-18763984D02*
X8040598Y-18763984D01*
X8040598Y-18763984D02*
X8021551Y-18754460D01*
X8021551Y-18754460D02*
X8012027Y-18744936D01*
X8012027Y-18744936D02*
X8002503Y-18725889D01*
X8002503Y-18725889D02*
X7992979Y-18687793D01*
X7992979Y-18687793D02*
X7992979Y-18640174D01*
X7992979Y-18640174D02*
X8002503Y-18602079D01*
X8002503Y-18602079D02*
X8012027Y-18583031D01*
X8012027Y-18583031D02*
X8021551Y-18573508D01*
X8021551Y-18573508D02*
X8040598Y-18563984D01*
X8173932Y-18563984D02*
X8307265Y-18563984D01*
X8307265Y-18563984D02*
X8221551Y-18763984D01*
X8421551Y-18563984D02*
X8440599Y-18563984D01*
X8440599Y-18563984D02*
X8459646Y-18573508D01*
X8459646Y-18573508D02*
X8469170Y-18583031D01*
X8469170Y-18583031D02*
X8478694Y-18602079D01*
X8478694Y-18602079D02*
X8488218Y-18640174D01*
X8488218Y-18640174D02*
X8488218Y-18687793D01*
X8488218Y-18687793D02*
X8478694Y-18725889D01*
X8478694Y-18725889D02*
X8469170Y-18744936D01*
X8469170Y-18744936D02*
X8459646Y-18754460D01*
X8459646Y-18754460D02*
X8440599Y-18763984D01*
X8440599Y-18763984D02*
X8421551Y-18763984D01*
X8421551Y-18763984D02*
X8402503Y-18754460D01*
X8402503Y-18754460D02*
X8392979Y-18744936D01*
X8392979Y-18744936D02*
X8383456Y-18725889D01*
X8383456Y-18725889D02*
X8373932Y-18687793D01*
X8373932Y-18687793D02*
X8373932Y-18640174D01*
X8373932Y-18640174D02*
X8383456Y-18602079D01*
X8383456Y-18602079D02*
X8392979Y-18583031D01*
X8392979Y-18583031D02*
X8402503Y-18573508D01*
X8402503Y-18573508D02*
X8421551Y-18563984D01*
X8583456Y-18763984D02*
X8621551Y-18763984D01*
X8621551Y-18763984D02*
X8640599Y-18754460D01*
X8640599Y-18754460D02*
X8650122Y-18744936D01*
X8650122Y-18744936D02*
X8669170Y-18716365D01*
X8669170Y-18716365D02*
X8678694Y-18678270D01*
X8678694Y-18678270D02*
X8678694Y-18602079D01*
X8678694Y-18602079D02*
X8669170Y-18583031D01*
X8669170Y-18583031D02*
X8659646Y-18573508D01*
X8659646Y-18573508D02*
X8640599Y-18563984D01*
X8640599Y-18563984D02*
X8602503Y-18563984D01*
X8602503Y-18563984D02*
X8583456Y-18573508D01*
X8583456Y-18573508D02*
X8573932Y-18583031D01*
X8573932Y-18583031D02*
X8564408Y-18602079D01*
X8564408Y-18602079D02*
X8564408Y-18649698D01*
X8564408Y-18649698D02*
X8573932Y-18668746D01*
X8573932Y-18668746D02*
X8583456Y-18678270D01*
X8583456Y-18678270D02*
X8602503Y-18687793D01*
X8602503Y-18687793D02*
X8640599Y-18687793D01*
X8640599Y-18687793D02*
X8659646Y-18678270D01*
X8659646Y-18678270D02*
X8669170Y-18668746D01*
X8669170Y-18668746D02*
X8678694Y-18649698D01*
X8754884Y-18563984D02*
X8754884Y-18602079D01*
X8831075Y-18563984D02*
X8831075Y-18602079D01*
X9126313Y-18840174D02*
X9116789Y-18830650D01*
X9116789Y-18830650D02*
X9097741Y-18802079D01*
X9097741Y-18802079D02*
X9088218Y-18783031D01*
X9088218Y-18783031D02*
X9078694Y-18754460D01*
X9078694Y-18754460D02*
X9069170Y-18706841D01*
X9069170Y-18706841D02*
X9069170Y-18668746D01*
X9069170Y-18668746D02*
X9078694Y-18621127D01*
X9078694Y-18621127D02*
X9088218Y-18592555D01*
X9088218Y-18592555D02*
X9097741Y-18573508D01*
X9097741Y-18573508D02*
X9116789Y-18544936D01*
X9116789Y-18544936D02*
X9126313Y-18535412D01*
X9192980Y-18583031D02*
X9202503Y-18573508D01*
X9202503Y-18573508D02*
X9221551Y-18563984D01*
X9221551Y-18563984D02*
X9269170Y-18563984D01*
X9269170Y-18563984D02*
X9288218Y-18573508D01*
X9288218Y-18573508D02*
X9297741Y-18583031D01*
X9297741Y-18583031D02*
X9307265Y-18602079D01*
X9307265Y-18602079D02*
X9307265Y-18621127D01*
X9307265Y-18621127D02*
X9297741Y-18649698D01*
X9297741Y-18649698D02*
X9183456Y-18763984D01*
X9183456Y-18763984D02*
X9307265Y-18763984D01*
X9545361Y-18763984D02*
X9545361Y-18563984D01*
X9631075Y-18763984D02*
X9631075Y-18659222D01*
X9631075Y-18659222D02*
X9621551Y-18640174D01*
X9621551Y-18640174D02*
X9602503Y-18630650D01*
X9602503Y-18630650D02*
X9573932Y-18630650D01*
X9573932Y-18630650D02*
X9554884Y-18640174D01*
X9554884Y-18640174D02*
X9545361Y-18649698D01*
X9754884Y-18763984D02*
X9735837Y-18754460D01*
X9735837Y-18754460D02*
X9726313Y-18744936D01*
X9726313Y-18744936D02*
X9716789Y-18725889D01*
X9716789Y-18725889D02*
X9716789Y-18668746D01*
X9716789Y-18668746D02*
X9726313Y-18649698D01*
X9726313Y-18649698D02*
X9735837Y-18640174D01*
X9735837Y-18640174D02*
X9754884Y-18630650D01*
X9754884Y-18630650D02*
X9783456Y-18630650D01*
X9783456Y-18630650D02*
X9802503Y-18640174D01*
X9802503Y-18640174D02*
X9812027Y-18649698D01*
X9812027Y-18649698D02*
X9821551Y-18668746D01*
X9821551Y-18668746D02*
X9821551Y-18725889D01*
X9821551Y-18725889D02*
X9812027Y-18744936D01*
X9812027Y-18744936D02*
X9802503Y-18754460D01*
X9802503Y-18754460D02*
X9783456Y-18763984D01*
X9783456Y-18763984D02*
X9754884Y-18763984D01*
X9935837Y-18763984D02*
X9916789Y-18754460D01*
X9916789Y-18754460D02*
X9907265Y-18735412D01*
X9907265Y-18735412D02*
X9907265Y-18563984D01*
X10088218Y-18754460D02*
X10069170Y-18763984D01*
X10069170Y-18763984D02*
X10031075Y-18763984D01*
X10031075Y-18763984D02*
X10012027Y-18754460D01*
X10012027Y-18754460D02*
X10002503Y-18735412D01*
X10002503Y-18735412D02*
X10002503Y-18659222D01*
X10002503Y-18659222D02*
X10012027Y-18640174D01*
X10012027Y-18640174D02*
X10031075Y-18630650D01*
X10031075Y-18630650D02*
X10069170Y-18630650D01*
X10069170Y-18630650D02*
X10088218Y-18640174D01*
X10088218Y-18640174D02*
X10097742Y-18659222D01*
X10097742Y-18659222D02*
X10097742Y-18678270D01*
X10097742Y-18678270D02*
X10002503Y-18697317D01*
X10173932Y-18754460D02*
X10192980Y-18763984D01*
X10192980Y-18763984D02*
X10231075Y-18763984D01*
X10231075Y-18763984D02*
X10250123Y-18754460D01*
X10250123Y-18754460D02*
X10259646Y-18735412D01*
X10259646Y-18735412D02*
X10259646Y-18725889D01*
X10259646Y-18725889D02*
X10250123Y-18706841D01*
X10250123Y-18706841D02*
X10231075Y-18697317D01*
X10231075Y-18697317D02*
X10202503Y-18697317D01*
X10202503Y-18697317D02*
X10183456Y-18687793D01*
X10183456Y-18687793D02*
X10173932Y-18668746D01*
X10173932Y-18668746D02*
X10173932Y-18659222D01*
X10173932Y-18659222D02*
X10183456Y-18640174D01*
X10183456Y-18640174D02*
X10202503Y-18630650D01*
X10202503Y-18630650D02*
X10231075Y-18630650D01*
X10231075Y-18630650D02*
X10250123Y-18640174D01*
X10326313Y-18840174D02*
X10335837Y-18830650D01*
X10335837Y-18830650D02*
X10354884Y-18802079D01*
X10354884Y-18802079D02*
X10364408Y-18783031D01*
X10364408Y-18783031D02*
X10373932Y-18754460D01*
X10373932Y-18754460D02*
X10383456Y-18706841D01*
X10383456Y-18706841D02*
X10383456Y-18668746D01*
X10383456Y-18668746D02*
X10373932Y-18621127D01*
X10373932Y-18621127D02*
X10364408Y-18592555D01*
X10364408Y-18592555D02*
X10354884Y-18573508D01*
X10354884Y-18573508D02*
X10335837Y-18544936D01*
X10335837Y-18544936D02*
X10326313Y-18535412D01*
X10688218Y-18840174D02*
X10678694Y-18830650D01*
X10678694Y-18830650D02*
X10659646Y-18802079D01*
X10659646Y-18802079D02*
X10650123Y-18783031D01*
X10650123Y-18783031D02*
X10640599Y-18754460D01*
X10640599Y-18754460D02*
X10631075Y-18706841D01*
X10631075Y-18706841D02*
X10631075Y-18668746D01*
X10631075Y-18668746D02*
X10640599Y-18621127D01*
X10640599Y-18621127D02*
X10650123Y-18592555D01*
X10650123Y-18592555D02*
X10659646Y-18573508D01*
X10659646Y-18573508D02*
X10678694Y-18544936D01*
X10678694Y-18544936D02*
X10688218Y-18535412D01*
X10764408Y-18630650D02*
X10764408Y-18763984D01*
X10764408Y-18649698D02*
X10773932Y-18640174D01*
X10773932Y-18640174D02*
X10792980Y-18630650D01*
X10792980Y-18630650D02*
X10821551Y-18630650D01*
X10821551Y-18630650D02*
X10840599Y-18640174D01*
X10840599Y-18640174D02*
X10850123Y-18659222D01*
X10850123Y-18659222D02*
X10850123Y-18763984D01*
X10973932Y-18763984D02*
X10954884Y-18754460D01*
X10954884Y-18754460D02*
X10945361Y-18744936D01*
X10945361Y-18744936D02*
X10935837Y-18725889D01*
X10935837Y-18725889D02*
X10935837Y-18668746D01*
X10935837Y-18668746D02*
X10945361Y-18649698D01*
X10945361Y-18649698D02*
X10954884Y-18640174D01*
X10954884Y-18640174D02*
X10973932Y-18630650D01*
X10973932Y-18630650D02*
X11002504Y-18630650D01*
X11002504Y-18630650D02*
X11021551Y-18640174D01*
X11021551Y-18640174D02*
X11031075Y-18649698D01*
X11031075Y-18649698D02*
X11040599Y-18668746D01*
X11040599Y-18668746D02*
X11040599Y-18725889D01*
X11040599Y-18725889D02*
X11031075Y-18744936D01*
X11031075Y-18744936D02*
X11021551Y-18754460D01*
X11021551Y-18754460D02*
X11002504Y-18763984D01*
X11002504Y-18763984D02*
X10973932Y-18763984D01*
X11097742Y-18630650D02*
X11173932Y-18630650D01*
X11126313Y-18563984D02*
X11126313Y-18735412D01*
X11126313Y-18735412D02*
X11135837Y-18754460D01*
X11135837Y-18754460D02*
X11154884Y-18763984D01*
X11154884Y-18763984D02*
X11173932Y-18763984D01*
X11392980Y-18630650D02*
X11392980Y-18830650D01*
X11392980Y-18640174D02*
X11412027Y-18630650D01*
X11412027Y-18630650D02*
X11450123Y-18630650D01*
X11450123Y-18630650D02*
X11469170Y-18640174D01*
X11469170Y-18640174D02*
X11478694Y-18649698D01*
X11478694Y-18649698D02*
X11488218Y-18668746D01*
X11488218Y-18668746D02*
X11488218Y-18725889D01*
X11488218Y-18725889D02*
X11478694Y-18744936D01*
X11478694Y-18744936D02*
X11469170Y-18754460D01*
X11469170Y-18754460D02*
X11450123Y-18763984D01*
X11450123Y-18763984D02*
X11412027Y-18763984D01*
X11412027Y-18763984D02*
X11392980Y-18754460D01*
X11602503Y-18763984D02*
X11583456Y-18754460D01*
X11583456Y-18754460D02*
X11573932Y-18735412D01*
X11573932Y-18735412D02*
X11573932Y-18563984D01*
X11764408Y-18763984D02*
X11764408Y-18659222D01*
X11764408Y-18659222D02*
X11754884Y-18640174D01*
X11754884Y-18640174D02*
X11735837Y-18630650D01*
X11735837Y-18630650D02*
X11697742Y-18630650D01*
X11697742Y-18630650D02*
X11678694Y-18640174D01*
X11764408Y-18754460D02*
X11745361Y-18763984D01*
X11745361Y-18763984D02*
X11697742Y-18763984D01*
X11697742Y-18763984D02*
X11678694Y-18754460D01*
X11678694Y-18754460D02*
X11669170Y-18735412D01*
X11669170Y-18735412D02*
X11669170Y-18716365D01*
X11669170Y-18716365D02*
X11678694Y-18697317D01*
X11678694Y-18697317D02*
X11697742Y-18687793D01*
X11697742Y-18687793D02*
X11745361Y-18687793D01*
X11745361Y-18687793D02*
X11764408Y-18678270D01*
X11831075Y-18630650D02*
X11907265Y-18630650D01*
X11859646Y-18563984D02*
X11859646Y-18735412D01*
X11859646Y-18735412D02*
X11869170Y-18754460D01*
X11869170Y-18754460D02*
X11888218Y-18763984D01*
X11888218Y-18763984D02*
X11907265Y-18763984D01*
X12050123Y-18754460D02*
X12031075Y-18763984D01*
X12031075Y-18763984D02*
X11992980Y-18763984D01*
X11992980Y-18763984D02*
X11973932Y-18754460D01*
X11973932Y-18754460D02*
X11964408Y-18735412D01*
X11964408Y-18735412D02*
X11964408Y-18659222D01*
X11964408Y-18659222D02*
X11973932Y-18640174D01*
X11973932Y-18640174D02*
X11992980Y-18630650D01*
X11992980Y-18630650D02*
X12031075Y-18630650D01*
X12031075Y-18630650D02*
X12050123Y-18640174D01*
X12050123Y-18640174D02*
X12059646Y-18659222D01*
X12059646Y-18659222D02*
X12059646Y-18678270D01*
X12059646Y-18678270D02*
X11964408Y-18697317D01*
X12231075Y-18763984D02*
X12231075Y-18563984D01*
X12231075Y-18754460D02*
X12212027Y-18763984D01*
X12212027Y-18763984D02*
X12173932Y-18763984D01*
X12173932Y-18763984D02*
X12154884Y-18754460D01*
X12154884Y-18754460D02*
X12145361Y-18744936D01*
X12145361Y-18744936D02*
X12135837Y-18725889D01*
X12135837Y-18725889D02*
X12135837Y-18668746D01*
X12135837Y-18668746D02*
X12145361Y-18649698D01*
X12145361Y-18649698D02*
X12154884Y-18640174D01*
X12154884Y-18640174D02*
X12173932Y-18630650D01*
X12173932Y-18630650D02*
X12212027Y-18630650D01*
X12212027Y-18630650D02*
X12231075Y-18640174D01*
X12307265Y-18840174D02*
X12316789Y-18830650D01*
X12316789Y-18830650D02*
X12335837Y-18802079D01*
X12335837Y-18802079D02*
X12345361Y-18783031D01*
X12345361Y-18783031D02*
X12354884Y-18754460D01*
X12354884Y-18754460D02*
X12364408Y-18706841D01*
X12364408Y-18706841D02*
X12364408Y-18668746D01*
X12364408Y-18668746D02*
X12354884Y-18621127D01*
X12354884Y-18621127D02*
X12345361Y-18592555D01*
X12345361Y-18592555D02*
X12335837Y-18573508D01*
X12335837Y-18573508D02*
X12316789Y-18544936D01*
X12316789Y-18544936D02*
X12307265Y-18535412D01*
X5521961Y-19043211D02*
X5521961Y-18901789D01*
X5380539Y-18901789D01*
X5380539Y-19043211D01*
X5521961Y-19043211D01*
X5792979Y-18863984D02*
X5916789Y-18863984D01*
X5916789Y-18863984D02*
X5850122Y-18940174D01*
X5850122Y-18940174D02*
X5878693Y-18940174D01*
X5878693Y-18940174D02*
X5897741Y-18949698D01*
X5897741Y-18949698D02*
X5907265Y-18959222D01*
X5907265Y-18959222D02*
X5916789Y-18978270D01*
X5916789Y-18978270D02*
X5916789Y-19025889D01*
X5916789Y-19025889D02*
X5907265Y-19044936D01*
X5907265Y-19044936D02*
X5897741Y-19054460D01*
X5897741Y-19054460D02*
X5878693Y-19063984D01*
X5878693Y-19063984D02*
X5821551Y-19063984D01*
X5821551Y-19063984D02*
X5802503Y-19054460D01*
X5802503Y-19054460D02*
X5792979Y-19044936D01*
X6002503Y-19044936D02*
X6012027Y-19054460D01*
X6012027Y-19054460D02*
X6002503Y-19063984D01*
X6002503Y-19063984D02*
X5992979Y-19054460D01*
X5992979Y-19054460D02*
X6002503Y-19044936D01*
X6002503Y-19044936D02*
X6002503Y-19063984D01*
X6135836Y-18863984D02*
X6154884Y-18863984D01*
X6154884Y-18863984D02*
X6173932Y-18873508D01*
X6173932Y-18873508D02*
X6183455Y-18883031D01*
X6183455Y-18883031D02*
X6192979Y-18902079D01*
X6192979Y-18902079D02*
X6202503Y-18940174D01*
X6202503Y-18940174D02*
X6202503Y-18987793D01*
X6202503Y-18987793D02*
X6192979Y-19025889D01*
X6192979Y-19025889D02*
X6183455Y-19044936D01*
X6183455Y-19044936D02*
X6173932Y-19054460D01*
X6173932Y-19054460D02*
X6154884Y-19063984D01*
X6154884Y-19063984D02*
X6135836Y-19063984D01*
X6135836Y-19063984D02*
X6116789Y-19054460D01*
X6116789Y-19054460D02*
X6107265Y-19044936D01*
X6107265Y-19044936D02*
X6097741Y-19025889D01*
X6097741Y-19025889D02*
X6088217Y-18987793D01*
X6088217Y-18987793D02*
X6088217Y-18940174D01*
X6088217Y-18940174D02*
X6097741Y-18902079D01*
X6097741Y-18902079D02*
X6107265Y-18883031D01*
X6107265Y-18883031D02*
X6116789Y-18873508D01*
X6116789Y-18873508D02*
X6135836Y-18863984D01*
X6373932Y-18930650D02*
X6373932Y-19063984D01*
X6326312Y-18854460D02*
X6278693Y-18997317D01*
X6278693Y-18997317D02*
X6402503Y-18997317D01*
X6507265Y-18949698D02*
X6488217Y-18940174D01*
X6488217Y-18940174D02*
X6478693Y-18930650D01*
X6478693Y-18930650D02*
X6469170Y-18911603D01*
X6469170Y-18911603D02*
X6469170Y-18902079D01*
X6469170Y-18902079D02*
X6478693Y-18883031D01*
X6478693Y-18883031D02*
X6488217Y-18873508D01*
X6488217Y-18873508D02*
X6507265Y-18863984D01*
X6507265Y-18863984D02*
X6545360Y-18863984D01*
X6545360Y-18863984D02*
X6564408Y-18873508D01*
X6564408Y-18873508D02*
X6573932Y-18883031D01*
X6573932Y-18883031D02*
X6583455Y-18902079D01*
X6583455Y-18902079D02*
X6583455Y-18911603D01*
X6583455Y-18911603D02*
X6573932Y-18930650D01*
X6573932Y-18930650D02*
X6564408Y-18940174D01*
X6564408Y-18940174D02*
X6545360Y-18949698D01*
X6545360Y-18949698D02*
X6507265Y-18949698D01*
X6507265Y-18949698D02*
X6488217Y-18959222D01*
X6488217Y-18959222D02*
X6478693Y-18968746D01*
X6478693Y-18968746D02*
X6469170Y-18987793D01*
X6469170Y-18987793D02*
X6469170Y-19025889D01*
X6469170Y-19025889D02*
X6478693Y-19044936D01*
X6478693Y-19044936D02*
X6488217Y-19054460D01*
X6488217Y-19054460D02*
X6507265Y-19063984D01*
X6507265Y-19063984D02*
X6545360Y-19063984D01*
X6545360Y-19063984D02*
X6564408Y-19054460D01*
X6564408Y-19054460D02*
X6573932Y-19044936D01*
X6573932Y-19044936D02*
X6583455Y-19025889D01*
X6583455Y-19025889D02*
X6583455Y-18987793D01*
X6583455Y-18987793D02*
X6573932Y-18968746D01*
X6573932Y-18968746D02*
X6564408Y-18959222D01*
X6564408Y-18959222D02*
X6545360Y-18949698D01*
X6669170Y-19063984D02*
X6669170Y-18930650D01*
X6669170Y-18949698D02*
X6678693Y-18940174D01*
X6678693Y-18940174D02*
X6697741Y-18930650D01*
X6697741Y-18930650D02*
X6726313Y-18930650D01*
X6726313Y-18930650D02*
X6745360Y-18940174D01*
X6745360Y-18940174D02*
X6754884Y-18959222D01*
X6754884Y-18959222D02*
X6754884Y-19063984D01*
X6754884Y-18959222D02*
X6764408Y-18940174D01*
X6764408Y-18940174D02*
X6783455Y-18930650D01*
X6783455Y-18930650D02*
X6812027Y-18930650D01*
X6812027Y-18930650D02*
X6831074Y-18940174D01*
X6831074Y-18940174D02*
X6840598Y-18959222D01*
X6840598Y-18959222D02*
X6840598Y-19063984D01*
X6935836Y-19063984D02*
X6935836Y-18930650D01*
X6935836Y-18949698D02*
X6945360Y-18940174D01*
X6945360Y-18940174D02*
X6964408Y-18930650D01*
X6964408Y-18930650D02*
X6992979Y-18930650D01*
X6992979Y-18930650D02*
X7012027Y-18940174D01*
X7012027Y-18940174D02*
X7021551Y-18959222D01*
X7021551Y-18959222D02*
X7021551Y-19063984D01*
X7021551Y-18959222D02*
X7031074Y-18940174D01*
X7031074Y-18940174D02*
X7050122Y-18930650D01*
X7050122Y-18930650D02*
X7078693Y-18930650D01*
X7078693Y-18930650D02*
X7097741Y-18940174D01*
X7097741Y-18940174D02*
X7107265Y-18959222D01*
X7107265Y-18959222D02*
X7107265Y-19063984D01*
X7497741Y-18854460D02*
X7326313Y-19111603D01*
X7754884Y-18863984D02*
X7773932Y-18863984D01*
X7773932Y-18863984D02*
X7792979Y-18873508D01*
X7792979Y-18873508D02*
X7802503Y-18883031D01*
X7802503Y-18883031D02*
X7812027Y-18902079D01*
X7812027Y-18902079D02*
X7821551Y-18940174D01*
X7821551Y-18940174D02*
X7821551Y-18987793D01*
X7821551Y-18987793D02*
X7812027Y-19025889D01*
X7812027Y-19025889D02*
X7802503Y-19044936D01*
X7802503Y-19044936D02*
X7792979Y-19054460D01*
X7792979Y-19054460D02*
X7773932Y-19063984D01*
X7773932Y-19063984D02*
X7754884Y-19063984D01*
X7754884Y-19063984D02*
X7735836Y-19054460D01*
X7735836Y-19054460D02*
X7726313Y-19044936D01*
X7726313Y-19044936D02*
X7716789Y-19025889D01*
X7716789Y-19025889D02*
X7707265Y-18987793D01*
X7707265Y-18987793D02*
X7707265Y-18940174D01*
X7707265Y-18940174D02*
X7716789Y-18902079D01*
X7716789Y-18902079D02*
X7726313Y-18883031D01*
X7726313Y-18883031D02*
X7735836Y-18873508D01*
X7735836Y-18873508D02*
X7754884Y-18863984D01*
X7907265Y-19044936D02*
X7916789Y-19054460D01*
X7916789Y-19054460D02*
X7907265Y-19063984D01*
X7907265Y-19063984D02*
X7897741Y-19054460D01*
X7897741Y-19054460D02*
X7907265Y-19044936D01*
X7907265Y-19044936D02*
X7907265Y-19063984D01*
X8107265Y-19063984D02*
X7992979Y-19063984D01*
X8050122Y-19063984D02*
X8050122Y-18863984D01*
X8050122Y-18863984D02*
X8031075Y-18892555D01*
X8031075Y-18892555D02*
X8012027Y-18911603D01*
X8012027Y-18911603D02*
X7992979Y-18921127D01*
X8183456Y-18883031D02*
X8192979Y-18873508D01*
X8192979Y-18873508D02*
X8212027Y-18863984D01*
X8212027Y-18863984D02*
X8259646Y-18863984D01*
X8259646Y-18863984D02*
X8278694Y-18873508D01*
X8278694Y-18873508D02*
X8288217Y-18883031D01*
X8288217Y-18883031D02*
X8297741Y-18902079D01*
X8297741Y-18902079D02*
X8297741Y-18921127D01*
X8297741Y-18921127D02*
X8288217Y-18949698D01*
X8288217Y-18949698D02*
X8173932Y-19063984D01*
X8173932Y-19063984D02*
X8297741Y-19063984D01*
X8421551Y-18863984D02*
X8440599Y-18863984D01*
X8440599Y-18863984D02*
X8459646Y-18873508D01*
X8459646Y-18873508D02*
X8469170Y-18883031D01*
X8469170Y-18883031D02*
X8478694Y-18902079D01*
X8478694Y-18902079D02*
X8488218Y-18940174D01*
X8488218Y-18940174D02*
X8488218Y-18987793D01*
X8488218Y-18987793D02*
X8478694Y-19025889D01*
X8478694Y-19025889D02*
X8469170Y-19044936D01*
X8469170Y-19044936D02*
X8459646Y-19054460D01*
X8459646Y-19054460D02*
X8440599Y-19063984D01*
X8440599Y-19063984D02*
X8421551Y-19063984D01*
X8421551Y-19063984D02*
X8402503Y-19054460D01*
X8402503Y-19054460D02*
X8392979Y-19044936D01*
X8392979Y-19044936D02*
X8383456Y-19025889D01*
X8383456Y-19025889D02*
X8373932Y-18987793D01*
X8373932Y-18987793D02*
X8373932Y-18940174D01*
X8373932Y-18940174D02*
X8383456Y-18902079D01*
X8383456Y-18902079D02*
X8392979Y-18883031D01*
X8392979Y-18883031D02*
X8402503Y-18873508D01*
X8402503Y-18873508D02*
X8421551Y-18863984D01*
X8612027Y-18863984D02*
X8631075Y-18863984D01*
X8631075Y-18863984D02*
X8650122Y-18873508D01*
X8650122Y-18873508D02*
X8659646Y-18883031D01*
X8659646Y-18883031D02*
X8669170Y-18902079D01*
X8669170Y-18902079D02*
X8678694Y-18940174D01*
X8678694Y-18940174D02*
X8678694Y-18987793D01*
X8678694Y-18987793D02*
X8669170Y-19025889D01*
X8669170Y-19025889D02*
X8659646Y-19044936D01*
X8659646Y-19044936D02*
X8650122Y-19054460D01*
X8650122Y-19054460D02*
X8631075Y-19063984D01*
X8631075Y-19063984D02*
X8612027Y-19063984D01*
X8612027Y-19063984D02*
X8592979Y-19054460D01*
X8592979Y-19054460D02*
X8583456Y-19044936D01*
X8583456Y-19044936D02*
X8573932Y-19025889D01*
X8573932Y-19025889D02*
X8564408Y-18987793D01*
X8564408Y-18987793D02*
X8564408Y-18940174D01*
X8564408Y-18940174D02*
X8573932Y-18902079D01*
X8573932Y-18902079D02*
X8583456Y-18883031D01*
X8583456Y-18883031D02*
X8592979Y-18873508D01*
X8592979Y-18873508D02*
X8612027Y-18863984D01*
X8754884Y-18863984D02*
X8754884Y-18902079D01*
X8831075Y-18863984D02*
X8831075Y-18902079D01*
X9126313Y-19140174D02*
X9116789Y-19130650D01*
X9116789Y-19130650D02*
X9097741Y-19102079D01*
X9097741Y-19102079D02*
X9088218Y-19083031D01*
X9088218Y-19083031D02*
X9078694Y-19054460D01*
X9078694Y-19054460D02*
X9069170Y-19006841D01*
X9069170Y-19006841D02*
X9069170Y-18968746D01*
X9069170Y-18968746D02*
X9078694Y-18921127D01*
X9078694Y-18921127D02*
X9088218Y-18892555D01*
X9088218Y-18892555D02*
X9097741Y-18873508D01*
X9097741Y-18873508D02*
X9116789Y-18844936D01*
X9116789Y-18844936D02*
X9126313Y-18835412D01*
X9307265Y-19063984D02*
X9192980Y-19063984D01*
X9250122Y-19063984D02*
X9250122Y-18863984D01*
X9250122Y-18863984D02*
X9231075Y-18892555D01*
X9231075Y-18892555D02*
X9212027Y-18911603D01*
X9212027Y-18911603D02*
X9192980Y-18921127D01*
X9431075Y-18863984D02*
X9450122Y-18863984D01*
X9450122Y-18863984D02*
X9469170Y-18873508D01*
X9469170Y-18873508D02*
X9478694Y-18883031D01*
X9478694Y-18883031D02*
X9488218Y-18902079D01*
X9488218Y-18902079D02*
X9497741Y-18940174D01*
X9497741Y-18940174D02*
X9497741Y-18987793D01*
X9497741Y-18987793D02*
X9488218Y-19025889D01*
X9488218Y-19025889D02*
X9478694Y-19044936D01*
X9478694Y-19044936D02*
X9469170Y-19054460D01*
X9469170Y-19054460D02*
X9450122Y-19063984D01*
X9450122Y-19063984D02*
X9431075Y-19063984D01*
X9431075Y-19063984D02*
X9412027Y-19054460D01*
X9412027Y-19054460D02*
X9402503Y-19044936D01*
X9402503Y-19044936D02*
X9392980Y-19025889D01*
X9392980Y-19025889D02*
X9383456Y-18987793D01*
X9383456Y-18987793D02*
X9383456Y-18940174D01*
X9383456Y-18940174D02*
X9392980Y-18902079D01*
X9392980Y-18902079D02*
X9402503Y-18883031D01*
X9402503Y-18883031D02*
X9412027Y-18873508D01*
X9412027Y-18873508D02*
X9431075Y-18863984D01*
X9735837Y-19063984D02*
X9735837Y-18863984D01*
X9821551Y-19063984D02*
X9821551Y-18959222D01*
X9821551Y-18959222D02*
X9812027Y-18940174D01*
X9812027Y-18940174D02*
X9792980Y-18930650D01*
X9792980Y-18930650D02*
X9764408Y-18930650D01*
X9764408Y-18930650D02*
X9745361Y-18940174D01*
X9745361Y-18940174D02*
X9735837Y-18949698D01*
X9945361Y-19063984D02*
X9926313Y-19054460D01*
X9926313Y-19054460D02*
X9916789Y-19044936D01*
X9916789Y-19044936D02*
X9907265Y-19025889D01*
X9907265Y-19025889D02*
X9907265Y-18968746D01*
X9907265Y-18968746D02*
X9916789Y-18949698D01*
X9916789Y-18949698D02*
X9926313Y-18940174D01*
X9926313Y-18940174D02*
X9945361Y-18930650D01*
X9945361Y-18930650D02*
X9973932Y-18930650D01*
X9973932Y-18930650D02*
X9992980Y-18940174D01*
X9992980Y-18940174D02*
X10002503Y-18949698D01*
X10002503Y-18949698D02*
X10012027Y-18968746D01*
X10012027Y-18968746D02*
X10012027Y-19025889D01*
X10012027Y-19025889D02*
X10002503Y-19044936D01*
X10002503Y-19044936D02*
X9992980Y-19054460D01*
X9992980Y-19054460D02*
X9973932Y-19063984D01*
X9973932Y-19063984D02*
X9945361Y-19063984D01*
X10126313Y-19063984D02*
X10107265Y-19054460D01*
X10107265Y-19054460D02*
X10097742Y-19035412D01*
X10097742Y-19035412D02*
X10097742Y-18863984D01*
X10278694Y-19054460D02*
X10259646Y-19063984D01*
X10259646Y-19063984D02*
X10221551Y-19063984D01*
X10221551Y-19063984D02*
X10202503Y-19054460D01*
X10202503Y-19054460D02*
X10192980Y-19035412D01*
X10192980Y-19035412D02*
X10192980Y-18959222D01*
X10192980Y-18959222D02*
X10202503Y-18940174D01*
X10202503Y-18940174D02*
X10221551Y-18930650D01*
X10221551Y-18930650D02*
X10259646Y-18930650D01*
X10259646Y-18930650D02*
X10278694Y-18940174D01*
X10278694Y-18940174D02*
X10288218Y-18959222D01*
X10288218Y-18959222D02*
X10288218Y-18978270D01*
X10288218Y-18978270D02*
X10192980Y-18997317D01*
X10364408Y-19054460D02*
X10383456Y-19063984D01*
X10383456Y-19063984D02*
X10421551Y-19063984D01*
X10421551Y-19063984D02*
X10440599Y-19054460D01*
X10440599Y-19054460D02*
X10450123Y-19035412D01*
X10450123Y-19035412D02*
X10450123Y-19025889D01*
X10450123Y-19025889D02*
X10440599Y-19006841D01*
X10440599Y-19006841D02*
X10421551Y-18997317D01*
X10421551Y-18997317D02*
X10392980Y-18997317D01*
X10392980Y-18997317D02*
X10373932Y-18987793D01*
X10373932Y-18987793D02*
X10364408Y-18968746D01*
X10364408Y-18968746D02*
X10364408Y-18959222D01*
X10364408Y-18959222D02*
X10373932Y-18940174D01*
X10373932Y-18940174D02*
X10392980Y-18930650D01*
X10392980Y-18930650D02*
X10421551Y-18930650D01*
X10421551Y-18930650D02*
X10440599Y-18940174D01*
X10516789Y-19140174D02*
X10526313Y-19130650D01*
X10526313Y-19130650D02*
X10545361Y-19102079D01*
X10545361Y-19102079D02*
X10554884Y-19083031D01*
X10554884Y-19083031D02*
X10564408Y-19054460D01*
X10564408Y-19054460D02*
X10573932Y-19006841D01*
X10573932Y-19006841D02*
X10573932Y-18968746D01*
X10573932Y-18968746D02*
X10564408Y-18921127D01*
X10564408Y-18921127D02*
X10554884Y-18892555D01*
X10554884Y-18892555D02*
X10545361Y-18873508D01*
X10545361Y-18873508D02*
X10526313Y-18844936D01*
X10526313Y-18844936D02*
X10516789Y-18835412D01*
X10878694Y-19140174D02*
X10869170Y-19130650D01*
X10869170Y-19130650D02*
X10850123Y-19102079D01*
X10850123Y-19102079D02*
X10840599Y-19083031D01*
X10840599Y-19083031D02*
X10831075Y-19054460D01*
X10831075Y-19054460D02*
X10821551Y-19006841D01*
X10821551Y-19006841D02*
X10821551Y-18968746D01*
X10821551Y-18968746D02*
X10831075Y-18921127D01*
X10831075Y-18921127D02*
X10840599Y-18892555D01*
X10840599Y-18892555D02*
X10850123Y-18873508D01*
X10850123Y-18873508D02*
X10869170Y-18844936D01*
X10869170Y-18844936D02*
X10878694Y-18835412D01*
X10954884Y-18930650D02*
X10954884Y-19063984D01*
X10954884Y-18949698D02*
X10964408Y-18940174D01*
X10964408Y-18940174D02*
X10983456Y-18930650D01*
X10983456Y-18930650D02*
X11012027Y-18930650D01*
X11012027Y-18930650D02*
X11031075Y-18940174D01*
X11031075Y-18940174D02*
X11040599Y-18959222D01*
X11040599Y-18959222D02*
X11040599Y-19063984D01*
X11164408Y-19063984D02*
X11145361Y-19054460D01*
X11145361Y-19054460D02*
X11135837Y-19044936D01*
X11135837Y-19044936D02*
X11126313Y-19025889D01*
X11126313Y-19025889D02*
X11126313Y-18968746D01*
X11126313Y-18968746D02*
X11135837Y-18949698D01*
X11135837Y-18949698D02*
X11145361Y-18940174D01*
X11145361Y-18940174D02*
X11164408Y-18930650D01*
X11164408Y-18930650D02*
X11192980Y-18930650D01*
X11192980Y-18930650D02*
X11212027Y-18940174D01*
X11212027Y-18940174D02*
X11221551Y-18949698D01*
X11221551Y-18949698D02*
X11231075Y-18968746D01*
X11231075Y-18968746D02*
X11231075Y-19025889D01*
X11231075Y-19025889D02*
X11221551Y-19044936D01*
X11221551Y-19044936D02*
X11212027Y-19054460D01*
X11212027Y-19054460D02*
X11192980Y-19063984D01*
X11192980Y-19063984D02*
X11164408Y-19063984D01*
X11288218Y-18930650D02*
X11364408Y-18930650D01*
X11316789Y-18863984D02*
X11316789Y-19035412D01*
X11316789Y-19035412D02*
X11326313Y-19054460D01*
X11326313Y-19054460D02*
X11345361Y-19063984D01*
X11345361Y-19063984D02*
X11364408Y-19063984D01*
X11583456Y-18930650D02*
X11583456Y-19130650D01*
X11583456Y-18940174D02*
X11602503Y-18930650D01*
X11602503Y-18930650D02*
X11640599Y-18930650D01*
X11640599Y-18930650D02*
X11659646Y-18940174D01*
X11659646Y-18940174D02*
X11669170Y-18949698D01*
X11669170Y-18949698D02*
X11678694Y-18968746D01*
X11678694Y-18968746D02*
X11678694Y-19025889D01*
X11678694Y-19025889D02*
X11669170Y-19044936D01*
X11669170Y-19044936D02*
X11659646Y-19054460D01*
X11659646Y-19054460D02*
X11640599Y-19063984D01*
X11640599Y-19063984D02*
X11602503Y-19063984D01*
X11602503Y-19063984D02*
X11583456Y-19054460D01*
X11792980Y-19063984D02*
X11773932Y-19054460D01*
X11773932Y-19054460D02*
X11764408Y-19035412D01*
X11764408Y-19035412D02*
X11764408Y-18863984D01*
X11954884Y-19063984D02*
X11954884Y-18959222D01*
X11954884Y-18959222D02*
X11945361Y-18940174D01*
X11945361Y-18940174D02*
X11926313Y-18930650D01*
X11926313Y-18930650D02*
X11888218Y-18930650D01*
X11888218Y-18930650D02*
X11869170Y-18940174D01*
X11954884Y-19054460D02*
X11935837Y-19063984D01*
X11935837Y-19063984D02*
X11888218Y-19063984D01*
X11888218Y-19063984D02*
X11869170Y-19054460D01*
X11869170Y-19054460D02*
X11859646Y-19035412D01*
X11859646Y-19035412D02*
X11859646Y-19016365D01*
X11859646Y-19016365D02*
X11869170Y-18997317D01*
X11869170Y-18997317D02*
X11888218Y-18987793D01*
X11888218Y-18987793D02*
X11935837Y-18987793D01*
X11935837Y-18987793D02*
X11954884Y-18978270D01*
X12021551Y-18930650D02*
X12097742Y-18930650D01*
X12050123Y-18863984D02*
X12050123Y-19035412D01*
X12050123Y-19035412D02*
X12059646Y-19054460D01*
X12059646Y-19054460D02*
X12078694Y-19063984D01*
X12078694Y-19063984D02*
X12097742Y-19063984D01*
X12240599Y-19054460D02*
X12221551Y-19063984D01*
X12221551Y-19063984D02*
X12183456Y-19063984D01*
X12183456Y-19063984D02*
X12164408Y-19054460D01*
X12164408Y-19054460D02*
X12154884Y-19035412D01*
X12154884Y-19035412D02*
X12154884Y-18959222D01*
X12154884Y-18959222D02*
X12164408Y-18940174D01*
X12164408Y-18940174D02*
X12183456Y-18930650D01*
X12183456Y-18930650D02*
X12221551Y-18930650D01*
X12221551Y-18930650D02*
X12240599Y-18940174D01*
X12240599Y-18940174D02*
X12250123Y-18959222D01*
X12250123Y-18959222D02*
X12250123Y-18978270D01*
X12250123Y-18978270D02*
X12154884Y-18997317D01*
X12421551Y-19063984D02*
X12421551Y-18863984D01*
X12421551Y-19054460D02*
X12402504Y-19063984D01*
X12402504Y-19063984D02*
X12364408Y-19063984D01*
X12364408Y-19063984D02*
X12345361Y-19054460D01*
X12345361Y-19054460D02*
X12335837Y-19044936D01*
X12335837Y-19044936D02*
X12326313Y-19025889D01*
X12326313Y-19025889D02*
X12326313Y-18968746D01*
X12326313Y-18968746D02*
X12335837Y-18949698D01*
X12335837Y-18949698D02*
X12345361Y-18940174D01*
X12345361Y-18940174D02*
X12364408Y-18930650D01*
X12364408Y-18930650D02*
X12402504Y-18930650D01*
X12402504Y-18930650D02*
X12421551Y-18940174D01*
X12497742Y-19140174D02*
X12507265Y-19130650D01*
X12507265Y-19130650D02*
X12526313Y-19102079D01*
X12526313Y-19102079D02*
X12535837Y-19083031D01*
X12535837Y-19083031D02*
X12545361Y-19054460D01*
X12545361Y-19054460D02*
X12554884Y-19006841D01*
X12554884Y-19006841D02*
X12554884Y-18968746D01*
X12554884Y-18968746D02*
X12545361Y-18921127D01*
X12545361Y-18921127D02*
X12535837Y-18892555D01*
X12535837Y-18892555D02*
X12526313Y-18873508D01*
X12526313Y-18873508D02*
X12507265Y-18844936D01*
X12507265Y-18844936D02*
X12497742Y-18835412D01*
X5451250Y-19392500D02*
X5551250Y-19292500D01*
X5451250Y-19192500D01*
X5351250Y-19292500D01*
X5451250Y-19392500D01*
X5792979Y-19183984D02*
X5916789Y-19183984D01*
X5916789Y-19183984D02*
X5850122Y-19260174D01*
X5850122Y-19260174D02*
X5878693Y-19260174D01*
X5878693Y-19260174D02*
X5897741Y-19269698D01*
X5897741Y-19269698D02*
X5907265Y-19279222D01*
X5907265Y-19279222D02*
X5916789Y-19298270D01*
X5916789Y-19298270D02*
X5916789Y-19345889D01*
X5916789Y-19345889D02*
X5907265Y-19364936D01*
X5907265Y-19364936D02*
X5897741Y-19374460D01*
X5897741Y-19374460D02*
X5878693Y-19383984D01*
X5878693Y-19383984D02*
X5821551Y-19383984D01*
X5821551Y-19383984D02*
X5802503Y-19374460D01*
X5802503Y-19374460D02*
X5792979Y-19364936D01*
X6002503Y-19364936D02*
X6012027Y-19374460D01*
X6012027Y-19374460D02*
X6002503Y-19383984D01*
X6002503Y-19383984D02*
X5992979Y-19374460D01*
X5992979Y-19374460D02*
X6002503Y-19364936D01*
X6002503Y-19364936D02*
X6002503Y-19383984D01*
X6107265Y-19383984D02*
X6145360Y-19383984D01*
X6145360Y-19383984D02*
X6164408Y-19374460D01*
X6164408Y-19374460D02*
X6173932Y-19364936D01*
X6173932Y-19364936D02*
X6192979Y-19336365D01*
X6192979Y-19336365D02*
X6202503Y-19298270D01*
X6202503Y-19298270D02*
X6202503Y-19222079D01*
X6202503Y-19222079D02*
X6192979Y-19203031D01*
X6192979Y-19203031D02*
X6183455Y-19193508D01*
X6183455Y-19193508D02*
X6164408Y-19183984D01*
X6164408Y-19183984D02*
X6126312Y-19183984D01*
X6126312Y-19183984D02*
X6107265Y-19193508D01*
X6107265Y-19193508D02*
X6097741Y-19203031D01*
X6097741Y-19203031D02*
X6088217Y-19222079D01*
X6088217Y-19222079D02*
X6088217Y-19269698D01*
X6088217Y-19269698D02*
X6097741Y-19288746D01*
X6097741Y-19288746D02*
X6107265Y-19298270D01*
X6107265Y-19298270D02*
X6126312Y-19307793D01*
X6126312Y-19307793D02*
X6164408Y-19307793D01*
X6164408Y-19307793D02*
X6183455Y-19298270D01*
X6183455Y-19298270D02*
X6192979Y-19288746D01*
X6192979Y-19288746D02*
X6202503Y-19269698D01*
X6316789Y-19269698D02*
X6297741Y-19260174D01*
X6297741Y-19260174D02*
X6288217Y-19250650D01*
X6288217Y-19250650D02*
X6278693Y-19231603D01*
X6278693Y-19231603D02*
X6278693Y-19222079D01*
X6278693Y-19222079D02*
X6288217Y-19203031D01*
X6288217Y-19203031D02*
X6297741Y-19193508D01*
X6297741Y-19193508D02*
X6316789Y-19183984D01*
X6316789Y-19183984D02*
X6354884Y-19183984D01*
X6354884Y-19183984D02*
X6373932Y-19193508D01*
X6373932Y-19193508D02*
X6383455Y-19203031D01*
X6383455Y-19203031D02*
X6392979Y-19222079D01*
X6392979Y-19222079D02*
X6392979Y-19231603D01*
X6392979Y-19231603D02*
X6383455Y-19250650D01*
X6383455Y-19250650D02*
X6373932Y-19260174D01*
X6373932Y-19260174D02*
X6354884Y-19269698D01*
X6354884Y-19269698D02*
X6316789Y-19269698D01*
X6316789Y-19269698D02*
X6297741Y-19279222D01*
X6297741Y-19279222D02*
X6288217Y-19288746D01*
X6288217Y-19288746D02*
X6278693Y-19307793D01*
X6278693Y-19307793D02*
X6278693Y-19345889D01*
X6278693Y-19345889D02*
X6288217Y-19364936D01*
X6288217Y-19364936D02*
X6297741Y-19374460D01*
X6297741Y-19374460D02*
X6316789Y-19383984D01*
X6316789Y-19383984D02*
X6354884Y-19383984D01*
X6354884Y-19383984D02*
X6373932Y-19374460D01*
X6373932Y-19374460D02*
X6383455Y-19364936D01*
X6383455Y-19364936D02*
X6392979Y-19345889D01*
X6392979Y-19345889D02*
X6392979Y-19307793D01*
X6392979Y-19307793D02*
X6383455Y-19288746D01*
X6383455Y-19288746D02*
X6373932Y-19279222D01*
X6373932Y-19279222D02*
X6354884Y-19269698D01*
X6507265Y-19269698D02*
X6488217Y-19260174D01*
X6488217Y-19260174D02*
X6478693Y-19250650D01*
X6478693Y-19250650D02*
X6469170Y-19231603D01*
X6469170Y-19231603D02*
X6469170Y-19222079D01*
X6469170Y-19222079D02*
X6478693Y-19203031D01*
X6478693Y-19203031D02*
X6488217Y-19193508D01*
X6488217Y-19193508D02*
X6507265Y-19183984D01*
X6507265Y-19183984D02*
X6545360Y-19183984D01*
X6545360Y-19183984D02*
X6564408Y-19193508D01*
X6564408Y-19193508D02*
X6573932Y-19203031D01*
X6573932Y-19203031D02*
X6583455Y-19222079D01*
X6583455Y-19222079D02*
X6583455Y-19231603D01*
X6583455Y-19231603D02*
X6573932Y-19250650D01*
X6573932Y-19250650D02*
X6564408Y-19260174D01*
X6564408Y-19260174D02*
X6545360Y-19269698D01*
X6545360Y-19269698D02*
X6507265Y-19269698D01*
X6507265Y-19269698D02*
X6488217Y-19279222D01*
X6488217Y-19279222D02*
X6478693Y-19288746D01*
X6478693Y-19288746D02*
X6469170Y-19307793D01*
X6469170Y-19307793D02*
X6469170Y-19345889D01*
X6469170Y-19345889D02*
X6478693Y-19364936D01*
X6478693Y-19364936D02*
X6488217Y-19374460D01*
X6488217Y-19374460D02*
X6507265Y-19383984D01*
X6507265Y-19383984D02*
X6545360Y-19383984D01*
X6545360Y-19383984D02*
X6564408Y-19374460D01*
X6564408Y-19374460D02*
X6573932Y-19364936D01*
X6573932Y-19364936D02*
X6583455Y-19345889D01*
X6583455Y-19345889D02*
X6583455Y-19307793D01*
X6583455Y-19307793D02*
X6573932Y-19288746D01*
X6573932Y-19288746D02*
X6564408Y-19279222D01*
X6564408Y-19279222D02*
X6545360Y-19269698D01*
X6669170Y-19383984D02*
X6669170Y-19250650D01*
X6669170Y-19269698D02*
X6678693Y-19260174D01*
X6678693Y-19260174D02*
X6697741Y-19250650D01*
X6697741Y-19250650D02*
X6726313Y-19250650D01*
X6726313Y-19250650D02*
X6745360Y-19260174D01*
X6745360Y-19260174D02*
X6754884Y-19279222D01*
X6754884Y-19279222D02*
X6754884Y-19383984D01*
X6754884Y-19279222D02*
X6764408Y-19260174D01*
X6764408Y-19260174D02*
X6783455Y-19250650D01*
X6783455Y-19250650D02*
X6812027Y-19250650D01*
X6812027Y-19250650D02*
X6831074Y-19260174D01*
X6831074Y-19260174D02*
X6840598Y-19279222D01*
X6840598Y-19279222D02*
X6840598Y-19383984D01*
X6935836Y-19383984D02*
X6935836Y-19250650D01*
X6935836Y-19269698D02*
X6945360Y-19260174D01*
X6945360Y-19260174D02*
X6964408Y-19250650D01*
X6964408Y-19250650D02*
X6992979Y-19250650D01*
X6992979Y-19250650D02*
X7012027Y-19260174D01*
X7012027Y-19260174D02*
X7021551Y-19279222D01*
X7021551Y-19279222D02*
X7021551Y-19383984D01*
X7021551Y-19279222D02*
X7031074Y-19260174D01*
X7031074Y-19260174D02*
X7050122Y-19250650D01*
X7050122Y-19250650D02*
X7078693Y-19250650D01*
X7078693Y-19250650D02*
X7097741Y-19260174D01*
X7097741Y-19260174D02*
X7107265Y-19279222D01*
X7107265Y-19279222D02*
X7107265Y-19383984D01*
X7497741Y-19174460D02*
X7326313Y-19431603D01*
X7754884Y-19183984D02*
X7773932Y-19183984D01*
X7773932Y-19183984D02*
X7792979Y-19193508D01*
X7792979Y-19193508D02*
X7802503Y-19203031D01*
X7802503Y-19203031D02*
X7812027Y-19222079D01*
X7812027Y-19222079D02*
X7821551Y-19260174D01*
X7821551Y-19260174D02*
X7821551Y-19307793D01*
X7821551Y-19307793D02*
X7812027Y-19345889D01*
X7812027Y-19345889D02*
X7802503Y-19364936D01*
X7802503Y-19364936D02*
X7792979Y-19374460D01*
X7792979Y-19374460D02*
X7773932Y-19383984D01*
X7773932Y-19383984D02*
X7754884Y-19383984D01*
X7754884Y-19383984D02*
X7735836Y-19374460D01*
X7735836Y-19374460D02*
X7726313Y-19364936D01*
X7726313Y-19364936D02*
X7716789Y-19345889D01*
X7716789Y-19345889D02*
X7707265Y-19307793D01*
X7707265Y-19307793D02*
X7707265Y-19260174D01*
X7707265Y-19260174D02*
X7716789Y-19222079D01*
X7716789Y-19222079D02*
X7726313Y-19203031D01*
X7726313Y-19203031D02*
X7735836Y-19193508D01*
X7735836Y-19193508D02*
X7754884Y-19183984D01*
X7907265Y-19364936D02*
X7916789Y-19374460D01*
X7916789Y-19374460D02*
X7907265Y-19383984D01*
X7907265Y-19383984D02*
X7897741Y-19374460D01*
X7897741Y-19374460D02*
X7907265Y-19364936D01*
X7907265Y-19364936D02*
X7907265Y-19383984D01*
X8107265Y-19383984D02*
X7992979Y-19383984D01*
X8050122Y-19383984D02*
X8050122Y-19183984D01*
X8050122Y-19183984D02*
X8031075Y-19212555D01*
X8031075Y-19212555D02*
X8012027Y-19231603D01*
X8012027Y-19231603D02*
X7992979Y-19241127D01*
X8288217Y-19183984D02*
X8192979Y-19183984D01*
X8192979Y-19183984D02*
X8183456Y-19279222D01*
X8183456Y-19279222D02*
X8192979Y-19269698D01*
X8192979Y-19269698D02*
X8212027Y-19260174D01*
X8212027Y-19260174D02*
X8259646Y-19260174D01*
X8259646Y-19260174D02*
X8278694Y-19269698D01*
X8278694Y-19269698D02*
X8288217Y-19279222D01*
X8288217Y-19279222D02*
X8297741Y-19298270D01*
X8297741Y-19298270D02*
X8297741Y-19345889D01*
X8297741Y-19345889D02*
X8288217Y-19364936D01*
X8288217Y-19364936D02*
X8278694Y-19374460D01*
X8278694Y-19374460D02*
X8259646Y-19383984D01*
X8259646Y-19383984D02*
X8212027Y-19383984D01*
X8212027Y-19383984D02*
X8192979Y-19374460D01*
X8192979Y-19374460D02*
X8183456Y-19364936D01*
X8364408Y-19183984D02*
X8497741Y-19183984D01*
X8497741Y-19183984D02*
X8412027Y-19383984D01*
X8612027Y-19183984D02*
X8631075Y-19183984D01*
X8631075Y-19183984D02*
X8650122Y-19193508D01*
X8650122Y-19193508D02*
X8659646Y-19203031D01*
X8659646Y-19203031D02*
X8669170Y-19222079D01*
X8669170Y-19222079D02*
X8678694Y-19260174D01*
X8678694Y-19260174D02*
X8678694Y-19307793D01*
X8678694Y-19307793D02*
X8669170Y-19345889D01*
X8669170Y-19345889D02*
X8659646Y-19364936D01*
X8659646Y-19364936D02*
X8650122Y-19374460D01*
X8650122Y-19374460D02*
X8631075Y-19383984D01*
X8631075Y-19383984D02*
X8612027Y-19383984D01*
X8612027Y-19383984D02*
X8592979Y-19374460D01*
X8592979Y-19374460D02*
X8583456Y-19364936D01*
X8583456Y-19364936D02*
X8573932Y-19345889D01*
X8573932Y-19345889D02*
X8564408Y-19307793D01*
X8564408Y-19307793D02*
X8564408Y-19260174D01*
X8564408Y-19260174D02*
X8573932Y-19222079D01*
X8573932Y-19222079D02*
X8583456Y-19203031D01*
X8583456Y-19203031D02*
X8592979Y-19193508D01*
X8592979Y-19193508D02*
X8612027Y-19183984D01*
X8754884Y-19183984D02*
X8754884Y-19222079D01*
X8831075Y-19183984D02*
X8831075Y-19222079D01*
X9126313Y-19460174D02*
X9116789Y-19450650D01*
X9116789Y-19450650D02*
X9097741Y-19422079D01*
X9097741Y-19422079D02*
X9088218Y-19403031D01*
X9088218Y-19403031D02*
X9078694Y-19374460D01*
X9078694Y-19374460D02*
X9069170Y-19326841D01*
X9069170Y-19326841D02*
X9069170Y-19288746D01*
X9069170Y-19288746D02*
X9078694Y-19241127D01*
X9078694Y-19241127D02*
X9088218Y-19212555D01*
X9088218Y-19212555D02*
X9097741Y-19193508D01*
X9097741Y-19193508D02*
X9116789Y-19164936D01*
X9116789Y-19164936D02*
X9126313Y-19155412D01*
X9183456Y-19183984D02*
X9316789Y-19183984D01*
X9316789Y-19183984D02*
X9231075Y-19383984D01*
X9497741Y-19383984D02*
X9383456Y-19383984D01*
X9440599Y-19383984D02*
X9440599Y-19183984D01*
X9440599Y-19183984D02*
X9421551Y-19212555D01*
X9421551Y-19212555D02*
X9402503Y-19231603D01*
X9402503Y-19231603D02*
X9383456Y-19241127D01*
X9735837Y-19383984D02*
X9735837Y-19183984D01*
X9821551Y-19383984D02*
X9821551Y-19279222D01*
X9821551Y-19279222D02*
X9812027Y-19260174D01*
X9812027Y-19260174D02*
X9792980Y-19250650D01*
X9792980Y-19250650D02*
X9764408Y-19250650D01*
X9764408Y-19250650D02*
X9745361Y-19260174D01*
X9745361Y-19260174D02*
X9735837Y-19269698D01*
X9945361Y-19383984D02*
X9926313Y-19374460D01*
X9926313Y-19374460D02*
X9916789Y-19364936D01*
X9916789Y-19364936D02*
X9907265Y-19345889D01*
X9907265Y-19345889D02*
X9907265Y-19288746D01*
X9907265Y-19288746D02*
X9916789Y-19269698D01*
X9916789Y-19269698D02*
X9926313Y-19260174D01*
X9926313Y-19260174D02*
X9945361Y-19250650D01*
X9945361Y-19250650D02*
X9973932Y-19250650D01*
X9973932Y-19250650D02*
X9992980Y-19260174D01*
X9992980Y-19260174D02*
X10002503Y-19269698D01*
X10002503Y-19269698D02*
X10012027Y-19288746D01*
X10012027Y-19288746D02*
X10012027Y-19345889D01*
X10012027Y-19345889D02*
X10002503Y-19364936D01*
X10002503Y-19364936D02*
X9992980Y-19374460D01*
X9992980Y-19374460D02*
X9973932Y-19383984D01*
X9973932Y-19383984D02*
X9945361Y-19383984D01*
X10126313Y-19383984D02*
X10107265Y-19374460D01*
X10107265Y-19374460D02*
X10097742Y-19355412D01*
X10097742Y-19355412D02*
X10097742Y-19183984D01*
X10278694Y-19374460D02*
X10259646Y-19383984D01*
X10259646Y-19383984D02*
X10221551Y-19383984D01*
X10221551Y-19383984D02*
X10202503Y-19374460D01*
X10202503Y-19374460D02*
X10192980Y-19355412D01*
X10192980Y-19355412D02*
X10192980Y-19279222D01*
X10192980Y-19279222D02*
X10202503Y-19260174D01*
X10202503Y-19260174D02*
X10221551Y-19250650D01*
X10221551Y-19250650D02*
X10259646Y-19250650D01*
X10259646Y-19250650D02*
X10278694Y-19260174D01*
X10278694Y-19260174D02*
X10288218Y-19279222D01*
X10288218Y-19279222D02*
X10288218Y-19298270D01*
X10288218Y-19298270D02*
X10192980Y-19317317D01*
X10364408Y-19374460D02*
X10383456Y-19383984D01*
X10383456Y-19383984D02*
X10421551Y-19383984D01*
X10421551Y-19383984D02*
X10440599Y-19374460D01*
X10440599Y-19374460D02*
X10450123Y-19355412D01*
X10450123Y-19355412D02*
X10450123Y-19345889D01*
X10450123Y-19345889D02*
X10440599Y-19326841D01*
X10440599Y-19326841D02*
X10421551Y-19317317D01*
X10421551Y-19317317D02*
X10392980Y-19317317D01*
X10392980Y-19317317D02*
X10373932Y-19307793D01*
X10373932Y-19307793D02*
X10364408Y-19288746D01*
X10364408Y-19288746D02*
X10364408Y-19279222D01*
X10364408Y-19279222D02*
X10373932Y-19260174D01*
X10373932Y-19260174D02*
X10392980Y-19250650D01*
X10392980Y-19250650D02*
X10421551Y-19250650D01*
X10421551Y-19250650D02*
X10440599Y-19260174D01*
X10516789Y-19460174D02*
X10526313Y-19450650D01*
X10526313Y-19450650D02*
X10545361Y-19422079D01*
X10545361Y-19422079D02*
X10554884Y-19403031D01*
X10554884Y-19403031D02*
X10564408Y-19374460D01*
X10564408Y-19374460D02*
X10573932Y-19326841D01*
X10573932Y-19326841D02*
X10573932Y-19288746D01*
X10573932Y-19288746D02*
X10564408Y-19241127D01*
X10564408Y-19241127D02*
X10554884Y-19212555D01*
X10554884Y-19212555D02*
X10545361Y-19193508D01*
X10545361Y-19193508D02*
X10526313Y-19164936D01*
X10526313Y-19164936D02*
X10516789Y-19155412D01*
X10878694Y-19460174D02*
X10869170Y-19450650D01*
X10869170Y-19450650D02*
X10850123Y-19422079D01*
X10850123Y-19422079D02*
X10840599Y-19403031D01*
X10840599Y-19403031D02*
X10831075Y-19374460D01*
X10831075Y-19374460D02*
X10821551Y-19326841D01*
X10821551Y-19326841D02*
X10821551Y-19288746D01*
X10821551Y-19288746D02*
X10831075Y-19241127D01*
X10831075Y-19241127D02*
X10840599Y-19212555D01*
X10840599Y-19212555D02*
X10850123Y-19193508D01*
X10850123Y-19193508D02*
X10869170Y-19164936D01*
X10869170Y-19164936D02*
X10878694Y-19155412D01*
X10954884Y-19250650D02*
X10954884Y-19383984D01*
X10954884Y-19269698D02*
X10964408Y-19260174D01*
X10964408Y-19260174D02*
X10983456Y-19250650D01*
X10983456Y-19250650D02*
X11012027Y-19250650D01*
X11012027Y-19250650D02*
X11031075Y-19260174D01*
X11031075Y-19260174D02*
X11040599Y-19279222D01*
X11040599Y-19279222D02*
X11040599Y-19383984D01*
X11164408Y-19383984D02*
X11145361Y-19374460D01*
X11145361Y-19374460D02*
X11135837Y-19364936D01*
X11135837Y-19364936D02*
X11126313Y-19345889D01*
X11126313Y-19345889D02*
X11126313Y-19288746D01*
X11126313Y-19288746D02*
X11135837Y-19269698D01*
X11135837Y-19269698D02*
X11145361Y-19260174D01*
X11145361Y-19260174D02*
X11164408Y-19250650D01*
X11164408Y-19250650D02*
X11192980Y-19250650D01*
X11192980Y-19250650D02*
X11212027Y-19260174D01*
X11212027Y-19260174D02*
X11221551Y-19269698D01*
X11221551Y-19269698D02*
X11231075Y-19288746D01*
X11231075Y-19288746D02*
X11231075Y-19345889D01*
X11231075Y-19345889D02*
X11221551Y-19364936D01*
X11221551Y-19364936D02*
X11212027Y-19374460D01*
X11212027Y-19374460D02*
X11192980Y-19383984D01*
X11192980Y-19383984D02*
X11164408Y-19383984D01*
X11288218Y-19250650D02*
X11364408Y-19250650D01*
X11316789Y-19183984D02*
X11316789Y-19355412D01*
X11316789Y-19355412D02*
X11326313Y-19374460D01*
X11326313Y-19374460D02*
X11345361Y-19383984D01*
X11345361Y-19383984D02*
X11364408Y-19383984D01*
X11583456Y-19250650D02*
X11583456Y-19450650D01*
X11583456Y-19260174D02*
X11602503Y-19250650D01*
X11602503Y-19250650D02*
X11640599Y-19250650D01*
X11640599Y-19250650D02*
X11659646Y-19260174D01*
X11659646Y-19260174D02*
X11669170Y-19269698D01*
X11669170Y-19269698D02*
X11678694Y-19288746D01*
X11678694Y-19288746D02*
X11678694Y-19345889D01*
X11678694Y-19345889D02*
X11669170Y-19364936D01*
X11669170Y-19364936D02*
X11659646Y-19374460D01*
X11659646Y-19374460D02*
X11640599Y-19383984D01*
X11640599Y-19383984D02*
X11602503Y-19383984D01*
X11602503Y-19383984D02*
X11583456Y-19374460D01*
X11792980Y-19383984D02*
X11773932Y-19374460D01*
X11773932Y-19374460D02*
X11764408Y-19355412D01*
X11764408Y-19355412D02*
X11764408Y-19183984D01*
X11954884Y-19383984D02*
X11954884Y-19279222D01*
X11954884Y-19279222D02*
X11945361Y-19260174D01*
X11945361Y-19260174D02*
X11926313Y-19250650D01*
X11926313Y-19250650D02*
X11888218Y-19250650D01*
X11888218Y-19250650D02*
X11869170Y-19260174D01*
X11954884Y-19374460D02*
X11935837Y-19383984D01*
X11935837Y-19383984D02*
X11888218Y-19383984D01*
X11888218Y-19383984D02*
X11869170Y-19374460D01*
X11869170Y-19374460D02*
X11859646Y-19355412D01*
X11859646Y-19355412D02*
X11859646Y-19336365D01*
X11859646Y-19336365D02*
X11869170Y-19317317D01*
X11869170Y-19317317D02*
X11888218Y-19307793D01*
X11888218Y-19307793D02*
X11935837Y-19307793D01*
X11935837Y-19307793D02*
X11954884Y-19298270D01*
X12021551Y-19250650D02*
X12097742Y-19250650D01*
X12050123Y-19183984D02*
X12050123Y-19355412D01*
X12050123Y-19355412D02*
X12059646Y-19374460D01*
X12059646Y-19374460D02*
X12078694Y-19383984D01*
X12078694Y-19383984D02*
X12097742Y-19383984D01*
X12240599Y-19374460D02*
X12221551Y-19383984D01*
X12221551Y-19383984D02*
X12183456Y-19383984D01*
X12183456Y-19383984D02*
X12164408Y-19374460D01*
X12164408Y-19374460D02*
X12154884Y-19355412D01*
X12154884Y-19355412D02*
X12154884Y-19279222D01*
X12154884Y-19279222D02*
X12164408Y-19260174D01*
X12164408Y-19260174D02*
X12183456Y-19250650D01*
X12183456Y-19250650D02*
X12221551Y-19250650D01*
X12221551Y-19250650D02*
X12240599Y-19260174D01*
X12240599Y-19260174D02*
X12250123Y-19279222D01*
X12250123Y-19279222D02*
X12250123Y-19298270D01*
X12250123Y-19298270D02*
X12154884Y-19317317D01*
X12421551Y-19383984D02*
X12421551Y-19183984D01*
X12421551Y-19374460D02*
X12402504Y-19383984D01*
X12402504Y-19383984D02*
X12364408Y-19383984D01*
X12364408Y-19383984D02*
X12345361Y-19374460D01*
X12345361Y-19374460D02*
X12335837Y-19364936D01*
X12335837Y-19364936D02*
X12326313Y-19345889D01*
X12326313Y-19345889D02*
X12326313Y-19288746D01*
X12326313Y-19288746D02*
X12335837Y-19269698D01*
X12335837Y-19269698D02*
X12345361Y-19260174D01*
X12345361Y-19260174D02*
X12364408Y-19250650D01*
X12364408Y-19250650D02*
X12402504Y-19250650D01*
X12402504Y-19250650D02*
X12421551Y-19260174D01*
X12497742Y-19460174D02*
X12507265Y-19450650D01*
X12507265Y-19450650D02*
X12526313Y-19422079D01*
X12526313Y-19422079D02*
X12535837Y-19403031D01*
X12535837Y-19403031D02*
X12545361Y-19374460D01*
X12545361Y-19374460D02*
X12554884Y-19326841D01*
X12554884Y-19326841D02*
X12554884Y-19288746D01*
X12554884Y-19288746D02*
X12545361Y-19241127D01*
X12545361Y-19241127D02*
X12535837Y-19212555D01*
X12535837Y-19212555D02*
X12526313Y-19193508D01*
X12526313Y-19193508D02*
X12507265Y-19164936D01*
X12507265Y-19164936D02*
X12497742Y-19155412D01*
M02*
